o obj1
v 0.002354 0.00942 0.047536
v -2E-06 0.012805 0.044994
v 0.003367 0.00942 0.045796
v 0.00121 0.009422 0.048205
v -0.0009 0.009423 0.048367
v -0.002569 0.009414 0.047296
v -0.003461 0.009426 0.045455
v -0.010405 0.018387 0.003964
v 0.010303 0.019675 0.004
v -0.010307 0.019704 0.004
v 0.010402 0.018212 0.003998
v -0.010328 0.017411 0.006312
v 0.010206 0.017442 0.00511
v -0.010402 0.017414 0.00477
v 0.010338 0.017411 0.006348
v -0.01035 0.002563 0.0018
v -0.010464 0.008072 0.001741
v -0.010366 0.002524 0.000133
v -0.010338 0.008029 0.003838
v -0.010498 0.010668 0.003808
v -0.010379 0.012792 0.018852
v -0.010501 0.017036 0.017714
v -0.010375 0.011577 0.017773
v -0.010403 0.011445 0.004799
v -0.010333 0.016215 0.018827
v -0.010464 0.020754 0.001741
v -0.010256 0.020798 0.00392
v -0.010391 0.026304 0.000164
v -0.01035 0.026263 0.0018
v 0.010213 0.010281 0.004018
v 0.006784 0.00787 0.003922
v 0.010339 0.008029 0.003838
v -0.01021 0.010258 0.004015
v -0.006688 0.007826 0.003913
v -0.005033 0.005965 0.003875
v -0.004875 0.002588 0.003875
v 0.004882 0.006314 0.003998
v 0.004875 0.002538 0.003825
v 0.01035 0.002563 0.0018
v 0.004862 0.002482 0.001761
v 0.010378 0.002535 0.000153
v -0.004861 0.002482 0.001761
v 0.010389 0.02628 0.000133
v 0.004901 0.026345 0.001761
v 0.01035 0.026263 0.0018
v -0.004838 0.026298 0.003838
v 0.004839 0.026252 0.003885
v -0.004913 0.026315 0.001779
v -0.00474 0.023087 0.003992
v 0.004737 0.023113 0.00399
v 0.010409 0.011617 0.017719
v 0.010398 0.011407 0.004752
v 0.010328 0.016056 0.018873
v 0.010383 0.012612 0.0188
v 0.010269 0.020763 0.003932
v 0.010459 0.020803 0.001745
v 0.010465 0.008072 0.001741
v 0.010498 0.010654 0.003799
v 0.010502 0.017036 0.017714
v 0.010499 0.017232 0.00473
v 0.007073 0.021006 0.0019
v 0.005207 0.022541 0.0019
v 0.005031 0.023349 0.003701
v 0.005556 0.022134 0.0037
v 0.006974 0.021021 0.003699
v 0.005151 0.006139 0.0019
v 0.006993 0.007813 0.0019
v 0.005121 0.005962 0.003694
v -0.007105 0.020991 0.0019
v -0.005206 0.022541 0.0019
v -0.006963 0.02103 0.003689
v -0.005556 0.022134 0.0037
v -0.005031 0.02334 0.003703
v -0.005051 0.005645 0.0019
v -0.007155 0.007844 0.0019
v -0.005778 0.006963 0.0019
v 0.010198 0.017334 0.01777
v -0.010194 0.01735 0.017681
v -0.006566 0.020819 0.003997
v 0.006603 0.020795 0.003997
v -0.010293 0.023166 0.004009
v -0.008802 0.015652 0.035926
v 0.008804 0.015668 0.035909
v -0.010389 0.02522 0.019188
v 0.0104 0.025253 0.019037
v 0.008747 0.014412 0.036004
v -0.008749 0.014412 0.036005
v -0.00533 0.014302 0.05381
v -0.008657 0.014413 0.049832
v -0.007802 0.014238 0.052291
v 0.0048 0.014331 0.053832
v 0.008538 0.014414 0.050534
v 0.006547 0.014291 0.053246
v 0.005532 0.009717 0.053858
v -0.005468 0.009491 0.053747
v -0.008779 0.009461 0.050118
v -0.007084 0.009504 0.052821
v 0.005491 0.009412 0.053558
v -0.008745 0.009414 0.036004
v -0.003062 0.009426 0.043491
v -0.001954 0.009418 0.042156
v 0.007738 0.009533 0.052245
v 0.008802 0.009508 0.050203
v 0.000144 0.009433 0.041511
v 0.003168 0.009425 0.043772
v 0.008749 0.009414 0.036005
v 0.001943 0.009422 0.042194
v 0.00901 0.008125 0.035845
v -0.009015 0.008044 0.035742
v -0.010193 0.017399 0.019251
v 0.008962 0.008021 0.035579
v 0.010188 0.017393 0.019253
v -0.010362 0.025305 0.006144
v 0.010382 0.025262 0.006119
v 0.010294 0.023166 0.004009
v 0.01048 0.017678 0.019324
v -0.010479 0.017678 0.019324
v -0.009055 0.015468 0.035708
v -0.009055 0.014105 0.035728
v -0.009049 0.009712 0.035735
v -0.008945 0.01411 0.04996
v 0.008973 0.014113 0.049681
v 0.00905 0.009716 0.035736
v 0.009056 0.014109 0.035727
v 0.009056 0.015468 0.035708
v -0.008395 0.009713 0.051461
v 0.008197 0.014115 0.051853
v -0.009823 0.017502 0.011108
v -0.00897 0.017535 0.009498
v -0.009829 0.020413 0.011614
v -0.008382 0.020413 0.008978
v -0.005245 0.020413 0.015716
v -0.005419 0.017719 0.015752
v -0.006987 0.020413 0.015642
v -0.007581 0.017713 0.015459
v -0.007903 0.017713 0.008742
v -0.008937 0.020413 0.014486
v -0.006166 0.017719 0.008207
v -0.006 0.020413 0.008208
v -0.00901 0.017713 0.014274
v -0.009712 0.017718 0.012743
v -0.008164 0.017414 0.015489
v -0.009805 0.017414 0.013576
v -0.00216 0.017714 0.01179
v -0.001917 0.017415 0.01288
v -0.002761 0.017713 0.013936
v -0.003453 0.017413 0.015198
v -0.003756 0.017713 0.015033
v -0.005659 0.017414 0.016112
v -0.007442 0.017414 0.008156
v -0.0048 0.017414 0.008044
v -0.002534 0.017414 0.009761
v -0.004241 0.017708 0.008647
v -0.002989 0.017713 0.009726
v -0.003062 0.020413 0.014486
v -0.003617 0.020413 0.008978
v -0.002171 0.020413 0.011614
v 0.002171 0.020413 0.011614
v 0.002472 0.017538 0.010274
v 0.003618 0.020413 0.008978
v 0.006755 0.020413 0.015716
v 0.006581 0.017719 0.015752
v 0.005013 0.020413 0.015642
v 0.004419 0.017713 0.015459
v 0.004097 0.017713 0.008742
v 0.003063 0.020413 0.014486
v 0.005834 0.017719 0.008207
v 0.006 0.020413 0.008208
v 0.00299 0.017713 0.014274
v 0.002158 0.017603 0.012482
v 0.002779 0.017415 0.014644
v 0.009967 0.017414 0.010864
v 0.009844 0.017414 0.013442
v 0.00984 0.017714 0.01179
v 0.009239 0.017713 0.013936
v 0.008363 0.017594 0.01505
v 0.005934 0.017415 0.016176
v 0.008496 0.017414 0.00874
v 0.004167 0.017415 0.008277
v 0.006599 0.017413 0.007966
v 0.007759 0.017708 0.008647
v 0.009011 0.017713 0.009726
v 0.008938 0.020413 0.014486
v 0.008383 0.020413 0.008978
v 0.009829 0.020413 0.011614
vn -0.6173 -0.6997 -0.3596
vn -0.3576 -0.707 -0.6101
vn -0.0556 -0.6977 -0.7142
vn 0.3884 -0.7004 -0.5988
vn 0.6413 -0.6995 -0.3154
vn -0 -0.0272 0.9996
vn -0.0016 -0.0017 1
vn -0.0014 1 0.0021
vn -0 0.9997 0.0253
vn -0.9997 -0.0207 0.0105
vn -0.9965 -0.0596 0.0588
vn -0.9995 -0.0228 0.0219
vn -0.9997 -0.023 0.0024
vn -1 0.0001 -0.0076
vn -0.9871 0.0144 0.1593
vn -0.9998 0.0116 0.0178
vn -0.9955 0.0006 0.0945
vn -0.9999 0 -0.0161
vn -0.9992 0.0112 0.0384
vn -0.9936 0.0632 0.0936
vn -0.9989 0 -0.0467
vn -0.9983 -0.0009 -0.0576
vn -0.9995 0.0205 0.0255
vn 0.0269 -0.0777 0.9966
vn -0.0001 -0.0394 0.9992
vn -0.0005 -0.0427 0.9991
vn -0.0247 -0.0776 0.9967
vn -0.0124 -0.0006 0.9999
vn 0.0049 -0.0458 0.9989
vn -0.0008 0.0499 0.9988
vn -0.0113 -0.0305 0.9995
vn 0.0146 -0.9997 0.0172
vn 0 -0.9996 0.027
vn -0.0049 -0.9987 0.05
vn -0.0145 -0.9996 0.0235
vn 0.0006 -0.9995 -0.0309
vn 0 -0.9997 -0.0257
vn 0.015 0.9998 0.0104
vn 0.0046 0.999 0.0443
vn -0.0031 1 0.0085
vn -0.0094 0.9996 0.0253
vn 0.0011 0.9993 -0.0366
vn -0.0031 1 0.0037
vn -0.0045 0.0475 0.9989
vn 0.0001 0.0335 0.9994
vn 0.0009 -0.0008 -1
vn -0.0015 0.0013 -1
vn 0.002 -0.9999 0.0162
vn -0.0018 -0.9999 0.0102
vn -0.0022 0.0072 1
vn 0.0023 -0.0213 0.9998
vn 0.9947 0.0542 0.0874
vn 0.9992 0.0005 -0.0412
vn 0.9986 -0.0005 -0.0528
vn 0.9996 -0.0206 0.0173
vn 0.9995 0.0196 0.0235
vn 0.9965 -0.0596 0.0587
vn 0.9999 -0.0173 -0.0005
vn 0.9999 -0.0171 -0.0006
vn 0.9991 -0.017 0.04
vn 0.9873 0.0123 0.1584
vn 0.9929 -0.0168 0.1178
vn 0.9937 0.0156 -0.1108
vn 0.9999 0.0005 -0.0167
vn 0.9992 0.0117 0.0387
vn 0.0452 -0.0092 0.9989
vn 0.0103 0.0126 0.9999
vn -0.0067 0.0361 0.9993
vn 0.9141 0.3957 -0.0881
vn 0.6351 0.7719 0.0286
vn 0.6167 0.7851 0.0578
vn 0.9974 0.0639 0.0319
vn 0.9948 0.0822 0.0603
vn 0.0597 0.9982 -0.0048
vn 0.0761 0.9968 0.0246
vn -0.0065 -0.0373 0.9993
vn 0.045 0.0097 0.9989
vn 0.011 -0.012 0.9999
vn 0.67 -0.7369 0.0901
vn 0.756 -0.6526 -0.0516
vn 0.0737 -0.9972 -0.0162
vn 0.0452 -0.9984 0.033
vn 0.9974 -0.0713 0.0097
vn 0.9969 -0.0788 -0.0044
vn -0.0465 -0.0097 0.9989
vn 0.0036 0.0318 0.9995
vn -0.0103 0.0126 0.9999
vn -0.632 0.7742 0.0333
vn -0.6165 0.7852 0.0579
vn -0.9135 0.3972 -0.0877
vn -0.0714 0.9973 -0.0158
vn -0.0698 0.9975 -0.0132
vn -0.9973 0.0635 0.0369
vn -0.995 0.0791 0.0611
vn 0.0064 -0.0434 0.999
vn 0 0 1
vn -0.0121 -0.0116 0.9999
vn -0.0473 0.0097 0.9988
vn -0.8725 -0.481 0.0859
vn -0.7467 -0.663 -0.0535
vn -0.5349 -0.8368 0.1167
vn -0.9988 -0.0469 0.0167
vn -0.9982 -0.0598 -0.0034
vn -0.0681 -0.9975 -0.0166
vn -0.0556 -0.9984 0.004
vn 0.0009 -0.5466 0.8374
vn 0.0005 -0.551 0.8345
vn 0.0041 0.6375 0.7704
vn -0.0105 0.8229 0.5681
vn -0.0025 0.7107 0.7035
vn 0.0033 0.6536 0.7568
vn -0.0039 -0.664 0.7477
vn 0.0032 -0.7358 0.6771
vn -0.0167 0.8152 0.579
vn -0.3737 0.468 0.8008
vn -0.7725 0.6222 0.1272
vn -0.5668 0.2445 0.7867
vn -0.6982 0.0129 0.7158
vn -0.9594 0.0644 0.2747
vn -0.7147 0.6993 0.0122
vn -0.4392 0.8981 0.0229
vn -0.5722 0.6165 0.5409
vn 0.701 0.0011 0.7132
vn 0.5716 0.2472 0.7824
vn 0.776 0.6251 0.0842
vn 0.3657 0.4646 0.8065
vn 0.0179 0.787 0.6167
vn -0.8352 -0.3911 0.3865
vn 0.8709 0.058 0.488
vn -0.609 -0.0278 0.7927
vn 0.8206 0.3921 0.4157
vn 0.5498 0.8344 -0.0372
vn 0.7022 0.7118 0.0133
vn 0.7825 0.6226 0.0092
vn 0.634 0.5412 0.5524
vn 0.8253 -0.3976 0.4011
vn 0.6291 -0.0265 0.7769
vn 0.7685 -0.0307 0.6391
vn 0.3894 -0.4363 0.8111
vn -0.0031 -0.0001 -1
vn 0.0207 0.0378 -0.9991
vn -0.0003 0.8681 0.4963
vn 0.0022 0.8694 0.4941
vn 0.0008 0.0753 0.9972
vn 0 0.0637 0.998
vn -0.0873 0.9911 0.1008
vn -0.003 0.9995 0.0305
vn -0.001 0.9997 0.024
vn 0 1 -0.0002
vn -0 1 -0.0001
vn 0.0508 0.9953 0.0826
vn -0.0021 0.0053 1
vn -0.0098 -0.0128 0.9999
vn -0.0003 -0.9999 0.0161
vn -0.012 -0.9999 0.0065
vn -0.0016 -0.9999 0.0112
vn -0.0086 -1 -0.0022
vn -0.0071 -1 0.0066
vn -0.0037 -1 0.0033
vn 0.0019 -1 0.0002
vn -0.0008 -1 -0.0011
vn -0.0017 -1 -0.0004
vn -0.003 -1 0.0039
vn 0.0407 -0.9989 -0.0225
vn 0.0071 -0.9998 0.0159
vn 0.0056 -1 -0.0056
vn 0.0111 -0.9999 0.0064
vn -0.0047 -1 -0.0019
vn 0.0002 -1 0.0016
vn 0.0109 -0.9999 0.0066
vn -0.0046 -1 -0.0037
vn -0 -1 0.0035
vn -0 -0.123 0.9924
vn -0.0048 -0.1872 0.9823
vn -0.0056 -0.8699 -0.4931
vn -0.0002 -0.8673 -0.4979
vn -0.0009 -0.9995 0.0313
vn -0.0003 -0.9992 0.0394
vn 0.9928 -0.1193 0.0113
vn -0.9565 -0.2916 0.0098
vn -0.0015 1 0.0065
vn 0.0021 1 0.0006
vn -0.0175 0.0323 -0.9993
vn 0.0034 -0.0003 -1
vn 1 -0.0057 -0.0015
vn 0.9999 0.01 -0.0112
vn 0.999 0.0027 -0.0444
vn 0.9998 -0.0062 -0.0209
vn -1 -0.0043 -0.0021
vn -0.9999 0.0117 -0.0118
vn -0.9993 0.0041 -0.0363
vn -0.9999 -0.0045 -0.0138
vn -0.996 0.0135 0.0884
vn -0.9963 -0.005 0.0859
vn 0.1563 -0.0012 -0.9877
vn -0.8821 -0.0069 -0.4711
vn -0.9992 -0.0351 0.0181
vn -1 -0.0014 0.0077
vn 1 -0.0014 0.006
vn 0.9992 -0.0352 0.0166
vn 0.9862 -0.036 -0.1616
vn 0.9268 -0.0052 -0.3755
vn 0.8828 -0.0022 -0.4697
vn 0.996 0.0138 0.0884
vn 0.9963 -0.014 0.0847
vn -0.001 -0.7099 -0.7043
vn 0.0012 -0.7198 -0.6942
vn -0.0043 0.7094 -0.7048
vn -0.002 0.6938 -0.7201
vn 0.0006 0.703 -0.7112
vn 0.0078 0.7066 -0.7076
vn -0.5237 0.0038 0.8519
vn -0.4968 0.0219 0.8676
vn -0.7222 -0.0321 0.6909
vn -0.8979 0.0372 0.4385
vn -0.9598 -0.0248 0.2795
vn 0.9417 0.0032 0.3365
vn 0.8855 -0.0492 0.4621
vn 0.6451 0.0007 0.7641
vn 0.5888 -0.0226 0.808
vn 0.3185 0.0559 0.9463
vn 0.6455 0.0361 0.7629
vn 0.7021 -0.639 -0.3141
vn 0.7093 -0.7049 0.002
vn 0.4014 -0.6693 0.6252
vn 0.0073 -0.7019 0.7123
vn -0.4307 -0.8567 0.2837
vn 0.6988 -0.7153 0.0071
vn -0.6998 -0.7143 0.0007
vn 0.9143 0.0034 -0.405
vn -0.6694 -0.0104 0.7428
vn -0.7016 -0.6401 -0.3131
vn 0.7415 0.5508 0.3831
vn -0.6961 -0.7179 0.0067
vn 0.6727 0.0104 0.7398
vn 0.6373 0.0292 0.77
vn -0.8727 0.0047 -0.4883
vn 0.5791 0.8152 0.0082
vn 0.701 0.7131 0.0039
vn 0.8712 0.3798 0.311
vn 0.3404 0.8942 0.2906
vn -0.6369 0.7211 0.2727
vn -0.71 0.7042 0.0047
vn -0.7233 0.6905 0.0053
vn -0.7359 0.5554 0.3873
vn -0.6753 0.011 0.7374
vn -0.6596 0.0194 0.7513
vn -0.7152 -0.6956 0.0688
vn -0.5688 -0.6933 0.4424
vn 0.7013 -0.6985 0.1423
vn 0.5474 -0.6999 0.4589
vn 0.2154 -0.6971 0.6839
vn -0.2573 -0.6997 0.6665
vn 0.0021 -0.9315 0.3638
vn 0.8815 -0.0793 0.4655
vn 0.873 -0.0918 0.479
vn 0.0429 -0.016 -0.999
vn 0.1344 0.0376 -0.9902
vn 0.5741 0.0306 0.8182
vn 0.509 -0.0537 -0.8591
vn 0.3076 -0.0193 0.9513
vn 0.2946 -0.031 0.9551
vn 0.6375 0.0432 -0.7692
vn 0.9089 0.0081 -0.417
vn 0.9517 -0.0828 -0.2955
vn 0.9975 0.0139 -0.0694
vn 0.3854 -0.7972 -0.4647
vn 0.6791 -0.4461 -0.5829
vn -0.4735 -0.8707 -0.1332
vn 0.5196 -0.8197 -0.2411
vn -0.4938 -0.7455 -0.4476
vn -0.773 -0.3741 -0.5124
vn 0.9405 -0.3393 -0.019
vn -0.2958 -0.6722 -0.6787
vn -0.3007 -0.6192 -0.7254
vn 0.0851 -0.7874 -0.6106
vn 0.21 -0.4943 -0.8435
vn -0.0003 1 0.0002
vn 0 1 0.0001
vn 0.0002 1 -0.0001
vn -0.0015 1 -0.0001
vn -0.0418 0.9985 0.036
vn -0.0057 0.9997 0.0223
vn -0.0023 0.9998 0.0195
vn 0.0665 0.9977 -0.0149
vn -0.4831 -0.6704 0.5632
vn -0.5432 -0.4369 0.717
vn -0.5466 -0.8079 0.2202
vn -0.977 -0.0903 0.1932
vn 0.5603 -0.4717 0.6809
vn 0.1733 -0.8155 0.5522
vn 0.0399 -0.3244 0.9451
vn -0.1252 -0.841 0.5263
vn -0.9616 -0.0523 -0.2694
vn -0.7397 0.0542 -0.6707
vn -0.3073 -0.0455 0.9505
vn -0.2228 0.0134 0.9748
vn -0.4904 -0.0503 -0.87
vn -0.3967 0.0135 -0.9179
vn -0.652 0.0578 0.756
vn -0.8745 -0.0705 0.4798
vn -0.9278 0.0207 0.3726
vn -0.9548 -0.023 -0.2965
vn 0 -1 0
vn 0.8691 -0.1314 0.4768
vn 0.6814 0.0573 0.7297
vn 0.9068 0.0085 -0.4214
vn 0.9506 -0.0956 -0.2952
vn 0.9895 0.0384 0.1395
vn 0.3697 -0.8153 -0.4458
vn -0.9627 -0.2666 -0.0459
vn -0.5336 -0.8323 -0.15
vn 0.6228 -0.7435 -0.2434
vn -0.6888 -0.4257 -0.5868
vn -0.3595 -0.4061 -0.8401
vn 0.0713 -0.8588 -0.5072
vn 0.4362 0.0548 -0.8982
vn -0.0003 1 0.0001
vn 0.0003 1 -0.0001
vn -0.2044 0.934 -0.2929
vn 0.097 0.9951 0.0212
vn 0.0007 1 0.0002
vn -0.0001 1 -0.0002
vn 0.2618 0.9651 0.0088
vn -0.3163 -0.5461 0.7757
vn -0.3803 -0.8111 0.4445
vn -0.7461 -0.4199 0.5168
vn -0.5038 -0.8396 0.203
vn 0.5497 -0.6635 0.5075
vn 0.1725 -0.8175 0.5495
vn 0.1149 -0.4207 0.8999
vn -0.1377 -0.8015 0.5819
vn -0.7877 0.0375 -0.615
vn -0.4897 -0.074 -0.8688
vn -0.3658 0.0113 -0.9306
f 1//1 2//1 3//1
f 4//2 2//2 1//2
f 4//3 5//3 2//3
f 5//4 6//4 2//4
f 7//5 2//5 6//5
f 8//6 9//6 10//6
f 8//7 11//7 9//7
f 12//8 13//8 14//8
f 12//9 15//9 13//9
f 16//10 17//10 18//10
f 19//11 20//11 17//11
f 21//12 22//12 23//12
f 23//13 22//13 24//13
f 24//14 22//14 14//14
f 21//15 25//15 22//15
f 14//16 8//16 20//16
f 24//17 14//17 20//17
f 20//18 26//18 17//18
f 8//19 26//19 20//19
f 8//20 27//20 26//20
f 26//21 28//21 17//21
f 17//22 28//22 18//22
f 26//23 29//23 28//23
f 30//24 31//24 32//24
f 30//25 33//25 31//25
f 31//26 33//26 34//26
f 33//27 19//27 34//27
f 35//28 36//28 37//28
f 37//29 36//29 38//29
f 31//30 34//30 37//30
f 34//31 35//31 37//31
f 39//32 40//32 41//32
f 38//33 42//33 40//33
f 36//34 42//34 38//34
f 16//35 18//35 42//35
f 18//36 41//36 40//36
f 18//37 40//37 42//37
f 43//38 44//38 45//38
f 44//39 46//39 47//39
f 48//40 46//40 44//40
f 28//41 29//41 48//41
f 43//42 28//42 44//42
f 44//43 28//43 48//43
f 49//44 47//44 46//44
f 49//45 50//45 47//45
f 18//46 43//46 41//46
f 18//47 28//47 43//47
f 51//48 23//48 52//48
f 23//49 24//49 52//49
f 25//50 21//50 53//50
f 53//51 21//51 54//51
f 55//52 11//52 56//52
f 43//53 56//53 57//53
f 43//54 57//54 41//54
f 57//55 39//55 41//55
f 45//56 56//56 43//56
f 58//57 32//57 57//57
f 59//58 52//58 60//58
f 59//59 51//59 52//59
f 59//60 54//60 51//60
f 53//61 54//61 59//61
f 60//62 52//62 58//62
f 11//63 60//63 58//63
f 56//64 58//64 57//64
f 56//65 11//65 58//65
f 45//66 61//66 56//66
f 62//67 61//67 45//67
f 44//68 62//68 45//68
f 63//69 64//69 62//69
f 62//70 65//70 61//70
f 64//71 65//71 62//71
f 47//72 63//72 44//72
f 44//73 63//73 62//73
f 65//74 56//74 61//74
f 65//75 55//75 56//75
f 66//76 40//76 39//76
f 67//77 39//77 57//77
f 67//78 66//78 39//78
f 67//79 31//79 66//79
f 31//80 68//80 66//80
f 32//81 67//81 57//81
f 32//82 31//82 67//82
f 68//83 38//83 66//83
f 66//84 38//84 40//84
f 29//85 26//85 69//85
f 29//86 70//86 48//86
f 29//87 69//87 70//87
f 69//88 71//88 70//88
f 71//89 72//89 70//89
f 72//90 73//90 70//90
f 27//91 71//91 69//91
f 27//92 69//92 26//92
f 73//93 46//93 48//93
f 73//94 48//94 70//94
f 16//95 42//95 74//95
f 75//96 74//96 76//96
f 75//97 16//97 74//97
f 17//98 16//98 75//98
f 74//99 35//99 76//99
f 35//100 34//100 76//100
f 76//101 34//101 75//101
f 36//102 35//102 74//102
f 36//103 74//103 42//103
f 75//104 19//104 17//104
f 34//105 19//105 75//105
f 52//106 24//106 30//106
f 24//107 33//107 30//107
f 8//108 14//108 11//108
f 11//109 14//109 13//109
f 77//110 78//110 25//110
f 53//111 77//111 25//111
f 54//112 21//112 23//112
f 51//113 54//113 23//113
f 71//114 27//114 79//114
f 71//115 79//115 72//115
f 79//116 49//116 72//116
f 72//117 49//117 73//117
f 46//118 73//118 49//118
f 10//119 27//119 8//119
f 78//120 12//120 22//120
f 12//121 14//121 22//121
f 25//122 78//122 22//122
f 47//123 50//123 63//123
f 63//124 50//124 64//124
f 50//125 80//125 64//125
f 64//126 80//126 65//126
f 80//127 55//127 65//127
f 24//128 20//128 33//128
f 11//129 55//129 9//129
f 19//130 33//130 20//130
f 13//131 60//131 11//131
f 15//132 60//132 13//132
f 59//133 15//133 77//133
f 59//134 60//134 15//134
f 77//135 53//135 59//135
f 30//136 58//136 52//136
f 32//137 58//137 30//137
f 37//138 38//138 68//138
f 31//139 37//139 68//139
f 79//140 81//140 49//140
f 79//141 27//141 81//141
f 82//142 83//142 84//142
f 83//143 85//143 84//143
f 82//144 86//144 83//144
f 87//145 86//145 82//145
f 88//146 89//146 90//146
f 91//147 89//147 88//147
f 92//148 89//148 91//148
f 86//149 87//149 92//149
f 92//150 87//150 89//150
f 92//151 91//151 93//151
f 88//152 94//152 91//152
f 95//153 94//153 88//153
f 96//154 6//154 97//154
f 97//155 6//155 95//155
f 6//156 5//156 95//156
f 96//157 7//157 6//157
f 95//158 5//158 98//158
f 96//159 99//159 7//159
f 99//160 100//160 7//160
f 5//161 4//161 98//161
f 4//162 1//162 98//162
f 99//163 101//163 100//163
f 98//164 1//164 102//164
f 1//165 103//165 102//165
f 99//166 104//166 101//166
f 3//167 103//167 1//167
f 105//168 106//168 3//168
f 107//169 106//169 105//169
f 3//170 106//170 103//170
f 104//171 106//171 107//171
f 99//172 106//172 104//172
f 99//173 108//173 106//173
f 109//174 108//174 99//174
f 110//175 111//175 109//175
f 112//176 111//176 110//176
f 78//177 77//177 110//177
f 77//178 112//178 110//178
f 15//179 112//179 77//179
f 110//180 12//180 78//180
f 84//181 85//181 113//181
f 85//182 114//182 113//182
f 55//183 80//183 115//183
f 115//184 80//184 50//184
f 15//185 114//185 85//185
f 15//186 85//186 116//186
f 9//187 115//187 114//187
f 9//188 114//188 15//188
f 113//189 12//189 84//189
f 84//190 12//190 117//190
f 81//191 10//191 113//191
f 113//192 10//192 12//192
f 117//193 118//193 84//193
f 117//194 109//194 118//194
f 119//195 109//195 120//195
f 119//196 118//196 109//196
f 120//197 96//197 121//197
f 120//198 121//198 119//198
f 122//199 123//199 124//199
f 103//200 123//200 122//200
f 111//201 123//201 108//201
f 125//202 124//202 111//202
f 111//203 124//203 123//203
f 125//204 116//204 85//204
f 111//205 116//205 125//205
f 9//206 12//206 10//206
f 15//207 12//207 9//207
f 115//208 50//208 114//208
f 49//209 113//209 50//209
f 50//210 113//210 114//210
f 49//211 81//211 113//211
f 95//212 88//212 90//212
f 97//213 95//213 90//213
f 126//214 97//214 90//214
f 126//215 90//215 121//215
f 96//216 126//216 121//216
f 103//217 122//217 127//217
f 102//218 103//218 127//218
f 102//219 127//219 93//219
f 94//220 102//220 93//220
f 94//221 93//221 91//221
f 106//222 108//222 123//222
f 111//223 112//223 116//223
f 103//224 106//224 123//224
f 102//225 94//225 98//225
f 94//226 95//226 98//226
f 126//227 96//227 97//227
f 112//228 15//228 116//228
f 99//229 96//229 120//229
f 9//230 55//230 115//230
f 109//231 99//231 120//231
f 110//232 109//232 117//232
f 85//233 83//233 125//233
f 117//234 12//234 110//234
f 125//235 86//235 124//235
f 83//236 86//236 125//236
f 10//237 81//237 27//237
f 86//238 92//238 122//238
f 86//239 122//239 124//239
f 127//240 122//240 92//240
f 127//241 92//241 93//241
f 121//242 90//242 89//242
f 89//243 87//243 119//243
f 89//244 119//244 121//244
f 82//245 84//245 118//245
f 87//246 118//246 119//246
f 87//247 82//247 118//247
f 3//248 2//248 105//248
f 107//249 105//249 2//249
f 100//250 2//250 7//250
f 100//251 101//251 2//251
f 101//252 104//252 2//252
f 104//253 107//253 2//253
f 108//254 109//254 111//254
f 128//255 129//255 130//255
f 130//256 129//256 131//256
f 132//257 133//257 134//257
f 133//258 135//258 134//258
f 129//259 136//259 131//259
f 134//260 135//260 137//260
f 131//261 138//261 139//261
f 136//262 138//262 131//262
f 135//263 140//263 137//263
f 140//264 141//264 137//264
f 137//265 141//265 130//265
f 141//266 128//266 130//266
f 135//267 142//267 140//267
f 142//268 143//268 140//268
f 144//269 145//269 146//269
f 140//270 143//270 141//270
f 146//271 147//271 148//271
f 145//272 147//272 146//272
f 143//273 128//273 141//273
f 148//274 147//274 133//274
f 147//275 149//275 133//275
f 133//276 149//276 135//276
f 149//277 142//277 135//277
f 150//278 147//278 151//278
f 151//279 147//279 152//279
f 149//280 147//280 150//280
f 152//281 147//281 145//281
f 143//282 142//282 128//282
f 142//283 149//283 128//283
f 128//284 149//284 129//284
f 129//285 149//285 150//285
f 153//286 152//286 154//286
f 151//287 152//287 153//287
f 154//288 152//288 144//288
f 152//289 145//289 144//289
f 129//290 150//290 136//290
f 136//291 150//291 138//291
f 150//292 151//292 138//292
f 138//293 151//293 153//293
f 144//294 146//294 155//294
f 146//295 148//295 155//295
f 139//296 153//296 156//296
f 138//297 153//297 139//297
f 155//298 148//298 132//298
f 148//299 133//299 132//299
f 153//300 154//300 156//300
f 156//301 154//301 157//301
f 154//302 144//302 157//302
f 157//303 144//303 155//303
f 155//304 132//304 134//304
f 155//304 134//304 137//304
f 155//304 137//304 130//304
f 156//304 155//304 130//304
f 156//304 130//304 131//304
f 156//304 157//304 155//304
f 156//304 131//304 139//304
f 158//305 159//305 160//305
f 161//257 162//257 163//257
f 162//258 164//258 163//258
f 159//306 165//306 160//306
f 163//260 164//260 166//260
f 160//261 167//261 168//261
f 165//262 167//262 160//262
f 164//263 169//263 166//263
f 169//307 170//307 166//307
f 166//308 170//308 158//308
f 170//309 159//309 158//309
f 164//310 171//310 169//310
f 172//311 173//311 174//311
f 174//312 173//312 175//312
f 169//313 171//313 170//313
f 173//314 176//314 175//314
f 176//315 177//315 162//315
f 162//316 177//316 164//316
f 177//317 171//317 164//317
f 178//318 173//318 172//318
f 177//319 173//319 178//319
f 177//320 176//320 173//320
f 159//321 171//321 179//321
f 179//322 171//322 180//322
f 180//323 177//323 178//323
f 171//149 177//149 180//149
f 170//324 171//324 159//324
f 180//325 178//325 181//325
f 181//326 178//326 182//326
f 178//327 172//327 182//327
f 182//328 172//328 174//328
f 159//329 179//329 165//329
f 165//330 179//330 167//330
f 179//331 180//331 167//331
f 167//332 180//332 181//332
f 174//294 175//294 183//294
f 175//333 176//333 183//333
f 168//296 181//296 184//296
f 167//297 181//297 168//297
f 183//334 176//334 161//334
f 176//335 162//335 161//335
f 181//300 182//300 184//300
f 184//301 182//301 185//301
f 182//302 174//302 185//302
f 185//303 174//303 183//303
f 160//304 166//304 158//304
f 184//304 161//304 163//304
f 184//304 183//304 161//304
f 184//304 185//304 183//304
f 184//304 163//304 168//304
f 168//304 163//304 166//304
f 168//304 166//304 160//304