o obj1
v -0.00086 0.001913 0.043565
v -0.00174 0.009389 0.044414
v -0.001526 0.001913 0.045918
v -0.001297 0.009391 0.046212
v 0.000156 0.009388 0.046766
v 0.000861 0.001913 0.046435
v -0.000156 0.009388 0.043234
v -0.002086 0.009431 0.045269
v -0.002153 0.010887 0.04542
v -0.001465 0.009429 0.046552
v -0.00107 0.010884 0.046981
v 0.000722 0.009434 0.04299
v -0.000723 0.010895 0.042878
v -0.000698 0.009432 0.043016
v -1.1E-05 0.00943 0.047117
v -0.001819 0.009438 0.043879
v -0.001967 0.01089 0.044077
v -0.002887 0.009435 0.043995
v -0.002975 0.009437 0.045703
v -0.003009 0.010894 0.045279
v -0.002455 0.010896 0.043269
v -0.001792 0.009434 0.047551
v 0.00036 0.0109 0.047968
v -0.001871 0.010907 0.047411
v 0.000521 0.009434 0.04803
v -0.001785 0.009434 0.042496
v -0.00097 0.010885 0.042168
v 1.5E-05 0.009438 0.041942
v 0.001026 0.010895 0.04215
v 0.002263 -8.4E-05 0.047263
v 0.004843 -1.7E-05 0.053717
v 0.002269 -3.6E-05 0.053746
v 0.007075 -1.9E-05 0.052769
v 0.008675 -7E-06 0.050319
v 0.008757 -3E-05 0.047272
v 0.008763 1.1E-05 0.036266
v 0.008759 -2.9E-05 0.042728
v 0.002248 -7.6E-05 0.042752
v 0.00227 -3.4E-05 0.036249
v -0.002262 -8.4E-05 0.047263
v -0.002268 -3.6E-05 0.053746
v -0.005692 1.1E-05 0.053604
v -0.007818 -4E-05 0.051918
v -0.008709 -1E-05 0.049939
v -0.008758 -2.9E-05 0.047272
v -0.002274 -3.7E-05 0.03625
v -0.002244 -7.5E-05 0.042756
v -0.008759 -3E-05 0.042724
v -0.008772 2.8E-05 0.036264
v 0.008809 0.001565 0.045
v 0.008786 0.009348 0.050571
v 0.008931 0.009314 0.03609
v -0.008804 0.001559 0.045
v -0.008893 0.009342 0.0499
v -0.008931 0.009314 0.03609
v 0 0.001559 0.053804
v 0 0.001489 0.045
v 0 0.001561 0.036196
v 0.00473 0.009351 0.0539
v -0.00534 0.009355 0.053819
v -0.002707 0.009384 0.041939
v -0.003945 0.0094 0.044254
v 0.007493 0.009395 0.044251
v 0.007497 0.009395 0.045754
v 0.002186 0.009391 0.048375
v 0.002546 0.009437 0.046798
v -0.007258 0.009388 0.050689
v -0.007861 0.009355 0.052191
v 0.007498 0.009394 0.037507
v 0.000754 0.009395 0.037503
v -0.004972 0.009393 0.052438
v -0.000756 0.009394 0.037502
v -0.007492 0.009394 0.037502
v -0.007497 0.009395 0.044247
v 0.003445 0.009387 0.047057
v 0.006869 0.009352 0.053103
v 0.007365 0.009394 0.050327
v 0.005344 0.009386 0.052356
v -0.007492 0.009395 0.045749
v -0.000754 0.009395 0.052497
v 0.003924 0.00939 0.045734
v -0.00073 0.009392 0.04108
v 0.003038 0.009434 0.044653
v 0.00075 0.009395 0.052492
v 0.003923 0.00939 0.044267
v 0.000734 0.00939 0.041077
v 0.002078 0.009434 0.042675
v 0.002057 0.009387 0.041555
v 0.003376 0.009391 0.042815
v -0.000733 0.00939 0.048923
v -0.003923 0.00939 0.045733
v -0.002056 0.009387 0.048445
v -0.003375 0.009391 0.047185
v 0.000734 0.00939 0.048923
v 0.007333 0.001442 0.037673
v 0.007331 0.001442 0.04408
v 0.004115 0.001434 0.044041
v 0.000914 0.00144 0.040925
v 0.002675 0.001428 0.041713
v 0.000916 0.001442 0.037673
v -0.007333 0.001443 0.037672
v -0.000916 0.001442 0.037673
v -0.000909 0.001442 0.040927
v -0.003045 0.00142 0.041957
v -0.004073 0.001442 0.04409
v -0.007332 0.001443 0.04408
v -0.007141 0.001431 0.050442
v -0.00509 0.001432 0.052228
v -0.007332 0.001444 0.04592
v -0.004115 0.001433 0.045959
v -0.000913 0.00144 0.049075
v -0.002675 0.001427 0.048287
v -0.000916 0.001443 0.052328
v 0.006608 0.001413 0.051169
v 0.00731 0.001436 0.049581
v 0.004925 0.001437 0.052263
v 0.000916 0.001444 0.052327
v 0.000959 0.001433 0.049115
v 0.004076 0.00144 0.045913
v 0.003287 0.001427 0.047676
v 0.007332 0.001443 0.04592
v 0.000985 0.010888 0.043066
v 0.002 0.010897 0.044086
v 0.002346 0.010887 0.043179
v 0.002999 0.010897 0.044645
v 0.000827 0.010891 0.047019
v 0.002051 0.01087 0.045824
v 0.002339 0.010885 0.046955
v 0.002155 0.009418 0.044564
v 0.001448 0.009429 0.046568
v 0.001741 0.009389 0.045586
v 0.001526 0.001912 0.044082
v 0.001298 0.009391 0.043788
vn 0.959 0.0821 0.2711
vn 0.9707 -0.0203 -0.2394
vn 0.3562 0.0258 -0.934
vn 0.2115 0.0631 -0.9753
vn 0.597 -0.0208 0.802
vn 0.8966 0.0864 -0.4343
vn 0.8203 -0.0545 -0.5694
vn 0.0186 0.0948 0.9953
vn 0.3569 0.1741 -0.9178
vn 0.6077 0.0856 0.7896
vn 0.6939 -0.0274 0.7195
vn 0.9793 0.074 0.1886
vn 0.9901 0.0311 0.1371
vn -0.9979 -0.0384 -0.0517
vn -0.953 0.1509 -0.2626
vn -0.2413 0.0789 0.9672
vn -0.2029 0.0191 0.979
vn -0.8043 -0.0565 -0.5915
vn -0.5881 0.15 -0.7948
vn -0.2938 -0.0514 -0.9545
vn -0.0095 0.1474 -0.989
vn -0.8421 0.0059 0.5393
vn -0.8765 0.1155 0.4673
vn 0.0076 -0.9999 0.0073
vn 0.0031 -1 0.0091
vn 0.0109 -0.9999 0.0023
vn 0.0083 -0.9999 0.0077
vn 0.0073 -1 -0.0061
vn 0.007 -1 -0.0064
vn -0.0142 -0.9999 0.0073
vn 0.0084 -0.9998 0.0195
vn -0.0148 -0.9999 -0.0082
vn -0.0084 -0.9999 0.0072
vn -0.0068 -1 -0.0058
vn -0.0099 -0.9999 -0.009
vn 0.9996 0.0055 0.0269
vn 0.9997 -0.0124 0.0216
vn 0.9999 -0.0042 0.01
vn 0.9997 -0.0228 -0.0062
vn 0.9998 -0.0181 0.0005
vn -0.9998 -0.0032 0.0181
vn -0.9997 -0.0196 0.0129
vn -0.9998 -0.0217 -0.0047
vn -0.9999 -0.0171 0.0019
vn -0.9999 -0.0132 0.0027
vn -0.5751 -0.818 0.0065
vn -0.575 -0.8181 0.0065
vn -0.5749 -0.8182 -0.0072
vn -0.5759 -0.8175 -0.0067
vn 0.575 -0.8181 0.0065
vn 0.5751 -0.818 0.0065
vn 0.5761 -0.8174 -0.0067
vn 0.5748 -0.8183 -0.0074
vn -0.0025 -0.0188 -0.9998
vn -0.0076 -0.0224 -0.9997
vn 0.0074 -0.0222 -0.9997
vn 0.0028 -0.0189 -0.9998
vn -0 -0.0137 -0.9999
vn -0.008 -0.0075 0.9999
vn -0.0292 -0.022 0.9993
vn -0.0412 0.0223 0.9989
vn 0.0114 -0.02 0.9997
vn 0.0116 -0.0194 0.9997
vn -0.0398 0.9988 -0.0285
vn -0.0375 0.9989 -0.0283
vn 0.0362 0.9993 0
vn 0.0192 0.9993 0.0334
vn -0.0111 0.9998 0.0172
vn 0.0002 0.9984 -0.0563
vn -0.0191 0.9996 0.0221
vn 0.0558 0.9984 -0.0001
vn 0.0456 0.999 -0.0019
vn 0 0.9984 -0.0573
vn -0.0004 0.9985 -0.0543
vn -0.055 0.9985 -0.0002
vn -0.0453 0.999 -0.0019
vn -0.0322 0.9994 0.0087
vn 0.0442 0.9983 0.0391
vn 0.0136 0.9998 0.0174
vn -0.0293 0.9996 0.0028
vn -0.0008 0.9996 0.0269
vn 0.0286 0.9994 0.0201
vn -0.0198 0.9981 -0.0576
vn 0.0496 0.9986 0.0203
vn -0.0198 0.9992 -0.036
vn 0.0399 0.9992 0.0078
vn -0.0001 0.9996 0.0294
vn -0.0373 0.9993 0.0001
vn 0.049 0.9988 0.0003
vn 0.0012 0.9985 -0.0541
vn 0.0168 0.9989 -0.0428
vn 0.0172 0.999 -0.0409
vn 0.0421 0.999 -0.0155
vn 0.0001 0.9995 0.0306
vn -0.0002 1 -0.0012
vn 0.0013 1 -0
vn 0.0353 0.9992 -0.0168
vn -0.0365 0.9985 0.0415
vn 0.0381 0.9983 -0.0431
vn -0.0001 0.9984 -0.0561
vn -0.0014 1 0.0003
vn -0.0321 0.9992 0.0223
vn 0.0318 0.9995 0.0012
vn -0.0195 0.9987 0.0465
vn -0.0484 0.9987 0.0179
vn 0.0027 0.9997 0.0234
vn -0.0082 0.9993 0.0377
vn 0.0013 1 0.0014
vn 0.0003 1 -0.0014
vn -0.0004 1 0.0007
vn -0.0016 1 0.0068
vn -0.0487 0.9988 0.0075
vn 0.0003 0.9988 0.0495
vn -0.0013 1 0.0001
vn -0.0335 0.9994 -0.0027
vn 0.0093 0.9996 0.026
vn 0.0166 0.9988 0.0456
vn 0.7972 -0.0039 0.6037
vn 0.8372 -0.0247 0.5464
vn 0.3908 -0.0242 0.9202
vn 0.3492 -0.0141 0.9369
vn -0.6208 -0.0256 0.7836
vn -0.5425 0.0011 0.8401
vn -0.9117 -0.0162 0.4105
vn -0.9116 -0.0161 0.4107
vn -0.9998 0.0203 -0.0003
vn -0.9998 0.0207 -0.0008
vn 0.0121 0.0286 -0.9995
vn -0.0045 0.0215 -0.9998
vn 0.3399 0.0257 -0.9401
vn 0.4087 0.0136 -0.9126
vn 0.6902 0.0392 -0.7226
vn 0.8504 -0.002 -0.5261
vn 0.9351 0.0326 -0.3528
vn 0.9997 0.0226 0.0009
vn 0.9998 0.0205 0.0057
vn -0 0.0209 0.9998
vn -0.0006 0.0214 0.9998
vn 0.0069 1 0.0006
vn 0 1 0.0036
vn -0.0025 1 -0.0009
vn -0.003 1 0.0001
vn 0 0.0214 0.9998
vn -0.0001 0.0215 0.9998
vn -0.9997 0.0225 0.002
vn -0.9998 0.0203 0.0071
vn -0.8812 0.0364 -0.4713
vn -0.9005 0.0235 -0.4342
vn -0.3985 0.0267 -0.9168
vn -0.4344 0.0165 -0.9006
vn 0.0019 0.021 -0.9998
vn 0.0031 0.0205 -0.9998
vn 0.9998 0.0207 -0.0001
vn 0.9998 0.0201 0.0006
vn 0.0001 1 0.0053
vn 0.0054 1 0.0001
vn -0.0104 0.9999 0.0001
vn 0.0002 0.9999 -0.0104
vn 0.6565 0.0331 -0.7536
vn 0.6075 0.0119 -0.7942
vn 0.999 0.0161 -0.0423
vn 0.9987 0.019 -0.0472
vn 0.0045 0.0215 0.9998
vn -0.0121 0.0286 0.9995
vn -0.3397 0.0257 0.9402
vn -0.4085 0.0136 0.9127
vn -0.6902 0.0393 0.7226
vn -0.8505 -0.002 0.5259
vn -0.9351 0.0326 0.3528
vn -0.9998 0.0206 -0.0058
vn -0.9997 0.0226 -0.001
vn 0.0238 0.0259 -0.9994
vn 0.0141 0.021 -0.9997
vn 0.0031 1 0.0026
vn 0.0019 1 0.0018
vn 0.0005 1 -0.0012
vn -0.0055 1 -0.0049
vn -0.914 0.0441 -0.4033
vn -0.5443 0.0385 -0.838
vn -0.7085 -0.0073 -0.7057
vn -0.0297 0.0202 -0.9994
vn -0.0158 0.0124 -0.9998
vn 0.9998 0.0209 -0.0045
vn 0.9995 0.0286 0.0135
vn 0.9401 0.0257 0.3399
vn 0.9127 0.0136 0.4085
vn 0.7226 0.0393 0.6902
vn 0.5259 -0.002 0.8505
vn 0.3529 0.0326 0.9351
vn -0.0021 0.0226 0.9997
vn -0.0057 0.021 0.9998
vn -1 0.0075 -0.0061
vn -0.9994 0.0202 -0.0289
vn 0.0013 1 -0.0028
vn 0.0015 1 -0.0031
vn -0.0049 1 0.0055
vn -0.0008 1 0.002
vn -0.0075 0.9999 0.0111
vn 0.0107 0.9999 -0.0062
vn 0.0023 1 0.0066
vn 0.008 1 0.0032
vn -0.0021 0.9999 -0.013
vn 0.0083 1 0.0035
vn -0.005 0.9999 -0.012
vn 0.0031 1 0.0074
vn 0.0108 0.9999 -0.0117
vn -0.0152 0.9999 0.0065
vn 0.0115 0.9999 -0.0069
vn 0.0218 0.9997 -0.0132
vn 0.0049 0.9999 -0.0094
vn -0.004 0.9999 -0.0106
vn 0.0113 0.9994 -0.0327
vn -0.0092 0.9998 0.016
vn -0.0349 0.9994 -0.0047
vn 0.0182 0.9998 0.0003
vn 0.0004 0.9999 -0.0137
vn 0.9743 0.0273 0.2234
vn 0.9558 0.1073 0.2738
vn 0.3331 -0.0975 -0.9378
vn 0.5196 -0.0181 0.8542
vn 0.6077 0.1577 -0.7783
vn 0.4544 0.0875 0.8865
vn 0.913 -0.0274 -0.4069
vn 0.8992 0.0217 -0.4369
vn -0.7316 0.139 0.6674
vn 0.0204 -0.0785 -0.9967
vn -0.7062 0.0908 0.7021
vn -0.3489 0.138 -0.927
vn -0.1099 -0.0325 0.9934
vn -0.6971 -0.0761 -0.7129
vn -0.9202 0.2171 -0.3257
vn -0.995 -0.0954 0.0281
vn -0.959 0.0821 -0.2711
vn -0.9707 -0.0203 0.2394
vn -0.3562 0.0258 0.934
vn -0.2114 0.0631 0.9754
vn -0.597 -0.0208 -0.802
vn 0.2476 0.9675 0.0521
vn -0.2216 0.9521 0.2108
vn 0.0022 0.9819 0.1895
vn 0.0362 0.9949 -0.0946
vn -0.0397 0.9978 -0.0532
vn 0.1493 0.9881 -0.038
vn 0.0574 0.998 -0.0264
vn 0.0395 0.9943 -0.0994
vn 0.0677 0.9944 0.0811
vn 0.0516 0.9963 0.0692
vn -0.5419 0.8174 -0.1955
vn -0.0532 0.9883 -0.1429
vn -0.0429 0.999 0.0118
vn -0.0304 0.9967 0.0753
vn 0.0003 1 -0.0002
vn -0.0003 1 0.0001
vn -0.0065 -0.8175 0.5759
vn -0.0084 -0.8199 0.5724
vn -0.0077 -0.8197 -0.5727
vn -0.0065 -0.8181 -0.575
vn 0.0076 -0.8186 -0.5743
vn 0.0071 -0.8178 -0.5754
vn 0.0071 -0.8173 0.5761
vn 0.0081 -0.8188 0.574
f 1//1 2//1 3//1
f 2//2 4//2 3//2
f 4//3 5//3 3//3
f 3//4 5//4 6//4
f 7//5 2//5 1//5
f 8//6 9//6 10//6
f 9//7 11//7 10//7
f 12//8 13//8 14//8
f 10//9 11//9 15//9
f 14//10 13//10 16//10
f 13//11 17//11 16//11
f 16//12 17//12 8//12
f 17//13 9//13 8//13
f 18//14 19//14 20//14
f 18//15 20//15 21//15
f 22//16 23//16 24//16
f 22//17 25//17 23//17
f 26//18 18//18 21//18
f 26//19 21//19 27//19
f 28//20 26//20 27//20
f 28//21 27//21 29//21
f 19//22 22//22 24//22
f 19//23 24//23 20//23
f 30//24 31//24 32//24
f 30//25 33//25 31//25
f 34//26 33//26 30//26
f 35//27 34//27 30//27
f 36//28 37//28 38//28
f 36//29 38//29 39//29
f 40//30 41//30 42//30
f 40//31 42//31 43//31
f 40//32 43//32 44//32
f 40//33 44//33 45//33
f 46//34 47//34 48//34
f 46//35 48//35 49//35
f 50//36 34//36 35//36
f 50//37 51//37 34//37
f 52//38 51//38 50//38
f 37//39 52//39 50//39
f 36//40 52//40 37//40
f 53//41 45//41 44//41
f 54//42 53//42 44//42
f 55//43 48//43 53//43
f 55//44 49//44 48//44
f 55//45 53//45 54//45
f 30//46 32//46 56//46
f 57//47 30//47 56//47
f 58//48 39//48 38//48
f 58//49 38//49 57//49
f 40//50 57//50 56//50
f 40//51 56//51 41//51
f 58//52 57//52 47//52
f 46//53 58//53 47//53
f 55//54 46//54 49//54
f 58//55 46//55 55//55
f 52//56 39//56 58//56
f 52//57 36//57 39//57
f 52//58 58//58 55//58
f 56//59 59//59 60//59
f 56//60 60//60 42//60
f 56//61 42//61 41//61
f 31//62 56//62 32//62
f 31//63 59//63 56//63
f 18//64 61//64 62//64
f 18//65 26//65 61//65
f 51//66 63//66 64//66
f 65//67 66//67 25//67
f 60//68 67//68 68//68
f 69//69 52//69 70//69
f 60//70 71//70 67//70
f 63//71 52//71 69//71
f 51//72 52//72 63//72
f 52//73 55//73 70//73
f 70//74 55//74 72//74
f 73//75 55//75 74//75
f 74//76 55//76 54//76
f 68//77 67//77 54//77
f 65//78 75//78 66//78
f 76//79 77//79 78//79
f 67//80 79//80 54//80
f 60//81 80//81 71//81
f 76//82 51//82 77//82
f 28//83 61//83 26//83
f 75//84 81//84 66//84
f 28//85 82//85 61//85
f 66//86 81//86 83//86
f 60//87 84//87 80//87
f 79//88 74//88 54//88
f 81//89 85//89 83//89
f 28//90 86//90 82//90
f 87//91 88//91 28//91
f 28//92 88//92 86//92
f 85//93 89//93 83//93
f 60//94 59//94 84//94
f 84//95 90//95 80//95
f 79//96 91//96 74//96
f 83//97 89//97 87//97
f 92//98 22//98 93//98
f 87//99 89//99 88//99
f 73//100 72//100 55//100
f 81//101 64//101 85//101
f 22//102 19//102 93//102
f 51//103 64//103 77//103
f 90//104 22//104 92//104
f 93//105 19//105 91//105
f 59//106 78//106 84//106
f 90//107 25//107 22//107
f 86//108 70//108 82//108
f 84//109 94//109 90//109
f 82//110 70//110 72//110
f 91//111 62//111 74//111
f 91//112 19//112 62//112
f 94//113 25//113 90//113
f 64//114 63//114 85//114
f 19//115 18//115 62//115
f 76//116 78//116 59//116
f 65//117 25//117 94//117
f 51//118 76//118 33//118
f 51//119 33//119 34//119
f 76//120 31//120 33//120
f 76//121 59//121 31//121
f 68//122 43//122 42//122
f 60//123 68//123 42//123
f 54//124 44//124 43//124
f 68//125 54//125 43//125
f 63//126 95//126 96//126
f 69//127 95//127 63//127
f 85//128 96//128 97//128
f 63//129 96//129 85//129
f 98//130 86//130 88//130
f 99//131 98//131 88//131
f 99//132 88//132 89//132
f 97//133 99//133 89//133
f 97//134 89//134 85//134
f 100//135 86//135 98//135
f 100//136 70//136 86//136
f 95//137 69//137 100//137
f 100//138 69//138 70//138
f 99//139 100//139 98//139
f 95//140 100//140 99//140
f 96//141 99//141 97//141
f 96//142 95//142 99//142
f 101//143 72//143 73//143
f 102//144 72//144 101//144
f 82//145 102//145 103//145
f 72//146 102//146 82//146
f 104//147 62//147 61//147
f 104//148 105//148 62//148
f 103//149 61//149 82//149
f 103//150 104//150 61//150
f 62//151 106//151 74//151
f 62//152 105//152 106//152
f 101//153 74//153 106//153
f 101//154 73//154 74//154
f 104//155 102//155 101//155
f 104//156 101//156 106//156
f 103//157 102//157 104//157
f 105//158 104//158 106//158
f 107//159 67//159 108//159
f 67//160 71//160 108//160
f 109//161 67//161 107//161
f 109//162 79//162 67//162
f 109//163 91//163 79//163
f 110//164 91//164 109//164
f 111//165 90//165 92//165
f 112//166 111//166 92//166
f 112//167 92//167 93//167
f 110//168 112//168 93//168
f 110//169 93//169 91//169
f 90//170 113//170 80//170
f 90//171 111//171 113//171
f 71//172 113//172 108//172
f 80//173 113//173 71//173
f 110//174 109//174 107//174
f 112//175 110//175 107//175
f 108//176 112//176 107//176
f 108//177 111//177 112//177
f 113//141 111//141 108//141
f 114//178 77//178 115//178
f 116//179 78//179 114//179
f 78//180 77//180 114//180
f 78//181 117//181 84//181
f 78//182 116//182 117//182
f 117//183 94//183 84//183
f 118//184 94//184 117//184
f 119//185 81//185 75//185
f 120//186 119//186 75//186
f 120//187 75//187 65//187
f 118//188 120//188 65//188
f 118//189 65//189 94//189
f 121//190 81//190 119//190
f 121//191 64//191 81//191
f 77//192 121//192 115//192
f 64//193 121//193 77//193
f 116//194 120//194 118//194
f 116//195 118//195 117//195
f 115//196 119//196 120//196
f 115//197 121//197 119//197
f 114//198 115//198 120//198
f 114//199 120//199 116//199
f 13//200 21//200 17//200
f 17//201 21//201 20//201
f 13//202 27//202 21//202
f 9//203 17//203 20//203
f 13//204 29//204 27//204
f 122//205 29//205 13//205
f 9//206 20//206 24//206
f 123//207 29//207 122//207
f 124//208 29//208 123//208
f 11//209 9//209 24//209
f 125//210 124//210 123//210
f 23//211 126//211 11//211
f 23//212 11//212 24//212
f 125//213 123//213 127//213
f 128//214 125//214 127//214
f 23//215 127//215 126//215
f 128//216 127//216 23//216
f 66//217 83//217 125//217
f 66//218 125//218 128//218
f 87//219 28//219 29//219
f 25//220 66//220 128//220
f 87//221 29//221 124//221
f 25//222 128//222 23//222
f 87//223 124//223 125//223
f 83//224 87//224 125//224
f 129//225 123//225 12//225
f 11//226 126//226 15//226
f 123//227 122//227 12//227
f 15//228 126//228 130//228
f 122//229 13//229 12//229
f 126//230 127//230 130//230
f 130//231 127//231 129//231
f 127//232 123//232 129//232
f 6//233 131//233 132//233
f 131//234 133//234 132//234
f 133//235 7//235 132//235
f 132//236 7//236 1//236
f 5//237 131//237 6//237
f 2//238 16//238 8//238
f 133//239 129//239 12//239
f 7//240 12//240 14//240
f 15//241 4//241 10//241
f 130//242 131//242 5//242
f 4//243 2//243 10//243
f 10//244 2//244 8//244
f 15//245 5//245 4//245
f 2//246 14//246 16//246
f 2//247 7//247 14//247
f 130//248 129//248 131//248
f 15//249 130//249 5//249
f 131//250 129//250 133//250
f 133//251 12//251 7//251
f 6//252 132//252 1//252
f 6//253 1//253 3//253
f 47//254 57//254 53//254
f 47//255 53//255 48//255
f 40//256 45//256 53//256
f 57//257 40//257 53//257
f 50//258 35//258 30//258
f 50//259 30//259 57//259
f 50//260 57//260 38//260
f 37//261 50//261 38//261