o obj1
v 0.015255 0.066307 0.011061
v 0.015256 0.068456 0.026441
v 0.015255 -0.068463 0.026438
v -0.015256 0.068456 0.026441
v -0.015255 0.066307 0.011061
v -0.015255 -0.068463 0.026438
v 0.015255 0.069319 0.026235
v 0.015255 0.071962 0.022136
v 0.015255 -0.069627 0.026136
v 0.015255 -0.070789 0.025323
v 0.015255 -0.07159 0.024234
v 0.015255 -0.071973 0.022689
v 0.015255 -0.071856 0.021586
v 0.015255 -0.070753 0.017618
v 0.015255 -0.069307 0.013206
v 0.015255 -0.066386 0.01107
v 0.015255 -0.068472 0.012109
v 0.015255 -0.067587 0.011488
v 0.015254 0.067548 0.011463
v 0.015255 0.068623 0.012245
v 0.015254 0.069385 0.01339
v 0.015255 0.071892 0.023234
v 0.015255 0.071552 0.024291
v 0.015255 0.070877 0.025224
v 0.015255 0.07016 0.025827
v 0.015254 0.070934 0.018208
v -0.015255 -0.067587 0.011488
v -0.015255 -0.068472 0.012109
v -0.015255 -0.069307 0.013206
v -0.015255 -0.070753 0.017618
v -0.015255 -0.066386 0.01107
v -0.015255 -0.071856 0.021586
v -0.015255 -0.071973 0.022689
v -0.015255 -0.070789 0.025323
v -0.015255 -0.07159 0.024234
v -0.015255 -0.069627 0.026136
v -0.015255 0.069319 0.026235
v -0.015255 0.071892 0.023234
v -0.015255 0.07016 0.025827
v -0.015255 0.070877 0.025224
v -0.015255 0.071552 0.024291
v -0.015255 0.071962 0.022136
v -0.015254 0.069385 0.01339
v -0.015255 0.068623 0.012245
v -0.015254 0.067548 0.011463
v -0.015254 0.070934 0.018208
vn 1 -0 -0
vn -1 -0 -0
vn 1 0.0002 0.0001
vn 1 -0.0004 0.0003
vn 1 0.0001 0
vn 1 0.0004 0.0002
vn 1 -0.0006 -0.0007
vn 1 -0.002 0.0019
vn 1 0.0007 -0.0006
vn 1 -0 -0.0001
vn 1 -0.0001 0.0001
vn 1 0.0007 0.0006
vn 1 0.0003 -0.0001
vn 1 -0.0002 -0.0002
vn -1 -0.0006 -0.0007
vn -1 0.0004 0.0002
vn -1 0.0001 0
vn -1 -0.0004 0.0003
vn -1 0.0003 0.0002
vn -1 0.0002 0.0001
vn -1 0 -0.0001
vn -1 -0.002 0.0019
vn -1 0.0007 -0.0006
vn -1 0.0007 0.0006
vn -1 -0.0001 0.0001
vn -1 -0.0002 -0.0002
vn -1 0.0003 -0.0001
f 1//1 2//1 3//1
f 4//2 5//2 6//2
f 7//3 2//3 8//3
f 3//1 9//1 10//1
f 10//4 11//4 12//4
f 12//5 13//5 10//5
f 14//6 15//6 16//6
f 17//7 18//7 15//7
f 16//1 1//1 3//1
f 19//8 20//8 21//8
f 21//9 1//9 19//9
f 8//10 22//10 7//10
f 23//3 24//3 22//3
f 25//1 7//1 24//1
f 3//11 10//11 13//11
f 13//1 14//1 3//1
f 18//12 16//12 15//12
f 21//13 26//13 1//13
f 22//1 24//1 7//1
f 2//13 1//13 26//13
f 14//5 16//5 3//5
f 26//14 8//14 2//14
f 27//15 28//15 29//15
f 29//16 30//16 31//16
f 32//17 33//17 34//17
f 35//18 34//18 33//18
f 36//2 6//2 34//2
f 4//19 37//19 38//19
f 39//2 40//2 37//2
f 41//20 38//20 40//20
f 42//21 4//21 38//21
f 43//22 44//22 45//22
f 45//23 5//23 43//23
f 31//24 27//24 29//24
f 30//2 32//2 6//2
f 34//25 6//25 32//25
f 37//2 40//2 38//2
f 42//26 46//26 4//26
f 43//27 5//27 46//27
f 31//17 30//17 6//17
f 6//2 5//2 31//2
f 46//27 5//27 4//27