o obj1
v 0.062788 0.081589 -0.0005
v 0.061967 0.081543 -0.0005
v 0.061968 0.081544 0
v 0.063823 0.081627 -0.000738
v 0.063656 0.081617 -0.00135
v 0.063225 0.081606 -0.000927
v 0.063197 0.081608 -0.000125
v 0.063197 0.081608 0
v 0.064222 0.081636 -0.000796
v 0.06432 0.08164 -0.00025
v 0.064778 0.081645 -0.00025
v 0.062788 0.081589 0.0005
v 0.061967 0.081543 0.0005
v 0.063197 0.081608 0.000125
v 0.063225 0.081606 0.000927
v 0.063823 0.081627 0.000738
v 0.063656 0.081617 0.00135
v 0.064222 0.081636 0.000795
v 0.06432 0.08164 0.00025
v 0.064778 0.081645 0.00025
vn -0.0559 0.9984 -0.002
vn -0.033 0.9994 -0.0064
vn -0.0421 0.9991 -0.004
vn -0.0339 0.9994 -0.0037
vn -0.0518 0.9986 0.0048
vn -0.0454 0.999 -0.0004
vn -0.0237 0.9997 -0.0089
vn -0.0228 0.9997 -0.0028
vn -0.0125 0.9999 -0.0046
vn -0.0518 0.9986 -0.0048
vn -0.0559 0.9984 0.002
vn -0.0454 0.999 0.0004
vn -0.0421 0.9991 0.004
vn -0.0339 0.9994 0.0037
vn -0.033 0.9994 0.0064
vn -0.0228 0.9997 0.0028
vn -0.0236 0.9997 0.0089
vn -0.0125 0.9999 0.0046
f 1//1 2//1 3//1
f 4//2 5//2 6//2
f 7//3 6//3 1//3
f 7//4 4//4 6//4
f 8//5 1//5 3//5
f 8//6 7//6 1//6
f 9//7 5//7 4//7
f 10//8 9//8 4//8
f 11//9 9//9 10//9
f 12//10 8//10 3//10
f 12//11 3//11 13//11
f 14//12 8//12 12//12
f 15//13 14//13 12//13
f 16//14 14//14 15//14
f 17//15 16//15 15//15
f 18//16 19//16 16//16
f 18//17 16//17 17//17
f 20//18 19//18 18//18