o obj1
v -0.034753 -0.039436 0.085908
v -0.034831 -0.039575 0.086481
v -0.034798 -0.039403 0.086334
v -0.034937 -0.039645 0.08733
v -0.034752 -0.0398 0.085856
v -0.03564 -0.03893 0.082621
v -0.036334 -0.038273 0.082226
v -0.03627 -0.038149 0.081921
v -0.034852 -0.039349 0.086683
v -0.035386 -0.038911 0.082436
v -0.034983 -0.039223 0.087194
v -0.034614 -0.039827 0.087583
v -0.035199 -0.039309 0.088584
v -0.034654 -0.03993 0.086988
v -0.035268 -0.039253 0.087945
v -0.036577 -0.037974 0.082356
v -0.037149 -0.037455 0.082036
v -0.035602 -0.039004 0.088706
v -0.035261 -0.039084 0.087812
v -0.03524 -0.038976 0.087753
v -0.035776 -0.038805 0.082874
v -0.035177 -0.038636 0.089299
v -0.035562 -0.038746 0.08932
v -0.034841 -0.039251 0.088687
v -0.034353 -0.040071 0.086468
v -0.036848 -0.037353 0.082519
v -0.036689 -0.037728 0.082458
v -0.036502 -0.037717 0.082631
v -0.03647 -0.037398 0.081587
v -0.036892 -0.037405 0.081639
v -0.037361 -0.036699 0.081568
v -0.035514 -0.038694 0.088204
v -0.036173 -0.038404 0.089409
v -0.035944 -0.038532 0.088728
v -0.035957 -0.038127 0.089765
v -0.037466 -0.037021 0.082339
v -0.037114 -0.037093 0.082506
v -0.036288 -0.038137 0.089676
v -0.03584 -0.038376 0.088555
v -0.036446 -0.038133 0.089218
v -0.036121 -0.03808 0.088795
v -0.035875 -0.037834 0.089816
v -0.036561 -0.037524 0.089989
v -0.036427 -0.037972 0.089021
v -0.036121 -0.03808 0.082805
v -0.035929 -0.038278 0.082956
v -0.034945 -0.03896 0.082621
v -0.035552 -0.038435 0.082063
v -0.036355 -0.037845 0.088927
v -0.036938 -0.037437 0.089924
v -0.036599 -0.037602 0.089023
v -0.036974 -0.036933 0.090066
v -0.035704 -0.038723 0.08312
v -0.037426 -0.037177 0.089566
v -0.037012 -0.037461 0.08925
v -0.035688 -0.038513 0.083173
v -0.035472 -0.038744 0.083467
v -0.037472 -0.037064 0.08977
v -0.036848 -0.037353 0.089081
v -0.034613 -0.039367 0.083193
v -0.034817 -0.039538 0.083327
v -0.037093 -0.037114 0.089094
v -0.035906 -0.037855 0.081777
v -0.036152 -0.038023 0.08179
v -0.035098 -0.039517 0.083664
v -0.034226 -0.039584 0.083838
v -0.035308 -0.039207 0.083629
v -0.034095 -0.040015 0.08656
v -0.034461 -0.039723 0.087795
v -0.034123 -0.039666 0.087468
v -0.03443 -0.039463 0.088132
v -0.034427 -0.039941 0.0844
v -0.034697 -0.039837 0.084161
v -0.034009 -0.039791 0.084582
v -0.034922 -0.039592 0.084563
v -0.034206 -0.040074 0.085239
v -0.035047 -0.039156 0.084237
v -0.034593 -0.040016 0.085332
v -0.033938 -0.039964 0.085578
v -0.034898 -0.039301 0.084684
v -0.037064 -0.037472 0.08183
v -0.034798 -0.039403 0.085266
v -0.034631 -0.038948 0.087039
v -0.034549 -0.038675 0.087863
v -0.034317 -0.038956 0.087053
v -0.036147 -0.037032 0.082063
v -0.035288 -0.037898 0.082499
v -0.035698 -0.037588 0.08199
v -0.033863 -0.039746 0.086583
v -0.034842 -0.03875 0.087618
v -0.03425 -0.039254 0.088031
v -0.034427 -0.038814 0.088307
v -0.034603 -0.039025 0.08864
v -0.034115 -0.039081 0.086864
v -0.036533 -0.037046 0.082525
v -0.036336 -0.036955 0.082337
v -0.036792 -0.036792 0.0825
v -0.035067 -0.038211 0.08854
v -0.035051 -0.038542 0.088008
v -0.035813 -0.037569 0.082632
v -0.035425 -0.037799 0.082615
v -0.035077 -0.038103 0.088893
v -0.034759 -0.038549 0.088842
v -0.03403 -0.039318 0.087466
v -0.03538 -0.038204 0.088427
v -0.035746 -0.037843 0.088758
v -0.033973 -0.039225 0.086914
v -0.033824 -0.039545 0.086486
v -0.035903 -0.037482 0.089018
v -0.035402 -0.037811 0.089343
v -0.036047 -0.037537 0.082673
v -0.036291 -0.037294 0.082577
v -0.035812 -0.037772 0.082805
v -0.036047 -0.037537 0.088927
v -0.035296 -0.03824 0.089447
v -0.035947 -0.037265 0.089288
v -0.036418 -0.037173 0.089074
v -0.035117 -0.038247 0.08317
v -0.035589 -0.037995 0.082972
v -0.035769 -0.037597 0.089685
v -0.03538 -0.038204 0.083173
v -0.036909 -0.036269 0.089553
v -0.036784 -0.036496 0.089276
v -0.036792 -0.036792 0.0891
v -0.036253 -0.037048 0.089804
v -0.035107 -0.038461 0.083524
v -0.034749 -0.038456 0.083298
v -0.036378 -0.037252 0.089978
v -0.037141 -0.036113 0.089724
v -0.034481 -0.038729 0.083277
v -0.036869 -0.036571 0.089947
v -0.035099 -0.038192 0.082406
v -0.034859 -0.038718 0.083957
v -0.036156 -0.037276 0.081734
v -0.036918 -0.036424 0.081726
v -0.036397 -0.036847 0.08185
v -0.036658 -0.036982 0.081578
v -0.034432 -0.038793 0.083993
v -0.034013 -0.03919 0.08443
v -0.035426 -0.038231 0.082057
v -0.034635 -0.038945 0.084544
v -0.034503 -0.038935 0.084559
v -0.034746 -0.038689 0.082721
v -0.034484 -0.039152 0.083163
v -0.034262 -0.039001 0.084691
v -0.034093 -0.039288 0.083928
v -0.0345 -0.039084 0.085111
v -0.033854 -0.039322 0.085641
v -0.034236 -0.0391 0.085914
v -0.034461 -0.039109 0.085899
v -0.033811 -0.039665 0.085219
v -0.034524 -0.039029 0.086677
v -0.038044 -0.035265 0.08864
v -0.037891 -0.035294 0.089125
v -0.037354 -0.035854 0.089258
v -0.03874 -0.034848 0.083972
v -0.038564 -0.034811 0.083652
v -0.03902 -0.034555 0.084869
v -0.039997 -0.034108 0.084952
v -0.039746 -0.033863 0.085017
v -0.039666 -0.034123 0.084132
v -0.038889 -0.034382 0.084329
v -0.039254 -0.03425 0.083568
v -0.038745 -0.034598 0.082944
v -0.039025 -0.034603 0.08296
v -0.038528 -0.034676 0.083364
v -0.038571 -0.035014 0.083663
v -0.039071 -0.034128 0.084697
v -0.037045 -0.03654 0.089081
v -0.037278 -0.036299 0.089019
v -0.038194 -0.035359 0.083173
v -0.037569 -0.035813 0.088968
v -0.039318 -0.034031 0.084132
v -0.037998 -0.035273 0.082865
v -0.038633 -0.034564 0.08319
v -0.039463 -0.03443 0.083467
v -0.039247 -0.034858 0.082898
v -0.037843 -0.035745 0.082843
v -0.039225 -0.033973 0.084689
v -0.039506 -0.033804 0.085268
v -0.037426 -0.03576 0.082129
v -0.037042 -0.036171 0.082281
v -0.037432 -0.035863 0.082524
v -0.038434 -0.035199 0.082234
v -0.037772 -0.035812 0.088795
v -0.037537 -0.036047 0.088927
v -0.038099 -0.035226 0.082277
v -0.038717 -0.035262 0.082317
v -0.037537 -0.036047 0.082673
v -0.037173 -0.036418 0.082526
v -0.03812 -0.035958 0.081832
v -0.037595 -0.035766 0.081919
v -0.037995 -0.035589 0.088628
v -0.037834 -0.035875 0.081784
v -0.038204 -0.03538 0.088427
v -0.03845 -0.035118 0.08809
v -0.038399 -0.034924 0.088201
v -0.037252 -0.036378 0.081622
v -0.038649 -0.034524 0.088244
v -0.037995 -0.035256 0.089287
v -0.038718 -0.034859 0.087643
v -0.037489 -0.035921 0.08979
v -0.038823 -0.034449 0.087491
v -0.037605 -0.036144 0.089926
v -0.038234 -0.035423 0.089541
v -0.038191 -0.035902 0.089724
v -0.03844 -0.035548 0.089533
v -0.038736 -0.03462 0.08867
v -0.039152 -0.034484 0.088437
v -0.038542 -0.034926 0.089093
v -0.03906 -0.034244 0.087991
v -0.038937 -0.034952 0.088996
v -0.039461 -0.034585 0.088308
v -0.038947 -0.034634 0.087052
v -0.039231 -0.033975 0.087052
v -0.039448 -0.034085 0.087611
v -0.039191 -0.034002 0.086365
v -0.039117 -0.034165 0.086127
v -0.039079 -0.034506 0.086521
v -0.039841 -0.034107 0.087126
v -0.039135 -0.03445 0.085795
v -0.039678 -0.033958 0.08702
v -0.039652 -0.033808 0.086397
v -0.039095 -0.03449 0.085266
v -0.039042 -0.034331 0.08507
v -0.040022 -0.033991 0.085931
v -0.03943 -0.03477 0.085621
v -0.039632 -0.034787 0.085771
v -0.039403 -0.034798 0.085266
v -0.039759 -0.034824 0.084789
v -0.039461 -0.034947 0.084579
v -0.039877 -0.034706 0.085811
v -0.038885 -0.035643 0.08907
v -0.038131 -0.036454 0.08949
v -0.038149 -0.03627 0.089678
v -0.039349 -0.034852 0.084917
v -0.038907 -0.035379 0.089167
v -0.039268 -0.034933 0.084578
v -0.039826 -0.034612 0.084017
v -0.039424 -0.035073 0.083204
v -0.039798 -0.0348 0.08429
v -0.039197 -0.035311 0.083595
v -0.037974 -0.036577 0.089244
v -0.039162 -0.035039 0.084254
v -0.038856 -0.035736 0.088977
v -0.038908 -0.035673 0.082601
v -0.038972 -0.03524 0.083836
v -0.038789 -0.035793 0.088745
v -0.038837 -0.035471 0.082357
v -0.040042 -0.034541 0.085466
v -0.040068 -0.034353 0.085107
v -0.038726 -0.035855 0.082784
v -0.037353 -0.036848 0.089081
v -0.037728 -0.036689 0.089142
v -0.037717 -0.036502 0.088969
v -0.037682 -0.036525 0.089937
v -0.038694 -0.035514 0.083395
v -0.038491 -0.035914 0.082921
v -0.037965 -0.036473 0.081845
v -0.038376 -0.03584 0.083045
v -0.038165 -0.036423 0.082121
v -0.037969 -0.036431 0.082576
v -0.03808 -0.036121 0.082805
v -0.038134 -0.036442 0.082392
v -0.03808 -0.036121 0.088795
v -0.038286 -0.035919 0.088639
v -0.037845 -0.036355 0.082673
v -0.037602 -0.036599 0.082577
v -0.038775 -0.035636 0.088398
v -0.038578 -0.035635 0.088347
v -0.037353 -0.036848 0.082519
v -0.039485 -0.035007 0.088313
v -0.039783 -0.034537 0.087713
v -0.039383 -0.035197 0.0879
v -0.039723 -0.034461 0.083804
v -0.038887 -0.035321 0.087918
v -0.039949 -0.034583 0.087067
v -0.039798 -0.034806 0.087125
v -0.039298 -0.035108 0.087483
v -0.040078 -0.034297 0.086465
v -0.039118 -0.035098 0.08745
v -0.039552 -0.034911 0.086845
v -0.039268 -0.034933 0.087021
v -0.039349 -0.034852 0.086683
v -0.039403 -0.034798 0.086334
v -0.03943 -0.03477 0.085979
vn -0.9893 0.0942 -0.1117
vn -0.9922 -0.0035 -0.1243
vn -0.4912 -0.7666 -0.4136
vn -0.9856 0.0513 -0.1613
vn -0.3401 -0.7645 -0.5476
vn -0.9455 0.1628 -0.2819
vn -0.4578 -0.8702 0.1821
vn -0.8582 -0.4916 -0.1479
vn -0.9011 0.2805 -0.3306
vn -0.7169 -0.669 0.1963
vn -0.5772 -0.8082 0.1172
vn -0.7279 -0.685 -0.0324
vn -0.9149 -0.0454 -0.4011
vn -0.9045 -0.2397 -0.3528
vn -0.7481 -0.6552 0.1057
vn -0.9079 -0.2878 -0.3048
vn 0.2203 -0.6239 0.7498
vn -0.1451 -0.9731 0.1791
vn -0.0413 -0.803 0.5946
vn -0.6185 -0.3747 0.6907
vn -0.1177 -0.1769 -0.9772
vn -0.9066 -0.2368 -0.3492
vn -0.8761 -0.0923 -0.4732
vn -0.3927 -0.8135 0.429
vn -0.8025 -0.5734 -0.1648
vn 0.188 -0.4912 0.8505
vn -0.7178 -0.6661 0.2028
vn -0.572 -0.5224 0.6324
vn -0.5345 -0.8062 0.2537
vn -0.4588 -0.3685 0.8085
vn -0.7799 -0.0536 -0.6236
vn -0.3196 -0.2827 0.9044
vn -0.1789 -0.6465 0.7416
vn -0.7863 -0.1453 -0.6005
vn -0.3242 -0.7347 0.5959
vn -0.767 -0.539 -0.3481
vn -0.6851 -0.7284 -0.0086
vn -0.7507 -0.2012 -0.6293
vn -0.7115 -0.7024 0.0215
vn 0.1496 -0.2094 0.9663
vn -0.7808 -0.443 -0.4406
vn -0.6319 -0.3279 0.7023
vn -0.3051 0.3713 0.877
vn -0.6983 -0.5211 0.4907
vn 0.2755 -0.5326 -0.8003
vn -0.6184 -0.1279 -0.7754
vn -0.6277 -0.2044 -0.7512
vn -0.2657 -0.5592 0.7853
vn -0.2112 -0.4947 0.843
vn -0.5731 -0.6893 0.4432
vn -0.5672 -0.261 -0.7811
vn -0.2265 -0.2793 0.9331
vn -0.7722 -0.4995 0.3927
vn -0.7003 -0.7138 -0.0103
vn -0.7077 -0.576 -0.4091
vn -0.7258 -0.1158 0.6781
vn -0.831 -0.0758 0.551
vn -0.6986 -0.0903 0.7098
vn -0.6703 -0.5397 -0.5094
vn -0.5993 -0.6901 0.4056
vn -0.5297 -0.2435 -0.8125
vn -0.5411 -0.3649 -0.7576
vn -0.6631 -0.7081 0.2426
vn 0.1975 -0.7408 -0.642
vn 0.1858 -0.7437 -0.6422
vn -0.4794 -0.451 -0.7528
vn 0.1214 -0.2503 -0.9605
vn -0.2559 -0.8599 -0.4417
vn 0.185 -0.3406 -0.9218
vn -0.7064 -0.7072 -0.0306
vn 0.3534 -0.8019 -0.4818
vn -0.8179 -0.5295 0.2252
vn 0.2289 -0.9302 0.287
vn -0.4027 -0.8713 -0.2805
vn 0.4619 -0.8229 0.3308
vn -0.871 -0.3291 0.3649
vn 0.356 -0.7548 0.551
vn -0.0335 -0.8893 0.4561
vn 0.0099 -0.8861 0.4634
vn -0.8298 -0.1021 0.5486
vn 0.3048 -0.8498 -0.43
vn -0.382 -0.8861 -0.2624
vn -0.0747 -0.9421 -0.3268
vn 0.4505 -0.8179 -0.3579
vn -0.1089 -0.3568 -0.9278
vn -0.2942 -0.544 -0.7858
vn -0.828 -0.5488 0.1156
vn 0.4224 -0.8715 -0.2491
vn -0.0862 -0.6338 -0.7687
vn -0.8988 -0.1784 0.4005
vn -0.9195 0.0296 0.3919
vn -0.8863 -0.4428 0.1358
vn -0.5627 -0.8231 -0.0761
vn 0.5601 -0.8085 -0.1806
vn 0.1246 -0.9627 0.2401
vn -0.1722 -0.9789 -0.1097
vn -0.9517 -0.0454 0.3038
vn -0.2603 -0.9576 -0.1237
vn 0.368 -0.9298 0.0106
vn -0.4587 -0.6235 -0.6331
vn -0.7966 -0.6045 0.008
vn -0.5644 -0.7172 -0.4087
vn 0.2045 -0.9785 0.0266
vn -0.151 -0.9884 -0.0157
vn -0.9916 -0.0213 0.1275
vn 0.7728 0.6343 -0.0219
vn -0.992 0.034 0.1212
vn -0.3737 -0.9269 0.0343
vn -0.1305 -0.6545 -0.7447
vn -0.8047 -0.5937 0.0011
vn -0.7196 -0.6942 -0.0179
vn -0.9912 0.0156 -0.1311
vn -0.6662 -0.7141 -0.2149
vn 0.5706 -0.6742 0.4689
vn 0.0385 0.9477 -0.317
vn 0.7457 0.6298 -0.2177
vn 0.7173 -0.6426 0.2695
vn 0.0231 0.9486 -0.3157
vn 0.8714 0.045 0.4884
vn 0.3691 0.9058 -0.2079
vn 0.4454 0.5257 0.7247
vn 0.1696 0.8684 -0.4661
vn -0.1496 0.8373 -0.5258
vn 0.3582 0.6335 0.6858
vn 0.6262 0.7476 0.2214
vn 0.4165 0.6559 0.6296
vn 0.7407 0.6718 0.0062
vn 0.8052 0.5472 0.2287
vn 0.9261 0.1583 0.3424
vn 0.5975 -0.495 0.6309
vn -0.6639 -0.7436 0.0789
vn 0.4435 0.8604 -0.2511
vn 0.2831 0.8177 -0.5011
vn 0.8628 0.0713 0.5005
vn 0.6605 0.7341 0.1578
vn 0.9561 0.256 0.1423
vn 0.7117 0.702 0.0236
vn 0.7067 0.7072 0.0216
vn 0.0741 0.6046 -0.7931
vn 0.7411 -0.0404 0.6702
vn 0.8054 0.5477 0.2266
vn 0.2148 0.535 0.8171
vn 0.5456 -0.4209 0.7247
vn 0.2154 0.6343 0.7425
vn 0.0153 0.2214 0.9751
vn 0.2235 0.6324 -0.7417
vn 0.8894 0.4266 0.1641
vn 0.7841 0.3226 0.5302
vn 0.7405 -0.0309 0.6714
vn 0.3455 0.7584 -0.5527
vn 0.6262 0.7503 -0.212
vn 0.2635 0.5781 -0.7723
vn 0.7044 0.7081 0.0499
vn 0.3917 -0.219 0.8937
vn 0.0441 0.6484 0.76
vn -0.0323 0.5787 0.8149
vn 0.7388 0.3259 0.5899
vn 0.607 0.1594 0.7786
vn 0.486 0.7922 0.3691
vn 0.3907 0.7478 -0.5368
vn 0.1292 0.7506 0.648
vn 0.3813 -0.2606 0.8869
vn 0.7096 0.702 -0.0609
vn 0.4115 0.4587 -0.7876
vn 0.7134 0.6688 0.2092
vn 0.1435 0.849 0.5085
vn 0.4399 0.4678 -0.7666
vn 0.7202 0.5396 0.436
vn 0.2903 0.8171 0.498
vn 0.6505 0.7044 -0.2841
vn 0.5225 0.2217 0.8233
vn 0.5521 0.3186 0.7705
vn 0.6365 0.7642 0.1041
vn 0.2025 -0.0969 0.9745
vn 0.6767 0.6693 0.3069
vn 0.7137 0.7004 0.0075
vn 0.593 0.6088 0.5269
vn 0.7914 0.5755 -0.2062
vn 0.4783 0.3814 0.791
vn 0.1234 -0.0429 0.9914
vn 0.2625 0.2323 0.9365
vn -0.0148 0.8557 0.5172
vn 0.5596 0.4941 -0.6654
vn 0.4888 0.4298 -0.7592
vn 0.1101 0.8683 0.4837
vn 0.3724 0.1478 -0.9162
vn 0.4164 0.8781 0.2356
vn 0.5731 0.1877 -0.7977
vn 0.3903 0.1004 -0.9152
vn 0.6428 0.7622 0.0763
vn 0.7131 0.701 -0.0092
vn 0.5907 0.1674 -0.7893
vn 0.3429 -0.2376 -0.9088
vn 0.6976 0.2239 -0.6806
vn -0.1098 0.9127 0.3937
vn 0.6897 -0.2567 -0.6771
vn 0.5968 -0.448 -0.6657
vn 0.1044 0.9537 0.282
vn 0.1457 0.9573 0.2497
vn 0.8984 0.1371 -0.4173
vn 0.7223 0.077 -0.6873
vn 0.478 -0.318 -0.8188
vn 0.6237 -0.1773 -0.7613
vn 0.8509 0.3647 -0.3782
vn 0.8934 0.0823 -0.4418
vn -0.099 0.9603 0.2607
vn 0.9022 0.3723 -0.2176
vn 0.9236 -0.2462 0.2939
vn 0.8956 -0.2383 0.3758
vn 0.766 -0.4246 0.4827
vn 0.7406 -0.3626 0.5657
vn 0.8483 -0.2343 -0.4749
vn 0.1183 0.9586 0.2589
vn 0.6724 -0.4789 -0.5643
vn 0.6946 0.7193 -0.0126
vn 0.0061 -0.0198 -0.9998
vn 0.2068 0.9503 0.2327
vn -0.1971 0.9768 0.0833
vn -0.042 0.9986 0.0327
vn 0.7693 0.5806 -0.2667
vn 0.8925 -0.2949 -0.3413
vn 0.9769 0.1159 -0.1797
vn 0.9487 -0.1798 -0.26
vn 0.5324 0.8445 0.0572
vn 0.933 0.3549 0.0602
vn 0.9648 0.2435 -0.0998
vn 0.971 -0.0838 0.2241
vn -0.0325 0.9939 -0.1049
vn 0.8299 -0.5367 -0.1527
vn 0.4608 0.8843 -0.0755
vn 0.9919 0.1269 -0.0021
vn -0.1064 0.9855 -0.1321
vn 0.7084 0.7057 0.0126
vn 0.9831 -0.1809 0.027
vn 0.4739 0.8772 -0.077
vn 0.7205 0.6215 -0.3078
vn 0.9256 -0.3784 0.013
vn 0.7505 -0.6553 0.0859
vn 0.6581 0.5176 -0.5468
vn 0.0342 0.9776 -0.2079
vn 0.7306 0.6553 -0.1917
vn 0.8073 -0.4385 0.3949
vn -0.6352 0.7234 -0.2705
vn 0.9264 0.2285 0.2994
vn -0.0462 0.8565 -0.5141
vn 0.9209 0.2954 0.2543
vn 0.8758 -0.0015 0.4827
vn 0.9223 0.2886 0.257
vn 0.493 0.4359 -0.753
vn 0.5479 0.4654 -0.6951
vn 0.5348 0.3189 -0.7825
vn 0.7957 0.008 0.6056
vn 0.7608 0.4021 -0.5095
vn 0.6448 0.7374 0.2013
vn 0.731 0.6606 -0.171
vn 0.2183 0.9175 -0.3325
vn 0.8311 0.08 0.5504
vn 0.3278 0.9043 -0.2733
vn 0.8258 0.4634 0.3214
vn -0.5004 0.5905 -0.6332
vn 0.7364 0.6469 -0.1983
vn 0.7903 0.2326 0.5669
vn 0.2735 0.9509 -0.1448
vn 0.7097 0.7045 0.0024
vn 0.7218 0.692 0.0094
vn 0.8269 0.4367 0.3544
vn 0.6793 0.7073 0.1958
vn 0.7128 0.7011 0.0207
vn 0.6339 0.1724 0.7539
vn -0.0524 0.7503 -0.659
vn 0.6339 0.2154 -0.7428
vn 0.4659 0.8232 -0.3246
vn 0.4524 0.8761 -0.1669
vn -0.3447 0.5933 -0.7274
vn 0.5046 0.2139 -0.8365
vn -0.3938 0.5268 -0.7533
vn 0.6366 0.2307 0.7359
vn 0.1402 0.7846 -0.604
vn 0.5717 0.7859 -0.2356
vn 0.759 0.6268 0.176
vn 0.5878 0.2778 0.7598
vn -0.3322 0.3309 -0.8833
vn 0.6451 0.1065 -0.7566
vn 0.5027 0.7519 -0.4265
vn 0.6745 0.1295 -0.7268
vn 0.7732 0.3555 -0.5252
vn 0.1482 0.6359 -0.7574
vn 0.139 0.6344 -0.7604
vn 0.6676 0.3147 0.6748
vn 0.754 0.1382 -0.6421
vn -0.2548 0.3686 -0.894
vn 0.7032 0.701 0.1185
vn 0.427 0.3767 0.822
vn 0.837 0.0903 -0.5397
vn 0.7897 0.0339 -0.6126
vn 0.4742 0.48 0.7381
vn 0.5476 0.6983 -0.461
vn 0.6984 0.6505 0.2984
vn 0.3175 0.5524 -0.7707
vn 0.2234 0.5243 -0.8217
vn 0.8034 0.553 -0.2208
vn -0.101 0.1983 -0.9749
vn 0.6858 0.7 -0.199
vn 0.641 0.6918 -0.3325
vn 0.5826 0.7904 0.1893
vn 0.3234 0.3812 -0.8661
vn 0.0711 0.1421 -0.9873
vn 0.8696 0.0536 -0.4908
vn 0.4554 0.5938 0.6633
vn 0.8131 0.533 -0.2341
vn 0.8695 0.0406 -0.4922
vn 0.2194 0.4211 0.8801
vn 0.1324 0.275 0.9523
vn 0.833 0.5354 -0.1395
vn -0.1804 0.3366 0.9242
vn 0.0458 0.5018 0.8638
vn -0.2312 0.3287 0.9157
vn -0.0821 0.79 0.6076
vn 0.1998 0.7204 0.6641
vn 0.2354 0.6941 0.6803
vn 0.4171 0.8646 0.2803
vn -0.2126 0.7078 0.6737
vn -0.4686 0.5806 0.6658
vn 0.9402 0.1237 -0.3175
vn -0.3168 0.476 0.8204
vn -0.2322 0.5671 0.7902
vn 0.3451 0.8292 0.4397
vn 0.4762 0.8319 0.285
vn 0.4885 0.8583 0.1571
vn 0.0195 0.8783 0.4778
vn -0.2457 0.9237 -0.2938
vn -0.2381 0.8956 -0.3757
vn -0.4246 0.766 -0.4827
vn -0.3626 0.7406 -0.5658
vn -0.0879 0.8842 0.4589
vn 0.9358 0.2989 -0.1868
vn 0.9677 -0.1036 -0.2298
vn 0.931 -0.2271 -0.2856
vn -0.4532 0.7279 0.5145
vn 0.6751 0.7376 0.0104
vn 0.1491 0.9574 0.2474
vn 0.8591 0.5056 -0.0795
vn -0.602 0.6537 0.4586
vn 0.6283 0.7432 0.23
vn 0.4946 0.7317 0.469
vn 0.9969 0.0234 -0.0748
vn -0.4886 0.7945 0.3606
vn 0.0534 0.9754 0.2137
vn -0.0588 0.971 0.2315
vn -0.0332 0.979 -0.2012
vn 0.9731 -0.2122 0.0902
vn 0.3082 0.9503 0.0437
vn -0.5974 0.7845 0.1663
vn -0.6048 0.7796 0.1624
vn 0.9796 -0.1758 0.097
vn 0.5862 0.8102 0.0023
vn 0.5185 0.855 0.0022
vn 0.978 0.2052 0.037
vn 0.977 -0.0814 0.1971
vn 0.9305 0.3642 0.0396
vn 0.7099 0.7043 -0.002
vn -0.2175 0.9758 -0.0242
vn -0.4374 0.8992 -0.0061
vn -0.6805 0.7254 -0.1036
vn 0.9738 -0.0915 0.2081
vn 0.8964 0.4143 0.1574
vn 0.1452 -0.9856 0.087
vn -0.3386 -0.9384 0.069
vn -0.2999 -0.9502 0.0844
vn -0.7642 -0.4951 0.4134
vn 0.336 -0.926 0.1723
vn 0.2421 -0.9523 0.1859
vn -0.7437 -0.2859 0.6044
vn 0.0706 -0.9665 0.2469
vn -0.8847 -0.4218 -0.1984
vn -0.6387 -0.7694 0.0135
vn -0.1751 -0.9376 0.3004
vn -0.7065 -0.7003 -0.1022
vn 0.0693 -0.9412 0.3306
vn -0.6775 -0.7324 -0.0677
vn -0.8155 -0.5617 -0.1394
vn -0.7713 -0.5513 0.3179
vn -0.0597 -0.9411 0.3327
vn 0.3336 -0.7809 0.5281
vn -0.6866 -0.7268 -0.0198
vn -0.6378 0.2235 -0.7371
vn -0.9386 -0.322 -0.1241
vn -0.9266 -0.3562 -0.1206
vn -0.7043 -0.7099 -0.004
vn -0.2 -0.8637 0.4627
vn -0.3749 -0.6186 -0.6905
vn -0.3251 -0.2779 0.9039
vn -0.5143 -0.4299 0.7421
vn -0.184 -0.8832 0.4315
vn -0.5233 0.1372 -0.841
vn -0.6596 -0.7195 -0.2174
vn -0.4091 -0.8499 0.3321
vn -0.5224 -0.5729 -0.6316
vn -0.0622 -0.7754 0.6284
vn -0.3642 -0.4519 -0.8143
vn -0.2831 -0.3205 -0.9039
vn -0.6695 -0.2198 -0.7095
vn -0.1418 -0.7852 0.6027
vn -0.7534 -0.3818 -0.5353
vn -0.7593 -0.4531 -0.4671
vn -0.4583 -0.7651 0.4522
vn -0.1973 -0.749 0.6325
vn -0.7052 -0.709 -0.0021
vn -0.7008 -0.7128 0.0283
vn -0.2007 0.1396 -0.9697
vn -0.4562 -0.7639 0.4565
vn -0.3285 -0.632 -0.7019
vn 0.357 -0.3154 -0.8793
vn -0.521 -0.6981 -0.491
vn -0.5253 0.2851 0.8017
vn -0.0842 -0.6108 0.7873
vn -0.2032 -0.6273 0.7518
vn -0.4607 -0.1614 -0.8728
vn -0.2621 -0.5679 0.7802
vn -0.5154 -0.7723 -0.3715
vn -0.7111 -0.7025 0.0302
vn -0.5024 -0.4104 -0.761
vn -0.1559 -0.7823 -0.6031
vn -0.58 -0.7068 0.4051
vn -0.5545 -0.4901 -0.6726
vn -0.0391 -0.686 -0.7265
vn -0.5347 -0.665 0.5214
vn -0.6879 -0.6148 -0.3858
vn -0.2469 -0.5348 0.8081
vn -0.368 -0.5435 0.7544
vn -0.7024 -0.6724 -0.2335
vn -0.7184 0.2153 0.6614
vn -0.454 -0.4818 0.7495
vn -0.8162 0.0538 0.5752
vn -0.1465 0.0582 0.9875
vn -0.8493 -0.2444 0.4679
vn -0.293 0.0868 0.9522
vn -0.8332 -0.4965 0.2433
vn -0.8758 0.056 0.4794
vn -0.692 -0.7215 -0.0227
vn -0.8159 0.4686 -0.3388
vn -0.9301 0.2241 -0.291
vn -0.2932 -0.8661 -0.4049
vn -0.7554 0.3535 -0.5517
vn -0.8905 -0.0317 -0.454
vn -0.8813 0.058 -0.4689
vn -0.1343 -0.8432 -0.5206
vn -0.7417 0.5037 0.4429
vn -0.8359 -0.5333 0.13
vn -0.8007 -0.5887 0.1114
vn -0.4081 -0.8721 -0.2699
vn -0.9303 -0.261 0.2578
vn -0.067 -0.9049 -0.4204
vn 0.1845 -0.8021 -0.568
vn -0.5442 -0.1628 0.823
vn -0.9345 0.2365 0.2662
vn -0.6201 -0.0148 0.7844
vn -0.0267 -0.9071 -0.42
vn -0.5228 -0.8402 -0.1441
vn -0.1522 -0.9598 -0.236
vn -0.968 0.245 -0.0537
vn -0.967 0.0765 0.2431
vn -0.8674 0.4653 0.1764
vn -0.0136 -0.9345 -0.3558
vn -0.9622 0.1237 -0.2427
vn 0.1412 -0.9285 -0.3436
vn -0.8367 -0.082 -0.5414
vn 0.0797 -0.9652 -0.249
vn -0.8464 -0.2627 -0.4633
vn -0.4329 -0.9004 -0.0425
vn -0.8312 -0.555 0.0339
vn -0.6064 -0.4409 0.6617
vn 0.1425 -0.9744 -0.1737
vn -0.9439 -0.3268 0.0464
vn -0.6991 -0.5425 0.4658
vn -0.9877 0.1558 -0.0135
vn -0.3252 -0.9419 -0.0845
vn -0.6924 -0.7214 -0.0132
vn 0.172 -0.9811 -0.0888
vn 0.2752 -0.9525 -0.1302
vn -0.9905 -0.1376 -0.0015
vn -0.6774 -0.1649 0.7169
vn 0.0816 -0.9967 0
vn -0.7063 -0.708 -0.0002
vn -0.7104 -0.6713 0.2114
vn -0.6742 0.5706 -0.4689
vn -0.683 -0.7302 0.0189
f 1//1 2//1 3//1
f 4//2 2//2 5//2
f 6//3 7//3 8//3
f 3//4 2//4 9//4
f 10//5 6//5 8//5
f 2//6 11//6 9//6
f 12//7 13//7 14//7
f 4//8 15//8 2//8
f 15//9 11//9 2//9
f 7//10 16//10 17//10
f 13//11 18//11 14//11
f 14//12 18//12 4//12
f 11//13 19//13 20//13
f 15//14 19//14 11//14
f 16//15 7//15 21//15
f 18//16 15//16 4//16
f 22//17 23//17 24//17
f 25//18 12//18 14//18
f 24//19 23//19 13//19
f 26//20 27//20 28//20
f 29//21 30//21 31//21
f 15//22 32//22 19//22
f 19//23 32//23 20//23
f 23//24 33//24 13//24
f 18//25 34//25 15//25
f 35//26 23//26 22//26
f 17//27 16//27 36//27
f 16//28 27//28 36//28
f 33//29 18//29 13//29
f 36//30 27//30 37//30
f 34//31 32//31 15//31
f 37//32 27//32 26//32
f 35//33 38//33 23//33
f 32//34 34//34 39//34
f 23//35 38//35 33//35
f 40//36 34//36 18//36
f 6//37 21//37 7//37
f 39//38 34//38 41//38
f 33//39 40//39 18//39
f 42//40 43//40 35//40
f 40//41 44//41 34//41
f 28//42 27//42 45//42
f 27//43 46//43 45//43
f 16//44 46//44 27//44
f 47//45 10//45 48//45
f 34//46 44//46 41//46
f 41//47 44//47 49//47
f 43//48 50//48 35//48
f 35//49 50//49 38//49
f 50//50 33//50 38//50
f 49//51 44//51 51//51
f 50//52 43//52 52//52
f 21//53 53//53 16//53
f 33//54 54//54 40//54
f 54//55 55//55 40//55
f 46//56 53//56 56//56
f 56//57 53//57 57//57
f 53//58 46//58 16//58
f 40//59 55//59 44//59
f 50//60 58//60 33//60
f 44//61 55//61 51//61
f 51//62 55//62 59//62
f 58//63 54//63 33//63
f 60//64 61//64 47//64
f 47//65 61//65 10//65
f 55//66 62//66 59//66
f 63//67 64//67 29//67
f 10//68 61//68 6//68
f 63//69 48//69 64//69
f 6//70 65//70 21//70
f 66//71 61//71 60//71
f 65//72 67//72 21//72
f 12//73 68//73 69//73
f 61//74 65//74 6//74
f 69//75 68//75 70//75
f 21//76 67//76 53//76
f 71//77 24//77 69//77
f 69//78 24//78 12//78
f 24//79 13//79 12//79
f 67//80 57//80 53//80
f 66//81 72//81 61//81
f 73//82 65//82 61//82
f 72//83 73//83 61//83
f 74//84 72//84 66//84
f 64//85 30//85 29//85
f 8//86 30//86 64//86
f 65//87 75//87 67//87
f 74//88 76//88 72//88
f 48//89 10//89 64//89
f 67//90 77//90 57//90
f 75//91 77//91 67//91
f 78//92 75//92 65//92
f 73//93 78//93 65//93
f 79//94 76//94 74//94
f 12//95 25//95 68//95
f 76//96 78//96 72//96
f 75//97 80//97 77//97
f 72//98 78//98 73//98
f 79//99 68//99 76//99
f 8//100 81//100 30//100
f 78//101 5//101 75//101
f 7//102 81//102 8//102
f 68//103 25//103 76//103
f 76//104 25//104 78//104
f 5//105 1//105 75//105
f 80//106 1//106 82//106
f 75//107 1//107 80//107
f 25//108 14//108 78//108
f 10//109 8//109 64//109
f 14//110 5//110 78//110
f 14//111 4//111 5//111
f 5//112 2//112 1//112
f 7//113 17//113 81//113
f 71//114 69//114 70//114
f 83//115 84//115 85//115
f 86//116 87//116 88//116
f 68//117 89//117 70//117
f 90//118 84//118 83//118
f 91//119 92//119 93//119
f 85//120 84//120 94//120
f 95//121 96//121 97//121
f 90//122 98//122 84//122
f 99//123 98//123 90//123
f 100//124 96//124 95//124
f 86//125 96//125 101//125
f 101//126 96//126 100//126
f 84//127 102//127 92//127
f 102//128 103//128 92//128
f 91//129 104//129 92//129
f 71//130 93//130 24//130
f 105//131 106//131 99//131
f 98//132 102//132 84//132
f 106//133 98//133 99//133
f 103//134 93//134 92//134
f 86//135 101//135 87//135
f 107//136 104//136 108//136
f 84//137 92//137 94//137
f 94//138 92//138 107//138
f 106//139 109//139 98//139
f 103//140 22//140 93//140
f 102//141 110//141 103//141
f 111//142 100//142 112//142
f 93//143 22//143 24//143
f 113//144 100//144 111//144
f 112//145 100//145 95//145
f 114//146 109//146 106//146
f 92//147 104//147 107//147
f 110//148 115//148 103//148
f 115//149 22//149 103//149
f 109//150 116//150 98//150
f 98//151 116//151 102//151
f 117//152 109//152 114//152
f 116//153 110//153 102//153
f 22//154 115//154 35//154
f 113//155 118//155 100//155
f 119//156 118//156 113//156
f 110//157 120//157 115//157
f 120//158 42//158 115//158
f 118//159 101//159 100//159
f 117//160 116//160 109//160
f 121//161 118//161 119//161
f 115//162 42//162 35//162
f 116//163 122//163 110//163
f 123//164 117//164 124//164
f 122//165 125//165 110//165
f 126//166 118//166 121//166
f 123//167 116//167 117//167
f 110//168 125//168 120//168
f 118//169 127//169 101//169
f 122//170 116//170 123//170
f 120//171 128//171 42//171
f 125//172 128//172 120//172
f 101//173 127//173 87//173
f 42//174 128//174 43//174
f 129//175 125//175 122//175
f 127//176 130//176 87//176
f 131//177 125//177 129//177
f 87//178 130//178 132//178
f 131//179 128//179 125//179
f 43//180 128//180 52//180
f 52//181 128//181 131//181
f 126//182 133//182 118//182
f 134//183 135//183 136//183
f 134//184 137//184 135//184
f 133//185 138//185 118//185
f 134//186 29//186 137//186
f 118//187 138//187 127//187
f 63//188 134//188 88//188
f 134//189 63//189 29//189
f 138//190 139//190 127//190
f 127//191 139//191 130//191
f 88//192 140//192 63//192
f 63//193 140//193 48//193
f 132//194 140//194 88//194
f 141//195 142//195 133//195
f 143//196 144//196 47//196
f 47//197 144//197 60//197
f 142//198 145//198 133//198
f 133//199 145//199 138//199
f 130//200 146//200 143//200
f 143//201 140//201 132//201
f 48//202 140//202 47//202
f 47//203 140//203 143//203
f 130//204 143//204 132//204
f 146//205 144//205 143//205
f 147//206 142//206 141//206
f 139//207 146//207 130//207
f 70//208 89//208 104//208
f 91//209 70//209 104//209
f 70//210 91//210 71//210
f 91//211 93//211 71//211
f 146//212 66//212 144//212
f 147//213 145//213 142//213
f 144//214 66//214 60//214
f 138//215 148//215 139//215
f 31//216 137//216 29//216
f 145//217 148//217 138//217
f 147//218 149//218 145//218
f 150//219 149//219 147//219
f 132//220 88//220 87//220
f 146//221 74//221 66//221
f 139//222 151//222 146//222
f 151//223 74//223 146//223
f 149//224 148//224 145//224
f 107//225 108//225 148//225
f 148//226 151//226 139//226
f 89//227 108//227 104//227
f 150//228 152//228 149//228
f 74//229 151//229 79//229
f 149//230 94//230 148//230
f 148//231 108//231 151//231
f 152//232 85//232 149//232
f 94//233 107//233 148//233
f 108//234 89//234 151//234
f 85//235 94//235 149//235
f 136//236 86//236 88//236
f 151//237 89//237 79//237
f 79//238 89//238 68//238
f 134//239 136//239 88//239
f 83//240 85//240 152//240
f 153//241 154//241 155//241
f 156//242 157//242 158//242
f 159//243 160//243 161//243
f 158//244 157//244 162//244
f 163//245 164//245 165//245
f 157//246 166//246 162//246
f 167//247 157//247 156//247
f 162//248 166//248 168//248
f 169//249 123//249 124//249
f 155//250 123//250 170//250
f 170//251 123//251 169//251
f 167//252 171//252 157//252
f 172//253 155//253 170//253
f 129//254 122//254 154//254
f 154//255 122//255 155//255
f 163//256 173//256 164//256
f 171//257 174//257 157//257
f 164//258 173//258 175//258
f 174//259 166//259 157//259
f 176//260 165//260 177//260
f 123//261 155//261 122//261
f 178//262 174//262 171//262
f 179//263 173//263 180//263
f 168//264 175//264 179//264
f 166//265 175//265 168//265
f 174//266 181//266 166//266
f 182//267 181//267 183//267
f 181//268 175//268 166//268
f 178//269 183//269 174//269
f 164//270 184//270 165//270
f 185//271 172//271 186//271
f 175//272 187//272 164//272
f 175//273 173//273 179//273
f 177//274 184//274 188//274
f 186//275 172//275 170//275
f 165//276 184//276 177//276
f 189//277 183//277 178//277
f 187//278 184//278 164//278
f 181//279 187//279 175//279
f 183//280 181//280 174//280
f 190//281 183//281 189//281
f 188//282 184//282 191//282
f 185//283 153//283 172//283
f 181//284 192//284 187//284
f 193//285 153//285 185//285
f 172//286 153//286 155//286
f 187//287 194//287 184//287
f 192//288 194//288 187//288
f 190//289 182//289 183//289
f 195//290 153//290 193//290
f 184//291 194//291 191//291
f 182//292 86//292 181//292
f 96//293 190//293 97//293
f 196//294 197//294 195//294
f 195//295 197//295 153//295
f 96//296 182//296 190//296
f 181//297 135//297 192//297
f 86//298 182//298 96//298
f 135//299 198//299 192//299
f 192//300 198//300 194//300
f 197//301 154//301 153//301
f 194//302 198//302 31//302
f 136//303 181//303 86//303
f 136//304 135//304 181//304
f 154//305 199//305 200//305
f 137//306 198//306 135//306
f 31//307 198//307 137//307
f 196//308 201//308 197//308
f 202//309 131//309 129//309
f 197//310 199//310 154//310
f 201//311 203//311 197//311
f 202//312 204//312 131//312
f 131//313 204//313 52//313
f 203//314 199//314 197//314
f 204//315 205//315 206//315
f 202//316 205//316 204//316
f 206//317 205//317 207//317
f 208//318 209//318 210//318
f 210//319 205//319 200//319
f 200//320 205//320 202//320
f 199//321 211//321 208//321
f 210//322 209//322 212//322
f 212//323 209//323 213//323
f 214//324 203//324 201//324
f 207//325 205//325 212//325
f 212//326 205//326 210//326
f 200//327 208//327 210//327
f 199//328 208//328 200//328
f 215//329 211//329 199//329
f 211//330 209//330 208//330
f 161//331 160//331 173//331
f 163//332 161//332 173//332
f 161//333 163//333 176//333
f 163//334 165//334 176//334
f 211//335 216//335 209//335
f 203//336 217//336 199//336
f 214//337 218//337 203//337
f 219//338 218//338 214//338
f 209//339 216//339 213//339
f 217//340 215//340 199//340
f 215//341 216//341 211//341
f 218//342 217//342 203//342
f 213//343 216//343 220//343
f 200//344 129//344 154//344
f 129//345 200//345 202//345
f 221//346 218//346 219//346
f 216//347 222//347 220//347
f 215//348 223//348 216//348
f 223//349 222//349 216//349
f 160//350 180//350 173//350
f 224//351 225//351 221//351
f 215//352 180//352 223//352
f 220//353 223//353 226//353
f 222//354 223//354 220//354
f 221//355 225//355 218//355
f 217//356 179//356 215//356
f 179//357 180//357 215//357
f 225//358 168//358 218//358
f 158//359 225//359 224//359
f 218//360 168//360 217//360
f 168//361 179//361 217//361
f 180//362 160//362 223//362
f 223//363 160//363 226//363
f 226//364 160//364 159//364
f 158//365 162//365 225//365
f 225//366 162//366 168//366
f 227//367 228//367 229//367
f 230//368 231//368 232//368
f 232//369 231//369 228//369
f 233//370 234//370 235//370
f 228//371 231//371 229//371
f 229//372 231//372 236//372
f 237//373 233//373 235//373
f 236//374 231//374 238//374
f 239//375 240//375 241//375
f 241//376 242//376 230//376
f 242//377 231//377 230//377
f 234//378 243//378 54//378
f 238//379 231//379 244//379
f 234//380 245//380 243//380
f 240//381 246//381 241//381
f 233//382 245//382 234//382
f 242//383 247//383 231//383
f 231//384 247//384 244//384
f 243//385 245//385 248//385
f 188//386 249//386 177//386
f 250//387 239//387 241//387
f 251//388 239//388 250//388
f 246//389 252//389 241//389
f 252//390 242//390 241//390
f 253//391 254//391 255//391
f 52//392 256//392 50//392
f 256//393 58//393 50//393
f 242//394 257//394 247//394
f 191//395 249//395 188//395
f 54//396 243//396 55//396
f 252//397 258//397 242//397
f 243//398 254//398 55//398
f 258//399 257//399 242//399
f 55//400 254//400 62//400
f 62//401 254//401 253//401
f 191//402 259//402 249//402
f 257//403 258//403 260//403
f 249//404 259//404 246//404
f 259//405 261//405 246//405
f 252//406 262//406 258//406
f 260//407 258//407 263//407
f 246//408 264//408 252//408
f 261//409 264//409 246//409
f 194//410 31//410 191//410
f 264//411 262//411 252//411
f 255//412 254//412 265//412
f 254//413 266//413 265//413
f 243//414 266//414 254//414
f 212//415 237//415 207//415
f 258//416 262//416 263//416
f 263//417 262//417 267//417
f 31//418 259//418 191//418
f 267//419 262//419 268//419
f 248//420 269//420 243//420
f 261//421 17//421 264//421
f 30//422 259//422 31//422
f 266//423 269//423 270//423
f 17//424 36//424 264//424
f 81//425 259//425 30//425
f 269//426 266//426 243//426
f 264//427 36//427 262//427
f 259//428 81//428 261//428
f 262//429 36//429 268//429
f 268//430 36//430 271//430
f 81//431 17//431 261//431
f 212//432 213//432 237//432
f 36//433 37//433 271//433
f 213//434 272//434 237//434
f 204//435 256//435 52//435
f 237//436 272//436 233//436
f 204//437 206//437 256//437
f 233//438 272//438 245//438
f 213//439 273//439 272//439
f 245//440 274//440 248//440
f 275//441 159//441 161//441
f 239//442 159//442 275//442
f 274//443 269//443 248//443
f 176//444 177//444 275//444
f 275//445 177//445 239//445
f 177//446 240//446 239//446
f 269//447 276//447 270//447
f 220//448 273//448 213//448
f 277//449 278//449 272//449
f 272//450 278//450 245//450
f 274//451 279//451 269//451
f 273//452 277//452 272//452
f 278//453 274//453 245//453
f 279//454 276//454 269//454
f 256//455 206//455 235//455
f 220//456 280//456 273//456
f 207//457 237//457 206//457
f 276//458 279//458 281//458
f 278//459 282//459 274//459
f 274//460 282//460 279//460
f 159//461 251//461 226//461
f 280//462 277//462 273//462
f 226//463 280//463 220//463
f 281//464 279//464 283//464
f 239//465 251//465 159//465
f 279//466 282//466 283//466
f 249//467 240//467 177//467
f 283//468 282//468 284//468
f 240//469 249//469 246//469
f 278//470 232//470 282//470
f 277//471 250//471 278//471
f 235//472 58//472 256//472
f 284//473 282//473 285//473
f 280//474 250//474 277//474
f 234//475 58//475 235//475
f 226//476 251//476 280//476
f 232//477 228//477 282//477
f 250//478 232//478 278//478
f 285//479 228//479 286//479
f 282//480 228//480 285//480
f 251//481 250//481 280//481
f 237//482 235//482 206//482
f 286//483 228//483 227//483
f 250//484 230//484 232//484
f 234//485 54//485 58//485
f 176//486 275//486 161//486
f 241//487 230//487 250//487