o obj1
v -0.0265 -0.076354 0.036525
v -0.026264 -0.076252 0.036648
v -0.026499 -0.076232 0.036848
v -0.02524 -0.076518 0.029087
v -0.02642 -0.076349 0.029257
v -0.026281 -0.076213 0.029074
v -0.024323 -0.076568 0.029213
v -0.023467 -0.076834 0.029831
v -0.023512 -0.076656 0.029574
v -0.028223 -0.076058 0.030279
v -0.02894 -0.075881 0.031033
v -0.028176 -0.075918 0.030027
v -0.027302 -0.076148 0.029479
v -0.021886 -0.076913 0.031464
v -0.022421 -0.077004 0.030857
v -0.022467 -0.076822 0.030485
v -0.021772 -0.077111 0.032865
v -0.029344 -0.075882 0.032601
v -0.029442 -0.075677 0.032379
v -0.021588 -0.076983 0.032856
v -0.023008 -0.076819 0.029997
v -0.021805 -0.07704 0.034119
v -0.022213 -0.076904 0.035108
v -0.022734 -0.076969 0.035474
v -0.023689 -0.076779 0.036384
v -0.022611 -0.076837 0.035647
v -0.023537 -0.076621 0.036473
v -0.024617 -0.076455 0.036863
v -0.024641 -0.076642 0.036684
v -0.021695 -0.068219 0.03623
v -0.023372 -0.067948 0.036835
v -0.020339 -0.068439 0.034193
v -0.020351 -0.068437 0.031622
v -0.026564 -0.06743 0.029802
v -0.024549 -0.067757 0.028936
v -0.027895 -0.067215 0.031499
v -0.022044 -0.068163 0.029554
v -0.028073 -0.067186 0.033657
v -0.027245 -0.076235 0.034962
v -0.026629 -0.076332 0.034971
v -0.027029 -0.07586 0.035144
v -0.026359 -0.076377 0.035579
v -0.026544 -0.075924 0.035365
v -0.027582 -0.076179 0.035469
v -0.027285 -0.075822 0.035482
v -0.026256 -0.074369 0.035623
v -0.026499 -0.07433 0.035159
v -0.02705 -0.07424 0.035371
v -0.027772 -0.075725 0.033969
v -0.027664 -0.076167 0.033804
v -0.027636 -0.076171 0.034408
v -0.028825 -0.075974 0.033991
v -0.028257 -0.075662 0.033747
v -0.028512 -0.075623 0.034085
v -0.028194 -0.07608 0.033508
v -0.02796 -0.074093 0.03373
v -0.027464 -0.074173 0.034076
v -0.028277 -0.074042 0.03428
v -0.028643 -0.075601 0.032304
v -0.028908 -0.075955 0.031898
v -0.028496 -0.075611 0.031949
v -0.02798 -0.076114 0.031711
v -0.028037 -0.075687 0.031943
v -0.027718 -0.076157 0.032316
v -0.027898 -0.075711 0.032416
v -0.027732 -0.07413 0.031945
v -0.028408 -0.07402 0.032108
v -0.025026 -0.076594 0.029777
v -0.025262 -0.076143 0.029785
v -0.025557 -0.076507 0.029481
v -0.025875 -0.07605 0.030142
v -0.026124 -0.076416 0.029819
v -0.025727 -0.07606 0.029787
v -0.025129 -0.076159 0.030254
v -0.024998 -0.076598 0.030381
v -0.024936 -0.074583 0.030373
v -0.024919 -0.074586 0.029891
v -0.025372 -0.074512 0.029706
v -0.025592 -0.074477 0.030345
v -0.023185 -0.076887 0.030567
v -0.023521 -0.076418 0.030384
v -0.023817 -0.076789 0.030084
v -0.024376 -0.076699 0.030984
v -0.024348 -0.076704 0.03038
v -0.024127 -0.076333 0.030745
v -0.02399 -0.07635 0.030396
v -0.023382 -0.076442 0.030858
v -0.02326 -0.074854 0.030386
v -0.023149 -0.074872 0.030944
v -0.023844 -0.07476 0.030458
v -0.023107 -0.076498 0.032304
v -0.023404 -0.076856 0.032207
v -0.022959 -0.076508 0.031949
v -0.023067 -0.076911 0.031699
v -0.022451 -0.077008 0.031709
v -0.02221 -0.077041 0.032626
v -0.022494 -0.076591 0.031947
v -0.022361 -0.076608 0.032416
v -0.022135 -0.075036 0.032044
v -0.022801 -0.074929 0.031967
v -0.022295 -0.077031 0.033991
v -0.022631 -0.076562 0.033809
v -0.022927 -0.076933 0.033508
v -0.023486 -0.076843 0.034408
v -0.023458 -0.076848 0.033804
v -0.023237 -0.076477 0.034169
v -0.023101 -0.076494 0.03382
v -0.022492 -0.076587 0.034282
v -0.022165 -0.075032 0.034181
v -0.02259 -0.074963 0.033739
v -0.022981 -0.074899 0.033982
v -0.024465 -0.076278 0.035566
v -0.024794 -0.076644 0.035698
v -0.024318 -0.076288 0.035211
v -0.02372 -0.076388 0.035678
v -0.023617 -0.076822 0.035201
v -0.023588 -0.076826 0.035805
v -0.023852 -0.076371 0.035209
v -0.024284 -0.076712 0.034891
v -0.023587 -0.074801 0.035883
v -0.023585 -0.074802 0.035191
v -0.024075 -0.074722 0.035225
v -0.024209 -0.074701 0.035669
v -0.023992 -0.076757 0.032314
v -0.024328 -0.076288 0.032132
v -0.024625 -0.076659 0.03183
v -0.024874 -0.076166 0.032216
v -0.024175 -0.076333 0.032493
v -0.025183 -0.076568 0.032169
v -0.024583 -0.07464 0.032773
v -0.024583 -0.07464 0.032177
v -0.023979 -0.074738 0.032161
v -0.025817 -0.076023 0.034341
v -0.026124 -0.076416 0.033819
v -0.025727 -0.07606 0.033787
v -0.025157 -0.076148 0.033868
v -0.025026 -0.076594 0.033777
v -0.024998 -0.076598 0.034381
v -0.025557 -0.076508 0.033481
v -0.025643 -0.074468 0.034184
v -0.025366 -0.074513 0.033725
v -0.024903 -0.074588 0.033883
v -0.025967 -0.076442 0.032127
v -0.02607 -0.076007 0.032295
v -0.026506 -0.076354 0.03183
v -0.026552 -0.075932 0.032068
v -0.025938 -0.076446 0.032731
v -0.027064 -0.076263 0.032169
v -0.026815 -0.075898 0.032408
v -0.026564 -0.074319 0.032355
v -0.026116 -0.074392 0.032039
v -0.025793 -0.074444 0.03245
v -0.026877 -0.075876 0.030549
v -0.026774 -0.076311 0.03038
v -0.026746 -0.076315 0.030984
v -0.027871 -0.076132 0.030422
v -0.027359 -0.075801 0.030321
v -0.027623 -0.075767 0.030661
v -0.027313 -0.076223 0.030083
v -0.026684 -0.0743 0.03043
v -0.027285 -0.074202 0.030415
v -0.027224 -0.074212 0.031049
v -0.027486 -0.075784 0.03101
v -0.027016 -0.075852 0.031022
v -0.026687 -0.074299 0.030954
v -0.027843 -0.076138 0.031026
v -0.027312 -0.076223 0.031322
v -0.026209 -0.075982 0.032768
v -0.026217 -0.074375 0.032889
v -0.026679 -0.075914 0.032757
v -0.027036 -0.076268 0.032773
v -0.026505 -0.076354 0.033069
v -0.02506 -0.074563 0.034486
v -0.025262 -0.076135 0.034413
v -0.025556 -0.076508 0.03472
v -0.026095 -0.076421 0.034423
v -0.024037 -0.074728 0.032731
v -0.024376 -0.076289 0.032791
v -0.024798 -0.076219 0.032757
v -0.025155 -0.076573 0.032773
v -0.024487 -0.076679 0.033083
v -0.024198 -0.076303 0.035907
v -0.024157 -0.076734 0.036142
v -0.022776 -0.074933 0.034493
v -0.02297 -0.076503 0.03451
v -0.022789 -0.076954 0.03476
v -0.022717 -0.074942 0.032561
v -0.022839 -0.076523 0.032645
v -0.022242 -0.075019 0.032601
v -0.02313 -0.076899 0.032818
v -0.023703 -0.074782 0.031037
v -0.02386 -0.076359 0.031086
v -0.023679 -0.07681 0.031336
v -0.025607 -0.076075 0.030483
v -0.026095 -0.076421 0.030423
v -0.025566 -0.076506 0.030718
v -0.028376 -0.075627 0.032645
v -0.02809 -0.074072 0.032659
v -0.027687 -0.074137 0.032471
v -0.02867 -0.076002 0.032815
v -0.028055 -0.076103 0.032824
v -0.028365 -0.075633 0.03444
v -0.027774 -0.074123 0.0345
v -0.027896 -0.075722 0.034441
v -0.028331 -0.076056 0.03476
v -0.027155 -0.075843 0.035827
v -0.026732 -0.074292 0.035921
v -0.026674 -0.075912 0.035842
v -0.026696 -0.076324 0.036086
v -0.027308 -0.076222 0.03608
v -0.024821 -0.076577 0.036242
v -0.028441 -0.076042 0.035419
v -0.029195 -0.075909 0.033934
v -0.027152 -0.076225 0.036515
v -0.025934 -0.076428 0.035655
v -0.024815 -0.076471 0.036656
v -0.028664 -0.07586 0.035403
v -0.027936 -0.075969 0.036172
v -0.02913 -0.075779 0.034635
v -0.029429 -0.075695 0.033583
v -0.024927 -0.067696 0.036847
v -0.025214 -0.076424 0.035824
v -0.025783 -0.076255 0.035822
v -0.026172 -0.076198 0.03618
v -0.024647 -0.067741 0.035918
v -0.023773 -0.067883 0.035886
v -0.027413 -0.067293 0.035326
v -0.026137 -0.0675 0.036483
vn 0.2158 -0.9135 0.345
vn -0.1993 -0.7066 -0.6789
vn 0.0056 -0.9155 -0.4022
vn 0.1736 -0.794 -0.5826
vn -0.6373 -0.6174 -0.4613
vn -0.496 -0.7168 -0.49
vn 0.5875 -0.6955 -0.4136
vn -0.3215 -0.625 -0.7114
vn 0.3372 -0.928 -0.1583
vn -0.7796 -0.5931 -0.2012
vn 0.5565 -0.8153 -0.1602
vn 0.237 -0.7776 -0.5824
vn 0.1403 -0.9439 -0.2988
vn 0.3949 -0.805 -0.4428
vn 0.5701 -0.8193 0.0607
vn 0.2892 -0.9248 0.2471
vn 0.2663 -0.8489 0.4566
vn 0.3746 -0.7039 0.6034
vn 0.1245 -0.6928 0.7103
vn 0.1828 -0.6125 0.7691
vn 0.3726 -0.8469 0.3794
vn 0.3328 -0.0456 0.9419
vn 0.3326 -0.0455 0.942
vn 0.6453 -0.1195 0.7546
vn 0.7913 -0.1245 0.5987
vn 0.8202 -0.1211 0.5591
vn 0.905 -0.1576 0.3952
vn 0.973 -0.1672 0.1591
vn 0.9896 -0.144 -0.0047
vn -0.5158 0.0753 -0.8534
vn -0.3848 0.0667 -0.9206
vn 0.9619 -0.1702 -0.2141
vn -0.7874 0.1274 -0.6032
vn -0.7721 0.1301 -0.622
vn 0.8449 -0.1434 -0.5154
vn -0.9221 0.1308 -0.3642
vn 0.7625 -0.106 -0.6382
vn 0.6658 -0.1119 -0.7377
vn -0.9818 0.1709 -0.0833
vn 0.6176 -0.1087 -0.7789
vn 0.3999 -0.0713 -0.9138
vn 0.1345 -0.0276 -0.9905
vn 0.2356 -0.0245 -0.9715
vn 0.0065 -0.0177 -0.9998
vn -0.3644 0.0594 -0.9294
vn -0.0772 -0.3998 0.9134
vn -0.9028 -0.1859 0.3879
vn 0.6336 -0.6019 0.4861
vn 0.6361 -0.5481 0.5431
vn -0.3979 -0.5933 0.6998
vn -0.8793 0.0854 0.4686
vn -0.398 0.1286 0.9083
vn 0.3377 -0.1266 0.9327
vn 0.7918 -0.0751 0.6062
vn -0.9666 -0.2526 0.0435
vn 0.5722 -0.6454 0.5059
vn 0.5283 -0.3587 0.7696
vn -0.4946 -0.407 0.7679
vn -0.4139 -0.4966 0.7629
vn -0.4045 0.0863 0.9105
vn -0.5652 0.0551 0.8231
vn 0.7732 -0.1897 0.6051
vn 0.8489 -0.1558 0.505
vn 0.5969 -0.7557 0.2695
vn 0.1377 -0.3048 0.9424
vn -0.0692 -0.4839 0.8724
vn -0.8796 -0.3122 0.359
vn -0.8809 -0.409 0.2383
vn -0.9406 0.1836 0.2856
vn 0.0118 -0.0031 0.9999
vn 0.2175 -0.1092 0.9699
vn 0.9187 -0.0891 0.3847
vn -0.502 -0.2781 0.8189
vn 0.6522 -0.7 0.291
vn -0.9605 -0.2748 0.0432
vn -0.8609 -0.4546 0.2283
vn 0.422 -0.3965 0.8153
vn -0.1024 -0.5877 0.8026
vn -0.9916 0.124 -0.0376
vn -0.9429 0.1895 0.2738
vn -0.3756 0.0202 0.9266
vn 0.0126 0.0498 0.9987
vn 0.9003 -0.2111 0.3805
vn 0.924 -0.1949 0.329
vn -0.6145 -0.138 0.7768
vn 0.8394 -0.5418 0.0436
vn 0.6661 -0.6855 0.2941
vn -0.8315 -0.5108 0.2185
vn 0.3867 -0.4276 0.8171
vn -0.0662 -0.5948 0.8011
vn -0.9449 0.1578 0.2869
vn -0.9715 0.133 0.1965
vn 0.0191 -0.0404 0.999
vn 0.1187 -0.0207 0.9927
vn 0.9248 -0.0991 0.3673
vn 0.6899 -0.6564 0.3053
vn -0.0932 -0.5062 0.8574
vn -0.9425 -0.2327 0.2397
vn -0.9441 -0.2024 0.2604
vn 0.6929 -0.5047 0.515
vn -0.0865 -0.5011 0.861
vn -0.9409 0.2 0.2734
vn -0.1206 -0.0342 0.9921
vn 0.0018 -0.0117 0.9999
vn 0.9181 -0.0962 0.3845
vn -0.6145 -0.1379 0.7768
vn 0.8393 -0.5419 0.0436
vn 0.6661 -0.6855 0.294
vn 0.3867 -0.4277 0.817
vn -0.066 -0.5948 0.8011
vn -0.9337 0.2148 0.2866
vn -0.7157 0.0485 0.6968
vn 0.0313 0.0424 0.9986
vn 0.5091 -0.1247 0.8516
vn 0.924 -0.1066 0.3672
vn 0.7586 -0.5611 0.3313
vn -0.9605 -0.2749 0.0432
vn -0.8609 -0.4547 0.2282
vn 0.7845 -0.3338 0.5227
vn -0.1053 -0.6051 0.7892
vn -0.4415 -0.2473 0.8625
vn -0.9965 0.0835 -0.0028
vn -0.9475 0.1645 0.2742
vn 0.0059 0.0107 0.9999
vn 0.0658 -0.0188 0.9977
vn 0.9077 -0.1725 0.3825
vn 0.945 -0.1488 0.2914
vn -0.6152 -0.139 0.776
vn -0.018 -0.6227 0.7822
vn -0.8278 -0.48 0.2904
vn 0.4216 -0.4179 0.8047
vn 0.9824 -0.1869 0
vn 0.0293 0.0201 0.9994
vn 0.1413 -0.0506 0.9887
vn -0.8946 0.1938 0.4026
vn 0.6669 -0.7284 0.157
vn -0.9565 -0.2884 0.0429
vn 0.4219 -0.3967 0.8153
vn -0.2034 -0.6042 0.7704
vn -0.5009 -0.3125 0.8071
vn 0.9818 -0.0931 0.1658
vn 0.8352 -0.174 0.5217
vn -0.13 0.0702 0.989
vn -0.3162 0.0427 0.9477
vn -0.4903 -0.4138 0.767
vn -0.4346 -0.4784 0.763
vn -0.9682 -0.2463 0.0437
vn 0.5402 -0.6855 0.488
vn 0.4246 -0.4093 0.8076
vn 0.7811 -0.1036 0.6158
vn 0.5546 -0.1416 0.82
vn -0.4061 0.1317 0.9043
vn -0.7793 0.0762 0.622
vn -0.9682 -0.2465 0.0437
vn 0.5402 -0.6855 0.4881
vn -0.4347 -0.4783 0.763
vn -0.4087 0.1182 0.905
vn -0.0333 -0.0572 0.9978
vn 0.7847 -0.0725 0.6156
vn 0.9697 -0.2242 -0.0968
vn 0.9189 -0.1438 -0.3672
vn 0.0279 0.02 -0.9994
vn -0.1736 -0.0058 -0.9848
vn -0.9395 0.1871 -0.2869
vn -0.9926 0.1209 -0.0051
vn 0.3867 -0.4277 -0.8171
vn -0.849 -0.4779 -0.2254
vn 0.8393 -0.5419 -0.0437
vn 0.6659 -0.6856 -0.2942
vn -0.5257 -0.2406 -0.8159
vn -0.0661 -0.5948 -0.8011
vn -0.7149 0.0488 -0.6975
vn -0.9381 0.1941 -0.2869
vn 0.0355 0.0746 -0.9966
vn 0.8124 -0.1968 -0.5489
vn 0.9167 -0.1584 -0.3667
vn -0.8491 -0.4778 -0.2255
vn 0.6662 -0.6854 -0.294
vn -0.5257 -0.2407 -0.8159
vn -0.0664 -0.5948 -0.8011
vn 0.3869 -0.4275 -0.817
vn -0.9544 0.1572 -0.2537
vn -0.9724 0.1338 -0.191
vn 0.1345 0.0291 -0.9905
vn 0.438 -0.1386 -0.8882
vn -0.8629 -0.481 -0.1552
vn -0.0251 -0.6246 -0.7805
vn 0.8146 -0.5784 -0.0427
vn -0.5322 -0.2474 -0.8097
vn 0.38 -0.4349 -0.8164
vn -0.9897 0.1002 -0.1026
vn -0.8081 0.1538 -0.5686
vn -0.08 -0.0209 -0.9966
vn 0.0812 -0.0007 -0.9967
vn 0.9798 -0.1314 -0.1509
vn 0.794 -0.6064 -0.0422
vn 0.6904 -0.7042 -0.1658
vn -0.838 -0.1545 -0.5234
vn -0.8304 -0.1293 -0.542
vn -0.033 -0.593 -0.8045
vn 0.3388 -0.3811 -0.8602
vn 0.7808 -0.0866 -0.6188
vn 0.3019 -0.1383 -0.9433
vn -0.4054 0.1499 -0.9018
vn 0.4916 -0.3793 -0.7838
vn 0.5559 -0.6745 -0.4858
vn -0.5169 -0.3761 -0.769
vn -0.4483 -0.4596 -0.7667
vn 0.7795 -0.1035 -0.6178
vn 0.9063 -0.1919 -0.3764
vn -0.4263 0.0312 -0.904
vn -0.4482 0.0457 -0.8927
vn 0.5474 -0.6854 -0.4802
vn -0.8419 -0.0204 -0.5393
vn -0.434 -0.5639 -0.7026
vn 0.3854 -0.3244 -0.8639
vn 0.7801 -0.0933 -0.6186
vn 0.9654 -0.2184 -0.1422
vn 0.0742 -0.0587 -0.9955
vn -0.4083 0.1356 -0.9027
vn -0.9771 0.0955 -0.1902
vn 0.5645 -0.6632 -0.4915
vn -0.2348 -0.25 -0.9394
vn 0.7595 -0.5293 -0.3781
vn -0.443 -0.5105 -0.737
vn 0.7804 -0.097 -0.6177
vn 0.9472 -0.2139 -0.2389
vn -0.1681 -0.0141 -0.9857
vn -0.4125 0.1106 -0.9042
vn 0.5474 -0.6853 -0.4803
vn -0.8419 -0.0204 -0.5392
vn -0.434 -0.5638 -0.7027
vn 0.3854 -0.3242 -0.8639
vn 0.7833 -0.0609 -0.6186
vn 0.0285 -0.0862 -0.9959
vn -0.4117 0.1184 -0.9036
vn 0.5461 -0.6874 -0.4788
vn 0.8438 -0.5348 -0.0438
vn -0.5168 -0.376 -0.7691
vn -0.4482 -0.4595 -0.7668
vn 0.3923 -0.4102 -0.8233
vn 0.7662 -0.1898 -0.614
vn 0.8496 -0.1518 -0.5051
vn -0.4172 0.0848 -0.9049
vn -0.4089 0.0863 -0.9085
vn -0.9878 0.1293 0.0868
vn 0.5632 -0.6644 -0.4913
vn -0.0489 -0.3811 -0.9233
vn 0.8909 -0.3787 -0.2506
vn -0.8239 -0.2153 -0.5243
vn -0.4346 -0.5597 -0.7056
vn 0.9187 -0.0891 -0.3847
vn 0.0094 0.0363 -0.9993
vn 0.3828 -0.1131 -0.9169
vn -0.7994 0.0827 -0.5951
vn -0.9464 0.2052 -0.2495
vn 0.7734 -0.3426 -0.5333
vn -0.8514 -0.4766 -0.2191
vn 0.7472 -0.5786 -0.327
vn -0.4689 -0.208 -0.8584
vn -0.1128 -0.605 -0.7882
vn 0.9204 -0.1618 -0.356
vn 0.8403 -0.1988 -0.5043
vn 0.0398 0.0497 -0.998
vn -0.5283 0.0224 -0.8488
vn -0.9399 0.2176 -0.263
vn -0.861 -0.4569 -0.2234
vn -0.0748 -0.5053 -0.8597
vn 0.7465 -0.5505 -0.3738
vn 0.7355 -0.6006 -0.3135
vn -0.8165 -0.2619 -0.5145
vn -0.05 -0.5407 -0.8397
vn -0.1571 -0.9876 -0.0001
vn -0.1607 -0.987 -0.0008
vn -0.2129 -0.971 0.1089
vn -0.1606 -0.987 -0
vn -0.1591 -0.9873 0.0004
vn -0.16 -0.9871 -0.0019
vn -0.1599 -0.9871 -0
vn -0.2032 -0.9712 -0.1243
vn -0.0327 -0.9979 0.0551
vn -0.1612 -0.9869 0.0005
vn -0.1885 -0.9809 -0.0479
vn -0.1601 -0.9871 -0.0004
vn -0.1653 -0.9863 0.0003
vn -0.163 -0.9866 -0.0005
vn -0.157 -0.9876 -0.0053
vn -0.1705 -0.9854 -0.0015
vn -0.208 -0.9781 0.0013
vn -0.2279 -0.9736 0.0118
vn -0.1606 -0.987 0.0007
vn -0.2497 -0.9604 -0.1238
vn -0.0886 -0.9927 -0.0814
vn -0.1639 -0.9861 -0.0284
vn -0.1487 -0.9889 -0.0057
vn -0.1607 -0.987 -0.0044
vn -0.1608 -0.987 0.0023
vn -0.2535 -0.9503 -0.1806
vn -0.1556 -0.9878 -0.0112
vn -0.2364 -0.9705 -0.0464
vn -0.1526 -0.9882 -0.0146
vn -0.0272 -0.999 0.0341
vn -0.2775 -0.958 -0.0721
vn -0.166 -0.9861 -0.0075
vn -0.1243 -0.9906 0.0569
vn -0.1593 -0.9872 0.0003
vn -0.1254 -0.9903 0.0591
vn -0.228 -0.9736 -0.0123
vn -0.1835 -0.98 -0.0775
vn -0.1431 -0.9881 0.0558
vn -0.1612 -0.9869 -0.0079
vn -0.1639 -0.9865 0.0012
vn -0.1645 -0.9864 0.0043
vn -0.1736 -0.9848 -0.0048
vn -0.1601 -0.9871 0.0018
vn -0.1741 -0.9844 -0.0252
vn -0.1784 -0.9837 -0.0229
vn -0.1748 -0.9846 -0.0009
vn -0.1551 -0.9831 -0.0973
vn -0.1644 -0.985 0.0515
vn -0.1404 -0.99 -0.0171
vn -0.1231 -0.9921 0.023
vn -0.1599 -0.9871 -0.0008
vn -0.1398 -0.9902 -0.0071
vn -0.1565 -0.9875 0.021
vn -0.1593 -0.9872 -0.0002
vn -0.1151 -0.9931 -0.0218
vn -0.1948 -0.9807 0.0182
vn -0.1598 -0.9871 -0.0001
vn -0.1602 -0.9871 0.0001
vn -0.16 -0.9871 -0.0001
vn -0.1593 -0.9872 0.0006
vn -0.099 -0.995 -0.0092
vn -0.16 -0.9871 0.0007
vn -0.1221 -0.99 -0.0707
vn -0.1603 -0.9871 -0.0008
vn -0.1578 -0.9875 0.0004
vn -0.1452 -0.9893 -0.0152
vn -0.156 -0.9878 -0.0022
vn -0.1601 -0.9871 -0.0027
vn -0.1607 -0.987 -0.0025
vn -0.1564 -0.9877 0.0032
vn -0.1601 -0.9871 -0.0023
vn -0.16 -0.9871 -0
vn -0.1619 -0.9868 0.0006
vn -0.1599 -0.9871 0.0008
vn -0.1599 -0.9871 -0.003
vn -0.1623 -0.9867 0.0006
vn -0.1498 -0.9887 -0.0113
vn -0.1865 -0.9824 0.0085
vn -0.1648 -0.9863 -0.0089
vn -0.1597 -0.9872 0
vn -0.1709 -0.9853 0.001
vn -0.1569 -0.9876 -0.0053
vn -0.1534 -0.9882 -0.0043
vn -0.1596 -0.9872 -0.0002
vn -0.1599 -0.9871 0.0032
vn -0.1609 -0.987 0.0003
vn -0.1596 -0.9872 0.0008
vn -0.1655 -0.9862 0.0017
vn -0.1606 -0.987 -0.0003
vn -0.1569 -0.9876 -0.0031
vn -0.1594 -0.9872 0.0015
vn -0.16 -0.9871 -0.0002
vn -0.1603 -0.9871 0.0003
vn -0.1635 -0.9866 -0.0004
vn -0.1511 -0.9885 -0.0024
vn -0.1633 -0.9866 0.0001
vn -0.1573 -0.9876 0.0015
vn -0.1624 -0.9867 -0.001
vn -0.1557 -0.9878 -0.0027
vn -0.1567 -0.9876 -0.0004
vn -0.1608 -0.987 0.0001
vn -0.1907 -0.9798 0.061
vn -0.6006 -0.5099 0.6158
vn -0.5829 -0.672 0.4568
vn -0.6174 -0.7284 0.2971
vn -0.447 -0.2008 0.8717
vn -0.4307 -0.8234 0.3694
vn -0.5431 -0.8149 0.2027
vn -0.7989 -0.5735 0.1816
vn -0.7275 -0.6828 0.0671
vn -0.9029 -0.4299 0.0038
vn -0.1875 -0.9185 0.3482
vn 0.6377 -0.1173 0.7613
vn -0.1798 -0.5957 0.7828
vn 0.4072 -0.913 -0.0244
vn -0.159 -0.7 0.6962
vn 0.7444 -0.418 0.5206
vn -0.4409 -0.8932 0.088
vn 0.3496 -0.7897 0.5042
vn -0.7038 -0.6857 0.1856
vn 0.9437 -0.1542 0.2926
vn 0.9705 -0.1697 0.1712
vn 0.6666 -0.0973 0.739
vn 0.0344 -0.0131 0.9993
vn -0.0065 -0.0105 0.9999
vn -0.7031 0.1135 0.702
vn -0.9105 0.1258 0.394
vn -0.9855 0.1674 -0.0287
vn -0.7226 0.108 0.6827
vn -0.9875 0.1572 0.0137
vn -0.948 0.1486 0.2814
vn -0.9153 0.1548 0.3717
vn -0.8423 0.1277 0.5236
vn -0.7137 0.1104 0.6917
vn -0.657 0.1123 0.7455
vn -0.4168 0.0553 0.9073
vn -0.2802 0.0518 0.9585
f 1//1 2//1 3//1
f 4//2 5//2 6//2
f 7//3 8//3 4//3
f 9//4 8//4 7//4
f 10//5 11//5 12//5
f 13//6 10//6 12//6
f 14//7 15//7 16//7
f 5//8 13//8 6//8
f 14//9 17//9 15//9
f 11//10 18//10 19//10
f 20//11 17//11 14//11
f 21//12 8//12 9//12
f 21//13 15//13 8//13
f 15//14 21//14 16//14
f 22//15 17//15 20//15
f 23//16 24//16 22//16
f 25//17 24//17 26//17
f 27//18 25//18 26//18
f 25//19 28//19 29//19
f 27//20 28//20 25//20
f 26//21 24//21 23//21
f 30//22 28//22 27//22
f 30//23 31//23 28//23
f 30//24 27//24 26//24
f 30//25 26//25 23//25
f 32//26 30//26 23//26
f 32//27 23//27 22//27
f 32//28 22//28 20//28
f 33//29 32//29 20//29
f 34//30 13//30 12//30
f 34//31 35//31 13//31
f 33//32 20//32 14//32
f 36//33 12//33 11//33
f 36//34 34//34 12//34
f 33//35 14//35 16//35
f 36//36 11//36 19//36
f 37//37 33//37 16//37
f 37//38 16//38 21//38
f 38//39 36//39 19//39
f 37//40 21//40 9//40
f 37//41 9//41 7//41
f 35//42 7//42 4//42
f 35//43 37//43 7//43
f 35//44 4//44 6//44
f 35//45 6//45 13//45
f 39//46 40//46 41//46
f 40//47 42//47 43//47
f 39//48 41//48 44//48
f 44//49 41//49 45//49
f 40//50 43//50 41//50
f 46//51 47//51 43//51
f 43//52 47//52 41//52
f 47//53 48//53 41//53
f 41//54 48//54 45//54
f 49//55 50//55 51//55
f 52//56 53//56 54//56
f 55//57 53//57 52//57
f 50//58 49//58 55//58
f 55//59 49//59 53//59
f 49//60 56//60 53//60
f 57//61 56//61 49//61
f 53//62 58//62 54//62
f 56//63 58//63 53//63
f 59//64 60//64 61//64
f 60//65 62//65 61//65
f 61//66 62//66 63//66
f 62//67 64//67 63//67
f 63//68 64//68 65//68
f 65//69 66//69 63//69
f 63//70 66//70 61//70
f 66//71 67//71 61//71
f 61//72 67//72 59//72
f 68//73 69//73 70//73
f 71//74 72//74 73//74
f 74//75 68//75 75//75
f 69//76 68//76 74//76
f 70//77 73//77 72//77
f 73//78 70//78 69//78
f 76//79 77//79 74//79
f 74//80 77//80 69//80
f 77//81 78//81 69//81
f 69//82 78//82 73//82
f 73//83 79//83 71//83
f 78//84 79//84 73//84
f 80//85 81//85 82//85
f 83//86 84//86 85//86
f 85//87 84//87 86//87
f 81//88 80//88 87//88
f 82//89 86//89 84//89
f 82//90 81//90 86//90
f 87//91 88//91 81//91
f 89//92 88//92 87//92
f 81//93 90//93 86//93
f 88//94 90//94 81//94
f 86//95 90//95 85//95
f 91//96 92//96 93//96
f 94//97 95//97 93//97
f 95//98 96//98 97//98
f 97//99 96//99 98//99
f 94//100 93//100 92//100
f 93//101 95//101 97//101
f 98//102 99//102 97//102
f 99//103 100//103 97//103
f 97//104 100//104 93//104
f 93//105 100//105 91//105
f 101//106 102//106 103//106
f 104//107 105//107 106//107
f 106//108 105//108 107//108
f 102//88 101//88 108//88
f 103//109 107//109 105//109
f 103//110 102//110 107//110
f 108//111 109//111 102//111
f 109//112 110//112 102//112
f 102//113 110//113 107//113
f 110//114 111//114 107//114
f 107//115 111//115 106//115
f 112//116 113//116 114//116
f 115//117 116//117 117//117
f 118//118 116//118 115//118
f 119//119 114//119 113//119
f 114//120 119//120 118//120
f 116//121 118//121 119//121
f 120//122 121//122 115//122
f 115//123 121//123 118//123
f 118//124 121//124 114//124
f 121//125 122//125 114//125
f 114//126 123//126 112//126
f 122//127 123//127 114//127
f 124//128 125//128 126//128
f 127//129 126//129 125//129
f 125//130 124//130 128//130
f 126//131 127//131 129//131
f 130//132 127//132 131//132
f 131//133 127//133 132//133
f 127//134 125//134 132//134
f 125//135 128//135 132//135
f 133//136 134//136 135//136
f 136//137 137//137 138//137
f 139//138 135//138 134//138
f 135//139 139//139 136//139
f 137//140 136//140 139//140
f 133//141 135//141 140//141
f 140//142 135//142 141//142
f 135//143 136//143 141//143
f 141//144 136//144 142//144
f 143//145 144//145 145//145
f 145//146 144//146 146//146
f 144//147 143//147 147//147
f 148//148 146//148 149//148
f 145//149 146//149 148//149
f 149//150 146//150 150//150
f 150//151 146//151 151//151
f 146//152 144//152 151//152
f 151//153 144//153 152//153
f 153//154 154//154 155//154
f 156//155 157//155 158//155
f 159//149 157//149 156//149
f 154//145 153//145 159//145
f 159//156 153//156 157//156
f 153//157 160//157 157//157
f 160//158 161//158 157//158
f 157//159 161//159 158//159
f 161//160 162//160 158//160
f 158//161 162//161 163//161
f 163//162 162//162 164//162
f 162//163 165//163 164//163
f 164//164 165//164 153//164
f 165//165 160//165 153//165
f 166//166 163//166 167//166
f 153//167 155//167 164//167
f 158//168 166//168 156//168
f 163//169 166//169 158//169
f 167//170 164//170 155//170
f 164//171 167//171 163//171
f 152//172 168//172 169//172
f 144//173 168//173 152//173
f 168//174 170//174 169//174
f 169//175 170//175 150//175
f 170//176 149//176 150//176
f 144//177 147//177 168//177
f 149//168 171//168 148//168
f 170//178 171//178 149//178
f 172//179 168//179 147//179
f 168//180 172//180 170//180
f 171//181 170//181 172//181
f 142//182 136//182 173//182
f 136//183 174//183 173//183
f 174//184 133//184 173//184
f 173//185 133//185 140//185
f 136//186 138//186 174//186
f 174//187 175//187 133//187
f 133//188 176//188 134//188
f 175//189 174//189 138//189
f 176//190 133//190 175//190
f 132//191 128//191 177//191
f 128//192 178//192 177//192
f 177//193 178//193 130//193
f 178//194 179//194 130//194
f 179//195 127//195 130//195
f 127//196 180//196 129//196
f 179//197 180//197 127//197
f 181//198 178//198 124//198
f 124//199 178//199 128//199
f 178//200 181//200 179//200
f 180//201 179//201 181//201
f 112//202 123//202 182//202
f 123//203 120//203 182//203
f 182//204 120//204 115//204
f 113//205 182//205 183//205
f 113//206 112//206 182//206
f 183//207 115//207 117//207
f 183//208 182//208 115//208
f 106//209 184//209 185//209
f 111//210 184//210 106//210
f 185//211 109//211 108//211
f 184//212 109//212 185//212
f 104//213 106//213 185//213
f 186//214 108//214 101//214
f 186//215 185//215 108//215
f 104//216 185//216 186//216
f 91//217 187//217 188//217
f 100//218 187//218 91//218
f 187//219 189//219 188//219
f 188//220 189//220 98//220
f 189//221 99//221 98//221
f 190//222 91//222 188//222
f 96//223 190//223 188//223
f 190//224 92//224 91//224
f 96//225 188//225 98//225
f 85//226 191//226 192//226
f 90//227 191//227 85//227
f 191//228 89//228 192//228
f 192//229 89//229 87//229
f 83//230 85//230 192//230
f 193//231 87//231 80//231
f 193//232 192//232 87//232
f 83//233 192//233 193//233
f 71//234 79//234 194//234
f 79//235 76//235 194//235
f 194//236 76//236 74//236
f 195//237 71//237 194//237
f 71//238 195//238 72//238
f 196//239 74//239 75//239
f 196//240 194//240 74//240
f 195//241 194//241 196//241
f 59//242 67//242 197//242
f 67//243 198//243 197//243
f 197//244 198//244 65//244
f 198//245 199//245 65//245
f 199//246 66//246 65//246
f 200//247 59//247 197//247
f 201//248 200//248 197//248
f 200//249 60//249 59//249
f 201//250 65//250 64//250
f 201//251 197//251 65//251
f 54//252 58//252 202//252
f 202//253 203//253 204//253
f 58//254 203//254 202//254
f 203//255 57//255 204//255
f 204//256 57//256 49//256
f 52//257 202//257 205//257
f 49//258 51//258 204//258
f 202//259 52//259 54//259
f 205//260 204//260 51//260
f 205//261 202//261 204//261
f 45//262 48//262 206//262
f 48//263 207//263 206//263
f 206//264 207//264 208//264
f 207//265 46//265 208//265
f 208//266 46//266 43//266
f 43//267 42//267 208//267
f 209//268 210//268 208//268
f 210//269 44//269 206//269
f 206//270 44//270 45//270
f 209//271 208//271 42//271
f 208//272 210//272 206//272
f 116//273 104//273 186//273
f 171//274 64//274 148//274
f 183//275 211//275 113//275
f 145//276 155//276 195//276
f 145//277 195//277 196//277
f 171//278 201//278 64//278
f 50//279 201//279 171//279
f 159//280 10//280 13//280
f 22//281 101//281 17//281
f 50//282 55//282 201//282
f 159//283 156//283 10//283
f 143//284 145//284 196//284
f 92//285 124//285 193//285
f 92//286 193//286 94//286
f 212//287 52//287 205//287
f 212//288 213//288 52//288
f 166//289 10//289 156//289
f 166//290 11//290 10//290
f 84//291 75//291 68//291
f 159//292 13//292 5//292
f 84//293 68//293 4//293
f 84//294 4//294 8//294
f 94//295 80//295 15//295
f 94//296 193//296 80//296
f 175//297 40//297 176//297
f 82//298 84//298 8//298
f 95//299 94//299 15//299
f 29//300 211//300 183//300
f 154//301 159//301 5//301
f 24//302 101//302 22//302
f 60//303 18//303 11//303
f 24//304 186//304 101//304
f 25//305 29//305 183//305
f 172//306 50//306 171//306
f 25//307 183//307 117//307
f 83//291 75//291 84//291
f 62//308 11//308 166//308
f 62//309 60//309 11//309
f 24//310 25//310 117//310
f 24//311 116//311 186//311
f 24//312 117//312 116//312
f 190//313 124//313 92//313
f 200//314 18//314 60//314
f 62//315 166//315 167//315
f 70//316 72//316 5//316
f 72//317 154//317 5//317
f 200//318 213//318 18//318
f 4//319 70//319 5//319
f 214//320 210//320 209//320
f 80//321 82//321 8//321
f 215//322 209//322 42//322
f 195//323 154//323 72//323
f 1//324 209//324 215//324
f 215//325 40//325 175//325
f 129//326 143//326 196//326
f 215//327 42//327 40//327
f 1//328 214//328 209//328
f 126//329 75//329 83//329
f 126//330 129//330 196//330
f 126//331 196//331 75//331
f 129//332 147//332 143//332
f 96//333 95//333 15//333
f 195//334 155//334 154//334
f 68//335 70//335 4//335
f 180//336 147//336 129//336
f 126//337 83//337 193//337
f 15//338 80//338 8//338
f 17//339 96//339 15//339
f 105//340 181//340 124//340
f 105//341 124//341 190//341
f 124//342 126//342 193//342
f 103//343 105//343 190//343
f 134//344 172//344 147//344
f 44//345 51//345 39//345
f 105//346 138//346 137//346
f 105//347 137//347 181//347
f 44//348 205//348 51//348
f 113//349 138//349 119//349
f 113//350 215//350 175//350
f 113//351 175//351 138//351
f 139//352 134//352 147//352
f 104//346 138//346 105//346
f 52//353 213//353 200//353
f 44//354 212//354 205//354
f 103//355 190//355 96//355
f 134//356 50//356 172//356
f 119//357 138//357 104//357
f 148//358 62//358 167//358
f 134//359 51//359 50//359
f 55//360 52//360 200//360
f 148//361 64//361 62//361
f 40//362 39//362 51//362
f 40//363 51//363 134//363
f 145//330 148//330 167//330
f 145//364 167//364 155//364
f 139//365 147//365 180//365
f 176//366 40//366 134//366
f 101//367 103//367 96//367
f 55//368 200//368 201//368
f 210//369 212//369 44//369
f 116//370 119//370 104//370
f 17//371 101//371 96//371
f 137//372 180//372 181//372
f 137//373 139//373 180//373
f 214//374 212//374 210//374
f 29//375 28//375 216//375
f 217//376 212//376 218//376
f 219//377 212//377 217//377
f 218//378 214//378 3//378
f 218//379 212//379 214//379
f 219//380 213//380 212//380
f 220//381 213//381 219//381
f 220//382 18//382 213//382
f 220//383 19//383 18//383
f 3//384 214//384 1//384
f 221//385 3//385 2//385
f 222//386 223//386 215//386
f 1//387 224//387 2//387
f 113//388 222//388 215//388
f 215//389 224//389 1//389
f 211//390 222//390 113//390
f 215//391 223//391 224//391
f 211//392 29//392 216//392
f 221//393 2//393 225//393
f 2//394 224//394 225//394
f 224//395 223//395 225//395
f 225//396 222//396 226//396
f 223//397 222//397 225//397
f 222//398 211//398 226//398
f 226//399 211//399 31//399
f 211//400 216//400 31//400
f 31//401 216//401 28//401
f 38//402 19//402 220//402
f 38//403 220//403 219//403
f 227//404 38//404 219//404
f 227//405 219//405 217//405
f 227//406 217//406 218//406
f 228//407 227//407 218//407
f 228//408 218//408 3//408
f 221//409 228//409 3//409