o obj1
v -0.036565 -0.03098 -0.0148
v 0.047505 -0.004112 -0.0148
v -0.032764 -0.034975 -0.0148
v -0.02853 -0.038507 -0.0148
v -0.023918 -0.041529 -0.0148
v -0.018989 -0.044002 -0.0148
v -0.013808 -0.045892 -0.0148
v -0.008446 -0.047174 -0.0148
v -0.002971 -0.047832 -0.0148
v 0.002543 -0.047857 -0.0148
v 0.046415 -0.045657 -0.0148
v 0.048625 -0.0462 -0.0148
v 0.046564 -0.0462 -0.0148
v 0.006725 -0.04743 -0.0148
v 0.009444 -0.046964 -0.0148
v 0.01213 -0.046343 -0.0148
v 0.04588 -0.044024 -0.0148
v 0.014777 -0.045568 -0.0148
v 0.045256 -0.042928 -0.0148
v 0.017375 -0.044642 -0.0148
v 0.019915 -0.043569 -0.0148
v 0.022957 -0.042055 -0.0148
v 0.044595 -0.042066 -0.0148
v 0.026108 -0.040189 -0.0148
v -0.047398 0.007004 -0.0148
v -0.047398 -0.006982 -0.0148
v -0.002913 0.047835 -0.0148
v -0.008372 0.047187 -0.0148
v -0.013721 0.045918 -0.0148
v -0.018889 0.044045 -0.0148
v -0.023809 0.041592 -0.0148
v -0.028416 0.038592 -0.0148
v -0.032648 0.035083 -0.0148
v -0.036451 0.031114 -0.0148
v -0.039774 0.026735 -0.0148
v -0.042575 0.022004 -0.0148
v -0.044814 0.016983 -0.0148
v -0.046464 0.011739 -0.0148
v 0.002584 0.047855 -0.0148
v 0.008048 0.047244 -0.0148
v 0.047215 0.008096 -0.0148
v 0.0475 0.006177 -0.0148
v 0.046382 0.012059 -0.0148
v 0.013405 0.046011 -0.0148
v 0.044696 0.017291 -0.0148
v 0.018586 0.044173 -0.0148
v 0.042422 0.022296 -0.0148
v 0.023522 0.041754 -0.0148
v 0.039589 0.027008 -0.0148
v 0.02815 0.038785 -0.0148
v 0.036236 0.031363 -0.0148
v 0.032406 0.035307 -0.0148
v 0.029574 -0.039065 -0.0148
v 0.047602 -0.01 -0.0148
v 0.031671 -0.039018 -0.0148
v 0.027553 -0.039554 -0.0148
v 0.040786 -0.039603 -0.0148
v 0.041693 -0.039952 -0.0148
v 0.03972 -0.039339 -0.0148
v 0.038687 -0.039212 -0.0148
v 0.032918 -0.039201 -0.0148
v 0.044014 -0.041484 -0.014799
v 0.048625 -0.01 -0.0148
v 0.043403 -0.040959 -0.0148
v 0.042545 -0.040389 -0.014799
v 0.047546 -0.004299 -0.0148
v 0.047602 -0.00444 -0.0148
v 0.046563 -0.046924 -0.0148
v -0.046523 -0.011504 -0.0148
v -0.044894 -0.016772 -0.0148
v -0.04267 -0.021818 -0.0148
v -0.039881 -0.026575 -0.0148
v 0.043609 -0.044357 0.003423
v 0.043036 -0.043372 0.000988
v 0.043489 -0.044357 0.000975
v 0.043158 -0.043372 0.00346
v 0.044209 -0.043374 -0.01027
v 0.04443 -0.042683 -0.012787
v 0.044816 -0.04313 -0.013057
v 0.039448 -0.039598 0.009648
v 0.038384 -0.039519 0.004198
v 0.03915 -0.039659 0.006894
v 0.037746 -0.039335 -0.005363
v 0.038701 -0.039331 -0.011207
v 0.038441 -0.039394 -0.008392
v 0.042071 -0.041673 0.005177
v 0.04184 -0.041674 0.002263
v 0.042583 -0.042465 0.003505
v 0.045765 -0.045101 -0.013321
v 0.045877 -0.045584 -0.013291
v 0.040677 -0.040398 0.006672
v 0.0403 -0.040398 0.003016
v 0.041301 -0.040988 0.004923
v 0.040995 -0.040398 -0.008631
v 0.040841 -0.039955 -0.01177
v 0.041635 -0.040397 -0.011575
v 0.04019 -0.039956 -0.008777
v 0.038191 -0.039336 0.008437
v 0.043954 -0.046267 0.000963
v 0.044004 -0.046554 -0.001476
v 0.044002 -0.04692 0.000961
v 0.037809 -0.039233 -0.01062
v 0.043492 -0.042055 -0.011111
v 0.044167 -0.042055 -0.013526
v 0.045625 -0.044626 -0.013359
v 0.042514 -0.041319 -0.010016
v 0.042465 -0.040828 -0.012352
v 0.043209 -0.04131 -0.012816
v 0.04246 -0.042465 0.001001
v 0.041098 -0.040988 0.002306
v 0.039696 -0.039956 0.005441
v 0.037868 -0.039392 0.003899
v 0.043808 -0.045349 -0.001493
v 0.043793 -0.045348 0.000971
v 0.045438 -0.044112 -0.013411
v 0.039967 -0.039596 -0.012028
v 0.044956 -0.043612 -0.012633
v 0.037141 -0.039261 0.003949
v 0.038761 -0.039659 0.00312
v 0.03792 -0.039234 0.011253
v 0.043504 -0.044358 -0.001505
v 0.037127 -0.039205 0.009437
v 0.039004 -0.039542 -0.008342
v 0.039453 -0.039955 0.002386
v 0.047152 -0.045761 0.016701
v 0.046496 -0.04627 0.014773
v 0.047273 -0.04672 0.016704
v 0.043052 -0.043373 -0.001518
v 0.046523 -0.046876 0.014713
v 0.041816 -0.041696 0.000553
v 0.046361 -0.045349 0.014875
v 0.046893 -0.04479 0.016701
v 0.046162 -0.044628 0.014947
v 0.036239 -0.039205 0.000532
v 0.042476 -0.042465 -0.001537
v 0.041121 -0.041051 -0.00017
v 0.043916 -0.045348 -0.003385
v 0.044148 -0.046535 -0.003883
v 0.045866 -0.043878 0.014989
v 0.046607 -0.044081 0.016701
v 0.046245 -0.043378 0.016701
v 0.041798 -0.041659 -0.001495
v 0.043613 -0.044357 -0.003414
v 0.040287 -0.040442 -0.000389
v 0.045795 -0.046556 0.012512
v 0.045628 -0.04247 0.0167
v 0.045388 -0.042905 0.015222
v 0.044093 -0.045348 -0.005238
v 0.044253 -0.046267 -0.005222
v 0.039456 -0.039985 -0.000243
v 0.045603 -0.045349 0.012556
v 0.037337 -0.039205 -0.010437
v 0.043383 -0.043615 -0.004676
v 0.044783 -0.042052 0.015386
v 0.044942 -0.041704 0.0167
v 0.044514 -0.046759 -0.006811
v 0.042212 -0.042043 -0.00295
v 0.042887 -0.042905 -0.003469
v 0.044321 -0.041501 0.015624
v 0.043791 -0.044357 -0.005275
v 0.044155 -0.041019 0.0167
v 0.045311 -0.044358 0.012641
v 0.038631 -0.039643 -0.000405
v 0.038004 -0.03945 -0.000222
v 0.04372 -0.040986 0.015629
v 0.044877 -0.043373 0.012771
v 0.041135 -0.040988 -0.002949
v 0.043253 -0.040414 0.016701
v 0.043068 -0.042905 -0.00536
v 0.044325 -0.042465 0.012936
v 0.037066 -0.039271 -0.000644
v 0.044668 -0.046225 -0.008014
v 0.040307 -0.040398 -0.003002
v 0.045106 -0.045348 0.010722
v 0.045169 -0.046536 0.010178
v 0.041675 -0.041324 -0.004828
v 0.044506 -0.045348 -0.007991
v 0.043689 -0.041677 0.013117
v 0.042449 -0.042055 -0.005432
v 0.04481 -0.044357 0.01079
v 0.039491 -0.039956 -0.00305
v 0.044689 -0.045349 0.008912
v 0.044846 -0.046267 0.008877
v 0.042343 -0.03995 0.0167
v 0.042355 -0.04027 0.014877
v 0.04298 -0.040989 0.013342
v 0.044207 -0.044358 -0.008046
v 0.044192 -0.043615 0.009663
v 0.038641 -0.039595 -0.003828
v 0.04464 -0.046918 0.007536
v 0.04158 -0.039658 0.0167
v 0.041345 -0.039969 0.013607
v 0.044103 -0.042905 0.010968
v 0.044865 -0.046948 -0.008704
v 0.044391 -0.044357 0.008972
v 0.041935 -0.0404 0.012722
v 0.043734 -0.043353 -0.008033
v 0.041247 -0.040835 -0.006235
v 0.043499 -0.042055 0.011119
v 0.040549 -0.040398 -0.005659
v 0.044369 -0.046207 0.006193
v 0.042135 -0.041498 -0.00701
v 0.043678 -0.042905 0.00912
v 0.043454 -0.042687 -0.008826
v 0.040318 -0.039599 0.013317
v 0.04264 -0.041289 0.010717
v 0.045256 -0.046267 -0.010675
v 0.045292 -0.046931 -0.010621
v 0.042877 -0.042055 -0.008287
v 0.036777 -0.039219 -0.004766
v 0.044211 -0.045349 0.006169
v 0.040806 -0.039434 0.0167
v 0.039736 -0.039956 -0.005754
v 0.043068 -0.042055 0.009247
v 0.039137 -0.039336 0.01289
v 0.042095 -0.040835 0.010806
v 0.044339 -0.046729 0.005556
v 0.045099 -0.045348 -0.010711
v 0.043909 -0.044358 0.006211
v 0.039578 -0.03923 0.0167
v 0.039103 -0.039653 -0.006711
v 0.042426 -0.041499 0.00872
v 0.041816 -0.041 -0.008417
v 0.043582 -0.043615 0.00626
v 0.044804 -0.044357 -0.010786
v 0.043189 -0.042905 0.006315
v 0.041193 -0.040398 0.009632
v 0.044073 -0.046267 0.003386
v 0.044125 -0.046933 0.003435
v 0.041699 -0.040988 0.007851
v 0.042613 -0.042103 0.00642
v 0.040254 -0.039956 0.009137
v 0.045985 -0.046266 -0.013258
v 0.046009 -0.046893 -0.013179
v 0.043912 -0.045348 0.003401
v 0.033632 -0.039195 0.0167
v 0.033753 -0.0392 0.0038
v 0.033592 -0.0392 0.003733
v 0.033467 -0.0392 0.003701
v -0.047405 -0.006913 -0.0053
v -0.047818 -0.003047 0.0037
v -0.047806 -0.003137 -0.0053
v 0.0475 0.006177 0.0037
v -0.047364 -0.007225 0.0037
v 0.047173 0.008338 0.0037
v 0.046617 0.011033 0.0037
v -0.046406 -0.011967 0.0037
v 0.045906 0.013692 0.0037
v 0.045044 0.016305 0.0037
v -0.044726 -0.017214 0.0037
v 0.043462 0.020193 0.0037
v -0.042455 -0.022233 0.0037
v 0.040861 0.025042 0.0037
v -0.039623 -0.026958 0.0037
v 0.037721 0.029561 0.0037
v -0.036268 -0.031327 0.0037
v 0.034084 0.03369 0.0037
v -0.032433 -0.035282 0.0037
v 0.029997 0.037375 0.0037
v -0.02817 -0.038771 0.0037
v 0.025515 0.040567 0.0037
v -0.023535 -0.041748 0.0037
v 0.020696 0.043225 0.0037
v -0.018588 -0.044173 0.0037
v 0.015605 0.045313 0.0037
v -0.013396 -0.046014 0.0037
v 0.010308 0.046803 0.0037
v -0.008027 -0.047247 0.0037
v 0.004875 0.047675 0.0037
v -0.002552 -0.047856 0.0037
v -0.000622 0.04792 0.0037
v 0.002957 -0.047833 0.0037
v -0.006111 0.047533 0.0037
v 0.008426 -0.047178 0.0037
v -0.011519 0.046519 0.0037
v 0.012387 -0.046275 0.0037
v 0.015026 -0.045487 0.0037
v -0.016775 0.044892 0.0037
v 0.017615 -0.044548 0.0037
v 0.020145 -0.043463 0.0037
v -0.021811 0.042673 0.0037
v 0.023261 -0.041887 0.0037
v 0.026184 -0.040148 0.0037
v -0.026558 0.039892 0.0037
v -0.030956 0.036585 0.0037
v -0.034946 0.032795 0.0037
v -0.038475 0.028573 0.0037
v -0.041497 0.023974 0.0037
v -0.043971 0.01906 0.0037
v -0.045866 0.013894 0.0037
v -0.047018 0.009218 0.0037
v -0.0474 0.006903 -0.0053
v -0.047541 0.005887 0.0037
v -0.04777 0.00381 -0.0053
v -0.047888 0.001839 0.0037
v -0.047904 -5.3E-05 -0.0053
v 0.046564 -0.0512 -0.0148
v 0.045948 -0.0512 -0.012967
v 0.045159 -0.0512 0.010136
v 0.046426 -0.0512 0.014444
v 0.045235 -0.0512 -0.010371
v 0.047298 -0.0512 0.016698
v 0.044461 -0.0512 -0.006513
v 0.044035 -0.0512 -0.002043
v 0.04401 -0.0512 0.001131
v 0.044268 -0.0512 0.005058
v 0.032953 -0.0392 0.0037
v 0.059733 -0.0512 -0.029698
v 0.050828 -0.0512 -0.017329
v 0.057144 -0.0512 -0.026998
v 0.057668 -0.0512 0.027586
v 0.059426 -0.0512 0.029403
v 0.058533 -0.0512 0.028508
v 0.060347 -0.0512 0.03027
v 0.062265 -0.0512 0.031917
v 0.061293 -0.0512 0.031108
v 0.056025 -0.0512 0.025663
v 0.056831 -0.0512 0.026637
v 0.120943 -0.0512 0.024408
v 0.06065 -0.0512 -0.030544
v 0.061592 -0.0512 -0.031363
v 0.052462 -0.0512 0.020447
v 0.11766 -0.0512 0.028307
v 0.116765 -0.0512 0.029216
v 0.118526 -0.0512 0.027371
v 0.119362 -0.0512 0.026408
v 0.120168 -0.0512 0.02542
v 0.109775 -0.0512 0.03474
v 0.064561 -0.0512 -0.033639
v 0.062558 -0.0512 -0.032151
v 0.063548 -0.0512 -0.032911
v 0.064282 -0.0512 0.033443
v 0.063262 -0.0512 0.032696
v 0.054504 -0.0512 0.023643
v 0.055248 -0.0512 0.024665
v 0.06665 -0.0512 -0.035002
v 0.065595 -0.0512 -0.034337
v 0.067725 -0.0512 -0.035636
v 0.047855 -0.0512 0.016717
v 0.048267 -0.0512 0.016769
v 0.124327 -0.0512 0.01901
v 0.121687 -0.0512 0.023371
v 0.122397 -0.0512 0.022312
v 0.123074 -0.0512 0.021232
v 0.123718 -0.0512 0.020131
v 0.066389 -0.0512 0.034842
v 0.065324 -0.0512 0.034159
v 0.06993 -0.0512 -0.036803
v 0.068818 -0.0512 -0.036236
v 0.05311 -0.0512 0.021533
v 0.05379 -0.0512 0.022599
v 0.125438 -0.0512 0.016715
v 0.071058 -0.0512 -0.037336
v 0.048673 -0.0512 0.016854
v 0.1249 -0.0512 0.017871
v 0.067473 -0.0512 0.035492
v 0.074532 -0.0512 -0.038725
v 0.072201 -0.0512 -0.037834
v 0.04907 -0.0512 0.016973
v 0.12594 -0.0512 0.015542
v 0.07336 -0.0512 -0.038297
v 0.049457 -0.0512 0.017125
v 0.127223 -0.0512 0.01194
v 0.126405 -0.0512 0.014355
v 0.126833 -0.0512 0.013154
v 0.076912 -0.0512 -0.039472
v 0.075716 -0.0512 -0.039117
v 0.078118 -0.0512 -0.039791
v 0.049829 -0.0512 0.017308
v 0.069701 -0.0512 0.036689
v 0.068578 -0.0512 0.036108
v 0.081786 -0.0512 -0.040526
v 0.079333 -0.0512 -0.040073
v 0.080556 -0.0512 -0.040318
v 0.128599 -0.0512 0.00572
v 0.127575 -0.0512 0.010714
v 0.127889 -0.0512 0.009478
v 0.128165 -0.0512 0.008233
v 0.128402 -0.0512 0.00698
v 0.050186 -0.0512 0.017521
v 0.071997 -0.0512 0.037748
v 0.070841 -0.0512 0.037237
v 0.084263 -0.0512 -0.040829
v 0.083022 -0.0512 -0.040697
v 0.128876 -0.0512 0.003185
v 0.128757 -0.0512 0.004455
v 0.128955 -0.0512 0.001912
v 0.086753 -0.0512 -0.040981
v 0.085506 -0.0512 -0.040924
v 0.088 -0.0512 -0.041
v 0.050523 -0.0512 0.017763
v 0.128995 -0.0512 -0.000638
v 0.128995 -0.0512 0.000638
v 0.074355 -0.0512 0.038663
v 0.073169 -0.0512 0.038224
v 0.089275 -0.0512 -0.04098
v 0.128955 -0.0512 -0.001912
v 0.09182 -0.0512 -0.040822
v 0.090549 -0.0512 -0.040921
v 0.128757 -0.0512 -0.004455
v 0.128876 -0.0512 -0.003185
v 0.050839 -0.0512 0.018033
v 0.077986 -0.0512 0.039758
v 0.075554 -0.0512 0.039065
v 0.128402 -0.0512 -0.00698
v 0.076764 -0.0512 0.03943
v 0.128599 -0.0512 -0.00572
v 0.095607 -0.0512 -0.040288
v 0.093088 -0.0512 -0.040683
v 0.094351 -0.0512 -0.040505
v 0.080456 -0.0512 0.0403
v 0.079216 -0.0512 0.040048
v 0.127575 -0.0512 -0.010714
v 0.127889 -0.0512 -0.009478
v 0.128165 -0.0512 -0.008233
v 0.099328 -0.0512 -0.039404
v 0.096857 -0.0512 -0.040032
v 0.098097 -0.0512 -0.039737
v 0.051131 -0.0512 0.018327
v 0.127223 -0.0512 -0.01194
v 0.101756 -0.0512 -0.038623
v 0.100548 -0.0512 -0.039032
v 0.084212 -0.0512 0.040825
v 0.081702 -0.0512 0.040513
v 0.126405 -0.0512 -0.014355
v 0.082954 -0.0512 0.040688
v 0.126833 -0.0512 -0.013154
v 0.102951 -0.0512 -0.038177
v 0.104131 -0.0512 -0.037693
v 0.125438 -0.0512 -0.016715
v 0.12594 -0.0512 -0.015542
v 0.1249 -0.0512 -0.017871
v 0.088 -0.0512 0.041
v 0.085472 -0.0512 0.040922
v 0.086736 -0.0512 0.04098
v 0.107573 -0.0512 -0.036026
v 0.105295 -0.0512 -0.037173
v 0.106443 -0.0512 -0.036617
v 0.123074 -0.0512 -0.021232
v 0.124327 -0.0512 -0.01901
v 0.123718 -0.0512 -0.020131
v 0.090549 -0.0512 0.040921
v 0.089275 -0.0512 0.04098
v 0.122397 -0.0512 -0.022312
v 0.121687 -0.0512 -0.023371
v 0.111892 -0.0512 -0.033319
v 0.109775 -0.0512 -0.03474
v 0.110845 -0.0512 -0.034046
v 0.093088 -0.0512 0.040683
v 0.09182 -0.0512 0.040822
v 0.112917 -0.0512 -0.03256
v 0.108684 -0.0512 -0.0354
v 0.119362 -0.0512 -0.026408
v 0.120168 -0.0512 -0.02542
v 0.120943 -0.0512 -0.024408
v 0.114893 -0.0512 -0.030948
v 0.113918 -0.0512 -0.031769
v 0.096857 -0.0512 0.040032
v 0.095607 -0.0512 0.040288
v 0.094351 -0.0512 0.040505
v 0.118526 -0.0512 -0.027371
v 0.115842 -0.0512 -0.030096
v 0.11766 -0.0512 -0.028307
v 0.098097 -0.0512 0.039737
v 0.116765 -0.0512 -0.029216
v 0.100548 -0.0512 0.039032
v 0.099328 -0.0512 0.039404
v 0.046989 -0.0512 -0.014825
v 0.047411 -0.0512 -0.014887
v 0.047826 -0.0512 -0.014984
v 0.101756 -0.0512 0.038623
v 0.048232 -0.0512 -0.015117
v 0.048624 -0.0512 -0.015283
v 0.049001 -0.0512 -0.015482
v 0.04936 -0.0512 -0.015712
v 0.049697 -0.0512 -0.015973
v 0.050012 -0.0512 -0.016261
v 0.0503 -0.0512 -0.016575
v 0.050561 -0.0512 -0.016912
v 0.051398 -0.0512 0.018645
v 0.051674 -0.0512 0.019037
v 0.105295 -0.0512 0.037173
v 0.102951 -0.0512 0.038177
v 0.104131 -0.0512 0.037693
v 0.052134 -0.0512 -0.019865
v 0.051546 -0.0512 -0.018765
v 0.052755 -0.0512 -0.020947
v 0.106443 -0.0512 0.036617
v 0.107573 -0.0512 0.036026
v 0.108684 -0.0512 0.0354
v 0.053409 -0.0512 -0.02201
v 0.111892 -0.0512 0.033319
v 0.110845 -0.0512 0.034046
v 0.054811 -0.0512 -0.024073
v 0.054094 -0.0512 -0.023052
v 0.112917 -0.0512 0.03256
v 0.056337 -0.0512 -0.026047
v 0.055559 -0.0512 -0.025071
v 0.114893 -0.0512 0.030948
v 0.113918 -0.0512 0.031769
v 0.115842 -0.0512 0.030096
v 0.057979 -0.0512 -0.027924
v 0.058843 -0.0512 -0.028824
v -0.0474 -0.001 -0.0098
v -0.0474 0.001 -0.0098
v -0.0474 0 -0.0128
v -0.04789 -0.001 -0.0098
v -0.047899 0.001 -0.0098
v -0.0479 0 -0.0128
v 0.0315 -0.039014 0.0037
v 0.03003 -0.039026 0.0037
v 0.027987 -0.039403 0.0037
v 0.033308 -0.03896 0.0167
v 0.033253 -0.0387 0.0167
v 0.033226 -0.038703 0.0038
v 0.03348 -0.039134 0.0038
vn 0 0 -1
vn 0 -0.0001 -1
vn 0 0.0001 -1
vn -0.0006 -0.0007 -1
vn 0.0004 0.0003 -1
vn 0.0004 -0.0001 -1
vn -0.0015 0.0002 -1
vn 0.001 -0.0002 -1
vn -0.0011 0.0002 -1
vn 0.0006 -0.0002 -1
vn 0.0001 0 -1
vn 0.0013 0.0002 -1
vn -0.9076 -0.4174 0.0447
vn -0.9076 -0.4175 0.0446
vn -0.8007 -0.5561 -0.2229
vn -0.3863 -0.9203 0.0622
vn -0.2941 -0.9545 -0.0488
vn -0.7741 -0.6301 0.0615
vn -0.91 -0.2983 -0.2878
vn -0.9196 -0.2322 -0.3169
vn -0.5907 -0.8046 0.0609
vn -0.4648 -0.8796 -0.1012
vn -0.4647 -0.8797 -0.1012
vn -0.2331 -0.9719 0.0315
vn -0.9973 -0.0724 -0.0118
vn -0.1221 -0.9923 -0.0207
vn -0.7815 -0.5844 -0.2186
vn -0.6731 -0.7376 0.0536
vn -0.9135 -0.2919 -0.2835
vn -0.6023 -0.7836 -0.1522
vn -0.843 -0.5363 0.0414
vn -0.843 -0.5364 0.0414
vn -0.6761 -0.7349 0.0523
vn -0.4591 -0.8871 0.0473
vn -0.2562 -0.9661 0.0302
vn -0.987 -0.1604 -0.0013
vn -0.985 -0.1726 -0.0059
vn -0.8847 -0.3533 -0.304
vn -0.3592 -0.93 -0.0783
vn -0.8375 -0.4771 -0.2666
vn -0.8765 -0.3742 -0.3027
vn -0.1757 -0.9841 0.0247
vn -0.8035 -0.5333 -0.2645
vn -0.7571 -0.6523 0.0372
vn -0.687 -0.7007 -0.1922
vn -0.5685 -0.8215 0.0439
vn -0.392 -0.9191 0.0404
vn -0.1581 -0.9872 0.0205
vn -0.956 -0.2934 -0.0057
vn -0.9559 -0.2935 -0.0058
vn -0.8375 -0.477 -0.2665
vn -0.2746 -0.9611 0.0283
vn -0.0591 -0.9982 0.01
vn -0.2493 -0.9674 -0.045
vn -0.234 -0.9711 -0.0469
vn -0.4848 -0.8738 0.0385
vn -0.6958 -0.6828 -0.2228
vn -0.9305 -0.1168 0.3472
vn -0.9088 -0.4173 -0.0054
vn -0.9088 -0.4172 -0.0054
vn -0.931 -0.0764 0.3568
vn -0.772 -0.6354 0.0193
vn -0.9173 -0.1745 0.358
vn -0.77 -0.5896 -0.2439
vn -0.7542 -0.6079 -0.2483
vn -0.5705 -0.805 -0.163
vn -0.3673 -0.9297 0.0291
vn -0.909 -0.2423 0.3391
vn -0.8946 -0.2816 0.347
vn -0.0994 -0.995 0.0099
vn -0.844 -0.5363 -0.0052
vn -0.8442 -0.536 -0.005
vn -0.6782 -0.7347 0.0125
vn -0.6909 -0.7227 0.0193
vn -0.9854 -0.1609 -0.0561
vn -0.6386 -0.7446 -0.1941
vn -0.9841 -0.167 -0.0601
vn -0.6896 -0.688 -0.2258
vn -0.8719 -0.3617 0.3301
vn -0.8734 -0.3525 0.3359
vn -0.6159 -0.7632 -0.1952
vn -0.4578 -0.8796 -0.1297
vn -0.4526 -0.8822 -0.1299
vn -0.8441 -0.435 0.3134
vn -0.5456 -0.8216 -0.1651
vn -0.7652 -0.6438 -0.005
vn -0.7656 -0.6433 -0.0046
vn -0.3524 -0.9303 -0.1018
vn -0.3574 -0.9284 -0.1015
vn -0.9545 -0.2932 -0.0544
vn -0.9544 -0.2935 -0.0546
vn -0.5921 -0.8057 0.0151
vn -0.5872 -0.8094 0.0128
vn -0.95 -0.072 0.3038
vn -0.2487 -0.966 -0.0711
vn -0.7926 -0.538 0.2869
vn -0.2402 -0.9685 -0.0659
vn -0.8175 -0.4786 0.3203
vn -0.9838 -0.1527 -0.0941
vn -0.9786 -0.1726 -0.1117
vn -0.1295 -0.9911 -0.0322
vn -0.48 -0.8772 0.0133
vn -0.1215 -0.9921 -0.0323
vn -0.9364 -0.1716 0.3062
vn -0.9368 -0.1605 0.3109
vn -0.4683 -0.8835 0.0095
vn -0.0664 -0.9976 -0.019
vn -0.925 -0.3763 -0.0529
vn -0.9067 -0.417 -0.0632
vn -0.7513 -0.5902 0.2955
vn -0.7197 -0.6446 0.2578
vn -0.9804 -0.1634 -0.11
vn -0.7659 -0.6412 -0.0485
vn -0.8571 -0.5127 -0.0506
vn -0.6802 -0.684 0.2635
vn -0.9516 -0.2934 -0.0911
vn -0.639 -0.7339 0.2303
vn -0.9104 -0.2816 0.303
vn -0.9517 -0.2933 -0.091
vn -0.9088 -0.293 0.2971
vn -0.3848 -0.9229 0.0098
vn -0.3853 -0.9227 0.01
vn -0.8865 -0.3649 0.2844
vn -0.2917 -0.9565 0.0063
vn -0.8424 -0.5359 -0.0574
vn -0.6761 -0.7367 -0.0075
vn -0.6313 -0.7394 0.234
vn -0.316 -0.9487 0.0123
vn -0.8615 -0.4173 0.2892
vn -0.6893 -0.7242 -0.0199
vn -0.796 -0.6044 -0.032
vn -0.9009 -0.4254 -0.0862
vn -0.5457 -0.8145 0.1968
vn -0.8385 -0.4758 0.2656
vn -0.2429 -0.97 0.0056
vn -0.8782 -0.4709 -0.0839
vn -0.8002 -0.5359 0.2691
vn -0.1771 -0.9842 0.0049
vn -0.1913 -0.9815 0.0075
vn -0.988 -0.0462 -0.1475
vn -0.5864 -0.8098 -0.0184
vn -0.5795 -0.8147 -0.0215
vn -0.9527 -0.1611 0.2578
vn -0.9527 -0.1666 0.2541
vn -0.7497 -0.6606 -0.0388
vn -0.7682 -0.5922 0.2434
vn -0.9741 -0.1724 -0.1462
vn -0.9733 -0.176 -0.1473
vn -0.7266 -0.6422 0.2441
vn -0.6517 -0.7567 -0.052
vn -0.0745 -0.9972 0.0033
vn -0.8028 -0.5913 -0.0767
vn -0.8062 -0.587 -0.0741
vn -0.9229 -0.2931 0.2499
vn -0.9228 -0.2934 0.2497
vn -0.4749 -0.8798 -0.0187
vn -0.4838 -0.875 -0.0152
vn -0.6973 -0.681 0.2235
vn -0.9631 -0.1524 0.222
vn -0.9638 -0.173 0.203
vn -0.4497 -0.8802 0.1517
vn -0.6354 -0.744 0.2065
vn -0.6443 -0.7343 0.2139
vn -0.9454 -0.2933 -0.1418
vn -0.9454 -0.2934 -0.1419
vn -0.8801 -0.4172 0.2265
vn -0.8944 -0.3762 0.2421
vn -0.3813 -0.9243 -0.014
vn -0.3799 -0.9249 -0.0144
vn -0.7117 -0.6995 -0.0645
vn -0.9682 -0.1314 0.2127
vn -0.3549 -0.9271 0.1202
vn -0.8291 -0.5128 0.2227
vn -0.9798 -0.1029 -0.1717
vn -0.9316 -0.2933 0.2148
vn -0.9315 -0.2936 0.2146
vn -0.5629 -0.806 0.1831
vn -0.5639 -0.8051 0.1839
vn -0.9088 -0.3976 -0.1262
vn -0.8974 -0.4202 -0.1346
vn -0.8173 -0.5359 0.2117
vn -0.4212 -0.8967 0.1363
vn -0.6633 -0.7462 -0.0573
vn -0.2951 -0.9554 -0.0065
vn -0.7762 -0.5911 0.2194
vn -0.8544 -0.5034 -0.1287
vn -0.8821 -0.425 0.2032
vn -0.4525 -0.8788 0.1514
vn -0.5776 -0.8147 -0.0525
vn -0.5638 -0.8239 -0.0575
vn -0.1825 -0.9831 -0.0128
vn -0.9836 -0.0469 0.1741
vn -0.723 -0.6839 -0.0977
vn -0.7418 -0.6425 0.1922
vn -0.8594 -0.4714 0.1981
vn -0.8508 -0.5099 -0.1268
vn -0.3666 -0.9225 0.1206
vn -0.658 -0.7338 0.1691
vn -0.7021 -0.6845 0.1963
vn -0.9735 -0.0706 -0.2174
vn -0.9749 -0.0609 -0.2143
vn -0.784 -0.6079 -0.1255
vn -0.7976 -0.5912 -0.1198
vn -0.0881 -0.9961 -0.0064
vn -0.9703 -0.1728 0.1692
vn -0.9702 -0.1737 0.1689
vn -0.2762 -0.9572 0.0863
vn -0.4734 -0.8798 -0.043
vn -0.4735 -0.8797 -0.043
vn -0.786 -0.5911 0.1812
vn -0.7859 -0.5912 0.181
vn -0.2555 -0.9667 -0.0143
vn -0.44 -0.8871 0.1394
vn -0.2447 -0.9661 0.0821
vn -0.6152 -0.7703 0.1677
vn -0.9838 -0.1131 0.1391
vn -0.9624 -0.1728 -0.2097
vn -0.9625 -0.1724 -0.2096
vn -0.9418 -0.2932 0.1642
vn -0.9418 -0.2933 0.1642
vn -0.1643 -0.9853 0.0464
vn -0.5483 -0.8243 0.141
vn -0.3606 -0.9319 -0.0387
vn -0.3865 -0.9216 -0.0351
vn -0.7071 -0.6991 -0.1062
vn -0.8902 -0.4162 -0.1851
vn -0.7201 -0.6738 0.1659
vn -0.6959 -0.7027 0.1484
vn -0.1419 -0.9889 0.0439
vn -0.7015 -0.7068 -0.0913
vn -0.9051 -0.3931 0.1623
vn -0.9341 -0.2934 -0.2035
vn -0.8998 -0.4072 0.1569
vn -0.5962 -0.7971 -0.0953
vn -0.8592 -0.488 0.1541
vn -0.8512 -0.5034 0.1484
vn -0.5697 -0.8105 0.1361
vn -0.5795 -0.8103 -0.087
vn -0.8813 -0.4318 -0.192
vn -0.9919 -0.0697 0.1065
vn -0.681 -0.7171 0.1483
vn -0.122 -0.9925 -0.0039
vn -0.7948 -0.5909 0.1379
vn -0.7958 -0.5894 0.1388
vn -0.2305 -0.9726 -0.0299
vn -0.4712 -0.8748 0.1126
vn -0.3728 -0.927 -0.0408
vn -0.4705 -0.8752 0.1122
vn -0.9917 -0.0722 0.106
vn -0.6237 -0.7718 0.1237
vn -0.4703 -0.8797 -0.0706
vn -0.9597 -0.0742 -0.2709
vn -0.9601 -0.0712 -0.2703
vn -0.6361 -0.7613 -0.1255
vn -0.7299 -0.6707 -0.1319
vn -0.9791 -0.1729 0.1068
vn -0.9785 -0.177 0.1054
vn -0.25 -0.9675 -0.0385
vn -0.5521 -0.8256 0.1169
vn -0.3591 -0.9294 0.0851
vn -0.359 -0.9294 0.085
vn -0.8753 -0.4757 -0.0876
vn -0.7066 -0.6964 0.1255
vn -0.8199 -0.547 -0.1689
vn -0.574 -0.8141 -0.0882
vn -0.3619 -0.9306 -0.0543
vn -0.9494 -0.1634 -0.2681
vn -0.9506 -0.2932 0.1024
vn -0.9506 -0.2932 0.1023
vn -0.9473 -0.1726 -0.27
vn -0.7968 -0.5788 -0.1734
vn -0.8815 -0.4082 -0.2372
vn -0.2361 -0.9701 0.0559
vn -0.9368 -0.2327 -0.2613
vn -0.583 -0.8061 0.1017
vn -0.7577 -0.6436 0.1075
vn -0.9034 -0.4175 0.0973
vn -0.9077 -0.4071 0.1021
vn -0.6507 -0.7525 0.1021
vn -0.9191 -0.2935 -0.2628
vn -0.9196 -0.2921 -0.2626
vn -0.697 -0.7009 -0.1516
vn -0.8683 -0.488 0.0892
vn -0.1244 -0.9915 0.0386
vn -0.996 -0.0742 0.0489
vn -0.9961 -0.0725 0.0494
vn -0.4582 -0.8852 0.0799
vn -0.8457 -0.491 -0.209
vn -0.2534 -0.9659 0.0539
vn -0.8385 -0.5362 0.0967
vn -0.9011 -0.3539 -0.2507
vn -0.6783 -0.729 0.0923
vn -0.3729 -0.9259 0.0608
vn -0.9838 -0.1728 0.0483
vn -0.9838 -0.1727 0.0483
vn -0.8046 -0.5882 0.0813
vn -0.7544 -0.6293 -0.1866
vn -0.9452 -0.1104 -0.3074
vn -0.9439 -0.0769 -0.3212
vn -0.1323 -0.991 -0.0208
vn -0.1164 -0.9929 0.0248
vn -0.661 -0.737 -0.1412
vn -0.7384 -0.6682 0.0906
vn -0.8613 -0.4426 -0.2494
vn -0.5636 -0.8225 0.0766
vn -0.4845 -0.8718 0.073
vn -0.0624 -0.998 -0.0085
vn -0.9549 -0.2932 0.047
vn -0.9548 -0.2934 0.0469
vn -0.5657 -0.8153 -0.1232
vn -0.5477 -0.8271 -0.1264
vn -0.2496 -0.967 -0.051
vn -0.3954 -0.9155 -0.0742
vn -0.8635 -0.4502 -0.2273
vn -0.3612 -0.9309 0.0544
vn -0.9317 -0.1633 -0.3245
vn -0.7115 -0.6795 -0.1789
vn -0.0058 -1 -0.0014
vn -0.0019 -1 0.0002
vn -0.0005 -1 0.0012
vn -0.0007 -1 0.0011
vn -0.0009 -1 -0.0001
vn -0.0017 -1 0.0001
vn -0.0019 -1 0.001
vn -0.0021 -1 0.0003
vn -0.9944 -0.1056 -0.0003
vn 0.9892 0.1467 0
vn -0.9942 -0.108 0.0007
vn 0.9888 0.1495 0.0003
vn 0.9786 0.2058 -0.0005
vn -0.9818 -0.1899 -0.0007
vn -0.9923 -0.124 0.0002
vn 0.9793 0.2023 -0.0012
vn -0.9802 -0.1981 0.0012
vn 0.9661 0.2582 0.0021
vn 0.9518 0.3067 -0.0026
vn -0.9553 -0.2955 -0.0014
vn 0.9497 0.3132 -0.0012
vn -0.9524 -0.3049 0.0013
vn 0.9262 0.3769 0.0027
vn 0.9104 0.4137 -0.0042
vn -0.9151 -0.4033 -0.0013
vn -0.9111 -0.4123 0.0013
vn 0.8812 0.4727 0.0042
vn 0.8571 0.5152 -0.0042
vn -0.8627 -0.5058 -0.0013
vn -0.8578 -0.5141 0.0013
vn 0.8212 0.5706 0.0042
vn 0.7924 0.61 -0.0042
vn -0.7989 -0.6014 -0.0013
vn -0.7931 -0.6091 0.0013
vn 0.7504 0.661 0.0042
vn 0.7174 0.6967 -0.0042
vn -0.7245 -0.6893 -0.0013
vn -0.718 -0.6961 0.0013
vn 0.6697 0.7426 0.0042
vn 0.6328 0.7743 -0.0042
vn -0.6406 -0.7679 -0.0013
vn -0.6333 -0.7739 0.0013
vn 0.5801 0.8145 0.0042
vn 0.54 0.8416 -0.0042
vn -0.5481 -0.8364 -0.0013
vn -0.5403 -0.8415 0.0013
vn 0.483 0.8756 0.0042
vn 0.44 0.898 -0.0042
vn -0.4484 -0.8938 -0.0013
vn -0.4402 -0.8979 0.0012
vn 0.3794 0.9252 0.0042
vn 0.3343 0.9424 -0.0042
vn -0.3428 -0.9394 -0.0013
vn -0.3342 -0.9425 0.0012
vn 0.2708 0.9626 0.0042
vn 0.2242 0.9745 -0.0042
vn -0.2326 -0.9726 -0.0012
vn -0.2239 -0.9746 0.0012
vn 0.1587 0.9873 0.0042
vn 0.1111 0.9938 -0.0041
vn -0.1193 -0.9929 -0.0012
vn -0.1105 -0.9939 0.0012
vn 0.0444 0.999 0.0042
vn -0.0035 1 -0.0041
vn -0.0044 -1 -0.0012
vn 0.0043 -1 0.0012
vn -0.0703 0.9975 0.0041
vn -0.1179 0.993 -0.0042
vn 0.1015 -0.9948 -0.001
vn 0.1189 -0.9929 0.0026
vn 0.1688 -0.9856 -0.0021
vn -0.1843 0.9829 0.0041
vn -0.2309 0.973 -0.0041
vn 0.2253 -0.9743 0.0012
vn 0.2222 -0.975 0.0005
vn 0.281 -0.9597 -0.0004
vn 0.2862 -0.9582 0.0004
vn -0.2957 0.9553 0.0041
vn 0.3357 -0.942 -0.0004
vn -0.3408 0.9401 -0.0041
vn 0.3408 -0.9402 0.0004
vn 0.3893 -0.9211 -0.0004
vn 0.3943 -0.919 0.0004
vn -0.4033 0.9151 0.0041
vn 0.4456 -0.8952 -0.0004
vn -0.4462 0.8949 -0.0041
vn 0.4513 -0.8924 0.0007
vn 0.5094 -0.8605 -0.0006
vn 0.5113 -0.8594 -0.0002
vn -0.5055 0.8628 0.0042
vn -0.5458 0.8379 -0.0041
vn -0.601 0.7992 0.0042
vn -0.6382 0.7699 -0.0041
vn -0.6887 0.7251 0.0041
vn -0.7221 0.6918 -0.0041
vn -0.7673 0.6413 0.0041
vn -0.7966 0.6045 -0.0041
vn -0.8357 0.5492 0.0041
vn -0.8605 0.5094 -0.0041
vn -0.8932 0.4497 0.0041
vn -0.9132 0.4074 -0.0041
vn -0.9388 0.3444 0.0041
vn -0.9539 0.3002 -0.0041
vn -0.971 0.2392 0.0035
vn -0.9811 0.1934 -0.003
vn -0.9876 0.1571 0.0015
vn -0.9879 0.1552 0.002
vn -0.9929 0.1189 -0.0022
vn -0.9963 0.0853 0.0057
vn -0.9994 0.0347 -0.0055
vn -0.9995 -0.0318 -0.001
vn -0.9999 -0.0143 0.0048
vn -0.9479 -0.0001 -0.3185
vn -0.9659 -0.0004 0.2591
vn -0.9462 -0.0024 -0.3234
vn -0.9593 -0.013 0.2819
vn -0.9493 0.0018 0.3143
vn -0.9643 -0.0027 -0.2647
vn -0.9629 0.0004 -0.27
vn -0.9357 -0.0009 0.3527
vn -0.9325 -0.0057 0.3611
vn -0.9804 -0.0083 -0.1967
vn -0.9761 0.0002 -0.2173
vn -0.9832 -0.0007 -0.1825
vn -0.9922 0.0033 -0.1242
vn -0.9954 -0.0135 -0.0948
vn -0.9982 0.0005 -0.0596
vn -1 -0.0023 -0.0079
vn -1 -0.0065 -0.0019
vn -0.9988 -0.0001 0.0499
vn -0.9978 -0.0085 0.0656
vn -0.995 0.0045 0.0997
vn -0.9886 -0.0012 0.1505
vn -0.9848 -0.0145 0.1728
vn -0.9806 0.0002 0.1962
vn 0.0016 -1 0
vn 0 -1 0
vn 0 -1 -0.0001
vn 0 -1 0.0001
vn 0 -1 0.0002
vn 0 -1 -0.0003
vn 0 -1 0.0003
vn 0 -1 -0.0002
vn -1 0.0003 -0.0007
vn -1 0 -0.0012
vn -1 0.0004 -0.0005
vn -1 -0.0002 -0.0001
vn -1 0.0002 -0.0001
vn -1 0.0002 -0.0002
vn -1 0 -0.0009
vn -1 -0.0046 0.002
vn 0 0.9487 -0.3162
vn -0.0005 0.9487 -0.3162
vn 0 0 1
vn -0.0001 0 1
vn 0 -0.9487 -0.3162
vn -0.1456 -0.9893 0.0003
vn -0.1277 -0.9918 -0.001
vn 0.0228 -0.9997 0.0016
vn 0.0086 -1 0.0003
vn 0.1814 -0.9834 -0.0024
vn 0.2349 -0.972 0.0024
vn 0.4025 -0.9154 0.0004
vn 0.3818 -0.9242 -0.0014
vn -0.9783 -0.2074 0.0021
vn -0.8607 -0.5092 -0.0046
vn -0.588 -0.8088 0.003
vn -0.2356 -0.9718 -0.0019
f 1//1 2//1 3//1
f 3//1 2//1 4//1
f 4//1 2//1 5//1
f 5//1 2//1 6//1
f 6//1 2//1 7//1
f 7//1 2//1 8//1
f 8//1 2//1 9//1
f 9//1 2//1 10//1
f 11//2 12//2 13//2
f 10//1 2//1 14//1
f 14//1 2//1 15//1
f 15//1 2//1 16//1
f 17//3 12//3 11//3
f 16//1 2//1 18//1
f 19//4 12//4 17//4
f 18//1 2//1 20//1
f 20//1 2//1 21//1
f 21//1 2//1 22//1
f 19//5 23//5 12//5
f 22//1 2//1 24//1
f 25//1 2//1 26//1
f 27//1 2//1 28//1
f 28//1 2//1 29//1
f 29//1 2//1 30//1
f 30//1 2//1 31//1
f 31//1 2//1 32//1
f 32//1 2//1 33//1
f 33//1 2//1 34//1
f 34//1 2//1 35//1
f 35//1 2//1 36//1
f 36//1 2//1 37//1
f 37//1 2//1 38//1
f 38//1 2//1 25//1
f 27//1 39//1 2//1
f 39//1 40//1 2//1
f 2//1 41//1 42//1
f 2//1 43//1 41//1
f 40//1 44//1 2//1
f 2//1 45//1 43//1
f 44//1 46//1 2//1
f 2//1 47//1 45//1
f 46//1 48//1 2//1
f 2//1 49//1 47//1
f 48//1 50//1 2//1
f 2//1 51//1 49//1
f 50//1 52//1 2//1
f 2//1 52//1 51//1
f 53//1 54//1 55//1
f 56//1 54//1 53//1
f 57//6 54//6 58//6
f 24//1 54//1 56//1
f 59//1 54//1 57//1
f 60//1 54//1 59//1
f 61//1 54//1 60//1
f 55//1 54//1 61//1
f 62//7 63//7 23//7
f 64//8 63//8 62//8
f 65//9 63//9 64//9
f 58//10 63//10 65//10
f 54//1 63//1 58//1
f 23//11 63//11 12//11
f 54//1 66//1 67//1
f 68//12 11//12 13//12
f 24//1 2//1 54//1
f 54//1 2//1 66//1
f 26//1 2//1 69//1
f 69//1 2//1 70//1
f 70//1 2//1 71//1
f 71//1 2//1 72//1
f 72//1 2//1 1//1
f 73//13 74//13 75//13
f 76//14 74//14 73//14
f 77//15 78//15 79//15
f 80//16 81//16 82//16
f 83//17 84//17 85//17
f 86//18 87//18 88//18
f 11//19 89//19 17//19
f 90//20 89//20 11//20
f 91//21 92//21 93//21
f 94//22 95//22 96//22
f 97//23 95//23 94//23
f 80//24 98//24 81//24
f 99//25 100//25 101//25
f 83//26 102//26 84//26
f 103//27 104//27 78//27
f 93//28 87//28 86//28
f 89//29 105//29 17//29
f 106//30 107//30 108//30
f 88//31 109//31 76//31
f 76//32 109//32 74//32
f 93//33 110//33 87//33
f 91//34 111//34 92//34
f 98//35 112//35 81//35
f 99//36 113//36 100//36
f 114//37 113//37 99//37
f 105//38 115//38 17//38
f 97//39 116//39 95//39
f 79//40 19//40 117//40
f 117//41 17//41 115//41
f 98//42 118//42 112//42
f 79//43 78//43 19//43
f 88//44 87//44 109//44
f 103//45 108//45 104//45
f 93//46 92//46 110//46
f 82//47 119//47 111//47
f 120//48 118//48 98//48
f 114//49 121//49 113//49
f 75//50 121//50 114//50
f 117//51 19//51 17//51
f 82//52 81//52 119//52
f 120//53 122//53 118//53
f 85//54 84//54 123//54
f 123//55 84//55 116//55
f 111//56 124//56 92//56
f 108//57 62//57 104//57
f 125//58 126//58 127//58
f 74//59 128//59 75//59
f 75//60 128//60 121//60
f 127//61 126//61 129//61
f 87//62 130//62 109//62
f 125//63 131//63 126//63
f 78//64 23//64 19//64
f 104//65 23//65 78//65
f 96//66 65//66 107//66
f 111//67 119//67 124//67
f 132//68 131//68 125//68
f 132//69 133//69 131//69
f 122//70 134//70 118//70
f 109//71 135//71 74//71
f 74//72 135//72 128//72
f 110//73 136//73 87//73
f 87//74 136//74 130//74
f 113//75 137//75 100//75
f 108//76 64//76 62//76
f 100//77 137//77 138//77
f 104//78 62//78 23//78
f 132//79 139//79 133//79
f 140//80 139//80 132//80
f 107//81 64//81 108//81
f 95//82 58//82 96//82
f 96//83 58//83 65//83
f 140//84 141//84 139//84
f 107//85 65//85 64//85
f 130//86 142//86 109//86
f 109//87 142//87 135//87
f 116//88 57//88 95//88
f 95//89 57//89 58//89
f 113//90 143//90 137//90
f 121//91 143//91 113//91
f 110//92 144//92 136//92
f 92//93 144//93 110//93
f 126//94 145//94 129//94
f 84//95 57//95 116//95
f 146//96 147//96 141//96
f 84//97 59//97 57//97
f 141//98 147//98 139//98
f 137//99 148//99 138//99
f 138//100 148//100 149//100
f 102//101 60//101 84//101
f 92//102 150//102 144//102
f 84//103 60//103 59//103
f 131//104 151//104 126//104
f 126//105 151//105 145//105
f 124//106 150//106 92//106
f 152//107 60//107 102//107
f 121//108 153//108 143//108
f 128//109 153//109 121//109
f 146//110 154//110 147//110
f 155//111 154//111 146//111
f 138//112 149//112 156//112
f 142//113 157//113 135//113
f 128//114 158//114 153//114
f 155//115 159//115 154//115
f 143//116 160//116 137//116
f 161//117 159//117 155//117
f 133//118 162//118 131//118
f 137//119 160//119 148//119
f 131//120 162//120 151//120
f 119//121 163//121 124//121
f 124//122 163//122 150//122
f 139//123 162//123 133//123
f 119//124 164//124 163//124
f 135//125 158//125 128//125
f 130//126 136//126 142//126
f 161//127 165//127 159//127
f 81//128 164//128 119//128
f 139//129 166//129 162//129
f 136//130 167//130 142//130
f 135//131 157//131 158//131
f 143//132 153//132 160//132
f 168//133 165//133 161//133
f 147//134 166//134 139//134
f 112//135 164//135 81//135
f 158//136 169//136 153//136
f 147//137 170//137 166//137
f 118//138 171//138 112//138
f 112//139 171//139 164//139
f 149//140 172//140 156//140
f 144//141 173//141 136//141
f 136//142 173//142 167//142
f 151//143 174//143 145//143
f 145//144 174//144 175//144
f 142//145 176//145 157//145
f 154//146 170//146 147//146
f 148//147 177//147 149//147
f 149//148 177//148 172//148
f 154//149 178//149 170//149
f 142//150 167//150 176//150
f 118//151 134//151 171//151
f 158//152 179//152 169//152
f 157//153 179//153 158//153
f 162//154 180//154 151//154
f 151//155 180//155 174//155
f 144//156 181//156 173//156
f 150//157 181//157 144//157
f 159//158 178//158 154//158
f 174//159 182//159 175//159
f 175//160 182//160 183//160
f 168//161 184//161 185//161
f 165//162 186//162 159//162
f 159//163 186//163 178//163
f 160//164 187//164 148//164
f 148//165 187//165 177//165
f 166//166 188//166 162//166
f 162//167 188//167 180//167
f 163//168 189//168 150//168
f 150//169 189//169 181//169
f 157//170 176//170 179//170
f 175//171 183//171 190//171
f 184//172 191//172 192//172
f 166//173 193//173 188//173
f 156//174 172//174 194//174
f 174//175 195//175 182//175
f 180//176 195//176 174//176
f 165//177 196//177 186//177
f 168//178 196//178 165//178
f 153//179 197//179 160//179
f 160//180 197//180 187//180
f 170//181 193//181 166//181
f 168//182 185//182 196//182
f 167//183 198//183 176//183
f 164//184 83//184 163//184
f 170//185 199//185 193//185
f 169//186 197//186 153//186
f 180//187 188//187 195//187
f 184//188 192//188 185//188
f 173//189 200//189 167//189
f 167//190 200//190 198//190
f 164//191 171//191 83//191
f 183//192 201//192 190//192
f 176//193 202//193 179//193
f 178//194 199//194 170//194
f 193//195 203//195 188//195
f 169//196 204//196 197//196
f 191//197 205//197 192//197
f 186//198 206//198 178//198
f 178//199 206//199 199//199
f 194//200 207//200 208//200
f 172//201 207//201 194//201
f 169//202 209//202 204//202
f 179//203 209//203 169//203
f 134//204 210//204 171//204
f 182//205 211//205 183//205
f 183//206 211//206 201//206
f 212//207 205//207 191//207
f 181//208 213//208 173//208
f 173//209 213//209 200//209
f 193//210 214//210 203//210
f 199//211 214//211 193//211
f 163//212 83//212 189//212
f 185//213 192//213 196//213
f 212//214 215//214 205//214
f 186//215 216//215 206//215
f 201//216 217//216 190//216
f 172//217 218//217 207//217
f 177//218 218//218 172//218
f 182//219 219//219 211//219
f 195//220 219//220 182//220
f 220//221 215//221 212//221
f 186//222 196//222 216//222
f 189//223 221//223 181//223
f 181//224 221//224 213//224
f 179//225 202//225 209//225
f 197//226 77//226 187//226
f 199//227 222//227 214//227
f 206//228 222//228 199//228
f 220//229 120//229 215//229
f 176//230 223//230 202//230
f 188//231 224//231 195//231
f 177//232 225//232 218//232
f 195//233 224//233 219//233
f 187//232 225//232 177//232
f 176//234 198//234 223//234
f 188//235 226//235 224//235
f 203//236 226//236 188//236
f 196//237 227//237 216//237
f 200//238 94//238 198//238
f 187//239 77//239 225//239
f 217//240 228//240 229//240
f 206//241 230//241 222//241
f 171//242 210//242 83//242
f 214//243 231//243 203//243
f 203//244 231//244 226//244
f 83//245 123//245 189//245
f 192//246 232//246 196//246
f 189//247 123//247 221//247
f 196//248 232//248 227//248
f 201//249 228//249 217//249
f 216//250 230//250 206//250
f 213//251 97//251 200//251
f 200//251 97//251 94//251
f 207//252 233//252 208//252
f 208//253 233//253 234//253
f 223//254 106//254 202//254
f 202//255 106//255 209//255
f 201//256 235//256 228//256
f 211//257 235//257 201//257
f 83//258 85//258 123//258
f 216//259 227//259 230//259
f 192//260 80//260 232//260
f 205//261 80//261 192//261
f 152//262 210//262 134//262
f 214//263 222//263 231//263
f 197//264 204//264 77//264
f 198//265 94//265 223//265
f 213//266 221//266 97//266
f 207//267 90//267 233//267
f 211//268 73//268 235//268
f 219//269 73//269 211//269
f 218//270 90//270 207//270
f 209//271 103//271 204//271
f 77//272 117//272 225//272
f 205//273 215//273 80//273
f 218//274 89//274 90//274
f 227//275 91//275 230//275
f 222//276 86//276 231//276
f 219//277 76//277 73//277
f 224//278 76//278 219//278
f 222//279 230//279 86//279
f 225//280 105//280 218//280
f 218//281 105//281 89//281
f 209//282 106//282 103//282
f 226//283 76//283 224//283
f 220//284 122//284 120//284
f 228//285 99//285 229//285
f 229//286 99//286 101//286
f 227//287 232//287 91//287
f 204//288 78//288 77//288
f 215//289 98//289 80//289
f 226//290 88//290 76//290
f 225//291 115//291 105//291
f 230//292 93//292 86//292
f 80//293 82//293 232//293
f 228//294 114//294 99//294
f 235//295 114//295 228//295
f 231//296 88//296 226//296
f 204//297 103//297 78//297
f 68//298 233//298 11//298
f 234//299 233//299 68//299
f 210//300 102//300 83//300
f 215//301 120//301 98//301
f 223//302 107//302 106//302
f 231//303 86//303 88//303
f 225//304 117//304 115//304
f 230//305 91//305 93//305
f 232//306 111//306 91//306
f 210//307 152//307 102//307
f 73//308 75//308 235//308
f 235//309 75//309 114//309
f 94//310 96//310 223//310
f 223//311 96//311 107//311
f 123//312 116//312 221//312
f 221//313 116//313 97//313
f 77//314 79//314 117//314
f 232//315 82//315 111//315
f 233//316 90//316 11//316
f 106//317 108//317 103//317
f 122//318 220//318 236//318
f 134//319 122//319 237//319
f 134//320 237//320 238//320
f 134//321 238//321 239//321
f 61//322 152//322 134//322
f 61//323 134//323 239//323
f 60//324 152//324 61//324
f 236//325 237//325 122//325
f 240//326 241//326 242//326
f 243//327 42//327 41//327
f 244//328 241//328 240//328
f 245//329 243//329 41//329
f 245//330 41//330 43//330
f 244//331 26//331 69//331
f 244//332 240//332 26//332
f 246//333 245//333 43//333
f 247//334 244//334 69//334
f 248//335 246//335 43//335
f 248//336 43//336 45//336
f 247//337 69//337 70//337
f 249//338 248//338 45//338
f 250//339 247//339 70//339
f 251//340 249//340 45//340
f 251//341 45//341 47//341
f 250//342 70//342 71//342
f 252//343 250//343 71//343
f 253//344 251//344 47//344
f 253//345 47//345 49//345
f 252//346 71//346 72//346
f 254//347 252//347 72//347
f 255//348 253//348 49//348
f 255//349 49//349 51//349
f 254//350 72//350 1//350
f 256//351 254//351 1//351
f 257//352 255//352 51//352
f 257//353 51//353 52//353
f 256//354 1//354 3//354
f 258//355 256//355 3//355
f 259//356 257//356 52//356
f 259//357 52//357 50//357
f 258//358 3//358 4//358
f 260//359 258//359 4//359
f 261//360 259//360 50//360
f 261//361 50//361 48//361
f 260//362 4//362 5//362
f 262//363 260//363 5//363
f 263//364 261//364 48//364
f 263//365 48//365 46//365
f 262//366 5//366 6//366
f 264//367 262//367 6//367
f 265//368 263//368 46//368
f 265//369 46//369 44//369
f 264//370 6//370 7//370
f 266//371 264//371 7//371
f 267//372 265//372 44//372
f 267//373 44//373 40//373
f 266//374 7//374 8//374
f 268//375 266//375 8//375
f 269//376 267//376 40//376
f 269//377 40//377 39//377
f 268//378 8//378 9//378
f 270//379 268//379 9//379
f 271//380 269//380 39//380
f 271//381 39//381 27//381
f 270//382 9//382 10//382
f 272//383 270//383 10//383
f 273//384 271//384 27//384
f 273//385 27//385 28//385
f 272//386 10//386 14//386
f 274//387 272//387 14//387
f 274//388 14//388 15//388
f 275//389 273//389 28//389
f 275//390 28//390 29//390
f 274//391 15//391 16//391
f 276//392 274//392 16//392
f 276//393 16//393 18//393
f 277//394 276//394 18//394
f 278//395 275//395 29//395
f 277//396 18//396 20//396
f 278//397 29//397 30//397
f 279//398 277//398 20//398
f 279//399 20//399 21//399
f 280//400 279//400 21//400
f 281//401 278//401 30//401
f 280//402 21//402 22//402
f 281//403 30//403 31//403
f 282//404 280//404 22//404
f 282//405 22//405 24//405
f 283//406 282//406 24//406
f 284//407 281//407 31//407
f 284//408 31//408 32//408
f 285//409 284//409 32//409
f 285//410 32//410 33//410
f 286//411 285//411 33//411
f 286//412 33//412 34//412
f 287//413 286//413 34//413
f 287//414 34//414 35//414
f 288//415 287//415 35//415
f 288//416 35//416 36//416
f 289//417 288//417 36//417
f 289//418 36//418 37//418
f 290//419 289//419 37//419
f 290//420 37//420 38//420
f 291//421 290//421 38//421
f 291//422 38//422 25//422
f 292//423 291//423 25//423
f 293//424 291//424 292//424
f 294//425 293//425 292//425
f 295//426 293//426 294//426
f 295//427 294//427 296//427
f 241//428 296//428 242//428
f 241//429 295//429 296//429
f 68//430 297//430 298//430
f 145//431 175//431 299//431
f 234//432 68//432 298//432
f 145//433 299//433 300//433
f 129//434 145//434 300//434
f 208//435 298//435 301//435
f 208//436 234//436 298//436
f 127//437 129//437 300//437
f 127//438 300//438 302//438
f 194//439 301//439 303//439
f 194//440 208//440 301//440
f 156//441 194//441 303//441
f 138//442 156//442 303//442
f 138//443 303//443 304//443
f 100//444 138//444 304//444
f 101//445 304//445 305//445
f 101//446 100//446 304//446
f 229//447 101//447 305//447
f 229//448 305//448 306//448
f 217//449 229//449 306//449
f 190//450 217//450 306//450
f 190//451 306//451 299//451
f 175//452 190//452 299//452
f 307//453 61//453 239//453
f 308//454 309//454 310//454
f 311//454 312//454 313//454
f 311//454 314//454 312//454
f 315//454 316//454 314//454
f 317//454 311//454 318//454
f 317//454 314//454 311//454
f 319//454 320//454 321//454
f 319//454 308//454 320//454
f 319//454 322//454 309//454
f 319//454 323//454 324//454
f 319//454 325//454 323//454
f 319//455 326//455 325//455
f 319//456 327//456 326//456
f 319//454 324//454 328//454
f 319//454 309//454 308//454
f 319//454 328//454 322//454
f 329//454 330//454 331//454
f 329//455 321//455 330//455
f 332//455 333//455 315//455
f 334//456 317//456 335//456
f 334//454 315//454 314//454
f 334//454 314//454 317//454
f 336//457 329//457 337//457
f 338//455 329//455 336//455
f 300//454 339//454 302//454
f 340//454 339//454 300//454
f 341//454 342//454 319//454
f 341//454 343//454 342//454
f 341//454 344//454 343//454
f 341//454 345//454 344//454
f 346//456 347//456 332//456
f 341//454 319//454 321//454
f 348//454 338//454 349//454
f 350//455 334//455 351//455
f 352//454 348//454 353//454
f 354//454 340//454 300//454
f 352//454 338//454 348//454
f 352//454 341//454 321//454
f 352//456 355//456 341//456
f 352//454 321//454 329//454
f 352//454 329//454 338//454
f 356//455 346//455 332//455
f 322//454 332//454 315//454
f 322//454 315//454 334//454
f 322//456 334//456 350//456
f 357//456 353//456 358//456
f 357//454 352//454 353//454
f 359//454 354//454 300//454
f 357//454 360//454 352//454
f 357//454 358//454 361//454
f 362//454 359//454 300//454
f 363//454 364//454 360//454
f 363//454 365//454 364//454
f 366//454 357//454 367//454
f 368//456 357//456 366//456
f 300//454 369//454 362//454
f 370//456 371//456 356//456
f 372//454 357//454 368//454
f 372//458 373//458 374//458
f 372//454 368//454 373//454
f 375//454 360//454 357//454
f 375//454 363//454 360//454
f 375//454 357//454 372//454
f 375//454 376//454 363//454
f 375//454 377//454 376//454
f 375//454 378//454 377//454
f 375//454 379//454 378//454
f 299//454 380//454 369//454
f 299//454 369//454 300//454
f 381//454 382//454 370//454
f 383//458 372//458 384//458
f 381//454 356//454 332//454
f 381//454 332//454 322//454
f 385//454 386//454 375//454
f 381//454 370//454 356//454
f 387//454 385//454 375//454
f 388//454 383//454 389//454
f 390//454 383//454 388//454
f 299//454 391//454 380//454
f 392//454 393//454 387//454
f 394//456 395//456 381//456
f 396//456 383//456 390//456
f 397//454 387//454 375//454
f 397//454 392//454 387//454
f 398//458 396//458 399//458
f 398//454 383//454 396//454
f 400//454 401//454 397//454
f 306//454 391//454 299//454
f 306//454 402//454 391//454
f 403//454 394//454 381//454
f 403//455 404//455 394//455
f 405//454 375//454 372//454
f 403//454 406//454 404//454
f 405//454 372//454 383//454
f 405//454 400//454 397//454
f 405//454 397//454 375//454
f 403//454 381//454 322//454
f 405//454 407//454 400//454
f 408//459 409//459 410//459
f 408//455 398//455 409//455
f 411//454 412//454 403//454
f 413//454 414//454 415//454
f 416//458 417//458 418//458
f 416//454 408//454 417//454
f 306//454 419//454 402//454
f 416//454 383//454 398//454
f 416//454 398//454 408//454
f 420//454 413//454 415//454
f 305//454 419//454 306//454
f 421//458 416//458 422//458
f 423//455 424//455 411//455
f 425//454 420//454 415//454
f 423//454 411//454 403//454
f 423//454 426//454 424//454
f 425//454 415//454 405//454
f 425//454 427//454 420//454
f 428//454 416//454 421//454
f 429//455 416//455 428//455
f 430//455 431//455 425//455
f 432//454 425//454 405//454
f 432//454 430//454 425//454
f 432//454 405//454 383//454
f 433//454 434//454 423//454
f 433//458 435//458 434//458
f 436//454 437//454 438//454
f 439//454 440//454 432//454
f 439//454 441//454 440//454
f 442//459 443//459 433//459
f 442//454 433//454 423//454
f 444//454 439//454 432//454
f 445//454 444//454 432//454
f 446//454 447//454 448//454
f 449//458 450//458 442//458
f 451//454 452//454 447//454
f 451//456 436//456 452//456
f 451//454 429//454 437//454
f 451//454 416//454 429//454
f 451//454 437//454 436//454
f 451//454 447//454 446//454
f 453//455 454//455 455//455
f 456//454 451//454 457//454
f 458//454 459//454 460//454
f 461//456 453//456 455//456
f 462//455 451//455 456//455
f 463//454 445//454 432//454
f 464//454 458//454 460//454
f 463//454 461//454 455//454
f 463//454 455//454 445//454
f 465//454 383//454 416//454
f 465//454 416//454 451//454
f 465//454 432//454 383//454
f 465//454 463//454 432//454
f 465//454 451//454 462//454
f 466//454 467//454 464//454
f 468//454 298//454 297//454
f 469//454 298//454 468//454
f 470//454 298//454 469//454
f 471//457 466//457 464//457
f 471//454 464//454 460//454
f 472//454 298//454 470//454
f 473//454 298//454 472//454
f 473//454 301//454 298//454
f 474//454 301//454 473//454
f 475//454 301//454 474//454
f 475//454 303//454 301//454
f 476//454 303//454 475//454
f 477//454 303//454 476//454
f 477//454 304//454 303//454
f 478//454 304//454 477//454
f 478//454 419//454 305//454
f 478//454 305//454 304//454
f 479//454 419//454 478//454
f 479//454 480//454 419//454
f 309//454 480//454 479//454
f 309//454 481//454 480//454
f 482//456 483//456 471//456
f 482//454 484//454 483//454
f 309//454 322//454 481//454
f 485//456 309//456 486//456
f 487//454 309//454 485//454
f 328//454 403//454 322//454
f 328//454 482//454 471//454
f 328//454 460//454 449//454
f 328//454 423//454 403//454
f 328//454 488//454 482//454
f 328//454 489//454 488//454
f 328//456 490//456 489//456
f 328//454 449//454 442//454
f 328//454 442//454 423//454
f 328//454 471//454 460//454
f 491//454 309//454 487//454
f 492//454 493//454 328//454
f 494//460 491//460 495//460
f 494//454 309//454 491//454
f 496//454 492//454 328//454
f 497//460 494//460 498//460
f 499//454 500//454 496//454
f 310//454 309//454 494//454
f 310//454 494//454 497//454
f 324//456 501//456 499//456
f 324//454 496//454 328//454
f 324//454 499//454 496//454
f 308//457 502//457 503//457
f 308//455 310//455 502//455
f 240//461 504//461 26//461
f 240//462 505//462 504//462
f 240//463 292//463 505//463
f 504//464 506//464 26//464
f 505//465 25//465 506//465
f 292//466 25//466 505//466
f 506//467 25//467 26//467
f 507//468 508//468 509//468
f 508//469 506//469 509//469
f 505//470 506//470 508//470
f 508//471 507//471 504//471
f 505//472 508//472 504//472
f 292//1 240//1 242//1
f 292//1 242//1 296//1
f 292//1 296//1 294//1
f 506//473 504//473 507//473
f 506//473 507//473 509//473
f 61//474 307//474 55//474
f 307//475 510//475 55//475
f 55//476 511//476 53//476
f 510//477 511//477 55//477
f 511//478 512//478 53//478
f 53//479 512//479 56//479
f 56//480 283//480 24//480
f 512//481 283//481 56//481
f 513//482 514//482 515//482
f 513//483 515//483 516//483
f 236//484 513//484 516//484
f 236//485 516//485 237//485