o obj1
v 0.002738 -0.008036 0.053086
v -0.007368 -0.004632 0.052015
v 0.001394 -0.007988 0.052959
v 0.001264 0.010984 0.052947
v -0.002741 0.008988 0.052533
v -1E-06 0.009705 0.052821
v -0.004266 -0.003128 0.05236
v -0.00705 0.014739 0.052022
v -0.005922 -0.003264 0.052168
v 0.013806 0.00877 0.053811
v 0.012168 0.010939 0.053723
v 0.012996 -0.009946 0.053773
v 0.010868 -0.01223 0.053655
v 0.008741 0.002232 0.053545
v 0.009023 -0.013626 0.053562
v 0.011458 0.00364 0.053702
v -0.009422 0.013322 0.051706
v -0.009779 -0.00201 0.051655
v -0.005403 0.009902 0.052224
v 0.004357 0.015766 0.053227
v 0.001218 0.016305 0.052936
v 0.003902 0.011686 0.053192
v 0.015819 -0.004161 0.053897
v 0.015745 0.004523 0.053896
v 0.014818 -0.006981 0.053856
v 0.00517 -0.015509 0.053292
v 0.003846 -0.012869 0.053184
v 0.002247 -0.016209 0.053041
v 0.007172 0.003419 0.053469
v 0.014758 0.007039 0.053856
v -0.015043 -0.006268 0.050794
v -0.015815 0.004043 0.050643
v -0.015782 -0.004117 0.050644
v -0.011037 -0.005773 0.051478
v -0.006831 -0.014856 0.052049
v 0.00987 0.01305 0.053614
v 0.007361 0.005021 0.05346
v -0.014935 0.006522 0.050815
v -0.000584 -0.001339 0.052762
v -0.009865 -0.013009 0.051644
v -0.016227 -0.001504 0.050561
v -0.001333 0.011927 0.052687
v 0.007221 0.01468 0.053446
v -0.002345 -0.001297 0.052575
v -0.016275 0.000904 0.050559
v 0.000162 -0.011648 0.052838
v -0.000795 -0.016315 0.05274
v 0.007321 -0.014621 0.053452
v 0.005883 0.007793 0.053348
v -0.001516 0.016264 0.052664
v 0.016285 0.00152 0.053914
v 0.016317 -0.00134 0.053915
v 0.001991 0.005803 0.05302
v -0.004149 0.015806 0.052372
v -0.012156 -0.010886 0.051298
v -0.013924 0.008499 0.051
v -0.014002 -0.008378 0.050986
v 0.000105 0.005806 0.052834
v -0.003496 -0.015964 0.052447
v -0.011824 0.011272 0.051351
vn -0.0926 0.038 0.995
vn -0.1069 0.0084 0.9942
vn -0.1152 0.0009 0.9933
vn -0.0532 0.0003 0.9986
vn -0.0504 0.0002 0.9987
vn -0.0571 -0.0008 0.9984
vn -0.1319 -0.0002 0.9913
vn -0.123 -0.0004 0.9924
vn -0.0919 0.0018 0.9958
vn -0.0394 -0.0003 0.9992
vn -0.115 0.0003 0.9934
vn -0.0853 -0.002 0.9964
vn -0.0869 0.0003 0.9962
vn -0.0545 -0.0009 0.9985
vn -0.041 -0.0001 0.9992
vn -0.0929 0.0012 0.9957
vn -0.2005 -0.0007 0.9797
vn -0.0452 -0.0002 0.999
vn -0.1436 -0.0042 0.9896
vn -0.0591 -0.0007 0.9983
vn -0.192 -0 0.9814
vn -0.0923 0.0024 0.9957
vn -0.1316 0.0014 0.9913
vn -0.1884 -0.0006 0.9821
vn -0.0387 0.0009 0.9992
vn -0.0992 0.0011 0.9951
vn 0.033 0.0019 0.9995
vn -0.1049 0.0232 0.9942
vn -0.1056 -0.0059 0.9944
vn -0.0457 0.0016 0.999
vn -0.1645 -0.0025 0.9864
vn -0.0981 -0.0007 0.9952
vn -0.0735 -0.0016 0.9973
vn -0.0857 0.0025 0.9963
vn -0.0989 0.0009 0.9951
vn -0.0929 0.0017 0.9957
vn -0.0362 -0 0.9993
vn -0.0853 0.0026 0.9964
vn -0.1103 0.0005 0.9939
vn -0.1509 -0.0018 0.9886
vn -0.116 0.0116 0.9932
vn -0.0615 -0 0.9981
vn -0.0645 -0.0003 0.9979
vn -0.1123 -0.001 0.9937
vn -0.1638 0.063 0.9845
vn -0.1794 0 0.9838
vn -0.0473 0.0001 0.9989
vn 0.0538 -0.0005 0.9986
vn -0.098 -0.0254 0.9949
vn -0.1201 0.0006 0.9928
vn -0.1079 0.001 0.9942
vn -0.0825 -0.0006 0.9966
vn -0.1395 -0 0.9902
vn -0.0336 -0.0002 0.9994
vn -0.063 0.0006 0.998
vn -0.1052 0.0001 0.9945
vn -0.1589 0 0.9873
vn -0.1468 0.0006 0.9892
vn -0.0762 0.0006 0.9971
vn -0.098 0.0006 0.9952
vn -0.1048 0.0004 0.9945
vn -0.1111 -0.0002 0.9938
vn -0.0782 0.0002 0.9969
vn -0.094 -0.0013 0.9956
vn -0.106 0.0029 0.9944
vn -0.1193 -0.003 0.9929
vn -0.1075 0.0012 0.9942
vn -0.1651 0.0001 0.9863
vn -0.167 -0 0.986
vn -0.0904 -0.0081 0.9959
vn -0.1814 -0.0001 0.9834
f 1//1 2//1 3//1
f 4//2 5//2 6//2
f 7//3 8//3 9//3
f 10//4 11//4 12//4
f 13//5 14//5 15//5
f 16//6 14//6 13//6
f 9//7 17//7 18//7
f 19//8 8//8 7//8
f 20//9 21//9 22//9
f 23//10 24//10 25//10
f 5//11 19//11 7//11
f 26//12 27//12 28//12
f 27//13 29//13 1//13
f 12//14 16//14 13//14
f 24//15 30//15 25//15
f 22//16 21//16 4//16
f 31//17 32//17 33//17
f 30//18 12//18 25//18
f 2//19 34//19 35//19
f 16//20 36//20 37//20
f 38//21 32//21 31//21
f 29//22 39//22 1//22
f 35//23 34//23 40//23
f 32//24 41//24 33//24
f 11//25 16//25 12//25
f 4//26 21//26 42//26
f 8//7 17//7 9//7
f 43//27 29//27 37//27
f 39//28 29//28 44//28
f 44//29 7//29 39//29
f 11//30 36//30 16//30
f 32//31 45//31 41//31
f 46//32 47//32 28//32
f 48//33 29//33 26//33
f 43//34 49//34 29//34
f 21//35 50//35 42//35
f 27//36 46//36 28//36
f 51//37 23//37 52//37
f 49//38 53//38 29//38
f 50//39 54//39 42//39
f 40//40 34//40 55//40
f 9//41 2//41 7//41
f 14//42 37//42 15//42
f 15//43 37//43 48//43
f 42//44 54//44 19//44
f 34//45 2//45 9//45
f 56//46 38//46 57//46
f 30//47 10//47 12//47
f 37//48 29//48 48//48
f 29//49 53//49 58//49
f 54//50 8//50 19//50
f 2//51 59//51 47//51
f 29//52 27//52 26//52
f 17//53 34//53 18//53
f 51//54 24//54 23//54
f 36//55 43//55 37//55
f 58//56 5//56 44//56
f 60//57 55//57 34//57
f 17//58 60//58 34//58
f 43//59 20//59 49//59
f 6//60 58//60 53//60
f 6//61 5//61 58//61
f 5//62 7//62 44//62
f 20//63 22//63 49//63
f 1//64 3//64 27//64
f 3//65 2//65 46//65
f 2//66 35//66 59//66
f 46//67 2//67 47//67
f 60//68 56//68 55//68
f 55//69 56//69 57//69
f 4//70 6//70 22//70
f 57//71 38//71 31//71