o obj1
v 0.054362 0.008036 0.087199
v 0.054795 0.008667 0.090033
v 0.054044 0.007566 0.089708
v 0.060622 0.016409 0.070939
v 0.066354 0.023052 0.07233
v 0.070309 0.027343 0.07532
v 0.06029 0.016 0.069572
v 0.053528 0.006789 0.084982
v 0.054112 0.007667 0.083372
v 0.071481 0.028518 0.093317
v 0.072664 0.029739 0.092174
v 0.072897 0.029979 0.093489
v 0.073806 0.030907 0.091765
v 0.071835 0.028885 0.094343
v 0.058796 0.014103 0.070536
v 0.053453 0.006675 0.078147
v 0.073533 0.030629 0.089402
v 0.074474 0.031585 0.088677
v 0.069959 0.026976 0.093701
v 0.058163 0.013284 0.069385
v 0.065641 0.022294 0.094379
v 0.054139 0.007706 0.076832
v 0.057364 0.012232 0.070733
v 0.073792 0.030892 0.084487
v 0.074591 0.031703 0.083411
v 0.056867 0.011565 0.069733
v 0.053638 0.006955 0.075737
v 0.073414 0.030507 0.080129
v 0.074279 0.031387 0.080344
v 0.056257 0.010732 0.071386
v 0.060922 0.016788 0.0937
v 0.073671 0.03077 0.07799
v 0.055789 0.010082 0.070507
v 0.054072 0.007607 0.073641
v 0.054659 0.008471 0.074111
v 0.072528 0.029599 0.077587
v 0.059001 0.014393 0.094379
v 0.055359 0.009477 0.072473
v 0.072538 0.029611 0.075769
v 0.054831 0.008722 0.071754
v 0.071617 0.028659 0.076249
v 0.071016 0.028034 0.074417
v 0.057134 0.011925 0.093673
v 0.05609 0.010502 0.094334
v 0.056241 0.010711 0.093205
v 0.054952 0.008898 0.092875
v 0.055456 0.009614 0.092049
v 0.061242 0.015394 0.070886
v 0.071513 0.026626 0.075493
v 0.065433 0.019689 0.072797
v 0.062513 0.01513 0.071574
v 0.061816 0.015417 0.071124
v 0.066082 0.019346 0.073223
v 0.068182 0.022726 0.074041
v 0.068386 0.021931 0.074264
v 0.072222 0.026066 0.075989
v 0.072357 0.026068 0.076249
v 0.06668 0.019922 0.073751
v 0.062946 0.015613 0.071817
v 0.062949 0.015563 0.071931
v 0.073268 0.027134 0.076978
v 0.073737 0.027562 0.077718
v 0.07334 0.027084 0.077246
v 0.072908 0.026697 0.076597
v 0.07496 0.02889 0.082802
v 0.074667 0.028488 0.080628
v 0.074772 0.028684 0.081065
v 0.074915 0.028722 0.082855
v 0.074562 0.02848 0.079968
v 0.074344 0.028144 0.079344
v 0.075011 0.028893 0.083893
v 0.07427 0.028187 0.078926
v 0.074127 0.027957 0.078571
v 0.074994 0.028853 0.086231
v 0.07497 0.028772 0.08485
v 0.074903 0.028752 0.087896
v 0.074793 0.028682 0.089
v 0.074602 0.028453 0.090073
v 0.074973 0.028871 0.086974
v 0.071853 0.025528 0.093008
v 0.072585 0.02639 0.092986
v 0.071785 0.025623 0.093203
v 0.073373 0.027131 0.092418
v 0.071214 0.024946 0.093182
v 0.073113 0.027005 0.092748
v 0.073566 0.027466 0.09236
v 0.073904 0.027669 0.091774
v 0.07402 0.027938 0.091743
v 0.074344 0.028201 0.090988
v 0.058822 0.010371 0.093134
v 0.062118 0.014602 0.093164
v 0.059106 0.010955 0.093273
v 0.059222 0.01086 0.093101
v 0.060432 0.012445 0.093113
v 0.059234 0.010855 0.09304
v 0.059105 0.010955 0.093273
v 0.058619 0.010293 0.093226
v 0.057123 0.008272 0.091608
v 0.057002 0.007837 0.090734
v 0.057424 0.008416 0.091776
v 0.058395 0.009809 0.093027
v 0.059287 0.01088 0.092695
v 0.059641 0.011441 0.071127
v 0.059051 0.010653 0.071305
v 0.058695 0.01054 0.071206
v 0.058628 0.010035 0.071555
v 0.058273 0.009629 0.071683
v 0.061819 0.014182 0.071408
v 0.057963 0.009189 0.071956
v 0.05738 0.008306 0.072775
v 0.057518 0.008599 0.072429
v 0.056557 0.00714 0.07472
v 0.056714 0.007452 0.073972
v 0.057055 0.007865 0.073312
v 0.056212 0.00665 0.076475
v 0.056344 0.006907 0.075368
v 0.061553 0.013972 0.071224
v 0.060673 0.012762 0.07112
v 0.060837 0.01314 0.071032
v 0.073628 0.027536 0.082612
v 0.07334 0.027266 0.087792
v 0.073199 0.027186 0.084671
v 0.070592 0.024383 0.077183
v 0.072432 0.026329 0.079633
v 0.07247 0.026382 0.089513
v 0.071066 0.024923 0.090847
v 0.060106 0.014946 0.085432
v 0.059828 0.014795 0.083037
v 0.06187 0.01684 0.083824
v 0.063934 0.018702 0.086025
v 0.065512 0.020307 0.08362
v 0.0676 0.021596 0.090432
v 0.06277 0.017241 0.088167
v 0.060604 0.015062 0.087943
v 0.062724 0.017589 0.080282
v 0.059952 0.014645 0.078024
v 0.06219 0.016696 0.07728
v 0.059898 0.01489 0.081141
v 0.0671 0.021631 0.080969
v 0.062496 0.016576 0.089915
v 0.067833 0.021914 0.077341
v 0.066453 0.020472 0.076339
v 0.064128 0.018148 0.090276
v 0.060748 0.015126 0.076224
v 0.062023 0.016067 0.074999
v 0.063183 0.017151 0.074959
v 0.065607 0.019612 0.090405
v 0.062605 0.015793 0.073826
v 0.06416 0.017156 0.073815
v 0.065707 0.019059 0.074759
v 0.066668 0.020009 0.074895
v 0.059274 0.011121 0.075712
v 0.059427 0.011719 0.076157
v 0.05879 0.010427 0.077635
v 0.060208 0.012279 0.073901
v 0.061382 0.014137 0.073731
v 0.060189 0.012641 0.074669
v 0.059211 0.010779 0.074731
v 0.05987 0.013826 0.076606
v 0.060515 0.014642 0.075817
v 0.059128 0.011471 0.077966
v 0.061487 0.015451 0.074965
v 0.062475 0.015066 0.072931
v 0.059582 0.013897 0.078003
v 0.060857 0.013051 0.073234
v 0.059384 0.013683 0.081807
v 0.05957 0.013717 0.085452
v 0.059162 0.01144 0.084995
v 0.059447 0.011742 0.087676
v 0.059062 0.01131 0.081893
v 0.05878 0.010403 0.083633
v 0.059533 0.014254 0.081411
v 0.059681 0.014364 0.084753
v 0.059041 0.01073 0.087681
v 0.060015 0.014185 0.08745
v 0.059625 0.011485 0.089935
v 0.059871 0.012304 0.089201
v 0.061752 0.014619 0.09094
v 0.063497 0.016436 0.091584
v 0.061681 0.014153 0.091598
v 0.06171 0.015757 0.089676
v 0.060864 0.013713 0.090246
v 0.060546 0.012702 0.09099
v 0.060363 0.014333 0.088478
v 0.060987 0.01498 0.089233
v 0.061954 0.014335 0.092543
v 0.06713 0.020673 0.091376
v 0.065962 0.019135 0.092208
v 0.069418 0.023069 0.091572
v 0.057519 0.008178 0.074204
v 0.059516 0.011126 0.07241
v 0.060136 0.012129 0.071062
v 0.056755 0.007101 0.076603
v 0.057931 0.008752 0.076856
v 0.057392 0.007893 0.076308
v 0.056154 0.006543 0.077361
v 0.056059 0.006479 0.078199
v 0.056952 0.007277 0.081581
v 0.057954 0.008797 0.083556
v 0.056081 0.006471 0.080248
v 0.058152 0.0092 0.091883
v 0.059454 0.011074 0.091814
v 0.058275 0.009188 0.089824
v 0.056215 0.006702 0.085796
v 0.057209 0.00779 0.089318
v 0.056381 0.00695 0.087609
v 0.056825 0.007194 0.08526
v 0.057594 0.008172 0.086503
v 0.056527 0.007165 0.088637
v 0.056094 0.006515 0.083129
v 0.056717 0.007431 0.089634
v 0.056145 0.00658 0.08429
v 0.057816 0.008996 0.092468
v 0.062826 0.015494 0.093188
v 0.064412 0.01738 0.093179
v 0.069421 0.023012 0.09317
v 0.067961 0.021414 0.093167
v 0.066154 0.01939 0.093166
v 0.073619 0.028838 0.078018
v 0.073047 0.028291 0.076987
v 0.074785 0.029329 0.082263
v 0.074808 0.029615 0.085161
v 0.074566 0.030006 0.083219
v 0.074123 0.028957 0.079131
v 0.074265 0.029578 0.080253
v 0.072401 0.027542 0.076168
v 0.055028 0.006753 0.078037
v 0.055196 0.006898 0.076475
v 0.055834 0.007136 0.074932
v 0.055344 0.007453 0.074633
v 0.055903 0.00795 0.073404
v 0.056322 0.008547 0.07254
v 0.056793 0.009167 0.071894
v 0.05751 0.0102 0.07122
v 0.058561 0.011774 0.070659
v 0.059699 0.013128 0.070593
v 0.058816 0.011484 0.09353
v 0.057916 0.011078 0.093655
v 0.057153 0.009782 0.093132
v 0.056675 0.009036 0.092444
v 0.056171 0.008633 0.091742
v 0.056113 0.007833 0.090412
v 0.055617 0.007898 0.090042
v 0.055745 0.007213 0.088207
v 0.055191 0.007221 0.087185
v 0.055426 0.006795 0.085122
v 0.054991 0.006857 0.083358
v 0.055447 0.006601 0.08105
v 0.061663 0.015131 0.093535
v 0.062944 0.01713 0.093641
v 0.071114 0.026264 0.093642
v 0.074345 0.029514 0.089805
v 0.072121 0.027216 0.093382
v 0.072755 0.027941 0.093016
v 0.073957 0.029149 0.091269
v 0.074571 0.029848 0.087769
v 0.073384 0.028653 0.092353
vn 0.8263 -0.5632 -0.0006
vn 0.7634 -0.6393 -0.0922
vn 0.7559 -0.6546 0.0117
vn 0.8303 -0.5573 0.001
vn 0.8317 -0.5552 -0.0007
vn 0.7182 -0.6959 -0.0005
vn 0.715 -0.6992 0.0006
vn 0.718 -0.696 0.0015
vn 0.7844 -0.6202 -0.0055
vn 0.8324 -0.5541 0.0001
vn 0.7148 -0.6993 -0.0003
vn 0.7127 -0.7015 0.0002
vn 0.7123 -0.7018 0.0055
vn 0.7873 -0.6166 0.006
vn 0.7254 -0.6822 -0.091
vn 0.8326 -0.5539 0.0001
vn 0.7938 -0.6081 -0.0037
vn 0.7126 -0.7015 -0
vn 0.7122 -0.702 0.0001
vn 0.7986 -0.6018 0.0041
vn 0.8321 -0.5546 -0.0008
vn 0.7122 -0.7019 0.0002
vn 0.7131 -0.7011 -0.0005
vn 0.8039 -0.5948 -0.0032
vn 0.736 -0.6529 0.179
vn 0.713 -0.7011 -0.0001
vn 0.8098 -0.5867 0.0031
vn 0.827 -0.5622 0
vn 0.8317 -0.5552 -0.0003
vn 0.7152 -0.6989 0.0004
vn 0.7615 -0.64 -0.1026
vn 0.8127 -0.5827 -0.0015
vn 0.7153 -0.6988 -0.0003
vn 0.8187 -0.5743 0.0024
vn 0.8269 -0.5623 0.0004
vn 0.8202 -0.572 -0.0011
vn 0.7187 -0.6953 -0.0003
vn 0.7054 -0.7087 0.0101
vn 0.719 -0.695 0.001
vn 0.7871 -0.6136 0.0631
vn 0.8006 -0.5987 -0.0243
vn 0.8059 -0.592 -0.0013
vn 0.722 -0.691 0.0367
vn 0.8148 -0.5797 0.0021
vn 0.8154 -0.5789 -0.0046
vn 0.8185 -0.5745 0.0012
vn 0.8263 -0.5633 -0.0001
vn 0.2399 0.1725 -0.9553
vn 0.2227 0.1861 -0.957
vn 0.5109 -0.098 -0.854
vn 0.5091 -0.0965 -0.8553
vn 0.3822 0.0382 -0.9233
vn 0.4516 -0.0439 -0.8912
vn 0.5034 -0.1109 -0.8569
vn 0.5075 -0.1145 -0.854
vn 0.5083 -0.109 -0.8543
vn 0.5048 -0.1062 -0.8567
vn 0.5274 -0.1384 -0.8383
vn 0.7506 -0.5333 -0.3902
vn 0.7524 -0.5444 -0.3708
vn 0.7772 -0.5188 -0.356
vn 0.7844 -0.5619 -0.2626
vn 0.7705 -0.5981 -0.2205
vn 0.7839 -0.5501 -0.2879
vn 0.8587 -0.4107 -0.3064
vn 0.8483 -0.431 -0.3074
vn 0.9281 -0.3679 -0.0572
vn 0.787 -0.4614 -0.4096
vn 0.9563 -0.2821 -0.0768
vn 0.9718 -0.1809 -0.1516
vn 0.93 -0.3387 -0.1429
vn 0.961 -0.2731 -0.0441
vn 0.9473 -0.2547 -0.1941
vn 0.9389 -0.2832 -0.1956
vn 0.9501 -0.3121 0.0015
vn 0.8875 -0.4569 0.06
vn 0.9537 -0.2988 0.0339
vn 0.6661 -0.5527 0.5008
vn 0.7471 -0.6287 0.2157
vn 0.6532 -0.5661 0.5029
vn 0.7641 -0.4987 0.4091
vn 0.7933 -0.3759 0.479
vn 0.8393 -0.4272 0.3363
vn 0.8635 -0.3253 0.3855
vn 0.8977 -0.354 0.2624
vn 0.555 -0.4374 0.7075
vn 0.6949 -0.5347 0.4809
vn 0.7842 -0.6098 -0.1149
vn 0.7766 -0.595 0.2069
vn 0 0 1
vn -0.0209 -0.0586 0.9981
vn 0.5018 -0.4227 0.7547
vn 0.1924 -0.8891 0.4154
vn 0.5078 -0.517 0.6891
vn 0.7744 -0.6257 0.094
vn 0.3723 -0.4614 -0.8053
vn 0.3837 -0.559 -0.7351
vn 0.3734 -0.5605 -0.7392
vn 0.7738 -0.4979 -0.3915
vn 0.5405 -0.7354 -0.4088
vn 0.5503 -0.8053 -0.2204
vn 0.517 -0.8454 -0.1343
vn 0.7191 -0.4308 -0.5453
vn 0.724 -0.4845 -0.491
vn 0.665 -0.4314 -0.6096
vn 0.9064 -0.4223 -0.0144
vn 0.6776 -0.7354 -0.0002
vn 0.7865 -0.5941 -0.169
vn 0.7591 -0.6507 -0.0162
vn 0.8149 -0.5693 -0.109
vn 0.7974 -0.5982 -0.0797
vn 0.7327 -0.6805 -0.0071
vn 0.6102 -0.7922 -0.0074
vn 0.7001 -0.7131 0.0372
vn 0.7 -0.713 0.0405
vn 0.6883 -0.725 -0.0242
vn 0.7039 -0.7079 -0.0582
vn 0.6747 -0.7377 0.0259
vn 0.6782 -0.7344 0.0255
vn 0.7015 -0.7116 -0.0402
vn 0.7146 -0.6984 -0.0389
vn 0.6837 -0.7259 -0.0746
vn 0.6882 -0.7248 -0.0325
vn 0.6951 -0.7102 -0.1118
vn 0.7108 -0.6949 -0.109
vn 0.7046 -0.703 -0.0961
vn 0.6891 -0.7189 0.0913
vn 0.69 -0.7236 0.0189
vn 0.6656 -0.7455 0.035
vn 0.6999 -0.711 0.0679
vn 0.709 -0.6887 -0.1515
vn 0.6751 -0.7312 0.0975
vn 0.6731 -0.7294 0.1221
vn 0.7038 -0.7077 -0.0616
vn 0.669 -0.7432 0.0132
vn 0.675 -0.737 0.0364
vn 0.6647 -0.7467 0.0254
vn 0.6699 -0.7383 0.0778
vn 0.7031 -0.6941 -0.1545
vn 0.6762 -0.7214 0.1495
vn 0.6781 -0.7197 0.1489
vn 0.6917 -0.7129 0.1156
vn 0.7017 -0.6958 -0.1529
vn 0.7094 -0.7047 -0.0091
vn 0.6773 -0.7343 -0.0461
vn 0.6765 -0.7356 -0.0357
vn 0.6739 -0.7242 0.1462
vn 0.6992 -0.7001 -0.1451
vn 0.6932 -0.7125 -0.1087
vn 0.6677 -0.7444 -0.0112
vn 0.6922 -0.7216 0.0095
vn 0.6698 -0.7384 0.0777
vn 0.5769 -0.6538 0.4896
vn 0.6671 -0.7399 0.0866
vn 0.5554 -0.6853 0.4711
vn 0.5777 -0.7248 0.3755
vn 0.631 -0.6895 0.3557
vn 0.6144 -0.72 0.3226
vn 0.6647 -0.7339 0.1402
vn 0.7141 -0.6929 0.1
vn 0.6429 -0.6963 0.3193
vn 0.9377 -0.3268 0.1181
vn 0.8277 -0.4995 0.2557
vn 0.8562 -0.5024 0.1202
vn 0.6162 -0.6423 0.4558
vn 0.8945 -0.3955 0.2083
vn 0.895 -0.3896 0.2173
vn 0.9153 -0.2586 0.3089
vn 0.8696 -0.3443 0.3538
vn 0.9353 -0.3367 0.1084
vn 0.6556 -0.5954 0.4644
vn 0.5885 -0.6673 0.4565
vn 0.722 -0.642 0.2581
vn 0.9472 -0.2439 0.2082
vn 0.9735 -0.1842 0.1356
vn 0.8542 -0.4796 0.201
vn 0.8711 -0.4379 0.2225
vn 0.7424 -0.5688 0.354
vn 0.7453 -0.5395 0.3918
vn 0.7475 -0.6006 0.2837
vn 0.8175 -0.3808 0.432
vn 0.8329 -0.5056 0.225
vn 0.6792 -0.5308 0.5069
vn 0.8021 -0.5608 0.2051
vn 0.7694 -0.4691 0.4335
vn 0.9848 -0.1666 -0.0487
vn 0.9835 -0.1588 -0.0867
vn 0.9512 -0.3086 0.0033
vn 0.9552 -0.296 0.0004
vn 0.9453 -0.3258 -0.0168
vn 0.9905 -0.1352 -0.0262
vn 0.982 -0.1843 0.0407
vn 0.9909 -0.1339 0.0111
vn 0.973 -0.2276 0.0378
vn 0.8937 -0.4446 0.0594
vn 0.8752 -0.4808 0.0529
vn 0.9611 -0.2741 -0.0337
vn 0.9266 -0.3717 -0.0567
vn 0.9087 -0.4165 -0.0266
vn 0.9745 -0.2192 -0.0477
vn 0.9585 -0.2374 -0.1579
vn 0.9409 -0.3098 -0.137
vn 0.8562 -0.4976 -0.139
vn 0.8741 -0.4612 -0.1522
vn 0.8396 -0.5395 -0.0634
vn 0.8682 -0.4962 0.0072
vn 0.9526 -0.3018 -0.0371
vn 0.9219 -0.37 -0.1147
vn 0.9181 -0.3793 -0.1155
vn 0.7359 -0.5875 -0.3364
vn 0.7352 -0.6443 -0.2108
vn 0.9548 -0.2383 -0.1777
vn 0.8675 -0.4414 -0.2292
vn 0.9118 -0.3149 -0.2635
vn 0.8625 -0.4524 -0.2269
vn 0.806 -0.4937 -0.3265
vn 0.7857 -0.5417 -0.2986
vn 0.8328 -0.4793 -0.277
vn 0.8667 -0.3402 -0.3649
vn 0.7761 -0.5717 -0.266
vn 0.8464 -0.38 -0.3732
vn 0.7021 -0.5382 -0.4661
vn 0.7106 -0.511 -0.4837
vn 0.8605 -0.4581 -0.2228
vn 0.7779 -0.6195 -0.105
vn 0.8058 -0.5797 -0.1207
vn 0.7859 -0.4306 -0.4438
vn 0.7678 -0.4632 -0.4426
vn 0.7471 -0.6477 -0.1494
vn 0.675 -0.652 -0.3452
vn 0.665 -0.5923 -0.4549
vn 0.6692 -0.5907 -0.4508
vn 0.7048 -0.65 -0.2841
vn 0.6708 -0.6692 -0.3197
vn 0.7463 -0.6368 -0.1937
vn 0.7303 -0.6789 -0.076
vn 0.6905 -0.6938 -0.2047
vn 0.7137 -0.6633 -0.2251
vn 0.7209 -0.6904 0.0604
vn 0.7385 -0.6717 0.0591
vn 0.7681 -0.6386 0.0465
vn 0.737 -0.6696 0.0927
vn 0.8025 -0.5915 -0.0787
vn 0.7993 -0.6009 0.0042
vn 0.7651 -0.6425 0.0431
vn 0.6901 -0.5416 -0.48
vn 0.6987 -0.7058 -0.1166
vn 0.7079 -0.7007 -0.0892
vn 0.879 -0.4742 0.0501
vn 0.7141 -0.6877 -0.131
vn 0.843 -0.5378 0.0134
vn 0.8856 -0.4533 0.1012
vn 0.6957 -0.7179 0.0237
vn 0.8622 -0.5051 0.0377
vn 0.8399 -0.5419 0.0292
vn 0.7947 -0.6046 -0.0539
vn 0.7991 -0.5946 0.0889
vn 0.7578 -0.6392 -0.1308
vn 0.7211 -0.6628 -0.2019
vn 0.7836 -0.6162 -0.0787
vn 0.6437 -0.6762 -0.3583
vn 0.782 -0.6064 0.1442
vn 0.6445 -0.763 -0.0501
vn 0.7396 -0.6157 -0.2719
vn 0.7779 -0.6084 -0.1572
vn 0.7717 -0.6347 -0.0392
vn 0.6477 -0.7573 -0.084
vn 0.8197 -0.5722 -0.0279
vn 0.8343 -0.5513 0.0008
vn 0.8446 -0.5353 0.0079
vn 0.6533 -0.757 -0.01
vn 0.8892 -0.4575 0
vn 0.8898 -0.4563 -0.0004
vn 0.6801 -0.7331 -0.0009
vn 0.7779 -0.6283 -0.0085
vn 0.7701 -0.6164 0.1643
vn 0.8624 -0.5052 -0.0322
vn 0.8213 -0.5696 0.0306
vn 0.8172 -0.574 -0.0514
vn 0.6691 -0.7421 0.0405
vn 0.6529 -0.7559 0.0493
vn 0.7739 -0.633 0.0198
vn 0.6348 -0.7695 0.0705
vn 0.6727 -0.7399 0.0081
vn 0.6235 -0.7768 0.0886
vn 0.671 -0.7415 0.0063
vn 0.7904 -0.6121 0.0249
vn 0.6335 -0.7646 0.1182
vn 0.845 -0.5346 -0.01
vn 0.7786 -0.6275 0.0126
vn 0.8894 -0.4568 -0.0171
vn 0.682 -0.7208 0.1238
vn 0.8844 -0.4663 -0.0194
vn 0.7882 -0.5996 0.1389
vn 0.7207 -0.6842 0.1111
vn 0.6443 -0.7641 0.0319
vn 0.7851 -0.6173 0.0506
vn 0.6593 -0.7518 0.0136
vn 0.7106 -0.6828 0.1698
vn 0.8416 -0.54 -0.0115
vn 0.7319 -0.6537 0.1923
vn 0.8621 -0.5039 -0.0544
vn 0.821 -0.5686 0.0525
vn 0.8391 -0.5425 0.0399
vn 0.7881 -0.6114 -0.0714
vn 0.7812 -0.6214 0.0604
vn 0.7943 -0.6024 0.0784
vn 0.7861 -0.6155 0.0566
vn 0.7897 -0.6051 0.1011
vn 0.7641 -0.6424 0.059
vn 0.7671 -0.6335 0.1013
vn 0.6781 -0.6311 0.3767
vn 0.7377 -0.666 -0.1107
vn 0.6341 -0.58 0.5114
vn 0.7243 -0.681 0.108
vn 0.7457 -0.6658 0.0274
vn 0.7554 -0.6549 0.0226
vn 0.678 -0.7351 -0.0007
vn 0.661 -0.7502 -0.0178
vn 0.8555 -0.5176 0.0153
vn 0.7472 -0.6645 0.012
vn 0.762 -0.6474 0.0141
vn 0.821 -0.5658 0.0759
vn 0.7321 -0.6803 0.0367
vn 0.8055 0.2049 -0.556
vn 0.8558 0.1918 -0.4805
vn 0.858 0.1968 -0.4744
vn 0.9456 0.3223 -0.0453
vn 0.9315 0.3612 -0.043
vn 0.9406 0.337 -0.0407
vn 0.8637 0.277 -0.421
vn 0.7413 0.5433 -0.394
vn 0.9081 0.2606 -0.3277
vn 0.9018 0.3198 -0.2906
vn 0.5877 0.027 -0.8086
vn 0.9215 0.3104 -0.2336
vn 0.6571 0.0119 -0.7537
vn 0.9186 0.3438 -0.195
vn 0.6947 0.0529 -0.7173
vn 0.8521 0.4988 -0.1586
vn 0.9655 0.2246 -0.1314
vn 0.7103 0.1413 -0.6895
vn 0.7912 0.156 -0.5913
vn 0.4924 -0.1486 -0.8576
vn -0.2409 -0.9653 -0.1007
vn -0.2495 -0.9614 -0.1161
vn -0.2353 -0.9629 -0.1321
vn -0.3863 -0.8742 -0.2942
vn -0.2155 -0.9453 -0.2447
vn -0.2304 -0.943 -0.2403
vn -0.1024 -0.9248 -0.3663
vn -0.1132 -0.9082 -0.4028
vn -0.265 -0.846 -0.4626
vn -0.2009 -0.8608 -0.4676
vn -0.1051 -0.8174 -0.5664
vn -0.1059 -0.7933 -0.5996
vn -0.0304 -0.7636 -0.645
vn -0.0087 -0.7179 -0.6961
vn -0.0905 -0.7416 -0.6648
vn 0.0527 -0.6484 -0.7595
vn 0.0636 -0.5757 -0.8152
vn 0.0547 -0.5543 -0.8305
vn 0.1015 -0.3933 -0.9138
vn 0.1353 -0.5085 -0.8504
vn 0.2728 -0.3644 -0.8904
vn 0.2992 -0.3003 -0.9057
vn 0.2986 -0.2955 -0.9075
vn 0.3869 -0.2478 -0.8882
vn 0.3397 -0.3513 -0.8725
vn 0.3577 -0.1242 -0.9255
vn 0.3851 -0.1284 -0.9139
vn 0.4005 -0.1353 -0.9062
vn -0.5083 -0.5731 -0.6428
vn -0.5739 -0.5656 -0.5922
vn -0.564 -0.644 -0.5169
vn 0.0863 0.1046 -0.9908
vn 0.1157 0.0492 -0.9921
vn -0.7059 -0.6352 -0.3134
vn -0.6408 -0.7193 -0.2681
vn 0.0054 -0.0534 -0.9986
vn -0.0786 -0.0447 -0.9959
vn -0.6308 -0.7634 -0.1389
vn -0.1513 -0.2407 -0.9587
vn -0.2274 -0.2424 -0.9431
vn -0.2784 -0.3816 -0.8814
vn -0.416 -0.4067 -0.8134
vn -0.4152 -0.4857 -0.7692
vn -0.1234 -0.4935 0.861
vn 0.2963 -0.2823 0.9124
vn -0.2569 -0.9664 -0.0011
vn 0.2541 -0.2788 0.9261
vn 0.0858 -0.4156 0.9055
vn 0.0908 -0.4139 0.9058
vn 0.0803 -0.6031 0.7936
vn -0.039 -0.6641 0.7467
vn -0.0402 -0.7542 0.6554
vn -0.019 -0.7432 0.6688
vn -0.2102 -0.7752 0.5957
vn -0.4533 -0.7548 0.4741
vn -0.2421 -0.8266 0.5081
vn -0.161 -0.8746 0.4573
vn -0.1302 -0.9187 0.3729
vn -0.5092 -0.8174 0.2695
vn -0.3459 -0.8867 0.3068
vn -0.2384 -0.926 0.2928
vn -0.2214 -0.9286 0.2978
vn -0.1834 -0.9568 0.2254
vn -0.3076 -0.9381 0.1592
vn -0.2452 -0.957 0.1553
vn -0.2502 -0.9559 0.1541
vn -0.5547 -0.8251 0.1077
vn -0.1902 -0.9778 0.088
vn -0.3117 -0.9492 0.0434
vn -0.2709 -0.9616 0.0442
vn -0.1824 -0.9831 0.0158
vn -0.2235 -0.9745 -0.0181
vn -0.4313 -0.9021 0.0145
vn -0.2168 -0.9741 0.0641
vn -0.727 -0.6865 -0.0072
vn -0.6778 -0.7351 0.0096
vn 0.3576 -0.2965 0.8856
vn 0.3301 -0.2594 0.9076
vn 0.3598 -0.3083 0.8806
vn 0.2715 -0.2233 0.9362
vn 0.2072 -0.1631 0.9646
vn 0.3087 -0.2918 0.9053
vn 0.3264 -0.2997 0.8965
vn 0.3405 -0.2544 0.9052
vn 0.3751 -0.2941 0.8791
vn 0.3516 -0.3143 0.8818
vn 0.3521 -0.3149 0.8814
vn 0.3316 -0.2821 0.9003
vn -0.1953 -0.2657 0.9441
vn -0.2094 -0.2139 0.9542
vn -0.6953 -0.7096 0.1139
vn -0.6733 -0.7319 0.1051
vn -0.6752 -0.6915 0.257
vn -0.6603 -0.7028 0.2648
vn -0.6238 -0.6087 0.4903
vn -0.6043 -0.6404 0.4739
vn -0.4837 -0.5629 0.6702
vn -0.4639 -0.4634 0.755
vn -0.4093 -0.4633 0.786
vn 0.9322 0.2825 0.2262
vn 0.5169 -0.117 0.848
vn 0.5322 -0.0383 0.8457
vn 0.9042 0.2714 0.3297
vn 0.9019 0.2972 0.3135
vn 0.8037 0.5946 0.0199
vn 0.4222 -0.1886 0.8866
vn 0.8661 0.2206 0.4486
vn 0.9674 0.2529 0.0114
vn 0.4059 -0.1861 0.8947
vn 0.9477 0.3137 0.0581
vn 0.9294 0.3688 0.0174
vn 0.3119 -0.2912 0.9044
vn 0.8028 0.2531 0.5399
vn 0.9473 0.3007 0.1102
vn 0.9468 0.301 0.1141
vn 0.7541 0.1195 0.6458
vn 0.9254 0.3442 0.1588
vn 0.6621 0.106 0.7419
vn 0.6369 0.0233 0.7706
vn 0.3521 0.3104 -0.883
vn 0.3167 0.3164 -0.8942
vn 0.654 0.7465 -0.1228
vn 0.7379 0.6534 -0.1692
vn 0.7022 0.5902 -0.3983
vn 0.6238 0.6415 -0.4465
vn 0.6014 0.5176 -0.6086
vn 0.4941 0.5167 -0.6992
vn 0.4997 0.4055 -0.7654
vn 0.0092 -0.0127 0.9999
vn 0.0336 -0.0255 0.9991
vn 0.0345 -0.0306 0.9989
vn 0.033 -0.0296 0.999
vn 0.7609 0.6216 0.1861
vn 0.6724 0.7364 0.075
vn 0.7682 0.6399 0.0215
vn 0.1253 0.1215 0.9846
vn 0.1408 0.1188 0.9829
vn 0.3094 0.199 0.9299
vn 0.3805 0.4081 0.8299
vn 0.406 0.4045 0.8195
vn 0.6365 0.5167 0.5726
vn 0.6001 0.6876 0.4089
vn 0.6963 0.6309 0.3421
vn -0.0042 -0.0117 0.9999
vn 0.0441 -0.2355 0.9709
f 1//1 2//1 3//1
f 4//2 5//2 6//2
f 7//3 5//3 4//3
f 8//4 1//4 3//4
f 8//5 9//5 1//5
f 10//6 11//6 12//6
f 11//7 13//7 12//7
f 10//8 12//8 14//8
f 7//9 4//9 15//9
f 16//10 9//10 8//10
f 17//11 13//11 11//11
f 17//12 18//12 13//12
f 19//13 10//13 14//13
f 20//14 7//14 15//14
f 21//15 19//15 14//15
f 16//16 22//16 9//16
f 20//17 15//17 23//17
f 24//18 18//18 17//18
f 25//19 18//19 24//19
f 26//20 20//20 23//20
f 27//21 22//21 16//21
f 28//22 25//22 24//22
f 28//23 29//23 25//23
f 26//24 23//24 30//24
f 31//25 19//25 21//25
f 32//26 29//26 28//26
f 33//27 26//27 30//27
f 34//28 35//28 22//28
f 34//29 22//29 27//29
f 36//30 32//30 28//30
f 37//31 31//31 21//31
f 33//32 30//32 38//32
f 39//33 32//33 36//33
f 40//34 33//34 38//34
f 40//35 35//35 34//35
f 40//36 38//36 35//36
f 41//37 39//37 36//37
f 42//38 41//38 6//38
f 42//39 39//39 41//39
f 43//40 31//40 37//40
f 44//41 43//41 37//41
f 45//42 43//42 44//42
f 5//43 42//43 6//43
f 45//44 44//44 46//44
f 47//45 45//45 46//45
f 2//46 47//46 46//46
f 3//47 2//47 46//47
f 48//48 6//48 49//48
f 4//49 6//49 48//49
f 50//50 51//50 52//50
f 50//51 53//51 51//51
f 52//52 48//52 50//52
f 50//53 48//53 54//53
f 49//54 55//54 54//54
f 49//55 56//55 55//55
f 54//56 55//56 53//56
f 54//57 53//57 50//57
f 54//58 48//58 49//58
f 57//59 55//59 56//59
f 58//60 55//60 57//60
f 53//61 59//61 51//61
f 60//62 59//62 58//62
f 53//63 55//63 58//63
f 59//64 53//64 58//64
f 61//65 62//65 63//65
f 64//66 61//66 63//66
f 65//67 66//67 67//67
f 64//68 57//68 56//68
f 68//69 66//69 65//69
f 67//70 66//70 69//70
f 70//71 69//71 66//71
f 71//72 68//72 65//72
f 69//73 70//73 72//73
f 70//74 73//74 72//74
f 74//75 75//75 71//75
f 76//76 77//76 78//76
f 74//77 79//77 76//77
f 80//78 81//78 82//78
f 83//79 81//79 80//79
f 80//80 82//80 84//80
f 83//81 85//81 81//81
f 83//82 86//82 85//82
f 87//83 86//83 83//83
f 87//84 88//84 86//84
f 89//85 88//85 87//85
f 90//86 91//86 92//86
f 93//87 94//87 90//87
f 90//88 94//88 91//88
f 95//89 94//89 93//89
f 96//90 96//90 96//90
f 96//90 92//90 96//90
f 97//91 92//91 96//91
f 97//92 90//92 92//92
f 98//93 99//93 100//93
f 101//94 90//94 97//94
f 93//95 90//95 102//95
f 103//96 104//96 105//96
f 104//97 106//97 105//97
f 105//98 106//98 107//98
f 108//99 51//99 59//99
f 109//100 110//100 111//100
f 112//101 113//101 114//101
f 115//102 116//102 112//102
f 51//103 108//103 117//103
f 118//104 117//104 108//104
f 119//105 117//105 118//105
f 75//106 68//106 71//106
f 75//107 120//107 68//107
f 63//108 57//108 64//108
f 70//109 66//109 68//109
f 63//110 62//110 73//110
f 63//111 73//111 70//111
f 68//112 63//112 70//112
f 121//113 122//113 120//113
f 123//114 57//114 63//114
f 124//115 123//115 63//115
f 125//116 121//116 87//116
f 126//117 87//117 80//117
f 120//118 63//118 68//118
f 120//119 124//119 63//119
f 126//120 125//120 87//120
f 127//121 128//121 129//121
f 126//122 130//122 125//122
f 130//123 129//123 131//123
f 126//124 132//124 130//124
f 133//125 134//125 127//125
f 133//126 127//126 130//126
f 135//127 136//127 137//127
f 129//128 138//128 131//128
f 120//129 139//129 124//129
f 138//130 136//130 135//130
f 140//131 134//131 133//131
f 135//132 137//132 141//132
f 141//133 137//133 142//133
f 130//134 127//134 129//134
f 122//135 139//135 120//135
f 131//136 135//136 139//136
f 131//137 139//137 122//137
f 139//138 141//138 124//138
f 143//139 140//139 133//139
f 137//140 144//140 145//140
f 137//141 145//141 146//141
f 137//142 136//142 144//142
f 133//143 147//143 143//143
f 129//144 128//144 138//144
f 121//145 130//145 131//145
f 125//146 130//146 121//146
f 142//147 137//147 146//147
f 132//148 147//148 133//148
f 132//149 133//149 130//149
f 121//150 131//150 122//150
f 131//151 138//151 135//151
f 139//152 135//152 141//152
f 146//153 148//153 149//153
f 123//154 124//154 141//154
f 146//155 149//155 150//155
f 142//156 146//156 150//156
f 150//157 149//157 151//157
f 151//158 123//158 142//158
f 141//159 142//159 123//159
f 123//160 151//160 57//160
f 150//161 151//161 142//161
f 152//162 153//162 154//162
f 155//163 156//163 157//163
f 158//164 155//164 152//164
f 146//165 145//165 148//165
f 155//166 157//166 152//166
f 152//167 157//167 153//167
f 159//168 153//168 157//168
f 157//169 160//169 159//169
f 153//170 161//170 154//170
f 148//171 145//171 162//171
f 149//172 148//172 163//172
f 144//173 162//173 145//173
f 164//174 153//174 159//174
f 161//175 153//175 164//175
f 160//176 164//176 159//176
f 136//177 164//177 160//177
f 148//178 156//178 163//178
f 163//179 156//179 165//179
f 144//180 160//180 162//180
f 157//181 156//181 160//181
f 165//182 156//182 155//182
f 148//183 162//183 156//183
f 144//184 136//184 160//184
f 162//185 160//185 156//185
f 166//186 167//186 168//186
f 168//187 167//187 169//187
f 161//188 170//188 154//188
f 154//189 170//189 171//189
f 168//190 171//190 170//190
f 168//191 170//191 166//191
f 164//192 166//192 161//192
f 161//193 166//193 170//193
f 164//194 172//194 166//194
f 136//195 172//195 164//195
f 136//196 138//196 172//196
f 172//197 173//197 166//197
f 174//198 168//198 169//198
f 172//199 128//199 173//199
f 166//200 173//200 167//200
f 169//201 167//201 175//201
f 167//202 173//202 175//202
f 175//203 173//203 134//203
f 173//204 127//204 134//204
f 173//205 128//205 127//205
f 172//206 138//206 128//206
f 174//207 171//207 168//207
f 169//208 176//208 174//208
f 177//209 176//209 169//209
f 178//210 179//210 180//210
f 140//211 181//211 134//211
f 169//212 175//212 177//212
f 182//213 183//213 177//213
f 175//214 184//214 177//214
f 134//215 184//215 175//215
f 182//216 180//216 183//216
f 178//217 180//217 182//217
f 134//218 185//218 184//218
f 177//219 184//219 182//219
f 134//220 181//220 185//220
f 184//221 185//221 182//221
f 140//222 179//222 181//222
f 181//223 179//223 178//223
f 183//224 176//224 177//224
f 180//225 179//225 186//225
f 183//226 180//226 186//226
f 182//227 185//227 178//227
f 185//228 181//228 178//228
f 179//229 187//229 188//229
f 143//230 147//230 187//230
f 143//231 187//231 179//231
f 140//232 143//232 179//232
f 187//233 132//233 189//233
f 147//234 132//234 187//234
f 179//235 188//235 186//235
f 189//236 126//236 80//236
f 132//237 126//237 189//237
f 188//238 187//238 189//238
f 151//239 58//239 57//239
f 149//240 58//240 151//240
f 163//241 60//241 149//241
f 149//242 60//242 58//242
f 190//243 106//243 191//243
f 108//244 163//244 191//244
f 108//245 60//245 163//245
f 118//246 103//246 192//246
f 190//247 112//247 114//247
f 190//248 193//248 112//248
f 194//249 152//249 154//249
f 110//250 190//250 114//250
f 191//251 194//251 195//251
f 194//252 158//252 152//252
f 196//253 193//253 197//253
f 158//254 194//254 191//254
f 191//255 155//255 158//255
f 191//256 106//256 118//256
f 191//257 165//257 155//257
f 190//258 110//258 106//258
f 106//259 110//259 109//259
f 108//260 191//260 118//260
f 106//261 109//261 107//261
f 191//262 163//262 165//262
f 193//263 196//263 115//263
f 103//264 106//264 104//264
f 118//265 106//265 103//265
f 190//266 195//266 193//266
f 193//267 115//267 112//267
f 190//268 191//268 195//268
f 198//269 194//269 199//269
f 195//270 194//270 198//270
f 193//271 200//271 197//271
f 199//272 194//272 171//272
f 154//273 171//273 194//273
f 193//274 198//274 200//274
f 195//275 198//275 193//275
f 101//276 201//276 90//276
f 176//277 202//277 203//277
f 202//278 102//278 201//278
f 176//279 183//279 202//279
f 204//280 205//280 206//280
f 207//281 205//281 204//281
f 207//282 208//282 205//282
f 206//283 205//283 209//283
f 198//284 210//284 200//284
f 209//285 205//285 211//285
f 198//286 207//286 210//286
f 203//287 205//287 208//287
f 211//288 205//288 99//288
f 199//289 203//289 208//289
f 198//290 208//290 207//290
f 199//291 171//291 203//291
f 99//292 205//292 100//292
f 174//293 203//293 171//293
f 90//294 201//294 102//294
f 205//295 201//295 100//295
f 212//296 207//296 204//296
f 203//297 201//297 205//297
f 210//298 207//298 212//298
f 100//299 201//299 213//299
f 198//300 199//300 208//300
f 213//301 201//301 101//301
f 176//302 203//302 174//302
f 201//303 203//303 202//303
f 183//304 102//304 202//304
f 186//305 102//305 183//305
f 214//306 91//306 186//306
f 95//307 102//307 94//307
f 94//308 186//308 91//308
f 102//309 186//309 94//309
f 188//310 215//310 214//310
f 188//311 214//311 186//311
f 80//312 84//312 216//312
f 80//313 188//313 189//313
f 80//314 216//314 217//314
f 188//315 80//315 217//315
f 188//316 217//316 218//316
f 188//317 218//317 215//317
f 75//318 121//318 120//318
f 87//319 121//319 75//319
f 75//320 74//320 76//320
f 75//321 76//321 78//321
f 87//322 75//322 78//322
f 87//323 78//323 89//323
f 80//324 87//324 83//324
f 219//325 62//325 220//325
f 219//326 73//326 62//326
f 219//327 72//327 73//327
f 71//328 65//328 221//328
f 222//329 221//329 223//329
f 222//330 71//330 221//330
f 224//331 72//331 219//331
f 224//332 219//332 225//332
f 224//333 69//333 72//333
f 225//334 69//334 224//334
f 56//335 49//335 226//335
f 225//336 67//336 69//336
f 226//337 64//337 56//337
f 221//338 67//338 225//338
f 226//339 61//339 64//339
f 221//340 225//340 223//340
f 221//341 65//341 67//341
f 220//342 61//342 226//342
f 220//343 62//343 61//343
f 51//344 117//344 52//344
f 227//345 196//345 197//345
f 228//346 196//346 227//346
f 228//347 115//347 196//347
f 229//348 228//348 230//348
f 229//349 116//349 115//349
f 229//350 115//350 228//350
f 229//351 112//351 116//351
f 229//352 113//352 112//352
f 231//353 229//353 230//353
f 231//354 113//354 229//354
f 231//355 114//355 113//355
f 232//356 114//356 231//356
f 232//357 110//357 114//357
f 233//358 110//358 232//358
f 233//359 111//359 110//359
f 233//360 109//360 111//360
f 107//361 233//361 234//361
f 107//362 109//362 233//362
f 105//363 234//363 235//363
f 105//364 107//364 234//364
f 103//365 105//365 235//365
f 192//366 103//366 235//366
f 192//367 235//367 236//367
f 118//368 192//368 236//368
f 119//369 118//369 236//369
f 119//370 236//370 48//370
f 52//371 119//371 48//371
f 117//372 119//372 52//372
f 231//373 38//373 232//373
f 231//374 35//374 38//374
f 230//375 35//375 231//375
f 48//376 15//376 4//376
f 236//377 15//377 48//377
f 230//378 22//378 35//378
f 228//379 22//379 230//379
f 235//380 15//380 236//380
f 235//381 23//381 15//381
f 227//382 22//382 228//382
f 234//383 23//383 235//383
f 234//384 30//384 23//384
f 233//385 30//385 234//385
f 233//386 38//386 30//386
f 232//387 38//387 233//387
f 92//388 237//388 96//388
f 97//389 96//389 237//389
f 197//390 200//390 227//390
f 97//391 237//391 238//391
f 101//392 238//392 239//392
f 101//393 97//393 238//393
f 239//394 213//394 101//394
f 240//395 213//395 239//395
f 240//396 100//396 213//396
f 240//397 98//397 100//397
f 98//398 240//398 241//398
f 242//399 241//399 243//399
f 242//400 98//400 241//400
f 242//401 99//401 98//401
f 242//402 211//402 99//402
f 244//403 243//403 245//403
f 244//404 242//404 243//404
f 209//405 211//405 242//405
f 209//406 242//406 244//406
f 206//407 209//407 244//407
f 246//408 244//408 245//408
f 204//409 244//409 246//409
f 204//410 206//410 244//410
f 246//411 245//411 247//411
f 204//412 246//412 212//412
f 248//413 246//413 247//413
f 248//414 210//414 246//414
f 210//415 248//415 200//415
f 248//416 227//416 200//416
f 248//417 247//417 227//417
f 246//418 210//418 212//418
f 9//419 22//419 227//419
f 247//420 9//420 227//420
f 249//421 214//421 215//421
f 249//422 215//422 250//422
f 249//423 91//423 214//423
f 249//424 250//424 238//424
f 249//425 238//425 237//425
f 251//426 216//426 84//426
f 251//427 217//427 216//427
f 237//428 92//428 91//428
f 237//429 91//429 249//429
f 250//430 218//430 217//430
f 250//431 217//431 251//431
f 215//432 218//432 250//432
f 238//433 45//433 239//433
f 238//434 43//434 45//434
f 245//435 1//435 9//435
f 245//436 9//436 247//436
f 245//437 2//437 1//437
f 243//438 2//438 245//438
f 241//439 47//439 2//439
f 241//440 2//440 243//440
f 240//441 47//441 241//441
f 240//442 45//442 47//442
f 239//443 45//443 240//443
f 252//444 78//444 77//444
f 253//445 81//445 85//445
f 253//446 85//446 254//446
f 255//447 89//447 78//447
f 255//448 78//448 252//448
f 222//449 223//449 256//449
f 253//450 82//450 81//450
f 255//451 88//451 89//451
f 222//452 74//452 71//452
f 251//453 82//453 253//453
f 256//454 74//454 222//454
f 79//455 74//455 256//455
f 251//456 84//456 82//456
f 257//457 88//457 255//457
f 256//458 76//458 79//458
f 256//459 77//459 76//459
f 257//460 86//460 88//460
f 252//461 77//461 256//461
f 254//462 86//462 257//462
f 254//463 85//463 86//463
f 49//464 41//464 226//464
f 49//465 6//465 41//465
f 223//466 28//466 24//466
f 225//467 28//467 223//467
f 219//468 28//468 225//468
f 219//469 36//469 28//469
f 220//470 36//470 219//470
f 220//471 41//471 36//471
f 226//472 41//472 220//472
f 238//473 31//473 43//473
f 250//474 31//474 238//474
f 19//475 31//475 250//475
f 251//476 19//476 250//476
f 256//477 17//477 252//477
f 256//478 24//478 17//478
f 223//479 24//479 256//479
f 251//480 10//480 19//480
f 253//481 10//481 251//481
f 254//482 10//482 253//482
f 254//483 11//483 10//483
f 257//484 11//484 254//484
f 255//485 11//485 257//485
f 255//486 17//486 11//486
f 252//487 17//487 255//487
f 96//488 96//90 96//90
f 96//488 96//90 96//90
f 96//488 96//489 96//90