o obj1
v 0.08744 0.078019 0.012085
v 0.087141 0.07758 0.010614
v 0.087205 0.077754 0.012031
v 0.087765 0.078192 0.011885
v 0.087405 0.077715 0.009242
v 0.088206 0.078223 0.011864
v 0.087731 0.077876 0.009316
v 0.088024 0.0779 0.009218
v 0.087138 0.077422 0.009363
v 0.087709 0.077639 0.008819
v 0.088142 0.077692 0.008818
v 0.089095 0.077069 0.009254
v 0.088684 0.077477 0.008856
v 0.088909 0.077519 0.009258
v 0.088185 0.077148 0.008472
v 0.088534 0.077089 0.008583
v 0.088373 0.07785 0.009218
v 0.088876 0.077058 0.008867
v 0.08734 0.077325 0.008854
v 0.087806 0.07721 0.008539
v 0.088657 0.078091 0.011941
v 0.08916 0.077378 0.011862
v 0.089066 0.077673 0.011933
v 0.088882 0.07793 0.011901
v 0.087435 0.077768 0.012443
v 0.087848 0.078093 0.012395
v 0.088201 0.07786 0.012696
v 0.088273 0.078162 0.01228
v 0.088772 0.077562 0.01262
v 0.088733 0.077845 0.012476
v 0.088351 0.077661 0.012801
v 0.087791 0.077748 0.012725
v 0.08903 0.077468 0.01231
vn -0.7423 0.6683 -0.0489
vn -0.5087 0.8567 -0.0854
vn -0.7074 0.7036 -0.0665
vn -0.0739 0.9899 -0.121
vn -0.4198 0.9015 -0.1055
vn -0.1192 0.9865 -0.1121
vn -0.7535 0.6526 -0.0804
vn -0.1079 0.8686 -0.4837
vn -0.3324 0.8569 -0.3941
vn -0.2113 0.8858 -0.4132
vn 0.806 0.3364 -0.4871
vn 0.3379 0.4508 -0.8262
vn 0.5078 0.7795 -0.3667
vn 0.8083 0.3574 -0.468
vn 0.6298 0.2693 -0.7286
vn 0.1287 0.8948 -0.4274
vn 0.2672 0.5318 -0.8036
vn -0.0671 0.5316 -0.8443
vn -0.4348 0.4221 -0.7955
vn -0.0599 0.5367 -0.8416
vn 0.3479 0.786 -0.5111
vn -0.7541 0.5214 -0.3994
vn -0.5786 0.6208 -0.5289
vn 0.2989 0.9446 -0.1356
vn 0.9223 0.3805 -0.068
vn 0.9449 0.3189 -0.0735
vn 0.8152 0.5736 -0.0806
vn 0.5271 0.8399 -0.1294
vn 0.5645 0.8166 -0.1209
vn 0.1418 0.9846 -0.1019
vn -0.7276 0.5661 0.3875
vn 0.0303 0.8062 0.5908
vn -0.3416 0.9107 0.2322
vn 0.4398 0.4549 0.7744
vn 0.2683 0.7568 0.596
vn -0.0605 0.9863 0.1536
vn -0.1014 0.9734 0.2054
vn 0.4406 0.8376 0.323
vn -0.4451 0.6545 0.6112
vn 0.5919 0.7607 0.2663
vn -0.5029 0.7105 0.4923
vn 0.2638 0.9597 0.0971
vn 0.3159 0.6174 0.7204
vn -0.0558 0.4329 0.8997
vn -0.141 0.6946 0.7054
vn 0.7653 0.3724 0.525
vn 0.9428 0.2476 0.2231
vn 0.8054 0.4857 0.3398
vn 0.7631 0.5806 0.284
f 1//1 2//1 3//1
f 4//2 5//2 1//2
f 1//3 5//3 2//3
f 6//4 7//4 4//4
f 4//5 7//5 5//5
f 6//6 8//6 7//6
f 9//7 2//7 5//7
f 10//8 8//8 11//8
f 5//9 7//9 10//9
f 10//10 7//10 8//10
f 12//11 13//11 14//11
f 15//12 13//12 16//12
f 13//13 17//13 14//13
f 18//14 13//14 12//14
f 16//15 13//15 18//15
f 11//16 8//16 17//16
f 13//17 15//17 11//17
f 15//18 10//18 11//18
f 19//19 10//19 20//19
f 20//20 10//20 15//20
f 13//21 11//21 17//21
f 9//22 5//22 19//22
f 19//23 5//23 10//23
f 6//24 21//24 8//24
f 12//25 14//25 22//25
f 22//26 14//26 23//26
f 14//27 24//27 23//27
f 17//28 21//28 14//28
f 14//29 21//29 24//29
f 8//30 21//30 17//30
f 25//31 1//31 3//31
f 26//32 27//32 28//32
f 1//33 26//33 4//33
f 29//34 30//34 31//34
f 28//35 27//35 30//35
f 4//36 28//36 6//36
f 26//37 28//37 4//37
f 30//38 21//38 28//38
f 32//39 26//39 25//39
f 24//40 21//40 30//40
f 25//41 26//41 1//41
f 21//42 6//42 28//42
f 27//43 31//43 30//43
f 27//44 32//44 31//44
f 26//45 32//45 27//45
f 33//46 30//46 29//46
f 22//47 23//47 33//47
f 33//48 23//48 30//48
f 23//49 24//49 30//49