o obj1
v 0.016839 0.062391 0.077035
v 0.021108 0.067096 0.0766
v 0.019186 0.065181 0.075777
v 0.014843 0.059914 0.080278
v 0.017266 0.062327 0.081175
v 0.014825 0.060109 0.078105
v 0.021727 0.06709 0.083664
v 0.02039 0.065766 0.080416
v 0.01819 0.064157 0.090259
v 0.019766 0.065717 0.090268
v 0.017944 0.063297 0.087171
v 0.018021 0.063326 0.079104
v 0.016239 0.061356 0.085235
v 0.01996 0.065203 0.08515
v 0.017274 0.0623 0.083137
v 0.025175 0.071327 0.090852
v 0.014887 0.059887 0.082331
v 0.014821 0.060076 0.086001
v 0.015002 0.060449 0.087378
v 0.027316 0.073384 0.087441
v 0.027993 0.074137 0.08326
v 0.014697 0.060115 0.077363
v 0.015383 0.061142 0.075661
v 0.021351 0.067394 0.090585
v 0.026403 0.072482 0.089386
v 0.023021 0.069042 0.090383
v 0.026817 0.072884 0.081179
v 0.025841 0.07196 0.078909
v 0.022383 0.068383 0.077165
v 0.017142 0.063166 0.074972
v 0.014738 0.059851 0.084399
v 0.015914 0.061711 0.089326
v 0.016326 0.06243 0.074713
v 0.016422 0.063341 0.073766
v 0.0245 0.070718 0.077303
v 0.017641 0.064637 0.073834
v 0.016056 0.063297 0.073208
v 0.019999 0.066651 0.074917
v 0.022545 0.069031 0.0757
v 0.026034 0.072303 0.07694
v 0.014253 0.060022 0.076681
v 0.012701 0.060203 0.074729
v 0.01206 0.059656 0.075689
v 0.014251 0.06039 0.075696
v 0.010225 0.058693 0.078014
v 0.01133 0.059217 0.076668
v 0.010683 0.059026 0.075948
v 0.013931 0.061296 0.073702
v 0.015515 0.061602 0.074854
v 0.014926 0.062167 0.073378
v 0.013752 0.059635 0.077472
v 0.013106 0.060623 0.074136
v 0.012772 0.060646 0.073321
v 0.011657 0.059755 0.074433
v 0.015021 0.060963 0.075355
v 0.013631 0.059456 0.078707
v 0.011366 0.05911 0.077848
v 0.014361 0.059719 0.078569
v 0.013757 0.06145 0.072736
v 0.011358 0.05908 0.082869
v 0.013911 0.059437 0.08096
v 0.014505 0.059675 0.080422
v 0.014443 0.059621 0.082338
v 0.013933 0.059635 0.085565
v 0.013922 0.05948 0.083566
v 0.010357 0.058781 0.085269
v 0.011692 0.059324 0.086645
v 0.011081 0.059283 0.088577
v 0.014166 0.059957 0.087207
v 0.012509 0.059816 0.088647
v 0.012321 0.060039 0.08982
v 0.011476 0.059632 0.090025
v 0.012681 0.060594 0.091388
v 0.014208 0.060232 0.088251
v 0.013275 0.060491 0.08988
v 0.013255 0.060883 0.090981
v 0.013851 0.061099 0.090622
v 0.0151 0.060826 0.088628
v 0.015674 0.061768 0.089885
v 0.015149 0.062155 0.091009
v 0.016845 0.062847 0.090107
v 0.014385 0.061958 0.092119
v 0.014702 0.062098 0.091589
v 0.016332 0.063426 0.091597
v 0.021683 0.068146 0.091597
v 0.023566 0.069784 0.091141
v 0.01829 0.065022 0.091446
v 0.019629 0.066316 0.091718
v 0.017555 0.064622 0.092445
v 0.026379 0.072659 0.092815
v 0.028641 0.074853 0.087022
v 0.027417 0.07363 0.091431
v 0.027903 0.074133 0.078802
v 0.015563 0.062951 0.07195
v 0.025856 0.072133 0.076056
v 0.022183 0.06868 0.074468
v 0.017389 0.064443 0.072493
v 0.020278 0.066996 0.073778
v 0.018563 0.065483 0.073012
v 0.011108 0.059514 0.072944
v 0.009807 0.058584 0.072419
v 0.012018 0.06011 0.071156
v 0.010481 0.058943 0.071392
v 0.006913 0.056563 0.07674
v 0.007889 0.057249 0.074092
v 0.00701 0.056488 0.075142
v 0.013696 0.061424 0.071304
v 0.0076 0.05687 0.073751
v 0.012884 0.06072 0.071084
v 0.007382 0.057018 0.077562
v 0.008215 0.057611 0.077227
v 0.007811 0.057323 0.0759
v 0.00934 0.058337 0.074657
v 0.008285 0.057325 0.072751
v 0.014379 0.061961 0.071443
v 0.014857 0.062301 0.071506
v 0.00652 0.056145 0.077883
v 0.006656 0.056213 0.076492
v 0.008708 0.05767 0.072405
v 0.009911 0.058495 0.071546
v 0.00888 0.058012 0.085219
v 0.006602 0.05625 0.083003
v 0.008213 0.057613 0.086085
v 0.007299 0.056956 0.081751
v 0.009415 0.058409 0.090473
v 0.007644 0.05717 0.087686
v 0.009015 0.058047 0.091538
v 0.00858 0.05757 0.091939
v 0.008983 0.057859 0.092366
v 0.009493 0.058201 0.092812
v 0.010863 0.059247 0.093067
v 0.009973 0.058542 0.093033
v 0.010933 0.059362 0.091858
v 0.006762 0.056318 0.086016
v 0.006585 0.056118 0.084454
v 0.007779 0.057201 0.089182
v 0.00729 0.056634 0.089134
v 0.007686 0.056902 0.090423
v 0.008024 0.057182 0.091078
v 0.008327 0.057341 0.091662
v 0.00695 0.056388 0.087567
v 0.013622 0.061377 0.093053
v 0.015446 0.062811 0.093163
v 0.025017 0.071343 0.093084
v 0.021061 0.067687 0.093119
v 0.023093 0.06946 0.093209
v 0.01909 0.065909 0.093149
v 0.01741 0.064439 0.093181
v 0.028706 0.074907 0.083179
v 0.028886 0.075031 0.08451
v 0.027697 0.073873 0.091982
v 0.026752 0.072965 0.092781
v 0.027958 0.074152 0.091475
v 0.028269 0.074426 0.090729
v 0.025773 0.07201 0.093115
v 0.028476 0.074642 0.080393
v 0.028776 0.074901 0.082138
v 0.026649 0.072892 0.076645
v 0.027374 0.073543 0.077378
v 0.027765 0.073917 0.078061
v 0.028243 0.074374 0.079244
v 0.025873 0.072032 0.075888
v 0.023369 0.068847 0.074341
v 0.02128 0.067766 0.073984
v 0.026636 0.071459 0.075472
v 0.017227 0.063381 0.071848
v 0.015701 0.062822 0.071662
v 0.020623 0.066371 0.073233
v 0.023582 0.068335 0.074122
v 0.015854 0.061565 0.071035
v 0.006819 0.054948 0.078126
v 0.006621 0.055393 0.077863
v 0.006929 0.054966 0.077106
v 0.006469 0.055997 0.078395
v 0.006538 0.056061 0.077262
v 0.006988 0.055154 0.076189
v 0.00684 0.05627 0.075591
v 0.00732 0.055704 0.074596
v 0.007299 0.055186 0.07526
v 0.00717 0.056527 0.074596
v 0.00803 0.05624 0.073146
v 0.007702 0.056811 0.073497
v 0.007779 0.055471 0.073998
v 0.008404 0.055989 0.072867
v 0.009174 0.056468 0.07201
v 0.009197 0.057133 0.071855
v 0.009981 0.057004 0.071411
v 0.008793 0.057644 0.072243
v 0.009328 0.058033 0.071847
v 0.0105 0.057653 0.071077
v 0.010618 0.058924 0.071241
v 0.011536 0.058418 0.070729
v 0.011375 0.059544 0.071106
v 0.012593 0.059317 0.070599
v 0.011989 0.060001 0.07104
v 0.014476 0.061126 0.070895
v 0.014301 0.060334 0.070655
v 0.014024 0.061571 0.071219
v 0.006512 0.056071 0.082893
v 0.006765 0.055538 0.085106
v 0.006689 0.055346 0.083081
v 0.010697 0.058953 0.093257
v 0.010571 0.058192 0.093443
v 0.011434 0.058228 0.093671
v 0.010804 0.057714 0.093573
v 0.009678 0.057523 0.093072
v 0.010168 0.057242 0.093317
v 0.009523 0.056793 0.092855
v 0.008942 0.057718 0.092439
v 0.008834 0.056898 0.092285
v 0.009012 0.056415 0.092285
v 0.008409 0.056222 0.091508
v 0.008065 0.055782 0.090546
v 0.007486 0.055964 0.089403
v 0.007678 0.055537 0.089375
v 0.007459 0.055248 0.088175
v 0.007109 0.055486 0.087319
v 0.006682 0.056155 0.085637
v 0.007087 0.055051 0.085851
v 0.006899 0.054938 0.083418
v 0.023397 0.068431 0.093663
v 0.026059 0.070917 0.093653
v 0.021432 0.067908 0.093232
v 0.021429 0.066855 0.0936
v 0.025343 0.071529 0.093222
v 0.019344 0.066041 0.093241
v 0.018894 0.064715 0.093562
v 0.019702 0.064882 0.093677
v 0.013452 0.061111 0.093234
v 0.012971 0.059977 0.093524
v 0.028897 0.075 0.086257
v 0.029611 0.074809 0.084863
v 0.030089 0.074541 0.084875
v 0.0299 0.074595 0.087115
v 0.028996 0.073746 0.091705
v 0.028574 0.073308 0.092433
v 0.028845 0.074954 0.087255
v 0.028785 0.074893 0.088089
v 0.028174 0.072909 0.092871
v 0.02713 0.072381 0.093251
v 0.027851 0.072286 0.093244
v 0.027274 0.073414 0.092508
v 0.029741 0.074427 0.089013
v 0.0287 0.074813 0.088822
v 0.027132 0.071552 0.093553
v 0.028596 0.074716 0.089479
v 0.026327 0.07248 0.093042
v 0.028502 0.074569 0.090215
v 0.029322 0.07404 0.090901
v 0.029702 0.074163 0.08997
v 0.029013 0.073646 0.078231
v 0.029113 0.074256 0.079594
v 0.029402 0.07372 0.078812
v 0.029674 0.074133 0.080141
v 0.028707 0.074756 0.08095
v 0.0298 0.074294 0.080965
v 0.029493 0.074675 0.081967
v 0.029884 0.074404 0.081704
v 0.026371 0.072531 0.076229
v 0.030029 0.074523 0.083217
v 0.027208 0.071982 0.075824
v 0.027011 0.073079 0.076724
v 0.028896 0.074986 0.083172
v 0.027936 0.072648 0.076481
v 0.028522 0.073209 0.077301
v 0.007447 0.054261 0.08037
v 0.007483 0.054215 0.081709
v 0.007442 0.05426 0.078854
v 0.0078 0.054386 0.086593
v 0.007913 0.054502 0.087415
v 0.007692 0.054358 0.085745
v 0.011717 0.057216 0.093666
v 0.012253 0.057755 0.093697
v 0.007586 0.05429 0.084554
v 0.007521 0.05429 0.083641
v 0.011465 0.056952 0.093624
v 0.007473 0.054285 0.082547
v 0.010628 0.056427 0.09324
v 0.010133 0.056084 0.092839
v 0.009644 0.055698 0.092296
v 0.009335 0.055531 0.09186
v 0.008952 0.055258 0.091149
v 0.008629 0.054974 0.09031
v 0.008316 0.054813 0.089365
v 0.00813 0.054642 0.088552
v 0.013663 0.058698 0.093714
v 0.012254 0.057754 0.093697
v 0.015433 0.060073 0.093718
v 0.016713 0.061062 0.093741
v 0.018597 0.062665 0.093728
v 0.020314 0.064172 0.093721
v 0.022403 0.066001 0.093726
v 0.02417 0.067605 0.093726
v 0.026928 0.070276 0.093687
v 0.027616 0.070892 0.093581
v 0.028281 0.071475 0.093378
v 0.030709 0.073875 0.086917
v 0.030768 0.073904 0.084243
v 0.030641 0.073813 0.087851
v 0.030577 0.073738 0.088612
v 0.030546 0.073601 0.089438
v 0.030303 0.073447 0.090343
v 0.029862 0.073058 0.091608
v 0.02956 0.072693 0.092254
v 0.029254 0.072387 0.092669
v 0.028775 0.072014 0.093045
v 0.030781 0.073862 0.083399
v 0.027886 0.071092 0.075681
v 0.027468 0.070678 0.075423
v 0.028744 0.071927 0.076461
v 0.029202 0.072378 0.077097
v 0.029613 0.072801 0.07787
v 0.029986 0.073147 0.078787
v 0.030424 0.07352 0.080281
v 0.030558 0.073646 0.081046
v 0.030689 0.07376 0.081961
v 0.030703 0.073835 0.082665
v 0.018907 0.063108 0.071994
v 0.017013 0.061513 0.07125
v 0.021048 0.064729 0.072743
v 0.022647 0.066214 0.07343
v 0.025297 0.068634 0.074498
v 0.010455 0.056309 0.071472
v 0.010841 0.056549 0.071239
v 0.011164 0.056896 0.071068
v 0.007463 0.054268 0.078015
v 0.011989 0.057346 0.070745
v 0.007526 0.054253 0.077347
v 0.012487 0.057739 0.070636
v 0.007604 0.054372 0.07655
v 0.013187 0.058298 0.070544
v 0.00786 0.054513 0.075395
v 0.014327 0.059219 0.070561
v 0.015073 0.05971 0.070621
v 0.008171 0.054722 0.074448
v 0.015662 0.060213 0.070753
v 0.016311 0.060774 0.070946
v 0.008479 0.054867 0.073792
v 0.008856 0.055136 0.073114
v 0.00955 0.055691 0.072216
v 0.010019 0.055917 0.071797
v 0.029648 0.072595 0.092522
v 0.028948 0.071944 0.093149
v 0.029211 0.072151 0.09418
v 0.030274 0.073186 0.093071
v 0.011099 0.056521 0.069875
v 0.011569 0.056875 0.070666
v 0.012375 0.057489 0.070502
v 0.013812 0.058568 0.069327
v 0.013376 0.058263 0.070384
v 0.031114 0.07401 0.091201
v 0.030151 0.073102 0.09151
v 0.009483 0.055382 0.092232
v 0.008056 0.054375 0.091185
v 0.009206 0.055168 0.09326
v 0.010605 0.056177 0.093388
v 0.010517 0.056101 0.094338
v 0.009004 0.05508 0.091274
v 0.030533 0.073472 0.090262
v 0.008714 0.054869 0.090632
v 0.011483 0.056817 0.093798
v 0.008483 0.054712 0.089984
v 0.014745 0.059348 0.070466
v 0.008303 0.054589 0.089362
v 0.007115 0.053743 0.087756
v 0.030756 0.073702 0.088781
v 0.008129 0.054458 0.088722
v 0.016411 0.060639 0.069716
v 0.015797 0.060171 0.070618
v 0.014285 0.058915 0.094389
v 0.016498 0.06075 0.070842
v 0.012248 0.057418 0.093844
v 0.008003 0.054404 0.087963
v 0.007816 0.054234 0.087131
v 0.01741 0.061522 0.07121
v 0.0077 0.054158 0.086216
v 0.018245 0.062226 0.071536
v 0.007619 0.054122 0.085185
v 0.03176 0.074648 0.087599
v 0.014045 0.058774 0.093879
v 0.030826 0.073783 0.087952
v 0.030915 0.073862 0.086799
v 0.007554 0.054075 0.084467
v 0.006696 0.053467 0.082773
v 0.020361 0.063967 0.071235
v 0.007474 0.054007 0.083099
v 0.030934 0.073887 0.085695
v 0.016017 0.060352 0.093867
v 0.019228 0.063033 0.071878
v 0.007441 0.053984 0.081867
v 0.021117 0.064649 0.072573
v 0.007421 0.053967 0.080251
v 0.017648 0.06172 0.093807
v 0.022285 0.065633 0.09439
v 0.028062 0.071019 0.074397
v 0.03176 0.074648 0.082828
v 0.030977 0.073904 0.083755
v 0.007451 0.054025 0.078915
v 0.006716 0.05348 0.077215
v 0.007475 0.054042 0.077913
v 0.030898 0.073836 0.082623
v 0.019465 0.06323 0.093879
v 0.007505 0.054023 0.077066
v 0.025107 0.068295 0.074263
v 0.031355 0.074248 0.080189
v 0.030813 0.073742 0.081592
v 0.030706 0.073621 0.080658
v 0.025867 0.069008 0.074575
v 0.007711 0.054163 0.075821
v 0.007156 0.053771 0.074912
v 0.021631 0.065119 0.093884
v 0.030431 0.073397 0.079741
v 0.008002 0.054359 0.074761
v 0.030852 0.073752 0.078195
v 0.03006 0.073024 0.07846
v 0.007811 0.054209 0.073183
v 0.008365 0.054606 0.073861
v 0.0239 0.067169 0.093871
v 0.027738 0.070757 0.075344
v 0.00883 0.054929 0.073015
v 0.02977 0.072743 0.077761
v 0.009025 0.055042 0.07139
v 0.029743 0.072667 0.075941
v 0.029515 0.072484 0.077257
v 0.025212 0.068393 0.093858
v 0.028463 0.071461 0.075891
v 0.029133 0.072107 0.076632
v 0.009824 0.055623 0.07181
v 0.027285 0.070328 0.093823
v 0.028713 0.071669 0.094378
v 0.027856 0.070907 0.093659
v 0.028379 0.071381 0.093526
v 0.019817 0.066531 0.093165
v 0.029913 0.072945 0.091803
v 0.030283 0.073336 0.090714
v 0.030881 0.073889 0.084378
v 0.02833 0.071496 0.076014
v 0.017172 0.06134 0.093821
v 0.025791 0.069051 0.093754
v 0.025877 0.069015 0.093876
v 0.01546 0.059946 0.093814
v 0.014779 0.059425 0.093785
v 0.014259 0.059 0.093809
v 0.013057 0.058074 0.093794
v 0.024654 0.067949 0.093785
v 0.022999 0.066426 0.093783
v 0.022154 0.06566 0.09379
v 0.020995 0.064645 0.09378
v 0.02026 0.063964 0.093814
v 0.019118 0.063016 0.093779
v 0.018161 0.062201 0.093781
v 0.012322 0.057664 0.093719
v 0.017013 0.061508 0.071261
v 0.019213 0.063125 0.071998
v 0.00935 0.055385 0.091887
v 0.007501 0.054128 0.082546
v 0.007538 0.054116 0.08376
v 0.010501 0.056188 0.093199
v 0.009514 0.055479 0.072237
v 0.008089 0.054535 0.074684
v 0.007811 0.05435 0.075616
v 0.007607 0.054212 0.076701
v 0.009023 0.055149 0.072853
v 0.014065 0.058857 0.070462
v 0.007482 0.054116 0.08111
v 0.007461 0.054062 0.079509
v 0.00747 0.054105 0.08028
vn -0.7276 0.6727 0.1345
vn -0.7166 0.6941 0.0681
vn -0.7368 0.6755 0.0281
vn -0.696 0.7041 -0.1406
vn -0.7306 0.6734 0.113
vn -0.7186 0.6942 -0.0423
vn -0.7187 0.6916 0.0715
vn -0.7236 0.6861 -0.075
vn -0.71 0.7038 0.0241
vn -0.6962 0.7107 -0.1011
vn -0.7474 0.6644 -0.0014
vn -0.7129 0.6894 0.1287
vn -0.7092 0.6939 -0.1248
vn -0.7397 0.6724 -0.0259
vn -0.718 0.6932 -0.0628
vn -0.7384 0.6735 -0.0342
vn -0.7102 0.694 -0.1186
vn -0.6957 0.7113 -0.1006
vn -0.7439 0.6665 0.0483
vn -0.733 0.6801 0.0125
vn -0.7129 0.7012 0.0127
vn -0.7265 0.6836 -0.0696
vn -0.7304 0.6735 0.1136
vn -0.7128 0.6894 0.1291
vn -0.7042 0.6973 -0.1338
vn -0.7321 0.6812 -0.0055
vn -0.7208 0.6771 0.1484
vn -0.7377 0.6695 0.0867
vn -0.6971 0.716 -0.0376
vn -0.7322 0.6784 0.0602
vn -0.6942 0.7073 -0.1332
vn -0.7056 0.708 -0.0296
vn -0.7372 0.6701 0.0874
vn -0.743 0.669 0.0172
vn -0.7458 0.6652 0.036
vn -0.7233 0.6747 0.1471
vn -0.6977 0.7026 -0.14
vn -0.7215 0.6847 0.1027
vn -0.688 0.7227 -0.0659
vn -0.6664 0.5698 0.4809
vn -0.7398 0.6647 0.1037
vn -0.6793 0.6182 0.3955
vn -0.7014 0.5141 0.4937
vn -0.6862 0.6261 0.3703
vn -0.6954 0.6083 0.3826
vn -0.7336 0.5963 0.326
vn -0.739 0.5861 0.3322
vn -0.7013 0.6774 0.222
vn -0.7308 0.6505 0.2068
vn -0.7008 0.7043 0.1135
vn -0.2942 0.9014 0.3177
vn -0.3143 0.8892 0.3325
vn -0.3541 0.9324 0.0717
vn -0.4874 0.7325 0.4753
vn -0.2779 0.9205 0.2746
vn -0.469 0.8564 0.216
vn -0.5488 0.7981 0.2487
vn -0.5824 0.7782 0.2349
vn -0.419 0.7963 0.4363
vn -0.4464 0.8452 0.2938
vn -0.1947 0.9733 0.1218
vn -0.4323 0.8873 0.1605
vn -0.5742 0.8117 0.1063
vn -0.4354 0.8757 0.2087
vn -0.3779 0.9056 0.1927
vn -0.3953 0.9114 0.1143
vn -0.3395 0.8612 0.3783
vn -0.4768 0.8232 0.3082
vn -0.6259 0.6835 0.3755
vn -0.2423 0.9398 0.241
vn -0.1996 0.9754 0.0937
vn -0.6319 0.6869 0.359
vn -0.3298 0.9393 0.0944
vn -0.4306 0.8862 0.1709
vn -0.3195 0.9417 0.105
vn -0.5317 0.8161 0.2264
vn -0.5979 0.7677 0.2306
vn -0.5828 0.6534 0.4831
vn -0.4832 0.7404 0.4673
vn -0.691 0.6821 0.2392
vn -0.659 0.6947 0.2882
vn -0.4128 0.8062 0.4239
vn -0.6185 0.7219 0.3103
vn -0.6069 0.6025 0.5184
vn -0.5335 0.8107 0.241
vn -0.1345 0.9909 0.0059
vn -0.1612 0.9865 0.0282
vn -0.5577 0.8277 0.0631
vn -0.3306 0.9426 0.0482
vn -0.3428 0.9394 0.0052
vn -0.3323 0.9419 0.0491
vn -0.3601 0.9328 0.0144
vn -0.3523 0.9333 -0.07
vn -0.2991 0.9542 -0.0062
vn -0.35 0.9363 -0.0296
vn -0.1502 0.9885 -0.0157
vn -0.3065 0.9488 -0.0767
vn -0.1606 0.9858 -0.0496
vn -0.1339 0.9881 -0.0755
vn -0.2106 0.9644 -0.1596
vn -0.3999 0.9103 -0.1071
vn -0.3925 0.9114 -0.1234
vn -0.5945 0.8005 0.0766
vn -0.5703 0.8211 0.0227
vn -0.293 0.956 -0.0146
vn -0.5137 0.8579 0.0073
vn -0.5139 0.8575 -0.0219
vn -0.3698 0.9277 -0.0504
vn -0.213 0.9654 -0.1503
vn -0.3308 0.916 -0.227
vn -0.4642 0.8632 -0.1986
vn -0.294 0.9035 -0.3117
vn -0.5369 0.8265 -0.1689
vn -0.3901 0.8652 -0.3151
vn -0.464 0.861 -0.2082
vn -0.4803 0.8235 -0.3019
vn -0.3445 0.9345 -0.0891
vn -0.4742 0.8526 -0.2196
vn -0.4024 0.8386 -0.367
vn -0.4732 0.864 -0.1719
vn -0.4528 0.8002 -0.3933
vn -0.466 0.7468 -0.4745
vn -0.5598 0.7651 -0.3181
vn -0.5397 0.686 -0.488
vn -0.6041 0.724 -0.3329
vn -0.4092 0.8354 -0.3669
vn -0.4502 0.8883 -0.0911
vn -0.2824 0.9304 -0.2337
vn -0.4044 0.8844 -0.2328
vn -0.555 0.8051 -0.2095
vn -0.5985 0.7871 -0.1492
vn -0.5039 0.7826 -0.3656
vn -0.5323 0.7773 -0.3352
vn -0.6551 0.7361 -0.1701
vn -0.5827 0.7185 -0.3798
vn -0.5732 0.4726 -0.6694
vn -0.6927 0.6689 -0.2696
vn -0.6023 0.7029 -0.3784
vn -0.6524 0.7489 -0.1164
vn -0.6701 0.7108 -0.2138
vn -0.6263 0.6544 -0.4237
vn -0.6816 0.6901 -0.2435
vn -0.6222 0.7622 -0.1785
vn -0.6632 0.7088 -0.2403
vn -0.6974 0.6942 -0.1781
vn -0.6426 0.7008 -0.3097
vn -0.636 0.7177 -0.2835
vn -0.5867 0.6774 -0.4438
vn -0.5922 0.6614 -0.4602
vn -0.6216 0.7649 -0.1689
vn -0.5341 0.7099 -0.4591
vn -0.6803 0.7288 -0.0774
vn -0.7424 0.67 0.0004
vn -0.7116 0.7007 0.0523
vn -0.7454 0.6663 -0.022
vn -0.7242 0.6889 0.0307
vn -0.7406 0.6718 0.0142
vn -0.7232 0.6889 0.049
vn -0.7277 0.6855 -0.0237
vn -0.7106 0.7023 -0.0416
vn -0.6567 0.7525 0.0511
vn -0.6836 0.7299 -0.0024
vn -0.6833 0.7301 -0.0073
vn -0.6341 0.7732 0.0077
vn -0.69 0.7221 0.0493
vn -0.6578 0.7529 -0.0212
vn -0.6747 0.7359 0.0572
vn -0.6673 0.7446 0.0181
vn -0.6585 0.7518 0.0352
vn -0.5727 0.8159 0.0796
vn -0.6121 0.7801 -0.1292
vn -0.7028 0.7074 -0.0757
vn -0.5884 0.8082 0.0261
vn -0.5777 0.8052 0.1338
vn -0.5877 0.809 0.0103
vn -0.7309 0.6709 -0.1257
vn -0.6358 0.7717 0.0131
vn -0.63 0.7758 0.0342
vn -0.5588 0.7527 -0.3481
vn -0.58 0.8146 -0.0003
vn -0.6066 0.7872 -0.111
vn -0.5585 0.8294 -0.01
vn -0.7045 0.6894 -0.1685
vn -0.5683 0.8223 -0.0278
vn -0.5845 0.791 -0.1807
vn -0.5188 0.7888 -0.3296
vn -0.6644 0.7465 -0.0346
vn -0.7882 0.6136 -0.047
vn -0.7014 0.6929 -0.1674
vn -0.6768 0.7338 -0.0593
vn -0.4844 0.8741 0.035
vn -0.4819 0.8756 0.0342
vn -0.6045 0.7944 -0.0587
vn -0.7764 0.6256 -0.0763
vn -0.6309 0.7606 -0.1529
vn -0.6343 0.7642 -0.117
vn -0.5146 0.8537 0.0798
vn -0.6359 0.7564 -0.1531
vn -0.5174 0.8541 0.053
vn -0.5735 0.8187 -0.0293
vn -0.4622 0.8868 -0.0024
vn -0.4727 0.8812 -0.0049
vn -0.731 0.6824 -0.0023
vn -0.5854 0.8107 0.0004
vn -0.6939 0.72 -0.0031
vn -0.7117 0.7025 -0.0003
vn -0.5131 0.8583 -0.0003
vn -0.5887 0.8082 0.0148
vn -0.507 0.8619 0.006
vn -0.4867 0.8732 -0.0249
vn -0.671 0.7283 0.1389
vn -0.6362 0.7574 0.1469
vn -0.6183 0.7733 0.1402
vn -0.5702 0.8203 0.0452
vn -0.5717 0.818 0.0634
vn -0.5195 0.8521 -0.0634
vn -0.5144 0.8571 -0.0264
vn -0.8677 0.4959 0.0348
vn -0.7097 0.7043 0.0159
vn -0.6929 0.7208 0.0205
vn -0.7583 0.6496 0.0547
vn -0.7576 0.6452 0.0989
vn -0.6792 0.7278 0.0951
vn -0.7856 0.5646 0.2533
vn -0.6832 0.7208 0.1168
vn -0.6127 0.7894 0.0382
vn -0.4611 0.8867 -0.0335
vn -0.6143 0.7772 0.1363
vn -0.5847 0.8095 -0.0542
vn -0.7455 0.6585 0.103
vn -0.6037 0.7972 0.0064
vn -0.7506 0.6579 0.0612
vn -0.7506 0.6581 0.0597
vn -0.613 0.7892 0.0387
vn -0.611 0.7912 -0.0272
vn -0.6174 0.7865 -0.0152
vn -0.6201 0.7843 -0.0188
vn -0.567 0.8225 0.0456
vn -0.5492 0.5997 0.582
vn -0.6694 0.7257 0.1587
vn -0.6835 0.7275 -0.0602
vn -0.6566 0.7521 0.0572
vn -0.6383 0.7696 0.0198
vn -0.6459 0.761 0.0615
vn -0.666 0.7444 -0.0479
vn -0.6472 0.758 -0.0805
vn -0.6657 0.7395 0.1
vn -0.7337 0.6795 -0.0029
vn -0.5762 0.8173 0.0017
vn -0.6205 0.7712 0.1425
vn -0.6462 0.7586 0.0835
vn -0.6936 0.7202 -0.0152
vn -0.7108 0.7022 -0.0407
vn -0.6244 0.7807 0.0272
vn -0.6446 0.7201 0.2569
vn -0.6946 0.7194 0.0068
vn -0.6721 0.7404 0.0051
vn -0.5651 0.8239 -0.0421
vn -0.7327 0.6804 0.0141
vn -0.6917 0.7222 0.0007
vn -0.6943 0.7196 -0.0101
vn -0.5488 0.8246 -0.1374
vn -0.606 0.789 -0.1014
vn -0.4819 0.8699 -0.1048
vn -0.1154 0.5059 -0.8549
vn -0.0982 0.4961 -0.8627
vn -0.09 0.5268 -0.8452
vn 0.0116 0.3978 -0.9174
vn 0.0195 0.3964 -0.9179
vn 0.0025 0.3946 -0.9189
vn -0.0257 0.4441 -0.8956
vn -0.1204 0.5137 -0.8495
vn -0.1088 0.5103 -0.8531
vn -0.1228 0.5286 -0.84
vn -0.8847 -0.4544 -0.1037
vn -0.9801 -0.1855 -0.0701
vn -0.9042 -0.4032 -0.1405
vn -0.9529 -0.2491 -0.1732
vn -0.9329 -0.2981 -0.2019
vn -0.9486 -0.2375 -0.2093
vn -0.8808 -0.3598 -0.3079
vn -0.9179 -0.2747 -0.2863
vn -0.922 -0.1678 -0.349
vn -0.8629 -0.157 -0.4803
vn -0.8594 -0.2039 -0.4689
vn -0.8095 -0.2976 -0.5061
vn -0.6687 -0.2045 -0.7148
vn -0.6827 -0.1429 -0.7166
vn -0.7703 -0.0504 -0.6356
vn -0.7071 -0.0892 -0.7014
vn -0.5078 -0.1782 -0.8429
vn -0.7019 -0.0142 -0.7122
vn -0.6325 0.0845 -0.7699
vn -0.4988 -0.0458 -0.8655
vn -0.5374 0.0915 -0.8383
vn -0.4965 0.0638 -0.8657
vn -0.4701 0.1555 -0.8688
vn -0.415 0.154 -0.8967
vn -0.3631 0.2491 -0.8978
vn -0.3307 0.2571 -0.908
vn -0.3194 0.2984 -0.8994
vn -0.1584 0.3179 -0.9348
vn -0.2464 0.3624 -0.8988
vn -0.1999 0.3574 -0.9123
vn -0.2131 0.4245 -0.88
vn 0.0054 0.2885 -0.9575
vn -0.0486 0.4387 -0.8973
vn -0.0535 0.4435 -0.8947
vn -0.134 0.4909 -0.8609
vn -0.1449 0.4929 -0.858
vn -0.9688 -0.2421 0.0521
vn -0.9733 -0.2222 0.0574
vn -0.2563 0.2695 0.9283
vn -0.2583 0.1339 0.9567
vn -0.4258 0.2808 0.8601
vn -0.415 0.067 0.9074
vn -0.4125 0.0461 0.9098
vn -0.5143 0.1812 0.8383
vn -0.486 0.1736 0.8566
vn -0.5076 -0.1457 0.8492
vn -0.6286 0.1229 0.7679
vn -0.6423 -0.0907 0.7611
vn -0.6398 -0.2361 0.7314
vn -0.6597 -0.0529 0.7497
vn -0.7806 -0.0136 0.6248
vn -0.7277 -0.2684 0.6312
vn -0.8142 -0.137 0.5643
vn -0.861 -0.1304 0.4917
vn -0.8708 -0.2482 0.4244
vn -0.8786 -0.253 0.4049
vn -0.841 -0.402 0.362
vn -0.9368 -0.1461 0.318
vn -0.8744 -0.4104 0.2586
vn -0.9541 -0.184 0.2363
vn -0.8832 -0.3964 0.2506
vn -0.9473 -0.2293 0.2238
vn -0.9636 -0.2145 0.1595
vn -0.9074 -0.3989 0.1321
vn -0.9573 -0.2512 0.1433
vn -0.9131 -0.3979 0.0889
vn -0.8815 -0.4659 0.0771
vn -0.9749 -0.205 0.0868
vn -0.9166 -0.3996 0.0132
vn -0.891 -0.4539 0.0075
vn -0.9674 -0.2531 0.0103
vn -0.9723 -0.2334 0.0133
vn -0.289 0.3131 0.9047
vn -0.2828 0.317 0.9053
vn -0.2858 0.3055 0.9083
vn -0.279 0.3146 0.9073
vn -0.2825 0.3155 0.9059
vn -0.2798 0.3173 0.9061
vn -0.1778 0.1937 0.9648
vn -0.2907 0.3175 0.9026
vn -0.2598 0.3414 0.9033
vn -0.2929 0.3431 0.8925
vn -0.2384 0.2874 0.9277
vn -0.2189 0.2711 0.9373
vn -0.1824 0.2203 0.9582
vn -0.3128 0.384 0.8687
vn -0.2582 0.3409 0.904
vn 0.2864 0.958 0.0155
vn 0.4873 0.873 0.0202
vn 0.2019 0.7832 0.588
vn 0.1963 0.8131 0.5481
vn 0.329 0.9425 0.0595
vn 0.3398 0.9394 0.0454
vn 0.3322 0.9386 0.0933
vn 0.0726 0.4833 0.8724
vn 0.0976 0.6904 0.7168
vn 0.0981 0.7097 0.6977
vn 0.3464 0.9314 0.1117
vn 0.3218 0.9364 0.1396
vn -0.0877 0.5898 0.8028
vn -0.0005 0.584 0.8117
vn 0.0546 0.3421 0.9381
vn 0.3115 0.9317 0.1867
vn -0.1429 0.5631 0.814
vn 0.3237 0.9192 0.2245
vn 0.3522 0.8985 0.2621
vn 0.3583 0.8958 0.2629
vn -0.1919 0.3676 0.91
vn -0.1147 0.34 0.9334
vn 0.2662 0.8906 0.3688
vn -0.1972 0.3909 0.899
vn 0.2467 0.8715 0.4238
vn 0.2508 0.8717 0.4209
vn -0.2098 0.3871 0.8979
vn 0.2476 0.866 -0.4345
vn 0.434 0.81 -0.3944
vn 0.2825 0.8677 -0.4091
vn 0.512 0.7851 -0.3486
vn 0.2366 0.9324 -0.2732
vn 0.4211 0.8761 -0.235
vn 0.4744 0.8612 -0.1824
vn 0.391 0.8936 -0.2203
vn -0.0157 0.5741 -0.8186
vn 0.3769 0.8999 -0.2192
vn 0.27 0.9537 -0.1322
vn 0.5119 0.8511 -0.1163
vn -0.0202 0.5733 -0.8191
vn 0.0471 0.6384 -0.7683
vn 0.2757 0.9549 -0.1103
vn 0.3957 0.9165 -0.0585
vn 0.3673 0.9283 -0.0579
vn 0.0989 0.6415 -0.7607
vn 0.3064 0.9515 -0.0297
vn 0.4881 0.8723 -0.0274
vn 0.1832 0.7512 -0.6341
vn 0.1753 0.75 -0.6378
vn 0.1976 0.8076 -0.5556
vn 0.2486 0.8197 -0.516
vn -0.7785 -0.6276 -0.0004
vn -0.7544 -0.6563 0.0103
vn -0.7426 -0.6697 0.0029
vn -0.7387 -0.6459 0.1926
vn -0.7625 -0.6229 0.1749
vn -0.7391 -0.6636 0.116
vn -0.0411 -0.0165 0.999
vn -0.7411 -0.6634 0.1037
vn -0.7567 -0.6477 0.0884
vn -0.7296 -0.6818 0.0526
vn -0.1235 -0.041 0.9915
vn -0.7271 -0.6856 0.0346
vn -0.1226 -0.0393 0.9917
vn -0.7159 -0.6964 0.05
vn -0.2745 -0.2435 0.9302
vn -0.2616 -0.1635 0.9512
vn -0.4132 -0.3745 0.8301
vn -0.4026 -0.3093 0.8615
vn -0.4981 -0.428 0.7541
vn -0.4982 -0.4457 0.7437
vn -0.5939 -0.5147 0.6184
vn -0.6116 -0.5133 0.602
vn -0.6237 -0.5566 0.5488
vn -0.6657 -0.5597 0.4936
vn -0.6614 -0.5948 0.4569
vn -0.7215 -0.6027 0.3408
vn -0.6973 -0.6198 0.36
vn -0.7264 -0.6198 0.297
vn -0.7172 -0.6362 0.2843
vn -0.7187 -0.6601 0.2184
vn -0.0225 0.0158 0.9996
vn -0.0331 0.0315 0.999
vn -0.0256 0.0309 0.9992
vn -0.027 0.0323 0.9991
vn -0.0785 0.078 0.9939
vn -0.0216 0.0335 0.9992
vn -0.0285 0.0369 0.9989
vn -0.0301 0.0355 0.9989
vn -0.0388 0.0418 0.9984
vn -0.038 0.0415 0.9984
vn -0.0316 0.0475 0.9984
vn -0.0201 0.0255 0.9995
vn 0.1592 0.1578 0.9746
vn 0.1622 0.2443 0.956
vn 0.0694 0.0928 0.9933
vn 0.6954 0.7182 0.0232
vn 0.034 0.0986 0.9946
vn 0.6696 0.7417 0.0387
vn 0.6749 0.7314 0.0977
vn 0.6663 0.7345 0.1285
vn 0.661 0.7405 0.1212
vn 0.6696 0.7283 0.1459
vn 0.6511 0.6996 0.2944
vn 0.6352 0.7376 0.2291
vn 0.6326 0.6504 0.4205
vn 0.6219 0.7023 0.3466
vn 0.579 0.6614 0.4768
vn 0.5415 0.598 0.5909
vn 0.4872 0.5944 0.6398
vn 0.4564 0.5214 0.721
vn 0.3525 0.4009 0.8456
vn 0.3815 0.4833 0.788
vn 0.2841 0.3014 0.9102
vn 0.2979 0.3709 0.8796
vn 0.6637 0.7475 -0.0276
vn 0.6675 0.7439 -0.0326
vn 0.2474 0.3207 -0.9143
vn 0.2509 0.3366 -0.9076
vn 0.3619 0.4098 -0.8373
vn 0.3596 0.4254 -0.8305
vn 0.4597 0.5341 -0.7095
vn 0.5362 0.5873 -0.6062
vn 0.4582 0.5466 -0.701
vn 0.5323 0.623 -0.5732
vn 0.6021 0.6347 -0.4843
vn 0.6022 0.6341 -0.4851
vn 0.6506 0.6774 -0.3434
vn 0.6302 0.6895 -0.3569
vn 0.6408 0.7293 -0.2399
vn 0.6457 0.7271 -0.233
vn 0.649 0.738 -0.1849
vn 0.6496 0.7377 -0.1841
vn 0.6398 0.7628 -0.0938
vn 0.6703 0.7355 -0.0985
vn 0.6586 0.7426 -0.1217
vn 0.2003 0.2036 -0.9584
vn 0.1878 0.2229 -0.9566
vn 0.2338 0.1358 -0.9628
vn 0.2038 0.2216 -0.9536
vn 0.1597 0.2529 -0.9542
vn 0.168 0.2384 -0.9565
vn 0.1638 0.2571 -0.9524
vn 0.1726 0.2436 -0.9544
vn -0.3993 -0.3476 -0.8484
vn -0.3426 -0.3122 -0.8861
vn -0.2609 -0.2179 -0.9404
vn -0.3064 -0.2295 -0.9238
vn -0.7273 -0.6858 -0.0254
vn -0.2947 -0.1389 -0.9454
vn -0.202 -0.1659 -0.9652
vn -0.7288 -0.6827 -0.0531
vn -0.1529 -0.0795 -0.985
vn -0.7263 -0.6659 -0.1703
vn -0.7477 -0.6576 -0.0926
vn -0.113 -0.0225 -0.9933
vn -0.7298 -0.6591 -0.1818
vn -0.1123 -0.0117 -0.9936
vn -0.7066 -0.6665 -0.2376
vn -0.0194 0.0427 -0.9989
vn -0.7153 -0.6477 -0.2624
vn -0.017 0.0837 -0.9963
vn 0.0241 0.0847 -0.9961
vn -0.6789 -0.6376 -0.364
vn 0.0852 0.1596 -0.9835
vn -0.6921 -0.6016 -0.3988
vn 0.1297 0.1845 -0.9742
vn 0.0876 0.1911 -0.9776
vn -0.6566 -0.6099 -0.4437
vn 0.1878 0.2162 -0.9581
vn -0.6516 -0.5081 -0.5633
vn -0.6222 -0.5224 -0.5831
vn -0.5486 -0.452 -0.7034
vn -0.5053 -0.476 -0.7198
vn -0.4758 -0.4332 -0.7655
vn -0.401 -0.2767 -0.8733
vn -0.67 0.742 0.0219
vn -0.6916 0.7222 0.0109
vn -0.6055 0.7959 0.0035
vn -0.6029 0.7978 -0.0048
vn -0.6132 0.7895 -0.025
vn -0.6905 0.7233 0.0085
vn -0.6809 0.7318 0.0284
vn -0.5826 0.8127 0.0124
vn -0.5854 0.8107 0.0112
vn -0.5854 0.8107 0.0106
vn -0.5989 0.7995 0.0472
vn -0.6848 0.7287 0.0067
vn -0.597 0.8022 0.0058
vn -0.5924 0.8056 0.0095
vn -0.5919 0.8059 0.0152
vn -0.6197 0.7843 -0.0292
vn -0.5922 0.8057 0.0139
vn -0.5954 0.8033 0.0132
vn -0.6869 0.7267 0.0091
vn -0.5682 0.8228 -0.0128
vn -0.6153 0.7882 -0.0102
vn -0.6202 0.7839 -0.0284
vn -0.5983 0.8013 -0.0067
vn -0.6313 0.775 -0.0278
vn -0.6137 0.7672 0.1865
vn -0.6029 0.7967 0.0429
vn -0.592 0.8053 -0.0314
vn -0.6398 0.768 -0.0265
vn -0.5712 0.8208 0.0041
vn -0.6375 0.7699 -0.0292
vn -0.5528 0.8332 0.0145
vn -0.681 0.7322 0.0075
vn -0.6019 0.796 0.0641
vn -0.676 0.7368 0.0155
vn -0.6797 0.7335 -0.0024
vn -0.5971 0.8021 0.0012
vn -0.5833 0.8123 0.0041
vn -0.6375 0.7699 -0.0291
vn -0.5678 0.8231 -0.0076
vn -0.6832 0.7303 0.0044
vn -0.6225 0.7787 0.0785
vn -0.6351 0.7725 0.003
vn -0.5701 0.8216 0.0003
vn -0.6445 0.7642 -0.0256
vn -0.5718 0.8204 -0.0017
vn -0.6428 0.7656 -0.0253
vn -0.6429 0.7655 -0.0254
vn -0.6769 0.7361 0.0071
vn -0.6942 0.7198 -0.0089
vn -0.5048 0.8629 0.0259
vn -0.5951 0.8037 -0.0003
vn -0.6777 0.7353 -0
vn -0.595 0.8037 -0.0003
vn -0.6861 0.7275 0.0042
vn -0.633 0.7664 -0.1098
vn -0.5717 0.8195 -0.0384
vn -0.6781 0.7348 0.0159
vn -0.6849 0.7287 -0.0053
vn -0.6928 0.7211 -0.0081
vn -0.6995 0.7145 -0.0131
vn -0.6765 0.7356 -0.0344
vn -0.5712 0.8208 -0.0055
vn -0.5674 0.8234 -0.0015
vn -0.655 0.7508 0.0851
vn -0.6842 0.7288 0.0271
vn -0.5713 0.8207 -0.0054
vn -0.6737 0.7388 -0.0137
vn -0.6796 0.7334 -0.0166
vn -0.5717 0.8204 -0.0084
vn -0.575 0.8181 -0.0077
vn -0.6657 0.7377 0.1124
vn -0.6764 0.736 -0.0287
vn -0.5775 0.8164 -0.0047
vn -0.679 0.734 -0.013
vn -0.5783 0.8157 -0.0129
vn -0.6943 0.7194 -0.02
vn -0.6772 0.7355 -0.0209
vn -0.681 0.7309 0.0448
vn -0.683 0.7297 -0.0326
vn -0.6864 0.727 -0.0175
vn -0.6848 0.7281 -0.0316
vn -0.6854 0.728 -0.0158
vn -0.5836 0.8119 -0.0138
vn -0.6815 0.7307 0.041
vn -0.5852 0.8108 -0.0094
vn -0.6845 0.729 0.0001
vn -0.6986 0.7111 0.0794
vn -0.6696 0.7426 0.0115
vn -0.5883 0.8086 -0.0124
vn -0.6901 0.7232 0.0261
vn -0.6925 0.7208 0.0319
vn -0.4445 0.7209 -0.5317
vn -0.4757 0.7307 -0.4897
vn -0.4663 0.7275 -0.5033
vn -0.5186 0.7729 -0.3656
vn -0.4964 0.7652 -0.41
vn -0.5687 0.7851 -0.2452
vn -0.2632 0.6427 -0.7195
vn -0.4574 0.7185 -0.5239
vn -0.4555 0.6976 -0.5531
vn -0.5222 0.6817 -0.5124
vn -0.5965 0.7099 -0.3744
vn -0.5883 0.5424 -0.5997
vn -0.6853 0.6427 -0.3425
vn -0.572 0.5713 -0.5886
vn -0.9843 0.1694 -0.0504
vn -0.7201 0.5168 -0.463
vn -0.5528 0.6707 -0.4945
vn -0.7556 0.4547 -0.4715
vn -0.8404 0.3444 -0.4184
vn -0.9045 0.1506 -0.399
vn -0.8236 0.5293 -0.204
vn -0.9452 0.1925 -0.2637
vn -0.9126 0.375 -0.1631
vn -0.4368 0.7135 -0.5479
vn -0.9329 0.3525 -0.0738
vn -0.3484 0.845 -0.4057
vn -0.4912 0.793 -0.3604
vn 0.125 0.9604 -0.2491
vn -0.3945 0.8994 -0.188
vn -0.311 0.8107 -0.4961
vn -0.3863 0.9218 -0.0337
vn -0.4173 0.7584 -0.5008
vn -0.3862 0.9219 -0.0306
vn -0.2271 0.9682 -0.1051
vn -0.4731 0.8805 0.0305
vn -0.5064 0.8616 0.0357
vn -0.5479 0.8357 0.0365
vn -0.5865 0.8092 0.0343
vn -0.5481 0.7132 0.4371
vn -0.5766 0.631 0.519
vn -0.553 0.795 0.2493
vn -0.2337 0.9588 0.1612
vn -0.4556 0.89 0.0186
vn -0.5461 0.714 0.4382
vn -0.4605 0.8875 0.0165
vn -0.9356 0.3531 0.0077
vn -0.8938 0.4485 0.0013
vn -0.4836 0.5475 0.6829
vn -0.5384 0.6051 0.5865
vn -0.5623 0.6265 0.5396
vn -0.5323 0.5784 0.6182
vn -0.5295 0.6035 0.5962
vn -0.5764 0.6238 0.5279
vn -0.5313 0.62 0.5773
vn -0.9685 0.2247 0.1072
vn -0.9001 0.4348 0.0288
vn -0.9497 0.3057 0.0685
vn -0.7385 0.4653 0.4879
vn -0.5361 0.6506 0.5378
vn -0.782 0.449 0.4322
vn -0.8868 -0.009 0.462
vn -0.8135 0.2959 0.5006
vn -0.5625 0.6795 0.471
vn -0.5238 0.6818 0.5107
vn -0.5056 0.6514 0.5658
vn -0.2815 0.7134 0.6417
vn -0.1856 0.7782 0.5999
vn -0.2984 0.8603 0.4133
vn -0.3684 0.5404 0.7565
vn -0.2923 0.5165 0.8048
vn -0.0952 0.9081 0.4079
vn -0.1582 0.9092 0.3851
vn -0.028 0.9582 0.2846
vn -0.0517 0.9603 0.2741
vn 0.0122 0.9879 0.1549
vn 0.103 0.989 0.1061
vn 0.1025 0.989 0.1062
vn 0.1207 0.9899 0.0741
vn 0.1071 0.9914 0.0758
vn 0.1352 0.9908 -0.0033
vn -0.2819 0.5861 0.7596
vn -0.4004 0.6288 0.6666
vn -0.0171 0.9599 0.2798
vn -0.1918 0.6369 0.7467
vn -0.0824 0.7581 0.6469
vn 0.0159 0.8672 0.4978
vn 0.036 0.869 0.4935
vn -0.005 0.9582 0.286
vn -0.0546 0.9866 0.1536
vn 0.0461 0.9852 0.1653
vn 0.0775 0.9967 0.0237
vn 0.0096 0.9999 0.0112
vn -0.1972 0.9803 -0.0076
vn 0.1861 0.9814 -0.0468
vn -0.015 0.9993 -0.0352
vn -0.1208 0.9914 -0.0509
vn -0.1305 0.985 -0.1133
vn 0.1554 0.9354 -0.3177
vn -0.0705 0.9725 -0.2218
vn -0.0008 0.9356 -0.353
vn -0.5 0.8071 -0.3138
vn 0.0612 0.9174 -0.3932
vn 0.0041 0.8881 -0.4596
vn -0.0733 0.8907 -0.4487
vn -0.107 0.7953 -0.5967
vn -0.03 0.9941 -0.1047
vn -0.2464 0.7403 -0.6255
vn -0.1018 0.9915 -0.0816
vn -0.1579 0.9824 -0.1001
vn -0.176 0.9758 -0.1301
vn -0.0526 0.9737 -0.2218
vn -0.0403 0.8665 -0.4975
vn -0.1927 0.8607 -0.4713
vn -0.2727 0.8067 -0.5244
vn -0.3007 0.781 -0.5474
vn -0.3811 0.7349 -0.561
vn -0.1075 0.9942 0.0065
vn -0.4881 0.6336 0.6002
vn -0.4651 0.575 0.6731
vn -0.3778 0.3971 0.8364
vn -0.5494 0.6123 0.5685
vn -0.428 0.4885 0.7603
vn 0.6817 -0.7294 0.0567
vn -0.412 0.4953 0.7648
vn -0.384 0.515 0.7663
vn -0.2517 0.36 0.8984
vn -0.4156 0.6042 0.6799
vn -0.4259 0.5097 0.7475
vn -0.3382 0.3623 0.8685
vn -0.5675 0.5897 0.5746
vn -0.4184 0.4536 0.7869
vn -0.5507 0.5967 0.5838
vn -0.3702 0.4076 0.8347
vn -0.5848 0.6503 0.4849
vn -0.5815 0.6461 0.4943
vn -0.3463 0.3934 0.8516
vn -0.3888 0.436 0.8116
vn -0.5984 0.685 0.4155
vn -0.5581 0.6297 0.5404
vn -0.3636 0.4181 0.8325
vn -0.3661 0.437 0.8216
vn -0.4956 0.565 0.6597
vn -0.1617 0.1084 0.9809
vn -0.3618 0.4315 0.8264
vn -0.3638 0.5079 0.7808
vn -0.1273 0.1938 0.9728
vn -0.4466 0.5611 0.697
vn -0.3247 0.416 0.8494
vn -0.5451 0.685 0.4834
vn -0.5469 0.6881 0.4769
vn -0.5077 0.6543 0.5604
vn -0.5354 0.6973 0.4766
vn -0.5336 0.5681 0.6265
vn -0.4599 0.5237 0.7171
vn -0.5107 0.5394 0.6694
vn -0.3877 0.4355 0.8124
vn -0.5606 0.635 0.5315
vn -0.387 0.4584 0.8001
vn -0.3558 0.4571 0.8152
vn -0.5361 0.5852 0.6084
vn -0.3837 0.4517 0.8054
vn -0.5511 0.6478 0.5259
vn -0.3836 0.6834 -0.6212
vn -0.3515 0.6695 -0.6545
vn -0.4097 0.7124 -0.5698
vn -0.323 0.6553 -0.6828
vn -0.1263 0.5364 -0.8344
vn -0.4487 0.7249 -0.5228
vn -0.3415 0.6577 -0.6714
vn -0.4357 0.7336 -0.5216
vn -0.3826 0.7113 -0.5897
vn -0.0114 0.4317 -0.902
vn -0.3797 0.7124 -0.5902
vn -0.0137 0.4686 -0.8833
vn -0.1185 0.526 -0.8422
vn -0.8885 0.062 0.4546
vn -0.8198 0.0213 0.5722
vn -0.5352 0.6396 0.5517
vn -0.1628 0.1054 0.981
vn -0.9769 0.2095 0.0423
vn -0.9962 -0.0491 0.0714
vn -0.99 0.1378 0.0299
vn -0.9898 0.1165 0.0822
vn -0.9884 0.1332 0.0733
vn -0.8048 0.3074 0.5077
vn -0.952 0.3056 0.0199
vn -0.7763 0.4408 0.4506
vn -0.9641 0.2468 0.0981
vn -0.9701 0.1547 0.187
vn -0.7052 0.0424 0.7077
vn -0.9463 0.3208 0.0395
vn -0.9773 0.1487 0.1507
vn -0.9533 0.21 0.2171
vn -0.9619 0.0534 0.268
vn -0.9423 0.1496 0.2996
vn -0.9375 0.1686 0.3045
vn -0.8122 0.3522 0.465
vn -0.6499 0.5665 0.5067
vn -0.591 0.4523 0.6679
vn -0.8847 0.3165 0.3424
vn -0.871 0.0012 0.4913
vn -0.8652 0.3729 0.3353
vn -0.7117 0.2675 0.6496
vn -0.3845 0.2242 0.8955
vn -0.9852 -0.1716 0.0028
vn -0.441 0.5096 0.7388
vn -0.9618 0.2547 0.1003
vn -0.9333 0.3578 0.0322
vn -0.9967 -0.0681 0.0437
vn -0.9847 -0.1718 0.0286
vn -0.9901 0.1141 0.0816
vn -0.9758 0.0549 0.2117
vn -0.9659 0.2322 0.1149
vn -0.9438 0.1717 0.2824
vn -0.9805 0.0863 0.1766
vn -0.9139 0.0201 0.4054
vn 0.7503 -0.5831 -0.3115
vn -0.774 0.4955 -0.3942
vn -0.8123 0.3384 -0.475
vn -0.49 0.5278 -0.6938
vn -0.9514 0.0306 -0.3063
vn -0.9763 -0.0016 -0.2162
vn -0.1281 0.492 -0.8611
vn -0.2934 0.6709 -0.681
vn -0.9852 -0.1268 -0.1152
vn -0.5732 0.6054 -0.5521
vn -0.9956 -0.0097 -0.0935
vn -0.9986 -0.0459 -0.0259
vn -0.9575 0.2546 -0.1359
vn -0.6774 0.0423 -0.7344
vn -0.8002 0.3377 -0.4956
vn -0.6318 0.6388 -0.439
vn -0.2383 -0.2394 -0.9412
vn -0.8809 0.2895 -0.3744
vn -0.9039 0.3275 -0.2751
vn -0.8819 0.2855 -0.3752
vn -0.6555 0.5458 -0.522
vn -0.6903 0.4312 -0.5809
vn -0.5716 -0.0423 -0.8195
vn -0.9056 0.3218 -0.2761
vn -0.8723 -0.188 -0.4514
vn -0.8105 0.3898 -0.4373
vn -0.7994 0.0769 -0.5958
vn -0.8305 0.1934 -0.5224
vn -0.9101 0.3633 -0.1995
vn -0.9413 -0.1375 -0.3083
vn -0.9382 0.2777 -0.2067
vn -0.9255 0.3561 -0.1288
vn -0.9545 0.2695 -0.1273
vn -0.9551 -0.2124 -0.2066
vn -0.3855 0.6994 -0.6018
vn -0.4209 0.6579 -0.6245
vn -0.9897 0.1379 -0.0381
vn -0.3491 0.6166 -0.7057
vn -0.3952 0.5544 -0.7325
vn -0.9989 -0.0409 -0.0246
vn -0.4142 0.6474 -0.6397
vn -0.3206 0.6178 -0.718
vn -0.3285 0.463 -0.8233
vn -0.3868 0.4931 -0.7792
vn -0.4467 0.6047 -0.6594
vn -0.5388 0.573 -0.6176
vn -0.579 0.5716 -0.5814
vn -0.9915 -0.128 0.0228
vn -0.936 0.3521 -0.0061
vn -0.986 0.1648 -0.0256
vn -0.9391 0.3435 0.008
vn -0.9868 -0.161 0.0201
vn -0.9961 -0.0878 0.003
vn -0.9408 0.3388 -0.0081
vn -0.9992 -0.0341 0.0193
vn -0.942 0.3356 0.0096
vn -0.9871 -0.159 0.0165
vn -0.705 -0.4111 -0.5779
vn -0.7736 -0.488 -0.4042
vn -0.2029 0.2153 0.9552
vn -0.8121 -0.556 0.1772
f 1//1 2//1 3//1
f 4//2 5//2 6//2
f 5//3 7//3 8//3
f 9//4 10//4 11//4
f 1//5 12//5 2//5
f 13//6 14//6 15//6
f 6//7 5//7 12//7
f 11//8 16//8 14//8
f 4//9 17//9 5//9
f 18//10 19//10 13//10
f 7//11 20//11 21//11
f 22//12 1//12 23//12
f 10//13 24//13 11//13
f 14//14 20//14 7//14
f 13//15 11//15 14//15
f 14//16 25//16 20//16
f 11//17 26//17 16//17
f 19//18 11//18 13//18
f 8//19 27//19 28//19
f 15//20 7//20 5//20
f 17//21 15//21 5//21
f 14//22 16//22 25//22
f 12//23 29//23 2//23
f 22//24 6//24 1//24
f 11//25 24//25 26//25
f 15//26 14//26 7//26
f 23//27 1//27 30//27
f 12//28 8//28 29//28
f 31//29 13//29 17//29
f 12//30 5//30 8//30
f 19//31 32//31 11//31
f 17//32 13//32 15//32
f 29//33 8//33 28//33
f 8//34 21//34 27//34
f 7//35 21//35 8//35
f 30//36 1//36 3//36
f 32//37 9//37 11//37
f 6//38 12//38 1//38
f 18//39 13//39 31//39
f 33//40 30//40 34//40
f 28//41 35//41 29//41
f 34//42 36//42 37//42
f 3//43 34//43 30//43
f 3//44 36//44 34//44
f 3//45 38//45 36//45
f 3//46 2//46 38//46
f 29//47 38//47 2//47
f 39//48 38//48 29//48
f 29//49 35//49 39//49
f 39//50 35//50 40//50
f 41//51 42//51 43//51
f 41//52 44//52 42//52
f 45//53 46//53 47//53
f 48//54 49//54 50//54
f 41//55 43//55 51//55
f 52//56 53//56 54//56
f 22//57 55//57 41//57
f 23//58 55//58 22//58
f 55//59 48//59 52//59
f 42//60 52//60 54//60
f 56//61 51//61 57//61
f 22//62 41//62 51//62
f 6//63 22//63 58//63
f 43//64 42//64 54//64
f 47//65 43//65 54//65
f 47//66 46//66 43//66
f 44//67 52//67 42//67
f 55//68 44//68 41//68
f 50//69 37//69 59//69
f 46//70 51//70 43//70
f 57//71 51//71 46//71
f 50//72 34//72 37//72
f 57//73 46//73 45//73
f 58//74 22//74 51//74
f 58//75 51//75 56//75
f 48//76 59//76 53//76
f 48//77 50//77 59//77
f 49//78 33//78 50//78
f 49//79 48//79 55//79
f 33//80 23//80 30//80
f 23//81 33//81 49//81
f 44//82 55//82 52//82
f 49//83 55//83 23//83
f 33//84 34//84 50//84
f 48//85 53//85 52//85
f 57//86 60//86 61//86
f 56//87 57//87 61//87
f 4//88 58//88 62//88
f 56//89 62//89 58//89
f 60//90 57//90 45//90
f 56//91 61//91 62//91
f 61//92 63//92 62//92
f 64//93 31//93 65//93
f 60//94 45//94 66//94
f 67//95 60//95 66//95
f 65//96 61//96 60//96
f 67//97 66//97 68//97
f 64//98 60//98 67//98
f 64//99 65//99 60//99
f 64//100 67//100 69//100
f 18//101 31//101 64//101
f 18//102 64//102 69//102
f 4//103 6//103 58//103
f 4//104 62//104 17//104
f 63//105 61//105 65//105
f 17//106 62//106 63//106
f 31//107 17//107 63//107
f 31//108 63//108 65//108
f 69//109 67//109 70//109
f 71//110 70//110 68//110
f 71//111 72//111 73//111
f 74//112 70//112 75//112
f 76//113 71//113 73//113
f 76//114 75//114 71//114
f 74//115 19//115 69//115
f 76//116 77//116 75//116
f 70//117 67//117 68//117
f 78//118 19//118 74//118
f 78//119 74//119 77//119
f 19//120 18//120 69//120
f 79//121 78//121 77//121
f 79//122 77//122 80//122
f 32//123 78//123 79//123
f 80//124 81//124 79//124
f 32//125 79//125 81//125
f 77//126 74//126 75//126
f 71//127 68//127 72//127
f 74//128 69//128 70//128
f 75//129 70//129 71//129
f 82//130 76//130 73//130
f 82//131 83//131 76//131
f 77//132 76//132 83//132
f 83//133 80//133 77//133
f 78//134 32//134 19//134
f 80//135 83//135 84//135
f 85//136 16//136 86//136
f 26//137 24//137 85//137
f 87//138 84//138 88//138
f 88//139 84//139 89//139
f 85//140 86//140 26//140
f 24//141 9//141 87//141
f 10//142 9//142 24//142
f 89//143 84//143 82//143
f 32//144 81//144 9//144
f 16//145 26//145 86//145
f 85//146 24//146 88//146
f 87//147 88//147 24//147
f 87//148 9//148 84//148
f 84//149 9//149 81//149
f 82//150 84//150 83//150
f 80//151 84//151 81//151
f 90//152 16//152 85//152
f 21//153 20//153 91//153
f 28//154 40//154 35//154
f 20//155 92//155 91//155
f 28//156 27//156 93//156
f 93//157 27//157 21//157
f 28//158 93//158 40//158
f 20//159 25//159 92//159
f 25//160 16//160 92//160
f 37//161 36//161 94//161
f 39//162 40//162 95//162
f 39//163 95//163 96//163
f 97//164 94//164 36//164
f 98//165 38//165 39//165
f 98//166 39//166 96//166
f 99//167 38//167 98//167
f 36//168 99//168 97//168
f 36//169 38//169 99//169
f 53//170 100//170 54//170
f 101//171 102//171 103//171
f 104//172 105//172 106//172
f 100//173 59//173 101//173
f 53//174 59//174 100//174
f 101//175 59//175 107//175
f 106//176 105//176 108//176
f 59//177 94//177 107//177
f 37//178 94//178 59//178
f 102//179 107//179 109//179
f 110//180 111//180 112//180
f 101//181 107//181 102//181
f 113//182 112//182 111//182
f 108//183 105//183 114//183
f 113//184 101//184 112//184
f 107//185 94//185 115//185
f 115//186 94//186 116//186
f 110//187 112//187 104//187
f 117//188 104//188 118//188
f 114//189 105//189 119//189
f 104//190 112//190 105//190
f 45//191 113//191 111//191
f 47//192 113//192 45//192
f 101//193 105//193 112//193
f 118//194 104//194 106//194
f 119//195 101//195 120//195
f 105//196 101//196 119//196
f 54//197 113//197 47//197
f 120//198 101//198 103//198
f 54//199 100//199 113//199
f 113//200 100//200 101//200
f 121//201 66//201 45//201
f 121//202 45//202 111//202
f 104//203 117//203 122//203
f 123//180 111//180 110//180
f 123//204 110//204 124//204
f 124//205 110//205 104//205
f 124//206 104//206 122//206
f 121//207 111//207 123//207
f 125//208 123//208 126//208
f 68//209 121//209 123//209
f 68//210 123//210 125//210
f 127//211 128//211 129//211
f 127//212 129//212 130//212
f 131//213 127//213 132//213
f 133//214 127//214 131//214
f 133//215 125//215 127//215
f 125//216 72//216 68//216
f 133//217 72//217 125//217
f 134//218 122//218 135//218
f 124//219 134//219 126//219
f 124//220 122//220 134//220
f 136//221 126//221 137//221
f 136//222 137//222 138//222
f 127//223 136//223 139//223
f 128//224 139//224 140//224
f 128//225 127//225 139//225
f 125//226 136//226 127//226
f 66//227 121//227 68//227
f 130//228 132//228 127//228
f 133//229 73//229 72//229
f 139//230 136//230 138//230
f 123//231 124//231 126//231
f 126//232 134//232 141//232
f 126//233 141//233 137//233
f 125//234 126//234 136//234
f 73//235 131//235 142//235
f 82//236 142//236 143//236
f 73//237 142//237 82//237
f 133//238 131//238 73//238
f 144//239 145//239 146//239
f 90//240 145//240 144//240
f 85//241 145//241 90//241
f 147//242 89//242 148//242
f 143//243 148//243 82//243
f 148//244 89//244 82//244
f 88//245 145//245 85//245
f 89//246 145//246 88//246
f 145//247 89//247 147//247
f 91//248 149//248 21//248
f 149//249 91//249 150//249
f 151//250 90//250 152//250
f 153//251 90//251 151//251
f 153//252 92//252 90//252
f 16//253 90//253 92//253
f 91//254 153//254 154//254
f 90//255 144//255 155//255
f 91//256 92//256 153//256
f 156//257 93//257 157//257
f 93//258 149//258 157//258
f 21//259 149//259 93//259
f 95//260 40//260 158//260
f 40//261 93//261 158//261
f 159//262 93//262 160//262
f 158//263 93//263 159//263
f 161//264 93//264 156//264
f 162//265 163//265 164//265
f 162//266 165//266 163//266
f 97//267 166//267 167//267
f 168//268 163//268 169//268
f 170//269 166//269 169//269
f 169//270 163//270 165//270
f 166//271 168//271 169//271
f 164//272 163//272 168//272
f 164//273 168//273 97//273
f 97//274 168//274 166//274
f 171//275 172//275 173//275
f 174//276 175//276 172//276
f 172//277 176//277 173//277
f 172//278 118//278 176//278
f 175//279 118//279 172//279
f 177//280 176//280 118//280
f 176//281 178//281 179//281
f 177//282 178//282 176//282
f 180//283 178//283 177//283
f 180//284 181//284 178//284
f 182//285 181//285 180//285
f 178//286 181//286 183//286
f 184//287 181//287 185//287
f 181//288 186//288 185//288
f 182//289 114//289 181//289
f 181//290 114//290 186//290
f 185//291 186//291 187//291
f 114//292 188//292 186//292
f 188//293 189//293 186//293
f 186//294 190//294 187//294
f 186//295 120//295 190//295
f 189//296 120//296 186//296
f 120//297 191//297 190//297
f 190//298 191//298 192//298
f 191//299 193//299 192//299
f 192//300 193//300 194//300
f 193//301 195//301 194//301
f 194//302 196//302 197//302
f 195//303 109//303 194//303
f 194//304 109//304 196//304
f 109//305 198//305 196//305
f 197//306 196//306 170//306
f 170//307 196//307 166//307
f 166//308 196//308 167//308
f 198//309 116//309 196//309
f 196//310 116//310 167//310
f 199//311 200//311 135//311
f 199//312 201//312 200//312
f 202//313 203//313 204//313
f 204//314 203//314 205//314
f 132//315 203//315 202//315
f 205//316 206//316 207//316
f 203//317 206//317 205//317
f 130//318 206//318 132//318
f 132//319 206//319 203//319
f 207//320 206//320 208//320
f 209//321 206//321 130//321
f 206//322 210//322 208//322
f 208//323 210//323 211//323
f 209//324 210//324 206//324
f 140//325 210//325 209//325
f 210//326 212//326 211//326
f 140//327 212//327 210//327
f 138//328 212//328 140//328
f 212//329 138//329 213//329
f 138//330 214//330 213//330
f 214//331 215//331 213//331
f 138//332 137//332 214//332
f 215//333 214//333 216//333
f 141//334 214//334 137//334
f 214//335 217//335 216//335
f 141//336 217//336 214//336
f 218//337 217//337 141//337
f 217//338 200//338 219//338
f 218//339 200//339 217//339
f 219//340 201//340 220//340
f 200//341 201//341 219//341
f 218//342 135//342 200//342
f 220//343 172//343 171//343
f 201//344 172//344 220//344
f 201//345 174//345 172//345
f 199//346 174//346 201//346
f 146//347 221//347 222//347
f 223//348 224//348 221//348
f 146//349 222//349 225//349
f 226//350 227//350 224//350
f 223//351 221//351 146//351
f 226//352 224//352 223//352
f 224//353 227//353 228//353
f 148//354 227//354 226//354
f 229//355 202//355 230//355
f 143//356 227//356 148//356
f 202//357 204//357 230//357
f 228//358 230//358 204//358
f 227//359 230//359 228//359
f 143//360 230//360 227//360
f 143//361 229//361 230//361
f 231//362 232//362 150//362
f 233//363 232//363 234//363
f 235//364 151//364 236//364
f 153//365 151//365 235//365
f 237//366 234//366 231//366
f 231//367 234//367 232//367
f 238//368 234//368 237//368
f 239//369 240//369 241//369
f 236//370 242//370 239//370
f 151//371 242//371 236//371
f 238//372 243//372 234//372
f 244//373 243//373 238//373
f 152//374 240//374 242//374
f 242//375 240//375 239//375
f 241//376 240//376 245//376
f 246//377 243//377 244//377
f 247//378 240//378 152//378
f 248//379 243//379 246//379
f 243//380 249//380 250//380
f 248//381 249//381 243//381
f 155//382 240//382 247//382
f 240//383 222//383 245//383
f 154//384 249//384 248//384
f 155//385 222//385 240//385
f 153//386 235//386 154//386
f 154//387 235//387 249//387
f 155//388 225//388 222//388
f 161//389 251//389 160//389
f 251//390 252//390 253//390
f 161//391 252//391 251//391
f 253//392 252//392 254//392
f 255//393 252//393 161//393
f 254//394 252//394 256//394
f 256//395 257//395 258//395
f 252//396 257//396 256//396
f 259//397 165//397 162//397
f 255//398 257//398 252//398
f 157//399 257//399 255//399
f 258//400 257//400 260//400
f 259//401 261//401 165//401
f 262//402 261//402 259//402
f 263//403 257//403 157//403
f 257//404 232//404 260//404
f 257//405 263//405 232//405
f 261//406 262//406 264//406
f 150//407 232//407 263//407
f 260//408 232//408 233//408
f 159//409 264//409 262//409
f 159//410 265//410 264//410
f 160//411 265//411 159//411
f 160//412 251//412 265//412
f 266//413 267//413 220//413
f 171//414 266//414 220//414
f 268//415 266//415 171//415
f 269//416 270//416 216//416
f 219//417 269//417 216//417
f 271//418 269//418 219//418
f 204//419 272//419 273//419
f 274//420 271//420 219//420
f 220//421 274//421 219//421
f 275//422 274//422 220//422
f 205//423 276//423 272//423
f 277//424 275//424 220//424
f 205//425 272//425 204//425
f 220//426 267//426 277//426
f 207//427 278//427 276//427
f 207//428 276//428 205//428
f 208//429 279//429 278//429
f 208//430 278//430 207//430
f 211//431 280//431 279//431
f 211//432 279//432 208//432
f 211//433 281//433 280//433
f 212//434 281//434 211//434
f 212//435 282//435 281//435
f 213//436 282//436 212//436
f 213//437 283//437 282//437
f 213//438 284//438 283//438
f 215//439 284//439 213//439
f 216//440 285//440 284//440
f 216//441 284//441 215//441
f 216//442 270//442 285//442
f 273//443 286//443 204//443
f 287//444 286//444 273//444
f 286//445 228//445 204//445
f 286//446 288//446 228//446
f 288//447 289//447 228//447
f 289//448 290//448 228//448
f 290//449 291//449 228//449
f 291//450 221//450 228//450
f 291//451 292//451 221//451
f 292//452 293//452 221//452
f 293//453 294//453 221//453
f 294//454 222//454 221//454
f 245//455 295//455 296//455
f 245//456 296//456 241//456
f 245//457 294//457 295//457
f 233//458 297//458 298//458
f 222//459 294//459 245//459
f 234//460 297//460 233//460
f 299//461 297//461 234//461
f 243//462 300//462 299//462
f 243//463 299//463 234//463
f 243//464 301//464 300//464
f 250//465 302//465 301//465
f 250//466 301//466 243//466
f 249//467 303//467 302//467
f 249//468 302//468 250//468
f 235//469 303//469 249//469
f 235//470 304//470 303//470
f 236//471 304//471 235//471
f 236//472 305//472 304//472
f 239//473 306//473 305//473
f 239//474 305//474 236//474
f 241//475 296//475 306//475
f 241//476 306//476 239//476
f 260//477 298//477 307//477
f 233//478 298//478 260//478
f 165//479 308//479 309//479
f 261//480 308//480 165//480
f 261//481 310//481 308//481
f 264//482 310//482 261//482
f 264//483 311//483 310//483
f 265//484 312//484 311//484
f 265//485 311//485 264//485
f 251//486 312//486 265//486
f 251//487 313//487 312//487
f 253//488 313//488 251//488
f 254//489 313//489 253//489
f 254//490 314//490 313//490
f 256//491 314//491 254//491
f 256//492 315//492 314//492
f 258//493 316//493 315//493
f 258//494 315//494 256//494
f 258//495 317//495 316//495
f 260//496 307//496 317//496
f 260//497 317//497 258//497
f 318//498 319//498 319//498
f 318//499 319//499 170//499
f 170//500 320//500 318//500
f 169//501 321//501 320//501
f 169//502 320//502 170//502
f 322//503 321//503 169//503
f 309//504 322//504 169//504
f 165//505 309//505 169//505
f 187//506 323//506 185//506
f 187//507 324//507 323//507
f 190//508 325//508 324//508
f 190//509 324//509 187//509
f 171//510 326//510 268//510
f 192//511 327//511 325//511
f 192//512 325//512 190//512
f 171//513 328//513 326//513
f 192//514 329//514 327//514
f 173//515 330//515 328//515
f 173//516 328//516 171//516
f 192//517 331//517 329//517
f 176//518 330//518 173//518
f 194//519 331//519 192//519
f 176//520 332//520 330//520
f 194//521 333//521 331//521
f 179//522 332//522 176//522
f 197//523 333//523 194//523
f 197//524 334//524 333//524
f 179//525 335//525 332//525
f 197//526 336//526 334//526
f 183//527 335//527 179//527
f 170//528 337//528 336//528
f 170//529 336//529 197//529
f 183//530 338//530 335//530
f 170//531 319//531 337//531
f 184//532 339//532 338//532
f 184//533 338//533 183//533
f 185//534 340//534 339//534
f 185//535 339//535 184//535
f 185//536 341//536 340//536
f 185//537 323//537 341//537
f 342//538 343//538 344//538
f 342//539 344//539 345//539
f 346//540 347//540 348//540
f 349//541 346//541 348//541
f 349//542 348//542 350//542
f 351//543 342//543 345//543
f 351//544 352//544 342//544
f 353//545 354//545 355//545
f 356//546 353//546 355//546
f 356//547 355//547 357//547
f 358//548 354//548 353//548
f 351//549 359//549 352//549
f 360//550 354//550 358//550
f 361//551 356//551 357//551
f 362//552 354//552 360//552
f 349//553 350//553 363//553
f 364//554 365//554 354//554
f 364//555 354//555 362//555
f 351//556 366//556 359//556
f 367//557 365//557 364//557
f 368//558 363//558 369//558
f 368//559 349//559 363//559
f 370//560 361//560 357//560
f 368//561 369//561 371//561
f 372//562 361//562 370//562
f 373//563 365//563 367//563
f 374//564 365//564 373//564
f 368//565 371//565 375//565
f 376//566 365//566 374//566
f 368//567 375//567 377//567
f 378//568 365//568 376//568
f 379//569 366//569 351//569
f 380//570 372//570 370//570
f 379//571 381//571 366//571
f 379//572 382//572 381//572
f 383//573 365//573 378//573
f 383//574 384//574 365//574
f 385//575 368//575 377//575
f 386//576 384//576 383//576
f 387//577 382//577 379//577
f 388//578 380//578 370//578
f 385//579 377//579 389//579
f 390//580 384//580 386//580
f 385//581 389//581 391//581
f 392//582 384//582 390//582
f 393//583 388//583 370//583
f 394//584 393//584 370//584
f 395//585 385//585 391//585
f 396//586 397//586 387//586
f 398//587 384//587 392//587
f 398//588 399//588 384//588
f 396//589 387//589 379//589
f 400//590 399//590 398//590
f 396//591 401//591 397//591
f 402//592 393//592 394//592
f 403//593 399//593 400//593
f 395//594 391//594 404//594
f 405//595 401//595 396//595
f 405//596 406//596 401//596
f 405//597 407//597 406//597
f 395//598 404//598 408//598
f 409//599 410//599 399//599
f 409//600 399//600 403//600
f 411//601 402//601 394//601
f 405//602 412//602 407//602
f 413//603 410//603 409//603
f 414//604 412//604 405//604
f 414//605 415//605 412//605
f 413//606 416//606 410//606
f 417//607 416//607 413//607
f 418//608 411//608 394//608
f 395//609 408//609 419//609
f 420//610 416//610 417//610
f 414//611 421//611 415//611
f 422//612 416//612 420//612
f 423//613 424//613 421//613
f 423//614 421//614 414//614
f 425//615 418//615 394//615
f 395//616 419//616 426//616
f 423//617 427//617 424//617
f 423//618 395//618 426//618
f 423//619 426//619 427//619
f 428//620 422//620 420//620
f 429//621 425//621 394//621
f 346//622 422//622 428//622
f 430//623 429//623 394//623
f 430//624 431//624 429//624
f 432//625 431//625 430//625
f 346//626 428//626 347//626
f 432//627 430//627 344//627
f 343//628 432//628 344//628
f 96//629 164//629 98//629
f 162//630 164//630 95//630
f 95//631 164//631 96//631
f 164//632 99//632 98//632
f 97//633 99//633 164//633
f 94//634 97//634 116//634
f 116//635 97//635 167//635
f 115//636 198//636 107//636
f 107//637 198//637 109//637
f 102//638 109//638 195//638
f 102//639 193//639 103//639
f 120//640 103//640 191//640
f 120//641 189//641 119//641
f 193//642 191//642 103//642
f 174//643 117//643 175//643
f 189//644 188//644 119//644
f 195//645 193//645 102//645
f 114//646 119//646 188//646
f 114//647 182//647 108//647
f 180//648 108//648 182//648
f 108//649 180//649 106//649
f 177//650 106//650 180//650
f 177//651 118//651 106//651
f 198//652 115//652 116//652
f 175//653 117//653 118//653
f 159//654 262//654 158//654
f 158//655 259//655 95//655
f 255//656 161//656 156//656
f 161//657 160//657 93//657
f 259//658 158//658 262//658
f 150//659 263//659 149//659
f 95//660 259//660 162//660
f 149//661 263//661 157//661
f 156//662 157//662 255//662
f 91//663 238//663 237//663
f 91//664 244//664 238//664
f 91//665 246//665 244//665
f 154//666 246//666 91//666
f 155//667 247//667 90//667
f 144//668 225//668 155//668
f 152//669 242//669 151//669
f 154//670 248//670 246//670
f 91//671 231//671 150//671
f 152//672 90//672 247//672
f 91//673 237//673 231//673
f 174//674 122//674 117//674
f 199//675 122//675 174//675
f 147//676 433//676 145//676
f 223//677 145//677 226//677
f 226//678 145//678 433//678
f 145//679 223//679 146//679
f 147//680 226//680 433//680
f 146//681 225//681 144//681
f 226//682 147//682 148//682
f 218//683 141//683 134//683
f 122//684 199//684 135//684
f 135//685 218//685 134//685
f 130//686 129//686 209//686
f 131//687 132//687 202//687
f 129//688 128//688 209//688
f 140//689 139//689 138//689
f 140//690 209//690 128//690
f 229//691 143//691 142//691
f 131//692 229//692 142//692
f 202//693 229//693 131//693
f 343//694 296//694 432//694
f 305//695 343//695 342//695
f 304//696 305//696 342//696
f 295//697 294//697 429//697
f 431//698 295//698 429//698
f 434//699 342//699 352//699
f 434//700 304//700 342//700
f 435//701 302//701 303//701
f 435//702 303//702 352//702
f 359//703 366//703 301//703
f 299//704 366//704 381//704
f 300//705 366//705 299//705
f 297//706 299//706 381//706
f 297//707 381//707 382//707
f 298//708 387//708 436//708
f 295//709 431//709 296//709
f 432//710 296//710 431//710
f 352//711 359//711 435//711
f 306//712 296//712 343//712
f 306//713 343//713 305//713
f 303//714 304//714 434//714
f 303//715 434//715 352//715
f 302//716 435//716 359//716
f 302//717 359//717 301//717
f 300//718 301//718 366//718
f 297//719 382//719 387//719
f 387//720 298//720 297//720
f 397//721 307//721 436//721
f 298//722 436//722 307//722
f 401//723 317//723 307//723
f 401//724 307//724 397//724
f 315//725 406//725 407//725
f 313//726 412//726 415//726
f 313//727 314//727 412//727
f 415//728 312//728 313//728
f 437//729 308//729 310//729
f 421//730 312//730 415//730
f 424//731 312//731 421//731
f 424//732 311//732 312//732
f 426//733 310//733 427//733
f 317//734 401//734 316//734
f 426//735 419//735 308//735
f 316//736 401//736 406//736
f 316//737 406//737 315//737
f 314//738 315//738 407//738
f 412//739 314//739 407//739
f 311//740 424//740 427//740
f 311//741 427//741 310//741
f 310//742 426//742 437//742
f 437//743 426//743 308//743
f 308//744 419//744 309//744
f 436//745 387//745 397//745
f 438//746 393//746 289//746
f 289//747 388//747 438//747
f 439//748 429//748 294//748
f 439//749 440//749 429//749
f 441//750 388//750 288//750
f 440//751 425//751 429//751
f 442//752 441//752 288//752
f 443//753 442//753 286//753
f 444//754 286//754 287//754
f 380//755 443//755 286//755
f 444//756 380//756 286//756
f 439//757 294//757 293//757
f 425//758 440//758 439//758
f 293//759 445//759 439//759
f 418//760 425//760 445//760
f 446//761 293//761 292//761
f 447//762 411//762 418//762
f 447//763 418//763 446//763
f 448//764 292//764 291//764
f 448//765 447//765 292//765
f 449//766 402//766 411//766
f 449//767 411//767 448//767
f 450//768 291//768 290//768
f 451//769 290//769 289//769
f 451//770 393//770 402//770
f 452//771 444//771 287//771
f 393//772 451//772 289//772
f 452//773 372//773 444//773
f 388//774 393//774 438//774
f 289//775 288//775 388//775
f 442//776 288//776 286//776
f 442//777 380//777 388//777
f 442//778 388//778 441//778
f 443//779 380//779 442//779
f 444//780 372//780 380//780
f 439//781 445//781 425//781
f 418//782 445//782 293//782
f 446//783 418//783 293//783
f 292//784 447//784 446//784
f 448//785 411//785 447//785
f 448//786 291//786 449//786
f 291//787 402//787 449//787
f 402//788 291//788 450//788
f 451//789 450//789 290//789
f 451//790 402//790 450//790
f 408//791 309//791 419//791
f 322//792 309//792 408//792
f 321//793 404//793 391//793
f 321//794 322//794 404//794
f 453//795 377//795 375//795
f 320//796 321//796 391//796
f 404//797 322//797 408//797
f 389//798 320//798 391//798
f 454//799 320//799 389//799
f 454//800 318//800 320//800
f 377//801 454//801 389//801
f 377//802 318//802 454//802
f 377//803 453//803 318//803
f 358//804 281//804 282//804
f 455//805 280//805 281//805
f 372//806 276//806 361//806
f 452//807 273//807 272//807
f 390//808 456//808 267//808
f 457//809 274//809 275//809
f 274//810 457//810 383//810
f 378//811 274//811 383//811
f 376//812 271//812 378//812
f 279//813 280//813 353//813
f 386//814 456//814 390//814
f 458//815 353//815 356//815
f 269//816 374//816 270//816
f 270//817 374//817 373//817
f 458//818 279//818 353//818
f 457//819 386//819 383//819
f 373//820 367//820 285//820
f 367//821 364//821 285//821
f 362//822 284//822 364//822
f 362//823 360//823 283//823
f 360//824 282//824 283//824
f 278//825 458//825 356//825
f 276//826 356//826 361//826
f 276//827 278//827 356//827
f 353//828 455//828 358//828
f 358//829 455//829 281//829
f 353//830 280//830 455//830
f 278//831 279//831 458//831
f 272//832 276//832 372//832
f 277//833 267//833 456//833
f 372//834 452//834 272//834
f 269//835 376//835 374//835
f 456//836 386//836 457//836
f 277//837 457//837 275//837
f 277//838 456//838 457//838
f 274//839 378//839 271//839
f 364//840 284//840 285//840
f 271//841 376//841 269//841
f 362//842 283//842 284//842
f 270//843 373//843 285//843
f 360//844 358//844 282//844
f 337//845 319//845 453//845
f 428//846 459//846 341//846
f 428//847 420//847 459//847
f 331//848 350//848 348//848
f 460//849 332//849 335//849
f 461//850 330//850 332//850
f 337//851 453//851 375//851
f 337//852 375//852 371//852
f 328//853 330//853 462//853
f 327//854 348//854 347//854
f 326//855 328//855 400//855
f 326//856 398//856 268//856
f 403//857 328//857 462//857
f 459//858 340//858 341//858
f 339//859 463//859 420//859
f 324//860 327//860 347//860
f 325//861 327//861 324//861
f 339//862 420//862 338//862
f 413//863 460//863 417//863
f 338//864 420//864 417//864
f 323//865 324//865 347//865
f 341//866 347//866 428//866
f 341//867 323//867 347//867
f 338//868 417//868 460//868
f 338//869 460//869 335//869
f 463//870 459//870 420//870
f 463//871 340//871 459//871
f 339//872 340//872 463//872
f 460//873 413//873 461//873
f 460//874 461//874 332//874
f 461//875 413//875 409//875
f 461//876 409//876 462//876
f 462//877 409//877 403//877
f 462//878 330//878 461//878
f 336//879 371//879 369//879
f 369//880 334//880 336//880
f 328//881 403//881 400//881
f 333//882 334//882 363//882
f 350//883 464//883 363//883
f 326//884 400//884 398//884
f 363//885 334//885 369//885
f 337//886 371//886 336//886
f 464//887 333//887 363//887
f 464//888 331//888 333//888
f 464//889 350//889 331//889
f 329//890 331//890 348//890
f 329//891 348//891 327//891
f 465//892 267//892 266//892
f 466//893 398//893 392//893
f 465//894 390//894 267//894
f 465//895 392//895 390//895
f 466//896 467//896 266//896
f 466//897 266//897 268//897
f 466//898 392//898 467//898
f 398//899 466//899 268//899
f 467//900 392//900 465//900
f 467//901 465//901 266//901
f 184//902 183//902 181//902
f 178//903 183//903 179//903
f 221//904 224//904 228//904
f 217//905 219//905 216//905