o obj1
v -0.025561 0.075895 0.040644
v -0.027075 0.075655 0.040002
v -0.027168 0.075641 0.040002
v -0.028323 0.075456 0.039169
v -0.027364 0.075605 0.037656
v -0.028255 0.075455 0.037825
v -0.028486 0.075425 0.036332
v -0.028263 0.075462 0.036048
v -0.028465 0.075429 0.035838
v -0.029118 0.075296 0.037631
v -0.027171 0.075639 0.039475
v -0.0224 0.076412 0.038188
v -0.023205 0.076281 0.038224
v -0.023133 0.076258 0.038642
v -0.022766 0.076307 0.038732
v -0.026198 0.075797 0.03845
v -0.027064 0.075656 0.039494
v -0.026896 0.075684 0.037743
v -0.026896 0.075684 0.036257
v -0.028191 0.075477 0.034947
v -0.027733 0.075548 0.035609
v -0.027868 0.075526 0.035527
v -0.027796 0.075538 0.035874
v -0.027739 0.075548 0.035762
v -0.027865 0.075527 0.035625
v -0.023759 0.076192 0.034392
v -0.023755 0.076192 0.03447
v -0.023388 0.076244 0.033968
v -0.027659 0.07556 0.035811
v -0.02897 0.075339 0.036124
v -0.027489 0.075588 0.034242
v -0.026198 0.075797 0.03555
v -0.025787 0.075853 0.035324
v -0.026302 0.075779 0.0345
v -0.024732 0.076034 0.03555
v -0.02427 0.076109 0.03458
v -0.02257 0.07639 0.034872
v -0.024034 0.076147 0.036257
v -0.023319 0.076253 0.036176
v -0.024342 0.076097 0.034014
v -0.02877 0.07538 0.037
v -0.024897 0.076006 0.033844
v -0.024796 0.075985 0.040728
v -0.024897 0.076006 0.040156
v -0.025788 0.075856 0.040326
v -0.02427 0.076109 0.034472
v -0.022429 0.076405 0.036344
v -0.021948 0.076486 0.037335
v -0.024897 0.076005 0.038844
v -0.023837 0.07614 0.039363
v -0.024732 0.076034 0.03845
v -0.024548 0.076064 0.034374
v -0.024359 0.076094 0.034374
v -0.028263 0.075462 0.035513
v -0.024566 0.076109 0.034472
v -0.02216 0.07645 0.036999
v -0.024359 0.076094 0.03458
v -0.024359 0.076094 0.034472
v -0.025787 0.075855 0.033675
v -0.027608 0.075562 0.036173
v -0.024975 0.075971 0.033281
v -0.026602 0.075731 0.039489
v -0.026462 0.075754 0.039558
v -0.026302 0.07578 0.039499
v -0.028006 0.075504 0.035743
v -0.026371 0.075769 0.039737
v -0.028083 0.075491 0.035713
v -0.025787 0.075853 0.038676
v -0.027895 0.075522 0.035904
v -0.024897 0.076005 0.035156
v -0.022429 0.076405 0.037656
v -0.028251 0.075464 0.035612
v -0.027863 0.075527 0.036014
v -0.028073 0.075492 0.035823
v -0.027063 0.075638 0.033641
v -0.026429 0.075759 0.039903
v -0.027096 0.075651 0.037001
v -0.024628 0.076051 0.0395
v -0.022615 0.076377 0.037932
v -0.022721 0.076417 0.037919
v -0.023834 0.076179 0.037
v -0.028094 0.07549 0.035992
v -0.02803 0.0755 0.035904
v -0.023564 0.076201 0.040135
v -0.026707 0.075714 0.039849
v -0.026453 0.075755 0.039779
v -0.026489 0.07575 0.039659
v -0.026575 0.075735 0.039903
v -0.028449 0.075432 0.035679
v -0.026609 0.07573 0.039588
v -0.022325 0.076385 0.038975
v -0.023205 0.076281 0.038125
v -0.022594 0.07638 0.038124
v -0.02355 0.076224 0.037668
v -0.028333 0.075451 0.03589
v -0.028208 0.075471 0.035943
v -0.028396 0.075441 0.035762
v -0.024034 0.076147 0.037743
v -0.026592 0.075733 0.040006
v -0.026755 0.075706 0.039929
v -0.027071 0.075655 0.039605
v -0.02183 0.076308 0.035499
v -0.021524 0.076329 0.036988
v -0.021809 0.07642 0.038063
v -0.022089 0.076108 0.039126
v -0.021627 0.07614 0.038212
v -0.024738 0.07575 0.03308
v -0.026136 0.075479 0.03305
v -0.023704 0.075844 0.033382
v -0.02256 0.076092 0.03424
v -0.021523 0.076164 0.036241
v -0.029332 0.07501 0.036562
v -0.029278 0.074953 0.037795
v -0.029109 0.075051 0.035645
v -0.0287 0.075186 0.034853
v -0.025906 0.075614 0.040943
v -0.028197 0.075185 0.034196
v -0.027559 0.075294 0.033663
v -0.027357 0.075567 0.04021
v -0.027256 0.075286 0.04056
v -0.028408 0.075141 0.039597
v -0.028925 0.075098 0.038781
v -0.02431 0.075761 0.040861
v -0.02334 0.075953 0.040367
v -0.023294 0.075984 0.040166
v -0.023676 0.076112 0.039796
v -0.023558 0.074603 0.039573
v -0.023626 0.075099 0.039354
v -0.02328 0.074648 0.03884
v -0.023105 0.075183 0.038676
v -0.022599 0.074759 0.03871
v -0.024897 0.076006 0.036344
v -0.024412 0.076086 0.03673
v -0.025234 0.075953 0.035924
v -0.026535 0.075742 0.03703
v -0.025788 0.075855 0.036174
v -0.02618 0.0758 0.036205
v -0.026302 0.075779 0.037001
v -0.025465 0.075915 0.037846
v -0.024826 0.076019 0.037913
v -0.024896 0.076006 0.037656
v -0.024628 0.076051 0.037
v -0.026034 0.075823 0.037931
v -0.026033 0.075822 0.037656
v -0.025253 0.075403 0.036437
v -0.02588 0.075352 0.036712
v -0.024822 0.075497 0.036917
v -0.025788 0.075359 0.03743
v -0.02505 0.075497 0.037466
v -0.024403 0.074973 0.037638
v -0.024302 0.074989 0.03658
v -0.025525 0.074791 0.038097
v -0.026004 0.074714 0.037795
v -0.026359 0.074656 0.03697
v -0.02672 0.074598 0.036257
v -0.026022 0.074711 0.03555
v -0.028011 0.074389 0.034949
v -0.027313 0.074502 0.034242
v -0.025858 0.074737 0.036069
v -0.024933 0.074887 0.035991
v -0.024556 0.074948 0.03555
v -0.02672 0.074598 0.037743
v -0.024679 0.074928 0.035866
v -0.024477 0.074961 0.035705
v -0.024658 0.074932 0.03612
v -0.024466 0.074963 0.035811
v -0.024305 0.074989 0.035728
v -0.024312 0.074988 0.035819
v -0.024604 0.07494 0.035912
v -0.024584 0.074944 0.036058
v -0.024431 0.074969 0.036252
v -0.024371 0.074978 0.036138
v -0.024234 0.075 0.035979
v -0.024157 0.075013 0.03603
v -0.023992 0.07504 0.035884
v -0.024187 0.075008 0.035853
v -0.023899 0.075055 0.035805
v -0.023265 0.075157 0.034242
v -0.024249 0.074998 0.036168
v -0.023992 0.07504 0.036203
v -0.028011 0.074389 0.039051
v -0.027313 0.074502 0.039758
v -0.023897 0.075055 0.036204
v -0.022567 0.07527 0.034949
v -0.024556 0.074948 0.03845
v -0.023858 0.075061 0.037743
v -0.022343 0.076242 0.039123
v -0.029244 0.074146 0.036566
v -0.027913 0.067933 0.035403
v -0.028302 0.067896 0.036579
v -0.026668 0.068134 0.033736
v -0.024997 0.068405 0.033063
v -0.025693 0.074671 0.032972
v -0.024983 0.074714 0.03292
v -0.023414 0.06866 0.033035
v -0.021045 0.069045 0.034568
v -0.020381 0.069153 0.036261
v -0.021311 0.07539 0.036541
v -0.024485 0.068522 0.032869
v -0.020193 0.069217 0.03679
v -0.021177 0.075241 0.037048
v -0.021352 0.075352 0.037583
v -0.02036 0.069156 0.037804
v -0.021962 0.074862 0.039205
v -0.021216 0.069027 0.039599
v -0.022333 0.074802 0.039882
v -0.021749 0.068935 0.04014
v -0.023034 0.074688 0.040292
v -0.029212 0.074098 0.037532
v -0.025543 0.074623 0.04108
v -0.025121 0.068384 0.040965
v -0.023529 0.068643 0.040945
v -0.02749 0.068001 0.039432
v -0.024855 0.074808 0.041028
v -0.028194 0.067895 0.037689
v -0.024061 0.068591 0.041131
v -0.029311 0.073909 0.037132
v -0.022418 0.07589 0.036727
v -0.023133 0.075753 0.036444
v -0.02347 0.075705 0.037067
v -0.024977 0.075483 0.039082
v -0.025723 0.075376 0.039032
v -0.02593 0.075305 0.039679
v -0.024891 0.075496 0.039781
v -0.025373 0.075423 0.040068
v -0.023171 0.075779 0.037507
v -0.0225 0.075894 0.037409
v -0.024886 0.075491 0.034228
v -0.025601 0.075353 0.033944
v -0.025938 0.075305 0.034567
v -0.025639 0.075379 0.035007
v -0.024968 0.075494 0.034909
v -0.027387 0.075102 0.036685
v -0.02784 0.075023 0.036432
v -0.028319 0.074958 0.036676
v -0.027354 0.075091 0.037272
v -0.028347 0.074953 0.037289
v -0.02784 0.075023 0.037568
v -0.025797 0.074545 0.037232
v -0.025429 0.074604 0.036397
v -0.024696 0.074723 0.03686
v -0.023268 0.074954 0.037335
v -0.023232 0.07496 0.036631
v -0.022537 0.075073 0.036463
v -0.022228 0.075123 0.037069
v -0.025837 0.074538 0.039355
v -0.025277 0.074629 0.038931
v -0.024704 0.074722 0.039287
v -0.02831 0.074138 0.036951
v -0.027747 0.074229 0.036406
v -0.027104 0.074333 0.037076
v -0.025761 0.07455 0.034232
v -0.025066 0.074663 0.033921
v -0.024742 0.074715 0.03486
v -0.025046 0.074666 0.037565
v -0.025663 0.074566 0.03493
v -0.027864 0.07421 0.037572
v -0.024949 0.074682 0.03999
v -0.025535 0.074587 0.039994
v -0.022606 0.075062 0.03755
vn -0.1411 0.9893 -0.0377
vn -0.1684 0.9857 -0.0096
vn -0.1615 0.9869 0.0018
vn -0.1791 0.9838 -0.0101
vn -0.1558 0.9878 -0.0034
vn -0.1558 0.9845 0.081
vn -0.1511 0.9845 0.0887
vn -0.1598 0.9872 0
vn -0.1636 0.9865 -0.0065
vn -0.1682 0.9857 0.011
vn -0.1642 0.9864 0.008
vn -0.1662 0.9861 0.0021
vn -0.1399 0.9902 -0.0002
vn -0.1598 0.9871 -0.0001
vn -0.1758 0.9844 0.0013
vn -0.1435 0.9895 -0.0166
vn -0.1625 0.9866 0.0141
vn -0.1599 0.9871 0
vn -0.1596 0.9871 -0.015
vn -0.1438 0.9894 0.0215
vn -0.1526 0.9882 -0.0116
vn -0.1727 0.985 -0.0062
vn -0.1535 0.9876 -0.0319
vn -0.1538 0.9862 0.0621
vn -0.1807 0.9835 0.0073
vn -0.1346 0.9908 0.0167
vn -0.1597 0.9872 -0
vn -0.1626 0.9867 -0.0017
vn -0.1599 0.9871 0.0057
vn 0.3644 0.8688 -0.3352
vn -0.1697 0.9855 0.0018
vn 0.0709 0.9975 0
vn -0.1469 0.9836 -0.1044
vn -0.1698 0.9853 0.0174
vn -0.1565 0.9872 -0.0304
vn -0.1697 0.9855 0.0062
vn -0.1592 0.9873 -0.0016
vn -0.1602 0.9871 0.0005
vn -0.1587 0.9873 -0.0005
vn -0.161 0.987 -0.0013
vn -0.1597 0.9872 0.0002
vn -0.1604 0.9871 0.0001
vn -0.1588 0.9872 -0.0112
vn -0.1602 0.9871 0.0006
vn -0.1501 0.9887 0.0022
vn -0.1598 0.9871 0.0039
vn -0.0065 0.9891 0.1471
vn -0.1659 0.9861 -0.0007
vn -0.1608 0.987 0.0011
vn -0.146 0.9892 0.014
vn -0.1634 0.9865 0.0055
vn -0.1659 0.9849 -0.0503
vn -0.1509 0.9885 0.0029
vn -0.1657 0.9862 -0.0028
vn -0.2238 0.9746 0.006
vn -0.1872 0.982 0.0272
vn -0.1677 0.9858 -0.0015
vn -0.1162 0.993 -0.0214
vn -0.1121 0.9928 -0.0426
vn -0.1775 0.984 -0.0185
vn -0.1608 0.987 0.0008
vn 0.3083 0.9024 0.3012
vn -0.1465 0.9892 -0.0031
vn -0.1686 0.9857 0.0021
vn -0.167 0.9858 -0.0144
vn -0.16 0.9871 -0.0002
vn -0.1694 0.9855 -0.0012
vn -0.1797 0.9836 -0.0144
vn -0.1592 0.9872 -0.001
vn -0.1571 0.9876 0.0067
vn -0.4628 0.8038 -0.3737
vn -0.1678 0.9858 0.0047
vn -0.1598 0.9872 0.0006
vn -0.1855 0.9825 0.0176
vn -0.1639 0.9855 0.0434
vn -0.1595 0.9872 -0.0011
vn 0.5804 -0.7781 0.24
vn -0.1535 0.9513 0.2675
vn -0.2452 0.9674 0.0632
vn -0.1435 0.9896 0.0139
vn -0.159 0.9873 -0.0058
vn -0.1599 0.9871 -0.0123
vn -0.1539 0.9877 -0.0263
vn -0.1614 0.9869 -0.0008
vn -0.1597 0.9861 -0.047
vn -0.1574 0.9875 0.0003
vn -0.1565 0.9877 0.0003
vn -0.1574 0.9875 -0.0055
vn -0.1576 0.9875 0
vn -0.2097 0.9736 0.0896
vn -0.2449 0.9651 -0.0928
vn -0.1775 0.9841 -0.002
vn -0.106 0.9936 0.0385
vn -0.158 0.9874 0.0047
vn -0.1523 0.9883 0.0114
vn -0.1577 0.9875 0.0035
vn -0.1294 0.9911 -0.0301
vn -0.0565 0.9974 0.0454
vn -0.1649 0.9863 0.0008
vn -0.1622 0.9868 0
vn -0.1745 0.9841 0.0318
vn -0.1597 0.9862 0.0443
vn -0.1588 0.9873 0.0045
vn 0.1791 0.9803 -0.0834
vn 0.2928 0.9533 -0.0735
vn 0.359 0.9332 0.0164
vn 0.618 0.7102 0.3373
vn 0.6581 0.6399 0.3967
vn 0.0699 0.9946 0.0771
vn -0.1005 0.6075 -0.7879
vn 0.1264 0.7376 -0.6633
vn 0.7868 0.5966 0.1581
vn 0.1267 0.7858 -0.6053
vn 0.338 0.6821 -0.6485
vn 0.2915 0.8671 -0.4039
vn 0.4158 0.8252 -0.3823
vn 0.6977 0.6999 -0.1532
vn -0.8933 0.4455 0.0594
vn -0.7042 0.7084 -0.0487
vn -0.7622 0.628 -0.157
vn -0.6738 0.703 -0.2276
vn -0.3897 0.9009 -0.1909
vn 0.0284 -0.9948 -0.0981
vn -0.1577 0.8043 0.5729
vn -0.4976 0.7785 -0.3825
vn -0.5161 0.7145 -0.4725
vn -0.3488 0.6789 0.6461
vn -0.2682 0.8373 0.4765
vn -0.3941 0.5207 -0.7573
vn -0.2133 0.9651 0.1521
vn -0.5758 0.5484 0.6064
vn -0.2242 0.7942 -0.5647
vn -0.2434 0.962 0.1239
vn -0.5418 0.7244 0.4261
vn -0.6395 0.6741 0.3696
vn -0.6038 0.7624 0.2325
vn -0.8367 0.4988 0.2262
vn 0.1743 0.752 0.6357
vn 0.1744 0.7517 0.636
vn -0.0016 0.5051 0.863
vn 0.589 0.7677 0.2524
vn 0.6062 0.6967 -0.3836
vn 0.9329 0.1196 -0.3398
vn 0.9326 0.123 -0.3394
vn 0.9709 0.1953 0.1387
vn 0.7953 -0.0755 0.6015
vn 0.8919 0.2802 0.355
vn 0.1424 0.2473 0.9584
vn -0.2436 0.0244 0.9696
vn -0.0878 -0.0239 0.9959
vn -0.1784 0.9838 0.0195
vn -0.1399 0.9901 0.0088
vn -0.1595 0.9872 -0.0087
vn -0.1602 0.9871 -0.0068
vn -0.1627 0.9867 -0.0009
vn -0.1685 0.9856 0.0113
vn -0.16 0.9871 -0.0082
vn -0.1628 0.9867 -0.0011
vn -0.1331 0.987 0.0901
vn -0.1597 0.9871 -0.0061
vn -0.1727 0.985 -0.0033
vn -0.1583 0.9874 0.0014
vn -0.1491 0.9888 -0.0061
vn -0.2247 0.2771 0.9342
vn 0.2443 0.6866 0.6848
vn 0.7593 0.4048 0.5095
vn -0.8993 0.2622 0.3502
vn -0.694 0.4911 0.5266
vn 0.1958 0.5122 -0.8363
vn -0.0784 0.6263 -0.7756
vn -0.3475 0.4174 -0.8396
vn -0.8511 0.3881 -0.3534
vn -0.8734 0.3554 -0.3331
vn 0.6767 0.7302 -0.0941
vn 0.7501 0.5648 -0.344
vn 0.9916 0.0862 0.0966
vn 0.902 0.2769 0.3312
vn 0.3892 -0.0843 0.9173
vn -0.0099 0.1539 0.988
vn -0.516 -0.118 0.8484
vn -0.8675 -0.0834 0.4904
vn -0.9012 -0.1683 0.3995
vn -0.1599 0.9871 -0.0001
vn -0.1598 0.9871 0.0001
vn -0.16 0.9871 0
vn -0.1598 0.9872 0.0001
vn -0.1595 0.9872 -0.0019
vn -0.1582 0.9874 0.0009
vn -0.1633 0.9866 -0.0002
vn -0.1601 0.9871 0.0003
vn -0.1604 0.9871 0.0004
vn -0.1616 0.9869 0.0006
vn -0.1581 0.9874 -0.0005
vn -0.1583 0.9874 -0.0005
vn -0.16 0.9871 0.0005
vn -0.1595 0.9872 0.0001
vn -0.1599 0.9871 0.0001
vn -0.4462 0.6685 0.595
vn 0.3355 0.6554 0.6767
vn -0.9659 -0.0992 -0.2393
vn -0.9466 -0.1493 -0.2857
vn -0.9384 -0.1421 -0.3149
vn -0.8718 -0.1304 -0.4721
vn -0.7871 -0.1313 -0.6027
vn -0.7868 -0.1312 -0.603
vn -0.6299 -0.0862 -0.7719
vn -0.3888 -0.0577 -0.9195
vn -0.3643 -0.0604 -0.9293
vn -0.2463 -0.0414 -0.9683
vn 0.0028 0.0977 -0.9952
vn -0.0814 0.171 -0.9819
vn 0.272 0.0838 -0.9587
vn 0.2932 0.058 -0.9543
vn 0.5853 0.0882 -0.806
vn 0.5352 0.0623 -0.8425
vn 0.8426 0.1571 -0.5151
vn 0.9237 0.1453 -0.3545
vn 0.9491 0.1538 -0.2749
vn 0.9174 0.1483 -0.3692
vn 0.968 0.2452 -0.0526
vn -0.3436 -0.0518 -0.9377
vn -0.0723 0.0025 -0.9974
vn 0.1506 0.0204 -0.9884
vn 0.9248 0.1535 -0.3481
vn 0.9644 0.1664 -0.2054
vn 0.647 0.7607 0.0531
vn 0.9475 0.1615 0.2759
vn 0.9737 0.1519 0.1699
vn 0.9786 0.2007 0.0461
vn 0.9631 0.2418 0.1181
vn 0.9624 0.1619 0.218
vn 0.8844 0.1189 0.4514
vn 0.8755 0.1317 0.4648
vn 0.8626 0.143 0.4852
vn 0.8892 0.143 0.4345
vn 0.7005 0.1008 0.7065
vn 0.7979 0.1025 -0.594
vn 0.7139 0.1566 -0.6825
vn 0.9447 0.2138 0.2487
vn -0.5968 -0.1177 0.7937
vn -0.6825 -0.0841 0.7261
vn 0.0211 0.0651 0.9977
vn -0.9952 -0.0893 0.0389
vn -0.9945 -0.1009 0.0279
vn -0.2796 0.0295 0.9597
vn 0.4926 0.0872 0.8659
vn 0.4443 0.0546 0.8942
vn 0.4607 0.0796 0.884
vn -0.3034 -0.038 0.9521
vn 0.4036 0.055 0.9133
vn -0.5268 -0.1136 0.8424
vn -0.6309 -0.0989 0.7695
vn 0.2328 0.037 0.9718
vn -0.8356 -0.1198 0.5361
vn -0.9227 -0.1542 0.3532
vn 0.0372 0.1517 0.9877
vn -0.9141 -0.1461 0.3784
vn -0.9571 -0.1507 0.2475
vn 0.0347 0.1485 0.9883
vn 0.3254 0.0573 0.9438
vn 0.0684 0.0254 0.9973
vn -0.1493 -0.0282 0.9884
vn -0.9416 -0.1468 0.3031
vn -0.9803 -0.1733 0.0946
vn -0.9731 -0.1471 -0.1773
vn -0.9234 0.3806 0.0493
vn -0.7782 -0 0.628
vn -0.6947 -0.1125 0.7104
vn -0.9923 -0.1237 0
vn -0.9868 -0.1599 0.0261
vn -0.6805 -0.0526 -0.7309
vn -0.6822 -0.0495 -0.7294
vn 0.6779 0.1437 -0.721
vn 0.7031 0.1139 -0.7019
vn 0.2373 0.4595 -0.8559
vn 0 0 -1
vn 0.6629 0.2712 -0.6978
vn 0.2866 -0.2643 -0.9209
vn -0.6685 -0.0993 -0.737
vn -0.6905 -0.2201 -0.689
vn 0.698 0.113 0.7071
vn 0.6919 0.1227 0.7115
vn 0.9871 0.1598 0
vn 0.9871 0.1599 0
vn 0.6979 0.1133 -0.7071
vn 0.6979 0.113 -0.7073
vn 0.6974 0.1167 0.7071
vn 0.6951 0.1126 0.71
vn -0.698 -0.113 0.7071
vn -0.698 -0.1131 0.7071
vn 0 0 1
vn 0.6876 0.17 0.7059
vn 0.7278 0.1179 0.6756
vn -0.7146 0.0466 0.698
vn -0.255 -0.3217 0.9119
vn -0.3976 0.5429 0.7397
vn -0.2352 0.3905 0.8901
vn 0.6677 0.5783 0.4688
vn 0.739 0.5107 0.4393
vn -0.903 0.2449 0.353
vn -0.2385 0.4326 0.8695
vn -0.1371 0.5809 0.8023
vn 0.6165 0.6505 0.4436
vn 0.877 0.3576 0.321
vn -0.8786 0.4669 0.1003
vn -0.8913 0.2946 0.3447
vn 0.3116 0.6887 -0.6547
vn -0.4956 0.5106 -0.7026
vn -0.2297 0.3257 -0.9172
vn -0.9022 0.2489 -0.3523
vn 0.7603 0.4024 -0.5099
vn 0.5648 0.6601 -0.4952
vn 0.1599 0.4536 -0.8767
vn -0.2163 0.6325 -0.7438
vn -0.5994 0.4136 -0.6853
vn -0.8926 0.2903 -0.3449
vn -0.882 0.4588 -0.1073
vn 0.7637 0.5352 -0.3609
vn -0.3976 0.5428 0.7398
vn -0.2353 0.3904 0.8901
vn 0.6676 0.5783 0.4689
vn 0.739 0.5108 0.4393
vn -0.8662 0.2873 0.4089
vn 0.6415 0.555 -0.5296
vn -0.2077 0.4986 -0.8416
vn -0.2396 0.4484 -0.8611
vn -0.8748 0.3036 -0.3776
vn -0.8651 0.4903 -0.1056
vn 0.7218 0.4843 -0.4944
vn -0.481 0.5391 0.6914
vn 0.2821 0.6322 0.7216
vn 0.1034 0.3931 0.9137
vn 0.7623 0.5377 0.3603
vn -0.8953 0.4416 0.0591
vn 0.6975 0.7156 0.0384
vn -0.8473 0.1586 0.5069
vn 0.2814 0.6758 -0.6812
vn -0.4973 0.5119 -0.7005
vn -0.2294 0.3254 -0.9173
vn -0.9029 0.245 -0.3531
vn 0.7586 0.4055 -0.5099
vn -0.9082 -0.1248 -0.3996
vn -0.8496 -0.1946 -0.4903
vn -0.2897 0.035 -0.9565
vn -0.0705 -0.082 -0.9941
vn 0.6759 0.1658 -0.7181
vn 0.6629 0.1416 -0.7352
vn 0.8496 0.3443 0.3995
vn 0.4067 -0.1355 0.9035
vn -0.7172 -0.1661 0.6768
vn -0.5414 0.0774 0.8372
vn 0.9597 0.2763 0.0516
vn 0.8795 0.0026 0.4758
vn 0.1988 0.2016 0.9591
vn -0.315 -0.2501 0.9155
vn -0.8903 -0.0183 0.4551
vn 0.9523 -0.012 0.3048
vn 0.5638 0.2292 0.7935
vn -0.0425 -0.1589 0.9864
vn -0.5318 0.0374 0.8461
vn -0.9442 -0.3061 0.1218
vn 0.9986 0.0267 0.0464
vn 0.6534 0.2471 0.7156
vn 0.4521 0.024 0.8917
vn -0.4753 -0.0841 0.8758
vn -0.7254 0.0804 0.6836
vn -0.9449 -0.324 0.047
vn 0.8798 -0.0048 0.4754
vn 0.3608 0.2503 0.8984
vn -0.3097 -0.2701 0.9116
vn -0.9435 0.0861 0.3201
vn -0.9167 -0.1202 -0.3811
vn -0.8929 -0.058 -0.4466
vn 0.0709 -0.1179 -0.9905
vn 0.3664 0.2158 -0.9051
vn 0.9917 0.0198 -0.1273
vn -0.9563 -0.2695 -0.1129
vn -0.1472 0.0199 -0.9889
vn -0.0907 0.0968 -0.9912
vn 0.8243 0.0292 -0.5655
vn 0.9484 0.2843 -0.1402
vn -0.5238 0.0471 -0.8505
vn -0.5478 0.0115 -0.8365
vn 0.4849 -0.0187 -0.8744
vn 0.7657 0.276 -0.581
vn -0.9435 -0.0172 -0.3308
vn -0.4823 -0.185 -0.8562
vn -0.0228 0.0923 -0.9955
vn 0.5776 -0.0406 -0.8153
vn 0.8585 0.2849 -0.4264
vn -0.9517 -0.2858 -0.1122
vn -0.7861 -0.0043 -0.6181
vn -0.1168 -0.1515 -0.9815
vn 0.2809 0.1638 -0.9456
vn 0.8251 0.0201 -0.5646
f 1//1 2//1 3//1
f 4//2 5//2 6//2
f 7//3 8//3 9//3
f 10//4 4//4 6//4
f 4//5 3//5 11//5
f 12//6 13//6 14//6
f 12//7 14//7 15//7
f 16//8 11//8 17//8
f 4//9 18//9 5//9
f 19//10 20//10 21//10
f 21//11 20//11 22//11
f 23//12 24//12 25//12
f 26//13 27//13 28//13
f 19//14 21//14 29//14
f 7//15 9//15 30//15
f 31//16 32//16 33//16
f 31//17 33//17 34//17
f 35//18 27//18 36//18
f 27//19 37//19 28//19
f 37//20 38//20 39//20
f 40//21 26//21 28//21
f 41//22 7//22 30//22
f 42//23 40//23 28//23
f 43//24 44//24 45//24
f 36//18 27//18 46//18
f 47//25 48//25 37//25
f 49//26 50//26 51//26
f 52//27 53//27 40//27
f 52//28 40//28 42//28
f 54//29 22//29 20//29
f 55//30 52//30 42//30
f 56//31 48//31 47//31
f 55//32 57//32 58//32
f 59//33 42//33 28//33
f 60//34 19//34 29//34
f 59//35 28//35 61//35
f 39//36 47//36 37//36
f 62//37 63//37 64//37
f 65//38 23//38 25//38
f 66//39 64//39 63//39
f 67//40 25//40 22//40
f 67//41 22//41 54//41
f 67//42 65//42 25//42
f 62//43 64//43 68//43
f 69//44 23//44 65//44
f 66//45 45//45 64//45
f 70//46 36//46 57//46
f 70//47 57//47 55//47
f 71//48 48//48 56//48
f 72//49 67//49 54//49
f 60//50 29//50 73//50
f 72//51 74//51 67//51
f 75//52 59//52 61//52
f 76//53 45//53 66//53
f 35//54 36//54 70//54
f 10//55 41//55 30//55
f 10//56 6//56 41//56
f 77//57 19//57 60//57
f 78//58 50//58 49//58
f 1//59 43//59 45//59
f 79//60 48//60 71//60
f 12//61 48//61 79//61
f 80//62 79//62 71//62
f 81//63 39//63 38//63
f 68//64 49//64 51//64
f 75//65 34//65 59//65
f 82//66 73//66 83//66
f 33//67 35//67 70//67
f 43//68 84//68 50//68
f 85//69 86//69 87//69
f 85//70 88//70 86//70
f 30//71 89//71 54//71
f 30//72 54//72 20//72
f 85//69 87//69 90//69
f 17//73 90//73 62//73
f 15//74 91//74 48//74
f 60//75 73//75 82//75
f 85//76 90//76 17//76
f 15//77 48//77 12//77
f 92//78 93//78 80//78
f 92//79 80//79 94//79
f 17//80 68//80 16//80
f 95//81 96//81 74//81
f 17//82 62//82 68//82
f 31//83 34//83 75//83
f 95//84 72//84 97//84
f 32//85 35//85 33//85
f 95//86 74//86 72//86
f 98//87 94//87 81//87
f 98//18 13//18 92//18
f 98//88 92//88 94//88
f 98//89 81//89 38//89
f 14//90 13//90 98//90
f 20//91 31//91 75//91
f 9//92 89//92 30//92
f 78//93 43//93 50//93
f 7//94 82//94 8//94
f 7//95 60//95 82//95
f 1//96 76//96 99//96
f 1//97 45//97 76//97
f 44//98 43//98 78//98
f 18//99 77//99 5//99
f 18//100 19//100 77//100
f 1//101 99//101 100//101
f 16//102 68//102 51//102
f 2//103 1//103 100//103
f 2//8 100//8 101//8
f 48//104 102//104 37//104
f 48//105 103//105 102//105
f 104//106 103//106 48//106
f 91//107 105//107 106//107
f 91//108 106//108 104//108
f 48//109 91//109 104//109
f 61//110 107//110 108//110
f 61//111 109//111 107//111
f 104//112 106//112 103//112
f 28//113 109//113 61//113
f 28//114 110//114 109//114
f 37//115 110//115 28//115
f 102//116 110//116 37//116
f 103//117 111//117 102//117
f 112//118 113//118 10//118
f 30//119 112//119 10//119
f 30//120 114//120 112//120
f 115//121 114//121 30//121
f 75//122 115//122 30//122
f 75//123 30//123 20//123
f 116//124 43//124 1//124
f 75//125 117//125 115//125
f 75//126 118//126 117//126
f 119//127 120//127 116//127
f 119//128 116//128 1//128
f 75//129 108//129 118//129
f 119//130 1//130 3//130
f 119//131 121//131 120//131
f 61//132 108//132 75//132
f 119//133 3//133 4//133
f 4//134 121//134 119//134
f 122//135 121//135 4//135
f 10//136 122//136 4//136
f 10//137 113//137 122//137
f 43//138 123//138 124//138
f 43//139 124//139 84//139
f 43//140 116//140 123//140
f 125//141 84//141 124//141
f 125//142 126//142 84//142
f 126//143 50//143 84//143
f 126//144 127//144 50//144
f 50//145 127//145 128//145
f 128//146 129//146 130//146
f 127//147 129//147 128//147
f 129//148 131//148 130//148
f 14//149 130//149 15//149
f 130//150 131//150 15//150
f 132//151 133//151 134//151
f 135//152 136//152 137//152
f 138//153 136//153 135//153
f 139//154 140//154 141//154
f 142//155 133//155 132//155
f 136//156 132//156 134//156
f 143//157 140//157 139//157
f 140//158 133//158 142//158
f 137//159 136//159 134//159
f 143//160 139//160 144//160
f 141//161 140//161 142//161
f 135//162 144//162 138//162
f 143//163 144//163 135//163
f 132//164 136//164 145//164
f 145//165 136//165 146//165
f 138//166 146//166 136//166
f 132//167 147//167 142//167
f 132//168 145//168 147//168
f 144//169 139//169 148//169
f 148//170 139//170 149//170
f 139//171 141//171 149//171
f 141//172 147//172 149//172
f 142//173 147//173 141//173
f 146//174 138//174 148//174
f 144//175 148//175 138//175
f 150//176 151//176 133//176
f 150//177 133//177 140//177
f 152//178 150//178 140//178
f 152//179 140//179 143//179
f 153//180 152//180 143//180
f 153//181 143//181 135//181
f 154//182 153//182 135//182
f 155//18 156//18 157//18
f 157//18 156//18 158//18
f 155//183 159//183 156//183
f 155//18 154//18 159//18
f 160//184 161//184 159//184
f 159//183 161//183 156//183
f 155//18 162//18 154//18
f 160//185 163//185 161//185
f 163//186 164//186 161//186
f 160//185 165//185 163//185
f 162//18 153//18 154//18
f 166//187 167//187 164//187
f 164//184 167//184 161//184
f 166//188 168//188 167//188
f 169//189 170//189 166//189
f 160//190 151//190 165//190
f 165//191 151//191 171//191
f 170//192 172//192 166//192
f 166//193 172//193 168//193
f 168//194 172//194 173//194
f 174//18 175//18 176//18
f 161//18 177//18 178//18
f 167//195 177//195 161//195
f 171//196 151//196 179//196
f 179//183 180//183 174//183
f 151//18 180//18 179//18
f 174//185 180//185 175//185
f 181//18 152//18 162//18
f 162//197 152//197 153//197
f 181//18 182//18 152//18
f 151//66 183//66 180//66
f 183//183 184//183 177//183
f 177//18 184//18 178//18
f 152//18 185//18 150//18
f 150//18 186//18 151//18
f 185//18 186//18 150//18
f 151//18 186//18 183//18
f 185//18 130//18 186//18
f 185//14 128//14 130//14
f 15//198 187//198 91//198
f 187//199 105//199 91//199
f 114//200 188//200 112//200
f 189//201 188//201 114//201
f 189//202 190//202 188//202
f 189//203 114//203 115//203
f 191//204 115//204 117//204
f 191//205 189//205 115//205
f 191//206 117//206 118//206
f 191//207 118//207 108//207
f 192//208 191//208 108//208
f 192//209 108//209 193//209
f 107//210 193//210 108//210
f 107//211 194//211 193//211
f 109//212 194//212 107//212
f 195//213 194//213 109//213
f 196//214 109//214 110//214
f 196//215 195//215 109//215
f 196//216 110//216 102//216
f 196//217 102//217 111//217
f 197//218 111//218 198//218
f 197//219 196//219 111//219
f 103//220 198//220 111//220
f 199//221 192//221 193//221
f 199//222 193//222 194//222
f 195//223 199//223 194//223
f 200//224 197//224 198//224
f 200//225 198//225 201//225
f 201//226 198//226 202//226
f 203//227 201//227 202//227
f 203//228 200//228 201//228
f 103//229 202//229 198//229
f 106//230 202//230 103//230
f 203//231 202//231 106//231
f 204//232 106//232 105//232
f 203//233 106//233 204//233
f 205//234 204//234 206//234
f 205//235 203//235 204//235
f 206//236 207//236 205//236
f 127//18 208//18 206//18
f 127//18 206//18 129//18
f 206//18 204//18 131//18
f 206//18 131//18 129//18
f 127//237 125//237 208//237
f 127//238 126//238 125//238
f 125//239 124//239 208//239
f 204//240 187//240 131//240
f 187//241 15//241 131//241
f 204//242 105//242 187//242
f 112//243 209//243 113//243
f 188//244 209//244 112//244
f 120//245 210//245 116//245
f 207//246 206//246 208//246
f 123//247 208//247 124//247
f 207//248 208//248 123//248
f 211//249 210//249 120//249
f 212//250 207//250 123//250
f 213//251 211//251 120//251
f 213//252 120//252 121//252
f 212//253 123//253 214//253
f 213//254 121//254 122//254
f 213//255 122//255 113//255
f 116//256 214//256 123//256
f 215//257 213//257 113//257
f 215//258 113//258 209//258
f 116//259 210//259 214//259
f 216//260 212//260 214//260
f 216//261 214//261 210//261
f 211//262 216//262 210//262
f 215//263 209//263 217//263
f 190//264 215//264 217//264
f 190//265 217//265 188//265
f 209//266 188//266 217//266
f 14//267 186//267 130//267
f 14//268 98//268 186//268
f 183//269 98//269 38//269
f 186//270 98//270 183//270
f 183//271 37//271 184//271
f 38//272 37//272 183//272
f 185//273 50//273 128//273
f 51//274 50//274 185//274
f 16//275 185//275 152//275
f 16//276 51//276 185//276
f 181//277 4//277 182//277
f 4//278 11//278 182//278
f 11//279 152//279 182//279
f 11//280 16//280 152//280
f 18//281 181//281 162//281
f 18//282 4//282 181//282
f 19//283 18//283 155//283
f 18//284 162//284 155//284
f 20//285 155//285 157//285
f 20//286 19//286 155//286
f 158//287 20//287 157//287
f 31//288 20//288 158//288
f 32//289 158//289 156//289
f 32//290 31//290 158//290
f 161//291 32//291 156//291
f 35//291 32//291 161//291
f 27//292 161//292 178//292
f 27//293 35//293 161//293
f 184//294 37//294 178//294
f 37//295 27//295 178//295
f 218//296 47//296 219//296
f 47//297 39//297 219//297
f 81//298 220//298 39//298
f 39//299 220//299 219//299
f 47//300 218//300 56//300
f 49//301 68//301 221//301
f 221//302 68//302 222//302
f 64//303 223//303 68//303
f 68//304 223//304 222//304
f 224//305 78//305 221//305
f 49//306 221//306 78//306
f 223//307 45//307 225//307
f 225//308 44//308 224//308
f 45//309 44//309 225//309
f 78//310 224//310 44//310
f 45//311 223//311 64//311
f 94//312 226//312 220//312
f 94//313 80//313 226//313
f 226//314 80//314 227//314
f 80//315 71//315 227//315
f 56//316 227//316 71//316
f 227//317 56//317 218//317
f 94//318 220//318 81//318
f 228//319 42//319 229//319
f 42//320 59//320 229//320
f 34//321 230//321 59//321
f 59//322 230//322 229//322
f 42//323 228//323 55//323
f 33//324 231//324 230//324
f 231//325 33//325 232//325
f 33//326 70//326 232//326
f 55//327 232//327 70//327
f 232//328 55//328 228//328
f 33//329 230//329 34//329
f 233//330 60//330 234//330
f 234//331 7//331 235//331
f 60//332 7//332 234//332
f 41//333 235//333 7//333
f 236//334 77//334 233//334
f 235//335 41//335 237//335
f 60//336 233//336 77//336
f 237//337 6//337 238//337
f 238//338 5//338 236//338
f 6//339 5//339 238//339
f 77//340 236//340 5//340
f 6//341 237//341 41//341
f 154//342 135//342 137//342
f 159//343 154//343 137//343
f 159//344 137//344 134//344
f 160//345 159//345 134//345
f 151//346 134//346 133//346
f 151//347 160//347 134//347
f 239//348 240//348 146//348
f 146//349 240//349 145//349
f 145//350 241//350 147//350
f 240//351 241//351 145//351
f 242//352 243//352 220//352
f 220//353 243//353 219//353
f 243//354 244//354 219//354
f 219//355 244//355 218//355
f 244//356 245//356 218//356
f 223//357 246//357 222//357
f 246//358 247//358 222//358
f 222//359 247//359 221//359
f 247//360 248//360 221//360
f 221//361 248//361 224//361
f 237//362 249//362 235//362
f 249//363 250//363 235//363
f 235//364 250//364 234//364
f 234//365 250//365 233//365
f 250//366 251//366 233//366
f 233//367 251//367 236//367
f 230//368 252//368 229//368
f 252//369 253//369 229//369
f 229//370 253//370 228//370
f 253//371 254//371 228//371
f 147//372 241//372 149//372
f 241//373 255//373 149//373
f 149//374 255//374 148//374
f 255//375 239//375 148//375
f 148//376 239//376 146//376
f 228//377 254//377 232//377
f 232//378 254//378 231//378
f 254//379 256//379 231//379
f 231//380 256//380 230//380
f 256//381 252//381 230//381
f 236//382 251//382 238//382
f 251//383 257//383 238//383
f 238//384 257//384 237//384
f 257//385 249//385 237//385
f 248//386 258//386 224//386
f 224//387 258//387 225//387
f 258//388 259//388 225//388
f 225//389 259//389 223//389
f 259//390 246//390 223//390
f 218//391 245//391 227//391
f 245//392 260//392 227//392
f 227//393 260//393 226//393
f 260//394 242//394 226//394
f 226//395 242//395 220//395