o obj1
v -0.03495 -0.039897 0.083757
v -0.035319 -0.040207 0.083645
v -0.035691 -0.03916 0.082572
v -0.037356 -0.037487 0.089833
v -0.038026 -0.037475 0.089875
v -0.036504 -0.03834 0.089637
v -0.036093 -0.039433 0.082482
v -0.036759 -0.03876 0.08962
v -0.036977 -0.03787 0.081765
v -0.03567 -0.039185 0.088991
v -0.037185 -0.038349 0.081808
v -0.036043 -0.039477 0.089047
v -0.035421 -0.0401 0.088177
v -0.034974 -0.039873 0.087896
v -0.034956 -0.040566 0.086727
v -0.03462 -0.040216 0.086598
v -0.034584 -0.040256 0.085308
v -0.034927 -0.040603 0.085117
v -0.035273 -0.040673 0.086234
v -0.036305 -0.03964 0.088834
v -0.038545 -0.037399 0.082093
v -0.036701 -0.039244 0.082404
v -0.037973 -0.037972 0.08958
v -0.035633 -0.04031 0.083984
v -0.037149 -0.038511 0.084286
v -0.03703 -0.038903 0.084389
v -0.037696 -0.038244 0.084167
v -0.037746 -0.038207 0.083521
v -0.03739 -0.038455 0.083359
v -0.037447 -0.038174 0.083831
v -0.036492 -0.03818 0.083419
v -0.036914 -0.037756 0.083551
v -0.037007 -0.038638 0.083423
v -0.03694 -0.03773 0.084011
v -0.036664 -0.038006 0.084266
v -0.036298 -0.039345 0.08576
v -0.036187 -0.039743 0.085877
v -0.036851 -0.03909 0.085662
v -0.036702 -0.039224 0.084764
v -0.036101 -0.039552 0.084946
v -0.03654 -0.039086 0.085036
v -0.036597 -0.039066 0.085478
v -0.035629 -0.039042 0.084953
v -0.036093 -0.038578 0.085038
v -0.036037 -0.038633 0.085635
v -0.035708 -0.038963 0.085724
v -0.03658 -0.039067 0.087614
v -0.03688 -0.039061 0.087805
v -0.037036 -0.03881 0.08738
v -0.036495 -0.039435 0.086595
v -0.036499 -0.039166 0.086761
v -0.036853 -0.038794 0.086872
v -0.037131 -0.038809 0.0868
v -0.035987 -0.038684 0.086746
v -0.036432 -0.03824 0.087033
v -0.036287 -0.038384 0.08754
v -0.035961 -0.038709 0.087559
v -0.038437 -0.037501 0.085721
v -0.038055 -0.037817 0.085311
v -0.038151 -0.037503 0.085821
v -0.038084 -0.037781 0.086269
v -0.037594 -0.038043 0.085471
v -0.037459 -0.037212 0.085377
v -0.037627 -0.037044 0.086
v -0.037185 -0.037486 0.086203
v -0.039008 -0.036928 0.084248
v -0.03861 -0.037053 0.084232
v -0.038344 -0.037589 0.084334
v -0.038561 -0.037069 0.083395
v -0.039013 -0.036927 0.083438
v -0.038406 -0.037538 0.08315
v -0.03881 -0.036833 0.083855
v -0.037821 -0.03685 0.083453
v -0.038265 -0.036406 0.083551
v -0.038291 -0.03638 0.084011
v -0.03801 -0.03666 0.084272
v -0.039424 -0.036213 0.084867
v -0.03995 -0.035988 0.085248
v -0.039577 -0.036364 0.084673
v -0.039655 -0.035995 0.085376
v -0.03967 -0.036272 0.085905
v -0.039345 -0.036295 0.08575
v -0.038662 -0.036008 0.084953
v -0.03902 -0.035651 0.08494
v -0.039168 -0.035502 0.085347
v -0.038866 -0.035807 0.085786
v -0.03943 -0.03649 0.086627
v -0.039079 -0.036568 0.086714
v -0.039366 -0.03629 0.087199
v -0.039583 -0.036357 0.087521
v -0.039212 -0.03665 0.087676
v -0.038698 -0.035973 0.086759
v -0.038835 -0.035837 0.0874
v -0.038478 -0.036193 0.087592
v -0.03785 -0.037796 0.08756
v -0.038347 -0.037594 0.087624
v -0.037845 -0.038095 0.087364
v -0.038145 -0.037491 0.088024
v -0.038364 -0.037575 0.088355
v -0.037813 -0.037835 0.088444
v -0.037706 -0.038223 0.08857
v -0.037198 -0.037472 0.087595
v -0.037634 -0.037038 0.087819
v -0.037503 -0.037168 0.08837
v -0.037177 -0.037493 0.088389
v -0.037546 -0.038114 0.088162
v -0.037024 -0.037646 0.087985
v -0.037594 -0.038252 0.087788
v -0.038796 -0.036834 0.087462
v -0.038251 -0.03642 0.087313
v -0.03877 -0.036883 0.08696
v -0.038326 -0.036344 0.086867
v -0.03881 -0.037131 0.087542
v -0.038802 -0.037137 0.086785
v -0.039063 -0.036597 0.085472
v -0.038548 -0.036123 0.0854
v -0.03907 -0.036583 0.0851
v -0.039153 -0.036783 0.085768
v -0.039102 -0.036836 0.084925
v -0.038262 -0.037378 0.084119
v -0.03773 -0.03694 0.084011
v -0.038234 -0.037434 0.083585
v -0.038253 -0.037685 0.083448
v -0.037597 -0.038062 0.086106
v -0.037037 -0.037634 0.085617
v -0.037627 -0.038303 0.086287
v -0.03761 -0.038332 0.085396
v -0.036288 -0.039366 0.087191
v -0.035814 -0.038856 0.087209
v -0.036358 -0.039582 0.087519
v -0.03603 -0.039631 0.085472
v -0.035514 -0.039156 0.0854
v -0.036069 -0.039867 0.084925
v -0.03638 -0.038291 0.084011
v -0.036841 -0.038808 0.083883
v -0.036925 -0.039005 0.083384
v -0.038064 -0.037611 0.08257
v -0.038064 -0.037611 0.082874
v -0.038247 -0.037413 0.0823
v -0.038247 -0.037413 0.08314
v -0.037639 -0.038191 0.0823
v -0.037661 -0.038213 0.082566
v -0.037773 -0.037943 0.082866
v -0.037856 -0.037993 0.08314
v -0.038389 -0.037554 0.0823
v -0.037554 -0.038106 0.0826
v -0.037664 -0.037991 0.083496
v -0.039639 -0.036306 0.088838
v -0.040085 -0.035859 0.083386
v -0.040673 -0.035273 0.086234
v -0.040605 -0.034919 0.08514
v -0.040203 -0.035321 0.083637
v -0.039437 -0.036084 0.082486
v -0.039267 -0.036256 0.089274
v -0.038399 -0.037113 0.08183
v -0.040102 -0.035422 0.088174
v -0.040558 -0.034969 0.086779
v -0.040245 -0.034594 0.086472
v -0.039871 -0.034975 0.087897
v -0.038377 -0.036468 0.081983
v -0.039204 -0.035646 0.088964
v -0.03955 -0.035297 0.083039
v -0.038222 -0.036625 0.089704
v -0.040206 -0.034641 0.084837
v -0.038873 -0.035939 0.083099
v -0.039158 -0.035653 0.083473
v -0.039386 -0.035426 0.083862
v -0.038463 -0.03635 0.082741
v -0.039569 -0.035242 0.084317
v -0.039709 -0.035104 0.084806
v -0.038126 -0.036686 0.082556
v -0.037765 -0.037046 0.082433
v -0.039805 -0.035011 0.08548
v -0.037305 -0.03751 0.0824
v -0.039804 -0.035007 0.08603
v -0.039761 -0.035057 0.086528
v -0.036868 -0.037943 0.082481
v -0.039647 -0.035165 0.087031
v -0.036408 -0.038404 0.082701
v -0.039489 -0.035322 0.087506
v -0.035982 -0.03883 0.083054
v -0.039198 -0.035614 0.088074
v -0.035614 -0.039198 0.083526
v -0.03883 -0.035982 0.088546
v -0.035322 -0.039489 0.084094
v -0.038404 -0.036408 0.088898
v -0.035165 -0.039647 0.084569
v -0.035055 -0.039759 0.085072
v -0.037943 -0.036868 0.089118
v -0.035007 -0.039804 0.08557
v -0.03751 -0.037305 0.0892
v -0.035009 -0.039803 0.086121
v -0.037046 -0.037764 0.089167
v -0.035101 -0.039706 0.086794
v -0.036686 -0.038126 0.089044
v -0.035242 -0.039569 0.087283
v -0.036351 -0.038463 0.088859
v -0.035426 -0.039386 0.087738
v -0.035939 -0.038872 0.088501
v -0.035653 -0.039158 0.088127
vn 0.5909 -0.4656 -0.6588
vn 0.059 -0.1671 0.9842
vn 0.5088 -0.5215 -0.6849
vn 0.0982 -0.0999 0.9901
vn 0.3527 -0.218 -0.91
vn 0.3971 -0.2771 0.875
vn 0.3359 -0.2291 -0.9136
vn 0.3789 -0.316 0.8698
vn 0.497 -0.4966 0.7116
vn 0.6265 -0.4152 0.6596
vn 0.6059 -0.6802 0.4126
vn 0.7374 -0.5759 0.353
vn 0.7298 -0.6824 0.0421
vn 0.7018 -0.7118 0.0284
vn 0.755 -0.5767 -0.3121
vn 0.6623 -0.6603 -0.354
vn -0.2949 -0.9225 0.2492
vn -0.1041 -0.9562 0.2736
vn -0.56 -0.647 -0.5175
vn 0.0212 -0.8052 0.5926
vn -0.0772 -0.5809 -0.8103
vn -0.1357 -0.6976 0.7036
vn -0.4768 -0.7092 0.5193
vn -0.2006 -0.8696 -0.4513
vn -0.2157 -0.8731 -0.4373
vn -0.3527 -0.5044 0.7882
vn -0.2033 -0.9712 -0.1239
vn 0.0295 -0.9633 -0.2668
vn 0.2809 -0.9594 0.0266
vn 0.1041 -0.2221 -0.9695
vn -0.3684 -0.8179 0.4419
vn 0.1809 -0.9809 -0.0712
vn -0.3225 -0.8499 -0.4167
vn 0.0211 -0.2792 0.96
vn -0.1047 0.1256 0.9865
vn 0.6855 -0.5863 0.4318
vn 0.6403 -0.764 0.0794
vn 0.3769 -0.3964 -0.8371
vn 0.5989 -0.4042 -0.6914
vn 0.047 -0.269 -0.962
vn -0.5144 -0.6021 0.6107
vn 0.1371 -0.9886 0.0621
vn 0.4169 -0.8863 0.2016
vn -0.2867 -0.816 -0.5019
vn 0.0876 -0.0939 0.9917
vn 0.1022 -0.0939 0.9903
vn 0.6297 -0.7661 -0.1289
vn 0.7445 -0.6559 0.1246
vn 0.4761 -0.3187 -0.8196
vn 0.0672 -0.1972 -0.9781
vn -0.2789 -0.8687 -0.4094
vn -0.2759 -0.5074 0.8164
vn -0.1952 -0.4793 0.8556
vn 0.0587 -0.9982 -0.0111
vn 0.1605 -0.1402 0.977
vn 0.182 -0.3981 0.8991
vn 0.737 -0.6299 0.2451
vn 0.5185 -0.772 -0.3677
vn 0.3328 -0.2417 -0.9115
vn -0.0355 -0.0925 -0.9951
vn -0.1757 -0.8526 0.4921
vn 0.1826 -0.8232 -0.5375
vn -0.2581 0.1497 0.9544
vn 0.5456 -0.7603 0.3524
vn 0.5883 -0.6345 0.5013
vn 0.669 -0.583 -0.461
vn 0.0534 -0.3714 -0.9269
vn -0.1168 -0.2424 -0.9631
vn -0.0668 -0.4794 0.875
vn -0.2537 -0.9099 0.3283
vn 0.4253 -0.905 -0.0038
vn -0.2923 -0.8858 -0.3603
vn -0.0097 -0.226 0.9741
vn 0.6749 -0.4415 0.5913
vn 0.6421 -0.7625 0.0796
vn 0.3418 -0.4353 -0.8329
vn 0.6157 -0.4934 -0.6144
vn 0.0709 -0.8126 0.5785
vn -0.1653 -0.9318 0.3231
vn -0.277 -0.8487 -0.4506
vn 0.1724 -0.8752 -0.4521
vn -0.097 -0.0593 0.9935
vn 0.6936 -0.5579 0.4558
vn 0.6188 -0.5806 0.5291
vn 0.4883 -0.5224 -0.699
vn 0.4952 -0.4296 -0.7551
vn -0.2842 -0.8943 0.3455
vn 0.5665 -0.7954 0.2156
vn -0.4292 -0.7819 -0.4521
vn 0.6298 -0.4521 0.6316
vn 0.5574 -0.7795 0.2858
vn 0.6445 -0.4963 -0.5816
vn 0.1253 -0.3708 -0.9202
vn -0.1134 -0.5454 0.8305
vn -0.3049 -0.8734 0.3798
vn 0.4002 -0.9158 0.0338
vn -0.327 -0.8419 -0.4293
vn 0.0109 -0.3057 -0.9521
vn 0.1251 -0.3524 0.9275
vn 0.627 -0.4053 0.6652
vn 0.5572 -0.7686 -0.3141
vn 0.5755 -0.3501 -0.739
vn -0.0359 -0.0941 -0.9949
vn -0.3347 0.4927 -0.8033
vn -0.6723 0.5716 -0.4704
vn -0.6893 0.704 -0.1711
vn -0.6973 0.4851 0.5277
vn -0.217 0.3374 0.916
vn -0.8676 -0.2812 0.4101
vn -0.8294 -0.3669 -0.4213
vn -0.7686 0.6259 -0.1322
vn -0.3103 0.3337 -0.8901
vn -0.5163 0.4081 -0.7529
vn -0.6204 0.7768 -0.1082
vn -0.7311 0.642 0.2311
vn -0.2935 0.3923 0.8718
vn -0.2173 0.0656 0.9739
vn -0.5163 -0.2 -0.8327
vn -0.9829 0.1711 -0.068
vn -0.999 0.044 -0.011
vn -0.2391 0.0051 0.971
vn -0.7614 -0.2995 0.5749
vn -0.4964 0.4243 -0.7573
vn -0.3663 0.4207 -0.83
vn -0.6734 0.7381 0.0414
vn -0.7238 0.6008 0.3394
vn -0.2037 0.3758 0.9041
vn -0.4352 -0.2033 -0.8771
vn -0.819 -0.3385 -0.4634
vn -0.9937 0.1102 0.0228
vn -0.9399 0.3325 -0.078
vn -0.6444 -0.2657 0.717
vn -0.7323 -0.3221 0.6
vn -0.0903 0.2374 -0.9672
vn -0.4439 0.3325 -0.8321
vn -0.7717 0.5962 0.2215
vn -0.6452 0.7556 -0.1129
vn -0.1704 0.3299 0.9285
vn -0.616 -0.4317 -0.659
vn -0.992 0.1094 -0.0628
vn -0.9612 0.2458 -0.125
vn -0.8763 -0.4161 0.2427
vn -0.7049 -0.2955 0.6448
vn -0.1595 0.273 -0.9487
vn -0.7388 0.5848 -0.3349
vn -0.5951 0.8034 0.0205
vn -0.3592 0.1621 0.9191
vn -0.5128 -0.4732 -0.7163
vn -0.9927 0.1206 -0.0019
vn -0.9978 0.0627 -0.0206
vn -0.4096 -0.2059 0.8887
vn -0.4045 0.592 -0.697
vn -0.6207 0.5951 -0.5104
vn -0.6559 0.5939 0.4659
vn -0.5607 0.6119 0.5578
vn -0.537 -0.0772 -0.84
vn -0.8708 -0.3053 -0.3854
vn -0.7932 0.5719 0.2092
vn -0.9126 -0.2229 0.3426
vn -0.5643 0.5152 -0.645
vn -0.3574 0.4752 -0.804
vn -0.6487 0.735 0.1976
vn -0.6924 0.6363 0.3403
vn -0.8335 -0.3553 -0.423
vn -0.9869 -0.11 0.1177
vn -0.827 0.535 -0.1727
vn -0.3373 -0.0977 0.9363
vn -0.404 0.3531 -0.8439
vn -0.4172 0.5506 -0.723
vn -0.752 0.6071 0.2569
vn -0.5884 0.6655 0.4592
vn -0.2333 -0.1532 0.9603
vn -0.851 -0.3583 -0.3839
vn -0.7242 0.6744 -0.1441
vn -0.9387 -0.236 0.2512
vn -0.7327 -0.6806 -0.001
vn -0.734 -0.6791 0
vn -0.7851 -0.6136 0.0839
vn -0.8261 -0.5523 -0.112
vn -0.7151 -0.6178 -0.3271
vn -0.8191 -0.5529 -0.1526
vn -0.0399 -0.0264 -0.9989
vn 0.6172 -0.7868 0
vn 0.7068 -0.7068 0.0285
vn -0.0001 0 1
vn -0.1807 -0.1269 0.9753
vn 0.9107 -0.3689 -0.1858
vn -0.9288 0.3356 -0.157
vn -0.6954 0.7156 -0.0666
vn -0.7525 -0.6586 -0.001
vn -0.5682 -0.8221 0.0354
vn -0.6872 -0.715 -0.1284
vn -0.7078 -0.7064 0.0009
vn -0.7064 -0.7078 -0.0042
vn -0.7053 -0.7076 0.0433
vn -0.7182 -0.6958 0.0065
vn -0.7078 -0.7064 -0.0008
vn -0.7134 -0.7008 0.0023
vn -0.7462 -0.6606 -0.082
vn -0.7433 -0.6588 -0.1158
vn -0.6999 -0.7142 -0.0084
vn -0.7056 -0.7086 0.0035
vn -0.709 -0.7052 0.0011
vn -0.7577 -0.6526 0.0063
vn -0.7024 -0.7117 -0.0018
vn -0.7035 -0.7107 -0.0003
vn -0.7082 -0.706 0.0029
vn -0.7056 -0.7086 0.0032
vn -0.7016 -0.7126 0.002
vn -0.7043 -0.7099 -0.0002
vn -0.6534 -0.7562 0.035
vn -0.7122 -0.702 -0.0038
vn -0.71 -0.7041 -0.0136
vn -0.751 -0.6603 -0.0109
vn -0.7115 -0.7027 0.0016
vn -0.5003 -0.3683 0.7836
vn -0.7125 -0.7017 -0.0058
vn -0.7107 -0.7035 -0.0028
vn -0.6212 -0.7836 0.0043
vn -0.7073 -0.7069 -0.0031
vn -0.5854 -0.8094 -0.0477
vn -0.7045 -0.7097 -0.0009
vn -0.6368 -0.7691 -0.0545
vn -0.6451 -0.7598 -0.0814
vn -0.5188 -0.8002 -0.3008
vn -0.7362 -0.6671 -0.1141
vn -0.7092 -0.705 0.0037
vn -0.7064 -0.7078 -0.005
vn -0.7001 -0.7141 0.0009
vn -0.7051 -0.7091 -0.001
vn -0.7043 -0.7098 -0.0112
vn -0.7077 -0.7064 0.0141
vn -0.708 -0.7062 0.0097
vn -0.6899 -0.6974 -0.194
vn -0.7077 -0.7066 -0.0018
vn -0.6798 -0.7327 -0.0311
vn -0.7127 -0.7015 0.0004
vn -0.717 -0.6957 -0.0434
vn -0.7521 -0.6586 -0.0251
vn -0.708 -0.7062 0.002
vn -0.757 -0.6507 0.0593
vn -0.7151 -0.6968 -0.056
vn -0.7173 -0.6967 0.0027
vn -0.7284 -0.684 0.0395
vn -0.7096 -0.7044 0.0141
vn -0.7633 -0.6458 -0.0172
vn -0.713 -0.7011 -0.0029
vn -0.7024 -0.7115 0.0183
vn -0.7003 -0.7139 0.0033
vn -0.7013 -0.7126 0.0176
vn -0.7105 -0.7037 -0.0079
vn -0.7022 -0.712 0.0048
vn -0.6974 -0.7165 -0.0131
vn -0.7041 -0.7101 -0.0021
vn -0.6593 -0.7441 0.108
vn -0.6588 -0.7434 0.1157
vn -0.7057 -0.7085 -0.0026
vn -0.633 -0.7741 0.0064
vn -0.7122 -0.702 0.0009
vn -0.9674 -0.104 -0.2308
vn -0.687 -0.4232 0.5908
vn -0.7942 0.1048 -0.5986
vn -0.6805 -0.3854 0.6232
vn -0.7894 -0.3943 -0.4706
vn -0.6906 -0.2671 -0.6721
vn -0.7635 0.0809 0.6407
vn -0.4745 -0.4533 -0.7546
vn -0.922 -0.2969 0.2483
vn -0.9542 -0.1275 0.2708
vn -0.955 0.2944 0.036
vn -0.955 -0.2596 -0.1436
vn -0.5591 0.7526 0.3478
vn -0.6749 0.6079 0.4182
vn -0.0759 -0.0574 -0.9955
vn 0.0775 0.2287 -0.9704
vn -0.4219 0.6249 0.6569
vn -0.5351 0.4264 0.7293
vn -0.3489 0.2284 -0.9089
vn -0.1902 0.5454 -0.8163
vn -0.1936 0.4604 0.8664
vn -0.3452 0.108 0.9323
vn -0.6315 0.3825 -0.6745
vn 0.0653 0.2111 0.9753
vn -0.4355 0.783 -0.4442
vn -0.7001 0.6207 -0.3531
vn -0.5895 0.8069 -0.0372
vn -0.7493 0.6609 0.0415
vn 0.689 0.7243 -0.026
vn 0.6868 0.7266 -0.0221
vn 0.6893 0.7235 -0.0373
vn 0.6939 0.7193 -0.0332
vn 0.6772 0.7355 -0.0208
vn 0.6822 0.7308 -0.0206
vn 0.6806 0.7325 -0.0132
vn 0.696 0.7173 -0.0327
vn 0.6999 0.7133 -0.0359
vn 0.681 0.7323 -0.0044
vn 0.7033 0.7094 -0.0455
vn 0.7087 0.7047 -0.0332
vn 0.6812 0.7321 -0.0048
vn 0.6815 0.7318 -0.0049
vn 0.6903 0.7234 0.0125
vn 0.7068 0.7065 -0.0352
vn 0.6913 0.7226 -0.0023
vn 0.6819 0.7313 0.0166
vn 0.7167 0.6964 -0.0377
vn 0.6811 0.732 0.0162
vn 0.7209 0.6917 -0.0429
vn 0.7214 0.6914 -0.0389
vn 0.6847 0.7284 0.023
vn 0.7269 0.686 -0.0318
vn 0.6835 0.7293 0.031
vn 0.73 0.6827 -0.0322
vn 0.6866 0.7264 0.031
vn 0.7287 0.6844 -0.0232
vn 0.6913 0.7215 0.0391
vn 0.6913 0.7216 0.0378
vn 0.7318 0.6814 -0.0162
vn 0.7264 0.6872 -0.0043
vn 0.7331 0.68 -0.0154
vn 0.6971 0.7161 0.035
vn 0.7274 0.6862 -0.0083
vn 0.7056 0.7073 0.0426
vn 0.7026 0.7108 0.0338
vn 0.7296 0.6839 -0.0009
vn 0.7275 0.6861 0.0008
vn 0.7045 0.709 0.0328
vn 0.7278 0.6858 0.0003
vn 0.7115 0.7016 0.0392
vn 0.7134 0.6999 0.0349
vn 0.7314 0.6817 0.0197
vn 0.7299 0.6833 0.0202
vn 0.7173 0.696 0.0323
vn 0.7301 0.6831 0.0199
vn 0.7191 0.6941 0.0329
vn 0.7258 0.6867 0.0397
vn 0.7291 0.6839 0.0253
vn 0.7305 0.682 0.035
vn 0.7298 0.6828 0.035
f 1//1 2//1 3//1
f 4//2 5//2 6//2
f 2//3 7//3 3//3
f 5//4 8//4 6//4
f 3//5 7//5 9//5
f 6//6 8//6 10//6
f 7//7 11//7 9//7
f 8//8 12//8 10//8
f 12//9 13//9 10//9
f 10//10 13//10 14//10
f 13//11 15//11 14//11
f 14//12 15//12 16//12
f 16//13 15//13 17//13
f 15//14 18//14 17//14
f 17//15 18//15 1//15
f 18//16 2//16 1//16
f 19//17 13//17 20//17
f 15//18 13//18 19//18
f 21//19 11//19 22//19
f 13//20 12//20 20//20
f 11//21 7//21 22//21
f 12//22 8//22 20//22
f 20//23 8//23 23//23
f 22//24 2//24 24//24
f 7//25 2//25 22//25
f 8//26 5//26 23//26
f 24//27 18//27 19//27
f 2//28 18//28 24//28
f 18//29 15//29 19//29
f 25//30 26//30 27//30
f 28//31 29//31 30//31
f 27//32 28//32 30//32
f 27//33 30//33 25//33
f 29//34 31//34 32//34
f 29//35 33//35 31//35
f 30//36 29//36 32//36
f 30//37 32//37 34//37
f 25//38 34//38 35//38
f 25//39 30//39 34//39
f 36//40 37//40 38//40
f 39//41 40//41 41//41
f 38//42 41//42 42//42
f 38//43 39//43 41//43
f 38//44 42//44 36//44
f 40//45 43//45 44//45
f 41//46 40//46 44//46
f 42//47 44//47 45//47
f 42//48 41//48 44//48
f 36//49 42//49 45//49
f 36//50 45//50 46//50
f 47//51 48//51 49//51
f 50//52 51//52 52//52
f 52//53 53//53 50//53
f 49//54 53//54 52//54
f 52//55 51//55 54//55
f 52//56 54//56 55//56
f 49//57 52//57 55//57
f 49//58 55//58 56//58
f 47//59 49//59 56//59
f 47//60 56//60 57//60
f 58//61 59//61 60//61
f 61//62 58//62 60//62
f 59//63 62//63 63//63
f 60//64 63//64 64//64
f 60//65 59//65 63//65
f 61//66 60//66 64//66
f 61//67 64//67 65//67
f 66//68 67//68 68//68
f 69//69 70//69 71//69
f 70//70 69//70 72//70
f 66//71 70//71 72//71
f 66//72 72//72 67//72
f 69//73 73//73 74//73
f 72//74 69//74 74//74
f 72//75 74//75 75//75
f 67//76 75//76 76//76
f 67//77 72//77 75//77
f 77//78 78//78 79//78
f 78//79 77//79 80//79
f 81//80 80//80 82//80
f 81//81 78//81 80//81
f 77//82 83//82 84//82
f 77//83 84//83 85//83
f 80//84 77//84 85//84
f 80//85 85//85 86//85
f 82//86 80//86 86//86
f 87//87 88//87 89//87
f 90//88 87//88 89//88
f 90//89 89//89 91//89
f 89//90 88//90 92//90
f 89//91 92//91 93//91
f 91//92 89//92 93//92
f 91//93 93//93 94//93
f 95//94 96//94 97//94
f 96//95 95//95 98//95
f 99//96 96//96 98//96
f 99//97 98//97 100//97
f 100//98 101//98 99//98
f 95//99 102//99 103//99
f 98//100 95//100 103//100
f 98//101 103//101 104//101
f 100//102 98//102 104//102
f 100//103 104//103 105//103
f 106//104 100//104 105//104
f 106//105 105//105 107//105
f 108//106 106//106 107//106
f 108//107 107//107 102//107
f 95//108 108//108 102//108
f 95//109 97//109 108//109
f 101//110 100//110 106//110
f 108//111 101//111 106//111
f 109//112 91//112 94//112
f 109//113 94//113 110//113
f 111//114 109//114 110//114
f 111//115 110//115 112//115
f 88//116 111//116 112//116
f 88//117 112//117 92//117
f 109//118 113//118 91//118
f 114//119 109//119 111//119
f 114//120 113//120 109//120
f 88//121 87//121 114//121
f 88//122 114//122 111//122
f 115//123 86//123 116//123
f 115//124 82//124 86//124
f 117//125 115//125 116//125
f 117//126 116//126 83//126
f 77//127 117//127 83//127
f 118//128 81//128 82//128
f 118//129 82//129 115//129
f 119//130 115//130 117//130
f 119//131 118//131 115//131
f 77//132 79//132 119//132
f 77//133 119//133 117//133
f 120//134 67//134 76//134
f 120//135 76//135 121//135
f 122//136 121//136 73//136
f 122//137 120//137 121//137
f 69//138 122//138 73//138
f 68//139 67//139 120//139
f 123//140 120//140 122//140
f 123//141 68//141 120//141
f 69//142 71//142 123//142
f 69//143 123//143 122//143
f 124//144 61//144 65//144
f 124//145 65//145 125//145
f 62//146 124//146 125//146
f 62//147 125//147 63//147
f 126//148 61//148 124//148
f 62//149 126//149 124//149
f 62//150 127//150 126//150
f 62//151 59//151 127//151
f 128//152 47//152 57//152
f 128//153 57//153 129//153
f 128//154 129//154 54//154
f 51//155 128//155 54//155
f 47//156 130//156 48//156
f 130//157 47//157 128//157
f 128//158 50//158 130//158
f 51//159 50//159 128//159
f 131//160 46//160 132//160
f 131//161 36//161 46//161
f 40//162 131//162 132//162
f 40//163 132//163 43//163
f 37//164 36//164 131//164
f 133//165 131//165 40//165
f 133//166 37//166 131//166
f 40//167 39//167 133//167
f 25//168 35//168 134//168
f 135//169 25//169 134//169
f 135//170 134//170 31//170
f 33//171 135//171 31//171
f 136//172 33//172 29//172
f 26//173 25//173 135//173
f 136//174 26//174 135//174
f 136//175 135//175 33//175
f 137//176 138//176 139//176
f 138//177 140//177 139//177
f 139//178 141//178 137//178
f 141//179 142//179 137//179
f 143//180 144//180 138//180
f 138//181 144//181 140//181
f 144//182 71//182 140//182
f 71//183 139//183 140//183
f 71//184 145//184 139//184
f 145//185 141//185 139//185
f 137//186 142//186 146//186
f 28//187 143//187 147//187
f 146//188 28//188 147//188
f 142//189 28//189 146//189
f 143//190 138//190 137//190
f 146//191 147//191 143//191
f 146//192 143//192 137//192
f 119//193 58//193 118//193
f 99//194 23//194 148//194
f 27//195 59//195 68//195
f 118//196 114//196 87//196
f 118//197 58//197 114//197
f 133//198 19//198 37//198
f 108//199 48//199 101//199
f 49//200 48//200 108//200
f 101//201 23//201 99//201
f 21//202 70//202 149//202
f 21//203 71//203 70//203
f 27//204 127//204 59//204
f 26//205 127//205 27//205
f 145//206 71//206 21//206
f 79//207 78//207 149//207
f 70//208 66//208 149//208
f 149//209 78//209 150//209
f 66//210 79//210 149//210
f 58//211 61//211 114//211
f 37//212 19//212 50//212
f 101//213 20//213 23//213
f 136//214 22//214 26//214
f 48//215 20//215 101//215
f 22//216 141//216 21//216
f 50//217 19//217 130//217
f 19//218 20//218 130//218
f 91//219 148//219 90//219
f 130//220 20//220 48//220
f 28//221 142//221 29//221
f 66//222 119//222 79//222
f 71//223 144//223 123//223
f 141//224 145//224 21//224
f 143//225 28//225 144//225
f 22//226 142//226 141//226
f 22//227 24//227 26//227
f 78//228 81//228 150//228
f 26//229 39//229 127//229
f 68//230 119//230 66//230
f 39//231 38//231 127//231
f 24//232 39//232 26//232
f 127//233 38//233 126//233
f 144//234 28//234 123//234
f 114//235 96//235 113//235
f 61//236 96//236 114//236
f 24//237 133//237 39//237
f 61//238 97//238 96//238
f 126//239 97//239 61//239
f 96//240 99//240 113//240
f 113//241 99//241 91//241
f 99//242 148//242 91//242
f 123//243 28//243 68//243
f 22//244 29//244 142//244
f 28//245 27//245 68//245
f 22//246 136//246 29//246
f 38//247 53//247 126//247
f 81//248 87//248 150//248
f 38//249 50//249 53//249
f 118//250 87//250 81//250
f 126//251 53//251 97//251
f 37//252 50//252 38//252
f 87//253 90//253 150//253
f 150//254 90//254 148//254
f 53//255 49//255 97//255
f 97//256 49//256 108//256
f 68//257 58//257 119//257
f 59//258 58//258 68//258
f 24//259 19//259 133//259
f 151//260 152//260 149//260
f 23//261 5//261 148//261
f 152//262 153//262 149//262
f 5//263 154//263 148//263
f 149//264 153//264 21//264
f 153//265 155//265 21//265
f 154//266 156//266 148//266
f 155//267 11//267 21//267
f 148//268 156//268 150//268
f 156//269 157//269 150//269
f 157//270 151//270 150//270
f 150//271 151//271 149//271
f 158//272 157//272 159//272
f 157//273 156//273 159//273
f 11//274 155//274 9//274
f 9//275 155//275 160//275
f 159//276 156//276 161//276
f 156//277 154//277 161//277
f 155//278 153//278 160//278
f 160//279 153//279 162//279
f 161//280 154//280 163//280
f 154//281 5//281 163//281
f 153//282 152//282 162//282
f 163//283 5//283 4//283
f 162//284 152//284 164//284
f 152//285 151//285 164//285
f 164//286 151//286 158//286
f 151//287 157//287 158//287
f 165//288 162//288 166//288
f 167//289 166//289 162//289
f 165//290 160//290 162//290
f 168//291 160//291 165//291
f 169//292 162//292 164//292
f 169//293 167//293 162//293
f 170//294 169//294 164//294
f 171//295 160//295 168//295
f 172//296 160//296 171//296
f 173//297 170//297 164//297
f 172//298 9//298 160//298
f 174//299 9//299 172//299
f 175//300 164//300 158//300
f 175//301 173//301 164//301
f 176//302 175//302 158//302
f 177//303 9//303 174//303
f 178//304 176//304 158//304
f 178//305 158//305 159//305
f 179//306 9//306 177//306
f 180//307 178//307 159//307
f 179//308 3//308 9//308
f 181//309 3//309 179//309
f 182//310 180//310 159//310
f 183//311 3//311 181//311
f 161//312 182//312 159//312
f 1//313 3//313 183//313
f 184//314 182//314 161//314
f 1//315 183//315 185//315
f 186//316 184//316 161//316
f 163//317 186//317 161//317
f 1//318 185//318 187//318
f 17//319 187//319 188//319
f 17//320 1//320 187//320
f 163//321 189//321 186//321
f 17//322 188//322 190//322
f 163//323 191//323 189//323
f 4//324 191//324 163//324
f 16//325 17//325 190//325
f 16//326 190//326 192//326
f 4//327 193//327 191//327
f 16//328 192//328 194//328
f 6//329 193//329 4//329
f 6//330 195//330 193//330
f 14//331 16//331 194//331
f 14//332 194//332 196//332
f 6//333 197//333 195//333
f 14//334 196//334 198//334
f 6//335 199//335 197//335
f 10//336 199//336 6//336
f 14//337 198//337 200//337
f 10//338 14//338 200//338
f 10//339 200//339 199//339