o obj1
v 0.002727 -0.008026 0.053383
v 0.001095 -0.004737 0.05323
v -0.000392 -0.006975 0.053081
v -0.003509 -0.005926 0.052745
v -0.000586 -0.001346 0.053061
v -0.002467 -0.00226 0.052861
v -0.004347 -0.003173 0.052649
v -0.005431 -0.005278 0.05252
v -0.00585 -0.003903 0.05247
v -0.007353 -0.004632 0.052282
v -0.007367 -0.004633 0.05198
v -0.004354 -0.00317 0.052348
v -0.002469 -0.002255 0.052561
v -0.000584 -0.001339 0.052762
v 0.001102 -0.004738 0.052931
v 0.002738 -0.008035 0.053084
v -0.000381 -0.006984 0.052783
v -0.003496 -0.005935 0.052446
v -0.005432 -0.005284 0.05222
v 0.003836 -0.012861 0.053481
v 0.001395 -0.008002 0.053259
v 0.002035 -0.012263 0.05332
v 0.000169 -0.011645 0.053138
v 0.003846 -0.012869 0.053182
v 0.002037 -0.012269 0.05302
v 0.000162 -0.011648 0.052838
v 0.001394 -0.007988 0.052959
v -0.005935 -0.003265 0.052459
v -0.007942 -0.002613 0.052206
v -0.0082 -0.004375 0.052172
v -0.009775 -0.002017 0.051956
v -0.009614 -0.005069 0.051979
v -0.011027 -0.005762 0.051773
v -0.007937 -0.002609 0.051906
v -0.009779 -0.00201 0.051655
v -0.005921 -0.003264 0.052161
v -0.011036 -0.005772 0.051471
v -0.008197 -0.004379 0.051872
v -0.009617 -0.005076 0.051678
v 0.007158 0.003419 0.05374
v 0.005198 0.00408 0.053594
v 0.004364 0.002034 0.053526
v 0.00324 0.004741 0.053429
v 0.001572 0.000651 0.053276
v 0.000109 0.005799 0.053132
v -0.000382 -0.000318 0.053083
v -0.002336 -0.001287 0.052875
v 0.003244 0.004745 0.053129
v 0.000105 0.005806 0.052832
v 0.005207 0.004083 0.053294
v 0.007172 0.00342 0.053441
v -0.002345 -0.001297 0.052574
v 0.004378 0.002035 0.053227
v 0.001586 0.000652 0.052978
v -0.00038 -0.000323 0.052783
v 0.011444 0.003639 0.054
v 0.009358 0.004342 0.053883
v 0.008744 0.002239 0.053845
v 0.007371 0.005012 0.053755
v 0.009359 0.004347 0.053583
v 0.007361 0.005021 0.053454
v 0.011458 0.00364 0.053701
v 0.008741 0.002232 0.053545
v 0.005876 0.007795 0.053647
v 0.0039 0.01168 0.053487
v 0.003968 0.00682 0.053492
v 0.00199 0.010709 0.053315
v 0.001993 0.00581 0.053316
v 6E-06 0.009703 0.053122
v 0.001987 0.010714 0.053015
v -1E-06 0.009705 0.052821
v 0.003902 0.011687 0.053187
v 0.005883 0.007793 0.053347
v 0.00397 0.006815 0.053193
v 0.001991 0.005803 0.053016
v 0.00125 0.010983 0.053245
v -0.001332 0.011922 0.052983
v -0.000725 0.009999 0.053047
v -0.003364 0.01091 0.052761
v -0.002741 0.008994 0.052831
v -0.005389 0.009902 0.052525
v -0.003371 0.010912 0.05246
v -0.005402 0.009901 0.052224
v -0.001333 0.011927 0.052683
v 0.001264 0.010984 0.052946
v -0.000718 0.009996 0.052748
v -0.002741 0.008988 0.052531
vn -0.0969 -0.0017 0.9953
vn -0.106 0.0044 0.9944
vn -0.1046 -0.0024 0.9945
vn -0.1043 -0.002 0.9945
vn -0.1162 -0.0008 0.9932
vn -0.1123 0.0003 0.9937
vn -0.1185 0.0004 0.9929
vn -0.1235 -0.0011 0.9923
vn -0.4383 0.8987 0.0172
vn -0.4384 0.8986 0.0173
vn -0.4383 0.8987 0.0176
vn -0.4383 0.8986 0.0173
vn -0.4384 0.8986 0.0176
vn -0.4384 0.8986 0.0174
vn 0.8954 0.4449 0.0176
vn 0.8954 0.4449 0.0174
vn 0.8954 0.445 0.0177
vn 0.8954 0.445 0.0176
vn -0.3208 -0.947 0.0174
vn -0.3208 -0.947 0.0176
vn -0.3208 -0.947 0.0177
vn -0.3208 -0.947 0.0173
vn -0.0891 0.0008 0.996
vn -0.0968 -0.0004 0.9953
vn -0.3163 -0.9485 0.0163
vn -0.3162 -0.9485 0.0174
vn -0.316 -0.9486 0.0174
vn -0.316 -0.9486 0.0166
vn 0.8932 0.4494 0.0179
vn 0.8932 0.4494 0.0175
vn -0.9478 0.3185 0.0174
vn -0.9477 0.3185 0.0177
vn -0.1255 -0.0007 0.9921
vn -0.1354 0.0003 0.9908
vn -0.1442 -0.0002 0.9895
vn -0.1348 0.0007 0.9909
vn 0.3069 0.9516 0.0171
vn 0.307 0.9516 0.0175
vn 0.307 0.9516 0.0171
vn -0.9486 0.3161 0.0175
vn -0.9486 0.3161 0.0177
vn 0.4384 -0.8986 0.0177
vn 0.4384 -0.8986 0.0172
vn 0.4385 -0.8986 0.0177
vn 0.4384 -0.8986 0.0171
vn -0.0753 -0.0023 0.9972
vn -0.0885 -0.0012 0.9961
vn -0.0834 0.001 0.9965
vn -0.0985 -0.0002 0.9951
vn -0.1057 0.0004 0.9944
vn -0.094 0.0011 0.9956
vn 0.3185 0.9478 0.0175
vn 0.3185 0.9478 0.0174
vn 0.3185 0.9478 0.0173
vn -0.9454 0.3255 0.0174
vn -0.9454 0.3255 0.0175
vn 0.4428 -0.8965 0.0175
vn 0.4427 -0.8965 0.0173
vn 0.4428 -0.8965 0.0173
vn 0.4427 -0.8965 0.0172
vn 0.4428 -0.8965 0.0172
vn 0.4427 -0.8965 0.0175
vn -0.0566 -0.0014 0.9984
vn -0.064 0.0007 0.9979
vn 0.3183 0.9478 0.0176
vn 0.3183 0.9478 0.0175
vn 0.3183 0.9478 0.0177
vn 0.4594 -0.8881 0.0179
vn 0.4593 -0.8881 0.0174
vn -0.8963 -0.4431 0.0174
vn -0.8963 -0.4431 0.0173
vn -0.0805 0.0001 0.9968
vn -0.0892 -0 0.996
vn -0.0893 -0.0001 0.996
vn -0.0971 -0 0.9953
vn -0.4539 0.8909 0.0174
vn -0.4539 0.8909 0.0175
vn 0.8909 0.4539 0.0176
vn 0.8909 0.4539 0.0174
vn 0.4539 -0.8909 0.0177
vn 0.4539 -0.8909 0.0174
vn 0.4539 -0.8909 0.0173
vn -0.8909 -0.4539 0.0177
vn -0.8909 -0.4539 0.0175
vn -0.1004 0.0013 0.9949
vn -0.1073 0.0012 0.9942
vn -0.1082 -0.0012 0.9941
vn -0.115 -0.0013 0.9934
vn -0.4471 0.8943 0.0171
vn -0.4471 0.8943 0.0175
vn -0.447 0.8944 0.0162
vn -0.447 0.8944 0.0171
vn 0.3399 0.9403 0.0179
vn 0.3399 0.9403 0.0163
vn 0.4445 -0.8956 0.0171
vn 0.4445 -0.8956 0.0174
vn 0.4445 -0.8956 0.0176
vn -0.3263 -0.9451 0.0173
vn -0.3263 -0.9451 0.0175
f 1//1 2//1 3//1
f 2//2 4//2 3//2
f 5//3 6//3 2//3
f 2//4 6//4 4//4
f 4//5 7//5 8//5
f 6//6 7//6 4//6
f 7//7 9//7 8//7
f 9//8 10//8 8//8
f 9//9 11//9 10//9
f 12//10 9//10 7//10
f 13//11 7//11 6//11
f 13//12 12//12 7//12
f 14//10 6//10 5//10
f 14//13 13//13 6//13
f 12//14 11//14 9//14
f 15//15 5//15 2//15
f 15//16 14//16 5//16
f 16//17 2//17 1//17
f 16//18 15//18 2//18
f 3//19 16//19 1//19
f 17//20 16//20 3//20
f 4//20 17//20 3//20
f 18//21 17//21 4//21
f 8//21 18//21 4//21
f 19//22 18//22 8//22
f 10//22 19//22 8//22
f 11//20 19//20 10//20
f 20//23 21//23 22//23
f 22//24 21//24 23//24
f 22//25 24//25 20//25
f 25//26 24//26 22//26
f 23//27 25//27 22//27
f 26//28 25//28 23//28
f 24//29 21//29 20//29
f 24//30 27//30 21//30
f 27//31 23//31 21//31
f 27//32 26//32 23//32
f 28//33 29//33 30//33
f 30//34 31//34 32//34
f 32//35 31//35 33//35
f 29//36 31//36 30//36
f 34//37 31//37 29//37
f 34//38 35//38 31//38
f 36//39 29//39 28//39
f 36//39 34//39 29//39
f 35//40 33//40 31//40
f 35//41 37//41 33//41
f 30//42 36//42 28//42
f 38//43 36//43 30//43
f 32//43 38//43 30//43
f 39//42 38//42 32//42
f 33//44 39//44 32//44
f 37//45 39//45 33//45
f 40//46 41//46 42//46
f 42//47 43//47 44//47
f 41//48 43//48 42//48
f 44//49 45//49 46//49
f 46//50 45//50 47//50
f 43//51 45//51 44//51
f 48//52 45//52 43//52
f 48//53 49//53 45//53
f 50//54 43//54 41//54
f 50//52 48//52 43//52
f 51//53 41//53 40//53
f 51//54 50//54 41//54
f 49//55 47//55 45//55
f 49//56 52//56 47//56
f 42//57 51//57 40//57
f 53//58 51//58 42//58
f 44//59 53//59 42//59
f 54//60 53//60 44//60
f 46//61 54//61 44//61
f 55//57 54//57 46//57
f 47//62 55//62 46//62
f 52//59 55//59 47//59
f 56//63 57//63 58//63
f 57//64 59//64 58//64
f 60//65 59//65 57//65
f 60//66 61//66 59//66
f 62//67 57//67 56//67
f 62//65 60//65 57//65
f 58//68 62//68 56//68
f 63//69 62//69 58//69
f 59//70 63//70 58//70
f 61//71 63//71 59//71
f 64//72 65//72 66//72
f 66//73 67//73 68//73
f 65//74 67//74 66//74
f 67//75 69//75 68//75
f 70//76 69//76 67//76
f 70//76 71//76 69//76
f 72//77 67//77 65//77
f 72//76 70//76 67//76
f 73//78 65//78 64//78
f 73//79 72//79 65//79
f 66//80 73//80 64//80
f 74//81 73//81 66//81
f 68//81 74//81 66//81
f 75//82 74//82 68//82
f 69//83 75//83 68//83
f 71//84 75//84 69//84
f 76//85 77//85 78//85
f 78//86 79//86 80//86
f 77//87 79//87 78//87
f 79//88 81//88 80//88
f 82//89 81//89 79//89
f 82//90 83//90 81//90
f 84//91 79//91 77//91
f 84//92 82//92 79//92
f 85//93 77//93 76//93
f 85//94 84//94 77//94
f 78//95 85//95 76//95
f 86//96 85//96 78//96
f 80//96 86//96 78//96
f 87//97 86//97 80//97
f 81//98 87//98 80//98
f 83//99 87//99 81//99