o obj1
v 0.076328 0.079672 -0.000986
v 0.078998 0.07911 -0.000859
v 0.078725 0.07892 -0.001001
v 0.076395 0.080013 -0.000777
v 0.077819 0.079787 -0.000497
v 0.079071 0.079501 -0.00018
v 0.079084 0.079344 -0.000592
v 0.076565 0.080266 -0.000268
v 0.079515 0.078984 -0.000535
v 0.07935 0.079303 -0.000313
v 0.079021 0.079382 0.000566
v 0.079125 0.079167 0.00078
v 0.079234 0.079426 0.000234
v 0.079226 0.078778 0.00089
v 0.078788 0.078901 0.001001
v 0.07963 0.079059 0.000111
v 0.079503 0.078706 0.000684
v 0.079692 0.078641 0.000315
v 0.079721 0.078631 -0.000205
v 0.079477 0.078702 -0.000686
v 0.079115 0.078811 -0.000938
v 0.077879 0.07947 0.000847
v 0.076513 0.079904 0.000848
v 0.077879 0.079779 0.000469
v 0.076523 0.080282 0.000169
v 0.076402 0.079648 0.000995
v 0.076706 0.080115 0.000534
v 0.076204 0.080105 0.000624
v 0.07605 0.080255 0.000121
v 0.076053 0.080154 -0.000463
v 0.075584 0.079918 -0.000136
v 0.075629 0.079903 0.000351
v 0.075799 0.079842 -0.000658
v 0.075969 0.079788 0.000814
vn 0.1383 0.4579 -0.8782
vn 0.1453 0.4964 -0.8559
vn 0.2403 0.7488 -0.6178
vn 0.2894 0.897 -0.3342
vn 0.1964 0.7059 -0.6805
vn 0.2301 0.839 -0.4931
vn 0.2868 0.9037 -0.318
vn 0.599 0.6424 -0.478
vn 0.5372 0.5415 -0.6467
vn 0.5462 0.7089 0.4462
vn 0.3185 0.3339 0.8872
vn 0.6759 0.7366 -0.0234
vn 0.6154 0.3582 0.7021
vn 0.5556 0.8285 -0.0696
vn 0.45 0.8386 -0.307
vn 0.8655 0.3165 0.3882
vn 0.7283 0.4987 0.4699
vn 0.9841 0.1699 0.0518
vn 0.6837 0.5965 0.4204
vn 0.9163 0.3446 -0.204
vn 0.8922 0.1128 -0.4374
vn 0.6045 0.3101 -0.7337
vn 0.5542 0.4077 -0.7257
vn 0.8022 0.5595 -0.2085
vn 0.2418 0.3343 -0.9109
vn 0.2143 0.7389 0.6388
vn 0.152 0.4771 0.8656
vn 0.239 0.7513 0.6152
vn 0.3098 0.9359 0.1674
vn 0.2108 0.7563 0.6193
vn 0.1378 0.4476 0.8835
vn 0.2629 0.9623 0.07
vn 0.1669 0.497 0.8516
vn 0.2895 0.9066 0.3071
vn 0.2437 0.7291 0.6395
vn 0.2779 0.9182 0.2822
vn -0.0847 0.947 0.3099
vn 0.0899 0.8003 0.5928
vn 0.0521 0.9174 0.3945
vn -0.0298 0.8993 -0.4364
vn -0.5254 0.8379 -0.1478
vn -0.6133 0.7858 0.0801
vn -0.4615 0.801 0.3812
vn -0.1476 0.9743 -0.1699
vn -0.0516 0.9978 -0.0421
vn -0.3114 0.54 -0.782
vn -0.3261 0.6776 -0.6592
vn -0.6056 0.7135 -0.3524
vn -0.4938 0.6867 0.5336
vn -0.1672 0.5446 0.8219
vn -0.1762 0.5994 0.7808
vn 0.292 0.9564 -0.0081
f 1//1 2//1 3//1
f 4//2 2//2 1//2
f 2//3 4//3 5//3
f 5//4 6//4 7//4
f 7//5 2//5 5//5
f 8//6 5//6 4//6
f 5//7 8//7 6//7
f 9//8 7//8 10//8
f 2//9 7//9 9//9
f 11//10 12//10 13//10
f 14//11 12//11 15//11
f 13//12 16//12 10//12
f 14//13 17//13 12//13
f 6//14 13//14 10//14
f 10//15 7//15 6//15
f 18//16 16//16 17//16
f 17//17 16//17 12//17
f 19//18 16//18 18//18
f 16//19 13//19 12//19
f 19//20 9//20 16//20
f 20//21 9//21 19//21
f 21//22 9//22 20//22
f 21//23 2//23 9//23
f 9//24 10//24 16//24
f 3//25 2//25 21//25
f 12//26 11//26 22//26
f 15//27 22//27 23//27
f 23//28 22//28 24//28
f 25//29 24//29 6//29
f 22//30 11//30 24//30
f 15//31 23//31 26//31
f 24//32 13//32 6//32
f 12//33 22//33 15//33
f 11//34 13//34 24//34
f 27//35 23//35 24//35
f 25//36 27//36 24//36
f 28//37 25//37 29//37
f 23//38 27//38 28//38
f 28//39 27//39 25//39
f 30//40 8//40 4//40
f 31//41 29//41 30//41
f 32//42 29//42 31//42
f 32//43 28//43 29//43
f 30//44 29//44 8//44
f 8//45 29//45 25//45
f 33//46 4//46 1//46
f 33//47 30//47 4//47
f 33//48 31//48 30//48
f 34//49 28//49 32//49
f 26//50 23//50 34//50
f 34//51 23//51 28//51
f 8//52 25//52 6//52