o obj1
v 0.032618 0.0158 -0.035021
v 0.04655 0.0158 0.011059
v -0.043747 0.0158 0.019476
v 0.016535 0.0158 0.044953
v 0.045622 0.0158 -0.014505
v 0.046167 0.105324 -0.019042
v 0.03159 0.097676 -0.057702
v -0.026145 0.0158 -0.040105
v 0.046145 0.108191 0.006346
v 0.016413 0.0158 -0.044989
v 0.036706 0.0158 -0.030707
v 0.029606 0.107696 -0.057771
v -0.017326 0.0158 0.044665
v 0.045808 0.10351 0.019105
v 0.045556 0.100993 0.023528
v 0.016109 0.089384 0.048719
v 0.033002 0.099171 0.039965
v 0.016219 0.099363 0.048751
v 0.041214 0.103236 0.027403
v 0.041651 0.0158 0.023706
v 0.028114 0.082824 -0.058554
v -0.0177 0.0158 -0.044454
v -0.005436 0.111466 -0.067873
v 0.030954 0.092818 -0.05809
v 0.020628 0.125802 0.015541
v 0.020917 0.125583 -0.010159
v -0.013657 0.12519 -0.01908
v 0.032957 0.121769 -0.00172
v 0.00851 0.11115 -0.067818
v -0.038795 0.0158 0.028114
v -0.04317 0.100482 0.027957
v -0.044003 0.0158 -0.018961
v -0.047334 0.101445 0.019314
v -0.030627 0.10712 -0.057687
v -0.047688 0.104963 -0.014859
v 0.046108 0.108071 -0.010346
v 0.028871 0.120838 -0.014381
v 0.011693 0.121508 0.031447
v 0.028387 0.112218 0.031375
v 0.012971 0.125447 0.026076
v -0.013213 0.112592 0.039925
v 0.020178 0.103656 0.044326
v 0.011886 0.108061 0.044095
v 0.024955 0.0158 0.040827
v 0.0371 0.099607 0.03602
v 0.028145 0.121197 0.018754
v -0.021928 0.125344 0.015252
v -0.029781 0.121768 0.014799
v -0.022295 0.125131 -0.01011
v 0.020917 0.111452 -0.057407
v 0.012405 0.125386 -0.019236
v 0.024373 0.079432 -0.059088
v -0.033977 0.107509 0.03122
v -0.017497 0.098143 0.049084
v -0.032506 0.120513 -0.010315
v -0.026112 0.0158 0.040139
v -0.008982 0.108489 0.044496
v -0.005033 0.070412 0.049486
v -0.047363 0.103674 0.015036
v -0.033833 0.116475 0.018746
v -0.047828 0.074671 0.002493
v -0.028519 0.083366 -0.058497
v -0.022142 0.111037 -0.057353
v 0.041464 0.111761 -0.014587
f 1 2 3
f 4 3 2
f 5 6 2
f 5 2 1
f 7 6 5
f 8 1 3
f 9 2 6
f 10 1 8
f 11 5 1
f 12 6 7
f 13 3 4
f 14 15 2
f 14 2 9
f 16 17 18
f 19 15 14
f 20 4 2
f 20 2 15
f 21 1 10
f 21 11 1
f 22 10 8
f 22 23 10
f 24 7 5
f 24 5 11
f 24 11 21
f 25 26 27
f 25 28 26
f 29 12 7
f 29 7 24
f 29 24 21
f 29 10 23
f 30 31 3
f 30 3 13
f 32 8 3
f 33 3 31
f 34 32 35
f 36 28 9
f 36 9 6
f 37 28 12
f 37 12 26
f 37 26 28
f 38 39 40
f 38 40 41
f 42 17 39
f 42 38 43
f 42 39 38
f 42 43 18
f 42 18 17
f 44 16 4
f 44 17 16
f 44 4 20
f 45 15 19
f 45 20 15
f 45 44 20
f 45 17 44
f 45 19 39
f 45 39 17
f 46 19 14
f 46 39 19
f 46 14 9
f 46 9 28
f 46 28 25
f 46 25 40
f 46 40 39
f 47 40 25
f 47 48 41
f 47 41 40
f 47 25 27
f 47 27 49
f 50 26 12
f 50 12 29
f 51 27 26
f 51 50 29
f 51 26 50
f 51 29 23
f 51 23 27
f 52 29 21
f 52 21 10
f 52 10 29
f 53 41 48
f 53 54 41
f 53 31 54
f 55 34 35
f 55 47 49
f 55 48 47
f 56 30 13
f 56 13 54
f 56 54 31
f 56 31 30
f 57 41 54
f 57 38 41
f 57 43 38
f 57 54 18
f 57 18 43
f 58 16 18
f 58 18 54
f 58 4 16
f 58 54 13
f 58 13 4
f 59 55 35
f 59 48 55
f 60 33 31
f 60 59 33
f 60 48 59
f 60 53 48
f 60 31 53
f 61 32 3
f 61 3 33
f 61 35 32
f 61 59 35
f 61 33 59
f 62 8 32
f 62 32 34
f 62 22 8
f 62 34 23
f 62 23 22
f 63 27 23
f 63 23 34
f 63 49 27
f 63 55 49
f 63 34 55
f 64 36 6
f 64 6 12
f 64 12 28
f 64 28 36