o obj1
v 0.054384 0.0005 -0.091041
v 0.055084 0.0005 -0.090905
v 0.054878 0.0005 -0.091041
v 0.069944 0.0005 -0.05759
v 0.069548 0.0005 -0.058083
v 0.070017 0.0005 -0.056738
v 0.069659 0.000498 -0.056129
v 0.069241 0.0005 -0.055874
v 0.05248 -0.015792 -0.091026
v 0.052619 -0.011361 -0.091044
v 0.053765 -0.011018 -0.091033
v 0.054327 -0.000433 -0.091043
v 0.051569 -0.015468 -0.091045
v 0.053711 -0.003694 -0.091043
v 0.05383 -0.0005 -0.091041
v 0.054887 -0.002102 -0.091037
v 0.054337 -0.007935 -0.091029
v 0.053312 -0.007525 -0.091042
v 0.047595 0.0005 -0.045568
v 0.047493 -0.000447 -0.045497
v 0.049466 0.0005 -0.046956
v 0.054781 -0.012774 -0.050519
v 0.058749 -0.015087 -0.052493
v 0.057738 -0.009097 -0.052081
v 0.062539 -0.012598 -0.054136
v 0.065621 -0.012322 -0.055212
v 0.063322 -0.005301 -0.054414
v 0.06116 -0.009049 -0.053611
v 0.054978 -0.003435 -0.05053
v 0.058738 -0.004226 -0.052477
v 0.057134 0.0005 -0.051519
v 0.048727 -0.008122 -0.04652
v 0.046917 -0.000501 -0.045041
v 0.046764 -0.003839 -0.044928
v 0.055302 -0.018191 -0.050593
v 0.059316 -0.018219 -0.052569
v 0.050009 -0.013281 -0.047482
v 0.05228 -0.005928 -0.048967
v 0.065174 -0.018222 -0.054794
v 0.06629 -0.016026 -0.0553
v 0.05214 -0.014 -0.048899
v 0.066927 -0.00403 -0.055522
v 0.066965 0.0005 -0.055273
v 0.069203 -0.005728 -0.056231
v 0.062251 -0.018208 -0.053764
v 0.062438 0.0005 -0.053806
v 0.051909 -0.01814 -0.048609
v 0.053032 0.0005 -0.049269
v 0.046034 -0.008304 -0.044347
v 0.068156 -0.010122 -0.055963
v 0.048491 -0.01818 -0.046278
v 0.046051 -0.018199 -0.044392
v 0.045055 -0.011911 -0.043532
v 0.043797 -0.015179 -0.042401
v 0.043385 -0.018249 -0.04206
v 0.042239 -0.018328 -0.04107
v 0.053224 -0.018383 -0.081
v 0.054456 -0.018347 -0.077081
v 0.049031 -0.018398 -0.077176
v 0.050352 -0.018384 -0.088413
v 0.045976 -0.018352 -0.044482
v 0.044113 -0.018399 -0.049169
v 0.051834 -0.018383 -0.088422
v 0.050053 -0.018386 -0.047639
v 0.054228 -0.018369 -0.05017
v 0.046151 -0.018398 -0.059229
v 0.057055 -0.018368 -0.051651
v 0.062509 -0.018362 -0.060675
v 0.065351 -0.01838 -0.055068
v 0.06021 -0.018372 -0.053114
v 0.065762 -0.018374 -0.056318
v 0.059988 -0.018379 -0.064496
v 0.047661 -0.018396 -0.067814
v 0.057568 -0.018347 -0.069215
v 0.055787 -0.018343 -0.073354
v 0.063245 -0.001219 -0.06391
v 0.062125 -0.001713 -0.065572
v 0.063584 0.000499 -0.063178
v 0.067706 -0.001397 -0.059447
v 0.067699 0.0005 -0.059265
v 0.069743 -0.001656 -0.058078
v 0.057645 -0.012801 -0.072961
v 0.056813 -0.0104 -0.076543
v 0.058273 -0.0089 -0.072961
v 0.058189 -0.002776 -0.074073
v 0.057195 -0.001987 -0.077338
v 0.057269 0.0005 -0.076532
v 0.053728 -0.018277 -0.079757
v 0.053895 -0.015864 -0.082495
v 0.054538 -0.015982 -0.079707
v 0.056518 -0.006104 -0.079482
v 0.055806 -0.005517 -0.083034
v 0.056021 -0.002437 -0.082806
v 0.055961 -0.009802 -0.07992
v 0.055465 -0.008533 -0.082977
v 0.060189 -0.008702 -0.068782
v 0.059067 -0.00561 -0.071648
v 0.060471 -0.005638 -0.068595
v 0.052901 -0.018284 -0.083121
v 0.056709 -0.00277 -0.079325
v 0.053891 -0.013632 -0.085808
v 0.053459 -0.013728 -0.088817
v 0.054278 -0.010802 -0.087714
v 0.061907 -0.005672 -0.066168
v 0.060594 -0.00228 -0.06825
v 0.055468 -0.01655 -0.076036
v 0.055088 -0.01345 -0.080294
v 0.056095 -0.013692 -0.07662
v 0.054853 -0.011739 -0.083089
v 0.054776 -0.008676 -0.086905
v 0.058373 0.0005 -0.072942
v 0.061349 -0.016263 -0.063985
v 0.059393 -0.018269 -0.065839
v 0.059933 -0.016677 -0.066041
v 0.06085 -0.018309 -0.063302
v 0.052054 -0.017635 -0.089997
v 0.05246 -0.016309 -0.090759
v 0.053145 -0.014037 -0.090893
v 0.057353 -0.006342 -0.076355
v 0.064818 -0.016832 -0.058834
v 0.066066 -0.014959 -0.058535
v 0.066546 -0.016741 -0.056857
v 0.063473 -0.004868 -0.063886
v 0.065467 0.000499 -0.061148
v 0.066382 -0.003923 -0.060722
v 0.065196 -0.003909 -0.061855
v 0.065322 -0.006724 -0.061647
v 0.053121 -0.016332 -0.085619
v 0.058927 -0.002366 -0.071965
v 0.059654 0.0005 -0.069622
v 0.058991 -0.012659 -0.069987
v 0.06318 -0.008384 -0.064054
v 0.064508 -0.010189 -0.062031
v 0.068003 -0.00403 -0.059331
v 0.06258 -0.012294 -0.06396
v 0.061773 -0.00953 -0.065872
v 0.061157 -0.01276 -0.065943
v 0.069724 -0.003663 -0.058059
v 0.055363 -0.002011 -0.087531
v 0.055 -0.002674 -0.090906
v 0.067493 -0.0067 -0.059573
v 0.055572 0.0005 -0.085893
v 0.069318 -0.006455 -0.058212
v 0.060163 -0.01168 -0.068068
v 0.065762 -0.01042 -0.060611
v 0.055109 -0.005696 -0.08759
v 0.056858 -0.01646 -0.072461
v 0.064016 -0.012997 -0.061779
v 0.054805 -0.005139 -0.090924
v 0.067629 -0.008387 -0.059237
v 0.052259 -0.018273 -0.086674
v 0.051905 -0.018204 -0.089071
v 0.056246 0.0005 -0.081294
v 0.068959 -0.008953 -0.058019
v 0.067088 -0.01153 -0.058975
v 0.065252 -0.013836 -0.059982
v 0.058351 -0.016221 -0.069321
v 0.058205 -0.006864 -0.073676
v 0.062816 -0.016516 -0.061666
v 0.068553 -0.011101 -0.057723
v 0.054272 -0.00923 -0.090846
v 0.067587 -0.013903 -0.057516
v 0.061496 0.0005 -0.066111
v 0.051234 -0.016443 -0.090872
v 0.052141 -0.016895 -0.090656
v 0.050898 -0.01732 -0.090351
v 0.050568 -0.018032 -0.089506
v 0.066612 -0.016817 -0.056152
v 0.065809 -0.018311 -0.055684
v 0.069937 -0.002782 -0.056786
v 0.069961 -0.003619 -0.057144
v 0.070057 -0.002053 -0.057406
v 0.065721 -0.018125 -0.05526
v 0.067672 -0.014215 -0.057062
v 0.068841 -0.009947 -0.056519
v 0.06857 -0.011598 -0.05698
v 0.069075 -0.009403 -0.056823
v 0.067736 -0.014114 -0.056672
v 0.067617 -0.013988 -0.056121
v 0.069562 -0.006235 -0.05672
v 0.069532 -0.007416 -0.057217
v 0.068577 -0.009872 -0.056201
v 0.068858 -0.010436 -0.057386
v 0.069775 -0.005431 -0.057618
v 0.069786 -0.001986 -0.05643
v 0.069309 -0.00822 -0.057666
v 0.04959 -0.018301 -0.047157
vn 0.0001 1 0.0027
vn 0.0004 1 -0.0003
vn 0.0117 0.9999 0.0112
vn 0.0105 -0.0044 -0.9999
vn 0.0006 0.0023 -1
vn 0.019 -0.0046 -0.9998
vn -0.005 0.001 -1
vn 0.0071 -0.0012 -1
vn 0.0067 -0.0013 -1
vn 0.0085 -0.0023 -1
vn 0.0129 -0.0016 -0.9999
vn 0.0096 -0.0013 -1
vn 0.0132 -0.0009 -0.9999
vn 0.5959 -0.0042 0.803
vn 0.4524 0.015 0.8917
vn 0.3296 0.0006 0.9441
vn 0.351 -0.002 0.9364
vn 0.4552 -0.0259 0.89
vn 0.5979 -0.0106 0.8015
vn 0.3844 -0.0241 0.9229
vn 0.6204 -0.0017 0.7843
vn 0.4412 0.0583 0.8955
vn 0.5719 -0.0109 0.8203
vn 0.5704 -0.0072 0.8214
vn 0.3461 0.0402 0.9373
vn 0.5234 -0.0019 0.8521
vn 0.4602 0.0321 0.8872
vn 0.255 -0.0552 0.9654
vn 0.2581 -0.0569 0.9644
vn 0.6252 -0.0034 0.7804
vn 0.3324 0.0416 0.9422
vn 0.5533 -0.0026 0.833
vn 0.4084 -0.0097 0.9128
vn 0.3077 -0.0526 0.95
vn 0.3109 -0.0548 0.9489
vn 0.5048 0.0368 0.8624
vn 0.4804 -0.0432 0.876
vn 0.5117 0.0317 0.8586
vn 0.6279 -0.0014 0.7783
vn 0.456 -0.0214 0.8897
vn 0.2902 -0.0108 0.9569
vn 0.3892 0.0151 0.921
vn 0.5149 -0.02 0.857
vn 0.56 0.0269 0.8281
vn 0.4082 0.006 0.9129
vn 0.2922 -0.0103 0.9563
vn 0.563 0.0286 0.8259
vn 0.6118 0.0045 0.791
vn 0.4758 -0.009 0.8795
vn 0.6344 -0.0053 0.773
vn 0.6276 0.0056 0.7785
vn 0.3738 0.0423 0.9266
vn 0.3956 -0.0516 0.917
vn 0.3813 -0.0386 0.9236
vn 0.6642 0.0029 0.7475
vn 0.2973 -0.0112 0.9547
vn 0.6585 -0.0047 0.7525
vn 0.6542 -0.0037 0.7563
vn 0.544 -0.0242 0.8387
vn 0.3256 0.046 0.9444
vn 0.6113 0.0051 0.7914
vn 0.3764 0.0458 0.9253
vn 0.5079 -0.0097 0.8613
vn 0.2641 0.0247 0.9642
vn 0.0092 -0.9999 0.0062
vn 0.0027 -1 -0.0009
vn 0.0019 -1 0.0092
vn 0.0008 -1 -0.0002
vn -0.0004 -0.9999 0.0101
vn 0.0027 -1 -0.002
vn 0.003 -1 0.0005
vn 0.0014 -1 0.0019
vn -0.0023 -1 -0.002
vn 0.0015 -1 -0.0039
vn -0.0009 -1 0.0007
vn 0.006 -1 0.0005
vn 0.0018 -1 0.0013
vn 0.0014 -1 0.0001
vn 0.0037 -1 -0.0087
vn 0.0046 -1 -0.0029
vn 0.0074 -1 0.0012
vn 0.0093 -1 -0.0022
vn 0.8147 0.0836 -0.5738
vn 0.5369 0.0823 -0.8396
vn 0.5614 0.0488 -0.8261
vn 0.9359 -0.1506 -0.3184
vn 0.9589 0.0611 -0.2772
vn 0.9201 -0.32 -0.2259
vn 0.9774 -0.0531 -0.2047
vn 0.9722 -0.1135 -0.2049
vn 0.9068 -0.0581 -0.4176
vn 0.9086 -0.0541 -0.4141
vn 0.9204 -0.3195 -0.2255
vn 0.9791 -0.0467 -0.198
vn 0.9664 -0.2209 -0.1317
vn 0.8652 0.0278 -0.5006
vn 0.8606 0.0209 -0.5089
vn 0.9272 -0.2586 -0.2711
vn 0.9242 -0.2647 -0.2752
vn 0.9734 -0.1688 -0.1552
vn 0.9548 0.0477 -0.2935
vn 0.97 -0.1795 -0.1637
vn 0.9195 -0.1925 -0.3426
vn 0.8061 -0.3358 -0.4873
vn 0.8085 -0.354 -0.4702
vn 0.9693 -0.1204 -0.2143
vn 0.9575 -0.2884 0.0086
vn 0.9455 -0.311 -0.0966
vn 0.9644 -0.0429 -0.2609
vn 0.9727 -0.0169 -0.2313
vn 0.9075 -0.3144 -0.2786
vn 0.7066 -0.3748 -0.6002
vn 0.6628 -0.5013 -0.5562
vn 0.7198 -0.4379 -0.5387
vn 0.8218 0.0476 -0.5678
vn 0.7304 0.0859 -0.6776
vn 0.786 0.1045 -0.6094
vn 0.7519 0.0426 -0.6579
vn 0.8593 -0.0481 -0.5092
vn 0.8985 -0.358 -0.2542
vn 0.7656 -0.0131 -0.6432
vn 0.6342 0.057 -0.7711
vn 0.6902 0.0354 -0.7227
vn 0.9551 -0.2439 -0.1681
vn 0.817 0.0417 -0.5751
vn 0.9514 -0.2804 -0.1276
vn 0.9314 0.0575 -0.3593
vn 0.904 -0.1455 -0.402
vn 0.9015 -0.1493 -0.4063
vn 0.7802 -0.115 -0.6149
vn 0.7575 -0.0318 -0.6521
vn 0.6524 0.0403 -0.7568
vn 0.9379 0.0651 -0.3409
vn 0.9094 -0.2649 -0.3207
vn 0.6901 -0.0224 -0.7233
vn 0.9443 -0.2969 -0.1418
vn 0.9539 -0.0327 -0.2984
vn 0.8238 -0.1396 -0.5494
vn 0.8198 -0.1442 -0.5542
vn 0.5599 0.0267 -0.8281
vn 0.5962 -0.0133 -0.8027
vn 0.9945 -0.0262 -0.1018
vn 0.6907 -0.0228 -0.7228
vn 0.8931 -0.3176 -0.3184
vn 0.9951 -0.0195 -0.0969
vn 0.5998 -0.0434 -0.7989
vn 0.868 -0.0679 -0.4919
vn 0.8553 -0.1278 -0.5021
vn 0.6865 -0.1194 -0.7173
vn 0.7698 -0.1331 -0.6242
vn 0.8733 -0.1208 -0.4721
vn 0.6483 -0.0549 -0.7594
vn 0.8309 -0.0426 -0.5548
vn 0.601 -0.0424 -0.7981
vn 0.9933 -0.067 -0.0937
vn 0.9063 -0.2422 -0.3463
vn 0.9578 -0.1749 -0.228
vn 0.8787 -0.342 -0.333
vn 0.7905 -0.1908 -0.582
vn 0.7381 -0.0993 -0.6674
vn 0.9916 -0.0776 -0.1033
vn 0.9064 0.1047 -0.4092
vn 0.8145 -0.2413 -0.5276
vn 0.8202 -0.2512 -0.514
vn 0.6558 -0.0963 -0.7488
vn 0.8754 -0.4618 -0.1428
vn 0.9302 -0.3455 -0.1239
vn 0.9549 -0.2459 -0.1666
vn 0.6037 -0.1087 -0.7898
vn 0.9894 -0.0012 -0.145
vn 0.9905 0.0072 -0.1372
vn 0.7215 -0.1863 -0.6669
vn 0.8105 -0.0728 -0.5813
vn 0.6323 -0.1495 -0.7602
vn 0.9585 -0.1132 -0.2617
vn 0.9575 -0.1152 -0.2645
vn 0.8626 -0.1539 -0.4819
vn 0.7016 -0.1782 -0.6899
vn 0.956 -0.2075 -0.2075
vn 0.6247 -0.171 -0.7619
vn 0.7501 -0.2264 -0.6213
vn 0.8901 -0.233 -0.3916
vn 0.8828 -0.2446 -0.4011
vn 0.9512 -0.0262 -0.3076
vn 0.7947 -0.2882 -0.5343
vn 0.6703 -0.2243 -0.7074
vn 0.9843 -0.1358 -0.1124
vn 0.9856 -0.1304 -0.1076
vn 0.6737 -0.2299 -0.7024
vn 0.9392 -0.2519 -0.2332
vn 0.7304 -0.2693 -0.6277
vn 0.8781 -0.2355 -0.4165
vn 0.9404 -0.2817 -0.1907
vn 0.769 -0.363 -0.5262
vn 0.7732 -0.395 -0.4962
vn 0.6698 -0.2816 -0.6871
vn 0.754 -0.3274 -0.5695
vn 0.6765 -0.3469 -0.6496
vn 0.9433 0.0084 -0.3318
vn 0.8834 0.0701 -0.4634
vn 0.6841 -0.3938 -0.6139
vn 0.7194 -0.4176 -0.555
vn 0.643 0.0753 -0.7622
vn 0.9868 -0.0656 -0.1483
vn 0.988 -0.0584 -0.1428
vn 0.9317 -0.3215 -0.1693
vn 0.7747 -0.2367 -0.5864
vn 0.8678 -0.3092 -0.389
vn 0.8445 -0.1999 -0.4968
vn 0.8647 -0.337 -0.3725
vn 0.6622 -0.2864 -0.6924
vn 0.9766 -0.1914 -0.0979
vn 0.7167 -0.2949 -0.6319
vn 0.9812 0.0235 -0.1917
vn 0.9269 -0.0327 -0.3738
vn 0.8561 -0.2563 -0.4487
vn 0.9769 0.0388 -0.21
vn 0.9255 -0.3336 -0.1793
vn 0.9454 -0.0795 -0.3161
vn 0.9676 -0.2257 -0.1127
vn 0.9356 -0.109 -0.3357
vn 0.967 -0.227 -0.1158
vn 0.8512 0.1176 -0.5115
vn 0.9718 -0.0045 -0.236
vn 0.9122 0.0088 -0.4096
vn 0.9085 -0.0015 -0.4179
vn 0.8339 -0.3292 -0.443
vn 0.8283 -0.3382 -0.4466
vn 0.9828 -0.1136 -0.1458
vn 0.9392 -0.2569 -0.2277
vn 0.9353 -0.0891 -0.3425
vn 0.9413 -0.1989 -0.2726
vn 0.942 -0.1977 -0.2711
vn 0.8113 0.0901 -0.5777
vn 0.9751 -0.147 -0.1658
vn -0.0374 -0.1624 -0.986
vn -0.0424 -0.4979 -0.8662
vn 0.0576 -0.3334 -0.941
vn 0.0456 -0.6673 -0.7434
vn -0.01 -0.7628 -0.6466
vn 0.058 -0.855 -0.5154
vn -0.0211 -0.9504 -0.3102
vn -0.0009 -0.9639 -0.2661
vn 0.8784 -0.4775 -0.0173
vn 0.8759 -0.4639 -0.1325
vn 0.9879 -0.0353 0.1508
vn 0.8688 -0.3603 0.3397
vn 0.6567 -0.1639 0.7362
vn 0.8136 -0.3973 -0.4245
vn 0.9268 -0.2341 0.2937
vn 0.9017 -0.4126 -0.1293
vn 0.9189 -0.3914 -0.0486
vn 0.9064 -0.3248 0.2701
vn 0.8602 -0.3099 0.405
vn 0.6993 -0.1763 0.6928
vn 0.9381 -0.1543 0.3102
vn 0.7444 -0.1089 0.6587
vn 0.8635 -0.326 -0.3849
vn 0.9231 -0.3095 -0.2282
vn 0.9028 -0.0125 -0.4298
vn 0.9442 -0.3217 -0.0707
vn 0.925 -0.2746 0.2625
vn 0.9105 -0.2429 0.3346
vn 0.7408 -0.1601 0.6524
vn 0.6692 -0.1419 0.7294
vn 0.5223 -0.0697 0.8499
vn 0.9731 -0.2267 0.0416
vn 0.8957 -0.1513 0.418
vn 0.8634 -0.0984 -0.4947
vn 0.6435 -0.0596 0.7631
vn 0.9927 -0.1131 0.0419
vn 0.9706 -0.1139 0.2122
vn 0.9393 -0.0572 -0.3382
vn 0.9923 -0.0769 -0.0966
vn 0.9508 -0.0976 0.294
vn 0.8401 -0.0809 0.5364
vn 0.76 -0.0841 0.6444
vn 0.8838 -0.2238 -0.4108
vn 0.9719 -0.211 -0.1041
vn 0.9753 -0.2191 0.0266
vn 0.7773 0.0687 -0.6253
vn 0.9079 0.0098 -0.419
vn 0.9957 0.0379 -0.0842
vn 0.9866 -0.0264 0.161
vn 0.9677 -0.1583 -0.1964
vn 0.8962 -0.0284 0.4428
vn 0.8622 -0.0173 0.5062
vn 0.9027 -0.2297 -0.3638
vn 0.8869 -0.1406 -0.4401
vn 0.5237 -0.073 0.8488
vn 0.9236 -0.3084 -0.2275
vn 0.8475 -0.1607 -0.5058
vn 0.5197 -0.0521 0.8528
vn 0.7522 -0.109 0.6499
vn 0.2979 -0.7299 0.6153
vn 0.3649 -0.6748 0.6415
vn 0.528 -0.2275 0.8182
vn 0.3866 -0.7701 0.5074
vn 0.4893 -0.6062 0.627
vn 0.5302 -0.606 0.593
vn 0.289 -0.5785 0.7627
vn 0.2019 -0.7868 0.5833
vn 0.2592 -0.7317 0.6305
vn 0.3813 -0.5711 0.7269
vn 0.2368 -0.8921 0.3849
vn 0.558 -0.3618 0.7468
vn 0.6067 -0.432 0.6674
vn 0.4451 -0.6244 0.6418
vn 0.331 -0.6153 0.7155
vn 0.6522 -0.6344 0.4149
vn 0.2486 -0.9655 0.0776
vn 0.6299 -0.4243 0.6506
vn 0.604 -0.6919 -0.3954
vn 0.7893 -0.5959 -0.1478
vn 0.4587 -0.8817 -0.1107
vn 0.6873 -0.716 -0.1224
vn 0.7176 -0.6839 -0.1318
vn 0.6314 -0.7514 -0.1918
vn 0.6879 -0.6318 -0.3571
vn 0.436 -0.8603 -0.2641
vn 0.7495 -0.4871 -0.4482
vn 0.5079 -0.4102 -0.7575
vn 0.8317 -0.2792 -0.48
vn 0.5681 -0.1542 -0.8084
vn 0.7173 -0.1319 -0.6842
vn 0.8277 -0.1183 -0.5485
vn 0.4664 -0.0453 -0.8834
vn 0.649 -0.0456 -0.7594
vn 0.7148 -0.0187 -0.6991
vn 0.5493 0.0008 -0.8356
vn 0.8694 -0.1994 -0.4521
vn -0.9983 0.0591 0
f 1//1 2//1 3//1
f 4//2 5//2 6//2
f 7//3 6//3 8//3
f 9//4 10//4 11//4
f 12//5 1//5 3//5
f 9//6 13//6 10//6
f 14//7 15//7 12//7
f 16//8 14//8 12//8
f 16//9 12//9 3//9
f 17//10 14//10 16//10
f 17//11 18//11 14//11
f 11//12 10//12 18//12
f 11//13 18//13 17//13
f 19//14 20//14 21//14
f 22//15 23//15 24//15
f 25//16 26//16 27//16
f 28//17 25//17 27//17
f 29//18 30//18 31//18
f 20//19 32//19 21//19
f 30//20 28//20 27//20
f 20//21 33//21 34//21
f 23//22 35//22 36//22
f 32//23 37//23 38//23
f 32//24 38//24 21//24
f 39//25 40//25 26//25
f 41//26 22//26 38//26
f 35//27 23//27 22//27
f 42//28 8//28 43//28
f 42//29 44//29 8//29
f 34//30 32//30 20//30
f 45//31 39//31 26//31
f 37//32 41//32 38//32
f 24//33 28//33 30//33
f 27//34 43//34 46//34
f 27//35 42//35 43//35
f 47//36 35//36 22//36
f 29//37 31//37 48//37
f 41//38 47//38 22//38
f 49//39 32//39 34//39
f 29//40 24//40 30//40
f 50//41 44//41 42//41
f 23//42 25//42 28//42
f 38//43 29//43 48//43
f 37//44 47//44 41//44
f 24//45 23//45 28//45
f 26//46 50//46 42//46
f 51//47 47//47 37//47
f 52//48 37//48 32//48
f 22//49 24//49 29//49
f 53//50 52//50 32//50
f 53//51 32//51 49//51
f 23//52 45//52 25//52
f 30//53 46//53 31//53
f 30//54 27//54 46//54
f 54//55 52//55 53//55
f 27//56 26//56 42//56
f 55//57 52//57 54//57
f 56//58 55//58 54//58
f 21//59 38//59 48//59
f 45//60 26//60 25//60
f 52//61 51//61 37//61
f 36//62 45//62 23//62
f 38//63 22//63 29//63
f 26//64 40//64 50//64
f 57//65 58//65 59//65
f 57//66 59//66 60//66
f 61//67 56//67 62//67
f 63//68 57//68 60//68
f 64//69 61//69 62//69
f 65//70 64//70 62//70
f 66//71 65//71 62//71
f 67//72 65//72 66//72
f 68//73 69//73 70//73
f 68//74 71//74 69//74
f 72//75 70//75 67//75
f 72//76 68//76 70//76
f 72//77 67//77 66//77
f 72//78 66//78 73//78
f 74//79 72//79 73//79
f 75//80 74//80 73//80
f 75//81 73//81 59//81
f 58//82 75//82 59//82
f 76//83 77//83 78//83
f 79//84 80//84 5//84
f 79//85 5//85 81//85
f 82//86 83//86 84//86
f 85//87 86//87 87//87
f 88//88 89//88 90//88
f 91//89 92//89 93//89
f 94//90 95//90 92//90
f 96//91 97//91 98//91
f 96//92 84//92 97//92
f 88//93 99//93 89//93
f 91//94 93//94 100//94
f 101//95 102//95 103//95
f 104//96 105//96 77//96
f 98//97 105//97 104//97
f 106//98 107//98 108//98
f 106//99 90//99 107//99
f 109//100 103//100 110//100
f 85//101 87//101 111//101
f 109//102 110//102 95//102
f 82//103 108//103 83//103
f 112//104 113//104 114//104
f 112//105 115//105 113//105
f 94//106 92//106 91//106
f 116//107 117//107 118//107
f 116//108 118//108 102//108
f 119//109 91//109 100//109
f 119//110 100//110 86//110
f 106//111 88//111 90//111
f 120//112 121//112 122//112
f 120//113 122//113 71//113
f 120//114 71//114 68//114
f 123//115 77//115 76//115
f 78//116 124//116 125//116
f 126//117 76//117 78//117
f 126//118 123//118 76//118
f 96//119 98//119 104//119
f 58//120 88//120 106//120
f 123//121 126//121 127//121
f 79//122 125//122 124//122
f 126//123 78//123 125//123
f 101//124 103//124 109//124
f 123//125 104//125 77//125
f 128//126 102//126 101//126
f 129//127 111//127 130//127
f 131//128 82//128 84//128
f 131//129 84//129 96//129
f 132//130 127//130 133//130
f 132//131 123//131 127//131
f 134//132 125//132 79//132
f 129//133 85//133 111//133
f 106//134 108//134 82//134
f 125//135 127//135 126//135
f 128//136 116//136 102//136
f 119//137 86//137 85//137
f 135//138 136//138 132//138
f 135//139 137//139 136//139
f 134//140 79//140 81//140
f 134//141 81//141 138//141
f 139//142 140//142 2//142
f 127//143 125//143 141//143
f 75//144 58//144 106//144
f 139//145 2//145 142//145
f 134//146 138//146 143//146
f 136//147 96//147 104//147
f 144//148 96//148 136//148
f 127//149 141//149 145//149
f 135//150 132//150 133//150
f 144//151 131//151 96//151
f 141//152 125//152 134//152
f 132//153 104//153 123//153
f 141//154 134//154 143//154
f 146//155 140//155 139//155
f 147//156 106//156 82//156
f 94//157 109//157 95//157
f 147//158 75//158 106//158
f 135//159 133//159 148//159
f 145//160 133//160 127//160
f 149//161 140//161 146//161
f 105//162 129//162 130//162
f 135//163 114//163 137//163
f 135//164 112//164 114//164
f 150//165 145//165 141//165
f 151//166 152//166 116//166
f 151//167 116//167 128//167
f 89//168 101//168 109//168
f 150//169 141//169 143//169
f 93//170 142//170 153//170
f 93//171 139//171 142//171
f 145//172 148//172 133//172
f 136//173 104//173 132//173
f 150//174 143//174 154//174
f 83//175 94//175 91//175
f 83//176 91//176 119//176
f 137//177 144//177 136//177
f 155//178 145//178 150//178
f 107//179 109//179 94//179
f 155//180 150//180 154//180
f 148//181 145//181 156//181
f 157//182 82//182 131//182
f 157//183 147//183 82//183
f 158//184 119//184 85//184
f 159//185 112//185 148//185
f 155//186 154//186 160//186
f 110//187 149//187 146//187
f 110//188 161//188 149//188
f 155//189 156//189 145//189
f 107//190 89//190 109//190
f 156//191 159//191 148//191
f 157//192 131//192 144//192
f 89//193 128//193 101//193
f 159//194 115//194 112//194
f 159//195 68//195 115//195
f 155//196 160//196 162//196
f 120//197 159//197 156//197
f 156//198 121//198 120//198
f 97//199 85//199 129//199
f 105//200 130//200 163//200
f 121//201 162//201 122//201
f 120//202 68//202 159//202
f 79//203 124//203 80//203
f 92//204 146//204 139//204
f 92//205 139//205 93//205
f 99//206 151//206 128//206
f 112//207 135//207 148//207
f 157//208 75//208 147//208
f 137//209 157//209 144//209
f 74//210 75//210 157//210
f 121//211 155//211 162//211
f 103//212 161//212 110//212
f 156//213 155//213 121//213
f 100//214 93//214 153//214
f 97//215 158//215 85//215
f 114//216 157//216 137//216
f 86//217 153//217 87//217
f 99//218 128//218 89//218
f 84//219 119//219 158//219
f 102//220 118//220 161//220
f 84//221 83//221 119//221
f 102//222 161//222 103//222
f 77//223 105//223 163//223
f 86//224 100//224 153//224
f 98//225 129//225 105//225
f 98//226 97//226 129//226
f 113//227 74//227 157//227
f 113//228 157//228 114//228
f 95//229 146//229 92//229
f 90//230 89//230 107//230
f 84//231 158//231 97//231
f 108//232 94//232 83//232
f 108//233 107//233 94//233
f 77//234 163//234 78//234
f 110//235 146//235 95//235
f 164//236 13//236 9//236
f 165//237 166//237 164//237
f 165//238 164//238 9//238
f 116//239 166//239 165//239
f 116//240 167//240 166//240
f 152//241 167//241 116//241
f 152//242 60//242 167//242
f 63//243 60//243 152//243
f 168//244 169//244 71//244
f 168//245 71//245 122//245
f 170//246 171//246 172//246
f 173//247 169//247 168//247
f 40//248 39//248 173//248
f 174//249 122//249 162//249
f 175//250 176//250 177//250
f 174//251 168//251 122//251
f 178//252 168//252 174//252
f 179//253 168//253 178//253
f 179//254 173//254 168//254
f 179//255 40//255 173//255
f 180//256 177//256 181//256
f 175//257 180//257 44//257
f 160//258 174//258 162//258
f 176//259 174//259 160//259
f 172//260 138//260 81//260
f 176//261 178//261 174//261
f 176//262 179//262 178//262
f 175//263 179//263 176//263
f 182//264 179//264 175//264
f 182//265 40//265 179//265
f 50//266 40//266 182//266
f 183//267 177//267 176//267
f 177//268 180//268 175//268
f 184//269 143//269 138//269
f 44//270 185//270 7//270
f 171//271 181//271 184//271
f 180//272 181//272 171//272
f 172//273 184//273 138//273
f 171//274 184//274 172//274
f 170//275 180//275 171//275
f 185//276 180//276 170//276
f 185//277 44//277 180//277
f 160//278 154//278 186//278
f 183//279 186//279 181//279
f 183//280 181//280 177//280
f 81//281 5//281 4//281
f 172//282 81//282 4//282
f 172//283 4//283 6//283
f 170//284 172//284 6//284
f 184//285 181//285 186//285
f 6//286 185//286 170//286
f 7//287 185//287 6//287
f 160//288 186//288 183//288
f 143//289 184//289 186//289
f 182//290 44//290 50//290
f 160//291 183//291 176//291
f 154//292 143//292 186//292
f 44//293 7//293 8//293
f 175//294 44//294 182//294
f 36//295 35//295 67//295
f 65//296 35//296 47//296
f 47//297 187//297 65//297
f 61//298 64//298 187//298
f 61//299 51//299 52//299
f 55//300 61//300 52//300
f 70//301 69//301 45//301
f 39//302 45//302 69//302
f 70//303 45//303 36//303
f 65//304 67//304 35//304
f 64//305 65//305 187//305
f 61//306 187//306 51//306
f 56//307 61//307 55//307
f 187//308 47//308 51//308
f 70//309 36//309 67//309
f 69//310 169//310 173//310
f 69//311 71//311 169//311
f 39//312 69//312 173//312
f 72//313 115//313 68//313
f 99//314 57//314 63//314
f 99//315 88//315 57//315
f 151//316 63//316 152//316
f 63//317 151//317 99//317
f 57//318 88//318 58//318
f 113//319 72//319 74//319
f 72//320 113//320 115//320
f 117//321 116//321 165//321
f 9//322 117//322 165//322
f 118//323 117//323 9//323
f 11//324 118//324 9//324
f 17//325 161//325 11//325
f 149//326 161//326 17//326
f 149//327 17//327 16//327
f 140//328 149//328 16//328
f 140//329 16//329 2//329
f 3//330 2//330 16//330
f 11//331 161//331 118//331
f 12//332 1//332 1//332