o obj1
v -0.061257 0.057663 0.0457
v -0.06066 0.057739 0.047751
v -0.060297 0.057824 0.045924
v -0.059203 0.058001 0.046843
v -0.059128 0.058049 0.048701
v -0.059685 0.057927 0.047847
v -0.058787 0.058048 0.0457
v -0.067351 0.056764 0.045237
v -0.071377 0.056059 0.034697
v -0.071609 0.056016 0.037624
v -0.070943 0.056126 0.040992
v -0.052792 0.059058 0.028798
v -0.050213 0.059497 0.03072
v -0.053407 0.058994 0.027424
v -0.05673 0.058492 0.0273
v -0.056745 0.058418 0.025697
v -0.056702 0.058316 0.028856
v -0.063347 0.057421 0.0273
v -0.06072 0.057802 0.02529
v -0.064178 0.057216 0.026011
v -0.063318 0.057244 0.028856
v -0.067898 0.056621 0.028313
v -0.067269 0.056715 0.028799
v -0.052727 0.059133 0.045239
v -0.052137 0.059164 0.045699
v -0.049481 0.059603 0.0419
v -0.070425 0.056227 0.031848
v -0.055874 0.058365 0.04818
v -0.06362 0.057321 0.048167
v -0.066675 0.056845 0.046564
v -0.069374 0.05639 0.043925
v -0.048862 0.059495 0.033143
v -0.048474 0.059775 0.036261
v -0.048576 0.059739 0.038817
v -0.052651 0.058854 0.027636
v -0.064975 0.056866 0.026092
v -0.069535 0.056118 0.030161
v -0.071414 0.055816 0.034087
v -0.071283 0.055838 0.040618
v -0.058457 0.057912 0.02522
v -0.048288 0.05956 0.035916
v -0.067329 0.056477 0.046367
v -0.052831 0.058821 0.046421
v -0.049478 0.059361 0.042473
v -0.061358 0.057442 0.04878
vn -0.1678 0.9857 0.0124
vn -0.1697 0.9854 0.012
vn -0.1873 0.9821 -0.0182
vn -0.1881 0.982 -0.0177
vn -0.1626 0.9865 -0.0188
vn -0.1537 0.9869 -0.0489
vn -0.1487 0.9888 -0.0137
vn -0.1874 0.9821 -0.0174
vn -0.1743 0.9847 0.0007
vn -0.1787 0.9839 0.0032
vn -0.1998 0.9788 0.0442
vn -0.1474 0.9881 -0.0444
vn -0.1524 0.9817 0.1144
vn -0.1858 0.9819 0.0377
vn -0.1759 0.9835 -0.0432
vn -0.397 0.9111 0.1108
vn -0.1383 0.9899 0.0319
vn -0.1324 0.991 -0.0198
vn -0.0916 0.9945 0.0507
vn -0.1498 0.9887 0.0031
vn -0.1638 0.9758 0.1446
vn -0.1652 0.9839 0.068
vn -0.0986 0.9951 -0.0116
vn -0.1502 0.9855 -0.0791
vn -0.1392 0.9903 0.0039
vn -0.1505 0.9886 -0.0071
vn -0.1471 0.989 0.0149
vn -0.1899 0.9817 0.013
vn -0.2121 0.976 0.0489
vn -0.1597 0.9862 -0.0442
vn -0.152 0.9883 -0.011
vn -0.1653 0.9862 -0.0039
vn -0.0331 0.9993 0.0193
vn -0.2599 0.9641 -0.0542
vn -0.1308 0.9914 0.0089
vn -0.1407 0.99 0.0024
vn -0.1572 0.9701 0.1851
vn -0.1472 0.9453 0.2912
vn -0.1562 0.9877 -0.0037
vn -0.1735 0.9848 0.0004
vn 0.318 0.5248 -0.7896
vn -0.2487 0.3603 -0.8991
vn -0.3982 0.8075 -0.4352
vn -0.6346 0.6738 -0.3786
vn 0.6264 -0.6966 -0.3499
vn -0.7407 0.6383 -0.2096
vn -0.5776 -0.8162 0.0143
vn 0.3766 -0.6641 -0.6459
vn -0.0569 0.7795 -0.6238
vn 0.0099 -0.676 -0.7369
vn 0.2733 0.8755 -0.3985
vn -0.3065 -0.8142 -0.4931
vn -0.8524 -0.2965 -0.4308
vn -0.9449 0.3198 -0.0702
vn 0.6191 0.7716 -0.1461
vn -0.4718 0.4254 0.7723
vn 0.2204 0.7815 0.5837
vn 0.372 0.8561 0.3588
vn -0.4179 -0.8256 0.3792
vn 0.7398 -0.6631 0.1141
vn 0.7857 0.6174 0.0399
vn -0.1283 -0.7697 0.6253
vn 0.1836 -0.5698 0.801
vn -0.8064 0.4433 0.3914
vn -0.5377 0.7285 0.4244
vn 0.7546 -0.2504 0.6065
vn -0.1969 0.7982 0.5693
vn 0.7592 0.6012 0.2494
vn -0.7149 0.6891 0.1189
f 1//1 2//1 3//1
f 2//2 4//2 3//2
f 2//3 5//3 6//3
f 6//4 5//4 4//4
f 4//5 5//5 7//5
f 3//6 7//6 1//6
f 4//7 7//7 3//7
f 2//8 6//8 4//8
f 8//9 9//9 10//9
f 8//10 10//10 11//10
f 12//11 13//11 14//11
f 15//12 14//12 16//12
f 17//13 14//13 15//13
f 17//14 12//14 14//14
f 18//15 19//15 20//15
f 20//16 21//16 18//16
f 22//17 21//17 20//17
f 23//18 21//18 22//18
f 24//19 25//19 26//19
f 27//20 23//20 22//20
f 7//21 25//21 24//21
f 7//22 28//22 25//22
f 5//23 28//23 7//23
f 29//24 5//24 2//24
f 29//25 2//25 1//25
f 30//26 29//26 1//26
f 30//27 1//27 8//27
f 31//28 8//28 11//28
f 31//29 30//29 8//29
f 18//30 15//30 16//30
f 18//31 16//31 19//31
f 12//32 24//32 13//32
f 13//33 24//33 32//33
f 32//34 24//34 33//34
f 33//35 24//35 34//35
f 34//36 24//36 26//36
f 24//37 8//37 1//37
f 24//38 1//38 7//38
f 8//39 23//39 27//39
f 8//40 27//40 9//40
f 14//41 35//41 16//41
f 36//42 20//42 19//42
f 22//43 20//43 36//43
f 37//44 27//44 22//44
f 13//45 32//45 35//45
f 27//46 38//46 9//46
f 10//47 38//47 39//47
f 16//48 35//48 40//48
f 40//49 19//49 16//49
f 19//50 40//50 36//50
f 35//51 14//51 13//51
f 22//52 36//52 37//52
f 27//53 37//53 38//53
f 38//54 10//54 9//54
f 32//55 33//55 41//55
f 30//56 42//56 29//56
f 25//57 28//57 43//57
f 44//58 26//58 25//58
f 31//59 39//59 42//59
f 34//60 44//60 41//60
f 33//61 34//61 41//61
f 29//62 42//62 45//62
f 5//63 45//63 28//63
f 31//64 11//64 39//64
f 42//65 30//65 31//65
f 25//66 43//66 44//66
f 45//67 5//67 29//67
f 26//68 44//68 34//68
f 11//69 10//69 39//69