o obj1
v 0.113319 0.071657 -0.001126
v 0.113885 0.07131 -0.000608
v 0.11375 0.071386 -0.001488
v 0.113081 0.071805 -0.000754
v 0.113738 0.071404 -0.0004
v 0.11518 0.070459 -0.000203
v 0.115198 0.070446 8.6E-05
v 0.115915 0.069942 -0.000241
v 0.115753 0.070054 -0.000771
v 0.115068 0.070534 -0.000482
v 0.115497 0.070232 -0.001159
v 0.114854 0.070678 -0.000714
v 0.115228 0.070416 -0.001394
v 0.114829 0.070685 -0.001601
v 0.114561 0.070872 -0.000842
v 0.11428 0.071047 -0.001647
v 0.114317 0.071032 -0.000841
v 0.114079 0.071186 -0.000765
v 0.112922 0.071902 -0.000223
v 0.113652 0.071458 -8.8E-05
v 0.114146 0.071143 0.000797
v 0.11352 0.071532 0.001324
v 0.114008 0.071222 0.001597
v 0.113826 0.071347 0.000554
v 0.113283 0.07168 0.001076
v 0.113094 0.071796 0.000783
v 0.113671 0.071446 0.000203
v 0.112946 0.071887 0.00034
v 0.114913 0.070639 0.000667
v 0.115319 0.070355 0.00133
v 0.115616 0.07015 0.001007
v 0.115115 0.070503 0.000396
v 0.11496 0.070597 0.001545
v 0.115817 0.070009 0.000617
v 0.114625 0.07083 0.000826
v 0.114558 0.070865 0.001648
v 0.115909 0.069946 0.000233
v 0.114384 0.070989 0.000849
vn 0.5269 0.8499 -0.0077
vn 0.5228 0.8524 -0.0047
vn 0.5272 0.8497 -0.0082
vn 0.5753 0.818 -0.0015
vn 0.5753 0.818 -0.0019
vn 0.5718 0.8204 -0.0071
vn 0.5732 0.8194 -0.0021
vn 0.5651 0.825 -0.0098
vn 0.5675 0.8233 -0.0046
vn 0.562 0.8271 -0.0091
vn 0.555 0.8318 -0.0088
vn 0.5483 0.8362 -0.0099
vn 0.5507 0.8346 -0.011
vn 0.5414 0.8407 -0.0095
vn 0.5369 0.8436 -0.011
vn 0.5202 0.854 -0.0059
vn 0.5211 0.8535 -0.0002
vn 0.534 0.8455 -0.0092
vn 0.5328 0.8462 0.0083
vn 0.5336 0.8457 0.0097
vn 0.5251 0.851 0.0049
vn 0.5231 0.8523 0.002
vn 0.5243 0.8515 0.0074
vn 0.5196 0.8544 0.001
vn 0.5197 0.8544 0.0012
vn 0.5193 0.8546 0.0005
vn 0.5696 0.8219 0.0025
vn 0.5672 0.8235 0.0097
vn 0.5632 0.8263 0.0083
vn 0.5742 0.8187 0.0013
vn 0.556 0.8311 0.0098
vn 0.5575 0.8301 0.0089
vn 0.5759 0.8176 0.0011
vn 0.5733 0.8194 0.0056
vn 0.5759 0.8175 0.0006
vn 0.5438 0.8391 0.0111
vn 0.5499 0.8352 0.0092
vn 0.5433 0.8395 0.0108
f 1//1 2//1 3//1
f 1//2 4//2 5//2
f 1//3 5//3 2//3
f 6//4 7//4 8//4
f 6//5 8//5 9//5
f 10//6 6//6 9//6
f 11//7 10//7 9//7
f 12//8 10//8 11//8
f 13//9 12//9 11//9
f 14//10 12//10 13//10
f 14//11 15//11 12//11
f 16//12 17//12 15//12
f 16//13 15//13 14//13
f 16//14 18//14 17//14
f 3//15 18//15 16//15
f 19//16 20//16 5//16
f 4//17 19//17 5//17
f 3//18 2//18 18//18
f 21//19 22//19 23//19
f 24//20 22//20 21//20
f 25//21 22//21 24//21
f 26//22 25//22 24//22
f 26//23 24//23 27//23
f 28//24 26//24 27//24
f 28//25 27//25 20//25
f 19//26 28//26 20//26
f 29//27 30//27 31//27
f 32//28 29//28 31//28
f 29//29 33//29 30//29
f 32//30 31//30 34//30
f 35//31 36//31 33//31
f 35//32 33//32 29//32
f 7//33 34//33 37//33
f 7//34 32//34 34//34
f 7//35 37//35 8//35
f 38//36 23//36 36//36
f 38//37 36//37 35//37
f 21//38 23//38 38//38