o obj1
v -0.023052 -0.076297 0.065085
v -0.023397 -0.075744 0.064898
v -0.024082 -0.076124 0.064428
v -0.023315 -0.075764 0.065307
v -0.023625 -0.075701 0.06567
v -0.023517 -0.076254 0.065995
v -0.023858 -0.07568 0.064755
v -0.024541 -0.076061 0.065449
v -0.024022 -0.075641 0.065563
v -0.024202 -0.075631 0.065196
v -0.022495 -0.076379 0.063961
v -0.021891 -0.076432 0.064395
v -0.028292 -0.075458 0.060808
v -0.027847 -0.075521 0.0621
v -0.029185 -0.07529 0.062641
v -0.026383 -0.075765 0.060463
v -0.027357 -0.075607 0.060642
v -0.025905 -0.075852 0.059454
v -0.025999 -0.075861 0.066537
v -0.027343 -0.075596 0.066134
v -0.02678 -0.075696 0.065791
v -0.026193 -0.075795 0.06321
v -0.026351 -0.07577 0.065014
v -0.027396 -0.0756 0.063783
v -0.025465 -0.075913 0.063764
v -0.025547 -0.075898 0.065035
v -0.027113 -0.075608 0.065374
v -0.027822 -0.075523 0.062832
v -0.028366 -0.075447 0.064349
v -0.02768 -0.075517 0.064729
v -0.028517 -0.075392 0.064975
v -0.023795 -0.07617 0.061823
v -0.023527 -0.07622 0.063256
v -0.024685 -0.076033 0.062933
v -0.025718 -0.075859 0.062229
v -0.025422 -0.075914 0.061022
v -0.026884 -0.075679 0.061439
v -0.02427 -0.076106 0.060842
v -0.021951 -0.076517 0.062885
v -0.022752 -0.076352 0.062429
v -0.024941 -0.075996 0.060003
v -0.028909 -0.075362 0.063457
v -0.022759 -0.076354 0.061143
v -0.023497 -0.076224 0.059829
v -0.023361 -0.076276 0.060264
v -0.02531 -0.075936 0.065865
v -0.021956 -0.076388 0.061346
v -0.025599 -0.075387 0.065393
v -0.02595 -0.075325 0.065226
v -0.025545 -0.075407 0.065918
v -0.026081 -0.075308 0.066154
v -0.026386 -0.075267 0.065802
v -0.026303 -0.075273 0.065394
v -0.027687 -0.075045 0.063266
v -0.02764 -0.075069 0.063796
v -0.028166 -0.074965 0.064044
v -0.028044 -0.074986 0.063104
v -0.028481 -0.074928 0.06368
v -0.028396 -0.074934 0.063271
v -0.027204 -0.075128 0.061043
v -0.027122 -0.075148 0.06145
v -0.027426 -0.075091 0.061802
v -0.027686 -0.075048 0.060881
v -0.027908 -0.075013 0.061644
v -0.027992 -0.075007 0.061235
v -0.025449 -0.075402 0.059776
v -0.025141 -0.075469 0.060145
v -0.025223 -0.075448 0.060554
v -0.025697 -0.075366 0.060723
v -0.026013 -0.075326 0.060362
v -0.025927 -0.075334 0.059951
v -0.023571 -0.075728 0.061494
v -0.023924 -0.075672 0.061053
v -0.023584 -0.075708 0.060582
v -0.023057 -0.07581 0.060829
v -0.02311 -0.07579 0.061354
v -0.025033 -0.075479 0.062699
v -0.024935 -0.075494 0.06306
v -0.025126 -0.075467 0.063378
v -0.025566 -0.075391 0.063432
v -0.025494 -0.075416 0.062558
v -0.025846 -0.07536 0.063
v -0.022549 -0.075875 0.062722
v -0.022237 -0.075938 0.063083
v -0.022348 -0.07591 0.063547
v -0.022853 -0.075828 0.063629
v -0.023111 -0.075796 0.063302
v -0.023025 -0.075804 0.062891
v -0.028248 -0.075264 0.060212
v -0.023185 -0.07603 0.066291
v -0.022089 -0.076157 0.065134
v -0.026576 -0.075616 0.059235
v -0.024674 -0.075819 0.066889
v -0.025258 -0.075705 0.059025
v -0.026279 -0.075546 0.066896
v -0.023969 -0.075934 0.059329
v -0.029251 -0.074988 0.064007
v -0.028637 -0.075121 0.065174
v -0.027571 -0.075327 0.066256
v -0.022611 -0.076119 0.060219
v -0.029268 -0.074985 0.062065
v -0.021436 -0.076212 0.062991
v -0.022913 -0.068439 0.06688
v -0.020755 -0.068788 0.060896
v -0.023542 -0.068337 0.058902
v -0.020346 -0.068854 0.064404
v -0.026345 -0.067886 0.066426
v -0.027384 -0.07537 0.065973
v -0.026548 -0.066825 0.064727
v -0.025739 -0.066956 0.065385
v -0.026008 -0.066934 0.065962
v -0.027069 -0.067303 0.06497
v -0.02699 -0.066754 0.06498
v -0.028123 -0.067595 0.063891
v -0.02748 -0.067689 0.06512
v -0.026343 -0.067883 0.059584
v -0.027901 -0.067631 0.061344
v -0.027475 -0.075196 0.066084
v -0.026336 -0.067744 0.066069
vn -0.5439 -0.0559 0.8373
vn -0.8611 -0.4865 0.1479
vn -0.7654 -0.1141 -0.6333
vn -0.8246 -0.3976 -0.4025
vn -0.3224 -0.45 0.8328
vn 0.4117 -0.2735 -0.8693
vn 0.163 -0.4752 -0.8646
vn 0.6359 -0.6967 -0.332
vn 0.5582 -0.6554 0.5088
vn 0.8204 -0.4137 0.3948
vn -0.1024 -0.9945 0.0213
vn -0.1663 -0.986 0.0093
vn -0.1579 -0.9874 0.0106
vn -0.1869 -0.9822 -0.021
vn -0.1601 -0.9871 -0.0004
vn -0.1595 -0.9872 -0.0004
vn -0.1574 -0.9875 0.0012
vn -0.201 -0.9786 -0.0451
vn -0.1555 -0.9878 -0.0089
vn -0.1632 -0.9866 -0.0071
vn -0.132 -0.9897 0.0549
vn -0.1513 -0.9885 0.0016
vn -0.1654 -0.9862 0.0025
vn -0.1586 -0.9873 -0.005
vn -0.1583 -0.9874 0.0063
vn -0.1611 -0.9869 -0.007
vn -0.1563 -0.9876 -0.0114
vn -0.1574 -0.9875 0.008
vn -0.1624 -0.9866 0.0149
vn -0.1308 -0.9895 0.0613
vn -0.1709 -0.9853 -0.0027
vn -0.1509 -0.9886 0.0007
vn -0.2205 -0.975 -0.0287
vn -0.1286 -0.9905 0.0486
vn -0.1912 -0.9811 0.029
vn -0.1645 -0.9864 0.0017
vn -0.1942 -0.9805 0.0295
vn -0.1641 -0.9859 -0.032
vn -0.1737 -0.9848 0.0024
vn -0.1244 -0.9921 -0.0163
vn -0.1546 -0.9879 0.0117
vn -0.155 -0.9878 0.0142
vn -0.1565 -0.9877 -0.0048
vn -0.2029 -0.9792 0.0025
vn -0.2131 -0.9758 -0.0493
vn -0.1675 -0.9859 0.002
vn -0.2181 -0.9692 -0.1141
vn -0.1569 -0.9876 0.0054
vn -0.1689 -0.9856 0.0026
vn -0.0211 -0.9963 -0.0833
vn -0.1614 -0.9869 0.005
vn -0.1648 -0.9855 -0.0398
vn -0.1498 -0.9887 -0.0027
vn -0.159 -0.9873 0.0043
vn -0.1592 -0.9873 0.0001
vn -0.1566 -0.9876 0.0067
vn -0.4362 -0.5458 0.7154
vn -0.9087 -0.4102 0.0776
vn -0.929 -0.271 0.2519
vn -0.6916 -0.2385 -0.6817
vn -0.4181 -0.559 -0.716
vn 0.5871 -0.4003 -0.7036
vn 0.6038 -0.5392 -0.5871
vn 0.7256 -0.6695 0.159
vn 0.7713 -0.4313 0.468
vn 0.2715 -0.6008 0.7518
vn -0.0816 -0.3666 0.9268
vn -0.9062 -0.4183 0.0617
vn -0.9105 -0.1063 0.3996
vn -0.5176 -0.2181 -0.8273
vn -0.456 -0.3332 -0.8252
vn -0.4207 -0.5424 0.7272
vn 0.6891 -0.3556 -0.6314
vn 0.6741 -0.5741 -0.4648
vn 0.665 -0.7319 0.1483
vn 0.4689 -0.187 0.8632
vn 0.3739 -0.2923 0.8802
vn -0.8571 -0.1395 0.4959
vn -0.8999 -0.406 0.1592
vn -0.7432 -0.321 -0.5871
vn -0.5673 -0.0138 -0.8234
vn -0.3469 -0.5334 0.7715
vn 0.8909 -0.4126 -0.1898
vn 0.9267 -0.1836 -0.328
vn 0.4518 -0.7533 0.478
vn 0.1125 -0.3334 0.936
vn 0.1399 -0.6528 -0.7445
vn -0.5041 -0.1029 0.8575
vn -0.7319 -0.4214 0.5354
vn -0.9356 -0.3087 -0.1717
vn -0.9049 -0.0396 -0.4238
vn -0.3619 -0.5797 -0.7301
vn 0.4615 -0.2355 -0.8553
vn 0.5648 -0.6057 -0.5604
vn 0.7718 -0.6117 0.1736
vn 0.826 -0.3719 0.4236
vn 0.166 -0.6794 0.7147
vn 0.5439 -0.6604 -0.5177
vn 0.7985 -0.4362 -0.415
vn 0.5703 -0.6787 0.4627
vn 0.478 -0.2782 0.8331
vn -0.4373 -0.5638 0.7006
vn -0.8231 -0.132 0.5524
vn -0.8577 -0.5096 -0.0685
vn -0.3155 -0.458 -0.8311
vn -0.5521 -0.0334 -0.8331
vn -0.5634 -0.0049 0.8262
vn -0.865 -0.4533 0.2152
vn -0.7309 -0.0339 -0.6816
vn -0.8349 -0.2772 -0.4755
vn -0.1943 -0.5527 -0.8104
vn -0.3155 -0.4579 0.8311
vn 0.518 -0.3849 -0.7639
vn 0.5913 -0.6809 -0.4321
vn 0.5439 -0.6605 0.5177
vn 0.7984 -0.4364 0.4149
vn -0.518 -0.2764 0.8095
vn -0.6908 -0.5139 0.5087
vn -0.9047 -0.3791 -0.1945
vn -0.893 -0.1069 -0.4371
vn -0.2224 -0.6061 -0.7637
vn 0.5427 -0.1468 -0.827
vn 0.6257 -0.5552 -0.548
vn 0.6956 -0.7005 0.1594
vn 0.6905 -0.2344 0.6843
vn 0.1976 -0.5729 0.7954
vn -0.3252 -0.892 -0.3139
vn 0.2679 -0.8891 0.3712
vn 0.3288 -0.8531 0.4051
vn -0.2852 -0.947 -0.1476
vn -0.0674 -0.9287 0.3647
vn 0.0935 -0.8422 0.531
vn 0.0169 -0.6529 -0.7573
vn -0.118 -0.9318 -0.3432
vn -0.1321 -0.7951 0.592
vn -0.0468 -0.8827 -0.4676
vn -0.7504 -0.5727 0.33
vn -0.3055 -0.8222 0.4803
vn -0.4239 -0.6467 0.6341
vn -0.2091 -0.9773 0.0351
vn -0.647 -0.7471 0.1525
vn -0.6141 -0.7763 0.1419
vn 0.3812 -0.597 -0.7059
vn 0.2672 -0.8907 -0.3678
vn -0.0238 -0.9971 -0.0729
vn -0.9686 -0.2484 0.0081
vn 0.0149 -0.9923 -0.1226
vn 0.5199 -0.8511 -0.0729
vn -0.6831 -0.6783 -0.2708
vn -0.6741 -0.6886 -0.2674
vn 0.5057 -0.8622 0.0286
vn 0.0047 0.0001 1
vn 0.8359 -0.1631 -0.5241
vn 0.3607 -0.085 0.9288
vn 0.5731 -0.0696 -0.8165
vn 0.5388 -0.0775 -0.8388
vn 0.6852 -0.0807 0.7239
vn 0.7167 -0.1021 0.6899
vn 0.2181 -0.067 -0.9736
vn 0.9284 -0.1896 0.3196
vn 0.942 -0.1924 0.2749
vn 0.9854 -0.1235 -0.1172
vn 0.9452 -0.166 -0.281
vn -0.4362 0.0513 0.8984
vn -0.1213 0.0597 0.9908
vn -0.6539 0.5534 -0.516
vn -0.791 -0.5671 -0.2296
vn -0.6209 0.081 0.7797
vn -0.738 0.1164 0.6647
vn -0.8798 0.1404 -0.4541
vn -0.8941 0.1453 -0.4236
vn 0.4855 -0.0851 0.8701
vn 0.4866 -0.0867 0.8693
vn 0.2767 -0.0358 0.9603
vn -0.8695 0.1401 0.4736
vn -0.8729 0.1393 0.4676
vn -0.1565 0.02 -0.9875
vn -0.2288 0.0508 -0.9722
vn -0.495 0.0541 -0.8672
vn -0.7326 0.1324 -0.6676
vn -0.8634 0.1123 -0.4919
vn -0.9809 0.1737 -0.088
vn -0.9885 0.151 0.0089
vn 0.399 -0.0709 0.9142
vn 0.7748 -0.1161 0.6215
vn -0.8378 -0.091 -0.5384
vn -0.9052 0.1375 -0.402
vn -0.9861 0.1616 0.0385
f 1//1 2//1 3//1
f 2//2 1//2 4//2
f 1//3 5//3 4//3
f 6//4 5//4 1//4
f 7//5 3//5 2//5
f 8//6 9//6 6//6
f 6//7 9//7 5//7
f 9//8 8//8 10//8
f 10//9 3//9 7//9
f 3//10 10//10 8//10
f 11//11 12//11 1//11
f 13//12 14//12 15//12
f 16//13 17//13 18//13
f 19//14 20//14 21//14
f 22//15 23//15 24//15
f 25//16 23//16 22//16
f 25//17 26//17 23//17
f 21//18 20//18 27//18
f 3//19 8//19 26//19
f 22//20 24//20 28//20
f 29//21 30//21 31//21
f 25//22 3//22 26//22
f 22//23 28//23 14//23
f 32//24 33//24 34//24
f 32//25 35//25 36//25
f 32//26 34//26 35//26
f 35//27 22//27 14//27
f 35//28 14//28 37//28
f 38//29 32//29 36//29
f 39//30 12//30 11//30
f 32//31 40//31 33//31
f 34//32 3//32 25//32
f 23//33 21//33 27//33
f 24//34 30//34 29//34
f 24//35 27//35 30//35
f 38//36 36//36 41//36
f 24//37 23//37 27//37
f 28//38 42//38 15//38
f 43//39 40//39 32//39
f 12//40 6//40 1//40
f 44//41 41//41 18//41
f 18//42 17//42 13//42
f 44//43 38//43 41//43
f 39//44 40//44 43//44
f 44//45 45//45 38//45
f 33//46 1//46 3//46
f 8//47 19//47 46//47
f 36//48 37//48 16//48
f 14//49 28//49 15//49
f 47//50 39//50 43//50
f 33//51 3//51 34//51
f 6//52 19//52 8//52
f 11//53 1//53 33//53
f 16//54 37//54 17//54
f 8//55 46//55 26//55
f 36//56 35//56 37//56
f 26//57 48//57 49//57
f 48//58 46//58 50//58
f 26//59 46//59 48//59
f 19//60 50//60 46//60
f 50//61 19//61 51//61
f 21//62 51//62 19//62
f 51//63 21//63 52//63
f 21//64 53//64 52//64
f 23//65 53//65 21//65
f 23//66 49//66 53//66
f 49//67 23//67 26//67
f 54//68 24//68 55//68
f 24//69 54//69 28//69
f 29//70 55//70 24//70
f 29//71 56//71 55//71
f 57//72 28//72 54//72
f 56//73 42//73 58//73
f 29//74 42//74 56//74
f 42//75 59//75 58//75
f 28//76 59//76 42//76
f 28//77 57//77 59//77
f 37//78 60//78 17//78
f 60//79 37//79 61//79
f 37//80 62//80 61//80
f 14//81 62//81 37//81
f 63//82 17//82 60//82
f 64//83 13//83 65//83
f 13//84 64//84 14//84
f 13//85 63//85 65//85
f 63//86 13//86 17//86
f 62//87 14//87 64//87
f 41//88 66//88 18//88
f 66//89 41//89 67//89
f 41//90 68//90 67//90
f 36//91 68//91 41//91
f 36//92 69//92 68//92
f 16//93 69//93 36//93
f 16//94 70//94 69//94
f 16//95 71//95 70//95
f 18//96 71//96 16//96
f 18//97 66//97 71//97
f 72//98 32//98 73//98
f 38//99 73//99 32//99
f 38//100 74//100 73//100
f 45//101 74//101 38//101
f 45//102 75//102 74//102
f 43//103 75//103 45//103
f 43//104 76//104 75//104
f 76//105 32//105 72//105
f 32//106 76//106 43//106
f 34//107 77//107 35//107
f 77//108 34//108 78//108
f 25//109 79//109 34//109
f 79//110 78//110 34//110
f 79//111 25//111 80//111
f 81//112 35//112 77//112
f 22//113 80//113 25//113
f 22//114 82//114 80//114
f 82//115 35//115 81//115
f 35//116 82//116 22//116
f 39//117 83//117 40//117
f 39//118 84//118 83//118
f 39//119 85//119 84//119
f 11//120 85//120 39//120
f 85//121 11//121 86//121
f 33//122 86//122 11//122
f 33//123 87//123 86//123
f 33//124 88//124 87//124
f 40//125 88//125 33//125
f 40//126 83//126 88//126
f 89//127 18//127 13//127
f 90//128 6//128 12//128
f 90//129 12//129 91//129
f 92//130 18//130 89//130
f 93//131 19//131 6//131
f 93//132 6//132 90//132
f 92//133 44//133 18//133
f 94//134 44//134 92//134
f 95//135 19//135 93//135
f 96//136 44//136 94//136
f 97//137 31//137 98//137
f 95//138 20//138 19//138
f 95//139 99//139 20//139
f 42//140 29//140 31//140
f 15//141 42//141 31//141
f 97//142 15//142 31//142
f 100//143 44//143 96//143
f 100//144 47//144 44//144
f 47//145 43//145 45//145
f 101//146 15//146 97//146
f 44//147 47//147 45//147
f 102//148 39//148 47//148
f 89//149 13//149 15//149
f 89//150 15//150 101//150
f 102//151 12//151 39//151
f 103//152 95//152 93//152
f 104//153 47//153 100//153
f 103//154 93//154 90//154
f 105//155 104//155 100//155
f 105//156 100//156 96//156
f 106//157 103//157 90//157
f 106//158 90//158 91//158
f 105//159 96//159 94//159
f 106//160 91//160 12//160
f 106//161 12//161 102//161
f 104//162 106//162 102//162
f 104//163 102//163 47//163
f 107//164 99//164 95//164
f 103//165 107//165 95//165
f 27//166 99//166 108//166
f 27//167 20//167 99//167
f 109//168 30//168 110//168
f 30//169 27//169 110//169
f 27//170 108//170 110//170
f 110//171 108//171 111//171
f 112//172 109//172 113//172
f 112//173 31//173 109//173
f 31//174 30//174 109//174
f 114//175 97//175 98//175
f 115//176 114//176 98//176
f 105//177 94//177 92//177
f 116//178 105//178 92//178
f 116//179 92//179 89//179
f 117//180 116//180 89//180
f 117//181 89//181 101//181
f 114//182 117//182 101//182
f 114//183 101//183 97//183
f 31//184 112//184 115//184
f 31//185 115//185 98//185
f 99//186 118//186 108//186
f 119//187 118//187 99//187
f 107//188 119//188 99//188
