o obj1
v -0.063994 -0.060791 0.0589
v -0.063802 -0.060933 0.0587
v -0.063984 -0.060706 0.0587
v -0.063401 -0.06071 0.0589
v -0.063417 -0.060611 0.0587
v -0.063554 -0.060879 0.0587
v -0.063988 -0.060503 0.0587
v -0.063661 -0.060928 0.0589
v -0.063795 -0.060338 0.0587
v -0.063538 -0.060357 0.0587
v -0.063579 -0.060388 0.0589
v -0.063932 -0.060477 0.0589
v -0.063475 -0.060686 0.0589
v -0.063732 -0.060888 0.0589
v -0.063731 -0.060754 0.0589
v -0.063923 -0.060727 0.0589
v -0.063665 -0.060708 0.0587
v -0.063566 -0.060738 0.0587
v -0.063549 -0.060564 0.0587
v -0.063798 -0.060703 0.0587
v -0.06379 -0.060558 0.0587
v -0.063663 -0.060693 0.0589
v -0.063593 -0.060313 0.0589
v -0.06395 -0.060424 0.0589
v -0.063375 -0.060099 0.0589
v -0.063918 -0.060189 0.0589
v -0.06399 -0.056847 0.058814
v -0.066336 -0.055924 0.059028
v -0.06646 -0.057031 0.0589
v -0.064016 -0.057598 0.0589
v -0.064157 -0.057876 0.0589
v -0.062848 -0.057032 0.058811
v -0.063539 -0.05761 0.0589
v -0.063482 -0.057156 0.058722
v -0.063838 -0.057098 0.05878
v -0.064572 -0.06177 0.0589
v -0.064445 -0.059958 0.0589
v -0.063072 -0.057222 0.05878
v -0.063341 -0.057178 0.0589
v -0.063071 -0.057815 0.0589
v -0.063743 -0.058609 0.0589
v -0.063655 -0.05807 0.05874
v -0.064314 -0.058844 0.0589
v -0.063872 -0.059219 0.0589
v -0.064385 -0.059397 0.0589
v -0.060558 -0.057975 0.0589
v -0.06036 -0.056892 0.058962
v -0.063154 -0.058918 0.0589
v -0.063149 -0.058619 0.0589
v -0.063648 -0.061747 0.0589
v -0.063189 -0.059139 0.0589
v -0.063303 -0.059515 0.0589
v -0.063537 -0.059959 0.0589
v -0.064185 -0.059483 0.0589
v -0.064231 -0.059878 0.0589
v -0.063507 -0.059605 0.0589
v -0.063737 -0.060189 0.0587
v -0.063565 -0.059974 0.0587
v -0.063527 -0.05955 0.0587
v -0.063471 -0.059321 0.0587
v -0.064244 -0.059286 0.0587
v -0.064283 -0.059581 0.0587
v -0.064499 -0.059901 0.0587
v -0.06409 -0.059985 0.0587
v -0.0633 -0.060034 0.0587
v -0.063324 -0.058472 0.0587
v -0.063162 -0.058634 0.0587
v -0.063076 -0.058049 0.0587
v -0.063756 -0.058592 0.0587
v -0.063581 -0.058404 0.0587
v -0.064157 -0.057876 0.0587
v -0.06322 -0.058141 0.0589
v -0.063333 -0.058477 0.0589
v -0.063585 -0.058395 0.0589
v -0.064223 -0.056266 0.037183
v -0.068433 -0.061629 0.037248
v -0.067289 -0.055769 0.037206
v -0.059378 -0.057051 0.037206
v -0.06037 -0.062664 0.037172
v -0.073718 -0.054728 0.052704
v -0.073372 -0.054784 0.051751
v -0.0745 -0.054601 0.050196
v -0.06842 -0.055586 0.058307
v -0.068115 -0.055636 0.057716
v -0.055616 -0.05766 0.040514
v -0.053599 -0.057986 0.042037
v -0.055218 -0.057724 0.039925
v -0.058072 -0.057262 0.038549
v -0.072163 -0.05498 0.054075
v -0.057272 -0.057392 0.038248
v -0.054241 -0.057883 0.042336
v -0.072393 -0.054943 0.054968
v -0.070596 -0.055234 0.056869
v -0.070724 -0.055213 0.055818
v -0.06472 -0.056185 0.058747
v -0.061816 -0.056656 0.058714
v -0.053263 -0.058041 0.044381
v -0.052288 -0.058199 0.045113
v -0.061002 -0.056788 0.037437
v -0.052748 -0.058124 0.046615
v -0.051968 -0.058251 0.048651
v -0.052701 -0.058132 0.049209
v -0.052487 -0.058167 0.051473
v -0.053427 -0.058014 0.052056
v -0.067043 -0.055809 0.037861
v -0.053548 -0.057995 0.053875
v -0.069395 -0.055428 0.038248
v -0.069058 -0.055483 0.03886
v -0.055037 -0.057754 0.054872
v -0.055119 -0.05774 0.055971
v -0.07145 -0.055095 0.039925
v -0.071051 -0.05516 0.040514
v -0.05753 -0.05735 0.057093
v -0.057118 -0.057417 0.057651
v -0.073068 -0.054833 0.042037
v -0.072426 -0.054937 0.042336
v -0.073519 -0.05476 0.044681
v -0.059225 -0.057075 0.058737
v -0.059624 -0.057011 0.058139
v -0.074162 -0.054656 0.044469
v -0.074699 -0.054569 0.047323
v -0.074048 -0.054675 0.048226
v -0.07563 -0.060497 0.048995
v -0.07507 -0.060587 0.051689
v -0.073948 -0.060769 0.054093
v -0.072313 -0.061034 0.056172
v -0.070252 -0.061368 0.057816
v -0.068092 -0.061718 0.058854
v -0.066459 -0.05704 0.059122
v -0.065526 -0.062133 0.059473
v -0.064691 -0.061617 0.059494
v -0.064006 -0.061868 0.059499
v -0.062406 -0.062638 0.059386
v -0.063456 -0.061557 0.059515
v -0.06056 -0.057974 0.059105
v -0.059491 -0.063111 0.058447
v -0.057256 -0.063473 0.057054
v -0.055395 -0.063774 0.05518
v -0.054008 -0.063999 0.052924
v -0.052998 -0.064162 0.04966
v -0.052505 -0.05634 0.046143
v -0.052437 -0.056351 0.049404
v -0.053399 -0.056195 0.043345
v -0.054973 -0.055941 0.040886
v -0.057778 -0.055486 0.038538
v -0.060893 -0.054982 0.037398
v -0.063789 -0.054513 0.037187
v -0.066618 -0.054055 0.037799
v -0.068637 -0.053728 0.038789
v -0.07068 -0.053397 0.040406
v -0.072564 -0.053091 0.04305
v -0.073587 -0.052926 0.046143
v -0.073678 -0.052911 0.049072
v -0.073212 -0.052987 0.051295
v -0.072307 -0.053133 0.053398
v -0.070981 -0.053348 0.055231
v -0.069304 -0.053619 0.056773
v -0.066749 -0.054033 0.058169
v -0.063922 -0.054491 0.058788
v -0.061679 -0.054855 0.058724
v -0.059474 -0.055212 0.058201
v -0.056698 -0.055661 0.05674
v -0.054494 -0.056018 0.054489
v -0.05321 -0.056226 0.052228
v -0.065672 -0.062109 0.058464
v -0.062161 -0.062678 0.058316
v -0.054084 -0.063986 0.050032
v -0.05393 -0.064011 0.047434
v -0.070988 -0.061248 0.039933
v -0.073159 -0.060897 0.040781
v -0.071278 -0.061202 0.038904
v -0.072903 -0.060938 0.04211
v -0.074564 -0.060669 0.043046
v -0.068259 -0.06169 0.038257
v -0.058892 -0.063208 0.057029
v -0.055034 -0.063832 0.052773
v -0.07394 -0.06077 0.044127
v -0.067149 -0.06187 0.036845
v -0.075492 -0.060519 0.045898
v -0.074545 -0.060672 0.046295
v -0.056463 -0.063601 0.054917
v -0.065806 -0.062088 0.0376
v -0.064293 -0.062333 0.036467
v -0.063237 -0.062504 0.037515
v -0.074645 -0.060656 0.04888
v -0.061437 -0.062795 0.036845
v -0.073929 -0.060772 0.052022
v -0.060456 -0.062954 0.03822
v -0.058098 -0.063336 0.038271
v -0.058217 -0.063317 0.039463
v -0.072046 -0.061077 0.055028
v -0.056345 -0.06362 0.041223
v -0.055426 -0.063769 0.040781
v -0.069311 -0.06152 0.057253
v -0.055113 -0.06382 0.043098
v -0.054022 -0.063996 0.043046
v -0.054276 -0.063955 0.045208
v -0.053094 -0.064147 0.045898
v -0.054145 -0.065597 0.047902
v -0.054582 -0.065527 0.045031
v -0.055444 -0.065387 0.042955
v -0.056719 -0.06518 0.041083
v -0.058359 -0.064915 0.039562
v -0.060582 -0.064555 0.038257
v -0.063036 -0.064157 0.0376
v -0.065604 -0.063741 0.037515
v -0.068386 -0.063291 0.03822
v -0.070625 -0.062928 0.039463
v -0.072925 -0.062556 0.041718
v -0.074492 -0.062302 0.044898
v -0.074911 -0.062234 0.047434
v -0.074707 -0.062267 0.050357
v -0.0735 -0.062462 0.053342
v -0.072164 -0.062679 0.055142
v -0.06995 -0.063037 0.057029
v -0.06668 -0.063567 0.058316
v -0.063493 -0.064083 0.058485
v -0.060405 -0.064583 0.057667
v -0.057454 -0.065061 0.055734
v -0.055684 -0.065348 0.053465
v -0.054606 -0.065523 0.051102
v -0.066644 -0.061648 0.036735
v -0.06358 -0.062144 0.036476
v -0.075817 -0.062087 0.049576
v -0.07585 -0.062082 0.04656
v -0.063986 -0.064003 0.059524
v -0.067927 -0.063365 0.05906
v -0.056164 -0.06527 0.040133
v -0.075046 -0.062212 0.052477
v -0.059348 -0.064755 0.037735
v -0.053774 -0.065657 0.044141
v -0.063118 -0.064144 0.036514
v -0.07143 -0.062798 0.057195
v -0.07353 -0.062458 0.055073
v -0.053149 -0.065758 0.04844
v -0.067078 -0.063502 0.03675
v -0.05378 -0.065656 0.051715
v -0.069575 -0.063098 0.037675
v -0.054916 -0.065472 0.05413
v -0.071793 -0.062739 0.039097
v -0.057284 -0.065089 0.056937
v -0.07401 -0.06238 0.041576
v -0.060747 -0.064528 0.058877
v -0.075199 -0.062187 0.043984
v -0.05597 -0.078167 0.048568
v -0.057204 -0.077967 0.048539
v -0.056079 -0.078149 0.046288
v -0.065858 -0.076566 0.058738
v -0.068089 -0.076204 0.058665
v -0.066343 -0.076487 0.058216
v -0.065762 -0.076581 0.05749
v -0.073959 -0.075253 0.042038
v -0.074534 -0.075161 0.040861
v -0.072626 -0.075469 0.039125
v -0.063319 -0.076977 0.058271
v -0.063037 -0.077023 0.056858
v -0.071126 -0.075712 0.039627
v -0.076214 -0.074888 0.04336
v -0.056549 -0.078073 0.051743
v -0.057548 -0.077912 0.050648
v -0.06984 -0.075921 0.037729
v -0.075748 -0.074964 0.045665
v -0.067785 -0.076254 0.038528
v -0.058517 -0.077755 0.052899
v -0.060728 -0.077396 0.056997
v -0.077107 -0.074744 0.04647
v -0.060229 -0.077477 0.055043
v -0.067301 -0.076332 0.037262
v -0.058544 -0.07775 0.055081
v -0.075928 -0.074935 0.04901
v -0.077162 -0.074735 0.049067
v -0.065069 -0.076693 0.037335
v -0.064781 -0.07674 0.038648
v -0.076284 -0.074877 0.052538
v -0.075261 -0.075043 0.051693
v -0.062887 -0.077047 0.037908
v -0.061682 -0.077242 0.039816
v -0.060609 -0.077416 0.039066
v -0.074216 -0.075212 0.053521
v -0.074261 -0.075205 0.055452
v -0.072793 -0.075442 0.055167
v -0.058256 -0.077797 0.04127
v -0.059088 -0.077662 0.042221
v -0.072277 -0.075526 0.057097
v -0.070502 -0.075814 0.056656
v -0.056789 -0.078035 0.043792
v -0.057459 -0.077926 0.045477
v -0.070271 -0.075851 0.058092
v -0.06737 -0.076321 0.057537
v -0.067146 -0.076357 0.057987
v -0.064361 -0.067893 0.057483
v -0.064678 -0.067842 0.058039
v -0.06532 -0.067738 0.058221
v -0.065994 -0.067629 0.05756
v -0.062384 -0.068214 0.057096
v -0.055782 -0.069283 0.04808
v -0.05603 -0.069243 0.050221
v -0.057033 -0.06908 0.052796
v -0.058522 -0.068839 0.054716
v -0.060181 -0.06857 0.056071
v -0.076576 -0.073108 0.050804
v -0.076917 -0.073052 0.048569
v -0.075471 -0.073287 0.053497
v -0.073442 -0.073615 0.05601
v -0.070193 -0.074141 0.058087
v -0.066085 -0.074807 0.058804
v -0.062924 -0.075319 0.058214
v -0.060609 -0.075694 0.057097
v -0.058626 -0.076015 0.055452
v -0.05676 -0.076317 0.052821
v -0.055789 -0.076474 0.049622
v -0.055719 -0.076486 0.047025
v -0.074541 -0.066245 0.049236
v -0.069251 -0.067101 0.056581
v -0.071032 -0.066813 0.055433
v -0.072544 -0.066568 0.053911
v -0.07365 -0.066389 0.05209
v -0.055703 -0.076488 0.052347
v -0.072861 -0.073709 0.039525
v -0.074895 -0.07338 0.041599
v -0.074683 -0.073414 0.040124
v -0.062026 -0.075464 0.058676
v -0.059714 -0.075839 0.05739
v -0.071782 -0.073884 0.037898
v -0.076944 -0.073048 0.043822
v -0.057756 -0.076156 0.0556
v -0.07059 -0.074077 0.038122
v -0.076968 -0.073044 0.051951
v -0.076844 -0.073064 0.046622
v -0.055649 -0.076497 0.043999
v -0.076331 -0.073147 0.044398
v -0.069027 -0.07433 0.036795
v -0.068143 -0.074473 0.037399
v -0.065242 -0.074943 0.037247
v -0.065417 -0.074915 0.036479
v -0.061893 -0.075486 0.037363
v -0.061849 -0.075493 0.038202
v -0.076113 -0.073183 0.05387
v -0.058809 -0.075985 0.039291
v -0.059501 -0.075873 0.039726
v -0.074043 -0.073518 0.056469
v -0.057738 -0.076159 0.041612
v -0.056683 -0.076329 0.041856
v -0.071911 -0.073863 0.058016
v -0.056316 -0.076389 0.044266
v -0.069474 -0.074258 0.059083
v -0.065539 -0.074895 0.059551
v -0.065543 -0.066486 0.036476
v -0.06226 -0.067018 0.036795
v -0.075641 -0.064851 0.044049
v -0.074786 -0.064989 0.04213
v -0.055285 -0.068148 0.041923
v -0.054319 -0.068304 0.044049
v -0.068465 -0.066013 0.03703
v -0.057356 -0.067812 0.039447
v -0.070865 -0.065624 0.038138
v -0.059506 -0.067464 0.037898
v -0.072949 -0.065287 0.039776
v -0.075633 -0.064852 0.045732
v -0.075633 -0.064852 0.050268
v -0.075424 -0.063873 0.050598
v -0.075441 -0.06387 0.045582
v -0.07562 -0.064854 0.052089
v -0.054961 -0.067187 0.052702
v -0.056773 -0.066894 0.055443
v -0.055496 -0.068114 0.053405
v -0.065572 -0.065469 0.059013
v -0.068419 -0.066021 0.058459
v -0.065536 -0.066488 0.059025
v -0.068434 -0.065005 0.058399
v -0.074731 -0.064998 0.052905
v -0.054344 -0.0683 0.050451
v -0.073772 -0.06414 0.054351
v -0.054169 -0.067316 0.0502
v -0.062007 -0.066046 0.058684
v -0.062622 -0.06696 0.058762
v -0.073237 -0.06524 0.055181
v -0.060164 -0.067358 0.057886
v -0.059027 -0.066529 0.057332
v -0.071053 -0.064581 0.057055
v -0.071051 -0.065594 0.057167
v -0.057467 -0.067794 0.05602
v -0.074526 -0.064018 0.043013
v -0.072655 -0.064321 0.040301
v -0.074498 -0.065036 0.042586
v -0.064069 -0.065712 0.036987
v -0.06153 -0.066123 0.037504
v -0.062803 -0.06693 0.037199
v -0.065732 -0.066456 0.036987
v -0.055303 -0.067132 0.042586
v -0.054176 -0.067314 0.045703
v -0.054331 -0.068302 0.045683
v -0.055564 -0.068103 0.042408
v -0.067315 -0.065186 0.037254
v -0.068271 -0.066045 0.037504
v -0.057336 -0.066803 0.039997
v -0.057631 -0.067768 0.039869
v -0.070051 -0.064743 0.038333
v -0.070373 -0.065704 0.038424
v -0.059428 -0.066464 0.038424
v -0.060036 -0.067378 0.038163
v -0.072465 -0.065365 0.039997
v -0.054439 -0.067272 0.052789
v -0.053496 -0.067424 0.049239
v -0.059016 -0.066531 0.057972
v -0.062428 -0.065978 0.059266
v -0.07508 -0.063929 0.042899
v -0.072481 -0.06435 0.039437
v -0.069995 -0.064752 0.03775
v -0.056261 -0.066977 0.05559
v -0.067544 -0.065149 0.036796
v -0.076145 -0.063756 0.046761
v -0.064258 -0.065682 0.036476
v -0.076062 -0.06377 0.049764
v -0.060705 -0.066257 0.037222
v -0.075115 -0.063923 0.052978
v -0.058101 -0.066679 0.038716
v -0.073256 -0.064224 0.055732
v -0.05616 -0.066993 0.040506
v -0.071268 -0.064546 0.057494
v -0.054551 -0.067254 0.043044
v -0.068622 -0.064975 0.058877
v -0.053621 -0.067404 0.045897
v -0.065383 -0.065499 0.059524
v -0.067385 -0.066188 0.059296
v -0.054326 -0.068303 0.052008
v -0.055356 -0.068136 0.054143
v -0.064403 -0.066671 0.059498
v -0.074512 -0.065034 0.054269
v -0.061813 -0.06709 0.059083
v -0.07286 -0.065301 0.056331
v -0.059377 -0.067485 0.058016
v -0.070455 -0.065691 0.058101
v -0.057245 -0.06783 0.056469
v -0.068625 -0.067203 0.039107
v -0.074285 -0.066286 0.045579
v -0.057089 -0.069071 0.043137
v -0.065689 -0.067678 0.038491
v -0.056042 -0.069241 0.045669
v -0.062989 -0.068116 0.038722
v -0.073208 -0.06646 0.043065
v -0.071506 -0.066736 0.040935
v -0.060762 -0.068476 0.039602
v -0.058775 -0.068798 0.041001
v -0.057791 -0.068958 0.047161
v -0.057859 -0.068947 0.049311
v -0.063346 -0.068058 0.055293
v -0.065172 -0.067762 0.055512
v -0.069359 -0.067084 0.041785
v -0.070923 -0.066831 0.043239
v -0.072018 -0.066653 0.045081
v -0.067453 -0.067393 0.04084
v -0.058523 -0.068839 0.051353
v -0.072553 -0.066567 0.047161
v -0.061384 -0.068376 0.054472
v -0.065172 -0.067762 0.040467
v -0.059731 -0.068643 0.053122
v -0.072486 -0.066577 0.049311
v -0.062892 -0.068131 0.04084
v -0.071821 -0.066685 0.051353
v -0.060986 -0.06844 0.041785
v -0.070613 -0.066881 0.053122
v -0.059421 -0.068693 0.043239
v -0.068961 -0.067148 0.054472
v -0.058327 -0.068871 0.045081
v -0.066999 -0.067466 0.055293
v -0.072889 -0.065854 0.050867
v -0.073331 -0.065782 0.047789
v -0.070941 -0.050822 0.048186
v -0.063398 -0.052043 0.056347
v -0.065818 -0.066999 0.056357
v -0.066073 -0.05161 0.055641
v -0.06875 -0.066524 0.055525
v -0.068845 -0.051161 0.053617
v -0.071123 -0.06614 0.05372
v -0.07038 -0.050913 0.050955
v -0.063386 -0.052045 0.055464
v -0.065809 -0.067001 0.055462
v -0.066405 -0.066904 0.04056
v -0.067139 -0.066785 0.055226
v -0.072429 -0.065928 0.049008
v -0.061913 -0.052284 0.05549
v -0.072408 -0.065932 0.046845
v -0.07178 -0.066033 0.044777
v -0.069082 -0.06647 0.054331
v -0.070597 -0.066225 0.042976
v -0.070694 -0.066209 0.052912
v -0.068957 -0.066491 0.04159
v -0.071842 -0.066023 0.051088
v -0.061179 -0.06775 0.04159
v -0.059539 -0.068016 0.042976
v -0.058872 -0.068124 0.042409
v -0.061584 -0.067685 0.040371
v -0.058357 -0.068207 0.044777
v -0.057295 -0.068379 0.04511
v -0.063394 -0.067392 0.040655
v -0.057729 -0.068309 0.046845
v -0.064873 -0.067152 0.039596
v -0.056769 -0.068465 0.048274
v -0.057708 -0.068313 0.049008
v -0.067645 -0.066703 0.040043
v -0.057392 -0.068364 0.051104
v -0.058295 -0.068217 0.051088
v -0.069913 -0.066336 0.041197
v -0.058483 -0.068187 0.053061
v -0.059442 -0.068032 0.052912
v -0.060269 -0.067898 0.054834
v -0.071882 -0.066017 0.043233
v -0.061054 -0.067771 0.054331
v -0.0625 -0.067536 0.055958
v -0.062998 -0.067456 0.055226
v -0.072971 -0.06584 0.045544
v -0.064327 -0.06724 0.056326
v -0.064328 -0.06724 0.055462
v -0.054505 -0.053484 0.049688
v -0.055938 -0.053252 0.052945
v -0.05795 -0.052926 0.05489
v -0.059928 -0.052605 0.055907
v -0.061903 -0.052286 0.056331
v -0.06613 -0.051601 0.040371
v -0.062841 -0.052134 0.039596
v -0.05537 -0.053344 0.043958
v -0.054487 -0.053487 0.046657
v -0.07024 -0.050935 0.044559
v -0.059793 -0.052627 0.040125
v -0.068434 -0.051228 0.042022
v -0.057355 -0.053022 0.041548
v -0.064016 -0.057598 0.0587
v -0.063027 -0.05774 0.0587
v -0.063477 -0.05762 0.0587
v -0.064314 -0.058844 0.0587
v -0.063172 -0.059028 0.0587
vn 0.7455 0.5999 0.2905
vn -0.8537 0.4372 0.283
vn 0.9983 0.0196 0.0557
vn 0.3642 0.8881 -0.2805
vn -0.6351 0.7567 -0.1555
vn -0.2101 0.97 0.1221
vn 0 0 1
vn -0.4849 0.5704 0.6629
vn -0.245 0.9679 -0.0564
vn 0.538 0.7447 -0.3949
vn -0.9613 -0.0189 0.2749
vn 0.8771 0.3083 0.3684
vn -0.0001 0 1
vn 0.8494 -0.0475 0.5257
vn -0.914 0.0934 0.3948
vn -0.9335 -0.3281 0.1449
vn -0.2538 0.9578 -0.1348
vn 0.1472 0.9695 0.196
vn 0.0197 0.8356 0.549
vn -0.7671 -0.639 0.0569
vn 0.7753 -0.6304 0.0383
vn -0.0219 -0.9312 0.3639
vn 0.1831 -0.7232 0.6659
vn 0.8208 0.0281 0.5706
vn 0.1343 0.9704 0.2006
vn -0.6408 -0.7591 0.1151
vn -0.9566 -0.0327 0.2896
vn -0.3502 -0.8683 -0.3512
vn 0.8868 -0.4541 0.086
vn 0.55 -0.6991 0.457
vn -0.8925 -0.4264 -0.1474
vn -0.0725 -0.9773 0.199
vn 0.9825 -0.1185 -0.1437
vn -0.8917 -0.4301 -0.1412
vn 0.638 -0.7505 0.1721
vn 0.2936 -0.9396 -0.1757
vn 0.0433 -0.1196 0.9919
vn 0.0261 0.1125 0.9933
vn -0.0549 -0.3555 0.9331
vn 0.2031 0.3342 0.9203
vn 0.0058 0.2312 0.9729
vn 0.3774 -0.1733 0.9097
vn 0.0866 0.1975 0.9765
vn 0.3692 0.2085 0.9057
vn -0.04 -0.3118 0.9493
vn 0 0.0001 1
vn -0.0579 -0.0467 0.9972
vn 0.007 0.1108 0.9938
vn 0.6374 -0.5113 0.5764
vn 0.5165 -0.8562 -0.0076
vn 0 0.0003 1
vn -0 0.0002 1
vn -0.0003 0 1
vn 0.0006 0.0001 1
vn -0 -0.0001 1
vn -0.0007 0.0003 1
vn 0.1556 0.7548 0.6372
vn -0.8371 -0.2007 0.5089
vn 0.3968 0.9051 0.153
vn -0.9431 0.1153 -0.3118
vn 0.9529 -0.1007 -0.286
vn 0.8453 -0.3502 0.4035
vn -0.3302 0.9263 0.1815
vn -0.1616 0.9759 -0.1464
vn 0.315 -0.9072 -0.2788
vn -0.041 -0.9209 0.3877
vn -0.4172 -0.8018 -0.4278
vn -0.6992 -0.7052 -0.1173
vn 0.1718 0.9546 0.2432
vn -0.0371 0.9035 -0.427
vn -0.9135 0.1068 0.3925
vn 0.9877 -0.0868 -0.1301
vn 0.9892 -0.0825 -0.1213
vn -0.8358 -0.3985 -0.3776
vn 0.103 -0.0958 0.9901
vn 0.0532 0.3319 0.9418
vn 0.8033 -0.4714 0.3639
vn 0.9476 -0.3176 0.0343
vn -0.9766 -0.2149 -0.0094
vn -0.2568 -0.9658 -0.036
vn -0.3094 -0.9503 0.0349
vn -0.2645 0.3792 0.8867
vn -0.004 0.9103 0.4138
vn -0.1034 -0.6452 0.757
vn 0.0558 -0.9984 0
vn 0.3604 0.9328 0
vn -0.9881 0.1447 0.0517
vn -0.9915 0.096 -0.0883
vn 0.0716 0.9942 0.0808
vn 0.0181 0.997 -0.0752
vn 0.98 -0.1834 -0.0776
vn -0.0083 -0.0055 -1
vn 0.0055 0.0051 -1
vn -0.0099 -0.0042 -0.9999
vn 0.1598 0.9872 0
vn 0.1599 0.9871 -0.0001
vn 0.1598 0.9871 0.0001
vn 0.1598 0.9871 0
vn 0.1599 0.9871 0
vn 0.16 0.9871 -0.0001
vn 0.1599 0.9871 -0.0002
vn 0.1599 0.9871 0.0001
vn 0.1598 0.9871 -0.0001
vn -0.9823 0.174 0.0698
vn -0.968 0.1435 0.2061
vn -0.9392 0.1645 0.3013
vn -0.8944 0.1324 0.4272
vn -0.8472 0.1495 0.5097
vn -0.774 0.113 0.623
vn -0.7109 0.1274 0.6916
vn -0.6125 0.0869 0.7857
vn -0.5374 0.0991 0.8375
vn -0.4248 0.0578 0.9034
vn -0.3163 0.0675 0.9463
vn -0.5047 0.1274 0.8538
vn -0.2306 0.0249 0.9727
vn -0.0604 0.0578 0.9965
vn -0.0142 -0.0171 0.9998
vn 0.0062 -0.1335 0.991
vn 0.0254 -0.0944 0.9952
vn 0.1303 0.008 0.9914
vn 0.2973 -0.059 0.953
vn 0.2076 0.0903 0.974
vn 0.3047 -0.0635 0.9503
vn 0.4492 -0.0627 0.8912
vn 0.5152 -0.0957 0.8517
vn 0.6322 -0.0902 0.7696
vn 0.694 -0.1247 0.7091
vn 0.7881 -0.1154 0.6047
vn 0.8359 -0.1478 0.5286
vn 0.903 -0.1339 0.4082
vn 0.9389 -0.1704 0.2991
vn 0.9733 -0.1383 0.1834
vn 0.9893 -0.1445 -0.0211
vn 0.99 -0.1399 -0.0184
vn 0.955 -0.1905 -0.2275
vn 0.9458 -0.1032 -0.3079
vn 0.882 -0.1797 -0.4357
vn 0.8344 -0.0914 -0.5435
vn 0.7786 -0.1597 -0.6069
vn 0.6108 -0.106 -0.7847
vn 0.6338 -0.0701 -0.7703
vn 0.3452 -0.063 -0.9364
vn 0.3375 -0.0406 -0.9404
vn 0.0743 -0.026 -0.9969
vn 0.0701 -0.0151 -0.9974
vn -0.2028 0.0524 -0.9778
vn -0.2304 0.0211 -0.9729
vn -0.4335 0.073 -0.8982
vn -0.4308 0.067 -0.9
vn -0.6281 0.0847 -0.7735
vn -0.6051 0.1134 -0.7881
vn -0.7842 0.1277 -0.6072
vn -0.7938 0.1666 -0.5849
vn -0.8992 0.0974 -0.4266
vn -0.923 0.2183 -0.3169
vn -0.9854 0.0824 -0.1491
vn -0.975 0.2198 -0.0314
vn -0.9751 0.1133 0.1907
vn -0.9682 0.139 0.2079
vn -0.8987 0.1814 0.3992
vn -0.879 0.1023 0.4658
vn -0.761 0.0966 0.6415
vn -0.7918 0.1549 0.5908
vn -0.6574 0.1419 0.7401
vn -0.5845 0.0347 0.8107
vn -0.4569 0.1415 0.8782
vn -0.2934 -0.0197 0.9558
vn -0.2021 0.072 0.9767
vn 0.007 -0.027 0.9996
vn 0.0274 -0.0072 0.9996
vn 0.2269 -0.0223 0.9737
vn 0.2454 -0.0543 0.9679
vn 0.4367 -0.0678 0.897
vn 0.4603 -0.0411 0.8868
vn 0.6422 -0.1594 0.7498
vn 0.7077 -0.0661 0.7035
vn 0.852 -0.1517 0.501
vn 0.8526 -0.1565 0.4986
vn 0.9532 -0.1416 0.2673
vn 0.9533 -0.1689 0.2502
vn -0.1599 -0.9871 -0.0001
vn -0.1599 -0.9871 0
vn -0.1598 -0.9871 0.0001
vn -0.1664 -0.9855 -0.0318
vn -0.1598 -0.9871 -0
vn -0.1931 -0.9808 -0.0269
vn -0.16 -0.9871 0
vn -0.1599 -0.9871 0.0001
vn 0.9733 -0.1721 -0.1521
vn 0.9717 -0.1777 -0.1554
vn 0.9083 -0.1568 -0.3879
vn 0.9179 -0.1366 -0.3727
vn 0.8107 -0.1434 -0.5677
vn 0.8232 -0.1237 -0.5541
vn 0.667 -0.1048 -0.7376
vn 0.6734 -0.0957 -0.733
vn 0.4921 -0.0971 -0.8651
vn 0.4776 -0.058 -0.8767
vn 0.256 -0.0182 -0.9665
vn 0.2391 -0.0413 -0.9701
vn 0.025 -0.0479 -0.9985
vn -0.025 0.0479 -0.9985
vn -0.256 0.0182 -0.9665
vn -0.2391 0.0413 -0.9701
vn -0.4776 0.058 -0.8767
vn -0.5037 0.13 -0.8541
vn -0.695 0.0503 -0.7172
vn -0.7277 0.1709 -0.6643
vn -0.8899 0.0956 -0.4461
vn -0.8781 0.1241 -0.4622
vn -0.941 0.202 -0.2714
vn -0.9802 0.1096 -0.1651
vn -0.9788 0.201 -0.0395
vn -0.9922 0.1026 0.0703
vn -0.944 0.242 0.2243
vn -0.9239 0.0606 0.3777
vn -0.819 0.2094 0.5342
vn -0.793 0.1012 0.6008
vn -0.6358 0.1013 0.7652
vn -0.6107 0.1422 0.779
vn -0.364 0.0157 0.9313
vn -0.298 0.1092 0.9483
vn -0.0624 -0.0586 0.9963
vn 0.0534 0.0693 0.9962
vn 0.2379 -0.1092 0.9651
vn 0.3695 0.0244 0.9289
vn 0.5181 -0.1822 0.8357
vn 0.6541 -0.0211 0.7561
vn 0.7656 -0.1733 0.6195
vn 0.8232 -0.0976 0.5593
vn 0.888 -0.1894 0.419
vn 0.9396 -0.0888 0.3305
vn 0.9633 -0.2267 0.1439
vn 0.9914 -0.1167 0.0599
vn 0.121 0.9139 0.3875
vn 0.1598 0.9872 0.0001
vn 0.16 0.9871 0
vn -0.855 0.1374 -0.5001
vn -0.7654 0.1345 -0.6293
vn -0.2688 0.032 -0.9627
vn 0.2692 -0.0309 -0.9626
vn 0.6844 -0.1256 -0.7182
vn 0.8823 -0.1385 -0.4498
vn -0.1874 0.0294 -0.9818
vn -0.2191 0.0425 -0.9748
vn -0.9811 0.1545 -0.1163
vn -0.9732 0.1624 -0.1631
vn -0.9192 0.1429 -0.3671
vn -0.9044 0.15 -0.3995
vn -0.7755 0.1298 -0.6179
vn -0.7675 0.1238 -0.6289
vn -0.6208 0.0932 -0.7784
vn -0.5286 0.1001 -0.843
vn -0.4137 0.0552 -0.9088
vn -0.9705 0.1868 0.1524
vn -0.9653 0.0832 0.2477
vn -0.8956 0.2268 0.3826
vn -0.8157 0.0704 0.5742
vn -0.7562 0.1674 0.6326
vn -0.6323 0.0543 0.7728
vn -0.5116 0.1677 0.8427
vn -0.4412 0.0227 0.8971
vn -0.2518 0.0142 0.9677
vn -0.1519 0.1199 0.9811
vn -0.0396 -0.0429 0.9983
vn 0.1787 -0.0141 0.9838
vn 0.1819 -0.0099 0.9833
vn 0.4288 -0.0828 0.8996
vn 0.4243 -0.0703 0.9028
vn 0.6417 -0.1312 0.7557
vn 0.6273 -0.0893 0.7736
vn 0.8079 -0.0864 0.5829
vn 0.8285 -0.2175 0.5161
vn 0.9539 -0.0653 0.2929
vn 0.9595 -0.2156 0.1816
vn 0.9921 -0.1229 0.027
vn 0.9586 -0.1466 -0.2441
vn 0.2802 -0.0484 -0.9587
vn 0.2647 -0.0394 -0.9635
vn 0.5305 -0.0822 -0.8437
vn 0.5333 -0.0838 -0.8418
vn 0.6947 -0.1199 -0.7093
vn 0.7436 -0.1141 -0.6588
vn 0.8535 -0.1425 -0.5012
vn 0.8413 -0.1326 -0.5241
vn 0.9398 -0.1611 -0.3015
vn -0.1602 -0.9871 -0
vn -0.1598 -0.9872 -0
vn -0.1594 -0.9872 0
vn 0.0971 0.001 -0.9953
vn -0.8983 0.1542 -0.4115
vn 0.8971 -0.1431 -0.4179
vn 0.8861 -0.1479 -0.4392
vn -0.0875 -0.0017 -0.9962
vn -0.18 0.0399 -0.9829
vn 0.7558 -0.124 -0.643
vn 0.7531 -0.1215 -0.6466
vn -0.3641 0.0509 -0.93
vn -0.4084 0.0717 -0.91
vn 0.5732 -0.0863 -0.8149
vn -0.597 0.0894 -0.7972
vn 0.5162 -0.0969 -0.851
vn -0.6056 0.0954 -0.7901
vn 0.3648 -0.0465 -0.9299
vn -0.7722 0.1382 -0.6201
vn 0.2346 -0.0549 -0.9705
vn -0.8424 0.1151 -0.5264
vn -0.9876 0.1568 0.0051
vn -0.9871 0.1603 -0.003
vn -0.9874 0.158 0
vn -0.9813 0.1924 0.0034
vn -0.978 0.2085 0
vn -0.9867 0.1624 0.0074
vn 0.83 -0.0577 0.5547
vn -0.1917 0.0047 0.9814
vn -0.2008 0.0554 0.9781
vn -0.9407 0.0907 0.3268
vn 0.899 -0.241 0.3657
vn -0.8678 0.2912 0.4027
vn 0.948 -0.0908 0.3049
vn 0.0934 0.0228 0.9954
vn 0.0943 0.015 0.9954
vn -0.8356 0.0082 0.5493
vn 0.3142 -0.1304 0.9403
vn 0.4173 0.0341 0.9081
vn -0.663 0.0811 0.7442
vn -0.6724 0.209 0.7101
vn 0.5377 -0.1888 0.8217
vn 0.642 -0.0032 0.7667
vn -0.434 0.0473 0.8997
vn -0.4417 0.098 0.8918
vn 0.7694 -0.2052 0.605
vn -0.7919 0.2172 -0.5707
vn 0.2061 0.0445 -0.9775
vn 0.0526 -0.1175 -0.9917
vn 0.9286 -0.139 -0.3441
vn 0.9167 -0.181 -0.3562
vn -0.9335 0.1164 -0.3393
vn -0.9302 0.1295 -0.3434
vn -0.0597 0.1335 -0.9892
vn -0.2073 -0.0532 -0.9768
vn 0.7772 -0.0946 -0.6222
vn 0.7574 -0.1475 -0.6361
vn -0.3478 0.1167 -0.9303
vn -0.3947 0.0445 -0.9177
vn 0.5915 -0.0746 -0.8028
vn 0.5584 -0.1371 -0.8181
vn -0.5863 0.1197 -0.8012
vn -0.5827 0.1277 -0.8026
vn 0.4006 -0.004 -0.9162
vn -0.7837 0.0379 -0.62
vn 0.3076 -0.1287 -0.9428
vn -0.1173 0.0042 0.9931
vn 0.8887 -0.1314 0.4393
vn -0.0648 0.0154 0.9978
vn -0.9004 0.1414 0.4115
vn -0.8765 0.1498 0.4576
vn 0.1556 -0.0151 0.9877
vn 0.2331 -0.0531 0.971
vn -0.7672 0.1199 0.6301
vn -0.7687 0.1212 0.628
vn 0.3933 -0.0546 0.9178
vn 0.4738 -0.0847 0.8766
vn -0.5746 0.0938 0.813
vn -0.5797 0.097 0.809
vn 0.5762 -0.0841 0.813
vn 0.6598 -0.118 0.7421
vn -0.3924 0.0603 0.9178
vn -0.3525 0.0666 0.9334
vn 0.7639 -0.1132 0.6353
vn 0.829 -0.1503 0.5387
vn 0.9878 -0.1554 0.0027
vn 0.9845 -0.1753 -0.0015
vn 0.987 -0.1603 0.0074
vn 0.986 -0.1665 -0.012
vn 0.9871 -0.1601 0.0065
vn 0.9866 -0.1632 0.0027
vn 0.9805 -0.1904 -0.0484
vn 0.9701 -0.1149 -0.2136
vn 0.9418 -0.191 -0.2766
vn 0.8464 -0.1616 -0.5075
vn 0.8717 -0.1131 -0.4769
vn 0.7214 -0.0845 -0.6874
vn 0.6607 -0.1606 -0.7333
vn 0.541 -0.0287 -0.8405
vn 0.4341 -0.121 -0.8927
vn 0.2503 -0.0238 -0.9679
vn 0.2711 0.0011 -0.9626
vn 0.0249 -0.0477 -0.9986
vn -0.0436 0.0538 -0.9976
vn -0.1825 -0.0102 -0.9831
vn -0.2678 0.0952 -0.9588
vn -0.4468 0.0087 -0.8946
vn -0.5065 0.1262 -0.8529
vn -0.6637 0.0803 -0.7437
vn -0.6937 0.1512 -0.7042
vn -0.8249 0.0655 -0.5615
vn -0.8613 0.2161 -0.4598
vn -0.9549 0.102 -0.279
vn -0.9587 0.1705 -0.2276
vn -0.9902 0.1382 -0.0216
vn -0.9868 0.1578 -0.0378
vn 0.3075 -0.0322 0.951
vn 0.9858 -0.1587 0.0544
vn 0.9837 -0.1651 0.0707
vn -0.8782 0.1562 0.4521
vn 0.1984 -0.0442 0.9791
vn -0.9117 0.1402 0.3863
vn -0.0375 0.0136 0.9992
vn -0.0838 0.0089 0.9964
vn -0.9815 0.1577 0.1084
vn 0.9052 -0.1487 0.398
vn -0.9827 0.1653 0.0841
vn 0.8854 -0.1278 0.4468
vn -0.3431 0.0633 0.9372
vn 0.7648 -0.1388 0.6292
vn -0.3585 0.0604 0.9316
vn -0.5653 0.0794 0.8211
vn 0.6377 -0.0846 0.7656
vn 0.5212 -0.1014 0.8474
vn -0.6636 0.125 0.7375
vn -0.7728 0.1133 0.6245
vn 0.9777 -0.1524 -0.1443
vn 0.2488 -0.0409 -0.9677
vn 0.2668 -0.0404 -0.9629
vn 0.5766 -0.0972 -0.8112
vn 0.5927 -0.0957 -0.7997
vn 0.8371 -0.131 -0.5311
vn 0.852 -0.1401 -0.5044
vn 0.9662 -0.1611 -0.2012
vn -0.9871 0.1597 -0.0138
vn -0.9871 0.1599 -0.0103
vn 0.1845 0.1606 0.9696
vn 0.1647 -0.0629 -0.9843
vn 0.9943 -0.1021 -0.0316
vn 0.017 -0.005 -0.9998
vn 0.9757 -0.2187 0.0099
vn 0.0654 -0.0105 -0.9978
vn 0.1254 0.0401 -0.9913
vn 0.9631 -0.0951 0.2519
vn 0.9318 -0.2136 0.2934
vn 0.3845 -0.0117 -0.9231
vn 0.3997 -0.1171 -0.9091
vn 0.854 -0.0754 0.5148
vn 0.81 -0.1959 0.5527
vn 0.6272 -0.0489 -0.7774
vn 0.6378 -0.1576 -0.7539
vn 0.6761 -0.0446 0.7355
vn 0.6205 -0.1673 0.7662
vn 0.8192 -0.0778 -0.5682
vn 0.8224 -0.1897 -0.5363
vn 0.4438 -0.0049 0.8961
vn 0.339 -0.1991 0.9195
vn 0.945 -0.0962 -0.3127
vn 0.9382 -0.2105 -0.2746
vn -0.9949 0.1007 0.0099
vn -0.9757 0.217 -0.0316
vn -0.0626 -0.1955 0.9787
vn -0.1063 0.0776 -0.9913
vn -0.0665 0.0126 -0.9977
vn -0.1762 -0.0077 -0.9843
vn -0.1352 0.1529 0.9789
vn -0.9567 0.0964 -0.2746
vn -0.9271 0.2069 -0.3127
vn -0.3939 -0.0378 0.9184
vn -0.4227 0.1354 0.8961
vn -0.8403 0.0794 -0.5363
vn -0.8019 0.1847 -0.5682
vn -0.6416 0.0371 0.7662
vn -0.6556 0.1711 0.7355
vn -0.655 0.0517 -0.7539
vn -0.6105 0.1515 -0.7773
vn -0.8305 0.0698 0.5527
vn -0.4163 0.015 -0.9091
vn -0.8342 0.1979 0.5147
vn -0.3685 0.1103 -0.9231
vn -0.9516 0.0914 0.2935
vn -0.9438 0.2139 0.2519
vn -0.9619 0.1659 -0.2175
vn -0.9032 0.1365 -0.4069
vn -0.8588 0.1426 -0.492
vn -0.6819 0.1083 -0.7234
vn -0.6911 0.1123 -0.714
vn -0.4468 0.0725 -0.8917
vn -0.4394 0.0726 -0.8953
vn -0.2047 0.0319 -0.9783
vn -0.192 0.0315 -0.9809
vn 0.2224 -0.0434 0.974
vn 0.1559 -0.0211 0.9875
vn -0.9382 0.1442 0.3147
vn 0.974 -0.1599 0.1606
vn 0.9675 -0.1646 0.1922
vn -0.9721 0.166 0.1659
vn -0.9887 0.15 -0.0061
vn -0.1674 0.0226 0.9856
vn -0.2225 0.0423 0.974
vn 0.8923 -0.135 0.4308
vn 0.7993 -0.1384 0.5848
vn -0.4937 0.0728 0.8666
vn 0.7062 -0.1073 0.6998
vn -0.5865 0.1047 0.8031
vn 0.5688 -0.1002 0.8164
vn -0.7597 0.1128 0.6405
vn 0.4442 -0.0639 0.8936
vn -0.848 0.1475 0.5091
vn -0.9888 0.1469 0.0278
vn -0.9846 0.1747 0.0108
vn -0.9505 0.122 0.2858
vn -0.951 0.1673 0.26
vn -0.8412 0.1829 0.5088
vn -0.8216 0.0829 0.564
vn -0.6893 0.1569 0.7073
vn -0.6557 0.0681 0.752
vn -0.4493 0.093 0.8885
vn -0.4533 0.1095 0.8846
vn -0.1999 -0.0251 0.9795
vn -0.1014 0.0947 0.9903
vn 0.0755 -0.0705 0.9947
vn 0.2007 0.0303 0.9792
vn 0.3321 -0.1344 0.9336
vn 0.4925 0.0331 0.8697
vn 0.6215 -0.2031 0.7566
vn 0.76 -0.0505 0.648
vn 0.8129 -0.1936 0.5492
vn 0.8996 -0.0811 0.4292
vn 0.9423 -0.2116 0.2592
vn 0.9752 -0.1113 0.1914
vn 0.987 -0.16 -0.0122
vn 0.9872 -0.1594 -0.0011
vn 0.9745 -0.2211 -0.0378
vn 0.9877 -0.0593 -0.1449
vn 0.9209 -0.2334 -0.3123
vn 0.8336 -0.1148 -0.5403
vn 0.8546 -0.0615 -0.5156
vn 0.6555 -0.1582 -0.7384
vn 0.5996 -0.0193 -0.8001
vn 0.4766 -0.1341 -0.8688
vn 0.3137 0.0403 -0.9487
vn 0.1866 -0.114 -0.9758
vn -0.0972 -0.0007 -0.9953
vn -0.0494 0.0615 -0.9969
vn -0.3555 0.0478 -0.9335
vn -0.3368 0.0687 -0.9391
vn -0.5537 0.0608 -0.8305
vn -0.5262 0.0951 -0.845
vn -0.7229 0.1668 -0.6705
vn -0.7972 0.0356 -0.6027
vn -0.8679 0.2183 -0.4461
vn -0.965 0.0879 -0.2472
vn -0.9535 0.1358 -0.269
vn -0.487 0.8656 -0.1164
vn -0.0237 0.9826 0.1842
vn 0.3405 0.9249 -0.1691
vn 0.9263 0.3653 0.0924
vn 0.9289 0.3701 0.013
vn -0.7781 0.6281 -0.0086
vn -0.7729 0.633 0.0446
vn 0.9994 -0.0337 0
vn -0.9426 0.334 0
vn 0.1531 -0.0421 0.9873
vn -0.0238 -0.1496 0.9885
vn -0.0576 -0.3717 0.9266
vn -0.1394 0.002 0.9902
vn -0.0072 -0.1532 0.9882
vn 0.9544 -0.0041 0.2986
vn -0.8692 0.3992 -0.2918
vn -0.7859 -0.0378 0.6171
vn 0.1599 0.9871 0.0002
vn 0.9714 0.0476 0.2325
vn -0.9589 0.2601 -0.1138
vn 0.1396 0.8619 0.4875
vn 0.2539 0.9672 0
vn -0.9871 0.1599 -0.0001
vn -0.1396 -0.862 0.4873
vn -0.0644 -0.9979 0
vn 0.9841 -0.1759 -0.0257
vn 0.9851 -0.1455 -0.0913
vn 0.9347 -0.168 -0.3132
vn 0.9087 -0.1305 -0.3965
vn 0.8339 -0.1479 -0.5317
vn 0.7817 -0.1138 -0.6132
vn 0.6681 -0.1268 -0.7332
vn 0.6211 -0.0892 -0.7787
vn 0.3137 -0.3698 -0.8746
vn 0.4179 -0.0684 -0.9059
vn 0.4344 -0.0638 -0.8985
vn 0.2477 0.2906 -0.9242
vn 0.0835 -0.2697 -0.9593
vn -0.0465 0.2223 -0.9739
vn -0.1522 -0.1387 -0.9786
vn -0.2711 0.1449 -0.9516
vn -0.4321 0.078 -0.8985
vn -0.4951 0.063 -0.8665
vn -0.6172 0.1128 -0.7786
vn -0.6944 0.0996 -0.7126
vn -0.7777 0.1388 -0.6132
vn -0.8379 0.1229 -0.5317
vn -0.8961 0.158 -0.4147
vn -0.9398 0.1369 -0.3132
vn -0.9669 0.1738 -0.1871
vn -0.9888 0.1427 -0.045
vn -0.9836 0.1804 -0.0086
vn 0.9938 -0.1106 -0.0073
f 1//1 2//1 3//1
f 4//2 5//2 6//2
f 1//3 3//3 7//3
f 1//4 8//4 2//4
f 8//5 4//5 6//5
f 8//6 6//6 2//6
f 2//7 6//7 3//7
f 9//7 5//7 10//7
f 11//8 9//8 7//8
f 12//9 11//9 7//9
f 11//10 5//10 9//10
f 12//11 7//11 3//11
f 11//12 13//12 5//12
f 14//7 15//7 16//7
f 14//7 13//7 15//7
f 17//7 18//7 19//7
f 20//13 18//13 17//13
f 20//7 17//7 21//7
f 16//14 20//14 21//14
f 13//15 19//15 18//15
f 13//16 11//16 19//16
f 15//17 13//17 18//17
f 15//18 18//18 20//18
f 22//19 19//19 21//19
f 22//20 21//20 17//20
f 22//21 17//21 19//21
f 19//22 12//22 21//22
f 11//23 12//23 19//23
f 12//24 16//24 21//24
f 16//25 15//25 20//25
f 14//26 16//26 3//26
f 16//27 12//27 3//27
f 14//28 3//28 6//28
f 13//29 6//29 5//29
f 13//30 14//30 6//30
f 23//31 10//31 5//31
f 23//32 9//32 10//32
f 24//33 1//33 7//33
f 4//34 23//34 5//34
f 24//35 7//35 9//35
f 23//36 24//36 9//36
f 23//7 25//7 26//7
f 27//37 28//37 29//37
f 30//38 27//38 29//38
f 31//7 30//7 29//7
f 32//39 28//39 27//39
f 33//40 34//40 35//40
f 33//41 35//41 30//41
f 36//7 37//7 29//7
f 33//42 38//42 39//42
f 36//7 1//7 37//7
f 40//43 38//43 33//43
f 41//44 42//44 31//44
f 43//7 31//7 29//7
f 43//7 41//7 31//7
f 4//7 25//7 23//7
f 44//7 43//7 45//7
f 45//7 43//7 29//7
f 4//7 46//7 25//7
f 37//7 45//7 29//7
f 47//45 28//45 32//45
f 48//7 49//7 41//7
f 50//7 1//7 36//7
f 50//7 4//7 8//7
f 50//7 46//7 4//7
f 50//7 8//7 1//7
f 31//7 40//7 30//7
f 30//7 40//7 33//7
f 43//7 48//7 41//7
f 51//7 43//7 44//7
f 51//7 44//7 52//7
f 53//46 54//46 55//46
f 53//13 56//13 54//13
f 46//47 47//47 32//47
f 26//7 53//7 55//7
f 23//7 26//7 24//7
f 24//7 26//7 37//7
f 46//7 52//7 25//7
f 46//7 40//7 49//7
f 46//7 49//7 48//7
f 46//48 32//48 40//48
f 46//7 48//7 51//7
f 46//7 51//7 52//7
f 1//7 24//7 37//7
f 26//49 57//49 58//49
f 26//50 58//50 53//50
f 59//51 60//51 61//51
f 62//52 59//52 61//52
f 63//53 64//53 62//53
f 59//54 65//54 60//54
f 57//7 65//7 58//7
f 58//55 65//55 59//55
f 63//56 62//56 61//56
f 26//57 64//57 63//57
f 52//58 60//58 65//58
f 37//59 26//59 63//59
f 25//60 52//60 65//60
f 45//61 37//61 63//61
f 45//62 63//62 61//62
f 25//63 65//63 57//63
f 26//64 25//64 57//64
f 44//65 45//65 61//65
f 44//66 61//66 60//66
f 52//67 44//67 60//67
f 64//68 26//68 55//68
f 54//69 56//69 59//69
f 54//70 59//70 62//70
f 55//71 54//71 62//71
f 53//72 58//72 59//72
f 56//73 53//73 59//73
f 55//74 62//74 64//74
f 66//7 67//7 68//7
f 69//75 70//75 42//75
f 69//7 67//7 66//7
f 71//76 42//76 68//76
f 69//7 66//7 70//7
f 72//77 66//77 68//77
f 72//78 73//78 66//78
f 74//79 42//79 70//79
f 73//80 70//80 66//80
f 73//81 74//81 70//81
f 72//82 42//82 74//82
f 73//7 72//7 74//7
f 42//83 72//83 68//83
f 40//84 71//84 68//84
f 40//85 31//85 71//85
f 31//86 42//86 71//86
f 49//87 68//87 67//87
f 49//88 40//88 68//88
f 41//89 67//89 69//89
f 41//90 49//90 67//90
f 42//91 41//91 69//91
f 75//92 76//92 77//92
f 78//93 79//93 75//93
f 75//94 79//94 76//94
f 80//95 81//95 82//95
f 83//96 28//96 84//96
f 85//97 86//97 87//97
f 88//97 85//97 87//97
f 80//98 89//98 81//98
f 88//98 87//98 90//98
f 91//99 86//99 85//99
f 92//96 89//96 80//96
f 93//99 83//99 84//99
f 93//96 84//96 94//96
f 92//100 94//100 89//100
f 93//100 94//100 92//100
f 28//96 47//96 95//96
f 95//96 47//96 96//96
f 97//99 86//99 91//99
f 97//99 98//99 86//99
f 88//99 90//99 78//99
f 99//99 88//99 78//99
f 100//99 98//99 97//99
f 75//101 99//101 78//101
f 100//98 101//98 98//98
f 102//98 101//98 100//98
f 103//98 101//98 102//98
f 104//99 103//99 102//99
f 77//96 105//96 75//96
f 106//99 103//99 104//99
f 107//96 105//96 77//96
f 108//102 105//102 107//102
f 109//99 106//99 104//99
f 110//103 106//103 109//103
f 111//102 108//102 107//102
f 112//99 108//99 111//99
f 113//103 110//103 109//103
f 114//99 110//99 113//99
f 115//99 112//99 111//99
f 116//99 112//99 115//99
f 117//99 116//99 115//99
f 118//98 114//98 113//98
f 118//102 113//102 119//102
f 120//99 117//99 115//99
f 47//102 118//102 119//102
f 96//99 47//99 119//99
f 121//99 117//99 120//99
f 122//98 117//98 121//98
f 82//95 122//95 121//95
f 82//95 81//95 122//95
f 28//96 95//96 84//96
f 82//104 121//104 123//104
f 82//105 123//105 124//105
f 80//106 82//106 124//106
f 80//107 124//107 125//107
f 92//108 80//108 125//108
f 92//109 125//109 126//109
f 93//110 92//110 126//110
f 93//111 126//111 127//111
f 83//112 93//112 127//112
f 83//113 127//113 128//113
f 28//114 83//114 128//114
f 129//115 28//115 128//115
f 129//116 128//116 130//116
f 131//117 129//117 130//117
f 132//118 131//118 130//118
f 133//119 132//119 130//119
f 134//120 132//120 133//120
f 135//121 134//121 133//121
f 118//122 133//122 136//122
f 118//123 47//123 135//123
f 118//124 135//124 133//124
f 114//125 118//125 136//125
f 114//126 136//126 137//126
f 110//127 114//127 137//127
f 110//128 137//128 138//128
f 106//129 110//129 138//129
f 106//130 138//130 139//130
f 103//131 106//131 139//131
f 103//132 139//132 140//132
f 101//133 103//133 140//133
f 141//134 142//134 102//134
f 141//135 102//135 100//135
f 141//136 100//136 97//136
f 143//137 141//137 97//137
f 143//138 97//138 91//138
f 144//139 143//139 91//139
f 144//140 91//140 85//140
f 145//141 85//141 88//141
f 145//142 144//142 85//142
f 145//143 88//143 99//143
f 146//144 145//144 99//144
f 146//145 99//145 75//145
f 147//146 146//146 75//146
f 148//147 147//147 75//147
f 148//148 75//148 105//148
f 148//149 105//149 108//149
f 149//150 148//150 108//150
f 150//151 108//151 112//151
f 150//152 149//152 108//152
f 150//153 112//153 116//153
f 151//154 150//154 116//154
f 151//155 116//155 117//155
f 152//156 151//156 117//156
f 152//157 117//157 122//157
f 153//158 152//158 122//158
f 153//159 122//159 81//159
f 154//160 153//160 81//160
f 155//161 154//161 81//161
f 155//162 81//162 89//162
f 156//163 89//163 94//163
f 156//164 155//164 89//164
f 157//165 156//165 94//165
f 157//166 94//166 84//166
f 158//167 157//167 84//167
f 158//168 84//168 95//168
f 159//169 158//169 95//169
f 159//170 95//170 96//170
f 160//171 159//171 96//171
f 161//172 160//172 96//172
f 161//173 96//173 119//173
f 161//174 119//174 113//174
f 162//175 161//175 113//175
f 162//176 113//176 109//176
f 163//177 162//177 109//177
f 164//178 109//178 104//178
f 164//179 163//179 109//179
f 142//180 164//180 104//180
f 142//181 104//181 102//181
f 133//182 165//182 166//182
f 133//182 130//182 165//182
f 140//183 167//183 168//183
f 169//183 170//183 171//183
f 172//184 170//184 169//184
f 172//184 173//184 170//184
f 174//183 169//183 171//183
f 174//185 171//185 76//185
f 136//183 166//183 175//183
f 136//182 133//182 166//182
f 139//186 176//186 167//186
f 139//183 167//183 140//183
f 177//183 173//183 172//183
f 174//187 76//187 178//187
f 177//183 179//183 173//183
f 137//183 136//183 175//183
f 138//186 176//186 139//186
f 180//183 179//183 177//183
f 138//183 181//183 176//183
f 182//183 174//183 178//183
f 182//183 178//183 183//183
f 137//183 175//183 181//183
f 138//183 137//183 181//183
f 184//182 182//182 183//182
f 185//188 123//188 179//188
f 185//183 179//183 180//183
f 184//182 183//182 186//182
f 185//188 124//188 123//188
f 187//188 124//188 185//188
f 188//189 184//189 186//189
f 188//189 186//189 189//189
f 125//188 124//188 187//188
f 190//183 188//183 189//183
f 191//183 125//183 187//183
f 126//183 125//183 191//183
f 192//183 190//183 189//183
f 193//186 192//186 189//186
f 194//183 126//183 191//183
f 127//183 126//183 194//183
f 195//186 192//186 193//186
f 196//183 195//183 193//183
f 128//183 127//183 194//183
f 196//183 197//183 195//183
f 128//183 194//183 165//183
f 198//183 197//183 196//183
f 130//182 128//182 165//182
f 198//183 168//183 197//183
f 140//183 168//183 198//183
f 197//190 199//190 200//190
f 197//191 168//191 199//191
f 195//192 200//192 201//192
f 195//193 197//193 200//193
f 192//194 201//194 202//194
f 192//195 195//195 201//195
f 190//196 202//196 203//196
f 190//197 192//197 202//197
f 190//198 203//198 204//198
f 188//199 190//199 204//199
f 184//200 204//200 205//200
f 184//201 188//201 204//201
f 184//202 205//202 206//202
f 182//203 184//203 206//203
f 174//204 182//204 206//204
f 174//205 206//205 207//205
f 174//206 207//206 208//206
f 169//207 174//207 208//207
f 169//208 208//208 209//208
f 172//209 169//209 209//209
f 177//210 209//210 210//210
f 177//211 172//211 209//211
f 180//212 177//212 210//212
f 180//213 210//213 211//213
f 185//214 180//214 211//214
f 185//215 211//215 212//215
f 187//216 185//216 212//216
f 187//217 212//217 213//217
f 191//218 187//218 213//218
f 191//219 213//219 214//219
f 191//220 214//220 215//220
f 194//221 191//221 215//221
f 194//222 215//222 216//222
f 165//223 194//223 216//223
f 165//224 216//224 217//224
f 166//225 165//225 217//225
f 166//226 217//226 218//226
f 175//227 166//227 218//227
f 175//228 218//228 219//228
f 181//229 175//229 219//229
f 181//230 219//230 220//230
f 176//231 181//231 220//231
f 176//232 220//232 221//232
f 167//233 176//233 221//233
f 167//234 221//234 199//234
f 168//235 167//235 199//235
f 76//236 79//236 222//236
f 222//102 79//102 223//102
f 224//99 212//99 211//99
f 224//99 211//99 225//99
f 226//99 217//99 216//99
f 227//99 226//99 216//99
f 203//99 202//99 228//99
f 229//99 212//99 224//99
f 203//99 228//99 230//99
f 201//99 228//99 202//99
f 201//99 231//99 228//99
f 204//99 203//99 230//99
f 227//99 216//99 215//99
f 229//98 213//98 212//98
f 200//99 231//99 201//99
f 204//99 230//99 232//99
f 233//99 227//99 215//99
f 234//237 213//237 229//237
f 234//102 214//102 213//102
f 205//99 204//99 232//99
f 233//99 215//99 214//99
f 233//99 214//99 234//99
f 199//99 235//99 231//99
f 199//99 231//99 200//99
f 206//99 205//99 232//99
f 206//99 232//99 236//99
f 221//99 235//99 199//99
f 221//99 237//99 235//99
f 207//99 206//99 236//99
f 207//99 236//99 238//99
f 239//99 237//99 221//99
f 220//99 239//99 221//99
f 208//99 207//99 238//99
f 240//99 208//99 238//99
f 219//99 239//99 220//99
f 241//99 239//99 219//99
f 209//99 208//99 240//99
f 242//238 209//238 240//238
f 218//99 241//99 219//99
f 243//99 241//99 218//99
f 210//99 209//99 242//99
f 244//99 210//99 242//99
f 243//99 218//99 217//99
f 225//99 210//99 244//99
f 226//99 243//99 217//99
f 225//99 211//99 210//99
f 245//183 246//183 247//183
f 248//183 249//183 250//183
f 248//183 250//183 251//183
f 252//183 253//183 254//183
f 255//183 251//183 256//183
f 257//183 252//183 254//183
f 255//183 248//183 251//183
f 252//183 258//183 253//183
f 259//183 260//183 246//183
f 259//183 246//183 245//183
f 257//183 254//183 261//183
f 262//183 258//183 252//183
f 263//183 257//183 261//183
f 259//183 264//183 260//183
f 265//183 255//183 256//183
f 262//183 266//183 258//183
f 265//183 256//183 267//183
f 263//183 261//183 268//183
f 269//183 264//183 259//183
f 269//183 267//183 264//183
f 269//183 265//183 267//183
f 270//183 271//183 266//183
f 270//183 266//183 262//183
f 263//183 268//183 272//183
f 273//183 263//183 272//183
f 270//183 274//183 271//183
f 275//183 274//183 270//183
f 273//183 272//183 276//183
f 277//183 273//183 276//183
f 277//183 276//183 278//183
f 279//183 274//183 275//183
f 280//183 274//183 279//183
f 281//183 280//183 279//183
f 282//183 277//183 278//183
f 283//183 277//183 282//183
f 284//183 280//183 281//183
f 284//183 281//183 285//183
f 286//183 287//183 283//183
f 286//183 283//183 282//183
f 288//183 284//183 285//183
f 288//183 285//183 289//183
f 247//186 287//186 286//186
f 249//183 288//183 289//183
f 249//183 289//183 290//183
f 249//183 290//183 250//183
f 247//183 246//183 287//183
f 291//239 251//239 292//239
f 251//240 250//240 292//240
f 292//241 250//241 293//241
f 250//242 290//242 293//242
f 293//243 290//243 294//243
f 290//244 289//244 294//244
f 295//245 251//245 291//245
f 256//246 251//246 295//246
f 296//247 246//247 297//247
f 246//248 260//248 297//248
f 297//249 260//249 298//249
f 260//250 264//250 298//250
f 298//251 267//251 299//251
f 264//252 267//252 298//252
f 299//253 267//253 300//253
f 267//254 256//254 300//254
f 300//255 256//255 295//255
f 301//256 302//256 271//256
f 301//257 271//257 274//257
f 303//258 301//258 274//258
f 303//259 274//259 280//259
f 304//260 303//260 280//260
f 304//261 280//261 284//261
f 305//262 304//262 284//262
f 305//263 284//263 288//263
f 305//264 288//264 249//264
f 306//265 305//265 249//265
f 306//266 249//266 248//266
f 306//267 248//267 255//267
f 307//268 306//268 255//268
f 308//269 255//269 265//269
f 308//270 307//270 255//270
f 309//271 265//271 269//271
f 309//272 308//272 265//272
f 310//273 309//273 269//273
f 310//274 269//274 259//274
f 311//275 310//275 259//275
f 311//276 259//276 245//276
f 312//277 311//277 245//277
f 275//278 270//278 313//278
f 294//279 285//279 314//279
f 289//280 285//280 294//280
f 314//281 281//281 315//281
f 285//282 281//282 314//282
f 315//283 281//283 316//283
f 281//284 279//284 316//284
f 279//285 275//285 316//285
f 316//286 275//286 317//286
f 317//287 275//287 313//287
f 318//186 310//186 311//186
f 319//183 320//183 321//183
f 322//184 307//184 308//184
f 323//183 322//183 308//183
f 319//183 321//183 324//183
f 320//183 325//183 321//183
f 326//186 310//186 318//186
f 326//183 309//183 310//183
f 323//183 308//183 309//183
f 327//183 319//183 324//183
f 326//183 323//183 309//183
f 328//288 325//288 302//288
f 302//289 325//289 329//289
f 330//288 318//288 312//288
f 312//290 318//290 311//290
f 331//183 325//183 320//183
f 327//183 324//183 332//183
f 333//183 327//183 332//183
f 329//183 325//183 331//183
f 334//183 332//183 335//183
f 334//182 333//182 332//182
f 336//183 334//183 335//183
f 337//183 334//183 336//183
f 328//183 302//183 301//183
f 338//183 328//183 301//183
f 303//186 338//186 301//186
f 339//183 337//183 336//183
f 340//182 337//182 339//182
f 341//186 338//186 303//186
f 304//183 341//183 303//183
f 342//186 340//186 339//186
f 343//183 342//183 339//183
f 344//183 341//183 304//183
f 305//183 344//183 304//183
f 345//183 342//183 343//183
f 330//183 345//183 343//183
f 346//183 344//183 305//183
f 312//183 345//183 330//183
f 306//183 346//183 305//183
f 347//183 346//183 306//183
f 347//183 306//183 307//183
f 322//189 347//189 307//189
f 348//291 349//291 335//291
f 350//292 351//292 325//292
f 352//293 353//293 330//293
f 352//294 330//294 343//294
f 348//295 335//295 332//295
f 354//296 348//296 332//296
f 352//297 343//297 339//297
f 355//298 352//298 339//298
f 354//299 332//299 324//299
f 356//300 354//300 324//300
f 357//301 355//301 339//301
f 356//302 324//302 321//302
f 357//303 339//303 336//303
f 358//304 356//304 321//304
f 349//305 357//305 336//305
f 351//306 358//306 321//306
f 349//307 336//307 335//307
f 351//308 321//308 325//308
f 325//309 359//309 350//309
f 328//310 360//310 325//310
f 325//311 360//311 359//311
f 359//312 361//312 362//312
f 360//313 361//313 359//313
f 328//314 363//314 360//314
f 364//315 365//315 366//315
f 367//316 368//316 369//316
f 367//317 370//317 368//317
f 361//318 360//318 371//318
f 364//319 366//319 372//319
f 373//320 361//320 371//320
f 374//321 364//321 372//321
f 375//322 369//322 376//322
f 375//323 367//323 369//323
f 373//324 371//324 377//324
f 375//325 376//325 378//325
f 379//326 375//326 378//326
f 380//327 377//327 381//327
f 380//328 373//328 377//328
f 379//329 378//329 382//329
f 365//330 379//330 382//330
f 370//331 381//331 368//331
f 370//332 380//332 381//332
f 365//333 382//333 366//333
f 383//334 384//334 385//334
f 386//335 387//335 388//335
f 386//336 388//336 389//336
f 390//337 391//337 392//337
f 390//338 392//338 393//338
f 362//339 383//339 385//339
f 362//340 385//340 359//340
f 394//341 386//341 389//341
f 394//342 389//342 395//342
f 396//343 390//343 393//343
f 396//344 393//344 397//344
f 398//345 394//345 395//345
f 398//346 395//346 399//346
f 400//347 396//347 397//347
f 400//348 397//348 401//348
f 384//349 398//349 399//349
f 384//350 399//350 402//350
f 387//351 400//351 401//351
f 384//352 402//352 385//352
f 387//353 401//353 388//353
f 403//183 374//183 404//183
f 403//183 364//183 374//183
f 405//182 406//182 375//182
f 384//186 407//186 408//186
f 405//183 375//183 379//183
f 398//183 384//183 408//183
f 383//183 407//183 384//183
f 398//189 408//189 409//189
f 403//183 365//183 364//183
f 410//184 365//184 403//184
f 405//186 379//186 365//186
f 394//189 398//189 409//189
f 394//182 409//182 411//182
f 410//184 405//184 365//184
f 362//183 407//183 383//183
f 362//289 412//289 407//289
f 386//183 411//183 413//183
f 386//182 394//182 411//182
f 361//183 414//183 412//183
f 361//186 412//186 362//186
f 415//183 386//183 413//183
f 387//182 386//182 415//182
f 416//186 414//186 361//186
f 400//183 387//183 415//183
f 373//183 416//183 361//183
f 417//183 400//183 415//183
f 418//183 416//183 373//183
f 396//183 400//183 417//183
f 419//183 396//183 417//183
f 380//183 418//183 373//183
f 420//183 418//183 380//183
f 390//183 396//183 419//183
f 421//183 390//183 419//183
f 422//183 420//183 380//183
f 370//182 422//182 380//182
f 391//183 390//183 421//183
f 423//186 391//186 421//186
f 367//182 422//182 370//182
f 424//189 422//189 367//189
f 404//186 391//186 423//186
f 406//189 424//189 367//189
f 406//182 367//182 375//182
f 374//183 391//183 404//183
f 425//354 346//354 347//354
f 426//355 427//355 318//355
f 428//356 425//356 347//356
f 363//357 328//357 338//357
f 429//358 363//358 338//358
f 430//359 428//359 347//359
f 430//360 347//360 322//360
f 431//361 429//361 338//361
f 431//362 338//362 341//362
f 432//363 430//363 322//363
f 432//364 322//364 323//364
f 433//365 341//365 344//365
f 433//366 431//366 341//366
f 434//367 432//367 323//367
f 434//368 323//368 326//368
f 433//369 344//369 346//369
f 425//370 433//370 346//370
f 427//371 434//371 326//371
f 427//372 326//372 318//372
f 356//103 399//103 354//103
f 401//99 357//99 349//99
f 392//99 353//99 393//99
f 388//99 401//99 349//99
f 402//103 399//103 356//103
f 358//103 402//103 356//103
f 397//97 352//97 355//97
f 385//98 402//98 358//98
f 393//97 352//97 397//97
f 351//99 385//99 358//99
f 389//99 349//99 348//99
f 389//96 388//96 349//96
f 401//97 397//97 355//97
f 401//99 355//99 357//99
f 350//99 385//99 351//99
f 354//99 389//99 348//99
f 359//99 385//99 350//99
f 395//99 389//99 354//99
f 399//99 395//99 354//99
f 393//97 353//97 352//97
f 391//373 372//373 392//373
f 374//374 372//374 391//374
f 392//375 330//375 353//375
f 426//376 318//376 372//376
f 392//377 318//377 330//377
f 372//378 318//378 392//378
f 312//379 245//379 247//379
f 345//380 312//380 247//380
f 345//381 247//381 286//381
f 342//382 286//382 282//382
f 342//383 345//383 286//383
f 340//384 342//384 282//384
f 340//385 282//385 278//385
f 337//386 340//386 278//386
f 337//387 278//387 276//387
f 334//388 276//388 272//388
f 334//389 337//389 276//389
f 334//390 272//390 268//390
f 333//391 334//391 268//391
f 333//392 268//392 261//392
f 327//393 333//393 261//393
f 327//394 261//394 254//394
f 319//395 327//395 254//395
f 319//396 254//396 253//396
f 320//397 319//397 253//397
f 320//398 253//398 258//398
f 331//399 320//399 258//399
f 331//400 258//400 266//400
f 329//401 331//401 266//401
f 302//402 266//402 271//402
f 302//403 329//403 266//403
f 366//99 426//99 372//99
f 428//99 430//99 376//99
f 433//99 368//99 381//99
f 369//99 428//99 376//99
f 427//99 426//99 366//99
f 425//99 428//99 369//99
f 429//99 371//99 363//99
f 382//99 427//99 366//99
f 434//99 427//99 382//99
f 429//99 377//99 371//99
f 431//99 433//99 381//99
f 431//99 377//99 429//99
f 425//99 369//99 368//99
f 431//99 381//99 377//99
f 432//99 434//99 382//99
f 378//103 432//103 382//103
f 363//99 371//99 360//99
f 430//103 432//103 378//103
f 376//99 430//99 378//99
f 433//99 425//99 368//99
f 257//404 263//404 435//404
f 270//405 262//405 313//405
f 313//406 262//406 436//406
f 283//407 287//407 437//407
f 435//408 263//408 438//408
f 437//409 287//409 439//409
f 263//410 273//410 438//410
f 438//411 273//411 440//411
f 439//412 287//412 296//412
f 436//413 262//413 441//413
f 287//414 246//414 296//414
f 262//415 252//415 441//415
f 273//416 277//416 440//416
f 441//417 252//417 442//417
f 440//418 277//418 443//418
f 443//419 277//419 444//419
f 252//420 257//420 442//420
f 442//421 257//421 435//421
f 277//422 283//422 444//422
f 444//423 283//423 437//423
f 445//183 296//183 446//183
f 447//186 291//186 448//186
f 442//183 449//183 450//183
f 448//183 291//183 294//183
f 442//183 450//183 441//183
f 294//183 292//183 293//183
f 291//183 292//183 294//183
f 435//183 449//183 442//183
f 296//183 297//183 446//183
f 450//183 451//183 441//183
f 441//183 451//183 436//183
f 435//183 452//183 449//183
f 447//183 295//183 291//183
f 446//183 297//183 453//183
f 438//183 452//183 435//183
f 297//183 298//183 453//183
f 451//183 454//183 436//183
f 455//183 295//183 447//183
f 455//183 300//183 295//183
f 438//183 456//183 452//183
f 436//183 454//183 313//183
f 453//183 298//183 457//183
f 457//183 300//183 455//183
f 298//183 299//183 457//183
f 457//183 299//183 300//183
f 440//183 456//183 438//183
f 454//183 458//183 313//183
f 440//183 459//183 456//183
f 443//183 459//183 440//183
f 458//183 460//183 313//183
f 313//183 460//183 317//183
f 443//183 461//183 459//183
f 444//183 461//183 443//183
f 317//183 460//183 316//183
f 460//183 462//183 316//183
f 444//183 463//183 461//183
f 462//183 315//183 316//183
f 464//183 315//183 462//183
f 444//183 437//183 463//183
f 464//183 314//183 315//183
f 463//183 437//183 465//183
f 466//183 314//183 464//183
f 437//183 439//183 465//183
f 466//183 294//183 314//183
f 465//183 439//183 445//183
f 448//183 294//183 466//183
f 439//183 296//183 445//183
f 467//424 468//424 469//424
f 470//425 471//425 472//425
f 471//426 473//426 472//426
f 472//427 473//427 474//427
f 473//428 475//428 474//428
f 475//429 467//429 474//429
f 474//430 467//430 476//430
f 476//431 467//431 469//431
f 471//432 470//432 477//432
f 478//433 471//433 477//433
f 452//434 456//434 479//434
f 480//435 478//435 466//435
f 458//436 454//436 481//436
f 482//437 448//437 477//437
f 454//438 483//438 481//438
f 448//439 478//439 477//439
f 448//440 466//440 478//440
f 454//441 451//441 483//441
f 451//442 484//442 483//442
f 466//443 464//443 480//443
f 464//444 485//444 480//444
f 451//445 450//445 484//445
f 450//446 486//446 484//446
f 464//447 462//447 485//447
f 462//448 487//448 485//448
f 450//449 449//449 486//449
f 449//450 488//450 486//450
f 462//451 460//451 487//451
f 460//452 489//452 487//452
f 449//453 452//453 488//453
f 452//454 479//454 488//454
f 460//455 458//455 489//455
f 458//456 481//456 489//456
f 473//99 471//99 480//99
f 473//99 480//99 485//99
f 467//99 487//99 489//99
f 475//99 487//99 467//99
f 490//96 491//96 492//96
f 490//99 492//99 493//99
f 475//99 473//99 485//99
f 475//99 485//99 487//99
f 494//99 492//99 491//99
f 494//99 495//99 492//99
f 496//99 490//99 493//99
f 497//99 495//99 494//99
f 496//99 493//99 498//99
f 497//238 499//238 495//238
f 479//99 496//99 498//99
f 500//99 499//99 497//99
f 479//99 498//99 501//99
f 500//99 502//99 499//99
f 503//99 502//99 500//99
f 488//99 479//99 501//99
f 504//99 488//99 501//99
f 503//99 505//99 502//99
f 506//99 505//99 503//99
f 486//99 488//99 504//99
f 507//99 505//99 506//99
f 508//99 486//99 504//99
f 509//98 507//98 506//98
f 484//99 486//99 508//99
f 510//99 509//99 511//99
f 510//96 507//96 509//96
f 512//99 484//99 508//99
f 512//99 483//99 484//99
f 513//99 510//99 511//99
f 513//96 511//96 514//96
f 468//99 483//99 512//99
f 468//99 481//99 483//99
f 467//99 481//99 468//99
f 471//99 478//99 480//99
f 467//99 489//99 481//99
f 445//457 500//457 497//457
f 445//458 446//458 500//458
f 479//459 456//459 496//459
f 447//460 448//460 514//460
f 514//461 448//461 482//461
f 514//462 511//462 447//462
f 456//463 459//463 496//463
f 446//464 503//464 500//464
f 446//465 453//465 503//465
f 459//466 490//466 496//466
f 459//467 461//467 490//467
f 453//468 506//468 503//468
f 453//469 457//469 506//469
f 461//470 491//470 490//470
f 461//471 463//471 491//471
f 457//472 509//472 506//472
f 457//473 455//473 509//473
f 463//474 494//474 491//474
f 455//475 511//475 509//475
f 463//476 465//476 494//476
f 455//477 447//477 511//477
f 465//478 497//478 494//478
f 465//479 445//479 497//479
f 499//480 502//480 515//480
f 515//481 502//481 516//481
f 502//482 505//482 516//482
f 516//483 507//483 517//483
f 505//484 507//484 516//484
f 517//485 507//485 518//485
f 507//486 510//486 518//486
f 518//487 510//487 519//487
f 510//488 513//488 519//488
f 520//489 501//489 521//489
f 501//490 498//490 521//490
f 522//491 495//491 523//491
f 468//492 512//492 469//492
f 469//493 512//493 524//493
f 495//494 499//494 523//494
f 523//495 499//495 515//495
f 521//496 498//496 525//496
f 498//497 493//497 525//497
f 512//498 508//498 524//498
f 524//499 508//499 526//499
f 525//500 493//500 527//500
f 508//501 504//501 526//501
f 493//502 492//502 527//502
f 526//503 504//503 520//503
f 527//504 492//504 522//504
f 504//505 501//505 520//505
f 492//506 495//506 522//506
f 224//507 412//507 414//507
f 224//508 225//508 412//508
f 229//509 414//509 416//509
f 229//510 224//510 414//510
f 234//511 229//511 416//511
f 234//512 416//512 418//512
f 233//513 234//513 418//513
f 233//514 418//514 420//514
f 227//515 420//515 422//515
f 227//516 233//516 420//516
f 227//517 422//517 424//517
f 226//518 227//518 424//518
f 226//519 424//519 406//519
f 243//520 226//520 406//520
f 243//521 406//521 405//521
f 241//522 243//522 405//522
f 241//523 405//523 410//523
f 239//524 241//524 410//524
f 239//525 410//525 403//525
f 237//526 239//526 403//526
f 237//527 403//527 404//527
f 235//528 237//528 404//528
f 513//529 482//529 519//529
f 513//530 514//530 482//530
f 235//531 404//531 423//531
f 231//532 235//532 423//532
f 231//533 423//533 421//533
f 228//534 421//534 419//534
f 228//535 231//535 421//535
f 228//536 419//536 417//536
f 230//537 228//537 417//537
f 230//538 417//538 415//538
f 232//539 230//539 415//539
f 232//540 415//540 413//540
f 236//541 413//541 411//541
f 236//542 232//542 413//542
f 238//543 411//543 409//543
f 238//544 236//544 411//544
f 240//545 409//545 408//545
f 240//546 238//546 409//546
f 242//547 240//547 408//547
f 242//548 408//548 407//548
f 244//549 242//549 407//549
f 225//550 244//550 407//550
f 225//551 407//551 412//551
f 134//552 50//552 132//552
f 50//553 36//553 132//553
f 132//554 36//554 131//554
f 129//555 131//555 36//555
f 29//556 129//556 36//556
f 134//557 135//557 46//557
f 50//558 134//558 46//558
f 30//559 528//559 27//559
f 528//560 30//560 35//560
f 35//561 34//561 27//561
f 27//562 528//562 35//562
f 34//563 32//563 27//563
f 34//564 38//564 32//564
f 38//565 529//565 32//565
f 33//566 530//566 34//566
f 530//567 33//567 39//567
f 530//568 39//568 34//568
f 39//569 38//569 34//569
f 40//570 529//570 38//570
f 529//571 40//571 32//571
f 531//572 51//572 532//572
f 43//573 51//573 531//573
f 532//574 51//574 48//574
f 48//575 531//575 532//575
f 48//576 43//576 531//576
f 101//577 140//577 198//577
f 98//578 101//578 198//578
f 98//579 198//579 196//579
f 86//580 98//580 196//580
f 86//581 196//581 193//581
f 87//582 86//582 193//582
f 87//583 193//583 189//583
f 90//584 87//584 189//584
f 79//585 189//585 186//585
f 78//586 189//586 79//586
f 78//587 90//587 189//587
f 223//588 79//588 186//588
f 223//589 186//589 183//589
f 222//590 223//590 183//590
f 178//591 222//591 183//591
f 76//592 222//592 178//592
f 107//593 77//593 76//593
f 107//594 76//594 171//594
f 111//595 107//595 171//595
f 111//596 171//596 170//596
f 115//597 111//597 170//597
f 115//598 170//598 173//598
f 120//599 115//599 173//599
f 120//600 173//600 179//600
f 121//601 120//601 179//601
f 121//602 179//602 123//602
f 135//603 47//603 46//603
f 28//604 129//604 29//604