o obj1
v 0.050827 0.034721 0.070396
v 0.050676 0.033991 0.070645
v 0.050283 0.034192 0.070036
v 0.050607 0.03833 0.071256
v 0.050792 0.038174 0.071659
v 0.051057 0.037268 0.070999
v 0.051321 0.036869 0.071482
v 0.051272 0.03521 0.071032
v 0.051163 0.035654 0.070652
v 0.050828 0.036898 0.070621
v 0.050398 0.038282 0.070938
v 0.050665 0.035272 0.07023
v 0.051411 0.036049 0.071159
v 0.050095 0.038268 0.070747
v 0.046546 0.029858 0.069053
v 0.046615 0.030093 0.068718
v 0.046408 0.030358 0.068406
v 0.045797 0.030433 0.068148
v 0.045368 0.029478 0.068526
v 0.04525 0.029884 0.068123
v 0.044131 0.030141 0.067849
v 0.04397 0.029719 0.068112
v 0.044464 0.029396 0.068518
v 0.043591 0.030723 0.067744
v 0.043084 0.029968 0.068284
v 0.042974 0.030584 0.067841
v 0.04248 0.030519 0.068182
v 0.031607 0.041549 0.068347
v 0.030567 0.042391 0.068287
v 0.030695 0.04264 0.067945
v 0.030107 0.04417 0.067875
v 0.03026 0.045117 0.067982
v 0.030789 0.043574 0.067752
v 0.030026 0.042919 0.068374
v 0.030161 0.043423 0.06791
v 0.029645 0.0437 0.06834
v 0.029482 0.044404 0.068347
v 0.029782 0.045181 0.068156
v 0.030322 0.046245 0.068344
v 0.029419 0.045189 0.068626
v 0.030767 0.046398 0.068351
v 0.029657 0.04598 0.068671
v 0.030484 0.046859 0.068673
v 0.030107 0.046853 0.069118
v 0.030751 0.043145 0.067759
v 0.049193 0.039535 0.07083
v 0.04951 0.039845 0.071535
v 0.04974 0.040082 0.071039
v 0.048507 0.040208 0.07082
v 0.049062 0.040759 0.071039
v 0.030987 0.044742 0.068031
v 0.049751 0.037676 0.070528
v 0.049617 0.034947 0.069917
v 0.050147 0.036107 0.070278
v 0.031242 0.04589 0.06833
v 0.03152 0.043728 0.067928
v 0.036928 0.039224 0.068121
v 0.034514 0.040225 0.067878
v 0.035246 0.049859 0.070032
v 0.034804 0.050381 0.070065
v 0.036511 0.05014 0.070362
v 0.037241 0.050664 0.070644
v 0.038566 0.036666 0.067938
v 0.03765 0.049721 0.070516
v 0.039535 0.049193 0.07083
v 0.04286 0.045348 0.070695
v 0.040365 0.034531 0.067883
v 0.040276 0.048544 0.070858
v 0.040082 0.04974 0.071039
v 0.043683 0.031641 0.067944
v 0.040759 0.049062 0.071039
v 0.042952 0.046122 0.070908
v 0.044553 0.031017 0.067997
v 0.045747 0.043321 0.070901
v 0.045851 0.03121 0.068315
v 0.048886 0.040599 0.07159
v 0.048711 0.040424 0.07106
v 0.044609 0.045096 0.07141
v 0.045854 0.043836 0.071407
v 0.044413 0.04507 0.071138
v 0.047313 0.041958 0.07104
v 0.047181 0.042479 0.071519
v 0.046521 0.042857 0.071091
v 0.046223 0.043551 0.071795
v 0.043379 0.046305 0.071428
v 0.041637 0.047904 0.071415
v 0.041978 0.04767 0.071752
v 0.044723 0.045087 0.071787
v 0.042228 0.047177 0.071152
v 0.04041 0.048709 0.071045
v 0.040583 0.048877 0.071595
v 0.043395 0.046364 0.071797
v 0.039845 0.04951 0.071535
v 0.038562 0.050304 0.071041
v 0.038119 0.050831 0.071642
v 0.037589 0.050931 0.071038
v 0.034081 0.050368 0.070139
v 0.033916 0.050628 0.070688
v 0.034995 0.050973 0.070496
v 0.035144 0.051261 0.071104
v 0.036494 0.05141 0.071383
v 0.036858 0.051141 0.070903
v 0.035939 0.051169 0.070661
v 0.035246 0.049845 0.067453
v 0.035831 0.050251 0.067601
v 0.037691 0.050382 0.068047
v 0.038286 0.050063 0.068029
v 0.037019 0.05057 0.06794
v 0.036307 0.050489 0.067813
v 0.047562 0.041342 0.068206
v 0.05018 0.03805 0.068293
v 0.045568 0.043523 0.068109
v 0.044541 0.044573 0.068036
v 0.043515 0.045575 0.068089
v 0.041995 0.046983 0.06816
v 0.040022 0.048679 0.068165
v 0.050084 0.035523 0.067536
v 0.04911 0.034574 0.066957
v 0.050559 0.036537 0.067901
v 0.050499 0.037311 0.068122
v 0.046709 0.03211 0.066091
v 0.044237 0.032169 0.065507
v 0.044839 0.031705 0.065607
v 0.04544 0.031513 0.065872
v 0.046158 0.031714 0.065897
v 0.033531 0.043239 0.065487
v 0.0322 0.044191 0.065533
v 0.035393 0.041583 0.065708
v 0.03716 0.040084 0.065619
v 0.039255 0.038001 0.065652
v 0.041036 0.036076 0.065653
v 0.042663 0.034224 0.065526
v 0.031561 0.045565 0.065748
v 0.031884 0.046448 0.065963
v 0.031597 0.044983 0.065763
v 0.031805 0.044678 0.065568
v 0.03826 0.036536 0.067939
v 0.036237 0.038595 0.067921
v 0.035018 0.039145 0.068075
v 0.033551 0.040787 0.067898
v 0.033169 0.04014 0.068445
v 0.033465 0.040523 0.068019
v 0.039728 0.034472 0.068007
v 0.041183 0.032664 0.067988
v 0.041566 0.031609 0.068324
v 0.036867 0.037463 0.068063
v 0.038239 0.035997 0.068088
v 0.041052 0.033371 0.06787
v 0.036571 0.037112 0.068478
v 0.037417 0.049742 0.066948
v 0.03762 0.05018 0.067379
v 0.038367 0.049637 0.067286
v 0.035666 0.04983 0.066996
v 0.036761 0.050124 0.06704
v 0.03579 0.04952 0.066708
v 0.036564 0.049649 0.066755
v 0.036222 0.050227 0.067242
v 0.036959 0.050412 0.067419
v 0.044385 0.044538 0.067581
v 0.041129 0.046858 0.067035
v 0.043259 0.045049 0.067112
v 0.044809 0.043318 0.067024
v 0.04097 0.047657 0.067515
v 0.042474 0.046449 0.067735
v 0.042305 0.046257 0.067307
v 0.043316 0.045514 0.067498
v 0.040616 0.048121 0.067799
v 0.040158 0.048026 0.067213
v 0.04432 0.04427 0.067263
v 0.045408 0.043414 0.06746
v 0.046853 0.041524 0.067221
v 0.046917 0.041794 0.067489
v 0.046706 0.042218 0.067791
v 0.049746 0.037472 0.066963
v 0.048182 0.039586 0.06702
v 0.050001 0.0378 0.067274
v 0.048519 0.039762 0.067336
v 0.046475 0.041463 0.067012
v 0.050024 0.038257 0.067782
v 0.048541 0.040117 0.067783
v 0.048501 0.035284 0.066235
v 0.049596 0.03621 0.066695
v 0.048832 0.035085 0.066407
v 0.050071 0.035935 0.067129
v 0.050286 0.03686 0.067191
v 0.050426 0.037441 0.067694
v 0.047974 0.033721 0.066242
v 0.046057 0.03278 0.065181
v 0.047561 0.033738 0.065883
v 0.046336 0.03207 0.065588
v 0.048237 0.033755 0.066567
v 0.046016 0.032327 0.065244
v 0.045678 0.031832 0.065406
v 0.045153 0.0325 0.065004
v 0.045329 0.032876 0.065016
v 0.045222 0.031976 0.065232
v 0.044633 0.032395 0.06513
v 0.04279 0.035701 0.065034
v 0.040947 0.037069 0.065138
v 0.040729 0.037963 0.065063
v 0.041747 0.035853 0.065232
v 0.043075 0.034914 0.065053
v 0.04296 0.034478 0.065191
v 0.039634 0.038087 0.065295
v 0.039757 0.038465 0.065123
v 0.040339 0.037065 0.065464
v 0.038292 0.040606 0.065068
v 0.035447 0.041782 0.065443
v 0.034478 0.043004 0.065172
v 0.036632 0.041341 0.065136
v 0.034491 0.043507 0.06504
v 0.036417 0.042336 0.065059
v 0.037994 0.040246 0.065112
v 0.037378 0.040329 0.065279
v 0.032437 0.04455 0.065132
v 0.032726 0.045317 0.064988
v 0.032012 0.04516 0.06522
v 0.03264 0.046114 0.065213
v 0.032043 0.045688 0.06524
v 0.032255 0.046357 0.065487
v 0.039238 0.034301 0.068442
v 0.034478 0.038918 0.068517
vn 0.7298 -0.3508 -0.5869
vn 0.8738 0.4264 -0.2339
vn 0.9047 0.39 -0.1715
vn 0.8742 -0.3083 -0.3751
vn 0.8661 -0.1847 -0.4644
vn 0.6063 0.3517 -0.7133
vn 0.7196 0.4356 -0.5407
vn 0.6601 -0.0317 -0.7505
vn 0.7761 0.1448 -0.6138
vn 0.807 0.2037 -0.5543
vn 0.9215 0.2262 -0.3156
vn 0.5777 0.1357 -0.8049
vn 0.4915 0.3366 -0.8032
vn 0.9215 -0.0958 -0.3765
vn 0.5948 -0.0661 -0.8011
vn 0.7307 -0.6204 -0.285
vn 0.6885 -0.4278 -0.5856
vn 0.6281 -0.3365 -0.7016
vn 0.3576 0.0418 -0.9329
vn 0.3887 -0.0012 -0.9214
vn 0.389 -0.5595 -0.7319
vn 0.4096 -0.5801 -0.704
vn 0.2008 -0.1558 -0.9672
vn 0.0945 -0.6877 -0.7198
vn 0.4502 -0.772 -0.4488
vn 0.0724 -0.7358 -0.6733
vn 0.1786 -0.0115 -0.9839
vn -0.3135 -0.8912 -0.3278
vn -0.1747 -0.4718 -0.8642
vn -0.3102 -0.5904 -0.7451
vn 0.0775 -0.5481 -0.8328
vn -0.0927 -0.2594 -0.9613
vn -0.4093 -0.5793 -0.705
vn 0.34 -0.2979 -0.892
vn -0.4668 -0.622 -0.6287
vn -0.0708 0.1235 -0.9898
vn -0.6044 -0.5188 -0.6047
vn -0.6077 -0.4443 -0.6583
vn -0.7036 -0.3707 -0.6063
vn -0.6194 -0.0813 -0.7809
vn -0.6788 -0.15 -0.7188
vn -0.3185 0.1571 -0.9348
vn -0.2884 0.3071 -0.907
vn -0.7814 0.1529 -0.605
vn -0.0915 0.309 -0.9467
vn -0.5343 0.5046 -0.6782
vn -0.6214 0.5862 -0.5199
vn -0.762 0.2626 -0.592
vn -0.3623 -0.2872 -0.8867
vn -0.2763 -0.0651 -0.9589
vn -0.5277 0.4006 -0.749
vn -0.5943 0.0318 -0.8036
vn -0.1786 -0.0009 -0.9839
vn -0.158 0.4984 -0.8524
vn 0.4781 0.3918 -0.786
vn 0.6329 0.5627 -0.5317
vn 0.6475 0.5637 -0.5128
vn 0.7913 0.5975 -0.1299
vn 0.1911 0.1911 -0.9628
vn 0.1681 0.2016 -0.9649
vn 0.2362 0.2131 -0.948
vn 0.1718 0.2092 -0.9627
vn 0.2258 0.194 -0.9547
vn 0.1825 0.2102 -0.9605
vn 0.2345 0.2107 -0.949
vn 0.2422 0.2038 -0.9486
vn 0.19 0.1972 -0.9618
vn 0.1542 0.1346 -0.9788
vn 0.192 0.1893 -0.963
vn 0.1896 0.2196 -0.957
vn 0.1909 0.2179 -0.9571
vn 0.1984 0.2269 -0.9535
vn 0.199 0.2335 -0.9518
vn 0.1717 0.1792 -0.9687
vn 0.2094 0.2196 -0.9528
vn 0.2207 0.224 -0.9493
vn 0.2208 0.2243 -0.9492
vn 0.215 0.2059 -0.9547
vn 0.2629 0.2601 -0.9291
vn 0.1921 0.1776 -0.9652
vn 0.1681 0.1723 -0.9706
vn 0.1754 0.1754 -0.9687
vn 0.2288 0.2332 -0.9451
vn 0.1845 0.1914 -0.964
vn 0.1944 0.1901 -0.9623
vn 0.1995 0.175 -0.9642
vn 0.2309 0.2329 -0.9447
vn 0.2068 0.1919 -0.9594
vn 0.2251 0.2242 -0.9482
vn 0.2185 0.2169 -0.9514
vn 0.2335 0.2237 -0.9463
vn 0.2179 0.1906 -0.9572
vn 0.2308 0.1793 -0.9563
vn 0.2233 0.2211 -0.9493
vn 0.1903 0.1794 -0.9652
vn -0.6916 0.7222 -0.0101
vn -0.6919 0.7195 -0.0598
vn 0.7089 -0.7052 -0.0083
vn 0.6153 0.6093 -0.5002
vn 0.4062 0.3817 -0.8303
vn 0.6481 0.5949 -0.4754
vn 0.7109 0.6809 -0.1761
vn 0.7411 0.6706 -0.0315
vn 0.6671 0.7253 -0.17
vn 0.6865 0.7012 -0.1922
vn 0.6973 0.6895 -0.1958
vn 0.7061 0.6884 -0.166
vn 0.6028 0.5856 -0.5419
vn 0.4603 0.4545 -0.7626
vn 0.6478 0.5974 -0.4727
vn 0.6675 0.5879 -0.4569
vn 0.471 0.4192 -0.7762
vn 0.6725 0.6075 -0.4226
vn 0.4515 0.4836 -0.7499
vn 0.5756 0.6482 -0.4985
vn 0.6052 0.6554 -0.4519
vn 0.6056 0.6234 -0.4946
vn 0.4571 0.4464 -0.7693
vn 0.6566 0.7392 -0.1498
vn 0.5841 0.7068 -0.399
vn 0.4513 0.4833 -0.7502
vn 0.5923 0.6177 -0.5173
vn 0.6728 0.7254 -0.1457
vn 0.4696 0.4918 -0.7332
vn 0.6852 0.7139 -0.1444
vn 0.4415 0.4426 -0.7805
vn -0.7052 0.709 -0.0083
vn 0.707 -0.6982 0.1126
vn 0.7105 -0.7037 -0.0093
vn 0.3698 0.4756 -0.7981
vn 0.5843 0.6127 -0.5322
vn 0.578 0.7755 -0.2539
vn 0.3756 0.5794 -0.7234
vn 0.5138 0.7962 -0.3195
vn -0.3439 0.8049 -0.4836
vn -0.3408 0.8796 -0.332
vn 0.3538 0.9218 -0.1584
vn 0.312 0.9097 -0.2742
vn -0.092 0.6055 -0.7905
vn 0.1587 0.4407 -0.8835
vn -0.1182 0.9088 -0.4002
vn 0.0215 0.584 -0.8115
vn 0.3131 0.6353 -0.7059
vn -0.0477 0.9577 -0.2838
vn 0.2207 0.5968 -0.7714
vn 0.1342 0.904 -0.4058
vn -0.5696 0.8219 -0.0044
vn 0.464 0.8538 0.2361
vn 0.3041 0.919 0.251
vn 0.2315 0.9483 0.2171
vn -0.2518 0.9559 0.1513
vn -0.1374 0.9798 0.1453
vn -0.4595 0.8876 0.0327
vn 0.7552 0.6073 0.2468
vn 0.7071 0.628 0.325
vn 0.7037 0.6553 0.2746
vn 0.6867 0.6885 0.2334
vn 0.6861 0.6893 0.2327
vn 0.6668 0.709 0.2296
vn 0.6303 0.7325 0.2573
vn 0.6099 0.7384 0.2878
vn 0.5904 0.7653 0.2562
vn 0.7072 -0.7062 -0.0321
vn 0.8987 -0.4327 0.0715
vn 0.8925 -0.445 0.0742
vn 0.9443 0.1968 0.2638
vn 0.9841 0.0268 0.1753
vn 0.9117 0.3391 0.232
vn 0.717 -0.697 -0.0052
vn 0.7109 -0.7025 -0.0332
vn -0.5458 -0.7846 -0.294
vn -0.5535 -0.7803 -0.291
vn -0.1715 -0.9411 -0.2916
vn 0.1822 -0.9716 -0.1511
vn 0.2709 -0.9487 -0.1631
vn 0.6019 -0.7936 -0.0887
vn -0.5938 -0.7276 -0.3434
vn -0.5606 -0.7687 -0.3079
vn -0.6071 -0.7258 -0.3235
vn -0.6249 -0.7186 -0.3051
vn -0.6712 -0.6797 -0.296
vn -0.6954 -0.6107 -0.3787
vn -0.6915 -0.6401 -0.3348
vn -0.7169 -0.606 -0.3448
vn -0.7591 -0.5788 -0.2979
vn -0.9562 0.2513 -0.1499
vn -0.9139 0.373 -0.16
vn -0.9617 -0.0669 -0.266
vn -0.8622 -0.4251 -0.2754
vn -0.867 -0.4141 -0.2773
vn -0.7458 -0.5818 -0.3244
vn -0.7031 0.7111 -0.0038
vn -0.7051 0.7087 -0.0243
vn -0.5325 0.7215 -0.4425
vn -0.4994 0.7157 -0.4882
vn -0.1458 0.5048 -0.8508
vn -0.0982 0.4755 -0.8742
vn 0.0013 -0.0072 -1
vn -0.1655 -0.2511 -0.9537
vn -0.4232 -0.5076 -0.7505
vn -0.5391 -0.4265 -0.7263
vn -0.0094 0.018 -0.9998
vn -0.2497 -0.2496 -0.9356
vn -0.2299 -0.246 -0.9416
vn -0.2623 -0.3325 -0.9059
vn -0.1362 -0.0836 -0.9871
vn -0.4937 -0.3695 -0.7872
vn -0.6179 -0.4328 -0.6564
vn -0.0998 -0.0484 -0.9938
vn -0.4537 -0.4935 -0.742
vn -0.3237 -0.2136 -0.9217
vn -0.269 -0.2066 -0.9407
vn -0.1819 -0.0972 -0.9785
vn -0.1751 -0.1568 -0.972
vn -0.2999 -0.2439 -0.9223
vn -0.2556 -0.259 -0.9314
vn -0.168 -0.2554 -0.9521
vn -0.1156 -0.148 -0.9822
vn -0.4543 -0.6168 -0.6428
vn -0.2373 -0.3422 -0.9092
vn 0.0174 -0.0183 -0.9997
vn -0.2207 -0.3163 -0.9226
vn -0.245 -0.2834 -0.9272
vn 0.3288 0.5807 -0.7448
vn -0.1427 0.6433 -0.7522
vn -0.0356 0.5252 -0.8502
vn -0.2821 0.887 -0.3657
vn -0.4389 0.7892 -0.4295
vn -0.373 0.8062 -0.4592
vn 0.5106 0.7688 -0.3851
vn -0.0631 0.8109 -0.5818
vn 0.254 0.6161 -0.7456
vn 0.4427 0.8442 -0.302
vn -0.0582 0.9567 -0.2852
vn -0.1319 0.908 -0.3976
vn 0.2127 0.722 -0.6583
vn 0.3021 0.9032 -0.305
vn 0.2974 0.903 -0.31
vn -0.1485 0.6622 -0.7344
vn 0.1471 0.4635 -0.8738
vn 0.6634 0.6936 -0.281
vn 0.2988 0.3135 -0.9014
vn 0.5821 0.6318 -0.5118
vn 0.5697 0.6429 -0.5119
vn 0.6132 0.6956 -0.3743
vn 0.5018 0.5751 -0.6461
vn 0.6541 0.7338 -0.1836
vn 0.3449 0.4184 -0.8402
vn 0.6487 0.7549 -0.0964
vn 0.327 0.402 -0.8553
vn 0.5697 0.6985 -0.433
vn 0.5665 0.5694 -0.5957
vn 0.657 0.6944 -0.2935
vn 0.5767 0.7343 -0.3581
vn 0.6235 0.7664 -0.155
vn 0.4218 0.4187 -0.8042
vn 0.671 0.6795 -0.2967
vn 0.4134 0.4531 -0.7898
vn 0.6661 0.7279 -0.1627
vn 0.4177 0.4659 -0.7801
vn 0.5029 0.5875 -0.634
vn 0.5077 0.512 -0.6929
vn 0.4835 0.5226 -0.7022
vn 0.4742 0.4576 -0.7522
vn 0.5613 0.5114 -0.6507
vn 0.6741 0.6211 -0.3998
vn 0.482 0.4383 -0.7587
vn 0.6953 0.6607 -0.2829
vn 0.4808 0.3771 -0.7916
vn 0.5035 0.4043 -0.7636
vn 0.4049 0.3646 -0.8385
vn 0.6799 0.5294 -0.5073
vn 0.6897 0.5501 -0.4708
vn 0.7824 0.6227 0.0116
vn 0.782 0.6233 0.0054
vn 0.6704 0.5647 -0.4814
vn 0.7431 0.6496 -0.1607
vn 0.7363 0.668 -0.1078
vn 0.688 0.6685 -0.2825
vn 0.5596 0.5738 -0.598
vn 0.6924 0.6613 -0.2885
vn 0.6992 0.612 -0.3696
vn 0.4947 0.4182 -0.7618
vn 0.5757 0.5024 -0.6451
vn 0.4038 0.3681 -0.8375
vn 0.4305 -0.062 -0.9005
vn 0.644 -0.3705 -0.6693
vn 0.5934 -0.2039 -0.7787
vn 0.7402 -0.4611 -0.4894
vn 0.8945 -0.3001 -0.3313
vn 0.8886 -0.1777 -0.4228
vn 0.6029 0.2497 -0.7577
vn 0.9407 0.0626 -0.3335
vn 0.7916 0.4359 -0.4283
vn 0.6401 -0.0971 -0.7622
vn 0.8893 0.448 -0.0915
vn 0.5009 0.1229 -0.8568
vn 0.785 0.2866 -0.5492
vn 0.9151 0.4019 -0.034
vn 0.9844 0.1149 -0.1329
vn 0.6712 -0.3427 -0.6573
vn 0.5363 -0.2516 -0.8056
vn 0.613 -0.3228 -0.7212
vn 0.6182 -0.3011 -0.7261
vn 0.6975 -0.499 -0.5143
vn 0.7092 -0.5117 -0.4849
vn 0.6984 -0.5008 -0.5112
vn 0.4633 -0.0808 -0.8825
vn 0.4325 -0.0581 -0.8997
vn 0.6982 -0.5014 -0.511
vn 0.3973 -0.5194 -0.7566
vn 0.4143 -0.7058 -0.5746
vn 0.6607 -0.1613 -0.7331
vn 0.2118 -0.0662 -0.9751
vn -0.1359 -0.4115 -0.9012
vn 0.6235 -0.6663 -0.4091
vn -0.2987 -0.6014 -0.741
vn -0.0231 -0.7983 -0.6019
vn -0.0115 -0.8224 -0.5689
vn -0.3432 -0.6012 -0.7216
vn 0.2359 -0.1543 -0.9594
vn 0.1782 -0.3739 -0.9102
vn 0.201 -0.4263 -0.882
vn 0.2545 -0.8538 -0.4541
vn -0.1436 -0.118 -0.9826
vn -0.213 -0.2138 -0.9534
vn -0.2001 -0.097 -0.975
vn -0.2824 -0.2212 -0.9335
vn -0.3368 -0.297 -0.8935
vn 0.01 0.0291 -0.9995
vn -0.0579 -0.046 -0.9973
vn -0.5506 -0.5138 -0.6579
vn -0.2077 -0.1384 -0.9684
vn -0.2801 -0.2219 -0.934
vn -0.5099 -0.3871 -0.7682
vn -0.4992 -0.4177 -0.7592
vn -0.5556 -0.4397 -0.7057
vn -0.5208 -0.3917 -0.7585
vn -0.1188 -0.1123 -0.9865
vn -0.4401 -0.3534 -0.8255
vn -0.1143 -0.1035 -0.988
vn -0.5385 -0.4854 -0.6888
vn -0.4253 -0.4256 -0.7987
vn -0.5594 -0.518 -0.6471
vn -0.3831 -0.4787 -0.79
vn -0.205 -0.2446 -0.9477
vn -0.082 -0.094 -0.9922
vn -0.0689 -0.064 -0.9956
vn -0.2883 -0.339 -0.8955
vn -0.3641 -0.3879 -0.8468
vn -0.5474 -0.6115 -0.5714
vn -0.1683 -0.2473 -0.9542
vn -0.5001 -0.6401 -0.5833
vn -0.3071 -0.3096 -0.8999
vn -0.0632 -0.0687 -0.9956
vn -0.2867 -0.2951 -0.9114
vn -0.5152 -0.5288 -0.6745
vn -0.5054 -0.5137 -0.6933
vn -0.4144 -0.5438 -0.7298
vn -0.0175 -0.0455 -0.9988
vn -0.0419 -0.0855 -0.9955
vn -0.4698 -0.5458 -0.6938
vn -0.3827 -0.5254 -0.7599
vn -0.3813 -0.4777 -0.7915
vn -0.792 -0.0956 -0.6031
vn -0.7318 -0.0637 -0.6785
vn -0.2941 -0.0673 -0.9534
vn -0.5826 -0.2961 -0.7569
vn -0.5725 -0.4145 -0.7074
vn -0.3364 0.4172 -0.8442
vn -0.2169 0.2431 -0.9454
vn -0.6681 0.4341 -0.6043
vn -0.7108 0.4004 -0.5783
vn -0.3188 0.056 -0.9462
vn -0.1154 -0.1404 -0.9834
vn -0.7315 0.0699 -0.6782
vn 0.1207 0.2814 -0.952
vn -0.0129 0.4118 -0.9112
vn -0.2717 0.5955 -0.756
vn -0.2195 0.5551 -0.8023
vn -0.5042 0.7129 -0.4873
vn -0.4884 0.7039 -0.5157
vn -0.4844 -0.4658 -0.7405
vn -0.5179 -0.4152 -0.748
vn -0.4712 -0.4371 -0.7661
vn -0.4998 -0.4487 -0.7408
vn -0.4177 -0.4924 -0.7636
vn -0.4269 -0.478 -0.7676
vn -0.4162 -0.5132 -0.7506
vn 0.1997 0.2106 -0.957
vn 0.1925 0.2188 -0.9566
vn 0.199 0.2109 -0.957
vn 0.1921 0.218 -0.9569
vn 0.1944 0.2179 -0.9564
vn 0.2381 0.1916 -0.9522
vn 0.2078 0.1798 -0.9615
vn 0.2076 0.1933 -0.9589
vn 0.2077 0.1927 -0.959
vn 0.2043 0.1985 -0.9586
vn 0.215 0.1914 -0.9577
vn 0.2397 0.1829 -0.9535
vn 0.2116 0.196 -0.9575
vn 0.2171 0.1909 -0.9573
f 1//1 2//1 3//1
f 4//2 5//2 6//2
f 6//3 5//3 7//3
f 8//4 2//4 1//4
f 8//5 1//5 9//5
f 10//6 11//6 6//6
f 6//7 11//7 4//7
f 9//8 1//8 12//8
f 6//9 13//9 10//9
f 13//10 9//10 10//10
f 6//11 7//11 13//11
f 10//12 9//12 12//12
f 11//13 10//13 14//13
f 13//14 8//14 9//14
f 1//15 3//15 12//15
f 15//16 16//16 2//16
f 2//17 16//17 3//17
f 16//18 17//18 3//18
f 3//19 18//19 12//19
f 17//20 18//20 3//20
f 16//21 19//21 17//21
f 17//22 19//22 20//22
f 18//23 20//23 21//23
f 19//24 22//24 20//24
f 15//25 19//25 16//25
f 19//26 23//26 22//26
f 18//27 21//27 24//27
f 25//28 22//28 23//28
f 22//29 26//29 21//29
f 26//30 22//30 25//30
f 20//31 22//31 21//31
f 21//32 26//32 24//32
f 25//33 27//33 26//33
f 17//34 20//34 18//34
f 28//35 29//35 30//35
f 31//36 32//36 33//36
f 29//37 34//37 30//37
f 30//38 34//38 35//38
f 35//39 34//39 36//39
f 31//40 35//40 37//40
f 35//41 36//41 37//41
f 31//42 38//42 32//42
f 38//43 39//43 32//43
f 37//44 40//44 38//44
f 32//45 39//45 41//45
f 42//46 43//46 39//46
f 42//47 44//47 43//47
f 40//48 42//48 38//48
f 30//49 35//49 45//49
f 31//50 45//50 35//50
f 38//51 42//51 39//51
f 37//52 38//52 31//52
f 33//53 45//53 31//53
f 39//54 43//54 41//54
f 46//55 11//55 14//55
f 47//56 11//56 46//56
f 47//57 4//57 11//57
f 47//58 5//58 4//58
f 48//59 49//59 50//59
f 51//60 33//60 32//60
f 10//61 52//61 14//61
f 51//62 32//62 41//62
f 12//63 53//63 54//63
f 55//64 51//64 41//64
f 10//65 54//65 52//65
f 10//66 12//66 54//66
f 56//67 33//67 51//67
f 57//68 58//68 33//68
f 57//69 33//69 56//69
f 59//70 41//70 60//70
f 59//71 55//71 41//71
f 61//72 59//72 60//72
f 62//73 61//73 60//73
f 63//74 58//74 57//74
f 64//75 61//75 62//75
f 65//76 64//76 62//76
f 66//77 64//77 65//77
f 67//78 63//78 57//78
f 68//79 66//79 65//79
f 69//80 68//80 65//80
f 70//81 67//81 57//81
f 71//82 68//82 69//82
f 72//83 66//83 68//83
f 24//84 67//84 70//84
f 73//85 24//85 70//85
f 18//86 24//86 73//86
f 74//87 66//87 72//87
f 75//88 18//88 73//88
f 49//89 66//89 74//89
f 52//90 66//90 49//90
f 46//91 52//91 49//91
f 53//92 18//92 75//92
f 12//93 18//93 53//93
f 14//94 52//94 46//94
f 48//95 46//95 49//95
f 76//96 50//96 77//96
f 77//97 50//97 49//97
f 46//98 48//98 47//98
f 78//99 79//99 80//99
f 74//100 81//100 49//100
f 79//101 82//101 83//101
f 84//102 82//102 79//102
f 84//103 76//103 82//103
f 85//104 86//104 87//104
f 78//105 85//105 88//105
f 79//106 78//106 88//106
f 88//107 84//107 79//107
f 79//108 83//108 80//108
f 80//109 83//109 74//109
f 81//110 83//110 82//110
f 81//111 82//111 76//111
f 49//112 81//112 77//112
f 76//113 77//113 81//113
f 89//114 68//114 90//114
f 90//115 86//115 89//115
f 89//116 86//116 85//116
f 80//117 85//117 78//117
f 74//118 83//118 81//118
f 91//119 87//119 86//119
f 86//120 90//120 91//120
f 68//121 89//121 72//121
f 80//122 89//122 85//122
f 92//123 85//123 87//123
f 89//124 80//124 72//124
f 88//125 85//125 92//125
f 72//126 80//126 74//126
f 93//127 69//127 65//127
f 68//128 71//128 90//128
f 71//129 91//129 90//129
f 94//130 65//130 62//130
f 94//131 93//131 65//131
f 95//132 93//132 94//132
f 96//133 94//133 62//133
f 96//134 95//134 94//134
f 97//135 98//135 99//135
f 99//136 98//136 100//136
f 101//137 95//137 96//137
f 101//138 96//138 102//138
f 60//139 97//139 99//139
f 60//140 103//140 62//140
f 99//141 100//141 103//141
f 103//142 60//142 99//142
f 102//143 96//143 62//143
f 100//144 101//144 103//144
f 103//145 102//145 62//145
f 103//146 101//146 102//146
f 104//147 59//147 105//147
f 106//148 64//148 107//148
f 106//149 61//149 64//149
f 108//150 61//150 106//150
f 109//151 59//151 61//151
f 109//152 61//152 108//152
f 105//153 59//153 109//153
f 110//154 52//154 111//154
f 110//155 66//155 52//155
f 112//156 66//156 110//156
f 113//157 66//157 112//157
f 114//158 66//158 113//158
f 115//159 66//159 114//159
f 116//160 66//160 115//160
f 116//161 64//161 66//161
f 107//162 64//162 116//162
f 117//163 53//163 118//163
f 117//164 54//164 53//164
f 119//165 54//165 117//165
f 120//166 52//166 54//166
f 120//167 54//167 119//167
f 111//168 52//168 120//168
f 121//169 118//169 75//169
f 118//170 53//170 75//170
f 122//171 73//171 70//171
f 123//172 73//172 122//172
f 124//173 73//173 123//173
f 124//174 75//174 73//174
f 125//175 75//175 124//175
f 121//176 75//176 125//176
f 126//177 57//177 56//177
f 126//178 56//178 127//178
f 128//179 57//179 126//179
f 129//180 57//180 128//180
f 130//181 57//181 129//181
f 131//182 70//182 57//182
f 131//183 57//183 130//183
f 132//184 70//184 131//184
f 122//185 70//185 132//185
f 133//186 51//186 55//186
f 133//187 55//187 134//187
f 135//188 51//188 133//188
f 136//189 56//189 51//189
f 136//190 51//190 135//190
f 127//191 56//191 136//191
f 59//192 104//192 55//192
f 55//193 104//193 134//193
f 44//194 98//194 43//194
f 98//195 97//195 43//195
f 43//196 97//196 41//196
f 97//197 60//197 41//197
f 63//198 137//198 138//198
f 139//199 140//199 58//199
f 141//200 142//200 139//200
f 143//201 144//201 145//201
f 63//202 67//202 137//202
f 146//203 137//203 147//203
f 139//204 138//204 146//204
f 139//205 142//205 140//205
f 26//206 148//206 24//206
f 27//207 144//207 26//207
f 27//208 145//208 144//208
f 24//209 148//209 67//209
f 139//210 146//210 149//210
f 26//211 144//211 148//211
f 148//212 144//212 143//212
f 143//213 67//213 148//213
f 67//214 143//214 137//214
f 147//215 137//215 143//215
f 146//216 138//216 137//216
f 140//217 45//217 58//217
f 63//218 138//218 58//218
f 28//219 30//219 142//219
f 142//220 30//220 140//220
f 58//221 45//221 33//221
f 140//222 30//222 45//222
f 58//223 138//223 139//223
f 150//224 151//224 152//224
f 153//225 154//225 155//225
f 154//226 156//226 155//226
f 105//227 109//227 157//227
f 104//228 105//228 153//228
f 153//229 105//229 157//229
f 151//230 107//230 152//230
f 154//231 157//231 158//231
f 150//232 154//232 151//232
f 151//233 106//233 107//233
f 158//234 109//234 108//234
f 157//235 109//235 158//235
f 154//236 158//236 151//236
f 151//237 108//237 106//237
f 158//238 108//238 151//238
f 154//239 153//239 157//239
f 150//240 156//240 154//240
f 159//241 114//241 113//241
f 160//242 161//242 162//242
f 163//243 164//243 165//243
f 164//244 166//244 165//244
f 167//245 164//245 163//245
f 168//246 163//246 165//246
f 167//247 115//247 164//247
f 152//248 160//248 150//248
f 116//249 115//249 167//249
f 152//250 168//250 160//250
f 152//251 167//251 163//251
f 166//252 159//252 169//252
f 159//253 166//253 114//253
f 107//254 167//254 152//254
f 107//255 116//255 167//255
f 162//256 161//256 169//256
f 166//257 164//257 114//257
f 160//258 165//258 161//258
f 164//259 115//259 114//259
f 165//260 160//260 168//260
f 168//261 152//261 163//261
f 161//262 165//262 166//262
f 169//263 161//263 166//263
f 162//264 170//264 171//264
f 171//265 170//265 172//265
f 172//266 170//266 173//266
f 162//267 169//267 170//267
f 113//268 112//268 170//268
f 174//269 175//269 176//269
f 175//270 177//270 176//270
f 171//271 175//271 178//271
f 176//272 177//272 179//272
f 177//273 180//273 179//273
f 179//274 110//274 111//274
f 180//275 110//275 179//275
f 172//276 180//276 177//276
f 173//277 110//277 180//277
f 173//278 112//278 110//278
f 170//279 112//279 173//279
f 169//280 159//280 170//280
f 113//281 170//281 159//281
f 173//282 180//282 172//282
f 177//283 175//283 171//283
f 171//284 172//284 177//284
f 171//285 178//285 162//285
f 181//286 182//286 183//286
f 183//287 184//287 118//287
f 182//288 184//288 183//288
f 184//289 117//289 118//289
f 119//290 117//290 184//290
f 185//291 119//291 184//291
f 176//292 185//292 174//292
f 186//293 119//293 185//293
f 186//294 176//294 179//294
f 182//295 185//295 184//295
f 186//296 179//296 111//296
f 182//297 174//297 185//297
f 176//298 186//298 185//298
f 111//299 120//299 186//299
f 186//300 120//300 119//300
f 118//301 187//301 183//301
f 188//302 189//302 190//302
f 189//303 187//303 190//303
f 183//304 187//304 189//304
f 191//305 118//305 121//305
f 187//306 121//306 190//306
f 191//307 121//307 187//307
f 181//308 189//308 188//308
f 189//309 181//309 183//309
f 118//310 191//310 187//310
f 192//311 190//311 193//311
f 193//312 190//312 125//312
f 192//313 188//313 190//313
f 188//314 194//314 195//314
f 194//315 196//315 197//315
f 121//316 125//316 190//316
f 197//317 196//317 123//317
f 196//318 193//318 123//318
f 193//319 124//319 123//319
f 122//320 197//320 123//320
f 188//321 192//321 194//321
f 194//322 192//322 196//322
f 192//323 193//323 196//323
f 125//324 124//324 193//324
f 198//325 199//325 200//325
f 198//326 201//326 199//326
f 202//327 201//327 198//327
f 201//328 202//328 203//328
f 199//329 204//329 205//329
f 194//330 202//330 195//330
f 195//331 202//331 198//331
f 206//332 201//332 131//332
f 197//333 203//333 194//333
f 194//334 203//334 202//334
f 122//335 203//335 197//335
f 203//336 132//336 201//336
f 201//337 132//337 131//337
f 122//338 132//338 203//338
f 200//339 199//339 205//339
f 199//340 201//340 206//340
f 200//341 205//341 207//341
f 130//342 204//342 206//342
f 206//343 204//343 199//343
f 206//344 131//344 130//344
f 208//345 209//345 210//345
f 211//346 210//346 209//346
f 210//347 212//347 207//347
f 207//348 213//348 210//348
f 210//349 213//349 214//349
f 214//350 208//350 210//350
f 129//351 128//351 208//351
f 211//352 209//352 215//352
f 126//353 208//353 128//353
f 204//354 213//354 205//354
f 205//355 213//355 207//355
f 204//356 214//356 213//356
f 130//357 129//357 204//357
f 204//358 129//358 214//358
f 215//359 126//359 127//359
f 212//360 211//360 216//360
f 211//361 212//361 210//361
f 214//362 129//362 208//362
f 126//363 215//363 209//363
f 208//364 126//364 209//364
f 217//365 136//365 133//365
f 136//366 135//366 133//366
f 217//367 216//367 215//367
f 215//368 136//368 217//368
f 127//369 136//369 215//369
f 218//370 219//370 220//370
f 216//371 219//371 218//371
f 220//372 219//372 134//372
f 219//373 133//373 134//373
f 216//374 217//374 219//374
f 211//375 215//375 216//375
f 217//376 133//376 219//376
f 216//377 218//377 156//377
f 156//378 218//378 155//378
f 155//379 220//379 153//379
f 218//380 220//380 155//380
f 153//381 134//381 104//381
f 220//382 134//382 153//382
f 149//383 146//383 147//383
f 221//384 143//384 145//384
f 221//385 149//385 147//385
f 221//386 147//386 143//386
f 222//387 141//387 139//387
f 222//388 139//388 149//388
f 141//389 28//389 142//389
f 207//390 160//390 162//390
f 156//391 150//391 160//391
f 212//392 160//392 207//392
f 212//393 156//393 160//393
f 216//394 156//394 212//394
f 182//395 181//395 175//395
f 174//396 182//396 175//396
f 207//397 178//397 200//397
f 207//398 162//398 178//398
f 178//399 198//399 200//399
f 175//400 198//400 178//400
f 175//401 188//401 195//401
f 175//402 195//402 198//402
f 181//403 188//403 175//403