o obj1
v 0.001418 -0.093994 -0.020067
v 0.000865 -0.09508 -0.019943
v 0.000405 -0.093987 -0.020663
v 0.001943 -0.096337 -0.017629
v 0.001942 -0.099056 -0.014995
v 0.001683 -0.099203 -0.015721
v 0.001184 -0.096991 -0.014068
v 0.000431 -0.098325 -0.01167
v 0.000959 -0.098486 -0.01179
v 0.001123 -0.096737 -0.018732
v 0.000983 -0.09901 -0.016902
v 4E-05 -0.097982 -0.01823
v 0.00014 -0.097306 -0.013086
v 0.001998 -0.097345 -0.015984
v 0.001647 -0.096985 -0.017923
v 0.000201 -0.096509 -0.019288
v 0.001506 -0.098209 -0.013057
v 0.001794 -0.098573 -0.013282
v 0.001883 -0.097691 -0.014743
v 7.1E-05 -0.096028 -0.014518
v 0.001953 -0.100835 -0.00974
v 0.001767 -0.099747 -0.010964
v 0.001746 -0.10065 -0.00839
v 0.000561 -0.103908 -0.00662
v -0.000465 -0.103905 -0.00685
v 0.000117 -0.103545 -0.009197
v 0.001684 -0.094623 -0.016804
v 0.000959 -0.095211 -0.015578
v 0.000765 -0.103179 -0.010024
v 0.001345 -0.103466 -0.006599
v 0.001256 -0.10283 -0.010142
v 0.001909 -0.093707 -0.019326
v 0.002003 -0.093183 -0.018913
v 0.001746 -0.102891 -0.007282
v 0.002018 -0.101996 -0.007576
v 0.001735 -0.10213 -0.010579
v 0.000531 -0.094612 -0.015798
v -0.000439 -0.094626 -0.015751
v 8.2E-05 -0.102669 -0.01184
v 0.001898 -0.092969 -0.018186
v 0.001134 -0.091212 -0.021329
v 0.000166 -0.091784 -0.021509
v 0.000134 -0.092806 -0.016841
v 0.001815 -0.101078 -0.006338
v 0.000894 -0.09345 -0.016681
v 0.001126 -0.100281 -0.006457
v 0.000265 -0.099822 -0.007431
v -5.9E-05 -0.099942 -0.006241
v 0.001667 -0.091212 -0.020746
v 0.001318 -0.099995 -0.008803
v 0.001943 -0.091105 -0.020161
v 0.000557 -0.101738 -0.013598
v 0.002003 -0.10123 -0.010531
v 0.000481 -0.089778 -0.021922
v 0.000972 -0.091934 -0.017454
v 0.001541 -0.101232 -0.013196
v 0.00057 -0.099463 -0.009155
v 0.001943 -0.089884 -0.019411
v 0.00159 -0.090884 -0.018412
v 0.001959 -0.100607 -0.012581
v -0.00029 -0.099582 -0.008544
v 0.0015 -0.088403 -0.021488
v 0.001007 -0.10056 -0.015015
v 0.000791 -0.087817 -0.022019
v 0.001932 -0.087733 -0.020761
v 4.2E-05 -0.087863 -0.022172
v 0.000196 -0.100077 -0.01606
v 0.00107 -0.089191 -0.018339
v 0.001994 -0.087722 -0.01988
v 0.000532 -0.090127 -0.017864
v 0.001688 -0.088135 -0.019039
v -0.000417 -0.089937 -0.017878
v 0.000601 -0.088207 -0.018212
v -0.000404 -0.088094 -0.018164
v -0.002 -0.098298 0.01503
v -0.001921 -0.096569 0.017126
v -0.001949 -0.096551 0.017035
v -0.001123 -0.096737 0.018383
v -0.000982 -0.09901 0.016553
v -6.2E-05 -0.097779 0.018048
v -0.000744 -0.097747 0.012401
v 0.000422 -0.097678 0.012328
v -0.000321 -0.098109 0.011631
v -0.001647 -0.096986 0.017574
v -0.000161 -0.096857 0.018695
v -0.001166 -0.096247 0.014465
v -0.001572 -0.098265 0.012711
v -0.001802 -0.09721 0.0146
v 0.001526 -0.096664 0.017917
v 0.001815 -0.096558 0.017432
v 0.001869 -0.096516 0.017235
v -0.002001 -0.096396 0.016281
v -0.000141 -0.096051 0.014144
v -0.001975 -0.100732 0.009767
v -0.001409 -0.099677 0.009723
v -0.001656 -0.100719 0.007044
v -0.000279 -0.103946 0.006315
v 0.000529 -0.10391 0.006335
v -0.000109 -0.103546 0.008846
v -0.001322 -0.10336 0.007097
v -0.001699 -0.103068 0.005906
v -0.000911 -0.103772 0.00608
v -0.001634 -0.096696 0.017771
v -0.001063 -0.103082 0.009496
v -0.001681 -0.096172 0.015225
v -0.001949 -0.09708 0.015385
v -0.001808 -0.096268 0.015676
v -0.001194 -0.096046 0.014657
v -0.001832 -0.102501 0.008179
v -0.001997 -0.102176 0.006441
v -0.001116 -0.096033 0.014605
v -0.001657 -0.096687 0.017724
v -0.001811 -0.096625 0.017411
v -0.000175 -0.09594 0.014243
v -0.000102 -0.095938 0.014241
v -0.00192 -0.096298 0.015815
v -0.001959 -0.09633 0.015963
v -0.000421 -0.102897 0.010801
v -0.001694 -0.10204 0.01061
v 0.000246 -0.09684 0.018652
v -0.000811 -0.101978 0.012555
v 0.000216 -0.102633 0.011591
v -0.00195 -0.101396 0.007032
v -0.00098 -0.099704 0.008661
v -0.001231 -0.100358 0.005999
v -0.001996 -0.101038 0.010945
v -0.000449 -0.099667 0.007984
v -0.00154 -0.101232 0.012847
v -0.000353 -0.099985 0.005895
v -2.1E-05 -0.101264 0.014164
v -0.001898 -0.10039 0.013003
v -0.001007 -0.10056 0.014666
v -0.001951 -0.099393 0.012463
v -0.000198 -0.100079 0.015708
v 0.000118 -0.098862 0.010119
v 0.000289 -0.099582 0.008195
v -0.001682 -0.099203 0.015373
v 0.001639 -0.081 -0.021359
v 0.002041 -0.081 -0.020174
v -0.00176 -0.088835 -0.021087
v -0.001999 -0.08736 -0.020405
v -0.001967 -0.081 -0.020716
v -0.001467 -0.088051 -0.021531
v -0.001263 -0.081 -0.021753
v -0.000679 -0.08849 -0.022036
v 0.000282 -0.081 -0.022249
v 0.001443 -0.103376 0.006307
v 0.001944 -0.102453 0.006737
v -0.002011 -0.10176 -0.007162
v -0.001865 -0.102728 -0.006343
v 0.002005 -0.101371 0.009031
v -0.001329 -0.103481 -0.006633
v 0.000812 -0.095967 0.014468
v 0.000758 -0.096087 0.014328
v 0.000732 -0.095959 0.014421
v 0.000417 -0.099631 0.016182
v 0.000981 -0.101212 0.01374
v 0.001076 -0.09941 0.016041
v 0.001266 -0.096012 0.014729
v 0.001506 -0.096082 0.015093
v 0.00123 -0.096878 0.013945
v 0.002008 -0.09741 0.015902
v 0.000647 -0.100052 0.005992
v 0.001948 -0.096232 0.015863
v 0.001954 -0.097299 0.015148
v 0.001828 -0.096197 0.01568
v 0.001891 -0.098507 0.015501
v 0.001488 -0.096678 0.017984
v 0.001306 -0.100439 0.006104
v 0.000862 -0.099828 0.007981
v 0.00103 -0.09718 0.01812
v 0.001631 -0.09947 0.015203
v 0.001336 -0.09993 0.008812
v 0.001657 -0.100759 0.006957
v 0.001966 -0.096423 0.016789
v 0.002007 -0.096384 0.016603
v 0.001988 -0.096343 0.016405
v 0.000863 -0.096791 0.018473
v 0.001037 -0.096767 0.01837
v 0.001288 -0.096727 0.018201
v 0.000958 -0.099052 0.010321
v 0.00181 -0.100261 0.009693
v 0.001639 -0.102713 0.00868
v 0.001896 -0.101231 0.007031
v 0.000926 -0.103317 0.008862
v 0.001896 -0.10173 0.010188
v 0.001224 -0.098614 0.01157
v 0.001665 -0.098875 0.012099
v 0.001979 -0.099486 0.012462
v 0.001581 -0.101804 0.011607
v 0.001073 -0.102411 0.011335
v 0.001942 -0.100624 0.012378
v 0.001825 -0.097495 0.014319
v 0.001769 -0.096149 0.015444
v -0.001795 -0.100998 -0.007325
v -0.001293 -0.100396 -0.006474
v -0.000533 -0.099905 -0.016169
v -0.000654 -0.101289 -0.014241
v -0.001339 -0.099498 -0.015981
v -0.001337 -0.094486 -0.016416
v -0.001332 -0.096335 -0.014914
v -0.000858 -0.096671 -0.014172
v -0.002004 -0.093524 -0.018945
v -0.001995 -0.098057 -0.014877
v -0.001941 -0.095665 -0.016824
v -0.001977 -0.098451 -0.015405
v -0.001902 -0.094151 -0.017647
v -0.001843 -0.096817 -0.017638
v -0.001759 -0.099121 -0.015597
v -0.000894 -0.093439 -0.016687
v -0.001167 -0.097962 -0.017724
v -0.000981 -0.100065 -0.007441
v -0.001911 -0.098988 -0.01311
v -0.000836 -0.091867 -0.017407
v -0.001452 -0.099918 -0.009661
v -0.000999 -0.09957 -0.009416
v -0.001519 -0.095801 -0.018945
v -0.001605 -0.092185 -0.01796
v -0.000664 -0.096492 -0.019186
v -0.001633 -0.102813 -0.008623
v -0.00064 -0.098892 -0.010651
v -0.001873 -0.10199 -0.010025
v -0.001998 -0.101253 -0.01061
v -0.00176 -0.093691 -0.019691
v -0.001855 -0.090128 -0.019096
v -0.000906 -0.09442 -0.020264
v -0.001332 -0.090226 -0.018272
v -0.001912 -0.100406 -0.010374
v -0.001401 -0.093041 -0.020508
v -0.00113 -0.102988 -0.009965
v -0.000385 -0.093883 -0.020704
v -0.000578 -0.103217 -0.010107
v -0.00053 -0.098015 -0.012209
v -0.00151 -0.102151 -0.011365
v -0.001878 -0.09069 -0.020487
v -0.001337 -0.098122 -0.012836
v -0.001391 -0.088261 -0.018658
v -0.001899 -0.100348 -0.013415
v -0.00071 -0.09125 -0.021536
v -0.001949 -0.087607 -0.019696
v -0.00065 -0.102261 -0.012477
v -0.001262 -0.089784 -0.021518
v -0.00152 -0.100761 -0.013992
v -0.001695 -0.081 -0.018946
v 0.001639 -0.081 -0.01899
v 0.000282 -0.081 -0.018099
vn 0.476 -0.3357 -0.8129
vn 0.9237 -0.2668 -0.2749
vn 0.3545 0.7653 0.5372
vn 0.3565 -0.5991 -0.7169
vn 0.2542 0.809 0.53
vn 0.9935 -0.0794 -0.0814
vn 0.6475 -0.5017 -0.5736
vn 0.313 -0.5765 -0.7547
vn 0.8299 0.4696 0.3012
vn 0.8087 0.4804 0.3394
vn 0.3443 -0.5184 -0.7827
vn 0.3618 0.7042 0.6109
vn 0.9527 0.2842 0.1077
vn 0.0297 -0.9891 -0.1444
vn 0.1944 -0.4817 -0.8545
vn 0.6242 -0.3953 -0.6739
vn 0.9793 0.1529 0.1328
vn 0.7277 -0.3619 -0.5826
vn 0.2657 0.6432 0.7181
vn 0.296 -0.9375 -0.1829
vn 0.8093 0.3629 0.4619
vn 0.4877 -0.8592 -0.1547
vn 0.5473 0.5808 0.6026
vn 0.5457 -0.8223 -0.1614
vn 0.8479 -0.2645 -0.4595
vn 0.9973 -0.0431 -0.0593
vn 0.8938 -0.235 -0.382
vn 0.7271 -0.6723 -0.139
vn 0.9468 -0.3129 -0.0753
vn 0.3845 0.5472 0.7435
vn 0.0265 0.6656 0.7458
vn 0.1313 -0.9406 -0.3132
vn 0.9885 -0.0727 -0.1325
vn 0.9894 0.0827 0.1195
vn 0.7718 -0.619 -0.1455
vn 0.3446 -0.3035 -0.8883
vn 0.0345 0.5053 0.8622
vn 0.4786 -0.3216 -0.8171
vn 0.8862 0.2242 0.4054
vn 0.9873 0.1503 0.0509
vn 0.6905 0.4019 0.6014
vn 0.7434 0.6594 0.1122
vn 0.8763 0.4767 0.0697
vn 0.2999 0.9375 0.1764
vn 0.307 0.5132 0.8015
vn 0.7187 -0.2248 -0.6579
vn 0.8507 -0.1951 -0.4881
vn 0.7875 0.6008 0.1376
vn 0.2762 0.5253 0.8048
vn 0.905 -0.1405 -0.4014
vn 0.3343 -0.8672 -0.369
vn 0.9958 0.0899 0.0182
vn 0.312 -0.2384 -0.9197
vn 0.9566 -0.281 -0.0777
vn 0.4851 -0.8009 -0.351
vn 0.9872 -0.0603 -0.1479
vn 0.7855 0.334 0.521
vn 0.5379 -0.7666 -0.3508
vn 0.5276 0.837 0.145
vn 0.6096 0.3352 0.7184
vn 0.7039 -0.6543 -0.2766
vn 0.2336 0.9429 0.2376
vn 0.9904 0.0382 0.1328
vn 0.7255 0.1789 0.6645
vn 0.1872 0.4387 0.8789
vn 0.9545 -0.2789 -0.1054
vn 0.0104 0.9786 0.2055
vn 0.7438 0.6286 0.227
vn 0.7311 -0.1332 -0.6692
vn 0.9881 0.1533 -0.014
vn 0.5455 -0.7212 -0.4268
vn 0.858 0.1786 0.4816
vn 0.5068 -0.1223 -0.8534
vn 0.8945 -0.3983 -0.2029
vn 0.5318 -0.1168 -0.8388
vn 0.907 -0.0709 -0.4151
vn 0.8844 -0.0694 -0.4616
vn 0.204 -0.0804 -0.9757
vn 0.2645 -0.781 -0.5658
vn 0.716 0.1909 0.6715
vn 0.8995 -0.3646 -0.2406
vn 0.7457 0.6264 0.2271
vn 0.1588 0.9028 0.3997
vn 0.8405 0.0959 0.5333
vn 0.9979 -0.0097 -0.0642
vn 0.9975 -0.0092 -0.0701
vn 0.3113 0.2815 0.9077
vn 0.7069 -0.5703 -0.4184
vn 0.3411 -0.7244 -0.5991
vn 0.4171 0.8303 0.3696
vn 0.9235 0.0538 0.3797
vn 0.3527 0.2876 0.8904
vn 0.0557 0.349 0.9355
vn 0.346 0.8618 0.3708
vn 0.8293 0.4946 0.2601
vn 0.9715 0.1943 0.1356
vn 0.8971 -0.3677 -0.245
vn -0.8704 0.4433 0.2143
vn 0.6561 -0.5791 -0.4839
vn 0.6194 0.6675 0.4133
vn 0.6133 0.1548 0.7746
vn 0.9981 -0.0501 -0.0367
vn 0.513 0.1351 0.8477
vn 0.2086 -0.6961 -0.687
vn 0.9289 0.0575 0.3659
vn 0.0207 0.1775 0.9839
vn 0.9671 0.2078 0.147
vn 0.0642 0.1524 0.9862
vn 0.9973 -0.0582 -0.0446
vn 0.7134 -0.4878 -0.5031
vn 0.7186 0.5468 0.4297
vn 0.9121 -0.2813 -0.2981
vn -0.9416 -0.2416 0.2347
vn -0.3616 -0.5981 0.7152
vn -0.0811 0.8838 -0.4607
vn -0.6474 -0.5018 0.5737
vn -0.3177 -0.5676 0.7595
vn -0.7993 0.4777 -0.3646
vn -0.5807 0.5975 -0.5529
vn -0.0201 0.9793 0.2014
vn -0.9974 -0.0401 0.0606
vn -0.3276 0.7313 -0.5983
vn -0.0857 0.7287 -0.6795
vn -0.8784 0.4672 -0.1007
vn 0.0407 -0.9873 0.1534
vn -0.6697 -0.7421 0.0297
vn -0.7261 -0.3652 0.5826
vn -0.3355 -0.9267 0.1692
vn -0.3224 -0.9306 0.1734
vn -0.946 0.2415 -0.2162
vn -0.4853 -0.861 0.1522
vn -0.7355 0.411 -0.5387
vn -0.9429 -0.3319 0.0273
vn -0.7923 -0.6013 0.1032
vn -0.5255 0.547 -0.6516
vn -0.8973 -0.2214 0.3819
vn -0.7506 -0.6423 0.1555
vn -0.8905 -0.2273 0.3941
vn -0.3433 0.5672 -0.7486
vn -0.0425 0.6604 -0.7498
vn -0.9637 0.1548 -0.2174
vn -0.27 -0.9258 0.2646
vn -0.7679 0.3298 -0.5492
vn -0.7567 -0.6331 0.163
vn -0.0005 0.9322 0.362
vn -0.1636 -0.8884 0.4289
vn -0.9962 0.0818 -0.029
vn -0.7597 0.6444 -0.0866
vn -0.9402 -0.3209 0.1143
vn -0.9763 -0.2097 0.0533
vn -0.4438 -0.8306 0.3364
vn -0.3168 0.9276 -0.198
vn -0.9116 0.3975 -0.1049
vn -0.9994 0.0343 -0.0083
vn -0.6151 -0.7241 0.3121
vn -0.402 0.9023 -0.1556
vn -0.6391 -0.7082 0.2999
vn -0.5716 0.7811 -0.2511
vn -0.1328 -0.88 0.4559
vn -0.9323 -0.3298 0.1482
vn -0.3131 -0.8015 0.5095
vn -0.9994 0.0349 -0.0082
vn -0.5572 -0.7123 0.4269
vn -0.8852 -0.4148 0.2108
vn -0.2678 -0.7791 0.5669
vn -0.0078 0.9363 -0.3511
vn -0.3692 0.8977 -0.2406
vn -0.6097 0.7468 -0.2656
vn -0.707 -0.5702 0.4184
vn -0.3418 -0.7242 0.599
vn -0.9236 0.3465 -0.1637
vn -0.8557 0.4484 -0.2584
vn -0.8611 -0.4189 0.2881
vn -0.6561 -0.5791 0.484
vn -0.0681 0.8852 -0.4601
vn -0.5884 0.7183 -0.3714
vn -0.2546 0.8135 -0.5229
vn -0.1981 -0.6932 0.693
vn -0.9979 0.0527 -0.0365
vn -0.9922 0.0983 -0.0771
vn -0.9444 -0.2514 0.2118
vn -0.9868 -0.1349 0.0894
vn -0.8783 0.3635 -0.3105
vn -0.7134 -0.4879 0.5031
vn -0.9347 0.2791 -0.2203
vn -0.9123 -0.2807 0.2982
vn 0.947 0.0127 -0.3208
vn 0.9975 -0.01 -0.0701
vn -0.9504 -0.0104 -0.3108
vn -0.8275 0.0063 -0.5614
vn -0.8384 0.0036 -0.545
vn -0.5435 -0.0107 -0.8393
vn -0.3056 0.0121 -0.9521
vn -0.1808 -0.0048 -0.9835
vn 0.201 -0.0181 -0.9794
vn 0.5486 0.0043 -0.8361
vn 0.6093 0.0187 -0.7927
vn 0.8626 -0.0074 -0.5059
vn 0.8189 -0.574 -0.0022
vn 0.8784 -0.4779 0.0025
vn 0.9563 -0.2925 -0.0044
vn -0.9883 -0.1524 -0.0037
vn -0.9476 -0.3194 0.004
vn 0.998 -0.0628 0.0032
vn -0.8159 -0.5782 -0.005
vn -0.6669 -0.7451 0.0049
vn -0.4414 -0.8973 -0.006
vn -0.2671 -0.9637 0.0007
vn -0.002 -1 -0.0031
vn 0.0451 -0.999 -0.0001
vn 0.4905 -0.8714 0.001
vn 0.5049 -0.8632 0.0022
vn 0.4524 0.5857 -0.6725
vn 0.2793 -0.7752 0.5666
vn 0.3678 -0.7395 0.5638
vn 0.4438 0.5909 -0.6737
vn 0.0993 -0.784 0.6128
vn 0.8048 0.3793 -0.4565
vn 0.9572 -0.1841 0.2234
vn 0.0809 0.9859 -0.1462
vn 0.8191 0.3228 -0.4742
vn 0.8291 -0.377 0.4129
vn 0.8481 -0.3516 0.3964
vn -0.0507 0.975 -0.2165
vn 0.5196 0.841 -0.1508
vn 0.3459 0.9275 -0.1419
vn 0.7245 -0.4617 0.5117
vn -0.0193 0.9792 0.2019
vn 0.4782 0.8621 -0.1675
vn 0.3562 -0.6158 0.7028
vn 0.3078 -0.6452 0.6992
vn -0.0193 0.9792 0.2018
vn 0.8092 0.5757 -0.1173
vn 0.9744 -0.1258 0.1861
vn 0.9949 0.0579 -0.083
vn 0.2689 -0.5821 0.7674
vn 0.9739 -0.1275 0.1879
vn 0.1104 -0.5633 0.8188
vn 0.5474 -0.4403 0.7117
vn 0.2741 0.9094 -0.3128
vn 0.2812 0.9067 -0.3143
vn 0.7468 0.6457 -0.1595
vn 0.8631 -0.5004 0.0685
vn 0.6269 0.7315 -0.2683
vn 0.893 0.4313 -0.1285
vn 0.6615 -0.7346 0.1506
vn 0.5039 -0.8551 0.1215
vn 0.9191 -0.3829 0.0931
vn 0.9799 0.1954 -0.0398
vn 0.4116 0.8289 -0.3789
vn 0.9872 -0.1525 0.0457
vn 0.8201 0.5157 -0.2477
vn 0.7137 0.643 -0.2779
vn -0.0792 0.8832 -0.4623
vn 0.2093 -0.9588 0.1921
vn 0.9136 0.3737 -0.1603
vn 0.3023 0.8222 -0.4822
vn 0.8617 -0.4796 0.1659
vn 0.9614 0.2442 -0.1269
vn 0.5278 0.7599 -0.3794
vn 0.6631 -0.7148 0.2224
vn 0.695 -0.6826 0.2256
vn 0.9991 -0.034 0.0262
vn 0.9889 -0.1402 0.0497
vn 0.323 -0.8947 0.3086
vn 0.0019 -0.9489 0.3156
vn 0.2027 -0.936 0.2876
vn 0.9018 -0.3932 0.1793
vn 0.3575 0.7536 -0.5516
vn 0.7647 0.5193 -0.3815
vn 0.1593 0.7593 -0.6309
vn 0.6258 -0.6881 0.3671
vn 0.7703 0.5152 -0.3757
vn 0.5496 0.6064 -0.5747
vn 0.8546 -0.4408 0.2744
vn 0.913 0.3137 -0.2608
vn 0.9994 -0.0329 0.0114
vn 0.3437 -0.8351 0.4295
vn 0.7288 -0.5788 0.3658
vn 0.2434 -0.8468 0.4729
vn 0.9186 -0.3199 0.2321
vn 0.9403 0.2681 -0.2096
vn 0.9948 0.0834 -0.0588
vn 0.9822 -0.1477 0.1164
vn 0.7578 0.4367 -0.4848
vn 0.6316 -0.6229 0.4616
vn 0.1828 0.6048 -0.7751
vn -0.0214 -0.7123 0.7015
vn -0.6587 0.7524 -0.0083
vn -0.962 0.2731 0.004
vn -0.9173 0.3982 -0.0063
vn 0.9753 0.2208 -0.0034
vn -0.9983 0.0579 0.0028
vn 0.8889 0.4579 -0.0165
vn 0.8924 0.4512 -0.0002
vn 0.7567 0.6538 -0.0026
vn 0.6858 0.7277 -0.0093
vn 0.5059 0.8626 0.0036
vn 0.2734 0.9619 -0.0071
vn 0.067 0.9977 0.0051
vn -0.3442 0.9389 -0.005
vn -0.3913 0.9203 -0.0008
vn -0.7696 0.6385 0.0019
vn -0.4767 -0.6996 -0.5323
vn -0.6104 0.4984 0.6156
vn -0.4083 0.6089 0.6801
vn -0.9314 0.2422 0.2719
vn -0.1027 -0.8049 -0.5844
vn -0.9996 -0.0193 -0.0193
vn -0.9035 0.2226 0.3662
vn -0.7977 0.3789 0.4691
vn -0.9425 -0.2402 -0.2323
vn -0.2194 0.551 0.8051
vn -0.7889 -0.4234 -0.4453
vn -0.7815 -0.4276 -0.4544
vn -0.3703 0.909 0.1915
vn -0.5005 0.4098 0.7626
vn -0.986 -0.1009 -0.133
vn -0.9891 0.1059 0.1028
vn -0.1223 0.4167 0.9008
vn 0.1451 0.9797 0.1385
vn -0.4653 -0.6406 -0.6108
vn -0.3552 0.9175 0.1791
vn -0.3018 -0.6537 -0.6939
vn -0.0668 -0.7202 -0.6906
vn -0.4533 0.878 0.1541
vn -0.84 0.5288 0.121
vn -0.2747 0.9321 0.2359
vn -0.7583 -0.41 -0.5068
vn -0.5504 0.4202 0.7215
vn -0.6382 0.3395 0.691
vn -0.3141 -0.6133 -0.7247
vn -0.5707 -0.4726 -0.6715
vn -0.6601 0.7272 0.1881
vn -0.8677 0.2034 0.4535
vn -0.9882 0.0923 0.1223
vn -0.1074 -0.5723 -0.813
vn -0.8246 -0.5622 -0.0625
vn -0.1739 0.9269 0.3326
vn -0.9809 -0.1917 -0.0318
vn -0.9837 -0.1766 -0.0331
vn -0.9488 -0.1555 -0.2751
vn -0.2645 0.2826 0.9221
vn -0.8795 -0.2447 -0.4082
vn -0.803 0.2102 0.5577
vn -0.5516 -0.4347 -0.7119
vn -0.4103 0.8443 0.3448
vn -0.914 -0.3981 -0.0777
vn -0.4559 0.3033 0.8367
vn -0.8145 0.5628 0.1405
vn -0.7709 -0.2887 -0.5677
vn -0.6539 -0.7418 -0.1489
vn -0.6266 0.2067 0.7514
vn -0.9527 0.2895 0.0927
vn -0.6504 -0.3532 -0.6725
vn -0.4663 -0.8706 -0.1568
vn -0.9951 0.098 0.0108
vn -0.9937 0.048 0.1014
vn -0.6631 0.7204 0.2033
vn -0.8165 0.1997 0.5416
vn -0.235 -0.47 -0.8508
vn -0.415 -0.893 -0.1743
vn -0.0179 -0.4776 -0.8784
vn -0.1117 -0.4909 -0.864
vn 0.0061 0.8712 0.4909
vn -0.7338 -0.6521 -0.1906
vn -0.1963 -0.9607 -0.1961
vn -0.8368 -0.5225 -0.1639
vn -0.9517 -0.1131 -0.2855
vn -0.4325 0.7984 0.419
vn -0.4623 0.1391 0.8758
vn -0.4327 0.1614 0.887
vn -0.0731 0.8023 0.5924
vn -0.4671 0.7768 0.4224
vn -0.9951 0.0883 0.0452
vn -0.8471 -0.1671 -0.5045
vn -0.8422 0.4818 0.2419
vn -0.8557 0.4596 0.2378
vn -0.9598 -0.2554 -0.1165
vn -0.8373 0.0813 0.5407
vn -0.0368 -0.9488 -0.3137
vn -0.8913 -0.4106 -0.1922
vn -0.4461 -0.3095 -0.8398
vn -0.1078 0.8119 0.5738
vn -0.3972 -0.3206 -0.8599
vn -0.5107 0.6674 0.542
vn -0.9206 0.0575 0.3862
vn 0.0008 -0.3582 -0.9336
vn -0.5241 -0.7861 -0.3275
vn -0.7716 -0.1507 -0.618
vn -0.9969 0.0189 0.0762
vn -0.9896 -0.0324 -0.1402
vn -0.4325 -0.8407 -0.3258
vn -0.7937 -0.1488 -0.5899
vn -0.8581 -0.4552 -0.2378
vn -0.1934 -0.912 -0.3618
vn -0.164 -0.3154 -0.9347
vn -0.5952 -0.2145 -0.7745
vn -0.9903 -0.1177 -0.0732
vn -0.2528 0.7159 0.6509
vn -0.852 0.0909 0.5155
vn -0.7476 -0.0939 -0.6575
vn -0.5593 -0.7335 -0.3863
vn -0.592 -0.7065 -0.3879
vn -0.965 0.2102 0.1567
vn -0.085 -0.188 -0.9785
vn -0.9996 -0.022 -0.0173
vn -0.4414 -0.1553 -0.8838
vn -0.4345 0.6834 0.5867
vn -0.9607 -0.028 -0.2763
vn -0.0994 -0.1766 -0.9793
vn -0.0685 -0.8739 -0.4813
vn -0.0679 -0.8738 -0.4815
vn -0.7692 0.4853 0.4157
vn -0.8208 0.4223 0.3846
vn -0.0612 -0.1429 -0.9878
vn -0.5666 -0.0736 -0.8207
vn -0.8702 -0.4037 -0.2826
vn -0.7864 -0.4869 -0.3802
vn -0.9469 -0.2505 -0.2014
vn -0.145 0.6232 0.7685
vn -0.0112 -0.8296 -0.5582
vn -0.5537 -0.6795 -0.4813
vn -0.8854 -0.0187 0.4645
vn -0.9882 0.0208 0.1517
vn -0.9973 0.0086 0.0727
vn 0.9471 0.0074 0.3208
vn 0.9392 0.004 0.3434
vn 0.7495 0.0005 0.662
vn 0.5483 0.0283 0.8358
vn 0.2535 -0.0039 0.9673
vn 0.0462 -0.0136 0.9988
vn -0.3936 0.0297 0.9188
vn -0.4501 0.0165 0.8928
vn 0 1 -0
vn 0.5013 -0.4544 0.7364
vn -0.0197 0.9792 0.2018
vn -0.0177 0.9792 0.202
vn -0.02 0.9792 0.2018
vn -0.019 0.9794 0.2012
vn 0.9968 0.0489 -0.064
vn -0.0199 0.9792 0.2018
vn -0.9905 0.0755 -0.115
vn -0.0195 0.9792 0.2018
vn -0.0193 0.9794 0.2011
vn -0.0195 0.9792 0.202
vn -0.02 0.9792 0.2021
vn -0.0193 0.9794 0.2008
vn 0.0748 0.9972 0.0039
vn -0.0195 0.9793 0.2016
vn -0.0189 0.9792 0.2018
vn -0.0195 0.9792 0.2021
vn 0.9586 0.2051 -0.1976
vn -0.0193 0.9792 0.2017
vn -0.0159 0.978 0.2079
vn -0.0196 0.9794 0.2008
vn -0.019 0.9793 0.2018
vn 0.6932 -0.4906 0.528
vn -0.9415 -0.2417 0.2348
vn -0.7354 0.4111 -0.5386
vn -0.3433 0.5673 -0.7485
vn -0.9123 -0.281 0.2979
vn 0.4437 0.5911 -0.6736
vn 0.848 -0.3517 0.3965
vn 0.2688 -0.5822 0.7673
vn 0.7577 0.4368 -0.4849
vn 0.1828 0.6045 -0.7754
vn 0.9968 0.0489 -0.0639
vn -0.9905 0.0753 -0.1148
f 1//1 2//1 3//1
f 4//2 5//2 6//2
f 7//3 8//3 9//3
f 10//4 11//4 12//4
f 13//5 8//5 7//5
f 14//6 5//6 4//6
f 10//7 15//7 11//7
f 10//8 12//8 16//8
f 7//9 17//9 18//9
f 7//10 18//10 19//10
f 2//11 10//11 16//11
f 20//12 13//12 7//12
f 21//13 22//13 23//13
f 24//14 25//14 26//14
f 2//15 16//15 3//15
f 1//16 10//16 2//16
f 27//17 19//17 14//17
f 1//18 15//18 10//18
f 28//19 20//19 7//19
f 29//20 24//20 26//20
f 27//21 7//21 19//21
f 30//22 24//22 29//22
f 28//23 7//23 27//23
f 31//24 30//24 29//24
f 32//25 15//25 1//25
f 33//26 14//26 4//26
f 32//27 4//27 15//27
f 34//28 30//28 31//28
f 35//29 34//29 36//29
f 37//30 20//30 28//30
f 37//31 38//31 20//31
f 29//32 26//32 39//32
f 33//33 4//33 32//33
f 40//34 14//34 33//34
f 36//35 34//35 31//35
f 41//36 3//36 42//36
f 37//37 43//37 38//37
f 41//38 1//38 3//38
f 27//39 14//39 40//39
f 21//40 44//40 35//40
f 45//41 28//41 27//41
f 46//42 44//42 23//42
f 23//43 44//43 21//43
f 47//44 48//44 46//44
f 45//45 37//45 28//45
f 49//46 1//46 41//46
f 49//47 32//47 1//47
f 50//48 46//48 23//48
f 43//49 37//49 45//49
f 51//50 32//50 49//50
f 52//51 29//51 39//51
f 21//52 35//52 53//52
f 54//53 41//53 42//53
f 53//54 35//54 36//54
f 52//55 31//55 29//55
f 51//56 33//56 32//56
f 55//57 27//57 40//57
f 56//58 31//58 52//58
f 57//59 46//59 50//59
f 55//60 45//60 27//60
f 56//61 36//61 31//61
f 47//62 46//62 57//62
f 58//63 40//63 33//63
f 59//64 55//64 40//64
f 43//65 45//65 55//65
f 60//66 53//66 36//66
f 57//67 61//67 47//67
f 22//68 50//68 23//68
f 62//69 49//69 41//69
f 22//70 21//70 53//70
f 63//71 56//71 52//71
f 59//72 40//72 58//72
f 64//73 41//73 54//73
f 60//74 36//74 56//74
f 62//75 41//75 64//75
f 65//76 51//76 49//76
f 65//77 49//77 62//77
f 64//78 54//78 66//78
f 63//79 52//79 67//79
f 68//80 55//80 59//80
f 5//81 60//81 56//81
f 9//82 50//82 22//82
f 57//83 8//83 61//83
f 69//84 58//84 33//84
f 69//85 33//85 51//85
f 69//86 51//86 65//86
f 70//87 55//87 68//87
f 6//88 56//88 63//88
f 11//89 63//89 67//89
f 9//90 57//90 50//90
f 59//91 58//91 71//91
f 70//92 43//92 55//92
f 70//93 72//93 43//93
f 8//94 57//94 9//94
f 17//95 22//95 18//95
f 19//96 22//96 53//96
f 5//97 56//97 6//97
f 18//98 22//98 19//98
f 6//99 63//99 11//99
f 9//100 22//100 17//100
f 68//101 59//101 71//101
f 14//102 53//102 60//102
f 73//103 70//103 68//103
f 11//104 67//104 12//104
f 71//105 58//105 69//105
f 73//106 72//106 70//106
f 19//107 53//107 14//107
f 73//108 74//108 72//108
f 14//109 60//109 5//109
f 15//110 6//110 11//110
f 7//111 9//111 17//111
f 4//112 6//112 15//112
f 75//113 76//113 77//113
f 78//114 79//114 80//114
f 81//115 82//115 83//115
f 78//116 84//116 79//116
f 78//117 80//117 85//117
f 86//118 87//118 88//118
f 86//119 81//119 87//119
f 89//120 90//120 91//120
f 92//121 75//121 77//121
f 93//122 81//122 86//122
f 93//123 82//123 81//123
f 94//124 95//124 96//124
f 97//125 98//125 99//125
f 100//126 101//126 102//126
f 103//127 84//127 78//127
f 104//128 97//128 99//128
f 104//129 102//129 97//129
f 105//130 106//130 107//130
f 100//131 102//131 104//131
f 86//132 105//132 108//132
f 109//133 110//133 101//133
f 109//134 101//134 100//134
f 111//135 86//135 108//135
f 112//136 84//136 103//136
f 109//137 100//137 104//137
f 112//138 113//138 84//138
f 114//139 86//139 111//139
f 114//140 115//140 93//140
f 116//141 106//141 117//141
f 118//142 104//142 99//142
f 116//143 107//143 106//143
f 119//144 109//144 104//144
f 85//145 120//145 78//145
f 121//146 118//146 122//146
f 94//147 123//147 110//147
f 124//148 125//148 96//148
f 126//149 109//149 119//149
f 126//150 110//150 109//150
f 121//151 104//151 118//151
f 127//152 125//152 124//152
f 96//153 123//153 94//153
f 94//154 110//154 126//154
f 128//155 104//155 121//155
f 127//156 129//156 125//156
f 128//157 119//157 104//157
f 95//158 124//158 96//158
f 130//159 121//159 122//159
f 131//160 126//160 119//160
f 132//161 121//161 130//161
f 133//162 94//162 126//162
f 132//163 128//163 121//163
f 131//164 119//164 128//164
f 132//165 130//165 134//165
f 135//166 136//166 127//166
f 135//167 127//167 124//167
f 83//168 124//168 95//168
f 137//169 128//169 132//169
f 79//170 132//170 134//170
f 87//171 94//171 133//171
f 87//172 95//172 94//172
f 131//173 128//173 137//173
f 137//174 132//174 79//174
f 83//175 135//175 124//175
f 81//176 95//176 87//176
f 81//177 83//177 95//177
f 79//178 134//178 80//178
f 106//179 126//179 75//179
f 106//180 133//180 126//180
f 75//181 131//181 137//181
f 75//182 126//182 131//182
f 87//183 133//183 88//183
f 84//184 137//184 79//184
f 88//185 133//185 106//185
f 76//186 84//186 113//186
f 65//187 138//187 139//187
f 69//188 65//188 139//188
f 140//189 141//189 142//189
f 143//190 142//190 144//190
f 143//191 140//191 142//191
f 145//192 143//192 144//192
f 145//193 144//193 146//193
f 66//194 145//194 146//194
f 64//195 66//195 146//195
f 62//196 146//196 138//196
f 62//197 64//197 146//197
f 65//198 62//198 138//198
f 147//199 30//199 34//199
f 148//200 147//200 34//200
f 148//201 34//201 35//201
f 110//202 149//202 150//202
f 101//203 110//203 150//203
f 151//204 148//204 35//204
f 101//205 150//205 152//205
f 102//206 101//206 152//206
f 102//207 152//207 25//207
f 97//208 102//208 25//208
f 97//209 25//209 24//209
f 98//210 97//210 24//210
f 98//211 24//211 30//211
f 147//212 98//212 30//212
f 153//213 154//213 155//213
f 156//214 130//214 157//214
f 156//215 157//215 158//215
f 159//216 154//216 153//216
f 156//217 134//217 130//217
f 160//218 161//218 159//218
f 90//219 162//219 91//219
f 163//220 129//220 127//220
f 164//221 165//221 166//221
f 89//222 167//222 90//222
f 168//223 167//223 89//223
f 136//224 163//224 127//224
f 169//225 163//225 170//225
f 170//226 163//226 136//226
f 171//227 158//227 172//227
f 108//228 107//228 153//228
f 173//229 169//229 170//229
f 80//230 156//230 158//230
f 80//231 158//231 171//231
f 160//232 153//232 107//232
f 174//233 169//233 173//233
f 76//232 113//232 175//232
f 175//234 91//234 162//234
f 176//235 162//235 177//235
f 120//236 171//236 178//236
f 175//237 162//237 176//237
f 120//238 85//238 80//238
f 179//239 171//239 180//239
f 181//240 170//240 136//240
f 181//241 136//241 135//241
f 182//242 174//242 173//242
f 183//243 147//243 148//243
f 181//244 173//244 170//244
f 182//245 184//245 174//245
f 112//228 91//228 113//228
f 185//246 147//246 183//246
f 185//247 98//247 147//247
f 186//248 183//248 148//248
f 151//249 184//249 182//249
f 187//250 173//250 181//250
f 186//251 148//251 151//251
f 188//252 182//252 173//252
f 188//253 173//253 187//253
f 82//254 135//254 83//254
f 99//255 98//255 185//255
f 189//256 182//256 188//256
f 82//257 181//257 135//257
f 190//258 183//258 186//258
f 189//259 151//259 182//259
f 187//260 181//260 82//260
f 191//261 185//261 183//261
f 191//262 183//262 190//262
f 192//263 151//263 189//263
f 192//264 186//264 151//264
f 122//265 185//265 191//265
f 122//266 118//266 99//266
f 122//267 99//267 185//267
f 190//268 186//268 192//268
f 161//269 187//269 82//269
f 188//270 187//270 161//270
f 154//271 82//271 93//271
f 157//272 191//272 190//272
f 193//273 188//273 161//273
f 161//274 82//274 154//274
f 172//275 190//275 192//275
f 193//276 189//276 188//276
f 192//277 189//277 162//277
f 157//278 122//278 191//278
f 157//279 190//279 172//279
f 130//280 122//280 157//280
f 167//281 172//281 192//281
f 165//282 189//282 193//282
f 162//283 189//283 165//283
f 167//284 192//284 162//284
f 114//232 108//232 153//232
f 193//285 160//285 194//285
f 158//286 157//286 172//286
f 154//287 115//287 155//287
f 156//288 80//288 134//288
f 96//289 125//289 195//289
f 96//290 195//290 149//290
f 123//291 96//291 149//291
f 184//292 35//292 44//292
f 110//293 123//293 149//293
f 184//294 151//294 35//294
f 174//295 184//295 44//295
f 169//296 44//296 46//296
f 169//297 174//297 44//297
f 163//298 169//298 46//298
f 163//299 46//299 48//299
f 129//300 163//300 48//300
f 129//301 48//301 196//301
f 125//302 129//302 196//302
f 125//303 196//303 195//303
f 197//304 198//304 199//304
f 200//305 201//305 202//305
f 200//306 202//306 38//306
f 203//307 204//307 205//307
f 197//308 67//308 198//308
f 206//309 204//309 203//309
f 207//310 205//310 201//310
f 207//311 201//311 200//311
f 208//312 209//312 206//312
f 210//313 38//313 43//313
f 208//314 199//314 209//314
f 211//315 199//315 208//315
f 212//316 196//316 48//316
f 210//317 200//317 38//317
f 208//318 206//318 203//318
f 204//319 213//319 205//319
f 210//320 43//320 214//320
f 61//321 48//321 47//321
f 211//322 197//322 199//322
f 212//323 48//323 61//323
f 12//324 197//324 211//324
f 12//325 67//325 197//325
f 215//326 196//326 212//326
f 195//327 196//327 215//327
f 216//328 212//328 61//328
f 217//329 211//329 208//329
f 218//330 200//330 210//330
f 218//331 210//331 214//331
f 12//332 211//332 219//332
f 219//333 211//333 217//333
f 215//334 212//334 216//334
f 218//335 207//335 200//335
f 203//336 205//336 207//336
f 219//337 16//337 12//337
f 152//338 150//338 220//338
f 221//339 61//339 8//339
f 222//340 149//340 223//340
f 222//341 150//341 149//341
f 224//342 208//342 203//342
f 72//343 214//343 43//343
f 224//344 217//344 208//344
f 225//345 207//345 218//345
f 226//346 219//346 217//346
f 216//347 61//347 221//347
f 220//348 150//348 222//348
f 227//349 214//349 72//349
f 228//350 195//350 215//350
f 229//351 217//351 224//351
f 230//352 152//352 220//352
f 227//353 218//353 214//353
f 228//354 149//354 195//354
f 226//355 217//355 229//355
f 25//356 152//356 230//356
f 223//357 149//357 228//357
f 203//358 207//358 225//358
f 215//359 216//359 221//359
f 225//360 218//360 227//360
f 231//361 219//361 226//361
f 232//362 25//362 230//362
f 231//363 3//363 16//363
f 231//364 16//364 219//364
f 233//365 221//365 8//365
f 230//366 220//366 234//366
f 26//367 25//367 232//367
f 222//368 234//368 220//368
f 235//369 224//369 203//369
f 236//370 221//370 233//370
f 237//371 72//371 74//371
f 237//372 227//372 72//372
f 233//373 8//373 13//373
f 236//374 215//374 221//374
f 223//375 228//375 213//375
f 229//376 224//376 235//376
f 213//377 215//377 236//377
f 213//378 228//378 215//378
f 238//379 222//379 223//379
f 225//380 227//380 237//380
f 232//381 39//381 26//381
f 234//382 222//382 238//382
f 239//383 226//383 229//383
f 202//384 233//384 13//384
f 231//385 226//385 239//385
f 202//386 236//386 233//386
f 240//387 203//387 225//387
f 231//388 42//388 3//388
f 241//389 230//389 234//389
f 140//390 229//390 235//390
f 141//391 203//391 240//391
f 235//392 203//392 141//392
f 241//393 232//393 230//393
f 242//394 229//394 140//394
f 243//395 234//395 238//395
f 241//396 39//396 232//396
f 42//397 231//397 239//397
f 239//398 229//398 242//398
f 238//399 223//399 206//399
f 202//400 13//400 20//400
f 240//401 225//401 237//401
f 143//402 242//402 140//402
f 198//403 234//403 243//403
f 198//404 241//404 234//404
f 204//405 223//405 213//405
f 239//406 54//406 42//406
f 204//407 206//407 223//407
f 145//408 239//408 242//408
f 201//409 236//409 202//409
f 140//410 235//410 141//410
f 145//411 54//411 239//411
f 198//412 52//412 39//412
f 198//413 39//413 241//413
f 205//414 236//414 201//414
f 205//415 213//415 236//415
f 145//416 66//416 54//416
f 145//417 242//417 143//417
f 209//418 243//418 238//418
f 199//419 243//419 209//419
f 209//420 238//420 206//420
f 38//421 202//421 20//421
f 198//422 67//422 52//422
f 199//423 198//423 243//423
f 240//424 237//424 244//424
f 240//425 244//425 142//425
f 141//426 240//426 142//426
f 69//427 139//427 245//427
f 71//428 69//428 245//428
f 68//429 71//429 245//429
f 68//430 245//430 246//430
f 73//431 68//431 246//431
f 74//432 73//432 246//432
f 74//433 246//433 244//433
f 237//434 74//434 244//434
f 138//435 146//435 144//435
f 138//435 142//435 139//435
f 138//435 144//435 142//435
f 245//435 244//435 246//435
f 139//435 244//435 245//435
f 139//435 142//435 244//435
f 178//436 171//436 179//436
f 175//437 164//437 166//437
f 175//438 176//438 177//438
f 175//439 177//439 164//439
f 103//232 120//232 178//232
f 155//440 115//440 114//440
f 162//441 164//441 177//441
f 117//442 92//442 77//442
f 106//443 92//443 117//443
f 108//444 105//444 107//444
f 77//445 76//445 175//445
f 180//446 168//446 89//446
f 112//445 103//445 178//445
f 166//447 194//447 160//447
f 153//448 155//448 114//448
f 103//449 78//449 120//449
f 160//232 107//232 166//232
f 178//450 180//450 89//450
f 107//451 117//451 77//451
f 160//452 159//452 153//452
f 165//453 194//453 166//453
f 113//232 91//232 175//232
f 77//232 175//232 107//232
f 89//454 91//454 112//454
f 178//455 179//455 180//455
f 175//232 166//232 107//232
f 178//232 89//232 112//232
f 114//456 111//456 108//456
f 107//457 116//457 117//457
f 171//458 168//458 180//458
f 75//459 137//459 76//459
f 105//130 88//130 106//130
f 86//460 88//460 105//460
f 114//461 93//461 86//461
f 76//462 137//462 84//462
f 159//463 161//463 154//463
f 90//219 167//219 162//219
f 168//464 172//464 167//464
f 120//465 80//465 171//465
f 193//466 161//466 160//466
f 154//467 93//467 115//467
f 162//468 165//468 164//468
f 106//469 75//469 92//469
f 165//453 193//453 194//453
f 171//458 172//458 168//458