o obj1
v 0.020178 0.015848 7.2E-05
v 0.019167 0.014783 0
v 0.018875 0.014902 0.0002
v 0.017817 0.020697 0.000204
v 0.018387 0.020868 1E-06
v 0.01912 0.020334 0.000201
v 0.017393 0.014587 6E-05
v 0.020063 0.019645 7.7E-05
v 0.020957 0.018038 2E-06
v 0.020653 0.018215 0.0002
v 0.020592 0.016875 0.0002
v -0.006113 0.014557 -0.001515
v -0.001612 0.015745 -0.001505
v -0.002629 0.014553 -0.0025
v -0.007183 0.012948 -0.0025
v -0.009606 0.012529 -0.00149
v -0.01021 0.010676 -0.0025
v -0.012402 0.00977 -0.001489
v -0.012848 0.007397 -0.0025
v -0.014215 0.006838 -0.001509
v -0.015388 0.003536 -0.0015
v -0.014513 0.002915 -0.0025
v -0.015773 -7.7E-05 -0.0015
v -0.014758 -0.000813 -0.0025
v -0.015359 -0.003655 -0.0015
v -0.013802 -0.005392 -0.0025
v -0.013599 -0.008097 -0.001493
v -0.011362 -0.009479 -0.0025
v -0.01067 -0.011636 -0.001491
v -0.007585 -0.012745 -0.0025
v -0.007468 -0.01391 -0.001489
v -0.003531 -0.015407 -0.001505
v -0.002376 -0.014616 -0.0025
v 5.5E-05 -0.015762 -0.001497
v 0.001753 0.014722 -0.002501
v 0.002115 -0.014669 -0.0025
v -0.004697 0.031247 0.001
v 0.002156 0.031458 0.001
v 0 0.030635 0
v -0.009214 0.029179 0
v -0.012368 0.029044 0.001
v -0.015738 0.026176 0
v -0.016356 0.026984 0.001001
v -0.019837 0.0232 0
v -0.021095 0.023426 0.001
v -0.024413 0.018453 0
v -0.02421 0.020191 0.001
v -0.026834 0.016546 0.001
v -0.028646 0.010769 0
v -0.028912 0.012564 0.001
v -0.030404 0.008328 0.001
v -0.030524 0.002199 0
v -0.031279 0.003923 0.001
v -0.03152 -0.000562 0.001
v -0.029893 -0.006551 0
v -0.03112 -0.005035 0.001
v -0.030088 -0.009407 0.001
v -0.026806 -0.014764 0
v -0.028446 -0.013587 0.001
v -0.026227 -0.017491 0.001
v -0.021515 -0.021762 0
v -0.023475 -0.021041 0.001
v -0.019794 -0.024558 0.001001
v -0.015738 -0.026176 0
v -0.016038 -0.027187 0.001005
v -0.009214 -0.029179 0
v -0.008954 -0.030303 0.001
v -0.00215 -0.030467 0
v -0.002155 -0.031458 0.001
v 0.020115 0.015889 0.0065
v 0.018797 0.014836 0.0065
v 0.017389 0.020701 0.0065
v 0.018879 0.020452 0.0065
v 0.020084 0.019531 0.0065
v 0.016611 0.014794 0.0065
v 0.020752 0.017623 0.0065
v -0.005659 0.014724 0
v -0.001451 0.015761 0
v -0.008796 0.013111 0
v -0.012296 0.009966 0
v -0.015109 0.004793 0
v -0.015786 -0.000275 0
v -0.015042 -0.004922 0
v -0.012887 -0.00912 0
v -0.01052 -0.011753 0
v -0.006979 -0.014206 0
v -0.002848 -0.015514 0
v 0.001452 -0.015761 0
v -0.025913 -0.005457 0.0075
v -0.023672 -0.005378 0.0075
v -0.024053 -0.005505 0.004
v -0.019443 7.3E-05 0.004
v -0.020022 0.00243 0.0075
v -0.020086 0.002557 0.004
v -0.019443 -7.3E-05 0.0075
v -0.021575 -0.004354 0.0075
v -0.021465 -0.004265 0.004
v -0.021465 0.004265 0.0075
v -0.021575 0.004354 0.004
v -0.020086 -0.002557 0.0075
v -0.020022 -0.00243 0.004
v -0.023108 0.005178 0.0075
v -0.023672 0.005378 0.004
v -0.024918 0.005538 0.0075
v -0.026696 0.005338 0.004
v 0.03055 -0.000479 0.007495
v 0.029797 0.00289 0.0075
v 0.030582 0.000471 0.004
v 0.029069 0.00385 0.004
v 0.024919 -0.005538 0.0075
v 0.026959 -0.005165 0.0075
v 0.026697 -0.005338 0.004
v 0.029251 -0.003646 0.0075
v 0.029657 -0.003114 0.004
v 0.027788 0.004768 0.0075
v 0.02616 0.00544 0.004
v 0.025914 0.005457 0.0075
v 0.028219 0.000834 0
v 0.028189 0.000945 0.004
v 0.0269 0.002704 0
v 0.026809 0.002766 0.004
v 0.024516 -0.003313 0
v 0.025831 -0.003199 0.004
v 0.0269 -0.002704 0
v 0.024516 0.003313 0
v 0.024401 0.003295 0.004
v 0.027471 -0.002169 0.004
v 0.028049 -0.001215 0
v 0.028146 -0.000874 0.004
v -0.021926 0.001167 0
v -0.022503 0.002196 0.004
v -0.023099 0.002704 0
v -0.026007 -0.003169 0
v -0.024294 -0.003206 0.004
v -0.024075 -0.00314 0
v -0.024697 0.003311 0.004
v -0.024772 0.003265 0
v -0.022919 -0.002527 0.004
v -0.022471 -0.002148 0
v -0.021941 -0.001219 0.004
v -0.021751 -0.000404 0
v -0.021751 0.000404 0.004
v 0.016061 0.027196 0.001004
v 0.017519 0.02619 0.006611
v 0.020726 0.023754 0.0065
v 0.021096 0.023426 0.001
v 0.023884 0.020576 0.0065
v 0.024211 0.020191 0.001
v 0.026559 0.016983 0.0065
v 0.026834 0.016546 0.001
v 0.028699 0.013047 0.0065
v 0.028913 0.012564 0.001
v 0.030258 0.008847 0.0065
v 0.030405 0.008328 0.001
v 0.031207 0.004469 0.0065
v 0.03128 0.003923 0.001
v 0.031525 0 0.0065
v 0.03152 -0.000562 0.001
v 0.031207 -0.004469 0.0065
v 0.03112 -0.005035 0.001
v 0.030258 -0.008847 0.0065
v 0.030089 -0.009407 0.001
v 0.028699 -0.013047 0.0065
v 0.028447 -0.013587 0.001
v 0.026559 -0.016983 0.0065
v 0.026228 -0.017491 0.001
v 0.023884 -0.020576 0.0065
v 0.023475 -0.021041 0.001
v 0.020726 -0.023754 0.0065
v 0.019796 -0.024556 0.001001
v 0.017521 -0.026186 0.006621
v 0.016317 -0.026981 0.001005
v 0.015303 0.015388 2E-06
v 0.010521 0.011753 0
v 0.014399 0.018038 2E-06
v 0.022659 -0.002287 0
v 0.01574 -0.001452 0
v 0.021767 -0.000712 0
v 0.030584 -0.0011 0
v 0.029639 0.007622 0
v 0.00698 0.014206 0
v 0.005005 -0.030187 0
v 0.015858 0.020428 2E-06
v 0.02072 0.022522 0
v 0.022161 0.001776 0
v 0.015528 0.002858 0
v 0.01905 -0.02395 0
v 0.010354 -0.0119 0
v 0.025061 -0.017564 0
v 0.015258 0.026441 0
v 0.002849 0.015514 0
v 0.009215 0.029179 0
v -0.027725 -0.001848 0
v 0.013066 -0.008908 0
v 0.014492 0.00623 0
v 0.029015 -0.009732 0
v 0.006755 -0.014314 0
v -0.028259 -0.000304 0
v 0.012391 -0.027936 0
v 0.026259 0.015718 0
v -0.02791 0.001608 0
v 0.014861 -0.00529 0
v 0.012816 0.009214 0
v -0.026331 0.003006 0
v -0.026225 -0.003076 0.004
v -0.027716 -0.001842 0.004
v -0.027057 0.002612 0.004
v -0.028334 0.000304 0.004
v 0.0239 -0.003098 0.004
v 0.02259 -0.002214 0.004
v 0.022101 0.001676 0.004
v 0.021779 -0.000709 0.004
v 0.007414 0.032005 0.001
v 0.012529 0.054511 0.001058
v 0.012673 0.032552 0.001
v 0.00727 0.053964 0.001058
v -0.007269 -0.053965 0.001058
v 0.005091 -0.053966 0.001059
v -0.012528 -0.054512 0.001058
v -0.007413 -0.032005 0.001
v -0.014843 0.028432 0.007539
v -0.012616 0.032965 0.0075
v -0.013779 0.029929 0.0075
v 0.01378 -0.029929 0.0075
v 0.014844 -0.028432 0.007539
v 0.012617 -0.032965 0.0075
v 0.01378 0.029929 0.0075
v 0.012599 0.033029 0.0075
v 0.01485 0.028425 0.00755
v -0.012599 -0.033029 0.0075
v -0.014839 -0.028437 0.007532
v -0.013779 -0.029929 0.0075
v 0.026545 -0.015228 0.0075
v 0.029773 -0.00708 0.0075
v 0.022879 -0.005101 0.0075
v 0.020938 -0.003792 0.0075
v 0.021886 -0.021325 0.0075
v 0.017334 -0.025241 0.00756
v 0.019684 -0.001554 0.0075
v 0.017622 0.024964 0.00752
v 0.019502 0.000535 0.0075
v 0.020087 0.002557 0.0075
v 0.030204 0.004925 0.0075
v 0.02757 0.013283 0.0075
v 0.023902 0.005414 0.0075
v 0.021755 0.004511 0.0075
v 0.022674 0.020553 0.0075
v -0.017612 -0.026145 0.00657
v -0.021557 -0.023002 0.0065
v -0.0246 -0.019714 0.0065
v -0.027146 -0.016028 0.0065
v -0.029144 -0.012018 0.0065
v -0.030553 -0.007766 0.0065
v -0.031345 -0.003356 0.0065
v -0.031505 0.001121 0.0065
v -0.031027 0.005575 0.0065
v -0.029924 0.009917 0.0065
v -0.028216 0.014059 0.0065
v -0.025938 0.017917 0.0065
v -0.021995 0.022659 0.006501
v -0.016899 0.026596 0.00676
v -0.021885 0.021325 0.0075
v -0.017342 0.025245 0.007557
v -0.026545 0.015228 0.0075
v -0.029772 0.00708 0.0075
v -0.026958 0.005165 0.0075
v -0.02925 0.003646 0.0075
v -0.030549 0.000479 0.007495
v -0.030204 -0.004925 0.0075
v -0.029796 -0.00289 0.0075
v -0.027787 -0.004768 0.0075
v -0.027569 -0.013283 0.0075
v -0.022673 -0.020553 0.0075
v -0.017615 -0.024968 0.007522
v -0.014026 0.029412 0.001
v -0.012578 0.033225 0.001
v 0.008955 0.030303 0.001
v -0.00509 0.053967 0.001059
v -0.012456 0.05485 0.001059
v -0.005211 0.032342 0.001
v 0.014213 0.029234 0.001
v -0.014212 -0.029234 0.001
v 0.004698 -0.031247 0.001
v 0.005212 -0.032342 0.001
v 0.014027 -0.029412 0.001
v 0.012369 -0.029044 0.001
v -0.012672 -0.032552 0.001
v 0.012579 -0.033225 0.001
v 0.020661 0.003418 0.004
v 0.022047 0.004669 0.004
v 0.023902 -0.005414 0.004
v 0.021755 -0.004511 0.004
v 0.020087 -0.002557 0.004
v 0.019502 -0.000535 0.004
v 0.023772 0.005386 0.004
v 0.019684 0.001554 0.004
v -0.029656 0.003114 0.004
v -0.026667 -0.005266 0.004
v -0.029068 -0.00385 0.004
v -0.030582 -0.000471 0.004
v 0.003647 -0.01538 -0.001505
v 0.007234 -0.014017 -0.001492
v 0.009883 -0.012295 -0.001493
v 0.01235 -0.009829 -0.001496
v 0.014142 -0.006988 -0.001502
v 0.01536 -0.003655 -0.0015
v 0.015786 0.000836 -0.001519
v 0.014996 0.00494 -0.001489
v 0.013073 0.008897 -0.001486
v 0.010392 0.011867 -0.001493
v 0.007472 0.013909 -0.001491
v 0.00354 0.015405 -0.001506
v 0.014514 0.002915 -0.0025
v 0.010211 0.010676 -0.0025
v 0.012848 0.007397 -0.0025
v 0.007183 0.012948 -0.0025
v 0.014759 -0.000813 -0.0025
v 0.013802 -0.005392 -0.0025
v 0.007586 -0.012745 -0.0025
v 0.011363 -0.00948 -0.0025
v -0.016436 0.026056 0.007932
v -0.016066 -0.026435 0.008195
v -0.015862 0.026677 0.008392
v -0.01521 -0.027562 0.009367
v -0.015023 -0.027848 0.010115
v -0.015221 0.027524 0.009344
v -0.015528 -0.027109 0.008796
v -0.015029 0.027838 0.010027
v -0.016819 -0.02569 0.007737
v 0.016472 -0.02602 0.007911
v 0.016028 0.026492 0.008229
v 0.015853 -0.026693 0.008397
v 0.016683 0.025813 0.007787
v 0.01521 0.027562 0.009367
v 0.015023 0.027848 0.010115
v 0.015222 -0.027524 0.009342
v 0.015529 0.027109 0.008796
v 0.01503 -0.027838 0.010027
v -0.015531 0.02769 0.008022
v -0.015001 0.028255 0.009085
v -0.015953 -0.027281 0.007494
v -0.014991 -0.028244 0.009113
v 0.015872 -0.027348 0.007543
v 0.015001 -0.028255 0.009085
v 0.015954 0.027281 0.007494
v 0.014992 0.028244 0.009112
v 0.015397 0.019662 0.0002
v 0.016481 0.020453 0.0002
v 0.015406 0.019783 0.0065
v 0.016236 0.015021 0.000201
v 0.015228 0.015906 0.000201
v 0.01498 0.016247 0.0065
v 0.014703 0.01714 0.0002
v 0.014663 0.017895 0.0065
v 0.014764 0.01848 0.0002
v 0.012457 -0.054849 0.001059
vn -0.3879 0.423 -0.8189
vn -0.146 -0.5167 -0.8436
vn -0.1069 0.7787 -0.6183
vn -0.5896 -0.8076 0.0082
vn -0.6427 -0.3249 -0.6938
vn -0.5374 0.0243 -0.843
vn -0.9027 0.3296 0.2764
vn -0.1883 0.7188 -0.6692
vn -0.2149 0.61 -0.7627
vn -0.3844 0.6543 -0.6512
vn -0.402 0.5354 -0.7428
vn -0.5258 0.5324 -0.6633
vn -0.5168 0.4158 -0.7483
vn -0.6397 0.3998 -0.6565
vn -0.651 0.2418 -0.7195
vn -0.6303 0.2219 -0.7439
vn -0.7261 0.0777 -0.6832
vn -0.6841 0.0451 -0.728
vn -0.7295 -0.0845 -0.6787
vn -0.6362 -0.1329 -0.76
vn -0.7237 -0.2877 -0.6273
vn -0.5486 -0.3275 -0.7693
vn -0.591 -0.4895 -0.6411
vn -0.4253 -0.4919 -0.7597
vn -0.4359 -0.6143 -0.6577
vn -0.2228 -0.6203 -0.7521
vn -0.2496 -0.6487 -0.719
vn -0.0716 -0.7385 -0.6704
vn -0.0253 0.6531 -0.7569
vn -0.0079 -0.6679 -0.7442
vn -0.0246 0.7972 -0.6032
vn -0.0935 0.5915 -0.8009
vn -0.2219 0.7724 -0.5951
vn -0.2683 0.5827 -0.7671
vn -0.3244 0.6278 -0.7075
vn -0.412 0.5675 -0.7129
vn -0.4381 0.5837 -0.6837
vn -0.4931 0.4755 -0.7285
vn -0.4945 0.4761 -0.7271
vn -0.6183 0.445 -0.6478
vn -0.5607 0.3088 -0.7682
vn -0.6058 0.3164 -0.73
vn -0.7192 0.2533 -0.6469
vn -0.6266 0.1373 -0.7671
vn -0.6672 0.1325 -0.733
vn -0.7619 0.0408 -0.6464
vn -0.641 -0.0462 -0.7661
vn -0.6744 -0.0603 -0.7359
vn -0.7431 -0.1753 -0.6458
vn -0.6029 -0.2266 -0.7649
vn -0.6273 -0.2465 -0.7388
vn -0.6643 -0.3776 -0.6451
vn -0.515 -0.3893 -0.7636
vn -0.5298 -0.4107 -0.742
vn -0.531 -0.5562 -0.6393
vn -0.3935 -0.5152 -0.7614
vn -0.4059 -0.5806 -0.7058
vn -0.29 -0.6298 -0.7206
vn -0.2962 -0.6723 -0.6784
vn -0.1231 -0.6755 -0.727
vn -0.1198 -0.7048 -0.6992
vn -0.6242 0.7812 -0.0111
vn -0.1649 -0.9863 -0.0107
vn -0.5877 0.8091 0.0012
vn -0.2682 -0.9633 0.0077
vn -0.6072 -0.7945 -0.0084
vn -0.2081 0.9781 0.0076
vn -0.019 0.9992 -0.0344
vn -0.5914 -0.8063 -0.0124
vn -0.9243 -0.3816 -0.0037
vn -0.9437 -0.3303 -0.0162
vn -0.9988 0.045 0.0199
vn -0.9385 0.3448 -0.0172
vn -0.9268 0.3754 -0.0115
vn -0.255 0.9665 -0.0295
vn -0.2393 0.9708 0.0157
vn -0.4567 0.8887 0.0396
vn -0.5014 0.8628 -0.0642
vn -0.6667 0.7418 0.073
vn -0.7018 0.711 -0.0435
vn -0.8505 0.5259 -0.0086
vn -0.8715 0.474 0.1257
vn -0.9372 0.3326 -0.1049
vn -0.9943 0.1062 0.0059
vn -0.9886 0.1319 0.0729
vn -0.9931 -0.115 -0.0234
vn -0.9847 -0.1575 0.0749
vn -0.9235 -0.3661 -0.1143
vn -0.8842 -0.4539 0.1103
vn -0.7686 -0.636 -0.0695
vn -0.7434 -0.6684 0.0227
vn -0.5694 -0.822 -0.0069
vn -0.5788 -0.815 0.0284
vn -0.3548 -0.9324 -0.0684
vn -0.3013 -0.951 0.069
vn -0.0983 -0.9908 0.0928
vn -0.0571 -0.9973 -0.0451
vn -0.0353 0.9988 -0.0325
vn -0.968 -0.2506 0.0086
vn -0.9742 -0.2254 -0.0094
vn -0.4387 0.8985 0.0149
vn -0.4323 0.9017 0.0093
vn -0.7699 -0.6381 0.008
vn -0.786 -0.6182 -0.008
vn -0.7699 0.6381 -0.008
vn -0.786 0.6182 0.008
vn -0.4859 -0.874 -0.0069
vn -0.4387 -0.8984 0.0195
vn -0.1948 -0.9805 -0.0245
vn -0.968 0.2506 -0.0086
vn -0.9742 0.2254 0.0094
vn 0.013 -0.9987 0.0503
vn -0.9737 -0.2175 -0.0682
vn -0.9099 -0.4075 0.0775
vn -0.1798 0.9831 -0.0353
vn -0.5523 0.8336 -0
vn -0.6 0.7983 0.0518
vn -0.6819 -0.7291 -0.0582
vn -0.479 -0.8761 0.0546
vn -0.3447 -0.9385 -0.0199
vn -0.9241 0.379 -0.0496
vn -0.9666 0.2495 0.0589
vn -0.8171 -0.5764 0.0096
vn -0.797 -0.6039 -0.0089
vn -0.2474 0.9674 0.0536
vn -0.2478 -0.9688 0.0094
vn -0.2144 -0.9767 -0.0108
vn -0.5315 0.8462 -0.0374
vn -0.7912 0.6107 0.0311
vn -0.8864 0.4626 -0.018
vn -0.9964 0.0825 0.0171
vn -0.9997 0.0231 -0.0083
vn -0.7942 -0.6062 0.0415
vn -0.0149 0.9998 0.0156
vn -0.4527 -0.8905 -0.0455
vn -0.3183 -0.9479 0.0169
vn -0.5257 0.8504 0.0216
vn -0.4426 0.8967 -0.0095
vn -0.8004 0.5986 -0.033
vn -0.9239 0.381 0.0339
vn -0.993 0.1157 -0.0234
vn -0.9936 -0.1106 0.0223
vn -0.9217 -0.3864 -0.0334
vn 0.6045 0.7965 -0.0142
vn 0.5993 0.8005 -0.0074
vn 0.7094 0.7048 0.0057
vn 0.7204 0.6935 -0.0057
vn 0.802 0.5973 0.0059
vn 0.8117 0.5841 -0.0059
vn 0.8786 0.4775 0.0059
vn 0.8864 0.4629 -0.006
vn 0.9374 0.3481 0.006
vn 0.9432 0.3322 -0.0061
vn 0.9773 0.2118 0.0062
vn 0.9808 0.1948 -0.0063
vn 0.9975 0.071 0.0062
vn 0.9986 0.0534 -0.0064
vn 0.9975 -0.071 0.0063
vn 0.996 -0.089 -0.0065
vn 0.9773 -0.2118 0.0064
vn 0.9733 -0.2296 -0.0065
vn 0.9374 -0.3481 0.0066
vn 0.9307 -0.3656 -0.0067
vn 0.8786 -0.4775 0.0067
vn 0.8694 -0.4941 -0.0068
vn 0.802 -0.5973 0.0068
vn 0.7903 -0.6127 -0.0069
vn 0.7094 -0.7048 0.0069
vn 0.6907 -0.723 -0.0114
vn 0.6047 -0.7963 0.0139
vn 0.5718 -0.8204 -0.0065
vn 0.0003 0 -1
vn 0 0 -1
vn 0.0001 0.0002 -1
vn -0.0002 -0.0003 -1
vn -0.0001 -0.0003 -1
vn 0.0002 -0.0001 -1
vn 0.0001 0 -1
vn 0.0002 -0 -1
vn -0.0101 0.0764 -0.997
vn -0.0001 -0 -1
vn -0.0124 -0.0275 -0.9995
vn -0.036 0.0197 -0.9992
vn 0.008 0.0045 -1
vn -0.0006 -0.0005 -1
vn 0.0245 -0.0096 -0.9997
vn -0.0938 -0.0054 -0.9956
vn 0.0002 0.0002 -1
vn 0.0223 -0.032 -0.9992
vn 0.6096 0.7926 0.0148
vn 0.6375 0.7704 -0.0025
vn 0.1642 -0.9864 0.0083
vn 0.2838 -0.9579 -0.0427
vn 0.6621 -0.748 0.0466
vn 0.0671 0.9976 -0.0195
vn 0.8731 -0.4831 -0.0649
vn 0.9828 -0.1791 0.0458
vn 0.9446 0.3266 -0.0318
vn 0.9609 0.2767 -0.0025
vn 0.4835 0.8749 0.0273
vn 0.5591 0.8291 -0.0055
vn 0.5466 -0.8373 0.0118
vn 0.5755 -0.8177 -0.0118
vn 0.0522 0.9976 -0.0458
vn 0.9876 -0.1567 0.0109
vn 0.991 -0.134 -0.0029
vn 0.8803 0.4744 -0.003
vn 0.8701 0.4928 0.0061
vn -0.0003 0.0026 -1
vn 0 -0.0026 -1
vn 0.0003 -0.0026 -1
vn -0.0796 0.0305 -0.9964
vn 0.0795 -0.0305 -0.9964
vn 0.0997 0.038 -0.9943
vn -0.0652 -0.0248 -0.9976
vn -0 0 1
vn 0.0126 0.0007 0.9999
vn 0.0039 0.0022 1
vn 0.0197 0.0007 0.9998
vn 0.0023 -0.0007 1
vn 0.0137 0.0012 0.9999
vn -0.0001 -0.0001 1
vn -0.0001 -0.0002 1
vn 0.0035 -0.0008 1
vn 0.0029 0.0005 1
vn 0.0038 -0.0002 1
vn 0.0009 -0.0008 1
vn -0 0.0001 1
vn -0.5735 -0.8191 -0.0088
vn -0.6232 -0.7818 0.0213
vn -0.6906 -0.723 -0.0169
vn -0.7339 -0.6791 0.0138
vn -0.7903 -0.6126 -0.0138
vn -0.8227 -0.5683 0.0137
vn -0.8693 -0.4941 -0.0138
vn -0.895 -0.4459 0.0136
vn -0.9307 -0.3656 -0.0138
vn -0.9491 -0.3146 0.0137
vn -0.9732 -0.2296 -0.0137
vn -0.9842 -0.1768 0.0137
vn -0.9959 -0.089 -0.0136
vn -0.9993 -0.0356 0.0136
vn -0.9985 0.0535 -0.0136
vn -0.9942 0.1065 0.0136
vn -0.9807 0.1948 -0.0136
vn -0.9691 0.2463 0.0135
vn -0.9431 0.3321 -0.0136
vn -0.9244 0.3812 0.0135
vn -0.8863 0.4628 -0.0135
vn -0.861 0.5084 0.0134
vn -0.8116 0.5841 -0.0135
vn -0.7688 0.6391 0.0227
vn -0.7202 0.6934 -0.0212
vn -0.6003 0.7996 0.0133
vn -0.6112 0.7915 -0.0043
vn -0.0123 -0.0003 0.9999
vn -0.0028 -0.0022 1
vn -0.0072 -0.0017 1
vn 0 -0.0001 1
vn -0.0029 -0.0005 1
vn -0.0035 0.0008 1
vn 0.0001 0.0001 1
vn 0.0001 0.0002 1
vn -0.02 -0.0006 0.9998
vn -0.001 0.0008 1
vn -0.0026 0.0007 1
vn -0.004 0.0003 1
vn -0 0.0001 -1
vn -0.0001 0.0026 -1
vn -0.0001 -0.0002 -1
vn 0.0003 0.0027 -1
vn 0 0.0002 -1
vn -0.0005 -0.0025 -1
vn 0.0005 0.0027 -1
vn -0 -0.0002 -1
vn 0.0004 0.0018 -1
vn 0 -0.0001 -1
vn 0.9959 0.0866 -0.0264
vn 0.0214 -0.9998 0.0062
vn 0.0229 -0.9997 0.0072
vn 0.9602 0.2776 0.0311
vn 0.8716 0.4885 -0.0396
vn 0.384 -0.9233 -0.0095
vn 0.3877 -0.9218 -0.007
vn 0.7598 0.6486 0.0441
vn 0.6695 -0.7425 0.0225
vn 0.5585 0.8285 -0.0398
vn 0.7601 -0.6489 -0.0351
vn 0.3875 0.9214 0.0308
vn 0.8853 -0.464 0.0309
vn 0.2094 0.9775 -0.0263
vn 0.9602 -0.2776 -0.0311
vn -0.027 0.9987 0.0432
vn 0.9959 -0.0866 0.0264
vn 0.9737 0.2174 -0.0682
vn 0.9099 0.4075 0.0775
vn 0.1798 -0.9831 -0.0353
vn 0.5523 -0.8336 -0.0001
vn 0.5999 -0.7984 0.0518
vn 0.6819 0.7292 -0.0583
vn 0.5075 0.8607 0.04
vn 0.3447 0.9384 -0.0231
vn 0.0909 0.9953 0.0346
vn 0.9241 -0.379 -0.0496
vn 0.9666 -0.2495 0.0588
vn 0.1052 -0.9897 -0.0972
vn 0.2607 -0.9555 0.1383
vn 0.3543 -0.9324 -0.0713
vn 0.5453 -0.8382 0.0088
vn 0.5565 -0.8297 0.0436
vn 0.7064 -0.7068 -0.0362
vn 0.7397 -0.6703 0.0588
vn 0.8433 -0.5321 -0.0759
vn 0.8934 -0.4433 0.0734
vn 0.9375 -0.3426 -0.0616
vn 0.9716 -0.2225 0.0806
vn 0.9892 -0.0943 -0.1121
vn 0.9934 0.0488 0.1034
vn 0.9783 0.1888 -0.0855
vn 0.9536 0.2931 0.0692
vn 0.8969 0.436 -0.0738
vn 0.8709 0.4892 0.0465
vn 0.7419 0.6704 -0.0145
vn 0.7423 0.6699 -0.013
vn 0.5693 0.822 0.0135
vn 0.5729 0.8192 0.0259
vn 0.3551 0.9323 -0.0684
vn 0.3013 0.951 0.0693
vn 0.0658 0.9977 -0.0172
vn 0.0571 0.9973 -0.0461
vn -0.0004 -0.0002 -1
vn 0.0002 0.0001 -1
vn -0.0001 -0.0001 -1
vn 0.0001 0.0001 -1
vn -0.0004 0.0004 -1
vn -0 0.0003 -1
vn -0.0002 -0.0002 -1
vn -0.6256 -0.0005 0.7801
vn -0.9701 -0.0001 0.2427
vn -0.8287 -0.0009 0.5597
vn -0.963 0.0003 0.2693
vn -0.7448 0.0004 0.6673
vn -0.2605 0.0007 0.9655
vn -0.3817 -0.0007 0.9243
vn -0.5197 0.0006 0.8544
vn -0.8733 0 0.4871
vn 0.6171 0.0005 0.7869
vn 0.5586 -0.0003 0.8294
vn 0.9701 0.0001 0.2426
vn 0.8313 0.0009 0.5559
vn 0.9631 -0.0003 0.2692
vn 0.7506 -0.0004 0.6608
vn 0.2729 -0.0008 0.962
vn 0.3765 0.0007 0.9264
vn 0.8733 -0 0.4871
vn -0.9338 0.3578 0.007
vn -0.9348 0.3549 0.0088
vn -0.8153 0.5789 -0.0151
vn -0.7322 0.6811 0.0035
vn -0.7296 0.6838 0.0113
vn -0.7214 0.6924 0.0152
vn -0.6213 0.7835 -0.0058
vn -0.5635 -0.8261 -0.0046
vn -0.7064 -0.7079 -0.0011
vn -0.7462 -0.6656 0.0096
vn -0.7461 -0.6657 0.0096
vn -0.8153 -0.579 -0.0076
vn -0.9069 -0.421 0.0154
vn -0.9344 -0.3558 -0.0156
vn 0.9338 -0.3577 0.007
vn 0.9348 -0.355 0.0087
vn 0.8152 -0.579 -0.0151
vn 0.7258 -0.6879 0.0052
vn 0.7257 -0.6879 0.0124
vn 0.7278 -0.6857 0.0111
vn 0.5733 -0.8193 -0.0069
vn 0.5715 0.8206 -0.0013
vn 0.7093 0.7049 0.0024
vn 0.7402 0.6723 0.0107
vn 0.7406 0.6718 0.0109
vn 0.8149 0.5795 -0.0077
vn 0.907 0.4209 0.0154
vn 0.9344 0.3558 -0.0155
vn 0.5897 -0.8075 0.0147
vn 0.3519 0.936 0.0127
vn 0.4199 -0.9072 -0.0249
vn 0.1796 -0.9837 0.0128
vn 0.665 0.7467 -0.0141
vn 0.6603 0.7509 -0.0124
vn 0.92 0.3915 0.0151
vn 0.9819 0.1887 -0.0163
vn 0.9989 -0.045 0.0118
vn 0.9304 -0.3662 -0.0191
vn 0.8812 -0.4726 0.0079
vn -0.7917 0.3721 0.4844
vn -0.7736 0.4248 0.4703
vn -0.6811 0.5246 0.5109
vn -0.9394 0.3234 0.1141
vn -0.8968 0.3609 0.2559
vn -0.8871 0.3838 0.2565
vn -0.4582 -0.5598 0.6905
vn -0.4437 -0.5047 0.7405
vn -0.5609 -0.5191 0.6449
vn -0.5512 -0.3808 0.7424
vn -0.5358 -0.3608 0.7634
vn -0.6837 -0.3407 0.6454
vn -0.6145 -0.1937 0.7648
vn -0.6396 -0.212 0.7389
vn -0.7514 -0.135 0.6459
vn -0.6773 -0.0241 0.7353
vn -0.735 -0.0463 0.6765
vn -0.6921 0.0808 0.7172
vn -0.6729 0.0721 0.7363
vn -0.74 0.1881 0.6458
vn -0.5993 0.2374 0.7645
vn -0.6221 0.2566 0.7397
vn -0.6579 0.3884 0.6452
vn -0.5212 0.3983 0.7548
vn -0.5607 0.4661 0.6843
vn -0.4502 0.5111 0.7322
vn -0.4659 0.5579 0.6868
vn -0.6155 -0.4967 0.612
vn -0.8851 -0.326 0.3323
vn -0.9351 -0.3387 0.1044
vn -0.6492 -0.4469 0.6155
vn -0.859 -0.3896 0.3322
vn -0.905 -0.369 0.2116
vn -0.7508 -0.4778 0.4561
vn 0.8013 -0.4664 0.3747
vn 0.6595 -0.4626 0.5925
vn 0.6579 -0.4615 0.5951
vn 0.9392 -0.324 0.1139
vn 0.8856 -0.3678 0.2838
vn 0.8914 -0.3503 0.2876
vn 0.4472 0.5568 0.7
vn 0.4402 0.5008 0.7453
vn 0.5341 0.5306 0.6582
vn 0.5717 0.4258 0.7013
vn 0.5236 0.3527 0.7755
vn 0.66 0.3587 0.6601
vn 0.6709 0.2491 0.6984
vn 0.6016 0.1896 0.776
vn 0.7326 0.1588 0.6619
vn 0.7169 0.0511 0.6953
vn 0.7025 0.0442 0.7103
vn 0.661 -0.0772 0.7464
vn 0.7253 -0.0517 0.6865
vn 0.7453 -0.1615 0.6469
vn 0.6402 -0.2377 0.7305
vn 0.5956 -0.2359 0.7679
vn 0.6693 -0.3638 0.6478
vn 0.5505 -0.41 0.7272
vn 0.5258 -0.4019 0.7496
vn 0.53 -0.5267 0.6646
vn 0.4533 -0.5157 0.727
vn 0.4632 -0.5771 0.6726
vn 0.6229 0.4991 0.6024
vn 0.7732 0.4694 0.4264
vn 0.8851 0.326 0.3323
vn 0.9351 0.3387 0.1043
vn 0.6552 0.4472 0.6088
vn 0.859 0.3897 0.3322
vn 0.905 0.369 0.2116
vn 0.0219 -0.7101 -0.7038
vn 0.027 -0.6902 -0.7232
vn 0.2018 -0.7025 -0.6825
vn 0.2008 -0.6588 -0.725
vn 0.333 -0.6357 -0.6964
vn 0.3304 -0.552 -0.7656
vn 0.4199 -0.6036 -0.6778
vn 0.5002 -0.5239 -0.6894
vn 0.4597 -0.4326 -0.7756
vn 0.594 -0.4605 -0.6596
vn 0.6214 -0.3532 -0.6993
vn 0.563 -0.2842 -0.776
vn 0.6984 -0.2743 -0.661
vn 0.6983 -0.1647 -0.6966
vn 0.6201 -0.1127 -0.7764
vn 0.7459 -0.0666 -0.6628
vn 0.7189 0.0385 -0.6941
vn 0.6261 0.0678 -0.7768
vn 0.733 0.1456 -0.6645
vn 0.6813 0.24 -0.6916
vn 0.5808 0.2425 -0.7771
vn 0.661 0.3452 -0.6663
vn 0.5882 0.4233 -0.6891
vn 0.4878 0.3971 -0.7774
vn 0.536 0.516 -0.6682
vn 0.4342 0.5808 -0.6886
vn 0.3966 0.5528 -0.7328
vn 0.2897 0.6392 -0.7124
vn 0.2944 0.6725 -0.6791
vn 0.1066 0.6747 -0.7304
vn 0.1087 0.6398 -0.7608
vn 0.0785 -0.7502 -0.6565
vn 0.2141 -0.6087 -0.764
vn 0.2466 -0.6427 -0.7254
vn 0.4117 -0.633 -0.6556
vn 0.4285 -0.4956 -0.7555
vn 0.5146 -0.5157 -0.685
vn 0.5925 -0.3754 -0.7128
vn 0.5743 -0.3427 -0.7435
vn 0.7096 -0.2589 -0.6553
vn 0.6363 -0.1329 -0.7599
vn 0.7484 -0.0738 -0.6592
vn 0.6532 0.043 -0.7559
vn 0.7441 0.1479 -0.6514
vn 0.6166 0.2291 -0.7532
vn 0.6863 0.3342 -0.646
vn 0.5458 0.491 -0.6789
vn 0.5243 0.4218 -0.7397
vn 0.4165 0.5964 -0.6862
vn 0.4133 0.5505 -0.7254
vn 0.1976 0.6051 -0.7713
vn 0.2552 0.6631 -0.7037
vn 0.0512 0.7776 -0.6266
vn 0.8532 -0.5207 -0.0309
vn 0.2927 -0.401 -0.8681
vn 0.356 0.9328 0.0565
vn 0.1654 -0.8991 -0.4053
vn 0.1617 -0.9312 -0.3266
vn 0.3338 0.3796 -0.8628
vn 0.7635 0.3249 -0.5581
vn 0.9464 0.3229 0.0117
vn 0.4999 -0.0226 -0.8658
vn 0.7674 -0.4116 -0.4915
vn -0.0003 -0.0027 -1
f 1//1 2//1 3//1
f 4//2 5//2 6//2
f 2//3 7//3 3//3
f 5//4 8//4 6//4
f 8//5 9//5 10//5
f 10//6 9//6 11//6
f 9//7 1//7 11//7
f 12//8 13//8 14//8
f 12//9 14//9 15//9
f 15//10 16//10 12//10
f 16//11 15//11 17//11
f 17//12 18//12 16//12
f 18//13 17//13 19//13
f 20//14 18//14 19//14
f 21//15 19//15 22//15
f 21//16 20//16 19//16
f 22//17 23//17 21//17
f 24//18 23//18 22//18
f 24//19 25//19 23//19
f 25//20 24//20 26//20
f 26//21 27//21 25//21
f 28//22 27//22 26//22
f 28//23 29//23 27//23
f 29//24 28//24 30//24
f 30//25 31//25 29//25
f 32//26 30//26 33//26
f 32//27 31//27 30//27
f 33//28 34//28 32//28
f 13//29 35//29 14//29
f 34//30 33//30 36//30
f 37//31 38//31 39//31
f 37//32 39//32 40//32
f 41//33 37//33 40//33
f 41//34 40//34 42//34
f 43//35 41//35 42//35
f 43//36 42//36 44//36
f 45//37 43//37 44//37
f 45//38 44//38 46//38
f 47//39 45//39 46//39
f 48//40 47//40 46//40
f 48//41 46//41 49//41
f 50//42 48//42 49//42
f 51//43 50//43 49//43
f 51//44 49//44 52//44
f 53//45 51//45 52//45
f 54//46 53//46 52//46
f 54//47 52//47 55//47
f 56//48 54//48 55//48
f 57//49 56//49 55//49
f 57//50 55//50 58//50
f 59//51 57//51 58//51
f 60//52 59//52 58//52
f 60//53 58//53 61//53
f 62//54 60//54 61//54
f 63//55 62//55 61//55
f 63//56 61//56 64//56
f 65//57 63//57 64//57
f 65//58 64//58 66//58
f 67//59 65//59 66//59
f 67//60 66//60 68//60
f 69//61 67//61 68//61
f 70//62 1//62 71//62
f 72//63 4//63 73//63
f 1//64 3//64 71//64
f 4//65 6//65 73//65
f 73//66 6//66 74//66
f 3//67 7//67 71//67
f 71//68 7//68 75//68
f 6//69 8//69 74//69
f 8//70 10//70 74//70
f 74//71 10//71 76//71
f 10//72 11//72 76//72
f 76//73 11//73 70//73
f 11//74 1//74 70//74
f 77//75 13//75 12//75
f 77//76 78//76 13//76
f 79//77 77//77 12//77
f 79//78 12//78 16//78
f 80//79 79//79 16//79
f 80//80 16//80 18//80
f 80//81 18//81 20//81
f 81//82 80//82 20//82
f 81//83 20//83 21//83
f 82//84 21//84 23//84
f 82//85 81//85 21//85
f 82//86 23//86 25//86
f 83//87 82//87 25//87
f 83//88 25//88 27//88
f 84//89 83//89 27//89
f 84//90 27//90 29//90
f 85//91 84//91 29//91
f 86//92 85//92 29//92
f 86//93 29//93 31//93
f 86//94 31//94 32//94
f 87//95 86//95 32//95
f 88//96 32//96 34//96
f 88//97 87//97 32//97
f 89//98 90//98 91//98
f 92//99 93//99 94//99
f 95//100 93//100 92//100
f 90//101 96//101 91//101
f 91//102 96//102 97//102
f 94//103 98//103 99//103
f 93//104 98//104 94//104
f 96//105 100//105 97//105
f 97//106 100//106 101//106
f 98//107 102//107 99//107
f 99//108 102//108 103//108
f 102//109 104//109 103//109
f 100//110 95//110 101//110
f 101//111 95//111 92//111
f 103//112 104//112 105//112
f 106//113 107//113 108//113
f 108//114 107//114 109//114
f 110//115 111//115 112//115
f 111//116 113//116 112//116
f 112//117 113//117 114//117
f 107//118 115//118 109//118
f 109//119 115//119 116//119
f 115//120 117//120 116//120
f 113//121 106//121 114//121
f 114//122 106//122 108//122
f 118//123 119//123 120//123
f 119//124 121//124 120//124
f 122//125 123//125 124//125
f 120//126 121//126 125//126
f 121//127 126//127 125//127
f 123//128 127//128 124//128
f 124//129 127//129 128//129
f 127//130 129//130 128//130
f 128//131 129//131 118//131
f 129//132 119//132 118//132
f 130//133 131//133 132//133
f 133//134 134//134 135//134
f 131//135 136//135 132//135
f 132//136 136//136 137//136
f 135//137 138//137 139//137
f 134//138 138//138 135//138
f 138//139 140//139 139//139
f 139//140 140//140 141//140
f 140//141 142//141 141//141
f 141//142 142//142 130//142
f 142//143 131//143 130//143
f 143//144 144//144 145//144
f 146//145 143//145 145//145
f 146//146 145//146 147//146
f 148//147 146//147 147//147
f 148//148 147//148 149//148
f 150//149 148//149 149//149
f 150//150 149//150 151//150
f 152//151 150//151 151//151
f 152//152 151//152 153//152
f 154//153 152//153 153//153
f 154//154 153//154 155//154
f 156//155 154//155 155//155
f 156//156 155//156 157//156
f 158//157 156//157 157//157
f 158//158 157//158 159//158
f 160//159 158//159 159//159
f 160//160 159//160 161//160
f 162//161 160//161 161//161
f 162//162 161//162 163//162
f 164//163 162//163 163//163
f 164//164 163//164 165//164
f 166//165 164//165 165//165
f 166//166 165//166 167//166
f 168//167 166//167 167//167
f 168//168 167//168 169//168
f 170//169 168//169 169//169
f 170//170 169//170 171//170
f 172//171 170//171 171//171
f 173//172 174//172 175//172
f 176//173 177//173 178//173
f 118//173 120//173 179//173
f 179//173 120//173 180//173
f 132//173 49//173 81//173
f 77//173 42//173 40//173
f 79//173 42//173 77//173
f 141//173 130//173 82//173
f 81//173 49//173 80//173
f 82//173 130//173 81//173
f 49//173 46//173 80//173
f 174//174 181//174 175//174
f 79//173 44//173 42//173
f 80//173 44//173 79//173
f 68//173 88//173 182//173
f 80//173 46//173 44//173
f 183//175 184//175 5//175
f 178//173 177//173 185//173
f 61//173 58//173 84//173
f 177//173 186//173 185//173
f 130//173 132//173 81//173
f 120//173 125//173 180//173
f 68//173 87//173 88//173
f 187//173 188//173 189//173
f 183//175 190//175 184//175
f 66//173 87//173 68//173
f 191//173 39//173 192//173
f 133//173 55//173 193//173
f 188//173 194//173 189//173
f 84//173 58//173 83//173
f 66//173 86//173 87//173
f 124//173 128//173 179//173
f 186//173 195//173 185//173
f 185//173 195//173 125//173
f 183//176 192//176 190//176
f 78//173 39//173 191//173
f 196//173 124//173 179//173
f 64//173 86//173 66//173
f 187//173 197//173 188//173
f 175//177 192//177 183//177
f 193//178 52//178 198//178
f 55//178 52//178 193//178
f 199//173 197//173 187//173
f 181//179 192//179 175//179
f 2//180 1//180 200//180
f 125//173 2//173 180//173
f 196//173 122//173 124//173
f 180//181 2//181 200//181
f 195//173 2//173 125//173
f 189//173 194//173 196//173
f 198//173 52//173 201//173
f 1//182 9//182 200//182
f 128//173 118//173 179//173
f 195//183 7//183 2//183
f 196//173 202//173 122//173
f 203//184 7//184 195//184
f 194//173 202//173 196//173
f 64//173 85//173 86//173
f 61//173 85//173 64//173
f 191//173 192//173 181//173
f 200//185 9//185 184//185
f 83//173 139//173 82//173
f 201//173 52//173 204//173
f 83//173 135//173 139//173
f 58//173 135//173 83//173
f 203//186 173//186 7//186
f 78//173 40//173 39//173
f 122//173 202//173 176//173
f 139//173 141//173 82//173
f 9//187 8//187 184//187
f 55//173 135//173 58//173
f 203//188 174//188 173//188
f 52//173 49//173 204//173
f 204//173 49//173 137//173
f 182//173 197//173 199//173
f 5//189 184//189 8//189
f 77//173 40//173 78//173
f 55//173 133//173 135//173
f 182//173 88//173 197//173
f 85//173 61//173 84//173
f 137//173 49//173 132//173
f 202//173 177//173 176//173
f 193//190 205//190 133//190
f 206//191 205//191 193//191
f 137//192 136//192 204//192
f 136//193 207//193 204//193
f 204//194 207//194 201//194
f 205//195 134//195 133//195
f 207//196 208//196 201//196
f 201//197 208//197 198//197
f 198//198 208//198 193//198
f 208//199 206//199 193//199
f 176//200 209//200 122//200
f 210//201 209//201 176//201
f 125//202 126//202 185//202
f 126//203 211//203 185//203
f 209//204 123//204 122//204
f 185//205 211//205 178//205
f 211//206 212//206 178//206
f 212//207 210//207 178//207
f 178//208 210//208 176//208
f 213//209 214//209 215//209
f 213//209 216//209 214//209
f 217//210 69//210 218//210
f 217//211 219//211 220//211
f 217//211 220//211 69//211
f 221//212 222//212 223//212
f 224//213 225//213 226//213
f 227//214 228//214 229//214
f 230//215 231//215 232//215
f 110//216 233//216 234//216
f 235//216 233//216 110//216
f 236//216 233//216 235//216
f 236//216 237//216 233//216
f 236//217 238//217 237//217
f 239//218 238//218 236//218
f 240//219 238//219 241//219
f 240//220 241//220 242//220
f 241//221 238//221 239//221
f 243//222 115//222 107//222
f 243//223 117//223 115//223
f 107//224 106//224 243//224
f 244//216 117//216 243//216
f 244//216 245//216 117//216
f 244//216 246//216 245//216
f 247//216 246//216 244//216
f 113//225 234//225 106//225
f 240//226 246//226 247//226
f 240//227 242//227 246//227
f 113//216 111//216 234//216
f 111//228 110//228 234//228
f 63//229 65//229 248//229
f 63//230 248//230 249//230
f 62//231 63//231 249//231
f 62//232 249//232 250//232
f 60//233 62//233 250//233
f 60//234 250//234 251//234
f 59//235 60//235 251//235
f 59//236 251//236 252//236
f 57//237 59//237 252//237
f 57//238 252//238 253//238
f 56//239 57//239 253//239
f 56//240 253//240 254//240
f 54//241 56//241 254//241
f 54//242 254//242 255//242
f 53//243 54//243 255//243
f 53//244 255//244 256//244
f 51//245 53//245 256//245
f 51//246 256//246 257//246
f 50//247 51//247 257//247
f 50//248 257//248 258//248
f 48//249 50//249 258//249
f 48//250 258//250 259//250
f 47//251 48//251 259//251
f 47//252 259//252 260//252
f 45//253 47//253 260//253
f 43//254 45//254 260//254
f 43//255 260//255 261//255
f 262//256 98//256 263//256
f 98//257 93//257 263//257
f 264//216 98//216 262//216
f 264//216 102//216 98//216
f 93//258 95//258 263//258
f 264//216 104//216 102//216
f 265//216 104//216 264//216
f 265//259 266//259 104//259
f 265//216 267//216 266//216
f 265//260 268//260 267//260
f 269//261 270//261 268//261
f 270//262 269//262 271//262
f 271//263 269//263 89//263
f 269//216 272//216 89//216
f 89//216 272//216 90//216
f 90//216 272//216 96//216
f 272//216 273//216 96//216
f 95//264 274//264 263//264
f 96//265 274//265 100//265
f 100//266 274//266 95//266
f 96//267 273//267 274//267
f 41//173 275//173 276//173
f 213//268 277//268 38//268
f 38//269 278//269 216//269
f 38//209 216//209 213//209
f 43//270 275//270 41//270
f 276//271 279//271 280//271
f 277//173 215//173 281//173
f 280//272 37//272 276//272
f 277//273 281//273 143//273
f 41//173 276//173 37//173
f 282//274 65//274 67//274
f 283//275 284//275 69//275
f 285//276 286//276 172//276
f 287//173 282//173 67//173
f 288//173 286//173 285//173
f 283//173 286//173 288//173
f 67//277 220//277 287//277
f 289//216 211//216 290//216
f 127//216 112//216 114//216
f 123//216 112//216 127//216
f 129//216 127//216 114//216
f 129//216 114//216 108//216
f 119//216 129//216 108//216
f 123//216 291//216 112//216
f 209//216 291//216 123//216
f 119//216 108//216 109//216
f 209//216 292//216 291//216
f 210//216 292//216 209//216
f 121//216 119//216 109//216
f 293//216 292//216 210//216
f 293//216 210//216 212//216
f 116//216 121//216 109//216
f 116//216 126//216 121//216
f 294//216 293//216 212//216
f 295//216 126//216 116//216
f 296//216 212//216 211//216
f 296//216 294//216 212//216
f 290//216 126//216 295//216
f 289//216 296//216 211//216
f 290//216 211//216 126//216
f 241//278 239//278 294//278
f 117//279 245//279 116//279
f 116//280 245//280 295//280
f 294//281 239//281 293//281
f 239//282 236//282 293//282
f 295//283 246//283 290//283
f 245//284 246//284 295//284
f 293//285 236//285 292//285
f 290//286 246//286 289//286
f 236//287 235//287 292//287
f 246//288 242//288 289//288
f 292//289 235//289 291//289
f 289//290 242//290 296//290
f 235//291 110//291 291//291
f 242//292 241//292 296//292
f 291//293 110//293 112//293
f 296//294 241//294 294//294
f 297//216 207//216 105//216
f 138//216 97//216 101//216
f 140//216 138//216 101//216
f 134//216 91//216 97//216
f 134//216 97//216 138//216
f 140//216 101//216 92//216
f 142//216 140//216 92//216
f 205//216 91//216 134//216
f 205//216 298//216 91//216
f 142//216 92//216 94//216
f 131//216 142//216 94//216
f 205//216 299//216 298//216
f 131//216 94//216 99//216
f 206//216 299//216 205//216
f 99//216 136//216 131//216
f 103//216 136//216 99//216
f 300//216 299//216 206//216
f 300//216 206//216 208//216
f 105//216 136//216 103//216
f 105//216 207//216 136//216
f 297//216 300//216 208//216
f 297//216 208//216 207//216
f 268//295 270//295 300//295
f 300//296 270//296 299//296
f 104//297 266//297 105//297
f 266//298 267//298 105//298
f 105//299 267//299 297//299
f 270//300 271//300 299//300
f 299//301 271//301 298//301
f 271//302 89//302 298//302
f 298//303 89//303 91//303
f 267//304 268//304 297//304
f 297//305 268//305 300//305
f 88//306 34//306 301//306
f 197//307 88//307 301//307
f 197//308 301//308 302//308
f 197//309 302//309 303//309
f 188//310 197//310 303//310
f 188//311 303//311 304//311
f 194//312 188//312 304//312
f 194//313 304//313 305//313
f 202//314 194//314 305//314
f 202//315 305//315 306//315
f 177//316 202//316 306//316
f 177//317 306//317 307//317
f 186//318 177//318 307//318
f 186//319 307//319 308//319
f 195//320 186//320 308//320
f 195//321 308//321 309//321
f 203//322 195//322 309//322
f 174//323 203//323 309//323
f 174//324 309//324 310//324
f 181//325 174//325 310//325
f 181//326 310//326 311//326
f 181//327 311//327 312//327
f 191//328 181//328 312//328
f 78//329 312//329 13//329
f 78//330 191//330 312//330
f 313//331 314//331 315//331
f 313//332 316//332 314//332
f 317//178 35//178 316//178
f 317//173 316//173 313//173
f 14//333 35//333 317//333
f 318//334 14//334 317//334
f 19//173 15//173 14//173
f 19//335 17//335 15//335
f 319//173 14//173 318//173
f 319//177 318//177 320//177
f 33//336 319//336 36//336
f 26//181 24//181 22//181
f 26//173 19//173 14//173
f 26//181 22//181 19//181
f 26//268 33//268 30//268
f 26//173 14//173 319//173
f 26//173 319//173 33//173
f 28//337 26//337 30//337
f 321//338 322//338 323//338
f 324//339 325//339 326//339
f 323//340 327//340 326//340
f 325//341 328//341 326//341
f 322//342 327//342 323//342
f 329//343 263//343 274//343
f 329//344 321//344 263//344
f 321//345 329//345 322//345
f 327//346 324//346 326//346
f 330//347 331//347 332//347
f 333//348 331//348 330//348
f 334//349 335//349 336//349
f 332//350 337//350 336//350
f 335//351 338//351 336//351
f 331//352 337//352 332//352
f 333//353 238//353 240//353
f 333//354 330//354 238//354
f 337//355 334//355 336//355
f 222//356 275//356 223//356
f 276//357 275//357 222//357
f 223//358 275//358 221//358
f 221//359 339//359 340//359
f 221//360 275//360 339//360
f 275//361 43//361 339//361
f 339//362 43//362 261//362
f 248//363 65//363 341//363
f 341//364 65//364 342//364
f 342//365 65//365 231//365
f 65//366 282//366 231//366
f 231//367 282//367 232//367
f 282//368 287//368 232//368
f 232//369 287//369 230//369
f 226//370 285//370 224//370
f 288//371 285//371 226//371
f 224//372 285//372 225//372
f 225//373 343//373 344//373
f 225//374 285//374 343//374
f 285//375 172//375 343//375
f 343//376 172//376 171//376
f 144//377 143//377 345//377
f 345//378 143//378 346//378
f 346//379 143//379 229//379
f 143//380 281//380 229//380
f 229//381 281//381 227//381
f 281//382 215//382 227//382
f 227//383 215//383 228//383
f 347//384 348//384 349//384
f 7//385 350//385 75//385
f 349//386 348//386 72//386
f 348//387 4//387 72//387
f 75//388 351//388 352//388
f 350//389 351//389 75//389
f 351//390 353//390 352//390
f 352//391 353//391 354//391
f 353//392 355//392 354//392
f 354//393 355//393 349//393
f 355//394 347//394 349//394
f 349//173 72//173 73//173
f 349//173 74//173 76//173
f 349//173 73//173 74//173
f 352//173 349//173 76//173
f 352//173 70//173 71//173
f 352//173 71//173 75//173
f 352//173 354//173 349//173
f 352//173 76//173 70//173
f 261//395 321//395 323//395
f 261//396 323//396 339//396
f 261//397 263//397 321//397
f 326//398 328//398 340//398
f 339//399 326//399 340//399
f 339//400 323//400 326//400
f 249//401 248//401 274//401
f 249//402 274//402 273//402
f 250//403 249//403 273//403
f 251//404 250//404 273//404
f 251//405 273//405 272//405
f 252//406 251//406 272//406
f 253//407 272//407 269//407
f 253//408 252//408 272//408
f 254//409 253//409 269//409
f 255//410 254//410 269//410
f 255//411 269//411 268//411
f 255//412 268//412 265//412
f 256//413 255//413 265//413
f 257//414 256//414 265//414
f 257//415 265//415 264//415
f 258//416 257//416 264//416
f 259//417 258//417 264//417
f 259//418 264//418 262//418
f 260//419 259//419 262//419
f 260//420 262//420 263//420
f 261//421 260//421 263//421
f 248//422 329//422 274//422
f 342//423 327//423 341//423
f 342//424 325//424 324//424
f 329//425 248//425 341//425
f 341//426 327//426 322//426
f 342//427 324//427 327//427
f 322//428 329//428 341//428
f 343//429 330//429 332//429
f 343//430 238//430 330//430
f 343//431 171//431 238//431
f 336//432 338//432 344//432
f 343//433 336//433 344//433
f 343//434 332//434 336//434
f 145//435 144//435 240//435
f 145//436 240//436 247//436
f 147//437 145//437 247//437
f 149//438 147//438 247//438
f 149//439 247//439 244//439
f 151//440 149//440 244//440
f 153//441 151//441 244//441
f 153//442 244//442 243//442
f 155//443 153//443 243//443
f 157//444 155//444 243//444
f 157//445 243//445 106//445
f 159//446 106//446 234//446
f 159//447 157//447 106//447
f 161//448 159//448 234//448
f 163//449 161//449 234//449
f 163//450 234//450 233//450
f 165//451 163//451 233//451
f 167//452 165//452 233//452
f 167//453 233//453 237//453
f 169//454 167//454 237//454
f 169//455 237//455 238//455
f 171//456 169//456 238//456
f 144//457 333//457 240//457
f 331//458 333//458 345//458
f 346//459 337//459 345//459
f 346//460 335//460 334//460
f 333//461 144//461 345//461
f 345//462 337//462 331//462
f 346//463 334//463 337//463
f 283//464 69//464 68//464
f 283//465 68//465 182//465
f 286//466 283//466 182//466
f 286//467 182//467 199//467
f 172//468 286//468 199//468
f 172//469 199//469 187//469
f 170//470 172//470 187//470
f 168//471 170//471 187//471
f 168//472 187//472 189//472
f 166//473 168//473 189//473
f 164//474 166//474 189//474
f 164//475 189//475 196//475
f 162//476 164//476 196//476
f 160//477 162//477 196//477
f 160//478 196//478 179//478
f 158//479 160//479 179//479
f 156//480 158//480 179//480
f 156//481 179//481 180//481
f 154//482 156//482 180//482
f 152//483 154//483 180//483
f 152//484 180//484 200//484
f 150//485 152//485 200//485
f 148//486 150//486 200//486
f 148//487 200//487 184//487
f 146//488 148//488 184//488
f 143//489 146//489 184//489
f 143//490 184//490 190//490
f 143//491 190//491 192//491
f 277//492 143//492 192//492
f 277//493 192//493 39//493
f 38//494 277//494 39//494
f 36//495 301//495 34//495
f 301//496 36//496 319//496
f 319//497 302//497 301//497
f 319//498 303//498 302//498
f 320//499 303//499 319//499
f 320//500 304//500 303//500
f 305//501 304//501 320//501
f 305//502 320//502 318//502
f 318//503 306//503 305//503
f 306//504 318//504 317//504
f 317//505 307//505 306//505
f 313//506 307//506 317//506
f 313//507 308//507 307//507
f 315//508 308//508 313//508
f 315//509 309//509 308//509
f 314//510 310//510 309//510
f 314//511 309//511 315//511
f 316//512 311//512 310//512
f 316//513 310//513 314//513
f 312//514 316//514 35//514
f 312//515 311//515 316//515
f 35//516 13//516 312//516
f 175//517 183//517 347//517
f 347//518 183//518 348//518
f 7//519 173//519 350//519
f 183//520 4//520 348//520
f 183//521 5//521 4//521
f 350//522 173//522 351//522
f 351//523 173//523 353//523
f 173//524 175//524 353//524
f 353//525 175//525 355//525
f 355//526 175//526 347//526
f 280//271 279//271 278//271
f 356//527 218//527 284//527
f 219//211 287//211 220//211
f 218//527 69//527 284//527
f 356//527 284//527 288//527
f 280//271 278//271 38//271
f 213//268 215//268 277//268
f 280//272 38//272 37//272
f 283//275 288//275 284//275
f 67//277 69//277 220//277