o obj1
v 0.098683 0.076111 -0.000497
v 0.099984 0.075905 -0.000728
v 0.098517 0.075814 -0.000862
v 0.097157 0.075953 -0.000775
v 0.097401 0.076129 -0.000581
v 0.097444 0.075611 -0.001001
v 0.097288 0.076241 -0.000311
v 0.09991 0.076146 -0.000192
v 0.099956 0.075495 -0.000992
v 0.09735 0.076275 0.000107
v 0.097252 0.075634 0.001
v 0.097274 0.076148 0.000556
v 0.09677 0.075666 0.000751
v 0.096701 0.075666 -0.000653
v 0.096988 0.075651 -0.000893
v 0.0967 0.075948 -0.000322
v 0.096983 0.076195 -0.000147
v 0.096502 0.07568 0.0003
v 0.096794 0.076025 0.000386
v 0.096469 0.075682 -0.000201
v 0.100037 0.075496 0.000994
v 0.100121 0.075723 0.000861
v 0.098635 0.075547 0.000998
v 0.099939 0.076014 0.000569
v 0.098697 0.075831 0.000841
v 0.098685 0.076144 0.000398
v 0.100104 0.076095 0.000342
v 0.10044 0.075475 0.000765
v 0.100551 0.07573 0.000456
v 0.100613 0.075471 -0.000589
v 0.100594 0.075767 -0.00032
v 0.100804 0.075465 -0.000155
v 0.100416 0.075775 -0.000597
v 0.100215 0.076067 -0.000271
v 0.100622 0.075831 4E-05
v 0.100725 0.075467 0.00041
v 0.100308 0.075479 -0.000859
vn 0.0098 0.7734 -0.6338
vn 0.0294 0.721 -0.6923
vn 0.003 0.553 -0.8332
vn 0.0376 0.9282 -0.3701
vn 0.0735 0.9134 -0.4004
vn 0.0433 0.5385 -0.8415
vn 0.0531 0.7626 -0.6447
vn 0.0248 0.4712 -0.8817
vn 0.0402 0.9954 -0.087
vn 0.0485 0.9513 -0.3046
vn -0.3243 0.6264 0.7089
vn -0.5184 0.5476 -0.6568
vn -0.2503 0.8522 -0.4595
vn -0.5453 0.6382 -0.5435
vn -0.3543 0.8356 -0.4198
vn -0.1701 0.4401 -0.8817
vn -0.4307 0.7958 -0.4257
vn -0.7686 0.6375 0.0532
vn -0.7726 0.4832 -0.4118
vn -0.1787 0.9824 -0.0534
vn -0.3948 0.6685 0.6303
vn -0.3064 0.9329 0.1893
vn -0.3414 0.9178 0.2028
vn -0.7334 0.5085 0.4512
vn -0.7482 0.6629 0.0271
vn -0.6598 0.7514 0.0058
vn 0.0209 0.4986 0.8666
vn 0.0449 0.7218 0.6906
vn 0.0312 0.4786 0.8775
vn 0.0663 0.9879 0.1405
vn 0.0345 0.7492 0.6614
vn 0.0446 0.925 0.3774
vn 0.0378 0.996 0.0813
vn -0.0058 0.6539 0.7566
vn 0.0241 0.4799 0.877
vn 0.0467 0.9298 0.3651
vn 0.0335 0.9599 0.2782
vn 0.4834 0.3022 0.8216
vn 0.4645 0.727 0.5057
vn 0.8462 0.3866 -0.3667
vn 0.7481 0.4717 -0.4668
vn 0.5949 0.7825 -0.1835
vn 0.4752 0.8787 0.0458
vn 0.5573 0.7596 -0.3354
vn 0.2518 0.9678 0.0012
vn 0.725 0.3797 0.5747
vn 0.5861 0.5082 0.631
vn 0.1349 0.9106 -0.3907
vn 0.3617 0.7635 0.5351
vn 0.8495 0.5046 -0.1538
vn 0.5618 0.7773 0.2833
vn 0.6187 0.3822 -0.6864
vn 0.9135 0.3871 0.125
vn 0.8254 0.5004 0.2613
vn 0.326 0.4956 -0.805
vn 0.3878 0.5276 -0.7558
vn 0.3818 0.7935 -0.4739
f 1//1 2//1 3//1
f 4//2 5//2 3//2
f 4//3 3//3 6//3
f 7//4 1//4 5//4
f 1//5 8//5 2//5
f 9//6 3//6 2//6
f 3//7 5//7 1//7
f 6//8 3//8 9//8
f 8//9 7//9 10//9
f 1//10 7//10 8//10
f 11//11 12//11 13//11
f 14//12 4//12 15//12
f 5//13 4//13 7//13
f 14//14 16//14 4//14
f 7//15 4//15 17//15
f 15//16 4//16 6//16
f 16//17 17//17 4//17
f 18//18 19//18 20//18
f 20//19 16//19 14//19
f 10//20 7//20 17//20
f 12//21 19//21 13//21
f 17//22 19//22 12//22
f 12//23 10//23 17//23
f 13//24 19//24 18//24
f 20//25 19//25 16//25
f 19//26 17//26 16//26
f 21//27 22//27 23//27
f 22//28 24//28 25//28
f 23//29 25//29 11//29
f 10//30 26//30 8//30
f 25//31 24//31 12//31
f 12//32 24//32 26//32
f 26//33 27//33 8//33
f 11//34 25//34 12//34
f 22//35 25//35 23//35
f 24//36 27//36 26//36
f 10//37 12//37 26//37
f 22//38 21//38 28//38
f 29//39 27//39 22//39
f 30//40 31//40 32//40
f 31//41 30//41 33//41
f 31//42 34//42 35//42
f 35//43 34//43 27//43
f 33//44 34//44 31//44
f 34//45 8//45 27//45
f 36//46 29//46 28//46
f 28//47 29//47 22//47
f 2//48 8//48 34//48
f 22//49 27//49 24//49
f 35//50 32//50 31//50
f 29//51 35//51 27//51
f 37//52 33//52 30//52
f 35//53 36//53 32//53
f 29//54 36//54 35//54
f 9//55 2//55 37//55
f 37//56 2//56 33//56
f 33//57 2//57 34//57