o obj1
v -0.028115 0.091041 0.0005
v -0.027416 0.090905 0.0005
v -0.027622 0.09104 0.0005
v -0.012555 0.05759 0.0005
v -0.012952 0.058083 0.0005
v -0.012483 0.056738 0.0005
v -0.012841 0.056129 0.000498
v -0.013259 0.055874 0.0005
v -0.030026 0.091027 -0.015807
v -0.029686 0.091045 -0.01051
v -0.028726 0.091026 -0.01101
v -0.028168 0.091043 -0.000434
v -0.031073 0.091026 -0.015918
v -0.028855 0.091044 -0.004718
v -0.02867 0.091041 -0.0005
v -0.027613 0.091037 -0.002099
v -0.028163 0.091028 -0.007934
v -0.02687 0.050919 -0.014949
v -0.024268 0.052232 -0.015017
v -0.024894 0.052005 -0.010432
v -0.023631 0.052353 -0.018187
v -0.021079 0.053677 -0.013906
v -0.031423 0.048214 -0.00798
v -0.027007 0.050902 -0.007171
v -0.029729 0.049133 0.000499
v -0.023951 0.052393 -0.004589
v -0.025495 0.051458 0.0005
v -0.035007 0.045496 -0.000449
v -0.03418 0.046243 -0.014171
v -0.034893 0.045608 0.0005
v -0.035583 0.045041 -0.000501
v -0.035735 0.044926 -0.00383
v -0.017218 0.05512 -0.010449
v -0.019321 0.054377 -0.007194
v -0.026965 0.050707 -0.018159
v -0.03008 0.049076 -0.014654
v -0.022018 0.053328 -0.010062
v -0.021572 0.053449 -0.004728
v -0.016003 0.055381 -0.015104
v -0.015897 0.055443 -0.00424
v -0.015535 0.055272 0.0005
v -0.0133 0.05622 -0.005658
v -0.019722 0.053956 -0.018215
v -0.017536 0.054703 -0.018215
v -0.0187 0.054471 -0.00294
v -0.020032 0.053818 0.0005
v -0.02996 0.049014 -0.018237
v -0.036433 0.04438 -0.008169
v -0.033019 0.046995 -0.018164
v -0.014344 0.055963 -0.010122
v -0.037489 0.043496 -0.012048
v -0.036708 0.044163 -0.018203
v -0.038773 0.042358 -0.01823
v -0.038556 0.042537 -0.014924
v -0.040228 0.040956 -0.018182
v -0.031556 0.090453 -0.017215
v -0.031834 0.08979 -0.017835
v -0.032028 0.089058 -0.018225
v -0.039121 0.045896 -0.018397
v -0.04027 0.041138 -0.01837
v -0.029287 0.08104 -0.018383
v -0.028042 0.077077 -0.018347
v -0.033469 0.077176 -0.018398
v -0.032159 0.088312 -0.018388
v -0.037182 0.043951 -0.018367
v -0.030163 0.08553 -0.018375
v -0.033683 0.046665 -0.018354
v -0.030577 0.088578 -0.018334
v -0.037089 0.055336 -0.018401
v -0.032265 0.047754 -0.018382
v -0.02703 0.050927 -0.018386
v -0.020375 0.061191 -0.018373
v -0.017122 0.055109 -0.018382
v -0.022375 0.053058 -0.018361
v -0.016738 0.056318 -0.018375
v -0.022142 0.064008 -0.01836
v -0.034838 0.067814 -0.018396
v -0.024871 0.069107 -0.018341
v -0.026704 0.07333 -0.018344
v -0.019255 0.06391 -0.001219
v -0.020414 0.065708 -0.002226
v -0.019895 0.064427 0.0005
v -0.014794 0.059446 -0.001397
v -0.0148 0.059265 0.0005
v -0.012757 0.058078 -0.001656
v -0.029607 0.087762 -0.016055
v -0.029132 0.090901 -0.013175
v -0.028412 0.087625 -0.011776
v -0.026168 0.076538 -0.012879
v -0.028379 0.081023 -0.016173
v -0.027164 0.080073 -0.012689
v -0.024857 0.072954 -0.01282
v -0.025414 0.076459 -0.008643
v -0.024277 0.072906 -0.009419
v -0.028782 0.079795 -0.018276
v -0.029671 0.083516 -0.018266
v -0.02141 0.067479 -0.003345
v -0.022925 0.070437 -0.005582
v -0.022867 0.070261 -0.002337
v -0.026401 0.079963 -0.008695
v -0.027211 0.083836 -0.008687
v -0.026818 0.083766 -0.00552
v -0.026106 0.080145 -0.005542
v -0.022471 0.069041 -0.008962
v -0.02401 0.072952 -0.006659
v -0.027039 0.076134 -0.016481
v -0.029972 0.090839 -0.01608
v -0.021632 0.067809 -0.006905
v -0.027972 0.083881 -0.012547
v -0.027804 0.087246 -0.008936
v -0.024143 0.073528 -0.002266
v -0.025231 0.076532 0.0005
v -0.02371 0.071725 0.0005
v -0.02496 0.076105 -0.002333
v -0.019169 0.064047 -0.003803
v -0.021075 0.063911 -0.016195
v -0.022944 0.065604 -0.018233
v -0.022784 0.066549 -0.016426
v -0.020613 0.066142 -0.006499
v -0.02905 0.085862 -0.015167
v -0.025096 0.076314 -0.005561
v -0.025887 0.079771 -0.002158
v -0.017682 0.058833 -0.016832
v -0.016434 0.058535 -0.014959
v -0.015954 0.056855 -0.016741
v -0.030469 0.089999 -0.017648
v -0.018497 0.062712 0.000498
v -0.01702 0.061136 0.000499
v -0.016118 0.060722 -0.003922
v -0.017304 0.061855 -0.003909
v -0.019076 0.063913 -0.006028
v -0.017171 0.061638 -0.006731
v -0.022908 0.069109 -0.011622
v -0.019265 0.063897 -0.008844
v -0.020724 0.065868 -0.009533
v -0.018112 0.062194 -0.010116
v -0.014497 0.059331 -0.00403
v -0.01968 0.063942 -0.011174
v -0.021136 0.065958 -0.011686
v -0.012776 0.058058 -0.003664
v -0.025647 0.072489 -0.016441
v -0.02714 0.087573 -0.001987
v -0.0275 0.090906 -0.002675
v -0.026928 0.085893 0.0005
v -0.015006 0.059572 -0.0067
v -0.013196 0.058206 -0.006615
v -0.023371 0.069157 -0.013695
v -0.016478 0.060556 -0.009345
v -0.027382 0.087561 -0.005642
v -0.021132 0.065186 -0.013707
v -0.018484 0.061779 -0.012998
v -0.027692 0.090924 -0.00511
v -0.021907 0.067708 0.0005
v -0.014871 0.059237 -0.008387
v -0.026638 0.08389 -0.002068
v -0.026326 0.081719 0.0005
v -0.016921 0.060492 -0.011451
v -0.013466 0.057853 -0.009183
v -0.015293 0.059141 -0.010521
v -0.017248 0.059981 -0.013836
v -0.024567 0.07002 -0.016484
v -0.019684 0.061666 -0.016516
v -0.014134 0.057705 -0.011667
v -0.028174 0.090849 -0.008902
v -0.01573 0.058905 -0.012527
v -0.014909 0.057513 -0.0139
v -0.030712 0.089173 -0.018191
v -0.030367 0.090649 -0.016912
v -0.012435 0.056984 -0.001155
v -0.012538 0.057144 -0.003619
v -0.012491 0.057554 -0.002275
v -0.015881 0.056156 -0.016804
v -0.016691 0.055683 -0.018311
v -0.012669 0.056627 -0.003447
v -0.016016 0.055654 -0.016636
v -0.017033 0.055002 -0.018224
v -0.014809 0.056902 -0.014281
v -0.014559 0.056234 -0.013109
v -0.013953 0.056976 -0.011681
v -0.013405 0.0567 -0.009173
v -0.013923 0.056201 -0.009872
v -0.013644 0.057387 -0.010442
v -0.013155 0.057283 -0.008358
v -0.012886 0.056976 -0.006536
v -0.012763 0.057586 -0.005908
v -0.02614 0.05125 -0.018311
vn 0.0001 -0.0027 1
vn 0.0004 0.0003 1
vn 0.0117 -0.0112 0.9999
vn 0.0176 0.9998 -0.0045
vn 0.0011 1 0.002
vn 0.0001 1 -0.0034
vn -0.0044 1 0.001
vn 0.0076 1 -0.001
vn 0.0067 1 -0.0013
vn 0.0109 0.9999 -0.0025
vn 0.014 0.9999 -0.0018
vn 0.0178 0.9998 -0.0041
vn 0.4505 -0.8926 0.0174
vn 0.3992 -0.9157 0.045
vn 0.5214 -0.8532 -0.0117
vn 0.4704 -0.8824 0.0063
vn 0.4554 -0.8899 -0.0252
vn 0.691 -0.7228 0.0023
vn 0.6195 -0.785 -0.0011
vn 0.344 -0.9389 0.0078
vn 0.4425 -0.8951 0.0545
vn 0.4985 -0.8668 0.0068
vn 0.3717 -0.9283 -0.01
vn 0.5206 -0.8538 -0.0054
vn 0.4507 -0.8915 0.0456
vn 0.3249 -0.9452 0.0319
vn 0.2551 -0.9654 -0.0544
vn 0.3596 -0.9331 0.0031
vn 0.2578 -0.9646 -0.0559
vn 0.3227 -0.9453 0.047
vn 0.3072 -0.9497 -0.0614
vn 0.3033 -0.9511 -0.0575
vn 0.4811 -0.8761 -0.0313
vn 0.5 -0.8654 0.0316
vn 0.4908 -0.8702 0.043
vn 0.617 -0.787 -0.0002
vn 0.6304 -0.7762 -0.0042
vn 0.5512 -0.8338 0.0328
vn 0.4193 -0.9077 -0.0144
vn 0.4056 -0.914 -0.0049
vn 0.5692 -0.8222 0.0084
vn 0.2811 -0.9596 -0.0105
vn 0.3566 -0.9334 -0.0392
vn 0.2824 -0.9592 -0.0101
vn 0.3172 -0.948 -0.0253
vn 0.4078 -0.9129 0.0167
vn 0.4471 -0.8944 -0.0129
vn 0.6391 -0.7691 0.0012
vn 0.6086 -0.793 0.0275
vn 0.3961 -0.917 -0.0482
vn 0.4026 -0.9138 -0.0542
vn 0.6377 -0.7703 -0.0025
vn 0.3791 -0.9235 0.0594
vn 0.658 -0.753 0.002
vn 0.5636 -0.8257 -0.0232
vn 0.6747 -0.7381 -0.0042
vn 0.6938 -0.7202 -0.0065
vn 0.3268 -0.9442 0.0416
vn 0.5693 -0.822 0.0106
vn 0.2793 -0.96 0.0192
vn 0.352 -0.9355 -0.0307
vn 0.4165 -0.9091 0.0119
vn 0.3104 -0.9505 -0.0165
vn 0.5909 -0.8067 -0.0062
vn -0.932 0.0557 0.3582
vn -0.8859 0.2164 0.4104
vn 0.0091 -0.0061 -0.9999
vn 0.0031 0.0005 -1
vn 0.0079 -0.0077 -0.9999
vn 0.0131 0.0044 -0.9999
vn 0.009 -0.0066 -0.9999
vn 0.0312 0.0174 -0.9994
vn 0.0084 -0.0022 -1
vn -0.0124 -0.0104 -0.9999
vn 0.0006 -0.0022 -1
vn -0.0038 -0.0005 -1
vn 0.0052 0.0043 -1
vn 0.0068 -0.0031 -1
vn 0.0016 0.0003 -1
vn 0.0002 0.0044 -1
vn 0.0028 -0.0001 -1
vn 0.0047 0.0062 -1
vn 0.0053 0.0017 -1
vn 0.0073 -0.0012 -1
vn 0.0093 0.0024 -1
vn 0.8017 0.5851 0.1223
vn 0.5369 0.8396 0.0824
vn 0.5614 0.8261 0.0489
vn 0.9593 0.0978 -0.2649
vn 0.9286 0.2752 -0.2488
vn 0.9308 0.3314 -0.1541
vn 0.9281 0.3367 -0.1589
vn 0.9255 0.222 -0.3069
vn 0.8871 0.4614 0.0091
vn 0.9722 0.2035 -0.1161
vn 0.9759 0.1926 -0.1026
vn 0.9229 0.3835 -0.0345
vn 0.9283 0.2706 -0.2549
vn 0.9541 0.1109 -0.2783
vn 0.8943 0.4472 -0.0146
vn 0.9704 0.1525 -0.1875
vn 0.9696 0.1546 -0.1894
vn 0.9524 0.3012 0.0473
vn 0.9519 0.3029 0.0453
vn 0.8243 0.5633 0.0574
vn 0.8054 0.4931 -0.3289
vn 0.8135 0.4394 -0.3809
vn 0.869 0.4947 0.0097
vn 0.9062 0.4122 -0.0944
vn 0.9525 0.1571 -0.2611
vn 0.9048 0.2689 -0.3303
vn 0.8789 0.4708 -0.0764
vn 0.9664 0.2548 -0.0343
vn 0.9689 0.2462 -0.025
vn 0.7067 0.6 -0.3749
vn 0.663 0.5561 -0.5012
vn 0.7208 0.5382 -0.4367
vn 0.8537 0.5207 -0.0052
vn 0.9298 0.1074 -0.352
vn 0.7271 0.6813 0.0846
vn 0.7618 0.645 0.0597
vn 0.7783 0.6214 0.0897
vn 0.8996 0.2543 -0.3551
vn 0.7646 0.6444 -0.0134
vn 0.634 0.7712 0.0572
vn 0.69 0.7223 0.0462
vn 0.8098 0.5863 0.0217
vn 0.9283 0.3607 0.0898
vn 0.8999 0.4102 -0.1477
vn 0.9035 0.4058 -0.1379
vn 0.8121 0.5807 -0.0579
vn 0.7801 0.6148 -0.1158
vn 0.7572 0.6509 -0.0546
vn 0.6524 0.7568 0.0402
vn 0.9091 0.3281 -0.2567
vn 0.928 0.1024 -0.3581
vn 0.9631 0.2017 -0.1784
vn 0.9596 0.2106 -0.1868
vn 0.8232 0.5678 0.0001
vn 0.6902 0.7233 -0.023
vn 0.8184 0.5586 -0.1347
vn 0.8191 0.5579 -0.1335
vn 0.9498 0.1661 -0.2652
vn 0.5599 0.8281 0.0267
vn 0.5962 0.8027 -0.0133
vn 0.9073 0.3437 -0.2421
vn 0.9945 0.1019 -0.0261
vn 0.9951 0.0969 -0.0194
vn 0.6904 0.7231 -0.0231
vn 0.8927 0.3184 -0.3189
vn 0.6 0.7987 -0.0455
vn 0.8589 0.5063 -0.077
vn 0.8696 0.4899 -0.0612
vn 0.8982 0.3957 -0.1916
vn 0.6866 0.7178 -0.1151
vn 0.9575 0.2684 -0.1052
vn 0.9632 0.2543 -0.0872
vn 0.7752 0.619 -0.1259
vn 0.6483 0.7594 -0.055
vn 0.9934 0.0935 -0.0661
vn 0.6031 0.7965 -0.043
vn 0.8174 0.5387 -0.2043
vn 0.7848 0.5911 -0.1863
vn 0.9533 0.3019 -0.0108
vn 0.726 0.6819 -0.0898
vn 0.9495 0.3131 -0.0198
vn 0.9916 0.1036 -0.0775
vn 0.7948 0.5827 -0.1698
vn 0.9107 0.4087 0.0598
vn 0.8236 0.5123 -0.2435
vn 0.6646 0.7413 -0.0941
vn 0.8793 0.3319 -0.3416
vn 0.6021 0.791 -0.109
vn 0.9898 0.1428 0.0003
vn 0.9908 0.1349 0.0067
vn 0.737 0.6528 -0.175
vn 0.8284 0.5544 -0.0802
vn 0.7291 0.6579 -0.1887
vn 0.6409 0.7485 -0.1704
vn 0.8558 0.4971 -0.1431
vn 0.8632 0.488 -0.1292
vn 0.6832 0.7109 -0.167
vn 0.684 0.7104 -0.1656
vn 0.6448 0.7472 -0.1611
vn 0.7463 0.6226 -0.2355
vn 0.8798 0.4026 -0.2527
vn 0.8869 0.3923 -0.2439
vn 0.7949 0.5339 -0.2883
vn 0.665 0.7134 -0.2211
vn 0.9842 0.1123 -0.1367
vn 0.9865 0.1028 -0.1276
vn 0.6961 0.6796 -0.2315
vn 0.6908 0.6819 -0.2406
vn 0.6606 0.7153 -0.2279
vn 0.7305 0.6275 -0.2694
vn 0.9501 0.1841 -0.2517
vn 0.9834 0.1787 0.0315
vn 0.7707 0.5286 -0.3559
vn 0.7714 0.4854 -0.4116
vn 0.6702 0.6826 -0.2914
vn 0.7541 0.5694 -0.3273
vn 0.6764 0.6498 -0.3468
vn 0.9454 0.1393 -0.2948
vn 0.9315 0.3638 0.003
vn 0.9214 0.3878 -0.023
vn 0.8553 0.4846 -0.1836
vn 0.8566 0.4835 -0.1803
vn 0.6844 0.6136 -0.3938
vn 0.7221 0.5562 -0.4113
vn 0.8662 0.441 -0.235
vn 0.7616 0.6481 -0.0073
vn 0.9873 0.1446 -0.0658
vn 0.9891 0.136 -0.0565
vn 0.6427 0.7624 0.0753
vn 0.9404 0.3303 -0.0813
vn 0.9784 0.2066 0.0102
vn 0.9276 0.1614 -0.3368
vn 0.7869 0.5563 -0.2669
vn 0.8685 0.3854 -0.3119
vn 0.8671 0.3763 -0.3265
vn 0.9754 0.1023 -0.1953
vn 0.9455 0.2759 -0.173
vn 0.6651 0.6852 -0.297
vn 0.9501 0.2654 -0.1642
vn 0.7109 0.6349 -0.3026
vn 0.9396 0.2095 -0.2705
vn 0.8953 0.4364 0.09
vn 0.8379 0.4732 -0.2718
vn 0.9217 0.1973 -0.3339
vn 0.969 0.1209 -0.2157
vn 0.8372 0.4242 -0.3452
vn 0.9417 0.3223 -0.0964
vn 0.8494 0.5211 0.0831
vn 0.9827 0.1422 -0.1187
vn 0.8372 0.4509 -0.3097
vn 0.9795 0.1931 -0.058
vn 0.9827 0.1802 -0.0436
vn 0.9686 0.2423 0.056
vn 0.7715 0.6287 0.0979
vn 0.847 0.5257 0.0784
vn 0.9772 0.1595 -0.1403
vn 0.0051 0.2358 -0.9718
vn -0.0526 0.9205 -0.3871
vn 0.0351 0.9422 -0.3331
vn 0.0469 0.7452 -0.6652
vn -0.0044 0.6837 -0.7297
vn -0.0181 0.4749 -0.8799
vn 0.0321 0.5427 -0.8393
vn -0.0026 0.2139 -0.9768
vn 0.999 0.0171 -0.0408
vn 0.8785 0.0179 -0.4774
vn 0.8758 0.1326 -0.4641
vn 0.9635 -0.2615 -0.0575
vn 0.8228 -0.4559 -0.3393
vn 0.8663 -0.3515 -0.3549
vn 0.8346 0.3833 -0.3957
vn 0.9238 -0.3022 -0.235
vn 0.8979 0.131 -0.4203
vn 0.9189 -0.2249 -0.3241
vn 0.887 -0.3421 -0.3102
vn 0.7224 -0.6651 -0.1891
vn 0.7773 -0.6198 -0.1079
vn 0.8748 0.3512 -0.3338
vn 0.9214 0.2345 -0.31
vn 0.8852 0.4651 -0.0127
vn 0.9356 -0.1814 -0.3028
vn 0.6521 -0.7459 -0.1357
vn 0.5233 -0.849 -0.0729
vn -0.7764 -0.542 0.3217
vn 0.973 -0.069 -0.2202
vn 0.9694 -0.1742 -0.1727
vn 0.9874 -0.0409 -0.1529
vn 0.8653 0.4915 -0.0987
vn 0.8584 -0.4995 -0.1168
vn 0.6847 -0.7262 -0.0619
vn 0.9902 -0.0825 -0.1131
vn 0.9569 -0.2733 -0.0982
vn 0.9365 0.3441 -0.0672
vn 0.9895 0.1243 -0.0731
vn 0.9685 -0.0915 -0.2315
vn 0.9537 0.2126 -0.2128
vn 0.7773 0.6254 0.0689
vn 0.8985 0.4388 0.0153
vn 0.9499 0.2532 -0.1833
vn 0.9901 0.1384 0.0213
vn 0.9956 0.0846 0.0415
vn 0.9182 -0.3949 -0.0321
vn 0.8621 -0.506 -0.0263
vn 0.5089 -0.8585 -0.0636
vn 0.8923 0.368 -0.2617
vn 0.5235 -0.8488 -0.0736
vn 0.9219 0.2346 -0.3082
vn 0.8839 0.4417 -0.1538
vn 0.5192 -0.8531 -0.0514
vn 0.7891 -0.5928 -0.1611
vn 0.7628 -0.6372 -0.1099
vn 0.3351 -0.6894 -0.6422
vn 0.4668 -0.8096 -0.356
vn 0.2241 -0.4124 -0.883
vn 0.4061 -0.6707 -0.6206
vn 0.2453 -0.3437 -0.9065
vn 0.4967 -0.767 -0.4061
vn 0.2792 -0.7218 -0.6333
vn 0.1793 -0.5252 -0.8319
vn 0.2845 -0.6126 -0.7374
vn 0.4796 -0.5385 -0.6928
vn 0.5342 -0.5857 -0.6096
vn 0.5135 -0.5553 -0.6541
vn 0.4841 -0.6211 -0.6164
vn 0.4893 -0.629 -0.6042
vn 0.255 -0.6346 -0.7296
vn 0.3687 -0.7815 -0.5034
vn 0.6492 -0.4077 -0.6421
vn 0.2603 -0.0768 -0.9625
vn 0.3769 -0.6542 -0.6557
vn 0.4655 0.1137 -0.8777
vn 0.5242 0.0823 -0.8476
vn 0.7424 0.146 -0.6539
vn 0.8246 0.4427 -0.3521
vn 0.6307 0.1914 -0.7521
vn 0.5926 0.3136 -0.7419
vn 0.7874 0.4037 -0.4659
vn 0.5107 0.753 -0.4149
vn 0.562 0.813 -0.1522
vn 0.7257 0.675 -0.1334
vn 0.8144 0.5689 -0.1148
vn 0.4675 0.8828 -0.0454
vn 0.6489 0.7595 -0.0455
vn 0.715 0.6989 -0.0187
vn 0.5491 0.8357 0.0008
vn 0.7831 0.5743 -0.2387
vn 0.8691 0.4569 -0.1892
vn -0.9985 0 0.0544
f 1//1 2//1 3//1
f 4//2 5//2 6//2
f 7//3 6//3 8//3
f 9//4 10//4 11//4
f 12//5 1//5 3//5
f 9//6 13//6 10//6
f 14//7 15//7 12//7
f 16//8 14//8 12//8
f 16//9 12//9 3//9
f 17//10 14//10 16//10
f 17//11 10//11 14//11
f 11//12 10//12 17//12
f 18//13 19//13 20//13
f 19//14 21//14 22//14
f 23//15 24//15 25//15
f 18//16 20//16 24//16
f 24//17 26//17 27//17
f 28//18 29//18 30//18
f 28//19 31//19 32//19
f 22//20 33//20 34//20
f 19//21 35//21 21//21
f 36//22 18//22 24//22
f 37//23 34//23 38//23
f 23//24 36//24 24//24
f 18//25 35//25 19//25
f 22//26 39//26 33//26
f 40//27 8//27 41//27
f 37//28 22//28 34//28
f 40//29 42//29 8//29
f 43//30 44//30 39//30
f 45//31 41//31 46//31
f 45//32 40//32 41//32
f 25//33 24//33 27//33
f 47//34 18//34 36//34
f 47//35 35//35 18//35
f 48//36 28//36 32//36
f 48//37 29//37 28//37
f 49//38 47//38 36//38
f 20//39 37//39 38//39
f 20//40 38//40 26//40
f 29//41 36//41 23//41
f 50//42 42//42 40//42
f 38//43 45//43 46//43
f 33//44 50//44 40//44
f 34//45 40//45 45//45
f 19//46 22//46 37//46
f 24//47 20//47 26//47
f 51//48 29//48 48//48
f 52//49 49//49 29//49
f 26//50 46//50 27//50
f 26//51 38//51 46//51
f 51//52 52//52 29//52
f 22//53 21//53 43//53
f 53//54 52//54 51//54
f 23//55 25//55 30//55
f 53//56 51//56 54//56
f 55//57 53//57 54//57
f 43//58 39//58 22//58
f 49//59 36//59 29//59
f 33//60 39//60 50//60
f 38//61 34//61 45//61
f 20//62 19//62 37//62
f 34//63 33//63 40//63
f 29//64 23//64 30//64
f 56//65 57//65 58//65
f 59//66 60//66 55//66
f 61//67 62//67 63//67
f 61//68 63//68 64//68
f 65//69 60//69 59//69
f 66//70 61//70 64//70
f 67//71 65//71 59//71
f 68//72 66//72 64//72
f 69//73 67//73 59//73
f 70//74 67//74 69//74
f 71//75 70//75 69//75
f 72//76 73//76 74//76
f 72//77 75//77 73//77
f 72//78 74//78 71//78
f 72//79 71//79 69//79
f 76//80 72//80 69//80
f 76//81 69//81 77//81
f 78//82 76//82 77//82
f 79//83 78//83 77//83
f 79//84 77//84 63//84
f 62//85 79//85 63//85
f 80//86 81//86 82//86
f 83//87 84//87 5//87
f 83//88 5//88 85//88
f 86//89 87//89 88//89
f 89//90 90//90 91//90
f 92//91 93//91 94//91
f 92//92 89//92 93//92
f 95//93 96//93 90//93
f 97//94 98//94 99//94
f 100//95 101//95 102//95
f 100//96 102//96 103//96
f 104//97 105//97 98//97
f 106//98 90//98 89//98
f 86//99 107//99 87//99
f 108//100 98//100 97//100
f 109//101 88//101 110//101
f 109//102 110//102 101//102
f 111//103 112//103 113//103
f 111//104 114//104 112//104
f 115//105 81//105 80//105
f 116//106 117//106 118//106
f 116//107 76//107 117//107
f 119//108 97//108 81//108
f 104//109 94//109 105//109
f 120//110 86//110 88//110
f 106//111 95//111 90//111
f 108//112 104//112 98//112
f 121//113 103//113 122//113
f 121//114 122//114 114//114
f 123//115 124//115 125//115
f 123//116 125//116 75//116
f 123//117 75//117 72//117
f 119//118 108//118 97//118
f 86//119 126//119 107//119
f 127//120 128//120 129//120
f 130//121 115//121 80//121
f 130//122 80//122 127//122
f 62//123 95//123 106//123
f 131//124 130//124 132//124
f 83//125 129//125 128//125
f 130//126 127//126 129//126
f 115//127 119//127 81//127
f 99//128 111//128 113//128
f 133//129 92//129 94//129
f 133//130 94//130 104//130
f 134//131 135//131 131//131
f 134//132 132//132 136//132
f 134//133 131//133 132//133
f 137//134 129//134 83//134
f 106//135 89//135 92//135
f 68//136 126//136 86//136
f 91//137 101//137 100//137
f 91//138 109//138 101//138
f 131//139 119//139 115//139
f 129//140 132//140 130//140
f 138//141 135//141 134//141
f 138//142 139//142 135//142
f 109//143 120//143 88//143
f 137//144 83//144 85//144
f 137//145 85//145 140//145
f 141//146 106//146 92//146
f 142//147 143//147 2//147
f 142//148 2//148 144//148
f 132//149 129//149 145//149
f 79//150 62//150 106//150
f 137//151 140//151 146//151
f 135//152 108//152 119//152
f 135//153 104//153 108//153
f 147//154 92//154 133//154
f 132//155 145//155 148//155
f 93//156 100//156 103//156
f 93//157 103//157 121//157
f 138//158 134//158 136//158
f 145//159 129//159 137//159
f 149//160 143//160 142//160
f 145//161 137//161 146//161
f 150//162 139//162 138//162
f 138//163 136//163 151//163
f 105//164 114//164 111//164
f 148//165 136//165 132//165
f 105//166 121//166 114//166
f 152//167 143//167 149//167
f 150//168 138//168 151//168
f 99//169 113//169 153//169
f 150//170 116//170 118//170
f 154//171 148//171 145//171
f 141//172 79//172 106//172
f 154//173 145//173 146//173
f 155//174 144//174 156//174
f 155//175 142//175 144//175
f 157//176 136//176 148//176
f 135//177 119//177 131//177
f 157//178 151//178 136//178
f 154//179 146//179 158//179
f 139//180 104//180 135//180
f 139//181 133//181 104//181
f 159//182 148//182 154//182
f 159//183 157//183 148//183
f 159//184 154//184 158//184
f 151//185 157//185 160//185
f 161//186 92//186 147//186
f 161//187 141//187 92//187
f 162//188 116//188 151//188
f 159//189 158//189 163//189
f 110//190 152//190 149//190
f 110//191 164//191 152//191
f 165//192 157//192 159//192
f 165//193 160//193 157//193
f 165//194 159//194 163//194
f 160//195 162//195 151//195
f 90//196 120//196 109//196
f 122//197 155//197 156//197
f 162//198 76//198 116//198
f 162//199 72//199 76//199
f 165//200 163//200 166//200
f 123//201 162//201 160//201
f 160//202 124//202 123//202
f 96//203 86//203 120//203
f 98//204 111//204 99//204
f 98//205 105//205 111//205
f 150//206 133//206 139//206
f 150//207 147//207 133//207
f 124//208 166//208 125//208
f 123//209 72//209 162//209
f 118//210 161//210 147//210
f 131//211 115//211 130//211
f 102//212 149//212 142//212
f 102//213 142//213 155//213
f 83//214 128//214 84//214
f 105//215 93//215 121//215
f 122//216 156//216 112//216
f 96//217 68//217 86//217
f 116//218 150//218 151//218
f 161//219 79//219 141//219
f 78//220 79//220 161//220
f 88//221 164//221 110//221
f 89//222 91//222 100//222
f 124//223 165//223 166//223
f 89//224 100//224 93//224
f 160//225 165//225 124//225
f 90//226 109//226 91//226
f 97//227 99//227 153//227
f 118//228 147//228 150//228
f 96//229 120//229 90//229
f 88//230 87//230 164//230
f 118//231 78//231 161//231
f 94//232 93//232 105//232
f 81//233 153//233 82//233
f 101//234 149//234 102//234
f 117//235 78//235 118//235
f 103//236 102//236 155//236
f 103//237 155//237 122//237
f 114//238 122//238 112//238
f 127//239 80//239 82//239
f 81//240 97//240 153//240
f 101//241 110//241 149//241
f 68//242 58//242 167//242
f 168//243 56//243 13//243
f 168//244 13//244 9//244
f 126//245 56//245 168//245
f 126//246 57//246 56//246
f 167//247 58//247 57//247
f 167//248 57//248 126//248
f 68//249 64//249 58//249
f 169//250 170//250 171//250
f 172//251 173//251 75//251
f 172//252 75//252 125//252
f 169//253 174//253 170//253
f 175//254 176//254 173//254
f 175//255 173//255 172//255
f 177//256 125//256 166//256
f 178//257 179//257 180//257
f 177//258 172//258 125//258
f 178//259 172//259 177//259
f 178//260 175//260 172//260
f 178//261 176//261 175//261
f 180//262 174//262 42//262
f 163//263 177//263 166//263
f 179//264 177//264 163//264
f 171//265 140//265 85//265
f 179//266 178//266 177//266
f 181//267 176//267 178//267
f 50//268 176//268 181//268
f 50//269 39//269 176//269
f 182//270 180//270 179//270
f 183//271 184//271 180//271
f 184//272 183//272 185//272
f 185//273 146//273 140//273
f 184//274 174//274 180//274
f 42//275 174//275 7//275
f 170//276 184//276 185//276
f 174//277 184//277 170//277
f 171//278 185//278 140//278
f 170//279 185//279 171//279
f 182//280 183//280 180//280
f 182//281 158//281 183//281
f 85//282 5//282 4//282
f 171//283 85//283 4//283
f 158//284 185//284 183//284
f 169//285 171//285 4//285
f 169//286 4//286 6//286
f 6//287 174//287 169//287
f 7//288 174//288 6//288
f 176//289 39//289 44//289
f 158//290 182//290 163//290
f 181//291 42//291 50//291
f 163//292 182//292 179//292
f 158//293 146//293 185//293
f 42//294 7//294 8//294
f 178//295 180//295 181//295
f 180//296 42//296 181//296
f 21//297 35//297 186//297
f 47//298 186//298 35//298
f 47//299 71//299 186//299
f 47//300 70//300 71//300
f 67//301 70//301 47//301
f 49//302 67//302 47//302
f 74//303 73//303 43//303
f 43//304 73//304 44//304
f 74//305 186//305 71//305
f 65//306 52//306 53//306
f 60//307 65//307 53//307
f 60//308 53//308 55//308
f 65//309 67//309 49//309
f 65//310 49//310 52//310
f 21//311 74//311 43//311
f 74//312 21//312 186//312
f 73//313 173//313 176//313
f 73//314 75//314 173//314
f 73//315 176//315 44//315
f 96//316 95//316 61//316
f 66//317 68//317 96//317
f 61//318 66//318 96//318
f 117//319 76//319 78//319
f 61//320 95//320 62//320
f 126//321 68//321 167//321
f 107//322 126//322 168//322
f 9//323 107//323 168//323
f 11//324 87//324 9//324
f 17//325 164//325 11//325
f 152//326 164//326 17//326
f 152//327 17//327 16//327
f 143//328 152//328 16//328
f 143//329 16//329 2//329
f 3//330 2//330 16//330
f 107//331 9//331 87//331
f 11//332 164//332 87//332
f 12//333 1//333 1//333