o obj1
v -0.073502 0.014722 -0.013703
v -0.073495 0.012682 -0.008843
v -0.073503 0.013781 -0.008539
v -0.073489 0.012146 -0.003037
v -0.073499 0.012024 0.0005
v -0.0735 0.012654 0.0005
v -0.073501 0.0127 -0.001008
v -0.073502 0.01414 -0.015646
v -0.073459 0.015379 -0.016028
v -0.073501 0.01325 -0.003737
v -0.073499 0.013169 -0.0011
v -0.058384 0.002559 -0.00537
v -0.058365 0.00221 -0.00167
v -0.058813 0.002514 -0.005119
v -0.057715 0.00241 0.000499
v -0.057923 0.002351 -0.000944
v -0.05766 0.002627 -0.001661
v -0.059225 0.002637 -0.005043
v -0.058857 0.002235 -0.00173
v -0.05927 0.002439 -0.002297
v -0.057411 0.005379 -0.015328
v -0.057046 0.006832 -0.018215
v -0.057202 0.006084 -0.016306
v -0.057311 0.006394 -0.018251
v -0.057704 0.00517 -0.015727
v -0.057777 0.006122 -0.018346
v -0.05809 0.005021 -0.01589
v -0.058333 0.005983 -0.018293
v -0.059019 0.00559 -0.016878
v -0.058441 0.005378 -0.016868
v -0.058924 0.006274 -0.018316
v -0.058492 0.00456 -0.014637
v -0.058933 0.004714 -0.014852
v -0.059301 0.005114 -0.015129
v -0.057682 0.003914 -0.010612
v -0.057511 0.003977 -0.009411
v -0.057936 0.003705 -0.010763
v -0.058499 0.003816 -0.012073
v -0.059107 0.003653 -0.011084
v -0.058252 0.003609 -0.011035
v -0.059442 0.003904 -0.011135
v -0.057726 0.003187 -0.006864
v -0.057974 0.002915 -0.006666
v -0.058315 0.003018 -0.008207
v -0.058889 0.002965 -0.008156
v -0.05876 0.00333 -0.01001
v -0.059542 0.003202 -0.007379
v -0.057895 0.002496 -0.002639
v -0.05749 0.003288 -0.004506
v -0.058388 0.002119 0.000499
v -0.059273 0.002358 0.000499
v -0.057396 0.002847 0.000499
v -0.059556 0.002768 -0.00341
v -0.065298 0.010671 -0.01446
v -0.063724 0.00925 -0.013257
v -0.0639 0.008716 -0.01046
v -0.070334 0.014168 -0.01828
v -0.068739 0.012833 -0.0159
v -0.070404 0.013001 -0.014509
v -0.065439 0.009814 -0.010391
v -0.061831 0.009494 -0.018281
v -0.059883 0.007466 -0.018292
v -0.0606 0.007184 -0.016141
v -0.071911 0.013805 -0.016043
v -0.071956 0.012917 -0.012396
v -0.073384 0.01323 -0.01251
v -0.071958 0.012209 -0.008491
v -0.07048 0.011872 -0.009014
v -0.070339 0.011242 -0.003518
v -0.073381 0.012159 -0.005335
v -0.07178 0.011639 -0.003359
v -0.073385 0.011983 -0.002462
v -0.065844 0.009577 -0.007348
v -0.064234 0.008471 -0.007285
v -0.064082 0.008078 -0.004517
v -0.065636 0.009075 -0.003258
v -0.068825 0.010701 -0.00348
v -0.068012 0.0103 0.0005
v -0.070249 0.011122 0.0005
v -0.073381 0.013933 -0.015424
v -0.061665 0.007151 -0.012485
v -0.060928 0.005371 -0.008537
v -0.062479 0.007416 -0.010188
v -0.062446 0.006895 -0.007272
v -0.061929 0.008613 -0.016184
v -0.066743 0.011015 -0.012489
v -0.067414 0.010604 -0.008628
v -0.065366 0.012029 -0.018243
v -0.063439 0.009925 -0.016201
v -0.072231 0.014423 -0.017762
v -0.073028 0.014256 -0.016811
v -0.060104 0.005298 -0.012635
v -0.073292 0.01248 -0.008388
v -0.060394 0.004014 -0.003137
v -0.061267 0.005234 0.0005
v -0.068595 0.011871 -0.01242
v -0.061518 0.005475 -0.001452
v -0.06255 0.006609 -0.003158
v -0.063289 0.007335 0.0005
v -0.06891 0.011228 -0.008341
v -0.063992 0.007884 -0.001525
v -0.067193 0.009948 -0.003172
v -0.061609 0.005708 -0.004618
v -0.064016 0.011215 -0.01828
v -0.066987 0.011804 -0.014976
v -0.065453 0.008937 0.0005
v -0.067141 0.012938 -0.018209
v -0.055721 0.014262 -0.014707
v -0.055429 0.015105 -0.018253
v -0.054616 0.017774 -0.01822
v -0.056407 0.010875 -0.018163
v -0.056561 0.01072 -0.009762
v -0.052153 0.02416 -0.018324
v -0.05298 0.022116 -0.014075
v -0.052851 0.022472 -0.018232
v -0.055004 0.016679 -0.007303
v -0.055859 0.013709 -0.006774
v -0.057076 0.007378 -0.003952
v -0.055787 0.013669 0.0005
v -0.056999 0.007003 0.0005
v -0.057119 0.007455 -0.010521
v -0.053827 0.020061 -0.018242
v -0.053858 0.019881 -0.004239
v -0.053902 0.019738 -0.0011
v -0.054119 0.019149 -0.001065
v -0.054177 0.018988 0.0005
v -0.05672 0.009014 -0.018201
v -0.053618 0.020519 -0.00827
v -0.060622 0.008482 -0.018373
v -0.062404 0.010177 -0.018379
v -0.056329 0.012203 -0.018386
v -0.053373 0.02163 -0.018378
v -0.054132 0.022888 -0.018397
v -0.057288 0.006683 -0.018387
v -0.056914 0.008763 -0.018376
v -0.05892 0.020435 -0.018398
v -0.05507 0.016922 -0.018384
v -0.064816 0.018132 -0.018398
v -0.058592 0.0062 -0.018392
v -0.065079 0.01207 -0.018384
v -0.068114 0.013559 -0.018383
v -0.071011 0.016522 -0.018372
v -0.07105 0.014455 -0.018344
v -0.071915 0.014591 -0.018064
v -0.072249 0.016131 -0.017859
v -0.072691 0.014562 -0.017467
v -0.073038 0.015726 -0.017006
v -0.073329 0.01433 -0.016449
v -0.056294 0.011708 -0.018302
vn -1 -0.0075 -0.0016
vn -1 -0.0021 -0.0029
vn -0.9997 -0.0224 0
vn -1 -0.0023 0.0005
vn -0.9995 0.0311 -0.0095
vn -1 0.0058 0.0011
vn -0.9999 -0.0127 -0.0026
vn -0.9999 -0.0111 -0.0001
vn -1 -0.0078 -0.0004
vn 0.05 -0.9943 -0.0939
vn 0.6398 -0.7662 -0.0607
vn -0.3593 -0.9304 -0.0731
vn -0.3006 -0.9502 -0.082
vn 0.9256 -0.3721 -0.07
vn 0.8514 -0.5039 -0.1456
vn 0.5257 -0.7947 -0.3034
vn 0.1901 -0.9047 -0.3813
vn 0.4546 -0.833 -0.3154
vn -0.3119 -0.8658 -0.3914
vn 0.1272 -0.9164 -0.3796
vn -0.3895 -0.8214 -0.4167
vn 0.0056 -0.9389 -0.3442
vn -0.1585 -0.9258 -0.3431
vn -0.5887 -0.7508 -0.2995
vn 0.7152 -0.678 -0.1696
vn 0.9234 -0.3767 -0.0737
vn 0.435 -0.8689 -0.2362
vn 0.8721 -0.4793 -0.0989
vn 0.2297 -0.9349 -0.2707
vn 0.6866 -0.7054 -0.1762
vn -0.1975 -0.9412 -0.2742
vn 0.4615 -0.8558 -0.2336
vn 0.3096 -0.9157 -0.2561
vn -0.6207 -0.744 -0.2473
vn -0.1946 -0.9419 -0.2738
vn -0.555 -0.7936 -0.2491
vn 0.8443 -0.5278 -0.0924
vn 0.6834 -0.7181 -0.1312
vn 0.6766 -0.7242 -0.1333
vn 0.4223 -0.8891 -0.1764
vn 0.4738 -0.8655 -0.1624
vn -0.0394 -0.9958 -0.0824
vn 0.1724 -0.9687 -0.1784
vn 0.0714 -0.9767 -0.2026
vn -0.2529 -0.9458 -0.2036
vn -0.5017 -0.8497 -0.1625
vn 0.4067 -0.9107 -0.0715
vn 0.8841 -0.4622 -0.0687
vn -0.5741 -0.802 -0.1651
vn 0.3578 -0.9232 -0.1405
vn -0.2607 -0.9654 0.0046
vn 0.0761 -0.9846 -0.1573
vn -0.4837 -0.8635 -0.1431
vn 0.0181 -0.9889 -0.1474
vn -0.3075 -0.9423 -0.1324
vn 0.097 -0.9714 -0.2166
vn 0.8763 -0.4781 -0.0587
vn 0.3975 -0.9174 -0.0195
vn -0.4129 -0.9104 -0.0268
vn -0.1411 -0.9595 -0.2439
vn 0.451 -0.8868 -0.1011
vn 0.3777 -0.9217 -0.0887
vn 0.649 -0.7588 -0.0544
vn -0.6867 -0.7224 -0.0815
vn -0.6311 -0.7729 -0.0662
vn -0.0444 -0.9981 -0.0426
vn 0.704 -0.7049 -0.0871
vn 0.7252 -0.6836 -0.0828
vn -0.7184 -0.6954 -0.0209
vn 0.8067 -0.5897 -0.0388
vn 0.7349 -0.6481 -0.1997
vn 0.3555 -0.934 -0.0357
vn -0.316 -0.8757 -0.365
vn 0.8628 -0.5014 -0.0649
vn -0.5753 -0.7961 -0.188
vn -0.3287 -0.9004 -0.285
vn -0.5759 -0.7957 -0.1876
vn -0.6854 -0.6566 -0.3146
vn -0.1902 -0.9533 -0.2345
vn -0.2559 -0.9612 -0.1035
vn -0.2009 -0.9347 -0.2932
vn -0.2409 -0.9687 -0.0598
vn -0.5619 -0.8227 -0.0862
vn -0.5787 -0.8125 -0.0703
vn -0.3362 -0.9414 -0.0261
vn -0.345 -0.9384 -0.0203
vn -0.18 -0.9562 -0.2307
vn -0.7122 -0.6801 -0.1739
vn -0.6555 -0.7445 -0.1265
vn -0.6564 -0.7439 -0.1257
vn -0.6922 -0.6532 -0.3069
vn -0.2743 -0.9568 -0.0966
vn -0.2672 -0.9634 -0.0231
vn -0.4974 -0.8493 -0.1768
vn -0.5932 -0.7703 -0.2339
vn -0.2064 -0.9324 -0.2967
vn -0.1676 -0.9373 -0.3057
vn -0.1951 -0.9431 -0.2692
vn -0.7797 -0.5907 -0.2077
vn -0.4731 -0.8587 -0.1973
vn -0.2053 -0.9735 -0.1009
vn -0.8218 -0.5698 -0.0063
vn -0.8299 -0.5579 0.0016
vn -0.4189 -0.8924 -0.1677
vn -0.7794 -0.6262 0.0228
vn -0.1843 -0.9769 -0.1078
vn -0.516 -0.8092 -0.281
vn -0.7504 -0.6608 0.0148
vn -0.7205 -0.6934 -0.008
vn -0.617 -0.7148 -0.3293
vn -0.2679 -0.9632 -0.0228
vn -0.4073 -0.8968 -0.1728
vn -0.6498 -0.7599 0.0195
vn -0.8348 -0.547 -0.0629
vn -0.4908 -0.8672 -0.0843
vn -0.4986 -0.8631 -0.0806
vn -0.7543 -0.6167 -0.2252
vn -0.8037 -0.5947 -0.0207
vn -0.5899 -0.7491 -0.3013
vn -0.5799 -0.8053 -0.1232
vn -0.4969 -0.84 -0.218
vn -0.8265 -0.5598 -0.0588
vn -0.5951 -0.8036 -0.0113
vn -0.2066 -0.9784 0.0054
vn -0.7157 -0.6977 -0.0308
vn -0.31 -0.9352 -0.1714
vn -0.586 -0.8103 -0.0012
vn -0.7752 -0.6266 -0.0806
vn -0.478 -0.8357 -0.2704
vn -0.6791 -0.7335 -0.027
vn -0.4149 -0.8781 -0.2381
vn -0.7121 -0.6688 -0.2134
vn -0.4891 -0.7954 -0.358
vn -0.6756 -0.7205 -0.1563
vn -0.5572 -0.8189 -0.1379
vn -0.7352 -0.6743 -0.0696
vn -0.3495 -0.9168 -0.1932
vn -0.2765 -0.9456 -0.1717
vn -0.8024 -0.5825 -0.1302
vn -0.4403 -0.8476 -0.2961
vn -0.739 -0.5881 -0.3287
vn -0.4698 -0.8825 -0.0202
vn -0.4003 -0.8874 -0.2287
vn -0.2086 -0.963 -0.1708
vn -0.7409 -0.6685 -0.0652
vn -0.3646 -0.884 -0.2927
vn -0.4893 -0.8721 -0.0081
vn -0.3986 -0.9124 -0.0935
vn -0.4026 -0.9108 -0.0917
vn -0.1974 -0.9646 -0.1751
vn -0.7431 -0.6055 -0.2848
vn -0.2201 -0.9549 -0.1992
vn -0.5608 -0.8272 -0.0366
vn -0.2961 -0.9237 -0.2431
vn -0.6568 -0.7508 -0.0708
vn -0.6595 -0.7486 -0.0687
vn -0.6444 -0.7427 -0.1821
vn -0.8175 -0.5548 -0.1545
vn -0.7481 -0.6547 -0.1087
vn -0.4661 -0.8751 -0.1301
vn -0.6342 -0.7335 -0.2445
vn -0.6514 -0.7234 -0.2288
vn -0.4178 -0.9085 -0.0062
vn -0.7783 -0.5927 -0.2071
vn -0.7423 -0.5864 -0.3243
vn -0.2647 -0.9362 -0.2312
vn -0.7629 -0.6307 -0.1421
vn -0.3401 -0.8988 -0.2765
vn -0.3424 -0.9347 -0.0954
vn -0.3331 -0.9377 -0.0988
vn 0.9566 -0.2913 0.0095
vn 0.9771 -0.2124 0.0141
vn 0.9241 -0.382 -0.0039
vn 0.9609 -0.277 -0.0026
vn 0.9834 -0.1787 -0.0322
vn 0.985 -0.1718 0.0149
vn 0.9741 -0.2247 0.0267
vn 0.9876 -0.1551 0.0226
vn 0.994 -0.1084 0.0115
vn 0.9949 -0.0972 -0.0255
vn 0.9951 -0.095 -0.0271
vn 0.9758 -0.2186 -0.0108
vn 0.9452 -0.3264 0.0008
vn 0.986 -0.1665 -0.0084
vn 0.9381 -0.3465 -0.0026
vn 0.9413 -0.3375 0.0001
vn 0.9822 -0.1868 -0.0204
vn 0.9862 -0.1656 -0.0051
vn 0.9383 -0.3457 -0.0024
vn 0.9732 -0.2297 0.0009
vn 0.9552 -0.2961 0.0042
vn 0.926 -0.3774 -0.002
vn 0.9888 -0.1478 0.0231
vn 0.9427 -0.3335 -0.0017
vn 0.995 -0.0982 -0.0181
vn 0.9934 -0.1144 -0.0078
vn 0.9307 -0.3657 -0.0027
vn 0.957 -0.2897 -0.0157
vn 0.9269 -0.3753 -0.0033
vn 0.9604 -0.2783 -0.011
vn 0.0001 -0.0037 -1
vn 0.0338 0.005 -0.9994
vn -0.0013 0.0054 -1
vn 0.0061 -0.0117 -0.9999
vn 0.0036 -0.0001 -1
vn 0.0033 -0.0003 -1
vn -0.0003 -0.0024 -1
vn 0.0008 0.0093 -1
vn 0.0005 -0.0012 -1
vn 0.0458 -0.1123 -0.9926
vn 0.0002 -0.0022 -1
vn -0.0013 -0.0021 -1
vn -0.0041 -0.0001 -1
vn -0.0176 -0.0133 -0.9998
vn -0.0007 -0.0028 -1
vn -0.3089 -0.0072 -0.9511
vn -0.3921 0.0368 -0.9192
vn -0.7436 0.0429 -0.6672
vn -0.6083 -0.0268 -0.7932
vn -0.843 -0.0384 -0.5365
vn -0.9226 0.0392 -0.3837
vn -0.9754 -0.0339 -0.218
vn -0.5801 -0.8082 -0.1016
vn -0.8047 -0.5932 -0.0228
vn -0.7766 -0.6123 -0.1483
vn -0.8734 -0.4849 -0.0439
vn -0.7724 -0.6339 -0.0401
vn -0.8966 -0.4333 -0.0919
vn -0.5231 -0.8404 -0.1414
vn -0.6425 -0.7028 -0.3053
vn -0.5735 -0.7535 -0.3215
vn -0.7536 -0.3557 -0.5527
vn -0.5481 -0.614 -0.5679
vn -0.5762 -0.2899 -0.7642
vn -0.3259 -0.6398 -0.6961
vn -0.2607 -0.7784 -0.5711
vn -0.296 -0.3755 -0.8783
vn -0.4415 -0.3859 -0.81
vn -0.2615 -0.1916 -0.946
vn -0.3544 -0.7223 -0.5939
vn -0.1812 -0.5186 -0.8356
vn -0.3273 -0.3093 -0.8929
vn -0.2995 -0.5553 -0.7759
vn -0.2268 -0.714 -0.6624
vn -0.478 -0.5053 -0.7185
vn -0.3221 -0.4982 -0.805
vn -0.4448 -0.63 -0.6366
vn 0.6766 -0.3569 -0.644
vn 0.4079 -0.415 -0.8132
vn -0.307 -0.6739 -0.672
vn 0.0138 -0.402 -0.9156
vn 0.6002 -0.2396 -0.7631
vn 0.8192 -0.2009 -0.5372
vn 0.4893 -0.1121 -0.8649
vn 0.709 -0.1888 -0.6795
vn 0.7101 -0.2517 -0.6576
vn 0.7475 -0.2688 -0.6074
vn 0.701 -0.3243 -0.6351
vn 0.6187 -0.107 -0.7783
vn 0.7371 -0.1058 -0.6675
vn 0.7579 -0.1435 -0.6364
vn 0.5666 -0.0987 -0.8181
vn 0.9727 -0.16 -0.1682
vn 0.6094 -0.1759 -0.7731
vn 0 0.9995 0.0314
f 1//1 2//1 3//1
f 4//2 5//2 6//2
f 7//3 4//3 6//3
f 1//4 8//4 2//4
f 9//5 8//5 1//5
f 10//6 7//6 11//6
f 10//7 4//7 7//7
f 10//8 2//8 4//8
f 3//9 2//9 10//9
f 12//10 13//10 14//10
f 15//11 16//11 17//11
f 18//12 19//12 20//12
f 18//13 14//13 19//13
f 21//14 22//14 23//14
f 24//15 22//15 21//15
f 25//16 26//16 24//16
f 27//17 28//17 26//17
f 27//18 26//18 25//18
f 29//19 28//19 30//19
f 30//20 28//20 27//20
f 29//21 31//21 28//21
f 32//22 30//22 27//22
f 33//23 30//23 32//23
f 34//24 29//24 33//24
f 25//25 21//25 35//25
f 36//26 21//26 23//26
f 27//27 25//27 37//27
f 35//28 21//28 36//28
f 32//29 27//29 38//29
f 37//30 25//30 35//30
f 39//31 33//31 32//31
f 40//32 27//32 37//32
f 38//33 27//33 40//33
f 41//34 34//34 33//34
f 39//35 32//35 38//35
f 41//36 33//36 39//36
f 42//37 35//37 36//37
f 43//38 35//38 42//38
f 43//39 37//39 35//39
f 44//40 40//40 37//40
f 44//41 37//41 43//41
f 13//42 19//42 14//42
f 45//43 46//43 40//43
f 45//44 40//44 44//44
f 45//45 39//45 46//45
f 47//46 39//46 45//46
f 16//47 13//47 48//47
f 42//48 36//48 49//48
f 47//49 41//49 39//49
f 12//50 44//50 43//50
f 19//51 50//51 51//51
f 12//52 45//52 44//52
f 47//53 45//53 18//53
f 14//54 45//54 12//54
f 18//55 45//55 14//55
f 40//56 46//56 38//56
f 49//57 52//57 17//57
f 15//58 50//58 16//58
f 20//59 19//59 51//59
f 39//60 38//60 46//60
f 12//61 43//61 48//61
f 12//62 48//62 13//62
f 17//63 16//63 48//63
f 18//64 53//64 47//64
f 18//65 20//65 53//65
f 13//66 50//66 19//66
f 42//67 48//67 43//67
f 42//68 17//68 48//68
f 53//69 20//69 51//69
f 15//70 17//70 52//70
f 25//71 24//71 21//71
f 50//72 13//72 16//72
f 30//73 33//73 29//73
f 49//74 17//74 42//74
f 54//75 55//75 56//75
f 57//76 58//76 59//76
f 54//77 56//77 60//77
f 61//78 62//78 63//78
f 64//79 65//79 66//79
f 67//80 68//80 69//80
f 64//81 57//81 59//81
f 70//82 71//82 72//82
f 73//83 74//83 75//83
f 73//84 75//84 76//84
f 69//85 77//85 78//85
f 69//86 78//86 79//86
f 80//87 64//87 66//87
f 81//88 82//88 83//88
f 56//89 84//89 74//89
f 56//90 83//90 84//90
f 61//91 63//91 85//91
f 67//92 69//92 71//92
f 71//93 79//93 5//93
f 86//94 60//94 87//94
f 88//95 89//95 55//95
f 64//96 90//96 57//96
f 64//97 91//97 90//97
f 91//98 64//98 80//98
f 63//99 34//99 92//99
f 86//100 54//100 60//100
f 93//101 67//101 71//101
f 94//102 51//102 95//102
f 94//103 53//103 51//103
f 96//104 86//104 87//104
f 97//105 94//105 95//105
f 93//106 71//106 70//106
f 54//107 88//107 55//107
f 98//108 97//108 95//108
f 98//109 95//109 99//109
f 61//110 85//110 89//110
f 71//111 69//111 79//111
f 96//112 87//112 100//112
f 101//113 98//113 99//113
f 94//114 47//114 53//114
f 87//115 76//115 102//115
f 87//116 73//116 76//116
f 63//117 92//117 81//117
f 103//118 94//118 97//118
f 104//119 61//119 89//119
f 60//120 56//120 74//120
f 105//121 54//121 86//121
f 82//122 47//122 94//122
f 101//123 99//123 106//123
f 72//124 71//124 5//124
f 98//125 103//125 97//125
f 68//126 96//126 100//126
f 76//127 101//127 106//127
f 82//128 94//128 103//128
f 107//129 54//129 105//129
f 75//130 98//130 101//130
f 105//131 86//131 96//131
f 85//132 63//132 81//132
f 104//133 89//133 88//133
f 55//134 81//134 83//134
f 60//135 74//135 73//135
f 84//136 82//136 103//136
f 59//137 96//137 68//137
f 65//138 68//138 67//138
f 82//139 41//139 47//139
f 107//140 88//140 54//140
f 29//141 62//141 31//141
f 102//142 106//142 78//142
f 58//143 105//143 96//143
f 67//144 93//144 66//144
f 84//145 103//145 98//145
f 58//146 107//146 105//146
f 102//147 76//147 106//147
f 100//148 87//148 102//148
f 100//149 102//149 77//149
f 65//150 67//150 66//150
f 63//151 29//151 34//151
f 65//152 59//152 68//152
f 76//153 75//153 101//153
f 59//154 58//154 96//154
f 74//155 98//155 75//155
f 74//156 84//156 98//156
f 55//157 83//157 56//157
f 92//158 41//158 82//158
f 83//159 82//159 84//159
f 87//160 60//160 73//160
f 89//161 85//161 81//161
f 89//162 81//162 55//162
f 77//163 102//163 78//163
f 92//164 34//164 41//164
f 62//165 29//165 63//165
f 64//166 59//166 65//166
f 81//167 92//167 82//167
f 57//168 107//168 58//168
f 68//169 100//169 77//169
f 68//170 77//170 69//170
f 108//171 109//171 110//171
f 111//172 108//172 112//172
f 113//173 114//173 115//173
f 108//174 116//174 117//174
f 118//175 119//175 120//175
f 111//176 112//176 121//176
f 111//177 109//177 108//177
f 23//178 111//178 121//178
f 121//179 36//179 23//179
f 49//180 118//180 120//180
f 49//181 120//181 52//181
f 112//182 117//182 119//182
f 110//183 122//183 116//183
f 121//184 112//184 118//184
f 123//185 124//185 125//185
f 116//186 125//186 126//186
f 118//187 112//187 119//187
f 127//188 111//188 23//188
f 122//189 123//189 125//189
f 112//190 108//190 117//190
f 110//191 116//191 108//191
f 122//192 114//192 128//192
f 22//193 127//193 23//193
f 122//194 125//194 116//194
f 36//195 118//195 49//195
f 36//196 121//196 118//196
f 122//197 128//197 123//197
f 116//198 126//198 119//198
f 122//199 115//199 114//199
f 117//200 116//200 119//200
f 129//201 130//201 131//201
f 132//202 133//202 113//202
f 134//203 129//203 135//203
f 132//204 136//204 133//204
f 132//205 137//205 136//205
f 137//206 131//206 136//206
f 131//207 130//207 138//207
f 134//208 139//208 129//208
f 131//209 138//209 136//209
f 26//210 139//210 134//210
f 130//211 140//211 138//211
f 140//212 141//212 138//212
f 138//213 141//213 142//213
f 142//214 141//214 143//214
f 135//215 129//215 131//215
f 144//216 142//216 143//216
f 144//217 145//217 142//217
f 146//218 147//218 145//218
f 146//219 145//219 144//219
f 148//220 147//220 146//220
f 148//221 9//221 147//221
f 8//222 9//222 148//222
f 70//223 2//223 93//223
f 4//224 72//224 5//224
f 8//225 80//225 66//225
f 70//226 4//226 2//226
f 4//227 70//227 72//227
f 2//228 8//228 66//228
f 2//229 66//229 93//229
f 148//230 80//230 8//230
f 91//231 80//231 148//231
f 91//232 148//232 146//232
f 90//233 91//233 146//233
f 144//234 90//234 146//234
f 143//235 90//235 144//235
f 57//236 90//236 143//236
f 104//237 130//237 61//237
f 62//238 129//238 139//238
f 62//239 139//239 31//239
f 107//240 141//240 140//240
f 141//241 107//241 57//241
f 61//242 129//242 62//242
f 140//243 88//243 107//243
f 57//244 143//244 141//244
f 61//245 130//245 129//245
f 104//246 88//246 140//246
f 130//247 104//247 140//247
f 22//248 24//248 134//248
f 24//249 26//249 134//249
f 28//250 31//250 139//250
f 28//251 139//251 26//251
f 122//252 132//252 115//252
f 149//253 109//253 111//253
f 109//254 149//254 131//254
f 109//255 131//255 137//255
f 122//256 110//256 137//256
f 122//257 137//257 132//257
f 113//258 115//258 132//258
f 22//259 134//259 135//259
f 127//260 22//260 135//260
f 127//261 135//261 149//261
f 131//262 149//262 135//262
f 149//263 111//263 127//263
f 110//264 109//264 137//264
f 7//265 6//265 6//265