o obj1
v 0.004527 0.072665 0.082511
v 0.005711 0.073157 0.082229
v 0.004431 0.073146 0.081533
v 0.005401 0.072448 0.082981
v 0.006166 0.072596 0.082825
v 0.003311 0.072208 0.081087
v 0.003635 0.072187 0.081997
v 0.003935 0.072909 0.081323
v 0.006985 0.069521 0.084673
v 0.004718 0.069164 0.084623
v 0.001971 0.068709 0.08134
v 0.008985 0.069846 0.083524
v 0.017664 0.071251 0.040439
v 0.00962 0.069984 0.01322
v 0.020778 0.071827 0.013176
v 0.012905 0.07048 0.076095
v 0.010945 0.070163 0.081424
v 0.003604 0.068982 0.084033
v 0.002657 0.068821 0.083055
v 0.012107 0.070351 0.0791
v 0.011116 0.073111 0.010156
v 0.010199 0.070988 0.011396
v 0.010242 0.073544 0.076454
v 0.0098 0.073233 0.078732
v 0.018701 0.07484 0.010147
v 0.014146 0.073857 0.049934
v 0.011042 0.07319 0.073624
v 0.020019 0.073104 0.010882
v 0.007577 0.073148 0.081591
v 0.011902 0.073705 0.065557
v 0.00843 0.07301 0.080981
v 0.012911 0.073778 0.05861
v 0.012206 0.074395 0.010044
v 0.017628 0.075258 0.010097
v 0.007303 0.073611 0.080359
v 0.008912 0.073707 0.078688
v 0.009405 0.073931 0.074698
v 0.01121 0.073941 0.067024
v 0.011025 0.074153 0.064684
v 0.010671 0.073726 0.072179
v 0.009884 0.073997 0.071533
v 0.013655 0.074283 0.04941
v 0.014898 0.074811 0.03299
v 0.015694 0.074969 0.024869
v 0.013936 0.074651 0.041035
v 0.012957 0.07446 0.049815
v 0.011938 0.074315 0.057203
v 0.012303 0.074112 0.058998
vn -0.2503 0.8591 0.4465
vn -0.0012 0.728 0.6856
vn -0.7613 0.5826 0.2848
vn -0.1588 0.7503 0.6417
vn -0.6073 0.6624 0.4387
vn -0.529 0.74 0.4155
vn 0.1556 -0.9878 0.0065
vn 0.16 -0.9871 -0.0003
vn 0.163 -0.9866 -0.0022
vn 0.1598 -0.9871 -0
vn 0.1599 -0.9871 0
vn 0.158 -0.9874 -0.0007
vn 0.1542 -0.988 0.0131
vn 0.1653 -0.9862 -0.0018
vn 0.16 -0.9871 0.0003
vn 0.1599 -0.9871 0.0001
vn -0.9342 0.3397 -0.1092
vn -0.9318 0.3495 -0.0981
vn -0.9317 0.3496 -0.0981
vn 0.3475 0.5493 0.7599
vn -0.3218 0.4763 0.8183
vn 0.0704 0.5276 0.8466
vn -0.0919 0.4607 0.8828
vn -0.6119 0.4283 0.6649
vn -0.4762 0.4352 0.7641
vn -0.6923 0.3916 0.6061
vn -0.8777 0.3559 0.321
vn -0.8747 0.3584 0.3263
vn 0.7478 0.6228 0.2301
vn 0.7558 0.6467 0.1025
vn 0.7686 0.6317 0.1012
vn 0.7558 0.6411 0.1334
vn 0.7738 0.6267 0.0926
vn 0.3932 0.5836 0.7105
vn 0.7627 0.6352 0.1218
vn 0.5317 0.5852 0.6122
vn 0.5502 0.5796 0.6012
vn 0.7701 0.6268 0.1185
vn 0.7767 0.6189 0.117
vn 0.634 0.6299 0.4487
vn 0.6919 0.6043 0.395
vn 0.7738 0.6227 0.1158
vn 0.7465 0.6263 0.2248
vn 0.023 -0.1063 -0.9941
vn 0.0205 -0.0685 -0.9974
vn 0.1446 -0.8856 -0.4413
vn 0.1541 -0.8408 -0.5189
vn 0.0687 -0.525 -0.8483
vn 0.0762 -0.3391 -0.9377
vn -0.4202 0.907 -0.0298
vn -0.7633 0.6416 -0.0752
vn -0.7326 0.6768 -0.072
vn -0.0017 0.9984 0.0558
vn 0.4262 0.8315 0.3563
vn 0.3617 0.8801 0.3075
vn 0.4155 0.9083 0.0494
vn 0.2484 0.9235 0.2922
vn 0.2786 0.9584 0.0621
vn 0.2034 0.7859 0.5839
vn 0.3599 0.9311 0.0595
vn 0.1161 0.9379 0.327
vn -0.0947 0.9828 0.1584
vn 0.2781 0.9591 0.0519
vn -0.0038 0.9998 0.0191
vn 0.5979 0.7967 0.0881
vn 0.2684 0.9619 0.0512
vn 0.2732 0.9606 0.0513
vn 0.5952 0.7983 0.0919
vn 0.2761 0.9594 0.0569
vn 0.2664 0.9623 0.0548
vn 0.5215 0.8486 0.0887
vn 0.6739 0.7322 0.0988
vn 0.2706 0.9612 0.0538
vn 0.5197 0.8501 0.0845
vn 0.2935 0.9534 0.0701
vn 0.3891 0.9176 0.0807
vn 0.2629 0.961 0.0864
vn 0.2654 0.9619 0.0662
vn 0.5218 0.846 0.1096
vn 0.4529 0.8674 0.2063
vn 0.2736 0.9594 0.0686
vn 0.6706 0.735 0.1007
vn -0.1618 0.9868 -0.0044
vn -0.1611 0.9869 -0.0038
vn -0.1624 0.9867 -0.0045
vn -0.172 0.9851 0.0023
vn -0.1585 0.9874 0.0007
vn -0.1573 0.9876 -0.0013
vn -0.1482 0.989 0.0012
vn -0.1685 0.9857 0.0007
vn -0.1345 0.9909 0.0009
vn -0.1766 0.9843 0.0017
f 1//1 2//1 3//1
f 4//2 5//2 2//2
f 6//3 7//3 8//3
f 4//4 2//4 1//4
f 7//5 1//5 8//5
f 1//6 3//6 8//6
f 9//7 10//7 11//7
f 12//8 9//8 11//8
f 13//9 14//9 15//9
f 11//10 13//10 16//10
f 12//11 11//11 17//11
f 11//12 14//12 13//12
f 10//13 18//13 19//13
f 10//14 19//14 11//14
f 20//15 11//15 16//15
f 17//16 11//16 20//16
f 14//17 21//17 22//17
f 6//18 21//18 14//18
f 11//19 6//19 14//19
f 5//20 9//20 12//20
f 10//21 4//21 1//21
f 4//22 9//22 5//22
f 10//23 9//23 4//23
f 18//24 1//24 7//24
f 18//25 10//25 1//25
f 7//26 19//26 18//26
f 6//27 19//27 7//27
f 6//28 11//28 19//28
f 23//29 24//29 16//29
f 13//30 25//30 26//30
f 25//31 13//31 15//31
f 27//32 23//32 16//32
f 28//33 25//33 15//33
f 29//34 5//34 12//34
f 30//35 27//35 16//35
f 31//36 29//36 12//36
f 31//37 12//37 17//37
f 32//38 30//38 16//38
f 32//39 16//39 13//39
f 24//40 31//40 17//40
f 24//41 17//41 20//41
f 26//42 32//42 13//42
f 24//43 20//43 16//43
f 25//44 21//44 33//44
f 34//45 25//45 33//45
f 15//46 14//46 22//46
f 28//47 15//47 22//47
f 28//48 22//48 21//48
f 25//49 28//49 21//49
f 8//50 3//50 33//50
f 8//51 33//51 21//51
f 6//52 8//52 21//52
f 35//53 36//53 37//53
f 29//54 24//54 36//54
f 29//55 31//55 24//55
f 38//56 30//56 39//56
f 35//57 29//57 36//57
f 40//58 41//58 37//58
f 29//59 2//59 5//59
f 42//60 25//60 34//60
f 35//61 2//61 29//61
f 35//62 3//62 2//62
f 43//63 42//63 34//63
f 43//64 34//64 44//64
f 42//65 26//65 25//65
f 45//66 42//66 43//66
f 46//67 42//67 45//67
f 42//68 32//68 26//68
f 42//69 46//69 47//69
f 42//70 47//70 48//70
f 32//71 42//71 48//71
f 23//72 27//72 40//72
f 48//73 47//73 39//73
f 48//74 30//74 32//74
f 37//75 23//75 40//75
f 48//76 39//76 30//76
f 36//77 23//77 37//77
f 38//78 39//78 41//78
f 38//79 27//79 30//79
f 36//80 24//80 23//80
f 38//81 41//81 40//81
f 40//82 27//82 38//82
f 37//83 3//83 35//83
f 41//84 3//84 37//84
f 39//85 3//85 41//85
f 33//86 43//86 44//86
f 33//87 45//87 43//87
f 34//88 33//88 44//88
f 33//89 3//89 39//89
f 33//90 39//90 47//90
f 33//91 47//91 46//91
f 33//92 46//92 45//92