o obj1
v -0.021095 -0.076252 0.028219
v -0.020584 -0.076371 0.0288
v -0.021752 -0.07619 0.027734
v -0.022591 -0.076042 0.027225
v -0.023068 -0.075973 0.02702
v -0.022418 -0.076073 0.038686
v -0.023056 -0.075962 0.03899
v -0.023521 -0.075899 0.039142
v -0.016845 -0.057557 0.032992
v -0.017654 -0.062491 0.033328
v -0.017151 -0.057508 0.034834
v -0.017998 -0.062436 0.034933
v -0.022277 -0.056678 0.027412
v -0.02074 -0.061992 0.027951
v -0.02003 -0.057042 0.027928
v -0.022981 -0.061629 0.027428
v -0.01876 -0.062312 0.036365
v -0.018325 -0.057318 0.036851
v -0.018356 -0.057313 0.029163
v -0.020289 -0.062065 0.03778
v -0.018733 -0.062317 0.029638
v -0.020178 -0.057018 0.038118
v -0.017223 -0.057496 0.030929
v -0.02208 -0.061775 0.03846
v -0.021285 -0.056838 0.038445
v -0.017842 -0.062461 0.031536
v -0.028481 -0.056078 0.02802
v -0.029023 -0.055972 0.028852
v -0.028952 -0.055601 0.029412
v -0.026729 -0.055956 0.026913
v -0.027327 -0.056297 0.026802
v -0.026264 -0.056495 0.026057
v -0.023885 -0.056417 0.025585
v -0.024692 -0.056778 0.02531
v -0.022942 -0.057112 0.025001
v -0.021316 -0.057407 0.025031
v -0.024217 -0.065481 0.039498
v -0.022492 -0.06576 0.03939
v -0.023631 -0.062536 0.039547
v -0.017437 -0.066579 0.034171
v -0.016932 -0.063621 0.032074
v -0.016986 -0.063613 0.034318
v -0.017433 -0.066579 0.031934
v -0.02361 -0.065579 0.026479
v -0.023483 -0.06256 0.026479
v -0.021289 -0.062916 0.02679
v -0.021676 -0.065892 0.026837
v -0.018216 -0.066453 0.036272
v -0.017689 -0.063499 0.036166
v -0.019539 -0.066238 0.028055
v -0.019144 -0.063263 0.028005
v -0.019059 -0.063277 0.037945
v -0.019284 -0.06628 0.037648
v -0.017602 -0.063513 0.029943
v -0.020649 -0.066059 0.038697
v -0.018047 -0.06648 0.030042
v -0.021196 -0.062931 0.039163
v -0.027074 -0.064005 0.0403
v -0.024941 -0.06435 0.040982
v -0.026794 -0.065063 0.040206
v -0.024944 -0.065363 0.040724
v -0.031273 -0.064338 0.031077
v -0.031615 -0.063269 0.033
v -0.031505 -0.0643 0.033277
v -0.022789 -0.064699 0.024956
v -0.024941 -0.06435 0.025018
v -0.022693 -0.065728 0.025235
v -0.025223 -0.065318 0.025313
v -0.031301 -0.06332 0.030754
v -0.022967 -0.065683 0.040784
v -0.022228 -0.06479 0.040995
v -0.031301 -0.06332 0.035245
v -0.03112 -0.064363 0.035456
v -0.027074 -0.064005 0.0257
v -0.027291 -0.064983 0.026028
v -0.030385 -0.063469 0.037315
v -0.030148 -0.06452 0.037437
v -0.028938 -0.063703 0.026955
v -0.029079 -0.064693 0.027301
v -0.028938 -0.063703 0.039044
v -0.028666 -0.06476 0.039064
v -0.030385 -0.063469 0.028685
v -0.030442 -0.064472 0.02903
v -0.017576 -0.071116 0.033238
v -0.017284 -0.067617 0.031001
v -0.017024 -0.067659 0.033066
v -0.017788 -0.071113 0.031414
v -0.022934 -0.070248 0.039856
v -0.022223 -0.066817 0.039803
v -0.024011 -0.066527 0.040012
v -0.02524 -0.069925 0.039935
v -0.023891 -0.070143 0.026072
v -0.025107 -0.069946 0.026063
v -0.023097 -0.066675 0.026029
v -0.017268 -0.067619 0.03489
v -0.022286 -0.070403 0.026401
v -0.017884 -0.071066 0.035046
v -0.021106 -0.066998 0.026592
v -0.018498 -0.071023 0.036373
v -0.01825 -0.06746 0.03703
v -0.020624 -0.070622 0.027193
v -0.019368 -0.067279 0.027725
v -0.019378 -0.070884 0.037624
v -0.019266 -0.070842 0.028399
v -0.020097 -0.067161 0.03886
v -0.01819 -0.06747 0.029104
v -0.020796 -0.070594 0.038934
v -0.01845 -0.071037 0.029691
v -0.023225 -0.070306 0.039794
v -0.017753 -0.071189 0.03406
v -0.02112 -0.070643 0.039022
v -0.018063 -0.071138 0.030736
v -0.020232 -0.070787 0.027592
v -0.017995 -0.072769 0.032152
v -0.024258 -0.071813 0.039947
v -0.022466 -0.072095 0.039566
v -0.025541 -0.071539 0.039876
v -0.024594 -0.0717 0.026079
v -0.018024 -0.072761 0.033991
v -0.022328 -0.072101 0.026501
v -0.018418 -0.0727 0.035505
v -0.020658 -0.072388 0.027418
v -0.019324 -0.072599 0.03723
v -0.019336 -0.072595 0.028757
v -0.020659 -0.072388 0.038582
v -0.018449 -0.072696 0.030414
v -0.017847 -0.072899 0.033056
v -0.018319 -0.072812 0.035542
v -0.023681 -0.071949 0.026052
v -0.018298 -0.072821 0.030502
v -0.025473 -0.072672 0.040024
v -0.022907 -0.073088 0.039721
v -0.01799 -0.073884 0.033182
v -0.018515 -0.073799 0.030355
v -0.023229 -0.073036 0.026163
v -0.025803 -0.072619 0.026029
v -0.018594 -0.073786 0.035811
v -0.020896 -0.073414 0.027305
v -0.019582 -0.073627 0.037423
v -0.019582 -0.073627 0.028576
v -0.020896 -0.073414 0.038695
v -0.018618 -0.075911 0.032737
v -0.018915 -0.075863 0.030951
v -0.018471 -0.073806 0.031277
v -0.02576 -0.074746 0.039746
v -0.023752 -0.072951 0.039664
v -0.025792 -0.072621 0.039721
v -0.018305 -0.073833 0.033856
v -0.024011 -0.075037 0.03965
v -0.024021 -0.075036 0.026348
v -0.0259 -0.072603 0.026279
v -0.023609 -0.072974 0.026364
v -0.025831 -0.07475 0.026259
v -0.018777 -0.075885 0.034539
v -0.018888 -0.073739 0.035826
v -0.022331 -0.075309 0.026937
v -0.021234 -0.073359 0.027331
v -0.019539 -0.075762 0.036458
v -0.019841 -0.073585 0.037367
v -0.020646 -0.075583 0.028105
v -0.020657 -0.07558 0.03787
v -0.019442 -0.073649 0.029163
v -0.021595 -0.0733 0.038875
v -0.02209 -0.075349 0.038949
v -0.019559 -0.075758 0.029546
v -0.0248 -0.075686 0.026583
v -0.025666 -0.075545 0.02656
v -0.019054 -0.076622 0.033453
v -0.019063 -0.076612 0.032492
v -0.025165 -0.075625 0.039442
v -0.024477 -0.075743 0.039366
v -0.0192 -0.076596 0.031612
v -0.023984 -0.07582 0.039274
v -0.019528 -0.076545 0.030554
v -0.020023 -0.076469 0.029586
v -0.021583 -0.076208 0.038146
v -0.020858 -0.076325 0.037501
v -0.020259 -0.076423 0.03678
v -0.019756 -0.076505 0.035952
v -0.019393 -0.076566 0.035081
v -0.023759 -0.075857 0.026778
v -0.030081 -0.074863 0.036734
v -0.031164 -0.074688 0.034647
v -0.029874 -0.074399 0.036067
v -0.030608 -0.074276 0.034404
v -0.030769 -0.074253 0.032316
v -0.031344 -0.074659 0.03268
v -0.031022 -0.074711 0.030994
v -0.030078 -0.074365 0.030268
v -0.030081 -0.074863 0.029266
v -0.028766 -0.074577 0.028692
v -0.028801 -0.075071 0.028055
v -0.026698 -0.075412 0.027107
v -0.027392 -0.07479 0.027904
v -0.026062 -0.075005 0.027525
v -0.024663 -0.075235 0.038478
v -0.025417 -0.075619 0.03901
v -0.026688 -0.074915 0.038373
v -0.024337 -0.075794 0.027051
v -0.027352 -0.075306 0.038714
v -0.028608 -0.074604 0.037421
v -0.028895 -0.075056 0.037873
v -0.029488 -0.066349 0.033468
v -0.028971 -0.066433 0.03543
v -0.026454 -0.06684 0.028038
v -0.024521 -0.067154 0.027486
v -0.027826 -0.066618 0.036982
v -0.028116 -0.066571 0.029288
v -0.026454 -0.06684 0.037962
v -0.02475 -0.067116 0.038475
v -0.029291 -0.066381 0.031376
v -0.025294 -0.066181 0.041935
v -0.027248 -0.066003 0.040884
v -0.023946 -0.066538 0.041539
v -0.025317 -0.064419 0.024161
v -0.026966 -0.064022 0.025138
v -0.023626 -0.064563 0.02446
v -0.023928 -0.06465 0.023986
v -0.025511 -0.06615 0.024117
v -0.022459 -0.066638 0.024059
v -0.029831 -0.061011 0.02855
v -0.029705 -0.060252 0.028564
v -0.028176 -0.060566 0.026829
v -0.028283 -0.061282 0.026831
v -0.026785 -0.061517 0.025845
v -0.026259 -0.060942 0.025636
v -0.025092 -0.061795 0.025204
v -0.024324 -0.061323 0.02507
v -0.023002 -0.062134 0.024982
v -0.022056 -0.061756 0.025046
v -0.029814 -0.061006 0.037524
v -0.029915 -0.061517 0.036527
v -0.027473 -0.061915 0.039309
v -0.027859 -0.061347 0.039506
v -0.026253 -0.061606 0.040401
v -0.024061 -0.062467 0.040517
v -0.024253 -0.061926 0.040967
v -0.029603 -0.059594 0.030886
v -0.029571 -0.059391 0.030838
v -0.029215 -0.059467 0.029989
v -0.029165 -0.059724 0.029805
v -0.028337 -0.059664 0.028551
v -0.028359 -0.059901 0.028546
v -0.027069 -0.060179 0.027296
v -0.027103 -0.059927 0.027365
v -0.02602 -0.060147 0.026701
v -0.025236 -0.060541 0.02634
v -0.024804 -0.060388 0.026231
v -0.023299 -0.060929 0.025986
v -0.022917 -0.060762 0.025972
v -0.02794 -0.059085 0.026833
v -0.028829 -0.059012 0.027719
v -0.02948 -0.058802 0.028506
v -0.027765 -0.059228 0.026694
v -0.026225 -0.059534 0.02572
v -0.02589 -0.059493 0.025566
v -0.024344 -0.059896 0.025111
v -0.023313 -0.059988 0.024976
v -0.022134 -0.060324 0.025018
v -0.029364 -0.058113 0.03089
v -0.029332 -0.057911 0.030838
v -0.028976 -0.057986 0.02999
v -0.028925 -0.058244 0.029805
v -0.028097 -0.058183 0.028552
v -0.028119 -0.058421 0.028546
v -0.026829 -0.058699 0.027296
v -0.026863 -0.058447 0.027365
v -0.025778 -0.058667 0.0267
v -0.025337 -0.058998 0.02648
v -0.024073 -0.059005 0.026094
v -0.024064 -0.05925 0.026113
v -0.022593 -0.059539 0.025985
v -0.022009 -0.059406 0.026016
v -0.0277 -0.057604 0.026833
v -0.028589 -0.057531 0.027719
v -0.02924 -0.057321 0.028507
v -0.027525 -0.057747 0.026693
v -0.025985 -0.058053 0.02572
v -0.02565 -0.058012 0.025566
v -0.024104 -0.058415 0.025111
v -0.023072 -0.058508 0.024976
v -0.021438 -0.058923 0.02505
v -0.028685 -0.056763 0.029805
v -0.029124 -0.056632 0.03089
v -0.029088 -0.056418 0.030841
v -0.02818 -0.056634 0.02899
v -0.027879 -0.05694 0.028546
v -0.026686 -0.05695 0.02737
v -0.026589 -0.057218 0.027296
v -0.024757 -0.05758 0.02634
v -0.024508 -0.05739 0.026272
v -0.02282 -0.057968 0.025986
v -0.02266 -0.057756 0.025983
v -0.019305 -0.057819 0.02564
v -0.01911 -0.057696 0.025716
v -0.017775 -0.058122 0.02655
v -0.017361 -0.057975 0.026839
v -0.016607 -0.058356 0.027603
v -0.015823 -0.058245 0.028551
v -0.01586 -0.058528 0.028649
v -0.018514 -0.058579 0.027289
v -0.017211 -0.05886 0.028551
v -0.020581 -0.058174 0.026248
v -0.016416 -0.059036 0.02979
v -0.015968 -0.059165 0.03092
v -0.020714 -0.058386 0.026223
v -0.019112 -0.058705 0.026943
v -0.0179 -0.058955 0.027835
v -0.016573 -0.059248 0.029517
v -0.016002 -0.059366 0.030857
v -0.016092 -0.059924 0.028487
v -0.02106 -0.058897 0.025155
v -0.019099 -0.05928 0.025828
v -0.017483 -0.059598 0.026968
v -0.019502 -0.059307 0.025677
v -0.018157 -0.059572 0.026427
v -0.016883 -0.059832 0.027584
v -0.019787 -0.059849 0.026656
v -0.018199 -0.060179 0.027761
v -0.017202 -0.060391 0.028871
v -0.016212 -0.060634 0.030789
v -0.021 -0.059857 0.026234
v -0.019651 -0.060121 0.026767
v -0.018139 -0.060436 0.027835
v -0.016813 -0.060728 0.029517
v -0.016242 -0.060847 0.030857
v -0.016332 -0.061405 0.028486
v -0.021061 -0.060424 0.0252
v -0.01911 -0.060805 0.025966
v -0.017723 -0.061079 0.026969
v -0.020209 -0.060696 0.025467
v -0.018397 -0.061052 0.026427
v -0.017123 -0.061312 0.027584
v -0.021193 -0.061104 0.026244
v -0.019835 -0.061371 0.026765
v -0.018439 -0.06166 0.027761
v -0.017442 -0.061872 0.028872
v -0.016451 -0.062115 0.030789
v -0.021194 -0.061347 0.026223
v -0.019592 -0.061666 0.026943
v -0.018379 -0.061917 0.027835
v -0.017053 -0.062209 0.029517
v -0.016482 -0.062327 0.030854
v -0.028974 -0.055804 0.036912
v -0.028467 -0.056317 0.036453
v -0.027539 -0.05641 0.037755
v -0.029068 -0.056275 0.035106
v -0.022352 -0.056694 0.040571
v -0.02366 -0.056882 0.039908
v -0.022439 -0.057238 0.039982
v -0.024682 -0.056391 0.04027
v -0.025762 -0.05662 0.039172
v -0.026482 -0.056143 0.039424
v -0.027731 -0.055972 0.038447
v -0.024031 -0.057077 0.03982
v -0.025463 -0.056899 0.039331
v -0.026769 -0.056738 0.038489
v -0.027843 -0.05662 0.037454
v -0.029093 -0.056497 0.035273
v -0.029202 -0.057069 0.037472
v -0.028587 -0.057077 0.038204
v -0.024101 -0.057641 0.040882
v -0.022553 -0.057944 0.04102
v -0.025854 -0.057415 0.040276
v -0.027303 -0.057232 0.039424
v -0.021907 -0.062307 0.040914
v -0.021461 -0.062888 0.040286
v -0.019822 -0.062648 0.040243
v -0.019572 -0.063194 0.039501
v -0.018215 -0.062924 0.03918
v -0.017761 -0.063487 0.038026
v -0.017175 -0.063067 0.038141
v -0.016621 -0.06314 0.037371
v -0.016693 -0.06366 0.036397
v -0.017451 -0.062414 0.037008
v -0.017006 -0.063085 0.037936
v -0.018731 -0.062272 0.038432
v -0.016516 -0.062493 0.03519
v -0.016475 -0.062275 0.035168
v -0.01754 -0.062162 0.037226
v -0.018711 -0.062036 0.038411
v -0.017979 -0.061572 0.0392
v -0.016374 -0.061699 0.037489
v -0.024955 -0.060552 0.040776
v -0.026828 -0.060315 0.040052
v -0.01733 -0.061537 0.038597
v -0.028604 -0.060092 0.038715
v -0.018495 -0.061395 0.039594
v -0.029667 -0.05997 0.037392
v -0.020056 -0.061197 0.040434
v -0.021757 -0.060966 0.040918
v -0.023312 -0.06077 0.041003
v -0.02838 -0.059571 0.037366
v -0.020557 -0.060542 0.039605
v -0.018852 -0.06075 0.038701
v -0.029569 -0.059459 0.035277
v -0.022022 -0.060354 0.039948
v -0.023705 -0.060138 0.039981
v -0.016729 -0.060979 0.036206
v -0.016264 -0.060997 0.035077
v -0.025303 -0.059938 0.039589
v -0.017542 -0.060893 0.037451
v -0.026988 -0.059731 0.038723
v -0.016233 -0.060792 0.035162
v -0.016594 -0.060752 0.036009
v -0.024035 -0.059856 0.039924
v -0.025854 -0.059624 0.039371
v -0.017495 -0.06066 0.037455
v -0.027514 -0.05943 0.038237
v -0.01879 -0.060512 0.038669
v -0.028527 -0.059317 0.037127
v -0.019868 -0.060386 0.039312
v -0.029542 -0.059235 0.035209
v -0.021296 -0.060203 0.039835
v -0.022751 -0.060022 0.040002
v -0.019364 -0.059885 0.040238
v -0.020898 -0.059683 0.040772
v -0.022436 -0.059478 0.041014
v -0.024549 -0.059201 0.040824
v -0.026476 -0.058956 0.040114
v -0.016134 -0.060221 0.037494
v -0.0176 -0.0601 0.039076
v -0.028334 -0.058726 0.038764
v -0.029439 -0.058533 0.037488
v -0.027525 -0.058714 0.039437
v -0.025778 -0.058935 0.040427
v -0.01733 -0.060027 0.038847
v -0.028692 -0.058575 0.038347
v -0.018808 -0.059844 0.039941
v -0.020268 -0.059658 0.040601
v -0.022108 -0.059419 0.040996
v -0.023917 -0.059179 0.040929
v -0.028141 -0.058091 0.037366
v -0.020317 -0.059061 0.039605
v -0.018612 -0.059269 0.038701
v -0.029333 -0.057978 0.03527
v -0.021782 -0.058872 0.039948
v -0.023465 -0.058657 0.039981
v -0.016489 -0.059498 0.036206
v -0.016024 -0.059517 0.035077
v -0.025064 -0.058457 0.039589
v -0.017302 -0.059413 0.037451
v -0.026776 -0.058249 0.038703
v -0.015994 -0.059311 0.035164
v -0.016354 -0.059271 0.036008
v -0.023796 -0.058375 0.039924
v -0.025615 -0.058143 0.03937
v -0.017255 -0.05918 0.037455
v -0.027274 -0.05795 0.038237
v -0.018562 -0.059029 0.038678
v -0.028287 -0.057836 0.037127
v -0.019631 -0.058905 0.039314
v -0.029302 -0.057755 0.035209
v -0.021056 -0.058722 0.039835
v -0.022512 -0.058541 0.040002
v -0.021219 -0.058128 0.040891
v -0.019342 -0.058377 0.04035
v -0.024295 -0.057723 0.040827
v -0.026233 -0.057476 0.040116
v -0.015933 -0.058783 0.03746
v -0.017357 -0.058619 0.039075
v -0.028092 -0.057246 0.038767
v -0.015815 -0.058236 0.037396
v -0.016994 -0.058038 0.038835
v -0.018666 -0.057771 0.040058
v -0.02058 -0.057461 0.040803
v -0.022426 -0.057156 0.041007
v -0.025914 -0.056088 0.039631
v -0.023399 -0.056496 0.040448
v -0.015746 -0.057739 0.036632
v -0.017872 -0.057391 0.039003
v -0.027926 -0.055763 0.037967
v -0.019736 -0.057089 0.040046
v -0.028961 -0.055595 0.036405
v -0.015739 -0.057738 0.029472
v -0.016705 -0.063655 0.029368
v -0.016618 -0.063151 0.02855
v -0.016579 -0.06285 0.028545
v -0.019595 -0.06224 0.025816
v -0.017938 -0.062566 0.026987
v -0.020445 -0.062544 0.025459
v -0.018201 -0.062911 0.026802
v -0.025438 -0.062244 0.025757
v -0.027782 -0.061864 0.026997
v -0.018831 -0.063314 0.026997
v -0.029905 -0.061517 0.029365
v -0.020696 -0.063012 0.025954
v -0.022788 -0.062673 0.025496
v -0.030922 -0.065267 0.027377
v -0.032291 -0.065051 0.029902
v -0.031992 -0.06335 0.029747
v -0.030463 -0.063591 0.027186
v -0.029182 -0.065682 0.02625
v -0.031246 -0.065355 0.02873
v -0.032333 -0.065171 0.03178
v -0.022025 -0.064959 0.024138
v -0.020476 -0.065081 0.025031
v -0.020606 -0.067079 0.025138
v -0.018538 -0.065388 0.026161
v -0.018708 -0.067378 0.02625
v -0.017035 -0.065669 0.027057
v -0.01697 -0.067529 0.027331
v -0.023946 -0.066538 0.02446
v -0.027286 -0.065997 0.025138
v -0.028865 -0.063723 0.026251
v -0.032017 -0.063205 0.031955
v -0.030927 -0.063381 0.02873
v -0.0323 -0.065044 0.036185
v -0.032035 -0.063338 0.036007
v -0.032016 -0.063212 0.03422
v -0.032337 -0.065179 0.034001
v -0.030757 -0.065299 0.038791
v -0.030368 -0.063601 0.038884
v -0.031213 -0.06347 0.037753
v -0.028677 -0.063745 0.039861
v -0.030927 -0.063381 0.03727
v -0.015556 -0.067889 0.03178
v -0.015261 -0.066055 0.029993
v -0.015239 -0.06593 0.03178
v -0.015566 -0.067757 0.029861
v -0.015556 -0.067896 0.034045
v -0.015236 -0.065922 0.034001
v -0.015256 -0.066049 0.035954
v -0.015558 -0.067761 0.036098
v -0.017013 -0.06752 0.038756
v -0.018895 -0.067356 0.039861
v -0.016646 -0.06772 0.03727
v -0.015802 -0.065966 0.037261
v -0.016883 -0.065792 0.038854
v -0.016326 -0.065746 0.03727
v -0.018538 -0.065388 0.039839
v -0.020476 -0.065081 0.040969
v -0.020793 -0.06704 0.040969
v -0.02185 -0.064889 0.041759
v -0.022428 -0.066646 0.041902
v -0.023368 -0.064741 0.042014
v -0.025271 -0.064434 0.041862
v -0.026779 -0.06406 0.040969
v -0.029182 -0.065682 0.039749
v -0.031246 -0.065355 0.03727
v -0.019899 -0.076008 0.033204
v -0.018599 -0.068113 0.033306
v -0.020068 -0.075983 0.031596
v -0.018852 -0.068072 0.031385
v -0.022973 -0.067404 0.038414
v -0.020823 -0.075869 0.029896
v -0.022929 -0.07552 0.037961
v -0.019836 -0.067912 0.029452
v -0.020792 -0.067758 0.037473
v -0.022138 -0.075651 0.028527
v -0.021217 -0.075774 0.036645
v -0.02208 -0.067549 0.027817
v -0.01918 -0.068019 0.035491
v -0.023939 -0.075344 0.027644
v -0.020176 -0.075957 0.034786
v -0.020753 -0.076374 0.029266
v -0.01967 -0.07655 0.031353
v -0.01949 -0.076579 0.03332
v -0.019812 -0.076527 0.035006
v -0.020752 -0.076374 0.036734
v -0.022033 -0.076167 0.037945
v -0.023777 -0.075885 0.038786
v -0.022033 -0.076167 0.028055
v -0.029529 -0.074928 0.037898
v -0.030033 -0.074838 0.037432
v -0.03064 -0.074749 0.036666
v -0.028941 -0.075017 0.038364
v -0.027535 -0.075251 0.039068
v -0.031421 -0.07462 0.03512
v -0.031635 -0.074586 0.03429
v -0.025877 -0.075516 0.03942
v -0.03176 -0.074555 0.033496
v -0.03177 -0.074562 0.032522
v -0.031425 -0.074618 0.030901
v -0.031059 -0.074674 0.030031
v -0.030553 -0.074756 0.029204
v -0.029958 -0.074851 0.028491
v -0.029234 -0.074969 0.027848
v -0.0284 -0.075104 0.027311
v -0.027301 -0.075287 0.026857
v -0.026838 -0.075358 0.026726
v -0.026344 -0.075441 0.026633
v -0.031127 -0.074647 0.035864
v -0.026598 -0.075389 0.039339
v -0.028236 -0.075127 0.038773
v -0.027763 -0.0752 0.027009
v -0.031871 -0.073763 0.034076
v -0.031962 -0.073749 0.032555
v -0.031464 -0.07383 0.0356
v -0.027866 -0.074414 0.026733
v -0.030559 -0.073976 0.037151
v -0.029792 -0.074101 0.027992
v -0.029285 -0.074183 0.038432
v -0.030769 -0.073942 0.029151
v -0.027481 -0.074475 0.0394
v -0.031518 -0.073821 0.030536
v -0.03135 -0.07172 0.034974
v -0.031626 -0.071676 0.033194
v -0.031448 -0.071705 0.031385
v -0.027508 -0.072343 0.039248
v -0.030403 -0.071874 0.029018
v -0.029276 -0.072056 0.038187
v -0.028311 -0.072213 0.027125
v -0.030591 -0.071843 0.036621
v -0.030099 -0.071923 0.037729
v -0.028038 -0.072257 0.039307
v -0.031449 -0.071704 0.035498
v -0.031896 -0.071632 0.033
v -0.03137 -0.071717 0.030253
v -0.029908 -0.071954 0.028086
v -0.028038 -0.072257 0.026693
v -0.02601 -0.071572 0.039915
v -0.031663 -0.07061 0.032979
v -0.031503 -0.070622 0.031597
v -0.031145 -0.07069 0.030351
v -0.027641 -0.071252 0.039334
v -0.030404 -0.07081 0.028984
v -0.02926 -0.071046 0.038372
v -0.02926 -0.071046 0.027628
v -0.030771 -0.070801 0.036587
v -0.027738 -0.071292 0.026654
v -0.031476 -0.070636 0.034591
v -0.02601 -0.071572 0.026085
v -0.029417 -0.070918 0.038104
v -0.028894 -0.071004 0.027473
v -0.030809 -0.070693 0.036257
v -0.02687 -0.071331 0.026394
v -0.030981 -0.069046 0.035263
v -0.031393 -0.068945 0.032848
v -0.026616 -0.069701 0.02637
v -0.031121 -0.068978 0.031068
v -0.027218 -0.0696 0.039416
v -0.030495 -0.069093 0.02957
v -0.028683 -0.069377 0.038535
v -0.028899 -0.069338 0.027634
v -0.030035 -0.069199 0.037092
v -0.027846 -0.069516 0.026924
v -0.031274 -0.068897 0.034592
v -0.030232 -0.069066 0.036987
v -0.029932 -0.069114 0.028645
v -0.025416 -0.0663 0.026121
v -0.030772 -0.065432 0.034232
v -0.030775 -0.065432 0.031608
v -0.025812 -0.066235 0.039765
v -0.027463 -0.065968 0.03904
v -0.029777 -0.065593 0.0292
v -0.028901 -0.065735 0.037914
v -0.028017 -0.065878 0.027274
v -0.03011 -0.065539 0.036216
v -0.016646 -0.06772 0.02873
v -0.016082 -0.065921 0.028247
v -0.016585 -0.065704 0.036823
v -0.017909 -0.065489 0.038652
v -0.019681 -0.065202 0.040037
v -0.020693 -0.065039 0.025473
v -0.018747 -0.065354 0.026592
v -0.017183 -0.065607 0.028215
v -0.016126 -0.065778 0.030214
v -0.015657 -0.065854 0.032432
v -0.015815 -0.065829 0.034694
v -0.016453 -0.066738 0.035456
v -0.016067 -0.066801 0.033277
v -0.016299 -0.066763 0.031077
v -0.020778 -0.066038 0.040206
v -0.01713 -0.066629 0.02903
v -0.018906 -0.066341 0.039064
v -0.018494 -0.066408 0.027301
v -0.017425 -0.066581 0.037437
v -0.020281 -0.066118 0.026028
v -0.029357 -0.064648 0.029728
v -0.027949 -0.064876 0.028005
v -0.025804 -0.065224 0.02679
v -0.030192 -0.064513 0.032076
v -0.030085 -0.06453 0.034301
v -0.029526 -0.064621 0.035958
v -0.028034 -0.064863 0.037945
v -0.025897 -0.065209 0.039163
v -0.029758 -0.061544 0.033175
v -0.029355 -0.061609 0.030719
v -0.026237 -0.062114 0.038825
v -0.02823 -0.061792 0.028795
v -0.028174 -0.061801 0.037293
v -0.026954 -0.061998 0.027638
v -0.029305 -0.061617 0.035373
v -0.025417 -0.062247 0.026837
v -0.02102 -0.056881 0.0256
v -0.018181 -0.05734 0.026691
v -0.026714 -0.055959 0.029585
v -0.024754 -0.056276 0.027951
v -0.027638 -0.055809 0.031471
v -0.02784 -0.055777 0.033328
v -0.027346 -0.055857 0.035365
v -0.026115 -0.056056 0.037062
v -0.02452 -0.056314 0.038126
v -0.023137 -0.056538 0.038675
v -0.02341 -0.056494 0.038445
v -0.0227 -0.056609 0.038862
v -0.021558 -0.056794 0.038675
v -0.022347 -0.056666 0.0389
v -0.021994 -0.056723 0.038862
v -0.024209 -0.06143 0.038445
v -0.025316 -0.06125 0.038118
v -0.028505 -0.060734 0.031597
v -0.027308 -0.060928 0.02933
v -0.026818 -0.061007 0.037152
v -0.025261 -0.061259 0.027818
v -0.028084 -0.060802 0.035492
v -0.028596 -0.060719 0.033685
vn 0.151 -0.934 -0.3239
vn -0.0625 -0.9812 -0.1827
vn -0.0464 -0.9657 0.2557
vn -0.9749 0.1485 -0.1661
vn -0.9639 0.1613 -0.2121
vn -0.2184 0.0358 0.9752
vn -0.2217 0.0348 0.9745
vn -0.8526 0.1237 -0.5078
vn -0.869 0.1397 -0.4746
vn -0.5822 0.0873 0.8083
vn -0.6623 0.1295 -0.7379
vn -0.6273 0.1203 0.7695
vn -0.5557 0.0677 -0.8286
vn -0.8308 0.1143 0.5447
vn -0.3438 0.0702 -0.9364
vn -0.2765 0.0416 -0.9601
vn -0.8881 0.1631 0.4296
vn -0.9727 0.1435 0.1826
vn -0.9801 0.1679 0.1055
vn -0.5131 0.7436 -0.4287
vn -0.3133 0.8607 -0.4013
vn -0.3625 0.7951 -0.4863
vn -0.2988 0.7264 -0.619
vn -0.1415 0.8016 -0.5809
vn -0.1454 0.7841 -0.6034
vn -0.017 0.6295 -0.7768
vn 0.1473 0.7457 -0.6498
vn 0.0577 -0.0281 0.9979
vn 0.9882 -0.1516 0.0241
vn 0.9859 -0.1671 0.0017
vn 0.1394 -0.0058 -0.9902
vn 0.1758 -0.0383 -0.9837
vn 0.9207 -0.1512 0.3598
vn 0.9228 -0.1579 0.3514
vn 0.4843 -0.0766 -0.8715
vn 0.4814 -0.0787 -0.873
vn 0.7797 -0.1169 0.6151
vn 0.7769 -0.1193 0.6182
vn 0.7706 -0.113 -0.6273
vn 0.5919 -0.123 0.7966
vn 0.784 -0.1377 -0.6053
vn 0.4893 -0.0443 0.871
vn 0.3396 -0.0803 0.9371
vn 0.9418 -0.1452 -0.3033
vn 0.938 -0.151 -0.3121
vn 0.1568 0.0075 0.9876
vn 0.3248 0.1683 -0.9307
vn 0.297 0.2349 -0.9255
vn 0.9859 0.1325 0.1017
vn 0.0707 0.2667 0.9612
vn 0.0735 0.271 0.9598
vn 0.9881 0.0707 0.1364
vn 0.0692 0.2462 -0.9668
vn 0.037 0.2002 -0.9791
vn 0.9762 0.136 -0.1688
vn 0.9883 0.0687 -0.1365
vn 0.3265 0.1869 0.9265
vn 0.351 0.2267 0.9085
vn 0.9136 0.0787 -0.399
vn 0.8921 0.1516 -0.4256
vn 0.5688 0.1452 0.8096
vn 0.5899 0.1903 0.7847
vn 0.7699 0.1001 -0.6303
vn 0.7405 0.1782 -0.648
vn 0.7697 0.1104 0.6288
vn 0.7849 0.161 0.5984
vn 0.5684 0.1308 -0.8123
vn 0.5337 0.2136 -0.8182
vn 0.9205 0.1411 0.3645
vn 0.9133 0.0849 0.3984
vn 0.9785 -0.1625 -0.1266
vn 0.9813 -0.1549 -0.1144
vn 0.1146 -0.0085 0.9934
vn 0.0295 -0.0333 0.999
vn 0.0057 -0.0138 -0.9999
vn 0.9796 -0.1497 0.1344
vn 0.1916 -0.0561 -0.9799
vn 0.9713 -0.1659 0.1702
vn 0.2664 -0.0381 -0.9631
vn 0.896 -0.1403 0.4213
vn 0.8967 -0.1413 0.4195
vn 0.4184 -0.0942 -0.9034
vn 0.5369 -0.068 -0.8409
vn 0.7986 -0.1627 0.5794
vn 0.6477 -0.1238 -0.7518
vn 0.6914 -0.1038 0.715
vn 0.7494 -0.1024 -0.6541
vn 0.6606 -0.1185 0.7413
vn 0.8256 -0.1497 -0.5441
vn 0.8897 -0.1365 -0.4356
vn 0.3956 -0.0679 0.9159
vn 0.3873 -0.0589 0.9201
vn 0.9165 -0.1746 -0.3599
vn -0.0557 -0.5931 0.8032
vn 0.2542 -0.9667 -0.0308
vn 0.0553 -0.8506 0.5229
vn 0.9044 -0.2324 -0.3578
vn 0.2958 -0.4366 0.8497
vn 0.2539 -0.8493 0.4628
vn 0.1424 -0.9614 -0.2354
vn 0.5876 -0.3559 -0.7267
vn 0.1092 -0.8755 -0.4707
vn 0.2668 -0.9514 0.1541
vn 0.9191 -0.3572 0.1666
vn 0.8961 -0.269 -0.3531
vn 0.2022 -0.0388 0.9786
vn 0.0789 0.0475 0.9958
vn 0.9912 -0.131 -0.0168
vn -0.0608 -0.0251 0.9978
vn 0.0068 -0.0073 -1
vn 0.9853 -0.1702 0.0165
vn 0.1688 -0.0805 -0.9824
vn 0.1905 -0.0626 -0.9797
vn 0.9512 -0.1747 0.2544
vn 0.943 -0.116 0.312
vn 0.4718 -0.0636 -0.8794
vn 0.4959 -0.0378 -0.8676
vn 0.8626 -0.199 0.4651
vn 0.8076 -0.1079 0.5797
vn 0.6988 -0.1093 -0.7069
vn 0.6935 -0.1406 0.7066
vn 0.7593 -0.0423 -0.6493
vn 0.6227 -0.0325 0.7817
vn 0.9213 -0.155 -0.3566
vn 0.8579 -0.2051 -0.4712
vn 0.4634 -0.0995 0.8805
vn 0.3482 0.0285 0.937
vn 0.9492 -0.1827 -0.2563
vn 0.6359 0.7717 0.0069
vn 0.9824 -0.003 0.1868
vn 0.7153 0.6806 0.1585
vn 0.2309 0.889 -0.3955
vn 0.6624 0.6829 0.3081
vn 0.7087 0.6172 -0.3417
vn 0.6799 0.7183 -0.1476
vn 0.9779 -0.1124 -0.1762
vn 0.1071 -0.0627 0.9923
vn 0.9706 -0.1639 -0.1765
vn 0.965 -0.1861 -0.1847
vn 0.0381 -0.0858 -0.9956
vn 0.9748 -0.1178 0.1894
vn 0.9518 -0.2068 0.2266
vn 0.3183 0.0357 -0.9473
vn 0.4266 -0.0856 -0.9004
vn 0.4793 -0.0141 -0.8775
vn 0.8496 -0.0974 0.5183
vn 0.8425 -0.1121 0.5269
vn 0.7074 -0.0447 0.7054
vn 0.7074 -0.0454 -0.7054
vn 0.6869 -0.0786 0.7225
vn 0.6868 -0.0792 -0.7225
vn 0.4766 -0.0127 0.879
vn 0.8479 -0.1099 -0.5186
vn 0.8473 -0.1113 -0.5194
vn 0.446 -0.0586 0.8931
vn 0.2163 0.0561 0.9747
vn 0.969 -0.1828 -0.166
vn 0.0298 0.0122 0.9995
vn 0.9913 -0.1143 -0.065
vn 0.0526 -0.0133 0.9985
vn 0.0371 0.0002 -0.9993
vn 0.0509 0.0108 -0.9986
vn 0.9768 -0.1949 0.0887
vn 0.95 -0.1228 0.2871
vn 0.3203 -0.0568 -0.9456
vn 0.3737 -0.023 -0.9273
vn 0.9109 -0.1763 0.373
vn 0.8412 -0.1046 0.5305
vn 0.5481 -0.1418 -0.8243
vn 0.7647 -0.1548 0.6255
vn 0.7093 -0.0568 -0.7026
vn 0.6438 -0.071 0.7619
vn 0.5859 -0.1127 0.8025
vn 0.78 -0.1532 -0.6067
vn 0.8977 -0.127 -0.4219
vn 0.8983 -0.1261 -0.421
vn 0.3362 -0.0483 0.9406
vn 0.3354 -0.0471 0.9409
vn -0.0332 -0.3597 -0.9325
vn 0.8851 -0.4576 0.0843
vn -0.0062 -0.3334 -0.9428
vn 0.8463 -0.5325 -0.0137
vn -0.0029 -0.3279 0.9447
vn 0.0345 -0.3922 0.9192
vn 0.8711 -0.4695 -0.1443
vn 0.8576 -0.4902 -0.1556
vn 0.101 -0.4277 0.8983
vn 0.1814 -0.4204 0.889
vn 0.7891 -0.5515 -0.2707
vn 0.2515 -0.3357 0.9078
vn 0.2637 -0.3737 0.8893
vn 0.3199 -0.4481 0.8348
vn 0.7475 -0.5122 -0.4228
vn 0.7856 -0.4757 -0.3955
vn 0.4231 -0.4723 0.7732
vn 0.675 -0.473 -0.5663
vn 0.7049 -0.438 -0.5579
vn 0.5051 -0.4107 0.7591
vn 0.5358 -0.4865 0.6901
vn 0.594 -0.5062 -0.6253
vn 0.666 -0.4275 0.6113
vn 0.6623 -0.4685 0.5847
vn 0.4983 -0.4606 -0.7345
vn 0.4789 -0.395 -0.784
vn 0.7004 -0.5303 0.4777
vn 0.4017 -0.4553 -0.7946
vn 0.8159 -0.4433 0.3712
vn 0.3004 -0.4397 -0.8464
vn 0.8069 -0.4753 0.3509
vn 0.2473 -0.3859 -0.8888
vn 0.2466 -0.3865 -0.8887
vn 0.7974 -0.5742 0.1857
vn 0.0953 -0.4376 -0.8941
vn 0.5556 -0.7534 -0.3517
vn 0.4903 -0.8262 -0.2775
vn 0.5785 -0.8139 -0.0539
vn 0.55 -0.8328 -0.0623
vn 0.6309 -0.7624 0.144
vn 0.4727 -0.8566 0.2068
vn 0.5561 -0.7451 0.3683
vn 0.3626 -0.8351 0.4137
vn 0.3994 -0.7349 0.5481
vn 0.21 -0.6742 0.7081
vn 0.218 -0.7769 0.5907
vn 0.0615 -0.7606 0.6463
vn -0.084 -0.7478 -0.6586
vn -0.0865 -0.6452 0.7591
vn 0.0069 -0.6642 -0.7475
vn 0.1634 -0.7918 -0.5886
vn 0.2147 -0.7557 -0.6188
vn 0.3783 -0.7638 -0.5229
vn 0.3564 -0.8153 -0.4565
vn 0.9858 -0.1485 -0.078
vn 0.9521 -0.1649 -0.2575
vn 0.9028 -0.1349 -0.4083
vn 0.2669 -0.0476 0.9626
vn 0.2669 -0.0476 0.9625
vn 0.718 -0.1081 -0.6876
vn 0.4874 -0.0721 0.8702
vn 0.7889 -0.1373 -0.5989
vn 0.5865 -0.1074 0.8028
vn 0.5676 -0.1005 -0.8171
vn 0.4358 -0.0583 -0.8981
vn 0.7568 -0.1095 0.6444
vn 0.2795 -0.0569 -0.9585
vn 0.8552 -0.153 0.4952
vn 0.9362 -0.1371 0.3237
vn 0.0516 0.0003 -0.9987
vn 0.9804 -0.1728 0.0946
vn -0.1952 -0.9602 0.1996
vn 0.1177 0.9734 -0.1968
vn 0.1269 0.9583 -0.2561
vn -0.1186 0.0389 -0.9922
vn -0.028 -0.0572 -0.998
vn -0.7313 0.133 -0.669
vn -0.7303 0.1083 -0.6745
vn -0.5017 0.1482 -0.8522
vn -0.5392 0.0791 -0.8384
vn -0.3563 -0.0149 -0.9343
vn -0.2524 0.139 -0.9576
vn -0.1192 -0.0866 -0.9891
vn 0.0147 0.1322 -0.9911
vn -0.5865 -0.6952 0.4155
vn -0.6198 -0.5972 0.5091
vn -0.4714 -0.5569 0.6838
vn -0.3252 -0.7506 0.5752
vn -0.2992 -0.6703 0.6791
vn -0.9193 0.0496 -0.3903
vn -0.9186 0.0948 -0.3837
vn -0.819 0.2191 -0.5304
vn -0.8331 0.0882 -0.546
vn -0.6771 0.1073 -0.728
vn -0.6851 0.0787 -0.7242
vn -0.4906 0.1673 -0.8552
vn -0.4821 -0.1731 -0.8588
vn -0.3118 0.2246 -0.9232
vn -0.1036 0.1571 -0.9821
vn -0.2016 -0.1197 -0.9721
vn -0.5677 0.5472 -0.6151
vn -0.7014 -0.1819 -0.6891
vn -0.4214 0.4042 -0.8118
vn -0.4873 0.229 -0.8427
vn -0.3494 -0.3696 -0.861
vn -0.0329 0.6899 -0.7232
vn -0.1559 -0.6405 -0.752
vn -0.9195 0.049 -0.3901
vn -0.9187 0.0943 -0.3834
vn -0.8189 0.2198 -0.5302
vn -0.6771 0.1074 -0.728
vn -0.685 0.0787 -0.7242
vn -0.4904 0.1674 -0.8553
vn -0.4903 -0.0772 -0.8682
vn -0.2824 0.2399 -0.9288
vn -0.2915 -0.0836 -0.9529
vn -0.102 -0.0796 -0.9916
vn 0.0037 0.21 -0.9777
vn -0.5674 0.5478 -0.6148
vn -0.7014 -0.1825 -0.689
vn -0.4215 0.4036 -0.8121
vn -0.4877 0.2277 -0.8428
vn -0.3495 -0.3695 -0.861
vn -0.0327 0.6902 -0.7229
vn -0.1533 -0.7225 -0.6742
vn -0.9216 0.0703 -0.3817
vn -0.8114 0.3818 -0.4425
vn -0.8443 -0.0577 -0.5327
vn -0.6618 0.3272 -0.6745
vn -0.701 -0.0547 -0.711
vn -0.4474 0.0863 -0.8902
vn -0.4046 0.215 -0.8888
vn -0.1365 0.0904 -0.9865
vn -0.1965 -0.0901 -0.9764
vn 0.3069 0.0976 -0.9467
vn 0.5483 0.0911 -0.8313
vn 0.4681 -0.2123 -0.8578
vn 0.6139 -0.272 -0.7411
vn 0.7447 0.1919 -0.6392
vn 0.7514 -0.3019 -0.5867
vn 0.1703 -0.9049 -0.3901
vn -0.3743 -0.8324 -0.4086
vn -0.3611 -0.8166 -0.4504
vn 0.1688 -0.9107 -0.377
vn -0.0141 -0.85 -0.5266
vn 0.2482 -0.9119 -0.327
vn 0.2485 -0.924 -0.2908
vn 0.341 -0.9092 -0.239
vn -0.5853 -0.7868 -0.1956
vn -0.2459 -0.8385 -0.4863
vn -0.5667 -0.7785 -0.2697
vn -0.2424 -0.8416 -0.4826
vn 0.0945 -0.8859 -0.4541
vn 0.0429 -0.8991 -0.4355
vn -0.5031 -0.8081 -0.3064
vn -0.5072 -0.7926 -0.3384
vn -0.1443 -0.8459 -0.5135
vn -0.4403 -0.7952 -0.4168
vn -0.1137 -0.8703 -0.4793
vn 0.1326 0.0328 -0.9906
vn 0.095 -0.0841 -0.9919
vn 0.469 0.1598 -0.8686
vn 0.384 -0.1342 -0.9135
vn 0.524 -0.3001 -0.7971
vn 0.7042 0.1416 -0.6957
vn 0.6898 -0.3878 -0.6114
vn 0.8441 0.0628 -0.5325
vn 0.9071 -0.1804 -0.3803
vn 0.9186 -0.0276 -0.3942
vn 0.6272 0.7524 -0.2011
vn -0.0526 0.8964 -0.4402
vn 0.0433 0.85 -0.5249
vn 0.0855 0.8697 -0.4862
vn 0.207 0.8404 -0.5009
vn 0.2223 0.8494 -0.4786
vn 0.3265 0.807 -0.4921
vn -0.3377 0.9085 -0.2463
vn -0.2504 0.9236 -0.2901
vn 0.3567 0.832 -0.4248
vn 0.4487 0.8073 -0.3833
vn 0.4442 0.7984 -0.4065
vn -0.2403 0.8963 -0.3726
vn -0.163 0.9141 -0.3714
vn 0.5349 0.781 -0.3224
vn 0.5298 0.8011 -0.2785
vn -0.112 0.8786 -0.4643
vn 0.1823 0.5766 -0.7964
vn 0.2768 -0.2238 -0.9345
vn 0.3351 0.178 -0.9252
vn 0.3284 -0.5361 -0.7777
vn 0.5757 0.4293 -0.6959
vn 0.5487 -0.4492 -0.7051
vn 0.7388 0.2638 -0.6202
vn -0.173 -0.8469 -0.5028
vn -0.1816 -0.8325 -0.5235
vn -0.0418 -0.8836 -0.4664
vn -0.0154 -0.873 -0.4874
vn 0.0849 -0.8821 -0.4633
vn -0.6539 -0.727 -0.2094
vn -0.5772 -0.7786 -0.2462
vn -0.5732 -0.7745 -0.2677
vn 0.0966 -0.9069 -0.41
vn 0.1828 -0.8969 -0.4027
vn -0.4942 -0.7982 -0.3444
vn -0.4943 -0.8018 -0.3358
vn 0.195 -0.9162 -0.35
vn -0.4242 -0.8031 -0.4185
vn 0.268 -0.906 -0.3275
vn -0.4188 -0.8069 -0.4165
vn 0.2935 -0.9176 -0.268
vn -0.3251 -0.831 -0.4514
vn -0.3131 -0.8187 -0.4814
vn 0.1048 -0.2343 -0.9665
vn 0.3152 0.2632 -0.9118
vn 0.3218 -0.2147 -0.9221
vn 0.5525 -0.109 -0.8264
vn 0.5695 -0.0496 -0.8205
vn 0.7419 -0.02 -0.6702
vn 0.6965 -0.3716 -0.6139
vn 0.8817 0.1918 -0.431
vn 0.882 -0.2518 -0.3984
vn 0.6273 0.7523 -0.2011
vn -0.0643 0.8932 -0.4451
vn 0.0309 0.8709 -0.4906
vn 0.0436 0.8506 -0.524
vn 0.1293 0.8683 -0.4789
vn 0.2117 0.8277 -0.5197
vn 0.2429 0.8444 -0.4776
vn -0.3376 0.9085 -0.2463
vn -0.2504 0.9237 -0.2901
vn 0.3439 0.8146 -0.4671
vn 0.3424 0.8159 -0.466
vn 0.4425 0.8088 -0.3874
vn 0.4421 0.8072 -0.3911
vn 0.5298 0.801 -0.2786
vn 0.1891 0.5656 -0.8027
vn 0.0927 -0.5348 -0.8399
vn 0.3999 0.4891 -0.7751
vn 0.2844 -0.5896 -0.7559
vn 0.5917 0.3652 -0.7187
vn 0.549 -0.4486 -0.7052
vn 0.7388 0.2629 -0.6205
vn -0.1828 -0.828 -0.5301
vn -0.2333 -0.8513 -0.4699
vn -0.0974 -0.8718 -0.4802
vn -0.047 -0.8586 -0.5105
vn 0.003 -0.8869 -0.462
vn 0.0813 -0.8745 -0.4781
vn -0.654 -0.727 -0.2094
vn -0.5771 -0.7786 -0.2463
vn -0.5731 -0.7745 -0.2677
vn 0.1044 -0.9063 -0.4095
vn -0.4942 -0.7983 -0.3443
vn -0.4242 -0.8031 -0.4184
vn 0.2679 -0.9061 -0.3275
vn -0.4189 -0.8069 -0.4165
vn -0.3369 -0.8286 -0.4472
vn -0.3142 -0.8148 -0.4872
vn 0.0646 -0.226 -0.972
vn 0.1712 0.0839 -0.9817
vn 0.3707 0.0785 -0.9254
vn 0.3551 -0.2503 -0.9007
vn 0.5629 -0.1046 -0.8198
vn 0.5929 0.0038 -0.8053
vn 0.742 -0.0198 -0.6701
vn 0.6966 -0.3713 -0.6139
vn 0.8817 0.192 -0.431
vn 0.8821 -0.2511 -0.3985
vn -0.52 -0.7948 0.313
vn -0.5782 -0.7816 0.234
vn -0.2435 -0.6939 0.6777
vn -0.1783 -0.7962 0.5782
vn -0.2602 -0.8616 0.4358
vn -0.3464 -0.7902 0.5056
vn -0.4229 -0.8138 0.3986
vn -0.4089 -0.8244 0.3914
vn -0.53 -0.775 0.3442
vn -0.1198 -0.2077 0.9708
vn -0.2997 0.2105 0.9305
vn -0.3024 0.1543 0.9406
vn -0.5483 -0.1139 0.8285
vn -0.5495 0.377 0.7456
vn -0.6949 -0.0259 0.7186
vn -0.7679 0.2962 0.568
vn -0.8587 -0.1731 0.4824
vn -0.8384 0.3846 0.3862
vn -0.2993 0.9174 0.2622
vn -0.3026 0.926 0.2256
vn 0.1091 0.8161 0.5675
vn -0.1398 0.8925 0.4288
vn -0.1439 0.9064 0.3971
vn 0.0411 0.8812 0.4709
vn -0.2247 0.9086 0.3521
vn -0.2234 0.915 0.336
vn -0.0496 0.8834 0.4661
vn -0.0459 0.8849 0.4635
vn -0.0894 -0.655 0.7503
vn -0.064 -0.7547 0.653
vn 0.119 -0.6852 0.7186
vn 0.1298 -0.7773 0.6156
vn 0.2921 -0.7207 0.6286
vn 0.2821 -0.8138 0.5081
vn 0.4252 -0.7363 0.5264
vn 0.4749 -0.7754 0.4163
vn 0.4654 -0.7947 0.3896
vn 0.551 0.779 0.2993
vn 0.4772 0.8066 0.3488
vn 0.497 0.7986 0.3394
vn 0.4767 0.7988 0.367
vn 0.5697 0.7801 0.2588
vn 0.8795 -0.1167 0.4614
vn 0.8847 -0.0834 0.4587
vn 0.6889 -0.319 0.6509
vn 0.7114 0.005 0.7027
vn 0.2825 -0.9001 0.3317
vn 0.2308 -0.917 0.3252
vn 0.318 -0.9233 0.2154
vn -0.348 0.0968 0.9325
vn -0.2731 -0.006 0.962
vn 0.5664 -0.5902 0.5752
vn -0.4844 0.0204 0.8746
vn -0.5813 0.1576 0.7983
vn 0.6419 0.294 0.7081
vn 0.5784 -0.1126 0.8079
vn -0.7096 0.0221 0.7043
vn 0.5316 -0.1291 0.8371
vn -0.7573 0.1878 0.6255
vn 0.4697 -0.0403 0.8819
vn 0.2694 -0.0334 0.9624
vn 0.2937 -0.078 0.9527
vn 0.0533 -0.0093 0.9985
vn 0.0153 -0.044 0.9989
vn -0.1272 0.0723 0.9892
vn -0.2761 0.9111 0.3061
vn 0.339 0.8269 0.4486
vn 0.3483 0.8204 0.4534
vn -0.2852 0.9346 0.2124
vn 0.2547 0.8276 0.5002
vn 0.2211 0.8507 0.4769
vn 0.1201 0.8642 0.4886
vn 0.1348 0.854 0.5025
vn 0.0428 0.8569 0.5137
vn 0.6234 0.7427 0.2445
vn -0.0018 0.8881 0.4597
vn 0.5359 0.7908 0.2957
vn -0.0727 0.8771 0.4748
vn 0.5264 0.7792 0.3403
vn -0.0994 0.9064 0.4106
vn 0.446 0.813 0.3742
vn 0.4421 0.8017 0.4024
vn -0.2007 0.8876 0.4146
vn -0.2082 0.9235 0.3221
vn 0.874 -0.2944 0.3867
vn -0.2486 -0.0972 0.9637
vn 0.9024 -0.212 0.375
vn -0.2626 0.1957 0.9449
vn -0.4671 -0.2245 0.8552
vn 0.8466 -0.0438 0.5305
vn 0.8189 -0.1744 0.5468
vn -0.481 0.4105 0.7747
vn 0.6743 -0.1483 0.7235
vn 0.6772 -0.0784 0.7316
vn -0.7003 -0.0792 0.7094
vn -0.7091 0.2218 0.6693
vn 0.511 -0.0176 0.8594
vn 0.4273 -0.2611 0.8656
vn -0.8694 -0.0365 0.4927
vn -0.8529 0.2432 0.4619
vn 0.357 0.1534 0.9214
vn 0.195 -0.2231 0.9551
vn 0.1281 0.1219 0.9842
vn -0.0021 -0.1648 0.9863
vn -0.0406 0.1516 0.9876
vn 0.0478 -0.8819 0.469
vn -0.038 -0.8669 0.497
vn -0.053 -0.8724 0.4858
vn -0.1408 -0.8529 0.5027
vn -0.1565 -0.8391 0.521
vn -0.2515 -0.8453 0.4713
vn -0.287 -0.8197 0.4958
vn 0.3794 -0.9023 0.2048
vn 0.2917 -0.9258 0.2403
vn 0.2811 -0.9012 0.3298
vn -0.4123 -0.8027 0.4309
vn -0.3822 -0.8234 0.4195
vn 0.2058 -0.9207 0.3316
vn 0.1666 -0.893 0.4182
vn 0.1398 -0.9007 0.4114
vn -0.4721 -0.81 0.3477
vn -0.5306 -0.7755 0.3422
vn -0.5653 -0.7808 0.2661
vn 0.0524 -0.8899 0.4532
vn -0.3522 0.5643 0.7467
vn 0.6513 -0.4148 0.6354
vn -0.5473 -0.5052 0.6673
vn -0.5571 0.503 0.6608
vn 0.5985 0.2127 0.7724
vn 0.4399 -0.483 0.7571
vn -0.7537 0.0255 0.6567
vn 0.4225 0.3433 0.8388
vn 0.2568 -0.3906 0.884
vn 0.2381 0.3123 0.9197
vn 0.1074 -0.3069 0.9457
vn 0.0021 0.2832 0.9591
vn -0.1349 -0.413 0.9007
vn -0.1573 0.5221 0.8383
vn -0.3602 -0.4218 0.8321
vn -0.284 0.9134 0.2916
vn 0.3347 0.8339 0.4389
vn 0.3191 0.8196 0.4759
vn -0.2964 0.9298 0.2184
vn 0.224 0.8406 0.4931
vn 0.2169 0.836 0.504
vn 0.1198 0.8643 0.4885
vn 0.0939 0.8525 0.5142
vn 0.6238 0.7423 0.2448
vn -0.0105 0.873 0.4877
vn -0.0132 0.8786 0.4774
vn 0.5363 0.7905 0.2959
vn 0.524 0.7756 0.352
vn -0.1077 0.9008 0.4207
vn 0.4415 0.8179 0.3689
vn -0.1322 0.8923 0.4316
vn 0.4211 0.7959 0.435
vn -0.2206 0.9095 0.3524
vn -0.2181 0.9181 0.331
vn 0.8742 -0.2937 0.3866
vn 0.9024 -0.2121 0.375
vn -0.2626 0.1963 0.9447
vn -0.469 -0.2295 0.8529
vn 0.8466 -0.0437 0.5305
vn 0.8189 -0.1743 0.5468
vn -0.4826 0.4059 0.7761
vn 0.6743 -0.1481 0.7234
vn 0.6773 -0.0728 0.7321
vn -0.7022 -0.065 0.709
vn -0.7091 0.2217 0.6694
vn 0.5087 -0.0252 0.8606
vn 0.4274 -0.2609 0.8656
vn -0.8695 -0.0375 0.4925
vn -0.8534 0.2415 0.462
vn 0.3569 0.1534 0.9215
vn 0.1949 -0.2233 0.9551
vn 0.1281 0.1224 0.9842
vn -0.002 -0.165 0.9863
vn -0.0406 0.1515 0.9876
vn 0.0273 -0.8694 0.4933
vn -0.0535 -0.8738 0.4833
vn -0.0708 -0.8615 0.5028
vn -0.1409 -0.8563 0.4969
vn -0.1638 -0.8404 0.5167
vn -0.2515 -0.8452 0.4716
vn -0.2865 -0.8197 0.496
vn 0.3666 -0.9087 0.1995
vn 0.2788 -0.9317 0.2327
vn 0.2702 -0.9044 0.3301
vn -0.4121 -0.8028 0.431
vn -0.3824 -0.8232 0.4197
vn 0.2047 -0.9209 0.3317
vn 0.1639 -0.8906 0.4242
vn 0.144 -0.8972 0.4174
vn -0.4722 -0.81 0.3478
vn -0.5245 -0.7793 0.343
vn -0.56 -0.7856 0.263
vn 0.0475 -0.8951 0.4432
vn 0.7644 -0.0905 0.6384
vn -0.3445 -0.2391 0.9078
vn -0.3239 0.1489 0.9343
vn 0.728 -0.1833 0.6606
vn -0.407 0.4583 0.7901
vn 0.5864 -0.0332 0.8094
vn -0.5465 -0.5069 0.6666
vn 0.5174 -0.173 0.8381
vn -0.5435 0.5421 0.6409
vn 0.3679 0.0377 0.9291
vn -0.762 -0.1033 0.6393
vn 0.26 -0.1224 0.9578
vn 0.1005 0.0349 0.9943
vn 0.1094 -0.0013 0.994
vn -0.1416 -0.2932 0.9455
vn 0.0203 0.9183 0.3954
vn -0.3481 0.3863 0.8541
vn 0.6544 0.6055 0.4528
vn 0.588 0.6874 0.4264
vn -0.2523 0.8459 0.47
vn -0.2537 0.8443 0.4721
vn 0.5408 0.5748 0.6141
vn 0.4346 0.6921 0.5763
vn -0.5411 0.6677 0.5114
vn -0.38 0.8587 0.3438
vn 0.3732 0.5981 0.7092
vn 0.2382 0.7404 0.6286
vn 0.189 0.6572 0.7296
vn -0.1509 -0.1976 0.9686
vn 0.9778 -0.2086 0.0222
vn 0.9889 -0.1484 -0.0076
vn 0.9866 -0.1632 0.0007
vn 0.9866 -0.1631 -0.0005
vn 0.9866 -0.163 -0.0006
vn 0.9893 -0.1459 0.0043
vn 0.9832 -0.1823 0.0006
vn 0.9895 -0.1448 0.0001
vn 0.9869 -0.1614 -0.0022
vn 0.9875 -0.1576 0.001
vn 0.9878 -0.1559 0.0005
vn 0.9891 -0.147 0.0001
vn 0.9865 -0.1635 0.0003
vn 0.9908 -0.1341 -0.0165
vn 0.9879 -0.1548 0.0038
vn 0.9869 -0.1613 -0.001
vn 0.986 -0.1664 0.0012
vn 0.9866 -0.1632 -0.0005
vn 0.9866 -0.1632 -0.0025
vn 0.9884 -0.152 -0.0017
vn 0.9901 -0.1402 -0.0003
vn 0.9885 -0.1515 -0.0001
vn 0.986 -0.1669 0.0016
vn 0.9917 -0.1277 -0.0127
vn 0.6206 0.7588 -0.1977
vn -0.0508 0.898 -0.4371
vn 0.0187 0.8571 -0.5147
vn 0.0887 0.8752 -0.4756
vn 0.1535 0.8338 -0.5303
vn 0.2222 0.8589 -0.4614
vn 0.3167 0.7997 -0.51
vn -0.3303 0.9119 -0.2437
vn -0.2449 0.9261 -0.2869
vn 0.3566 0.8323 -0.4244
vn 0.4491 0.8067 -0.384
vn 0.4449 0.7977 -0.4071
vn -0.2383 0.8968 -0.3728
vn -0.163 0.914 -0.3714
vn 0.5327 0.7826 -0.3222
vn 0.5256 0.8052 -0.2745
vn -0.114 0.8806 -0.46
vn 0.1477 -0.2051 -0.9675
vn 0.3255 0.1792 -0.9284
vn 0.4563 -0.2887 -0.8416
vn 0.5771 -0.0016 -0.8167
vn 0.7396 -0.1065 -0.6646
vn 0.7159 -0.1839 -0.6736
vn -0.3683 -0.5949 -0.7145
vn -0.4179 -0.704 -0.5741
vn -0.5011 -0.6069 -0.6168
vn 0.3759 -0.8082 -0.4534
vn 0.3807 -0.8049 -0.4553
vn -0.6092 -0.6526 -0.4505
vn -0.6173 -0.642 -0.4547
vn 0.2638 -0.7228 -0.6388
vn 0.2182 -0.7615 -0.6103
vn 0.0299 -0.7334 -0.6792
vn 0.0264 -0.684 -0.729
vn -0.1822 -0.7151 -0.6748
vn -0.1869 -0.7016 -0.6876
vn -0.8698 0.1095 -0.4811
vn -0.8389 0.171 -0.5168
vn -0.3121 -0.9403 -0.136
vn -0.44 -0.8831 -0.1629
vn -0.3484 -0.9349 -0.0678
vn 0.4923 -0.0863 -0.8661
vn 0.4879 -0.0787 -0.8694
vn 0.493 -0.0788 -0.8665
vn 0.4943 -0.081 -0.8655
vn 0.4989 -0.0813 -0.8628
vn 0.5183 -0.107 -0.8485
vn -0.1181 -0.9736 -0.1951
vn -0.1546 -0.927 -0.3417
vn -0.1952 -0.9612 -0.1951
vn 0.0837 0.0255 -0.9962
vn 0.1759 0.9425 -0.2843
vn 0.1952 0.9585 -0.2078
vn -0.4984 0.0807 -0.8632
vn -0.5344 0.05 -0.8438
vn -0.4944 0.0801 -0.8655
vn -0.4937 0.08 -0.8659
vn -0.4923 0.0776 -0.8669
vn -0.0339 0.9972 -0.066
vn -0.1379 0.975 -0.1742
vn 0.0029 0.991 -0.1341
vn -0.9881 0.1535 0.0003
vn -0.9871 0.1602 0.0067
vn -0.987 0.1608 0.0009
vn -0.9873 0.159 -0.001
vn -0.9868 0.1607 -0.0218
vn -0.9849 0.1725 -0.0109
vn -0.7843 0.1464 0.6029
vn -0.8544 0.0783 0.5137
vn -0.8842 0.1823 0.4301
vn 0.0078 0.9911 0.1326
vn -0.0507 0.987 0.1522
vn -0.1011 0.9873 0.1223
vn -0.0408 0.9967 0.0697
vn 0.9871 -0.1599 -0.0007
vn 0.9844 -0.1753 -0.0171
vn 0.9871 -0.1599 -0.0009
vn 0.9871 -0.1599 -0.0002
vn 0.9849 -0.1728 0.0126
vn -0.0092 -0.9913 0.1314
vn 0.143 -0.9756 0.1668
vn 0.0333 -0.9973 0.0658
vn 0.9121 -0.1284 0.3894
vn 0.8522 -0.1981 0.4844
vn 0.819 -0.0936 0.5661
vn 0.3443 0.9367 0.0642
vn 0.3872 0.9161 0.1039
vn 0.385 0.9086 0.162
vn 0.3114 0.9403 0.137
vn 0.4937 -0.0863 0.8653
vn 0.4993 -0.081 0.8626
vn 0.4928 -0.0797 0.8665
vn 0.4927 -0.0798 0.8665
vn 0.4886 -0.0791 0.8689
vn 0.4778 -0.0864 0.8742
vn -0.1469 -0.93 0.3369
vn -0.1181 -0.9718 0.2039
vn 0.1676 0.0248 0.9855
vn 0.0023 -0.0574 0.9983
vn -0.0726 0.0429 0.9964
vn 0.1353 0.9597 0.2462
vn 0.1352 0.9745 0.1789
vn -0.4927 0.0808 0.8664
vn -0.4704 0.0432 0.8814
vn -0.4926 0.0808 0.8665
vn -0.4945 0.0791 0.8656
vn -0.4936 0.0788 0.8661
vn -0.5064 0.0688 0.8596
vn -0.3427 -0.9373 0.0637
vn -0.4396 -0.8812 0.1739
vn -0.3104 -0.9411 0.1345
vn -0.9814 0.1603 0.1055
vn -0.9792 0.154 0.1323
vn -0.0348 -0.0006 -0.9994
vn -0.8999 0.1492 0.4098
vn -0.2773 0.052 -0.9594
vn -0.8785 0.1346 0.4584
vn -0.3888 0.0492 -0.92
vn -0.7053 0.1264 0.6976
vn -0.5949 0.1137 -0.7957
vn -0.5793 0.0753 0.8116
vn -0.7645 0.1062 -0.6358
vn -0.4274 0.082 0.9004
vn -0.856 0.1513 -0.4943
vn -0.1327 0.0097 0.9911
vn -0.0537 0.0155 0.9984
vn -0.9549 0.1429 -0.2603
vn -0.9711 0.1622 -0.1753
vn -0.763 -0.5432 0.3503
vn -0.7248 -0.6296 0.2798
vn -0.8004 -0.5948 0.0747
vn -0.8176 -0.572 0.0659
vn -0.81 -0.5703 -0.1369
vn -0.7954 -0.594 -0.1201
vn -0.7194 -0.6069 -0.338
vn -0.724 -0.5964 -0.3467
vn -0.6157 -0.559 -0.5553
vn -0.5048 -0.6859 -0.5241
vn -0.4286 -0.5763 -0.6958
vn -0.3051 -0.7143 -0.6299
vn -0.2048 -0.6329 -0.7467
vn -0.1544 -0.7345 0.6608
vn -0.4027 -0.5789 0.709
vn -0.419 -0.6577 0.626
vn -0.5971 -0.604 0.5279
vn -0.5917 -0.66 0.463
vn -0.1195 -0.9926 -0.0213
vn -0.1054 -0.9941 -0.0242
vn -0.1361 -0.9894 -0.0498
vn -0.1081 -0.993 -0.0474
vn -0.1237 -0.9916 -0.0388
vn -0.2192 -0.9744 0.0503
vn -0.1098 -0.9928 -0.048
vn -0.1966 -0.9797 0.0393
vn -0.2068 -0.9771 0.0496
vn -0.1957 -0.9789 0.0594
vn -0.1899 -0.9803 0.0537
vn -0.1912 -0.9797 0.0599
vn -0.2116 -0.977 0.0255
vn -0.204 -0.9787 0.0234
vn -0.224 -0.9744 0.0183
vn -0.1709 -0.9832 0.064
vn -0.2067 -0.9784 -0.0056
vn -0.1684 -0.984 0.0587
vn -0.2295 -0.9733 0.0068
vn -0.2255 -0.9742 0.0089
vn -0.1536 -0.9852 0.0757
vn -0.1594 -0.984 0.0791
vn -0.1519 -0.9867 0.0583
vn -0.1413 -0.9874 0.0712
vn -0.2184 -0.9758 -0.0116
vn -0.2226 -0.9748 -0.0138
vn -0.1504 -0.9863 0.0672
vn -0.1331 -0.9896 0.0547
vn -0.2192 -0.9752 -0.029
vn -0.133 -0.9895 0.0566
vn -0.2121 -0.9768 -0.0293
vn -0.1193 -0.9908 0.0639
vn -0.2175 -0.9754 -0.0366
vn -0.1137 -0.9922 0.0511
vn -0.2157 -0.9752 -0.0502
vn -0.1147 -0.9922 0.0484
vn -0.2043 -0.9777 -0.0484
vn -0.1023 -0.9935 0.0502
vn -0.2053 -0.9773 -0.0513
vn -0.1011 -0.9942 0.0367
vn -0.1995 -0.9778 -0.0638
vn -0.1067 -0.9939 0.0295
vn -0.1837 -0.9814 -0.0552
vn -0.099 -0.9947 0.0291
vn -0.1828 -0.982 -0.0467
vn -0.1709 -0.9824 -0.0758
vn -0.0963 -0.9953 0.014
vn -0.1013 -0.9948 0.0116
vn -0.1779 -0.9813 -0.073
vn -0.1576 -0.9858 -0.0576
vn -0.161 -0.9849 -0.0642
vn -0.1583 -0.9848 -0.0715
vn -0.0949 -0.9954 -0.0096
vn -0.0895 -0.996 -0.0068
vn -0.0957 -0.9954 -0.0034
vn -0.1464 -0.9857 -0.0835
vn -0.0862 -0.9961 -0.0208
vn -0.141 -0.9874 -0.0717
vn -0.1406 -0.989 -0.0452
vn -0.3836 -0.916 0.1174
vn -0.1889 -0.9689 0.1597
vn -0.2213 -0.9677 0.1205
vn -0.2602 -0.9314 -0.2547
vn -0.9604 -0.2395 0.1426
vn -0.9822 -0.1794 0.0565
vn -0.9484 -0.2119 0.2358
vn -0.1571 -0.3778 -0.9125
vn -0.9485 -0.2007 0.245
vn -0.226 -0.329 -0.9169
vn -0.9015 -0.2597 0.3462
vn -0.2611 -0.2769 -0.9247
vn -0.3037 -0.3235 -0.8962
vn -0.3521 -0.3507 -0.8678
vn -0.8494 -0.1912 0.492
vn -0.4435 -0.348 -0.8259
vn -0.8528 -0.2108 0.4777
vn -0.768 -0.281 0.5755
vn -0.553 -0.24 -0.7979
vn -0.5584 -0.227 -0.7979
vn -0.7095 -0.2141 0.6714
vn -0.6796 -0.2665 0.6834
vn -0.6588 -0.3102 -0.6854
vn -0.6178 -0.3138 0.721
vn -0.7616 -0.2336 -0.6045
vn -0.5143 -0.2784 0.8112
vn -0.7585 -0.2398 -0.606
vn -0.489 -0.2403 0.8385
vn -0.4153 -0.3332 0.8465
vn -0.8364 -0.2527 -0.4863
vn -0.8689 -0.1997 -0.4529
vn -0.3074 -0.356 0.8824
vn -0.8939 -0.2688 -0.3588
vn -0.1672 -0.3623 0.9169
vn -0.2319 -0.2862 0.9297
vn -0.9592 -0.2024 -0.1973
vn -0.0865 -0.3768 0.9222
vn -0.9551 -0.2167 -0.2021
vn -0.9732 -0.2295 0.0117
vn -0.9714 0.1797 0.1552
vn -0.9882 0.1413 0.0598
vn -0.977 0.1887 -0.0995
vn -0.1958 0.0086 0.9806
vn -0.9688 0.1194 -0.2171
vn -0.2552 0.0655 0.9647
vn -0.8925 0.1933 -0.4076
vn -0.4649 0.057 0.8835
vn -0.4996 0.1008 0.8604
vn -0.8683 0.1225 -0.4807
vn -0.7554 0.0916 -0.6488
vn -0.6995 0.0843 0.7096
vn -0.6469 0.1654 -0.7444
vn -0.7472 0.1496 0.6476
vn -0.5421 0.0396 -0.8394
vn -0.8535 0.1135 0.5086
vn -0.8895 0.1735 0.4227
vn -0.314 0.1044 -0.9437
vn -0.9565 0.1292 0.2615
vn -0.2265 0.0017 -0.974
vn -0.1599 -0.9871 0.0001
vn -0.1599 -0.9871 -0
vn -0.1598 -0.9872 -0.0001
vn -0.1599 -0.9871 -0.0001
vn -0.16 -0.9871 0
vn -0.1599 -0.9871 0.0002
vn -0.1596 -0.9872 0.0001
vn -0.16 -0.9871 -0.0001
vn -0.1598 -0.9872 0.0001
vn -0.1598 -0.9872 0
vn -0.16 -0.9871 0.0001
vn -0.0053 0.0964 0.9953
vn -0.9691 0.2185 -0.1147
vn -0.9749 0.1154 -0.1905
vn -0.9321 0.23 -0.2797
vn -0.275 -0.0387 0.9607
vn -0.3165 0.0997 0.9433
vn -0.8468 0.2304 -0.4794
vn -0.4872 0.1696 0.8567
vn -0.8216 0.0858 -0.5636
vn -0.6078 -0.0004 0.7941
vn -0.733 0.1936 -0.6521
vn -0.7288 0.2227 0.6476
vn -0.5954 0.0192 -0.8032
vn -0.5201 0.127 -0.8446
vn -0.8549 0.0161 0.5186
vn -0.9018 0.2659 0.3407
vn -0.3039 0.0554 -0.9511
vn -0.2856 -0.0052 -0.9583
vn -0.9679 0.2229 0.1159
vn -0.9758 0.1264 0.1784
vn -0.0055 0.0524 -0.9986
vn 0.043 0.4352 0.8993
vn -0.0181 0.8533 0.5211
vn -0.1982 0.8354 0.5127
vn -0.2602 0.89 -0.3743
vn -0.6308 0.4904 0.6013
vn -0.3735 0.574 -0.7287
vn -0.2874 0.9005 0.3264
vn -0.0929 0.8909 -0.4446
vn -0.2684 0.2384 -0.9333
vn -0.6808 0.67 0.296
vn 0.0774 0.8792 -0.4701
vn 0.0077 0.1337 -0.991
vn -0.9587 0.2256 0.1731
vn -0.1972 0.0165 -0.9802
vn -0.9789 0.1679 0.1163
vn -0.1451 -0.0516 -0.9881
vn -0.9724 0.1767 -0.152
vn -0.9819 0.1502 -0.1156
vn -0.2486 0.011 0.9685
vn -0.2514 0.0164 0.9677
vn -0.9032 0.1767 -0.3912
vn -0.9511 0.1306 -0.2797
vn -0.5035 0.0862 0.8597
vn -0.5642 0.0376 0.8248
vn -0.8685 0.1185 -0.4813
vn -0.748 0.1787 -0.6392
vn -0.7128 0.1472 0.6857
vn -0.7014 0.0663 -0.7097
vn -0.7923 0.0716 0.6059
vn -0.5478 0.0786 -0.8329
vn -0.8657 0.189 0.4636
vn -0.4699 0.0053 -0.8827
vn -0.4041 0.0497 -0.9134
vn -0.9189 0.1287 0.3729
vn -0.5588 -0.8271 0.0609
vn -0.9171 -0.0076 0.3986
vn -0.6333 -0.7265 0.2667
vn -0.6494 -0.533 0.5425
vn -0.4206 -0.8762 -0.2354
vn -0.2 -0.0013 -0.9798
vn -0.0375 0.0128 -0.9992
vn -0.9848 0.1738 0.0011
vn -0.9867 0.1495 0.0635
vn -0.132 0.0252 0.9909
vn -0.9812 0.119 -0.1522
vn -0.2531 0.0054 0.9674
vn -0.3917 0.0685 0.9175
vn -0.9105 0.1457 -0.387
vn -0.9083 0.1482 -0.3912
vn -0.5082 0.0546 0.8595
vn -0.8469 0.1188 -0.5183
vn -0.6038 0.099 0.791
vn -0.7207 0.1387 -0.6792
vn -0.6967 0.0801 0.7129
vn -0.685 0.0996 -0.7217
vn -0.796 0.1553 0.585
vn -0.5516 0.0541 -0.8324
vn -0.9073 0.1194 0.4032
vn -0.3945 0.072 -0.9161
vn -0.4012 0.0689 -0.9134
vn -0.9323 0.1682 0.3202
vn -0.1553 -0.9879 -0.0006
vn -0.1576 -0.9875 -0.0033
vn -0.1609 -0.987 0.004
vn -0.1598 -0.9871 0
vn -0.156 -0.9878 0.0011
vn -0.1627 -0.9867 0.0037
vn -0.164 -0.9865 0.0006
vn -0.1544 -0.988 -0.0027
vn -0.1605 -0.987 -0.0026
vn -0.156 -0.9878 -0.0034
vn -0.165 -0.9863 -0.0035
vn -0.157 -0.9876 0.0029
vn -0.1646 -0.9864 0.0008
vn -0.158 -0.9874 0.0043
vn -0.1623 -0.9867 0.0028
vn -0.1591 -0.9873 -0.0024
vn -0.1634 -0.9866 -0.0033
vn -0.1648 -0.9863 -0.0017
vn -0.1598 -0.9871 0.0001
vn 0.037 -0.997 -0.0684
vn 0.1393 -0.9764 -0.1652
vn -0.0028 -0.9909 -0.1343
vn 0.7721 -0.0662 -0.6321
vn 0.8936 -0.1272 -0.4304
vn 0.8509 -0.1911 -0.4894
vn 0.3751 0.9209 -0.1058
vn 0.3212 0.9444 -0.0701
vn 0.1597 0.9872 -0.0001
vn 0.1601 0.9871 0.0002
vn 0.16 0.9871 0.0002
vn 0.1454 0.9893 -0.0124
vn 0.1598 0.9872 -0.0032
vn 0.149 0.9888 -0.012
vn 0.16 0.9871 0
vn 0.1595 0.9872 -0.0001
vn 0.16 0.9871 0.0003
vn 0.1596 0.9872 -0
vn 0.1599 0.9871 0.0002
vn 0.1511 0.9885 0.0033
vn 0.1633 0.9866 -0.0057
vn 0.1468 0.9892 0.0019
vn 0.1636 0.9864 -0.0153
vn 0.1456 0.9893 0.0027
vn 0.1645 0.9863 -0.0148
vn 0.16 0.9871 -0.0002
vn 0.1601 0.9871 -0.0002
vn 0.1998 0.9795 -0.0272
vn 0.2078 0.9778 -0.0261
vn 0.1565 0.9876 0.013
vn 0.218 0.9755 -0.0292
vn 0.1557 0.9877 0.0133
vn 0.1732 0.9849 -0.0029
vn 0.155 0.9856 0.0671
vn 0.1722 0.9851 -0.0035
vn 0.1595 0.986 0.0495
vn 0.1646 0.9853 0.0469
vn 0.1596 0.9872 -0.0001
vn 0.1642 0.9863 0.012
vn 0.1617 0.9868 0.0098
vn -0.1956 0.2391 0.9511
vn -0.8675 0.4687 -0.1669
vn -0.9365 0.3439 -0.069
vn -0.8771 0.4697 0.1005
vn -0.1818 0.3656 -0.9128
vn -0.9171 0.3415 0.2055
vn -0.3117 0.2217 -0.924
vn -0.8125 0.4585 0.36
vn -0.4294 0.3994 -0.81
vn -0.8234 0.3271 0.4637
vn -0.5621 0.2815 -0.7777
vn -0.6787 0.4361 0.5909
vn -0.6343 0.4321 -0.6411
vn -0.6626 0.302 0.6854
vn -0.7517 0.3127 -0.5807
vn -0.4864 0.4042 0.7746
vn -0.7843 0.4558 -0.4209
vn -0.4475 0.268 0.8532
vn -0.8799 0.334 -0.3381
vn -0.2351 0.372 0.898
vn 0.1599 0.9871 0
vn 0.1599 0.9871 -0.0001
vn 0.1598 0.9871 0
vn 0.1598 0.9871 0.0001
vn -0.1394 0.0058 -0.9902
vn -0.9907 0.127 0.0488
vn -0.9656 0.202 -0.1638
vn -0.1919 0.0218 0.9812
vn -0.2545 0.0774 0.964
vn -0.9343 0.1112 -0.3388
vn -0.4897 0.0414 0.8709
vn -0.8442 0.1668 -0.5093
vn -0.6001 0.1403 0.7875
vn -0.7649 0.0938 -0.6373
vn -0.6545 0.1313 -0.7446
vn -0.7908 0.0927 0.605
vn -0.8434 0.1618 0.5123
vn -0.4515 0.0727 -0.8893
vn -0.4849 0.0564 -0.8728
vn -0.937 0.1319 0.3236
vn -0.9618 0.1824 0.2042
vn -0.1758 0.0383 -0.9837
vn -0.1575 -0.9875 -0.002
vn -0.1588 -0.9873 0.0005
vn -0.156 -0.9878 -0.0005
vn -0.1398 -0.9902 0.0005
vn -0.1608 -0.987 0
vn -0.1596 -0.9872 -0.0004
vn -0.1611 -0.9869 0.0007
vn -0.1596 -0.9872 -0.0005
vn -0.1599 -0.9871 -0.0002
vn -0.1617 -0.9868 0.0004
vn -0.1641 -0.9864 -0.0007
vn -0.1752 -0.9845 -0.0003
vn -0.1623 -0.9867 -0.0015
vn -0.162 -0.9868 -0.0005
vn -0.1597 -0.9872 -0
vn -0.1597 -0.9872 0.0002
vn -0.1597 -0.9872 0.0001
vn -0.1569 -0.9876 -0.001
vn -0.9864 0.1642 -0.0061
vn -0.9871 0.16 0.001
vn -0.9864 0.1642 0.0021
vn -0.9842 0.1767 0.0074
vn -0.9925 0.122 0.0024
vn -0.9882 0.1533 0.0028
vn -0.9865 0.1637 -0.0031
vn -0.9871 0.16 0.0018
vn -0.9883 0.1523 0.004
vn -0.9867 0.1626 -0.0008
vn -0.9936 0.1128 0.0009
vn -0.9858 0.1677 0.0019
vn -0.9863 0.1646 -0.0062
vn -0.9874 0.1585 -0.0013
vn -0.9931 0.1156 0.0216
vn -0.9871 0.1599 0.0017
vn -0.9865 0.1638 0.002
vn -0.9859 0.1673 0.0024
vn -0.9877 0.1565 -0.0014
vn -0.9872 0.1597 0.0022
vn -0.9902 0.1393 -0.0122
vn -0.9849 0.1726 0.0113
vn -0.9908 0.1353 0.0019
vn 0.1168 0.6981 -0.7064
vn 0.3459 0.726 -0.5943
vn 0.3063 0.6141 -0.7274
vn 0.5205 0.5126 -0.6829
vn 0.5973 0.6786 -0.4275
vn 0.5996 0.673 -0.4331
vn 0.1612 0.9869 -0.0003
vn 0.1581 0.9874 0
vn 0.1598 0.9871 0.0002
vn 0.1581 0.9874 -0.0008
vn 0.1573 0.9876 -0.0003
vn 0.16 0.9871 0.0001
vn 0.1597 0.9872 0.0001
vn 0.1582 0.9874 -0.0006
vn 0.1597 0.9872 0.0002
vn 0.1605 0.987 0.0002
vn 0.1606 0.987 -0.0004
vn 0.1608 0.987 -0.0002
vn 0.16 0.9871 -0.0001
vn 0.1597 0.9872 -0.0007
vn 0.1598 0.9872 -0.0001
vn 0.1615 0.9867 0.0166
vn 0.1837 0.9828 0.0166
vn 0.1672 0.9858 0.0178
vn 0.1517 0.9884 0.0112
vn 0.162 0.9868 0.0003
vn 0.1613 0.9869 0.0009
vn 0.1622 0.9868 0.0003
vn 0.1598 0.9871 -0.0001
vn 0.2693 -0.0436 -0.9621
vn 0.2762 -0.0431 -0.9601
vn 0.884 -0.1442 0.4447
vn 0.8723 -0.1283 0.4718
vn 0.5421 -0.0921 -0.8352
vn 0.5295 -0.0841 -0.8441
vn 0.6251 -0.1142 0.7722
vn 0.5837 -0.0808 0.808
vn 0.7816 -0.122 -0.6117
vn 0.7947 -0.134 -0.592
vn 0.2054 -0.0469 0.9776
vn 0.1654 -0.0202 0.986
vn 0.9497 -0.149 -0.2756
vn 0.9572 -0.1636 -0.2387
vn 0.988 -0.1479 0.044
vn 0.9794 -0.1696 0.1093
f 1//1 2//1 3//1
f 4//2 3//2 5//2
f 6//3 7//3 8//3
f 9//4 10//4 11//4
f 10//5 12//5 11//5
f 13//6 14//6 15//6
f 16//7 14//7 13//7
f 11//8 17//8 18//8
f 12//9 17//9 11//9
f 15//10 14//10 19//10
f 17//11 20//11 18//11
f 14//12 21//12 19//12
f 18//13 20//13 22//13
f 19//14 21//14 23//14
f 20//15 24//15 22//15
f 22//16 24//16 25//16
f 21//17 26//17 23//17
f 23//18 26//18 9//18
f 26//19 10//19 9//19
f 27//20 28//20 29//20
f 27//21 29//21 30//21
f 31//22 27//22 30//22
f 32//23 31//23 30//23
f 32//24 30//24 33//24
f 34//25 32//25 33//25
f 35//26 34//26 33//26
f 36//27 35//27 33//27
f 37//28 38//28 39//28
f 40//29 41//29 42//29
f 40//30 43//30 41//30
f 44//31 45//31 46//31
f 47//32 44//32 46//32
f 48//33 42//33 49//33
f 48//34 40//34 42//34
f 50//35 47//35 46//35
f 50//36 46//36 51//36
f 48//37 49//37 52//37
f 53//38 48//38 52//38
f 50//39 51//39 54//39
f 55//40 53//40 52//40
f 56//41 50//41 54//41
f 55//42 52//42 57//42
f 38//43 55//43 57//43
f 43//44 54//44 41//44
f 43//45 56//45 54//45
f 38//46 57//46 39//46
f 58//47 59//47 60//47
f 60//48 59//48 61//48
f 62//49 63//49 64//49
f 65//50 66//50 67//50
f 67//51 66//51 68//51
f 69//52 63//52 62//52
f 61//53 59//53 70//53
f 59//54 71//54 70//54
f 64//55 72//55 73//55
f 63//56 72//56 64//56
f 66//57 74//57 68//57
f 68//58 74//58 75//58
f 72//59 76//59 73//59
f 73//60 76//60 77//60
f 74//61 78//61 75//61
f 75//62 78//62 79//62
f 76//63 80//63 77//63
f 77//64 80//64 81//64
f 78//65 82//65 79//65
f 79//66 82//66 83//66
f 80//67 58//67 81//67
f 81//68 58//68 60//68
f 83//69 69//69 62//69
f 82//70 69//70 83//70
f 84//71 85//71 86//71
f 84//72 87//72 85//72
f 88//73 89//73 90//73
f 91//74 88//74 90//74
f 92//75 93//75 94//75
f 84//76 86//76 95//76
f 96//77 92//77 94//77
f 97//78 84//78 95//78
f 96//79 94//79 98//79
f 99//80 95//80 100//80
f 99//81 97//81 95//81
f 101//82 96//82 98//82
f 101//83 98//83 102//83
f 103//84 99//84 100//84
f 104//85 101//85 102//85
f 103//86 100//86 105//86
f 104//87 102//87 106//87
f 107//88 103//88 105//88
f 108//89 104//89 106//89
f 108//90 106//90 85//90
f 88//91 105//91 89//91
f 88//92 107//92 105//92
f 87//93 108//93 85//93
f 88//94 91//94 109//94
f 84//95 110//95 87//95
f 88//96 109//96 111//96
f 108//97 87//97 112//97
f 107//98 88//98 111//98
f 103//99 107//99 111//99
f 104//100 108//100 113//100
f 101//101 104//101 113//101
f 96//102 101//102 113//102
f 97//103 99//103 110//103
f 84//104 97//104 110//104
f 114//105 112//105 87//105
f 115//106 116//106 109//106
f 115//107 109//107 91//107
f 114//108 87//108 110//108
f 117//109 115//109 91//109
f 118//110 93//110 92//110
f 119//111 114//111 110//111
f 120//112 118//112 92//112
f 120//113 92//113 96//113
f 121//114 119//114 110//114
f 121//115 110//115 99//115
f 122//116 120//116 96//116
f 122//117 96//117 113//117
f 123//118 121//118 99//118
f 123//119 99//119 103//119
f 124//120 122//120 113//120
f 125//121 123//121 103//121
f 124//122 113//122 108//122
f 125//123 103//123 111//123
f 126//124 108//124 112//124
f 126//125 124//125 108//125
f 116//126 125//126 111//126
f 116//127 111//127 109//127
f 114//128 126//128 112//128
f 119//129 127//129 114//129
f 128//130 127//130 119//130
f 128//131 119//131 121//131
f 120//132 129//132 118//132
f 128//133 121//133 123//133
f 126//134 130//134 124//134
f 114//135 130//135 126//135
f 127//136 130//136 114//136
f 131//137 132//137 115//137
f 133//138 130//138 127//138
f 133//139 134//139 130//139
f 135//140 136//140 129//140
f 133//141 127//141 128//141
f 137//142 133//142 128//142
f 135//143 129//143 120//143
f 138//144 135//144 120//144
f 138//145 120//145 122//145
f 137//146 128//146 123//146
f 139//147 137//147 123//147
f 139//148 123//148 125//148
f 140//149 122//149 124//149
f 141//150 139//150 125//150
f 140//151 138//151 122//151
f 141//152 125//152 116//152
f 134//153 124//153 130//153
f 134//154 140//154 124//154
f 132//155 141//155 116//155
f 132//156 116//156 115//156
f 142//157 143//157 144//157
f 145//158 146//158 147//158
f 142//159 144//159 148//159
f 145//160 149//160 146//160
f 150//161 151//161 152//161
f 150//162 153//162 151//162
f 154//163 142//163 148//163
f 154//164 148//164 155//164
f 156//165 150//165 152//165
f 156//166 152//166 157//166
f 158//167 154//167 155//167
f 158//168 155//168 159//168
f 160//169 156//169 157//169
f 161//170 158//170 159//170
f 160//171 157//171 162//171
f 161//172 159//172 163//172
f 164//173 161//173 163//173
f 165//174 160//174 162//174
f 143//175 162//175 144//175
f 143//176 165//176 162//176
f 149//177 163//177 146//177
f 149//178 164//178 163//178
f 153//179 166//179 167//179
f 142//180 154//180 168//180
f 153//181 150//181 166//181
f 142//182 168//182 169//182
f 149//183 145//183 170//183
f 149//184 170//184 171//184
f 143//185 169//185 172//185
f 143//186 142//186 169//186
f 149//187 171//187 173//187
f 149//188 173//188 8//188
f 143//189 172//189 174//189
f 164//190 8//190 7//190
f 164//191 149//191 8//191
f 164//192 7//192 6//192
f 165//193 174//193 175//193
f 165//194 143//194 174//194
f 164//195 6//195 176//195
f 160//196 165//196 175//196
f 160//197 175//197 2//197
f 161//198 164//198 176//198
f 161//199 176//199 177//199
f 160//200 2//200 1//200
f 158//201 177//201 178//201
f 158//202 161//202 177//202
f 160//203 1//203 3//203
f 156//204 160//204 3//204
f 158//205 178//205 179//205
f 156//206 3//206 4//206
f 154//207 179//207 180//207
f 156//208 4//208 5//208
f 154//209 158//209 179//209
f 150//210 156//210 5//210
f 150//211 5//211 181//211
f 154//212 180//212 168//212
f 150//213 181//213 166//213
f 182//214 183//214 184//214
f 184//215 183//215 185//215
f 185//216 183//216 186//216
f 187//217 186//217 183//217
f 188//218 186//218 187//218
f 186//219 188//219 189//219
f 190//220 189//220 188//220
f 189//221 190//221 191//221
f 192//222 191//222 190//222
f 193//223 194//223 192//223
f 192//224 194//224 191//224
f 194//225 193//225 195//225
f 196//226 197//226 198//226
f 195//227 193//227 199//227
f 200//228 198//228 197//228
f 198//229 200//229 201//229
f 200//230 202//230 201//230
f 202//231 182//231 201//231
f 201//232 182//232 184//232
f 186//233 203//233 185//233
f 203//234 204//234 185//234
f 185//235 204//235 184//235
f 195//236 205//236 194//236
f 206//237 205//237 195//237
f 184//238 207//238 201//238
f 194//239 205//239 191//239
f 204//240 207//240 184//240
f 205//241 208//241 191//241
f 207//242 209//242 201//242
f 201//243 209//243 198//243
f 191//244 208//244 189//244
f 209//245 210//245 198//245
f 208//246 211//246 189//246
f 189//247 211//247 186//247
f 198//248 210//248 196//248
f 211//249 203//249 186//249
f 212//250 213//250 214//250
f 215//251 216//251 217//251
f 218//252 215//252 217//252
f 219//253 215//253 218//253
f 220//254 219//254 218//254
f 221//255 222//255 223//255
f 224//256 221//256 223//256
f 225//257 223//257 226//257
f 225//258 224//258 223//258
f 227//259 225//259 226//259
f 227//260 226//260 228//260
f 229//261 227//261 228//261
f 229//262 228//262 230//262
f 231//263 232//263 233//263
f 234//264 231//264 233//264
f 235//265 234//265 233//265
f 235//266 233//266 236//266
f 237//267 235//267 236//267
f 238//268 239//268 240//268
f 241//269 238//269 240//269
f 241//270 240//270 242//270
f 243//271 241//271 242//271
f 244//272 242//272 245//272
f 244//273 243//273 242//273
f 244//274 245//274 246//274
f 247//275 244//275 246//275
f 247//276 246//276 248//276
f 249//277 248//277 250//277
f 249//278 247//278 248//278
f 251//279 252//279 253//279
f 254//280 252//280 251//280
f 255//281 251//281 256//281
f 255//282 254//282 251//282
f 257//283 255//283 256//283
f 257//284 256//284 258//284
f 259//285 257//285 258//285
f 260//286 261//286 262//286
f 263//287 260//287 262//287
f 263//288 262//288 264//288
f 265//271 263//271 264//271
f 266//289 264//289 267//289
f 266//290 265//290 264//290
f 266//291 267//291 268//291
f 269//292 266//292 268//292
f 269//293 268//293 270//293
f 271//294 269//294 270//294
f 272//295 271//295 270//295
f 272//296 270//296 273//296
f 274//297 275//297 276//297
f 277//298 275//298 274//298
f 278//299 274//299 279//299
f 278//300 277//300 274//300
f 280//301 278//301 279//301
f 280//302 279//302 281//302
f 282//303 280//303 281//303
f 283//304 284//304 285//304
f 283//305 285//305 286//305
f 287//306 283//306 286//306
f 287//307 286//307 288//307
f 289//308 287//308 288//308
f 290//309 289//309 288//309
f 290//310 288//310 291//310
f 292//311 291//311 293//311
f 292//312 290//312 291//312
f 294//313 36//313 295//313
f 296//314 295//314 297//314
f 296//315 294//315 295//315
f 298//316 296//316 297//316
f 298//317 297//317 299//317
f 300//318 298//318 299//318
f 298//319 301//319 296//319
f 32//320 291//320 288//320
f 34//321 291//321 32//321
f 298//322 302//322 301//322
f 294//323 303//323 36//323
f 300//324 302//324 298//324
f 300//325 304//325 302//325
f 305//326 304//326 300//326
f 28//327 286//327 285//327
f 34//328 35//328 291//328
f 27//329 286//329 28//329
f 35//330 293//330 291//330
f 296//331 301//331 294//331
f 294//332 301//332 303//332
f 27//333 288//333 286//333
f 31//334 288//334 27//334
f 36//335 293//335 35//335
f 31//336 32//336 288//336
f 36//337 303//337 293//337
f 306//338 293//338 303//338
f 306//339 292//339 293//339
f 307//340 303//340 301//340
f 307//341 306//341 303//341
f 308//342 307//342 301//342
f 308//343 301//343 302//343
f 309//344 308//344 302//344
f 309//345 302//345 304//345
f 309//346 304//346 305//346
f 310//347 309//347 305//347
f 309//348 310//348 311//348
f 290//349 279//349 289//349
f 290//350 281//350 279//350
f 292//351 281//351 290//351
f 292//352 312//352 281//352
f 306//353 312//353 292//353
f 306//354 313//354 312//354
f 283//355 276//355 284//355
f 283//356 287//356 276//356
f 307//357 313//357 306//357
f 308//358 314//358 307//358
f 307//359 314//359 313//359
f 287//360 274//360 276//360
f 289//361 274//361 287//361
f 308//362 311//362 314//362
f 309//363 311//363 308//363
f 289//364 279//364 274//364
f 282//365 281//365 312//365
f 282//366 312//366 313//366
f 315//367 282//367 313//367
f 316//368 315//368 313//368
f 316//369 313//369 314//369
f 317//370 316//370 314//370
f 311//371 317//371 314//371
f 282//372 270//372 280//372
f 282//373 273//373 270//373
f 273//374 282//374 318//374
f 315//375 318//375 282//375
f 315//376 316//376 318//376
f 261//377 276//377 262//377
f 276//378 264//378 262//378
f 275//379 264//379 276//379
f 316//380 319//380 318//380
f 317//381 319//381 316//381
f 277//382 267//382 275//382
f 275//383 267//383 264//383
f 317//384 320//384 319//384
f 278//385 267//385 277//385
f 311//386 320//386 317//386
f 278//387 268//387 267//387
f 321//388 320//388 311//388
f 278//389 270//389 268//389
f 280//390 270//390 278//390
f 322//391 272//391 273//391
f 322//392 273//392 318//392
f 323//393 322//393 318//393
f 324//394 318//394 319//394
f 324//395 323//395 318//395
f 324//396 319//396 320//396
f 325//397 324//397 320//397
f 325//398 320//398 321//398
f 326//399 325//399 321//399
f 325//400 326//400 327//400
f 269//401 256//401 266//401
f 269//402 271//402 256//402
f 271//403 258//403 256//403
f 272//404 258//404 271//404
f 272//405 328//405 258//405
f 322//406 328//406 272//406
f 263//407 253//407 260//407
f 263//408 265//408 253//408
f 322//409 323//409 328//409
f 323//410 329//410 328//410
f 324//411 330//411 323//411
f 323//412 330//412 329//412
f 265//360 251//360 253//360
f 266//361 251//361 265//361
f 324//362 327//362 330//362
f 325//413 327//413 324//413
f 266//364 256//364 251//364
f 259//414 258//414 328//414
f 331//415 259//415 328//415
f 331//416 328//416 329//416
f 332//417 331//417 329//417
f 332//418 329//418 330//418
f 333//419 332//419 330//419
f 327//420 333//420 330//420
f 259//421 250//421 257//421
f 257//422 250//422 248//422
f 259//423 334//423 250//423
f 331//424 334//424 259//424
f 331//425 335//425 334//425
f 331//426 332//426 335//426
f 239//427 253//427 240//427
f 253//428 242//428 240//428
f 252//429 242//429 253//429
f 332//430 336//430 335//430
f 333//381 336//381 332//381
f 254//431 245//431 252//431
f 252//383 245//383 242//383
f 333//384 337//384 336//384
f 255//432 245//432 254//432
f 327//433 337//433 333//433
f 255//434 246//434 245//434
f 338//388 337//388 327//388
f 255//435 248//435 246//435
f 257//436 248//436 255//436
f 339//437 249//437 250//437
f 339//438 250//438 334//438
f 339//439 334//439 335//439
f 340//440 339//440 335//440
f 341//441 335//441 336//441
f 341//442 340//442 335//442
f 341//443 336//443 337//443
f 342//444 341//444 337//444
f 342//445 337//445 338//445
f 343//446 342//446 338//446
f 344//447 345//447 346//447
f 347//448 345//448 344//448
f 348//449 349//449 350//449
f 351//450 349//450 348//450
f 351//451 352//451 349//451
f 353//452 352//452 351//452
f 354//453 346//453 353//453
f 353//454 346//454 352//454
f 344//455 346//455 354//455
f 355//456 350//456 349//456
f 356//457 349//457 352//457
f 356//458 355//458 349//458
f 357//459 356//459 352//459
f 357//460 352//460 346//460
f 358//461 357//461 346//461
f 358//462 346//462 345//462
f 359//463 358//463 345//463
f 359//464 345//464 347//464
f 358//465 360//465 361//465
f 359//466 360//466 358//466
f 350//467 362//467 363//467
f 364//468 356//468 365//468
f 356//469 357//469 365//469
f 355//470 362//470 350//470
f 357//471 361//471 365//471
f 358//472 361//472 357//472
f 356//473 362//473 355//473
f 356//474 364//474 362//474
f 366//475 237//475 236//475
f 366//476 236//476 367//476
f 368//477 366//477 367//477
f 368//478 367//478 369//478
f 370//479 368//479 369//479
f 370//480 369//480 371//480
f 372//481 370//481 371//481
f 373//482 372//482 371//482
f 373//483 371//483 374//483
f 375//484 376//484 373//484
f 377//485 372//485 375//485
f 375//486 372//486 376//486
f 370//487 372//487 377//487
f 375//488 373//488 378//488
f 378//489 379//489 380//489
f 375//490 378//490 380//490
f 377//491 375//491 380//491
f 377//492 380//492 381//492
f 382//493 380//493 383//493
f 382//494 381//494 380//494
f 383//495 380//495 379//495
f 235//496 384//496 385//496
f 235//497 237//497 384//497
f 382//498 383//498 386//498
f 234//499 235//499 385//499
f 234//500 385//500 387//500
f 382//501 386//501 388//501
f 370//502 382//502 388//502
f 231//503 234//503 387//503
f 368//504 370//504 388//504
f 231//505 387//505 389//505
f 368//506 388//506 390//506
f 366//507 390//507 391//507
f 366//508 368//508 390//508
f 366//509 391//509 392//509
f 237//510 366//510 392//510
f 237//511 392//511 384//511
f 393//512 389//512 387//512
f 394//513 390//513 395//513
f 395//514 390//514 388//514
f 396//515 389//515 393//515
f 394//516 391//516 390//516
f 394//517 397//517 391//517
f 398//518 392//518 397//518
f 397//519 392//519 391//519
f 398//520 384//520 392//520
f 399//521 383//521 400//521
f 401//522 384//522 398//522
f 399//523 402//523 383//523
f 384//524 401//524 385//524
f 402//525 386//525 383//525
f 401//526 403//526 385//526
f 395//527 386//527 402//527
f 395//528 388//528 386//528
f 385//529 403//529 387//529
f 393//530 387//530 403//530
f 400//531 404//531 405//531
f 401//532 398//532 406//532
f 399//533 400//533 405//533
f 407//534 401//534 406//534
f 403//535 401//535 407//535
f 408//536 399//536 405//536
f 402//537 399//537 408//537
f 409//538 403//538 407//538
f 395//539 402//539 408//539
f 410//540 395//540 408//540
f 393//541 403//541 409//541
f 411//542 393//542 409//542
f 395//543 410//543 412//543
f 394//544 395//544 412//544
f 396//545 393//545 411//545
f 413//546 396//546 411//546
f 414//547 394//547 412//547
f 397//548 394//548 414//548
f 415//549 397//549 414//549
f 398//550 397//550 415//550
f 398//551 415//551 406//551
f 416//552 417//552 414//552
f 417//553 418//553 414//553
f 418//554 415//554 414//554
f 418//555 406//555 415//555
f 419//556 406//556 418//556
f 419//557 407//557 406//557
f 420//558 407//558 419//558
f 404//559 421//559 405//559
f 421//560 408//560 405//560
f 422//561 408//561 421//561
f 423//562 409//562 420//562
f 420//563 409//563 407//563
f 408//564 422//564 410//564
f 422//565 416//565 410//565
f 416//566 412//566 410//566
f 423//567 411//567 409//567
f 424//568 411//568 423//568
f 413//569 411//569 424//569
f 416//570 414//570 412//570
f 425//571 420//571 426//571
f 422//572 421//572 427//572
f 423//573 420//573 425//573
f 428//574 423//574 425//574
f 429//575 422//575 427//575
f 416//576 422//576 429//576
f 424//577 423//577 428//577
f 430//578 416//578 429//578
f 417//579 416//579 430//579
f 431//580 417//580 430//580
f 418//581 417//581 431//581
f 432//582 418//582 431//582
f 419//583 418//583 432//583
f 426//584 419//584 432//584
f 420//585 419//585 426//585
f 433//586 424//586 428//586
f 434//587 429//587 435//587
f 434//588 430//588 429//588
f 436//589 424//589 433//589
f 434//590 437//590 430//590
f 437//591 431//591 430//591
f 438//592 431//592 437//592
f 438//593 432//593 431//593
f 439//594 421//594 440//594
f 441//595 426//595 438//595
f 438//596 426//596 432//596
f 439//597 442//597 421//597
f 442//598 427//598 421//598
f 443//599 426//599 441//599
f 435//600 427//600 442//600
f 443//601 425//601 426//601
f 435//602 429//602 427//602
f 425//603 443//603 428//603
f 433//604 428//604 443//604
f 440//605 444//605 445//605
f 441//532 438//532 446//532
f 439//606 440//606 445//606
f 447//607 441//607 446//607
f 443//608 441//608 447//608
f 448//609 439//609 445//609
f 442//610 439//610 448//610
f 449//611 443//611 447//611
f 435//612 442//612 448//612
f 450//613 435//613 448//613
f 433//614 443//614 449//614
f 451//615 433//615 449//615
f 435//616 450//616 452//616
f 434//617 435//617 452//617
f 436//618 433//618 451//618
f 453//619 436//619 451//619
f 454//620 434//620 452//620
f 437//621 434//621 454//621
f 455//622 437//622 454//622
f 438//623 437//623 455//623
f 438//624 455//624 446//624
f 456//625 454//625 457//625
f 456//626 455//626 454//626
f 363//627 455//627 456//627
f 363//628 446//628 455//628
f 458//629 446//629 363//629
f 458//630 447//630 446//630
f 459//631 447//631 458//631
f 444//632 460//632 445//632
f 460//633 448//633 445//633
f 461//634 448//634 460//634
f 462//635 449//635 459//635
f 459//636 449//636 447//636
f 448//637 461//637 450//637
f 461//638 457//638 450//638
f 457//639 452//639 450//639
f 462//640 451//640 449//640
f 360//641 451//641 462//641
f 453//642 451//642 360//642
f 457//643 454//643 452//643
f 460//644 463//644 464//644
f 459//645 362//645 364//645
f 459//646 458//646 362//646
f 461//647 460//647 464//647
f 365//648 459//648 364//648
f 461//649 464//649 465//649
f 462//650 459//650 365//650
f 457//651 461//651 465//651
f 361//652 462//652 365//652
f 457//653 465//653 466//653
f 360//654 462//654 361//654
f 456//655 457//655 466//655
f 363//656 456//656 466//656
f 363//657 466//657 467//657
f 458//658 363//658 362//658
f 468//659 351//659 469//659
f 353//660 351//660 468//660
f 464//661 463//661 470//661
f 464//662 470//662 471//662
f 354//663 353//663 468//663
f 472//664 354//664 468//664
f 465//665 464//665 471//665
f 465//666 471//666 473//666
f 344//667 354//667 472//667
f 474//668 344//668 472//668
f 466//669 465//669 473//669
f 466//670 473//670 348//670
f 467//671 466//671 348//671
f 351//672 348//672 469//672
f 460//673 444//673 463//673
f 463//674 444//674 470//674
f 310//675 321//675 311//675
f 400//676 338//676 326//676
f 379//677 338//677 400//677
f 373//678 374//678 378//678
f 378//679 343//679 379//679
f 379//680 343//680 338//680
f 421//681 404//681 440//681
f 470//682 305//682 475//682
f 444//683 305//683 470//683
f 440//684 310//684 444//684
f 444//685 310//685 305//685
f 326//675 338//675 327//675
f 475//686 300//686 299//686
f 305//687 300//687 475//687
f 404//688 321//688 440//688
f 378//689 476//689 343//689
f 440//690 321//690 310//690
f 383//691 379//691 400//691
f 374//692 476//692 378//692
f 404//693 326//693 321//693
f 400//694 326//694 404//694
f 476//695 477//695 343//695
f 343//696 477//696 478//696
f 342//697 343//697 478//697
f 247//698 226//698 244//698
f 247//699 228//699 226//699
f 249//700 228//700 247//700
f 249//701 230//701 228//701
f 339//702 230//702 249//702
f 339//703 479//703 230//703
f 241//704 222//704 238//704
f 241//705 243//705 222//705
f 340//706 479//706 339//706
f 341//707 480//707 340//707
f 340//708 480//708 479//708
f 243//709 223//709 222//709
f 244//710 223//710 243//710
f 341//711 478//711 480//711
f 342//712 478//712 341//712
f 244//713 226//713 223//713
f 481//714 229//714 230//714
f 481//715 230//715 479//715
f 482//716 481//716 479//716
f 482//717 479//717 480//717
f 477//718 480//718 478//718
f 477//719 482//719 480//719
f 225//720 227//720 483//720
f 225//721 483//721 484//721
f 224//722 225//722 484//722
f 482//723 476//723 485//723
f 482//724 477//724 476//724
f 224//725 484//725 486//725
f 221//726 224//726 486//726
f 481//727 482//727 485//727
f 481//728 485//728 487//728
f 481//729 487//729 488//729
f 229//730 481//730 488//730
f 229//731 488//731 483//731
f 227//732 229//732 483//732
f 489//733 490//733 491//733
f 489//734 491//734 492//734
f 489//735 493//735 494//735
f 490//736 489//736 494//736
f 490//737 494//737 495//737
f 220//738 496//738 497//738
f 498//739 220//739 497//739
f 498//740 497//740 499//740
f 500//741 498//741 499//741
f 500//742 499//742 501//742
f 502//743 500//743 501//743
f 220//744 498//744 503//744
f 219//745 220//745 503//745
f 219//746 503//746 504//746
f 220//747 218//747 496//747
f 496//748 218//748 217//748
f 496//749 217//749 497//749
f 493//750 492//750 505//750
f 493//751 489//751 492//751
f 504//752 505//752 216//752
f 504//752 493//752 505//752
f 504//753 216//753 215//753
f 219//754 504//754 215//754
f 491//755 506//755 507//755
f 492//756 491//756 507//756
f 492//757 507//757 505//757
f 508//758 509//758 510//758
f 511//759 508//759 510//759
f 511//760 510//760 506//760
f 495//761 511//761 506//761
f 495//762 506//762 491//762
f 490//763 495//763 491//763
f 512//764 513//764 514//764
f 508//765 512//765 514//765
f 508//766 514//766 509//766
f 513//767 515//767 516//767
f 514//768 513//768 516//768
f 509//769 514//769 516//769
f 509//770 516//770 510//770
f 517//771 518//771 519//771
f 517//772 520//772 518//772
f 521//773 519//773 522//773
f 521//773 517//773 519//773
f 521//774 522//774 523//774
f 524//775 521//775 523//775
f 525//776 526//776 527//776
f 524//777 525//777 527//777
f 524//778 527//778 521//778
f 524//779 523//779 528//779
f 525//780 524//780 528//780
f 525//781 528//781 529//781
f 523//782 522//782 530//782
f 528//783 523//783 530//783
f 529//784 528//784 530//784
f 529//785 530//785 531//785
f 525//786 529//786 531//786
f 526//787 525//787 531//787
f 526//788 531//788 532//788
f 533//789 526//789 532//789
f 533//790 532//790 534//790
f 535//791 533//791 534//791
f 535//792 212//792 214//792
f 535//793 214//793 533//793
f 535//794 534//794 536//794
f 212//795 535//795 536//795
f 212//796 536//796 537//796
f 537//797 536//797 534//797
f 537//798 534//798 538//798
f 213//799 537//799 538//799
f 213//800 212//800 537//800
f 213//801 538//801 515//801
f 539//802 213//802 515//802
f 539//803 515//803 513//803
f 512//804 539//804 513//804
f 508//805 511//805 540//805
f 512//806 508//806 540//806
f 512//807 540//807 539//807
f 541//808 542//808 543//808
f 542//809 544//809 543//809
f 210//810 545//810 196//810
f 543//811 544//811 546//811
f 196//812 545//812 547//812
f 544//813 548//813 546//813
f 545//814 549//814 547//814
f 546//815 548//815 550//815
f 547//816 549//816 551//816
f 548//817 552//817 550//817
f 549//818 553//818 551//818
f 550//819 552//819 554//819
f 551//820 553//820 555//820
f 552//821 206//821 554//821
f 554//822 206//822 195//822
f 553//823 542//823 555//823
f 555//824 542//824 541//824
f 556//825 557//825 546//825
f 546//826 557//826 543//826
f 543//827 557//827 541//827
f 558//828 541//828 557//828
f 559//829 555//829 558//829
f 558//830 555//830 541//830
f 560//831 551//831 559//831
f 559//832 551//832 555//832
f 561//833 551//833 560//833
f 551//834 561//834 547//834
f 562//835 547//835 561//835
f 547//836 562//836 196//836
f 197//837 196//837 562//837
f 195//838 199//838 554//838
f 563//839 554//839 199//839
f 554//840 563//840 550//840
f 563//841 556//841 550//841
f 550//842 556//842 546//842
f 175//843 557//843 556//843
f 175//844 174//844 557//844
f 3//845 563//845 5//845
f 2//846 175//846 556//846
f 3//847 556//847 563//847
f 182//848 564//848 565//848
f 3//849 2//849 556//849
f 202//850 564//850 182//850
f 182//851 565//851 566//851
f 202//852 567//852 564//852
f 200//853 568//853 567//853
f 200//854 567//854 202//854
f 183//855 566//855 569//855
f 183//856 182//856 566//856
f 183//857 569//857 570//857
f 200//858 571//858 568//858
f 183//859 570//859 572//859
f 197//860 571//860 200//860
f 187//861 183//861 572//861
f 187//862 572//862 573//862
f 197//863 170//863 571//863
f 171//864 170//864 197//864
f 562//865 171//865 197//865
f 173//866 171//866 562//866
f 188//867 187//867 573//867
f 574//868 188//868 573//868
f 8//869 173//869 562//869
f 6//870 8//870 562//870
f 575//871 188//871 574//871
f 561//872 6//872 562//872
f 190//873 188//873 575//873
f 176//874 6//874 561//874
f 576//875 190//875 575//875
f 177//876 176//876 561//876
f 190//877 576//877 577//877
f 560//878 177//878 561//878
f 192//879 190//879 577//879
f 178//880 177//880 560//880
f 578//881 192//881 577//881
f 179//882 178//882 560//882
f 579//883 192//883 578//883
f 559//884 179//884 560//884
f 193//885 192//885 579//885
f 180//886 179//886 559//886
f 580//887 193//887 579//887
f 581//888 193//888 580//888
f 168//889 180//889 559//889
f 558//890 168//890 559//890
f 582//891 193//891 581//891
f 167//892 193//892 582//892
f 199//893 193//893 167//893
f 166//894 199//894 167//894
f 169//895 168//895 558//895
f 169//896 558//896 557//896
f 172//897 169//897 557//897
f 181//898 199//898 166//898
f 174//899 172//899 557//899
f 5//900 199//900 181//900
f 5//901 563//901 199//901
f 583//902 569//902 566//902
f 584//903 568//903 571//903
f 585//904 567//904 568//904
f 579//905 586//905 580//905
f 587//906 572//906 570//906
f 587//907 588//907 572//907
f 587//908 570//908 569//908
f 153//909 167//909 582//909
f 589//910 587//910 569//910
f 153//911 582//911 581//911
f 589//912 569//912 583//912
f 590//913 153//913 581//913
f 590//914 581//914 580//914
f 590//915 580//915 586//915
f 589//916 583//916 566//916
f 590//917 586//917 579//917
f 591//918 589//918 566//918
f 591//919 566//919 565//919
f 590//920 579//920 578//920
f 592//921 590//921 578//921
f 593//922 591//922 565//922
f 593//923 565//923 564//923
f 592//924 578//924 577//924
f 593//925 564//925 567//925
f 592//926 577//926 576//926
f 593//927 567//927 585//927
f 594//928 592//928 576//928
f 595//929 593//929 585//929
f 595//930 585//930 568//930
f 594//931 576//931 575//931
f 596//932 594//932 575//932
f 595//933 568//933 584//933
f 596//934 575//934 574//934
f 145//935 584//935 571//935
f 145//936 595//936 584//936
f 596//937 574//937 573//937
f 145//938 571//938 170//938
f 588//939 596//939 573//939
f 588//940 573//940 572//940
f 587//941 597//941 598//941
f 588//942 587//942 598//942
f 588//943 598//943 599//943
f 595//944 145//944 147//944
f 596//945 588//945 599//945
f 595//946 147//946 600//946
f 596//947 599//947 601//947
f 593//948 595//948 600//948
f 593//949 600//949 602//949
f 594//950 596//950 601//950
f 592//951 594//951 601//951
f 591//952 593//952 602//952
f 592//953 601//953 603//953
f 591//954 602//954 604//954
f 590//955 592//955 603//955
f 589//956 591//956 604//956
f 589//957 604//957 597//957
f 590//958 603//958 151//958
f 587//959 589//959 597//959
f 153//960 590//960 151//960
f 140//961 162//961 157//961
f 140//962 157//962 138//962
f 604//962 602//962 605//962
f 602//962 606//962 605//962
f 604//963 605//963 607//963
f 600//964 606//964 602//964
f 597//961 604//961 607//961
f 147//962 606//962 600//962
f 147//964 131//964 606//964
f 597//965 607//965 608//965
f 598//962 597//962 608//962
f 146//961 131//961 147//961
f 599//962 598//962 608//962
f 132//966 131//966 146//966
f 609//967 599//967 608//967
f 163//961 132//961 146//961
f 601//962 599//962 609//962
f 141//968 132//968 163//968
f 610//968 601//968 609//968
f 159//964 141//964 163//964
f 139//964 141//964 159//964
f 603//962 601//962 610//962
f 611//969 603//969 610//969
f 137//964 139//964 159//964
f 155//969 137//969 159//969
f 151//961 603//961 611//961
f 148//970 137//970 155//970
f 133//965 137//965 148//965
f 136//964 151//964 611//964
f 135//962 151//962 136//962
f 135//962 152//962 151//962
f 133//965 148//965 144//965
f 134//965 133//965 144//965
f 135//964 157//964 152//964
f 134//962 144//962 162//962
f 138//964 157//964 135//964
f 140//971 134//971 162//971
f 131//972 115//972 612//972
f 608//973 613//973 614//973
f 609//974 608//974 614//974
f 609//975 614//975 615//975
f 606//976 131//976 612//976
f 606//977 612//977 616//977
f 609//978 615//978 617//978
f 606//979 616//979 618//979
f 610//980 609//980 617//980
f 605//981 606//981 618//981
f 610//982 617//982 619//982
f 605//983 618//983 620//983
f 611//984 610//984 619//984
f 611//985 619//985 621//985
f 607//986 605//986 620//986
f 607//987 620//987 622//987
f 611//988 621//988 623//988
f 136//989 611//989 623//989
f 608//990 622//990 613//990
f 608//991 607//991 622//991
f 136//992 623//992 129//992
f 612//993 115//993 117//993
f 612//994 117//994 616//994
f 618//995 616//995 624//995
f 625//996 619//996 617//996
f 620//997 618//997 624//997
f 621//998 619//998 625//998
f 620//999 624//999 626//999
f 627//1000 621//1000 625//1000
f 623//1001 621//1001 627//1001
f 622//1002 620//1002 626//1002
f 118//1003 623//1003 627//1003
f 129//1004 623//1004 118//1004
f 622//1005 628//1005 629//1005
f 627//1006 630//1006 93//1006
f 613//1007 622//1007 629//1007
f 118//1008 627//1008 93//1008
f 614//1009 629//1009 631//1009
f 614//1010 613//1010 629//1010
f 616//1011 117//1011 91//1011
f 616//1012 91//1012 632//1012
f 615//1013 631//1013 633//1013
f 615//1014 614//1014 631//1014
f 616//1015 632//1015 634//1015
f 624//1016 616//1016 634//1016
f 617//1017 615//1017 633//1017
f 617//1018 633//1018 635//1018
f 624//1019 634//1019 636//1019
f 625//1020 617//1020 635//1020
f 626//1021 624//1021 636//1021
f 625//1022 635//1022 637//1022
f 626//1023 636//1023 628//1023
f 627//1024 625//1024 637//1024
f 627//1025 637//1025 630//1025
f 622//1026 626//1026 628//1026
f 638//1027 629//1027 628//1027
f 639//1028 638//1028 628//1028
f 639//1029 628//1029 636//1029
f 634//1030 639//1030 636//1030
f 640//1031 635//1031 633//1031
f 93//1032 630//1032 641//1032
f 93//1033 641//1033 94//1033
f 629//1034 642//1034 643//1034
f 629//1035 638//1035 642//1035
f 91//1036 90//1036 644//1036
f 631//1037 629//1037 643//1037
f 632//1038 91//1038 644//1038
f 632//1039 644//1039 645//1039
f 633//1040 643//1040 646//1040
f 633//1041 631//1041 643//1041
f 634//1042 632//1042 645//1042
f 640//1043 633//1043 646//1043
f 634//1044 645//1044 647//1044
f 640//1045 646//1045 648//1045
f 639//1046 634//1046 647//1046
f 635//1047 640//1047 648//1047
f 639//1048 647//1048 649//1048
f 637//1049 635//1049 648//1049
f 638//1050 639//1050 649//1050
f 630//1051 648//1051 641//1051
f 630//1052 637//1052 648//1052
f 638//1053 649//1053 642//1053
f 517//1054 86//1054 85//1054
f 517//1055 521//1055 86//1055
f 498//961 94//961 503//961
f 498//961 98//961 94//961
f 647//1056 539//1056 540//1056
f 649//1057 647//1057 540//1057
f 650//1058 517//1058 85//1058
f 645//1059 539//1059 647//1059
f 645//1060 213//1060 539//1060
f 650//962 85//962 106//962
f 498//971 102//971 98//971
f 500//1061 102//1061 498//1061
f 649//1057 540//1057 511//1057
f 500//1062 650//1062 106//1062
f 500//1063 106//1063 102//1063
f 644//961 213//961 645//961
f 642//963 649//963 511//963
f 644//961 214//961 213//961
f 90//962 214//962 644//962
f 643//970 642//970 511//970
f 643//1064 511//1064 495//1064
f 89//1065 533//1065 214//1065
f 89//962 214//962 90//962
f 643//1066 495//1066 494//1066
f 105//1067 533//1067 89//1067
f 105//1068 526//1068 533//1068
f 646//1057 643//1057 494//1057
f 493//1069 646//1069 494//1069
f 648//1070 646//1070 493//1070
f 100//964 526//964 105//964
f 527//964 526//964 100//964
f 504//1071 648//1071 493//1071
f 504//961 641//961 648//961
f 527//962 100//962 95//962
f 521//1057 527//1057 95//1057
f 503//1072 641//1072 504//1072
f 521//970 95//970 86//970
f 503//962 94//962 641//962
f 520//1073 517//1073 650//1073
f 502//1074 520//1074 650//1074
f 502//1075 650//1075 500//1075
f 502//1076 501//1076 651//1076
f 520//1077 651//1077 518//1077
f 520//1078 502//1078 651//1078
f 518//1079 651//1079 501//1079
f 518//1080 501//1080 519//1080
f 530//1081 652//1081 653//1081
f 531//1082 653//1082 654//1082
f 531//1083 530//1083 653//1083
f 82//1084 78//1084 505//1084
f 82//1085 505//1085 507//1085
f 78//1086 216//1086 505//1086
f 74//1083 216//1083 78//1083
f 69//1087 82//1087 507//1087
f 69//1088 507//1088 506//1088
f 66//1083 216//1083 74//1083
f 66//1089 217//1089 216//1089
f 63//1090 69//1090 506//1090
f 65//1091 217//1091 66//1091
f 63//1092 506//1092 510//1092
f 497//1093 217//1093 65//1093
f 72//1094 63//1094 510//1094
f 655//1095 497//1095 65//1095
f 72//1096 510//1096 516//1096
f 499//1097 497//1097 655//1097
f 76//1087 72//1087 516//1087
f 656//1098 499//1098 655//1098
f 515//1098 76//1098 516//1098
f 80//1099 76//1099 515//1099
f 657//1098 499//1098 656//1098
f 501//1100 499//1100 657//1100
f 58//1098 80//1098 515//1098
f 501//1101 657//1101 658//1101
f 538//1102 58//1102 515//1102
f 519//1103 501//1103 658//1103
f 59//1104 58//1104 538//1104
f 519//1105 658//1105 659//1105
f 534//1106 59//1106 538//1106
f 522//1107 519//1107 659//1107
f 71//1108 59//1108 534//1108
f 522//1090 659//1090 660//1090
f 532//1109 71//1109 534//1109
f 522//1088 660//1088 652//1088
f 530//1110 522//1110 652//1110
f 532//1111 654//1111 71//1111
f 531//1112 654//1112 532//1112
f 655//1113 65//1113 67//1113
f 661//1114 660//1114 662//1114
f 660//1115 659//1115 662//1115
f 662//1116 659//1116 663//1116
f 70//1117 71//1117 664//1117
f 659//1118 658//1118 663//1118
f 71//1119 654//1119 664//1119
f 663//1120 658//1120 665//1120
f 664//1121 654//1121 666//1121
f 658//1122 657//1122 665//1122
f 654//1123 653//1123 666//1123
f 665//1124 657//1124 667//1124
f 666//1125 653//1125 668//1125
f 657//1126 656//1126 667//1126
f 653//1127 652//1127 668//1127
f 667//1128 656//1128 669//1128
f 668//1129 652//1129 661//1129
f 656//1130 655//1130 669//1130
f 652//1131 660//1131 661//1131
f 669//1132 655//1132 67//1132
f 661//1133 662//1133 40//1133
f 664//1133 38//1133 70//1133
f 664//1133 55//1133 38//1133
f 661//1133 40//1133 48//1133
f 668//1133 661//1133 48//1133
f 666//1133 55//1133 664//1133
f 666//1133 53//1133 55//1133
f 668//1133 48//1133 53//1133
f 666//1133 668//1133 53//1133
f 670//1133 671//1133 79//1133
f 670//1133 79//1133 83//1133
f 671//1133 75//1133 79//1133
f 672//1133 75//1133 671//1133
f 670//1133 83//1133 62//1133
f 673//1133 670//1133 62//1133
f 672//1133 68//1133 75//1133
f 673//1133 62//1133 64//1133
f 44//1133 68//1133 672//1133
f 44//1134 67//1134 68//1134
f 674//1133 673//1133 64//1133
f 674//1135 64//1135 73//1135
f 47//1134 67//1134 44//1134
f 47//1134 669//1134 67//1134
f 675//1135 674//1135 73//1135
f 675//1135 73//1135 77//1135
f 50//1134 669//1134 47//1134
f 667//1133 669//1133 50//1133
f 676//1136 675//1136 77//1136
f 81//1133 676//1133 77//1133
f 665//1133 667//1133 50//1133
f 56//1133 665//1133 50//1133
f 60//1133 677//1133 676//1133
f 60//1133 676//1133 81//1133
f 663//1133 665//1133 56//1133
f 663//1133 56//1133 43//1133
f 61//1133 37//1133 677//1133
f 61//1133 677//1133 60//1133
f 662//1133 663//1133 43//1133
f 70//1133 37//1133 61//1133
f 662//1133 43//1133 40//1133
f 70//1133 38//1133 37//1133
f 44//1137 672//1137 45//1137
f 673//1138 674//1138 678//1138
f 673//1139 678//1139 679//1139
f 677//1140 37//1140 39//1140
f 677//1141 39//1141 680//1141
f 670//1142 673//1142 679//1142
f 676//1143 677//1143 680//1143
f 670//1144 679//1144 681//1144
f 676//1145 680//1145 682//1145
f 671//1146 670//1146 681//1146
f 671//1147 681//1147 683//1147
f 675//1148 676//1148 682//1148
f 675//1149 682//1149 684//1149
f 672//1150 683//1150 685//1150
f 672//1151 671//1151 683//1151
f 674//1152 675//1152 684//1152
f 674//1153 684//1153 678//1153
f 672//1154 685//1154 45//1154
f 476//1155 54//1155 51//1155
f 476//1156 51//1156 485//1156
f 476//1157 374//1157 42//1157
f 476//1158 42//1158 41//1158
f 682//1159 233//1159 232//1159
f 680//1160 233//1160 682//1160
f 684//1161 682//1161 232//1161
f 680//1162 236//1162 233//1162
f 39//1163 236//1163 680//1163
f 678//1164 684//1164 232//1164
f 39//1163 367//1163 236//1163
f 57//964 367//964 39//964
f 57//964 369//964 367//964
f 486//1165 679//1165 678//1165
f 486//1166 678//1166 232//1166
f 52//962 369//962 57//962
f 681//1167 679//1167 486//1167
f 52//968 371//968 369//968
f 484//1168 681//1168 486//1168
f 683//962 681//962 484//962
f 49//968 371//968 52//968
f 374//1169 371//1169 49//1169
f 483//1170 685//1170 683//1170
f 483//961 683//961 484//961
f 42//1171 374//1171 49//1171
f 483//966 45//966 685//966
f 488//1072 45//1072 483//1072
f 488//962 46//962 45//962
f 487//961 46//961 488//961
f 487//962 51//962 46//962
f 476//1172 41//1172 54//1172
f 485//961 51//961 487//961
f 359//1173 453//1173 360//1173
f 239//1174 413//1174 260//1174
f 260//1175 413//1175 436//1175
f 28//1176 285//1176 29//1176
f 239//1177 396//1177 413//1177
f 238//1178 396//1178 239//1178
f 222//1179 221//1179 238//1179
f 276//1180 261//1180 284//1180
f 221//1181 486//1181 238//1181
f 285//1182 347//1182 29//1182
f 285//1183 359//1183 347//1183
f 284//1184 359//1184 285//1184
f 436//1185 413//1185 424//1185
f 347//1186 474//1186 29//1186
f 347//1187 344//1187 474//1187
f 261//1174 453//1174 284//1174
f 253//1188 239//1188 260//1188
f 284//1189 453//1189 359//1189
f 238//1190 232//1190 396//1190
f 486//1191 232//1191 238//1191
f 260//1192 436//1192 261//1192
f 396//1193 231//1193 389//1193
f 232//1194 231//1194 396//1194
f 261//1195 436//1195 453//1195
f 36//1196 33//1196 686//1196
f 295//1197 686//1197 687//1197
f 295//1198 36//1198 686//1198
f 297//1199 295//1199 687//1199
f 299//1200 687//1200 475//1200
f 299//1201 297//1201 687//1201
f 470//1202 18//1202 471//1202
f 688//1203 30//1203 29//1203
f 689//1133 30//1133 688//1133
f 689//1204 33//1204 30//1204
f 690//1205 688//1205 29//1205
f 13//1091 33//1091 689//1091
f 691//1206 690//1206 29//1206
f 13//1207 686//1207 33//1207
f 15//1133 686//1133 13//1133
f 15//1208 687//1208 686//1208
f 474//1209 691//1209 29//1209
f 474//1135 692//1135 691//1135
f 472//1081 692//1081 474//1081
f 19//1210 687//1210 15//1210
f 693//1087 692//1087 472//1087
f 468//1134 693//1134 472//1134
f 475//1211 687//1211 19//1211
f 475//1212 19//1212 23//1212
f 694//1134 693//1134 468//1134
f 695//1136 696//1136 694//1136
f 9//1213 475//1213 23//1213
f 469//1133 695//1133 694//1133
f 469//1214 694//1214 468//1214
f 469//1087 697//1087 695//1087
f 22//1215 25//1215 698//1215
f 469//1216 699//1216 697//1216
f 348//1217 700//1217 699//1217
f 348//1218 699//1218 469//1218
f 348//1219 698//1219 700//1219
f 473//1220 698//1220 348//1220
f 473//1133 22//1133 698//1133
f 470//1221 9//1221 11//1221
f 470//1222 11//1222 18//1222
f 470//1223 475//1223 9//1223
f 471//1135 22//1135 473//1135
f 471//1224 18//1224 22//1224
f 696//1225 701//1225 694//1225
f 701//1226 702//1226 694//1226
f 690//1227 703//1227 688//1227
f 703//1228 704//1228 688//1228
f 694//1229 705//1229 693//1229
f 702//1230 705//1230 694//1230
f 688//1231 704//1231 689//1231
f 704//1232 706//1232 689//1232
f 705//1233 707//1233 693//1233
f 693//1234 707//1234 692//1234
f 689//1235 706//1235 13//1235
f 706//1236 16//1236 13//1236
f 707//1237 708//1237 692//1237
f 692//1238 708//1238 691//1238
f 708//1239 703//1239 691//1239
f 691//1240 703//1240 690//1240