o obj1
v 0.087385 0.077346 -0.026197
v 0.088156 0.077226 -0.026124
v 0.087716 0.077189 -0.02655
v 0.089416 0.077433 -0.024223
v 0.089745 0.077296 -0.024571
v 0.089169 0.077282 -0.025136
v 0.087391 0.077521 -0.025514
v 0.087053 0.077497 -0.025843
v 0.087733 0.07754 -0.02518
v 0.088602 0.077255 -0.025689
v 0.088079 0.077554 -0.024842
v 0.088428 0.077563 -0.0245
v 0.089083 0.077566 -0.023871
v 0.088744 0.077694 -0.023516
v 0.088093 0.077697 -0.024147
v 0.088076 0.077824 -0.023478
v 0.088402 0.077818 -0.023156
v 0.087757 0.077825 -0.023793
vn 0.1729 0.9497 -0.2609
vn 0.1805 0.9613 -0.2082
vn 0.1725 0.9538 -0.2459
vn 0.1721 0.9539 -0.2459
vn 0.1716 0.9552 -0.2411
vn 0.1791 0.9547 -0.2376
vn 0.1781 0.9573 -0.2276
vn 0.1813 0.9572 -0.2255
vn 0.1814 0.9645 -0.1921
vn 0.1857 0.96 -0.2094
vn 0.1827 0.9599 -0.2127
vn 0.1738 0.9674 -0.1842
vn 0.1865 0.9643 -0.1878
vn 0.179 0.97 -0.1644
vn 0.1777 0.9677 -0.1788
vn 0.1802 0.9673 -0.1786
f 1//1 2//1 3//1
f 4//2 5//2 6//2
f 7//3 1//3 8//3
f 7//4 2//4 1//4
f 9//5 10//5 2//5
f 9//6 2//6 7//6
f 11//7 6//7 10//7
f 11//8 10//8 9//8
f 12//9 13//9 4//9
f 12//10 4//10 6//10
f 12//11 6//11 11//11
f 14//12 13//12 12//12
f 15//13 14//13 12//13
f 16//14 17//14 14//14
f 16//15 14//15 15//15
f 18//16 16//16 15//16