o obj1
v 0.088132 0.077321 0.025708
v 0.087465 0.07761 0.025
v 0.086963 0.077581 0.025489
v 0.088187 0.077632 0.024293
v 0.087345 0.077948 0.023409
v 0.086626 0.077941 0.024116
v 0.088855 0.077353 0.025
v 0.08937 0.077123 0.025547
v 0.08857 0.077113 0.026174
v 0.08926 0.077364 0.024603
v 0.089756 0.077369 0.024116
v 0.088648 0.077633 0.023839
v 0.087048 0.077777 0.024561
v 0.089686 0.076974 0.025884
v 0.088959 0.076921 0.026591
v 0.089084 0.077631 0.023409
v 0.086557 0.077552 0.025884
v 0.087221 0.077247 0.026591
vn 0.1706 0.9581 0.2303
vn 0.171 0.9679 0.1841
vn 0.182 0.9562 0.2291
vn 0.1771 0.9583 0.2242
vn 0.1838 0.9507 0.2496
vn 0.1777 0.9618 0.208
vn 0.1785 0.9608 0.2123
vn 0.1834 0.963 0.1974
vn 0.1828 0.9648 0.1891
vn 0.1718 0.9635 0.2055
vn 0.1869 0.9467 0.2623
vn 0.1846 0.9657 0.1827
vn 0.168 0.9529 0.2524
vn 0.1695 0.9662 0.1944
vn 0.1843 0.9504 0.2504
vn 0.1674 0.9552 0.2439
f 1//1 2//1 3//1
f 4//2 5//2 6//2
f 7//3 1//3 8//3
f 7//4 2//4 1//4
f 8//5 1//5 9//5
f 10//6 2//6 7//6
f 10//7 4//7 2//7
f 11//8 4//8 10//8
f 12//9 4//9 11//9
f 4//10 13//10 2//10
f 14//11 9//11 15//11
f 16//12 12//12 11//12
f 1//13 17//13 18//13
f 6//14 13//14 4//14
f 8//15 9//15 14//15
f 3//16 17//16 1//16