o obj1
v 0.096594 0.070774 -0.033297
v 0.053592 0.079162 -1E-06
v 0.102323 0.069633 -0.031108
v 0.111189 0.068027 -0.024508
v 0.114804 0.066793 0
v 0.065191 0.076842 -0.026222
v 0.061418 0.077559 -0.022321
v 0.091242 0.071823 -0.034404
v 0.06906 0.076107 -0.029154
v 0.081098 0.073796 -0.034034
v 0.07443 0.075079 -0.032081
v 0.107334 0.06863 -0.027927
v 0.085901 0.072864 -0.034575
v 0.058602 0.078095 -0.018376
v 0.056 0.078598 -0.013329
v 0.054223 0.078937 -0.007587
v 0.053578 0.079063 -0.003406
v 0.118293 0.064907 -0.017174
v 0.123854 0.060933 -1E-06
v 0.120613 0.063185 -0.014124
v 0.122156 0.062151 -0.011141
v 0.123525 0.061287 -0.004217
v 0.123132 0.061523 -0.007021
v 0.123615 0.061148 -0.004093
v 0.05712 0.078293 0.016042
v 0.053537 0.07862 -1E-06
v 0.054461 0.078798 0.008963
v 0.066992 0.076382 0.027744
v 0.062104 0.077302 0.023317
v 0.075219 0.07478 0.03236
v 0.081142 0.073617 0.034067
v 0.070743 0.075654 0.030215
v 0.088647 0.072255 0.034636
v 0.053603 0.078974 0.004321
v 0.096058 0.070784 0.033469
v 0.101277 0.069739 0.031548
v 0.114984 0.066652 0
v 0.10517 0.068969 0.029434
v 0.109866 0.068005 0.025919
v 0.121998 0.062179 0.012003
v 0.119386 0.063981 0.01602
v 0.113795 0.067093 0.02181
v 0.123858 0.060833 0
v 0.123066 0.061483 0.008015
v 0.123661 0.060972 0.003531
vn 0.194 0.981 0.0034
vn 0.198 0.98 0.0201
vn 0.1787 0.9839 -0.008
vn 0.1922 0.9814 0.001
vn 0.182 0.9833 -0.0065
vn 0.1882 0.9821 -0.0027
vn 0.1784 0.9836 -0.0277
vn 0.1857 0.9826 -0.0045
vn 0.1912 0.9816 -0.0001
vn 0.1941 0.981 0.0036
vn 0.1904 0.9817 -0.0009
vn 0.1734 0.9848 -0.0099
vn 0.1687 0.9856 -0.0112
vn 0.129 0.9915 -0.0187
vn 0.0079 0.9995 -0.029
vn 0.4155 0.9095 -0.0155
vn 0.5435 0.8393 0.0091
vn 0.545 0.8384 0.0086
vn 0.5732 0.819 0.0265
vn 0.0057 0.9965 0.0831
vn 0.4553 0.8899 0.0279
vn 0.8454 0.5336 -0.0213
vn 0.3163 0.9473 -0.0514
vn 0.2011 0.9794 -0.0185
vn 0.197 0.9803 -0.0157
vn 0.2026 0.9791 -0.0193
vn 0.1786 0.9839 -0.0002
vn 0.1996 0.9797 -0.0175
vn 0.2434 0.9693 -0.0346
vn 0.5757 0.8142 -0.0755
vn 0.1918 0.9814 -0.0127
vn 0.1859 0.9825 -0.0154
vn 0.1917 0.9814 -0.0134
vn 0.1912 0.9815 -0.0134
vn 0.1929 0.9811 -0.012
vn 0.5539 0.8325 -0.0134
vn 0.4937 0.8696 0.0094
vn 0.5484 0.8362 -0.0088
vn 0.2182 0.9759 -0.0078
vn 0.4835 0.8751 -0.0232
vn 0.6961 0.7178 0.0106
f 1//1 2//1 3//1
f 4//2 2//2 5//2
f 2//3 6//3 7//3
f 8//4 2//4 1//4
f 9//5 6//5 2//5
f 2//6 10//6 11//6
f 4//7 12//7 2//7
f 11//8 9//8 2//8
f 13//9 2//9 8//9
f 3//10 2//10 12//10
f 10//11 2//11 13//11
f 14//12 2//12 7//12
f 15//13 2//13 14//13
f 2//14 15//14 16//14
f 16//15 17//15 2//15
f 5//16 18//16 4//16
f 19//17 20//17 5//17
f 19//18 21//18 20//18
f 5//19 20//19 18//19
f 19//20 22//20 23//20
f 19//21 23//21 21//21
f 22//22 19//22 24//22
f 25//23 26//23 27//23
f 28//24 26//24 29//24
f 26//25 30//25 31//25
f 28//26 32//26 26//26
f 26//27 31//27 33//27
f 30//28 26//28 32//28
f 26//29 25//29 29//29
f 27//30 26//30 34//30
f 35//31 36//31 37//31
f 38//32 37//32 36//32
f 39//33 37//33 38//33
f 33//34 37//34 26//34
f 35//35 37//35 33//35
f 40//36 37//36 41//36
f 37//37 42//37 41//37
f 40//38 43//38 37//38
f 42//39 37//39 39//39
f 44//40 43//40 40//40
f 43//41 44//41 45//41