o obj1
v -0.024808 0.065081 0.042303
v -0.023444 0.067328 0.042403
v -0.025469 0.067 0.042232
v -0.023054 0.065365 0.042429
v -0.026541 0.0648 0.04168
v -0.018355 0.066126 0.03716
v -0.018731 0.068091 0.037459
v -0.019195 0.068016 0.039303
v -0.027112 0.066733 0.041454
v -0.018678 0.066074 0.038936
v -0.027565 0.064635 0.040868
v -0.019815 0.06589 0.040712
v -0.028196 0.064532 0.040095
v -0.028401 0.066525 0.040172
v -0.02024 0.067847 0.040786
v -0.028782 0.064437 0.038935
v -0.021503 0.067642 0.041767
v -0.029248 0.066388 0.038369
v -0.020528 0.065774 0.041402
v -0.022327 0.065483 0.042232
v -0.029118 0.064383 0.037449
v -0.029373 0.066368 0.03631
v -0.029045 0.064395 0.036311
v -0.028903 0.066444 0.034718
v -0.027712 0.066655 0.035399
v -0.027886 0.066609 0.033187
v -0.028009 0.066588 0.036418
v -0.022068 0.067573 0.040487
v -0.023791 0.067279 0.041112
v -0.020596 0.067789 0.035032
v -0.019715 0.067932 0.033828
v -0.021005 0.067722 0.032545
v -0.018868 0.068069 0.035631
v -0.022735 0.067451 0.033184
v -0.022439 0.067491 0.031842
v -0.028134 0.066568 0.036987
v -0.028225 0.066554 0.036719
v -0.020012 0.067891 0.036667
v -0.02458 0.067158 0.041031
v -0.023536 0.067328 0.03297
v -0.023994 0.067239 0.031577
v -0.028098 0.06658 0.037336
v -0.024261 0.067198 0.032875
v -0.025481 0.067012 0.040769
v -0.020007 0.067887 0.037329
v -0.027688 0.066657 0.038684
v -0.025996 0.066915 0.031928
v -0.020275 0.067854 0.038232
v -0.024808 0.067132 0.033053
v -0.026001 0.066914 0.033493
v -0.027163 0.066746 0.034492
v -0.021155 0.067709 0.039871
v -0.023954 0.067255 0.032583
v -0.022555 0.06747 0.033022
v -0.021523 0.067668 0.040084
v -0.020513 0.067809 0.039571
v -0.021876 0.06758 0.040697
v -0.020818 0.067752 0.03442
v -0.02036 0.067861 0.035545
v -0.021318 0.067702 0.034078
v -0.022812 0.067463 0.040807
v -0.019988 0.067887 0.03572
v -0.019964 0.067889 0.038371
v -0.020584 0.067822 0.038937
v -0.022511 0.067514 0.033308
v -0.025534 0.066987 0.040977
v -0.026879 0.066786 0.039858
v -0.027369 0.066693 0.039455
v -0.028028 0.066582 0.038185
v -0.028012 0.066608 0.036389
v -0.028211 0.066557 0.035998
v -0.027243 0.066712 0.034332
v -0.026287 0.066896 0.033647
v -0.026087 0.066889 0.033269
v -0.026515 0.066862 0.040154
v -0.024136 0.068579 0.032878
v -0.025031 0.068433 0.032669
v -0.024511 0.068512 0.032892
v -0.023848 0.067295 0.041483
v -0.028794 0.067598 0.038202
v -0.028983 0.06724 0.037664
v -0.028755 0.067295 0.038629
v -0.028999 0.067025 0.03669
v -0.028757 0.066687 0.036695
v -0.028829 0.066778 0.037641
v -0.028501 0.066548 0.037099
v -0.024511 0.068513 0.041105
v -0.023842 0.068625 0.041401
v -0.024214 0.068559 0.041127
v -0.028737 0.067783 0.037136
v -0.028262 0.067843 0.039145
v -0.028178 0.067936 0.038483
v -0.02802 0.067915 0.038259
v -0.028149 0.067895 0.037737
v -0.028568 0.066681 0.035705
v -0.028955 0.067514 0.036706
v -0.02829 0.067897 0.037417
v -0.028767 0.066988 0.035572
v -0.028443 0.067888 0.036261
v -0.028803 0.067288 0.035515
v -0.028348 0.067898 0.036954
v -0.027754 0.066662 0.034559
v -0.028652 0.067733 0.035662
v -0.028223 0.066876 0.034567
v -0.025189 0.067092 0.041369
v -0.028273 0.067898 0.036531
v -0.024636 0.067462 0.041795
v -0.023713 0.067492 0.041712
v -0.023737 0.067729 0.041858
v -0.024402 0.067933 0.041914
v -0.02545 0.067268 0.041579
v -0.028374 0.067339 0.034537
v -0.028148 0.067899 0.036262
v -0.028017 0.067926 0.035735
v -0.024893 0.068241 0.041706
v -0.023772 0.068422 0.041732
v -0.02565 0.067614 0.041688
v -0.027283 0.066862 0.033608
v -0.028291 0.067678 0.034623
v -0.02671 0.066835 0.040596
v -0.027826 0.067215 0.033789
v -0.027939 0.067912 0.034421
v -0.026405 0.067068 0.04111
v -0.026246 0.067904 0.041378
v -0.025352 0.068379 0.040986
v -0.024795 0.068456 0.04103
v -0.026548 0.067422 0.041276
v -0.027606 0.068026 0.034466
v -0.026146 0.068127 0.041241
v -0.027661 0.067709 0.033679
v -0.024995 0.068405 0.040932
v -0.026158 0.068263 0.040872
v -0.025518 0.068323 0.040798
v -0.027717 0.067963 0.035043
v -0.027213 0.067315 0.033184
v -0.027386 0.06689 0.040351
v -0.027455 0.067276 0.040613
v -0.02621 0.067024 0.032864
v -0.027398 0.068016 0.034562
v -0.02517 0.067084 0.032674
v -0.026267 0.067267 0.032658
v -0.027455 0.067691 0.040552
v -0.027901 0.066637 0.039226
v -0.026647 0.068022 0.032975
v -0.026503 0.067778 0.032713
v -0.027048 0.068075 0.034154
v -0.026199 0.068213 0.040493
v -0.026323 0.067532 0.032595
v -0.026703 0.06817 0.033443
v -0.027355 0.067931 0.040416
v -0.026492 0.06817 0.033691
v -0.02732 0.068061 0.040097
v -0.028139 0.066963 0.039646
v -0.025187 0.067265 0.032399
v -0.028409 0.066703 0.038761
v -0.028247 0.067435 0.039677
v -0.025297 0.067625 0.03222
v -0.026811 0.068112 0.040065
v -0.027318 0.068038 0.039545
v -0.025363 0.068162 0.032382
v -0.028683 0.067002 0.038682
v -0.023993 0.067457 0.032257
v -0.024088 0.067728 0.032099
v -0.025846 0.068267 0.033329
v -0.024417 0.068037 0.03212
v -0.027733 0.067961 0.038926
v -0.025009 0.068403 0.033064
v -0.024073 0.068411 0.032281
v -0.02479 0.068457 0.03297
v -0.018271 0.06614 0.036929
v -0.018749 0.066062 0.034898
v -0.023973 0.065216 0.031542
v -0.021492 0.065618 0.032006
v -0.022428 0.065467 0.031638
v -0.019602 0.065924 0.040599
v -0.028161 0.064538 0.033769
v -0.027635 0.064623 0.033297
v -0.027021 0.064723 0.032654
v -0.028548 0.064475 0.034617
v -0.029047 0.064395 0.035673
v -0.02186 0.065559 0.042186
v -0.024822 0.065079 0.042429
v -0.02004 0.07649 0.035901
v -0.020101 0.07648 0.038229
v -0.026637 0.075422 0.042399
v -0.028724 0.075084 0.041411
v -0.020808 0.076366 0.039953
v -0.030224 0.074841 0.039639
v -0.022405 0.076107 0.041645
v -0.030834 0.074742 0.037636
v -0.02456 0.075758 0.042456
v -0.02211 0.076155 0.032589
v -0.02076 0.07635 0.032631
v -0.021238 0.076267 0.032143
v -0.020876 0.076355 0.033962
v -0.020245 0.07643 0.033257
v -0.022007 0.076139 0.031558
v -0.022816 0.076012 0.031124
v -0.01969 0.076518 0.034182
v -0.024419 0.075781 0.031536
v -0.023525 0.075902 0.030863
v -0.01914 0.076614 0.035959
v -0.024237 0.075777 0.030667
v -0.024941 0.07567 0.030586
v -0.025431 0.075583 0.030558
v -0.01913 0.07661 0.037954
v -0.025839 0.075522 0.030575
v -0.026727 0.075407 0.031638
v -0.026558 0.075404 0.03066
v -0.019276 0.076584 0.038692
v -0.027677 0.075223 0.030977
v -0.019616 0.076532 0.03965
v -0.028416 0.075134 0.032386
v -0.028414 0.075097 0.031312
v -0.02003 0.076462 0.040436
v -0.029126 0.074988 0.031767
v -0.020597 0.076364 0.041218
v -0.029763 0.074889 0.032313
v -0.021063 0.076298 0.041687
v -0.029762 0.074916 0.033662
v -0.030226 0.074804 0.032782
v -0.021699 0.076191 0.042233
v -0.030795 0.074719 0.033564
v -0.022408 0.07607 0.042688
v -0.031209 0.074654 0.03435
v -0.03069 0.074765 0.035536
v -0.023148 0.075957 0.043023
v -0.031549 0.074597 0.035308
v -0.024266 0.075776 0.04334
v -0.031696 0.074575 0.036046
v -0.024986 0.07566 0.043425
v -0.025393 0.075589 0.043442
v -0.025885 0.075517 0.043414
v -0.031687 0.074582 0.038042
v -0.026587 0.075396 0.043333
v -0.027302 0.07529 0.043136
v -0.031135 0.074665 0.039818
v -0.028009 0.075171 0.042876
v -0.028817 0.075036 0.042442
v -0.03058 0.074756 0.040743
v -0.029587 0.074915 0.041857
v -0.030066 0.074843 0.041369
v -0.031454 0.074597 0.039042
v -0.031794 0.074536 0.036895
v -0.019366 0.076555 0.034958
v -0.019024 0.076604 0.037105
v -0.02031 0.06581 0.032724
v -0.019737 0.065902 0.033332
v -0.025647 0.064945 0.031873
v -0.022661 0.068741 0.041283
v -0.022781 0.068447 0.041602
v -0.021878 0.068716 0.041108
v -0.020893 0.069073 0.034925
v -0.020645 0.069111 0.035399
v -0.020584 0.069165 0.035014
v -0.019466 0.06894 0.036227
v -0.019548 0.068765 0.035544
v -0.020146 0.068958 0.034575
v -0.019733 0.069166 0.0362
v -0.019373 0.068255 0.037017
v -0.019568 0.068094 0.036068
v -0.019364 0.068524 0.036169
v -0.020387 0.069135 0.034758
v -0.019682 0.067968 0.037449
v -0.020092 0.069248 0.036217
v -0.022912 0.068033 0.041763
v -0.023124 0.068716 0.040829
v -0.021827 0.068961 0.040434
v -0.020472 0.069145 0.035908
v -0.022498 0.068812 0.040579
v -0.019336 0.068522 0.037553
v -0.019554 0.068259 0.0384
v -0.019388 0.068816 0.037611
v -0.02354 0.068641 0.040932
v -0.023843 0.068616 0.041065
v -0.020388 0.069154 0.036264
v -0.02026 0.0692 0.036567
v -0.01958 0.069089 0.03753
v -0.019881 0.069217 0.037913
v -0.020201 0.06924 0.037061
v -0.019607 0.068759 0.038589
v -0.022468 0.067537 0.032756
v -0.020194 0.069224 0.038086
v -0.020212 0.06807 0.039667
v -0.019943 0.068981 0.039062
v -0.020292 0.069188 0.03753
v -0.023556 0.068136 0.032142
v -0.022305 0.067783 0.032548
v -0.019941 0.068493 0.039449
v -0.022669 0.068097 0.032312
v -0.020387 0.069152 0.037737
v -0.020474 0.069143 0.038102
v -0.023127 0.068672 0.032569
v -0.022195 0.06856 0.032622
v -0.023022 0.068768 0.032976
v -0.023746 0.068626 0.032969
v -0.021757 0.068198 0.032724
v -0.02067 0.068173 0.040374
v -0.02354 0.068641 0.033068
v -0.020442 0.069051 0.0396
v -0.020726 0.067824 0.03397
v -0.020801 0.06914 0.039426
v -0.021448 0.067782 0.040828
v -0.023019 0.068727 0.033201
v -0.02064 0.069113 0.038587
v -0.020682 0.068445 0.04043
v -0.022238 0.068821 0.032923
v -0.020879 0.068074 0.033441
v -0.020802 0.068838 0.04031
v -0.020879 0.068478 0.033392
v -0.020981 0.068739 0.033448
v -0.020123 0.0679 0.034987
v -0.022335 0.068838 0.033508
v -0.021165 0.068533 0.040829
v -0.020961 0.069059 0.039191
v -0.021265 0.069007 0.033654
v -0.021696 0.068 0.041191
v -0.022543 0.06761 0.041395
v -0.020035 0.068096 0.034637
v -0.020082 0.06847 0.034316
v -0.02143 0.068966 0.040483
v -0.021213 0.069014 0.039554
v -0.021727 0.068942 0.033936
v -0.021345 0.069024 0.039827
v -0.02198 0.068307 0.041388
v -0.02155 0.068994 0.040012
v -0.019695 0.068392 0.035089
v -0.021223 0.069021 0.03445
v -0.021752 0.06893 0.040095
v -0.025839 0.074741 0.030249
v -0.023809 0.07507 0.030394
v -0.031932 0.073776 0.036227
v -0.031568 0.073813 0.034725
v -0.021916 0.075377 0.031151
v -0.030912 0.073919 0.033334
v -0.020335 0.075632 0.03245
v -0.029563 0.074138 0.03179
v -0.019099 0.075832 0.034399
v -0.027818 0.074421 0.030729
v -0.018582 0.075915 0.037
v -0.024904 0.072765 0.043774
v -0.023315 0.07515 0.043472
v -0.025329 0.074824 0.043774
v -0.022893 0.073091 0.043445
v -0.031601 0.07168 0.036225
v -0.031914 0.073757 0.037769
v -0.031572 0.071685 0.037818
v -0.018497 0.073803 0.038766
v -0.018278 0.073841 0.03696
v -0.026919 0.072438 0.043475
v -0.027339 0.074499 0.043448
v -0.019011 0.075858 0.039315
v -0.019451 0.073648 0.040875
v -0.019976 0.075679 0.041123
v -0.028753 0.072141 0.042575
v -0.029158 0.074204 0.042525
v -0.030233 0.071902 0.041157
v -0.03062 0.073967 0.04109
v -0.021073 0.073385 0.042517
v -0.021485 0.075446 0.042571
v -0.031224 0.071741 0.039353
v -0.031588 0.07381 0.039276
v -0.026157 0.07231 0.04391
v -0.024086 0.072645 0.043974
v -0.018198 0.073598 0.038749
v -0.01799 0.073632 0.036473
v -0.028117 0.071992 0.043229
v -0.019008 0.073467 0.04068
v -0.029791 0.071721 0.041993
v -0.031029 0.07152 0.04031
v -0.020345 0.073251 0.042283
v -0.031774 0.071395 0.038106
v -0.02209 0.072968 0.043415
v -0.022413 0.073168 0.030734
v -0.024393 0.072848 0.03025
v -0.031028 0.071773 0.034168
v -0.020669 0.073451 0.031799
v -0.029904 0.071955 0.032446
v -0.019207 0.073693 0.033517
v -0.028321 0.072211 0.031148
v -0.018467 0.073807 0.035399
v -0.026426 0.072518 0.030392
v -0.024086 0.072645 0.030026
v -0.026157 0.07231 0.03009
v -0.031733 0.071402 0.035713
v -0.02209 0.072968 0.030585
v -0.031029 0.07152 0.03369
v -0.020181 0.073283 0.031854
v -0.029791 0.071721 0.032007
v -0.018641 0.073522 0.033959
v -0.028117 0.071992 0.03077
v -0.025812 0.066235 0.043765
v -0.024691 0.069963 0.044021
v -0.026262 0.069759 0.043725
v -0.02376 0.066568 0.044021
v -0.017034 0.067657 0.037871
v -0.017639 0.071154 0.036933
v -0.017743 0.071088 0.038496
v -0.027457 0.069566 0.043292
v -0.018342 0.070991 0.040216
v -0.027697 0.06593 0.042907
v -0.017738 0.067543 0.040102
v -0.028522 0.069396 0.042643
v -0.029713 0.069149 0.041638
v -0.018739 0.067381 0.041638
v -0.019493 0.070861 0.041762
v -0.029427 0.06565 0.041326
v -0.020755 0.0706 0.042907
v -0.030831 0.068968 0.039877
v -0.02032 0.067125 0.042987
v -0.030413 0.06549 0.039501
v -0.02264 0.070295 0.043765
v -0.031295 0.068934 0.038212
v -0.021968 0.066858 0.04372
v -0.03087 0.065416 0.037526
v -0.031366 0.068933 0.036391
v -0.01723 0.067625 0.035254
v -0.017843 0.07113 0.03533
v -0.024796 0.0664 0.030029
v -0.025908 0.069822 0.030181
v -0.024211 0.070082 0.030028
v -0.022476 0.066776 0.030121
v -0.030709 0.065442 0.035504
v -0.030944 0.06895 0.034355
v -0.022403 0.070333 0.030319
v -0.03011 0.065539 0.033784
v -0.02032 0.067125 0.031013
v -0.020772 0.070594 0.031081
v -0.029861 0.069176 0.032625
v -0.028729 0.065763 0.031895
v -0.018336 0.067446 0.032806
v -0.019778 0.070834 0.031963
v -0.028766 0.069354 0.03153
v -0.018493 0.070967 0.033483
v -0.026786 0.066078 0.030592
v -0.027457 0.069566 0.030708
v -0.023227 0.070302 0.043798
v -0.02501 0.070013 0.043895
v -0.01797 0.071154 0.03902
v -0.018872 0.071007 0.040876
v -0.029749 0.069245 0.04146
v -0.021307 0.070613 0.04311
v -0.030925 0.069055 0.039462
v -0.021996 0.070501 0.030551
v -0.030777 0.069079 0.034209
v -0.018581 0.071054 0.0336
v -0.031666 0.070608 0.036709
v -0.031444 0.070591 0.035525
v -0.023833 0.071823 0.030128
v -0.022067 0.07216 0.030614
v -0.030953 0.07067 0.034059
v -0.020778 0.072318 0.031386
v -0.030465 0.0708 0.033068
v -0.019163 0.07258 0.033028
v -0.029082 0.070974 0.031636
v -0.027577 0.071217 0.030684
v -0.018268 0.072722 0.034925
v -0.017943 0.072781 0.036762
v -0.025858 0.071496 0.030175
v -0.025077 0.071723 0.029982
v -0.023274 0.072015 0.030158
v -0.017972 0.072878 0.035747
v -0.017892 0.072887 0.037546
v -0.027356 0.071353 0.030458
v -0.018629 0.072768 0.033784
v -0.029335 0.071033 0.031692
v -0.019544 0.072621 0.032439
v -0.020696 0.072432 0.031334
v -0.031346 0.070707 0.034704
v -0.032333 0.065171 0.03822
v -0.032337 0.065179 0.035999
v -0.023946 0.066538 0.045539
v -0.027286 0.065997 0.044861
v -0.018895 0.067356 0.030139
v -0.016646 0.06772 0.03273
v -0.031246 0.065355 0.04127
v -0.020793 0.06704 0.029031
v -0.029182 0.065682 0.043749
v -0.015556 0.067889 0.03578
v -0.023946 0.066538 0.02846
v -0.015556 0.067897 0.038001
v -0.027286 0.065997 0.029138
v -0.016646 0.06772 0.04127
v -0.029182 0.065682 0.03025
v -0.018708 0.067378 0.04375
v -0.031247 0.065355 0.03273
v -0.020606 0.067079 0.044862
v -0.029055 0.063684 0.031364
v -0.030927 0.063381 0.03273
v -0.028677 0.063745 0.030139
v -0.016326 0.065746 0.04127
v -0.016182 0.065769 0.039375
v -0.015239 0.06593 0.03822
v -0.030385 0.063469 0.033111
v -0.027298 0.063969 0.03006
v -0.018575 0.065381 0.043861
v -0.020951 0.064997 0.044393
v -0.019031 0.065308 0.04335
v -0.020476 0.065081 0.044969
v -0.017472 0.06556 0.04181
v -0.026779 0.06406 0.029031
v -0.031184 0.063339 0.035163
v -0.032017 0.063204 0.035999
v -0.025253 0.0643 0.0293
v -0.023626 0.064563 0.02846
v -0.031385 0.063307 0.037
v -0.02308 0.064652 0.029145
v -0.032016 0.063212 0.03822
v -0.031184 0.063339 0.038837
v -0.020476 0.065081 0.029031
v -0.020951 0.064997 0.029607
v -0.030927 0.063381 0.04127
v -0.030385 0.063469 0.040889
v -0.018575 0.065381 0.030139
v -0.019031 0.065308 0.030649
v -0.029055 0.063684 0.042636
v -0.028865 0.063723 0.043749
v -0.017472 0.06556 0.03219
v -0.016326 0.065746 0.03273
v -0.027298 0.063969 0.04394
v -0.026966 0.064022 0.044862
v -0.016397 0.065734 0.034108
v -0.015236 0.065922 0.035999
v -0.025253 0.0643 0.0447
v -0.015864 0.065821 0.036448
v -0.023626 0.064563 0.045539
v -0.02308 0.064652 0.044855
v -0.032038 0.063337 0.039958
v -0.031461 0.063431 0.04133
v -0.030399 0.063602 0.042864
v -0.025291 0.064426 0.045853
v -0.025595 0.066141 0.045839
v -0.030922 0.065267 0.042622
v -0.021981 0.064965 0.04584
v -0.023443 0.064729 0.046019
v -0.017201 0.067494 0.042882
v -0.016737 0.06582 0.042756
v -0.022294 0.066672 0.04586
v -0.030701 0.064431 0.039962
v -0.031255 0.064341 0.037807
v -0.021941 0.065849 0.044372
v -0.024053 0.065507 0.044601
v -0.016317 0.06676 0.036193
v -0.01641 0.066745 0.038415
v -0.026143 0.065169 0.044221
v -0.017096 0.066634 0.040452
v -0.028044 0.064861 0.043264
v -0.018318 0.066436 0.042212
v -0.029605 0.064608 0.041806
v -0.019977 0.066167 0.043554
v -0.017939 0.066497 0.039733
v -0.017443 0.066578 0.038056
v -0.022148 0.065816 0.043323
v -0.029008 0.064705 0.033202
v -0.029254 0.064665 0.031788
v -0.027639 0.064926 0.031755
v -0.020139 0.066141 0.042376
v -0.027595 0.064934 0.030446
v -0.030476 0.064467 0.033548
v -0.018866 0.066347 0.041191
v -0.029916 0.064558 0.034956
v -0.025425 0.065285 0.030677
v -0.025631 0.065252 0.029627
v -0.031163 0.064356 0.035585
v -0.02352 0.065594 0.029399
v -0.030214 0.064509 0.036937
v -0.023224 0.065642 0.030502
v -0.030014 0.064542 0.03866
v -0.02143 0.065932 0.029778
v -0.021079 0.065989 0.031066
v -0.029229 0.064669 0.040486
v -0.019528 0.06624 0.030736
v -0.019271 0.066282 0.032349
v -0.027572 0.064937 0.042316
v -0.017967 0.066493 0.032194
v -0.018096 0.066472 0.033946
v -0.016871 0.06667 0.034038
v -0.017398 0.066585 0.036076
v -0.02485 0.065378 0.043466
v -0.024205 0.06636 0.046014
v -0.032038 0.063331 0.034045
v -0.032317 0.065052 0.034048
v -0.032303 0.065049 0.040072
v -0.031777 0.065132 0.032735
v -0.031493 0.063425 0.032739
v -0.030406 0.063598 0.031139
v -0.030676 0.065312 0.031136
v -0.023928 0.06465 0.027986
v -0.025314 0.064426 0.02816
v -0.025389 0.066163 0.028059
v -0.022362 0.066659 0.028114
v -0.022034 0.064958 0.028137
v -0.01674 0.06582 0.031241
v -0.017124 0.067508 0.031167
v -0.015581 0.067751 0.033747
v -0.01526 0.066052 0.03395
v -0.015535 0.067767 0.039999
v -0.01527 0.066052 0.040072
v -0.016359 0.067631 0.041752
v -0.017093 0.064608 0.037997
v -0.017221 0.064588 0.035261
v -0.023043 0.063645 0.030491
v -0.025248 0.063288 0.030716
v -0.029871 0.062539 0.036322
v -0.021352 0.063919 0.03085
v -0.029282 0.062634 0.034167
v -0.019614 0.0642 0.031755
v -0.027642 0.0629 0.031993
v -0.018244 0.064422 0.033202
v -0.023885 0.063508 0.043541
v -0.021457 0.063902 0.043198
v -0.02981 0.062549 0.038056
v -0.026484 0.063087 0.042779
v -0.017882 0.064481 0.040276
v -0.028227 0.062805 0.041393
v -0.019495 0.064219 0.042153
v -0.029313 0.062629 0.039733
v -0.03136 0.070604 0.038863
v -0.022589 0.072025 0.043559
v -0.024778 0.071721 0.043969
v -0.025858 0.071496 0.043825
v -0.018195 0.072737 0.038863
v -0.027747 0.071189 0.043246
v -0.019126 0.072646 0.040989
v -0.019761 0.072519 0.041742
v -0.029847 0.07091 0.041754
v -0.030462 0.070779 0.040916
v -0.020987 0.072285 0.042747
v -0.026612 0.071474 0.043778
v -0.031455 0.07069 0.038999
v -0.023022 0.072055 0.043791
v -0.021125 0.072363 0.042961
v -0.018257 0.072827 0.039343
v -0.02852 0.071161 0.042923
vn -0.0852 0.0075 0.9963
vn -0.0715 -0.0009 0.9974
vn -0.326 -0.0775 0.9422
vn 0.958 0.146 0.2468
vn -0.425 -0.0199 0.905
vn 0.9584 0.2205 0.1812
vn -0.6102 -0.0884 0.7873
vn 0.8308 0.118 0.5439
vn -0.6939 -0.099 0.7132
vn 0.7997 0.1516 0.5809
vn -0.7743 -0.0098 0.6328
vn -0.8835 -0.1086 0.4557
vn 0.5998 0.1002 0.7939
vn -0.8987 -0.0902 0.4293
vn 0.663 0.2056 0.7198
vn 0.4136 0.0383 0.9096
vn -0.9607 -0.1647 0.2235
vn 0.2967 0.0917 0.9506
vn -0.9939 -0.0923 0.0611
vn -0.9844 -0.1636 -0.0652
vn 0.2512 0.0627 0.9659
vn -0.1704 0.9853 -0.0072
vn -0.1807 0.9835 0.0114
vn -0.155 0.9878 0.0152
vn -0.1663 0.9861 0.0069
vn -0.1602 0.9871 -0.0002
vn -0.1598 0.9872 0
vn -0.1598 0.9871 0
vn -0.1569 0.9876 -0.0053
vn -0.1602 0.9871 0.0005
vn -0.1597 0.9872 -0.001
vn -0.1582 0.9874 -0.0047
vn -0.151 0.9885 0.0027
vn -0.1505 0.9886 -0.0038
vn -0.158 0.9874 -0.0113
vn -0.1761 0.9843 -0.0134
vn -0.16 0.9871 0
vn -0.1545 0.988 -0.0005
vn -0.1608 0.9869 0.011
vn -0.1756 0.9844 -0.0053
vn -0.1626 0.9867 0.0096
vn -0.1583 0.9874 0.0004
vn -0.169 0.9856 -0.0051
vn -0.1603 0.9871 -0.0021
vn -0.1428 0.9897 -0.0061
vn -0.1648 0.9863 0.0096
vn -0.1358 0.9896 -0.0476
vn -0.171 0.9853 0.0053
vn -0.1797 0.9837 -0.0001
vn -0.1666 0.986 0.0075
vn -0.1599 0.9871 -0
vn -0.1533 0.9882 0.0047
vn -0.1572 0.9874 -0.0165
vn -0.1552 0.9879 0.0062
vn 0.1771 -0.9842 -0.0061
vn 0.1414 -0.9894 0.0333
vn -0.114 -0.9215 -0.3713
vn 0.169 -0.985 0.0337
vn 0.1088 -0.9916 -0.07
vn 0.044 -0.9959 0.0786
vn 0.115 -0.9905 -0.0758
vn 0.0314 -0.996 0.0838
vn 0.0825 -0.948 -0.3074
vn 0.0682 -0.9977 0.0056
vn -0.2747 -0.9615 -0.0035
vn 0.1125 -0.9936 -0.003
vn 0.1097 -0.994 0.0034
vn 0.1411 -0.9892 0.0394
vn 0.0795 -0.9964 -0.0299
vn 0.2079 -0.9713 0.1154
vn -0.2302 -0.8584 0.4585
vn 0.0665 -0.988 0.1395
vn 0.137 -0.9899 -0.0362
vn 0.1804 -0.8523 -0.491
vn 0.2234 -0.9736 -0.047
vn 0.0877 -0.991 -0.1013
vn 0.358 -0.9278 -0.1049
vn 0.2381 -0.9711 -0.0168
vn 0.2347 -0.972 -0.0076
vn 0.3017 -0.9531 -0.0221
vn 0.2476 -0.9689 0.0013
vn 0.215 -0.9764 0.0188
vn 0.2698 -0.9606 0.0671
vn 0.2695 -0.9607 0.067
vn 0.2442 -0.9663 0.0809
vn 0.1802 -0.9809 -0.0733
vn 0.3096 -0.9335 0.1812
vn 0.1852 -0.9801 -0.0719
vn 0.6414 -0.2478 -0.7261
vn 0.2056 -0.9704 0.1269
vn 0.2039 -0.9722 0.1148
vn -0.1744 0.9828 0.0605
vn 0.1594 -0.9848 0.0689
vn -0.9595 0.1807 0.216
vn -0.8124 -0.5831 -0.0064
vn 0.0155 -0.9999 -0.0035
vn -0.1506 0.988 -0.0338
vn -0.57 0.8142 0.1103
vn -0.9443 -0.3176 0.0863
vn 0.0548 0.9971 -0.0534
vn -0.4234 0.903 0.0729
vn -0.2697 -0.9598 -0.0784
vn -0.9959 0.0901 -0.0028
vn -0.3902 -0.9182 -0.0686
vn -0.926 0.369 0.079
vn 0.1333 0.9898 -0.0499
vn -0.8023 -0.578 -0.149
vn -0.8166 0.5745 0.0557
vn -0.8005 -0.581 -0.1472
vn -0.2977 0.9546 0.0148
vn -0.9684 -0.1538 -0.1963
vn 0.8793 0.4636 -0.1095
vn 0.3913 0.9179 -0.0664
vn -0.9851 0.094 -0.1438
vn 0.0756 -0.9959 -0.049
vn -0.9098 0.3706 -0.1867
vn -0.2205 -0.9652 -0.1407
vn -0.4033 -0.8736 -0.2722
vn 0.1365 -0.9803 0.1425
vn -0.0448 0.999 -0.0081
vn -0.7209 0.69 -0.0649
vn 0.0813 -0.7784 0.6225
vn 0.0933 -0.5173 0.8507
vn -0.7244 -0.6083 -0.3243
vn 0.0053 -0.2487 0.9686
vn -0.4832 0.8736 -0.0573
vn 0.0696 -0.7953 0.6022
vn 0.0096 -0.7601 0.6497
vn -0.8513 -0.3053 -0.4268
vn -0.8963 -0.1848 -0.4031
vn -0.0379 0.9985 0.0407
vn -0.0377 0.9992 -0.0126
vn -0.0935 0.4503 0.888
vn -0.152 -0.3772 0.9136
vn -0.1294 -0.1833 0.9745
vn -0.3909 -0.8427 -0.3702
vn -0.8599 0.3978 -0.3199
vn -0.8769 0.3084 -0.3687
vn -0.1468 0.8293 0.5392
vn 0.0585 -0.9759 0.21
vn -0.5758 -0.6003 -0.5551
vn -0.6344 0.7282 -0.2593
vn 0.0453 -0.9922 -0.1163
vn -0.1032 -0.8214 0.5609
vn -0.0781 -0.8897 0.4498
vn -0.2355 0.2574 0.9372
vn -0.7939 -0.2935 -0.5325
vn -0.3004 0.337 0.8923
vn -0.1545 0.9877 -0.0249
vn -0.0412 -0.9736 -0.2247
vn -0.1065 0.9433 -0.3143
vn -0.295 -0.4993 0.8146
vn -0.2959 -0.4398 0.848
vn -0.3188 0.9467 -0.0467
vn -0.3786 0.9195 -0.1058
vn -0.3265 0.5967 0.733
vn -0.7896 0.1307 -0.5995
vn 0.0159 0.9963 0.0842
vn 0.1161 -0.9925 0.0388
vn -0.1123 0.9574 -0.2659
vn -0.2247 0.9036 0.3647
vn -0.2109 0.915 0.344
vn -0.1031 0.9749 -0.1975
vn -0.7916 0.3252 -0.5174
vn 0.2156 0.9654 0.1465
vn -0.5552 -0.521 -0.6483
vn -0.4299 0.0782 0.8995
vn -0.2552 -0.8148 0.5206
vn -0.1194 0.9816 -0.1491
vn -0.6579 0.6263 -0.4182
vn -0.4473 -0.5198 0.7278
vn -0.4427 -0.5573 0.7024
vn -0.0621 -0.9528 -0.297
vn -0.0015 0.9942 0.1078
vn -0.7066 0.0796 -0.7031
vn 0.1645 -0.986 0.0273
vn -0.0025 -0.9494 -0.3141
vn -0.4159 -0.5865 -0.695
vn -0.3648 -0.6494 -0.6673
vn -0.5979 0.1171 0.793
vn -0.5765 0.1923 0.7941
vn -0.1833 -0.9378 0.2947
vn 0.0686 -0.9941 0.0837
vn -0.5123 0.7599 -0.4002
vn -0.6333 0.2139 -0.7438
vn -0.0126 0.9912 0.1315
vn -0.1243 0.9852 -0.1178
vn -0.0469 0.9683 -0.2452
vn -0.4755 -0.2972 -0.828
vn -0.4296 0.8445 -0.3198
vn -0.5133 0.6048 0.6089
vn -0.5285 0.5739 0.6256
vn 0.1298 -0.984 -0.1216
vn -0.3051 0.9425 -0.1366
vn -0.6033 0.3908 -0.6951
vn -0.5513 -0.0036 -0.8343
vn -0.0803 0.9944 0.069
vn 0.0867 -0.9954 0.0418
vn 0.0814 0.9524 0.2938
vn -0.3721 0.8669 0.3317
vn -0.3588 0.8778 0.3174
vn -0.6111 -0.5173 0.5991
vn -0.0515 -0.8354 -0.5472
vn -0.4612 -0.7968 0.3903
vn -0.1765 -0.6595 -0.7307
vn -0.7637 -0.2141 0.609
vn -0.4288 -0.823 0.3725
vn -0.2048 -0.4844 -0.8505
vn -0.0772 0.9893 -0.1235
vn -0.3065 -0.2806 -0.9096
vn -0.752 0.0965 0.6521
vn -0.3517 0.1823 -0.9182
vn -0.6864 0.5672 0.4551
vn -0.6973 0.5502 0.4595
vn -0.2903 0.9015 -0.3211
vn 0.2495 0.8949 -0.3701
vn -0.3424 0.2312 -0.9107
vn -0.7288 -0.5641 0.3881
vn 0.0683 -0.8312 -0.5517
vn 0.079 -0.8429 -0.5322
vn -0.1446 0.9886 -0.0416
vn -0.4795 0.8301 0.2847
vn -0.8526 -0.2253 0.4715
vn -0.3986 0.5521 -0.7323
vn -0.8839 -0.1374 0.4469
vn -0.0682 -0.9958 0.0607
vn -0.0197 -0.5111 -0.8593
vn -0.0507 -0.4562 -0.8884
vn -0.1009 0.9911 0.0867
vn -0.2202 -0.9701 0.1025
vn -0.8463 0.3947 0.3577
vn -0.2993 0.842 -0.4489
vn -0.4445 -0.8893 0.1073
vn -0.829 0.4318 0.3554
vn -0.0972 -0.0344 -0.9947
vn -0.0665 0.9969 -0.0417
vn -0.2263 0.2544 -0.9402
vn -0.7471 -0.6204 0.2387
vn 0.1935 0.9493 -0.2477
vn -0.076 0.9647 0.2521
vn -0.1651 0.5133 -0.8422
vn 0.0396 -0.9991 0.014
vn -0.3125 0.9454 0.093
vn -0.9525 -0.1927 0.2356
vn -0.9272 -0.3174 0.1989
vn -0.1522 0.9883 0.0069
vn -0.0163 0.8831 0.4688
vn 0.1181 0.5622 0.8185
vn -0.2002 0.8175 -0.5401
vn 0.021 0.9968 -0.0773
vn -0.526 -0.8495 0.0411
vn -0.8007 -0.5355 -0.2685
vn -0.0777 -0.9644 -0.2528
vn -0.3392 0.7719 -0.5377
vn 0.2656 -0.9161 0.3003
vn -0.1585 0.9874 -0.0001
vn -0.1077 0.9941 -0.009
vn -0.1623 0.9865 -0.0203
vn -0.1653 0.9862 0.0085
vn -0.1686 0.9856 0.008
vn -0.1589 0.9873 0.0069
vn -0.1538 0.9881 0.0048
vn -0.1001 0.9948 0.0165
vn -0.1593 0.9871 0.0171
vn -0.1742 0.9847 -0.0069
vn -0.1599 0.9871 0.0003
vn -0.1604 0.9871 -0.0001
vn -0.16 0.9871 -0.0001
vn -0.1601 0.9871 -0.0003
vn -0.1598 0.9871 0.0001
vn -0.1583 0.9874 0.0012
vn -0.1599 0.9871 -0.0001
vn -0.1589 0.9873 0
vn -0.1599 0.9871 0.0002
vn -0.9849 -0.1709 -0.0264
vn -0.9685 -0.146 -0.2015
vn 0.4184 0.0651 -0.9059
vn 0.3895 0.0657 -0.9187
vn -0.911 -0.1506 -0.384
vn 0.607 0.1082 -0.7873
vn -0.862 -0.13 -0.49
vn 0.7497 0.1188 -0.651
vn 0.7619 0.1176 -0.637
vn -0.7118 -0.1251 -0.6911
vn -0.6423 -0.0988 -0.7601
vn 0.8769 0.1524 -0.4559
vn -0.4978 -0.0701 -0.8645
vn 0.9437 0.1507 -0.2946
vn 0.961 0.1631 -0.2235
vn -0.3421 -0.0658 -0.9374
vn -0.195 -0.0257 -0.9805
vn 0.0268 0.0018 -0.9996
vn -0.0006 0.0025 -1
vn -0.1423 0.9894 -0.0289
vn -0.1354 0.9907 -0.0151
vn -0.1428 0.9896 -0.0158
vn -0.1425 0.9894 -0.0293
vn -0.1395 0.9898 -0.029
vn -0.134 0.9909 -0.0139
vn -0.1345 0.9908 -0.0112
vn -0.1474 0.9889 -0.0178
vn -0.149 0.9885 -0.0243
vn -0.1356 0.9907 -0.0114
vn -0.1627 0.9859 -0.0387
vn -0.1464 0.9886 -0.0353
vn -0.1729 0.9847 -0.0202
vn -0.1365 0.9906 0.0025
vn -0.1503 0.9877 -0.0442
vn -0.1326 0.9912 0.0007
vn -0.161 0.9866 -0.028
vn -0.1645 0.9859 -0.031
vn -0.1303 0.9914 0.009
vn -0.1685 0.9852 -0.0317
vn -0.1362 0.9907 0.0063
vn -0.1318 0.9912 0.0118
vn -0.1715 0.9848 -0.0272
vn -0.1839 0.9824 -0.0338
vn -0.1336 0.9909 0.0168
vn -0.1721 0.9845 -0.0339
vn -0.1383 0.9901 0.0246
vn -0.1772 0.9838 -0.0279
vn -0.135 0.9906 0.024
vn -0.1408 0.99 -0.0008
vn -0.1777 0.9839 -0.0194
vn -0.1985 0.9799 -0.0192
vn -0.1416 0.9895 0.0289
vn -0.1845 0.9825 -0.027
vn -0.1467 0.9886 0.0351
vn -0.1855 0.9825 -0.0166
vn -0.1834 0.983 -0.0119
vn -0.1349 0.9902 0.0352
vn -0.15 0.9883 0.0269
vn -0.1903 0.9817 -0.0088
vn -0.1514 0.988 0.0305
vn -0.1902 0.9817 -0.0092
vn -0.1866 0.9824 -0.0019
vn -0.155 0.9874 0.0317
vn -0.1607 0.9865 0.0331
vn -0.1701 0.9851 0.0249
vn -0.1465 0.9891 0.0157
vn -0.1855 0.9826 -0.0025
vn -0.1733 0.9842 0.0361
vn -0.1559 0.9871 0.0352
vn -0.1813 0.9834 0.0067
vn -0.1875 0.9822 0.0125
vn -0.1712 0.9849 0.0246
vn -0.1729 0.9847 0.0194
vn -0.18 0.9832 0.029
vn -0.187 0.9822 0.0148
vn -0.177 0.9838 0.0293
vn -0.1769 0.9841 0.0148
vn -0.1847 0.9827 0.0155
vn -0.1773 0.9837 0.0288
vn -0.3681 0.9271 0.0712
vn -0.3809 0.9246 -0.0014
vn 0.5227 -0.5045 -0.6872
vn 0.1539 0.9667 -0.2046
vn 0.5954 -0.7866 -0.1636
vn -0.0285 -0.9589 0.2823
vn 0.0561 0.9959 -0.0711
vn 0.0695 0.9976 0.0015
vn 0.1684 -0.001 -0.9857
vn 0.1808 0.0187 -0.9833
vn 0.4294 0.0715 -0.9003
vn 0.4909 0.1737 -0.8537
vn -0.9453 -0.1558 -0.2865
vn -0.9456 -0.1572 -0.285
vn 0.7 0.1896 -0.6885
vn -0.8211 -0.1193 -0.5582
vn 0.6818 0.1665 -0.7123
vn -0.8079 -0.1339 -0.5738
vn 0.8336 0.1225 -0.5387
vn -0.7077 -0.1279 -0.6949
vn -0.5523 -0.0174 -0.8335
vn 0.8789 0.2087 -0.4289
vn -0.4852 -0.0616 -0.8722
vn 0.9773 0.1213 -0.1738
vn 0.9772 0.1988 -0.0753
vn -0.1754 0.0152 -0.9844
vn -0.1933 -0.0068 -0.9811
vn 0.178 0.6903 0.7013
vn -0.3072 0.9479 0.0845
vn 0.6512 0.7129 -0.2603
vn 0.6391 0.7255 -0.2552
vn 0.9084 -0.4012 -0.118
vn 0.459 0.8591 -0.2264
vn 0.6731 -0.7394 -0.012
vn 0.2169 0.9689 -0.1189
vn 0.1149 0.3276 0.9378
vn 0.9499 0.2559 -0.1795
vn -0.22 0.9677 -0.123
vn 0.0977 0.0458 0.9942
vn 0.0405 0.9955 -0.0853
vn -0.3833 0.9211 0.0686
vn -0.2716 0.9031 -0.3325
vn 0.0725 0.7205 0.6897
vn 0.0807 0.254 0.9638
vn 0.9952 -0.0952 -0.0203
vn -0.0302 0.8494 0.5269
vn 0.7501 -0.6538 0.1
vn 0.9701 0.2406 -0.033
vn 0.9841 0.1765 -0.0198
vn -0.2632 0.8586 -0.4399
vn -0.1562 0.9874 -0.0262
vn -0.3062 0.9501 0.0596
vn -0.1457 0.989 -0.0262
vn -0.2957 0.9542 0.0454
vn 0.2434 -0.9699 -0.0085
vn 0.9208 -0.3705 0.1217
vn -0.3045 0.9524 -0.014
vn 0.8166 0.5772 0.0057
vn 0.6473 0.7616 -0.0303
vn 0.6584 -0.7398 0.1386
vn 0.4004 0.9163 0.007
vn 0.2233 0.9747 -0.01
vn -0.346 0.9376 -0.0359
vn 0.9666 0.1259 0.2234
vn 0.9679 0.0059 0.2512
vn 0.2032 -0.9631 -0.1765
vn 0.0497 0.9986 0.0156
vn 0.03 0.9994 0.0145
vn 0.5966 -0.7713 0.2217
vn 0.6443 -0.7309 0.2252
vn 0.2172 -0.8178 -0.533
vn 0.7642 0.6051 0.2235
vn 0.7196 0.6651 0.1996
vn -0.4291 0.9031 0.0169
vn 0.0158 0.0859 -0.9962
vn 0.2503 -0.7172 -0.6504
vn 0.8531 -0.3456 0.391
vn 0.2332 -0.4297 -0.8723
vn -0.0237 0.4127 -0.9105
vn 0.236 -0.3953 -0.8877
vn 0.9353 -0.0357 0.3522
vn 0.5836 0.7886 0.1937
vn 0.1804 -0.1311 -0.9748
vn -0.5696 0.8135 -0.1176
vn -0.1347 0.9135 -0.384
vn 0.834 0.3449 0.4308
vn 0.1886 0.406 -0.8942
vn 0.0991 0.5889 -0.8021
vn -0.1703 0.9845 0.0422
vn -0.1853 0.9311 0.3141
vn 0.4219 -0.1803 -0.8885
vn 0.8012 -0.2289 0.5529
vn 0.111 0.5286 -0.8416
vn -0.2782 0.9604 -0.0134
vn -0.1884 0.9504 0.2475
vn 0.3507 0.9134 0.2067
vn 0.2414 -0.9646 -0.1057
vn 0.264 -0.9522 -0.1538
vn 0.1688 0.9738 0.1522
vn 0.533 -0.756 0.38
vn -0.2037 0.9627 0.178
vn -0.2793 0.9595 -0.0364
vn 0.7969 -0.0902 0.5974
vn -0.0806 0.9746 -0.2089
vn -0.132 0.9719 -0.1949
vn 0.3833 0.2101 -0.8994
vn 0.075 0.9925 0.0961
vn 0.463 -0.7317 -0.5002
vn 0.4605 -0.7433 -0.4853
vn 0.6018 -0.6359 0.4831
vn 0.5435 -0.4053 -0.7351
vn 0.1272 0.7584 -0.6393
vn 0.7239 0.3947 0.5658
vn 0.718 0.4341 0.5441
vn 0.622 -0.0946 -0.7773
vn 0.3528 -0.9036 0.243
vn 0.6201 0.6073 0.4966
vn 0.4899 0.3595 -0.7942
vn 0.4863 0.3646 -0.7941
vn 0.2819 -0.9546 -0.0959
vn -0.2355 0.9556 0.1771
vn -0.339 0.936 -0.0947
vn 0.6261 0.397 0.6711
vn -0.3338 0.938 -0.0938
vn 0.3078 0.7404 -0.5976
vn 0.2864 0.7581 -0.5859
vn 0.6064 -0.4265 0.6711
vn 0.2584 -0.9639 -0.0647
vn 0.3149 -0.8862 0.3398
vn 0.6754 -0.5714 -0.4662
vn 0.631 -0.132 0.7645
vn 0.7646 -0.3623 -0.533
vn 0.6232 -0.0939 0.7764
vn 0.2887 0.8669 0.4065
vn -0.0772 0.986 -0.1477
vn 0.5767 -0.7658 -0.2846
vn -0.3191 0.9419 -0.1051
vn -0.1361 0.9907 0.0032
vn 0.7544 -0.0792 -0.6516
vn 0.1265 0.9639 0.2342
vn -0.5239 0.6087 0.5958
vn -0.3407 0.9192 -0.1976
vn -0.0305 0.989 0.1449
vn 0.6937 0.4063 -0.5947
vn 0.6987 0.398 -0.5945
vn 0.4185 0.6247 0.6592
vn -0.3061 0.941 -0.1442
vn 0.2429 -0.9309 0.2728
vn 0.5663 -0.0049 0.8242
vn 0.1698 -0.983 0.0704
vn -0.1806 0.9827 -0.0404
vn 0.4099 0.7896 -0.4567
vn 0.3076 0.7874 0.5343
vn 0.8465 -0.2822 -0.4514
vn 0.4386 -0.6054 0.6641
vn 0.3461 0.8598 -0.3754
vn 0.5102 -0.853 -0.1094
vn -0.159 0.9867 -0.0352
vn -0.5151 0.7641 0.3884
vn 0.3828 -0.3943 0.8355
vn 0.6778 -0.7007 -0.2228
vn 0.4229 0.4365 0.7941
vn 0.0004 0.9933 -0.1158
vn 0.8883 0.1689 -0.427
vn 0.8094 -0.5239 -0.2655
vn 0.4143 -0.1882 0.8905
vn 0.828 0.3438 -0.4429
vn 0.8997 -0.3706 -0.2305
vn -0.3605 0.9184 -0.1633
vn 0.1267 0.8868 0.4444
vn 0.2394 -0.9709 0.0028
vn 0.2304 -0.8002 0.5538
vn 0.9567 -0.025 -0.2901
vn 0.2926 0.2643 0.919
vn 0.4687 -0.8823 -0.0419
vn -0.0427 0.9681 0.2468
vn -0.0809 0.985 0.1525
vn -0.3145 0.9422 0.1159
vn 0.3046 0.4839 0.8204
vn 0.2736 -0.4865 0.8297
vn 0.2741 -0.4847 0.8306
vn -0.2428 0.9598 -0.141
vn -0.3043 0.9526 0.0006
vn -0.8675 -0.4528 -0.2062
vn -0.0616 -0.002 0.9981
vn 0.9859 0.1625 0.0409
vn 0.9852 0.157 0.0691
vn -0.4039 -0.0742 0.9118
vn -0.357 -0.0597 0.9322
vn 0.8926 0.1471 0.4262
vn -0.5087 -0.0773 0.8574
vn 0.8826 0.1408 0.4485
vn -0.7297 -0.1201 0.6732
vn -0.7142 -0.1152 0.6904
vn 0.6854 0.1131 0.7193
vn 0.6744 0.1091 0.7302
vn -0.8335 -0.1233 0.5387
vn -0.9039 -0.1504 0.4004
vn 0.4811 0.0869 0.8723
vn 0.3962 0.0616 0.9161
vn -0.9624 -0.1414 0.2319
vn 0.1877 0.0415 0.9814
vn 0.0437 0.0024 0.999
vn -0.0073 0.348 -0.9375
vn 0.0472 0.385 -0.9217
vn 0.0141 0.3296 -0.944
vn -0.9602 0.2614 -0.0987
vn -0.9533 0.2402 -0.183
vn 0.1657 0.4413 -0.8819
vn 0.2584 0.4066 -0.8763
vn -0.9549 0.1917 -0.2269
vn -0.9166 0.2526 -0.31
vn 0.2914 0.3747 -0.8801
vn -0.8923 0.1999 -0.4049
vn 0.3583 0.4727 -0.8051
vn -0.8647 0.252 -0.4345
vn -0.7916 0.2735 -0.5464
vn 0.4896 0.4555 -0.7435
vn 0.5386 0.41 -0.7361
vn -0.7097 0.2657 -0.6525
vn -0.7524 0.1905 -0.6306
vn 0.5733 0.5025 -0.6472
vn -0.6452 0.3136 -0.6967
vn 0.627 0.5179 -0.5819
vn -0.5485 0.2612 -0.7943
vn 0.7391 0.4361 -0.5134
vn 0.7324 0.4782 -0.4847
vn -0.5326 0.2323 -0.8139
vn -0.4364 0.3353 -0.8349
vn 0.7621 0.5479 -0.345
vn -0.3063 0.3302 -0.8928
vn 0.8478 0.4827 -0.2198
vn -0.2689 0.2802 -0.9215
vn 0.8855 0.4242 -0.1895
vn -0.1701 0.3799 -0.9093
vn 0.8334 0.547 -0.0792
vn -0.0953 0.3837 -0.9185
vn 0.1434 0.0296 0.9892
vn 0.1585 0.0193 0.9872
vn -0.9877 -0.156 0.0097
vn -0.9866 -0.1623 0.0184
vn 0.9823 0.1416 0.1222
vn -0.1569 -0.0192 0.9874
vn -0.1421 -0.0294 0.9894
vn 0.9642 0.1919 0.1833
vn 0.9021 0.1141 0.4161
vn 0.8631 0.1651 0.4773
vn -0.4429 -0.0657 0.8942
vn -0.4296 -0.0758 0.8999
vn -0.6879 -0.1056 0.7181
vn -0.6771 -0.1158 0.7267
vn 0.6783 0.1166 0.7255
vn 0.7005 0.0949 0.7073
vn -0.8693 -0.1352 0.4755
vn -0.8616 -0.1456 0.4862
vn 0.4305 0.0762 0.8994
vn 0.4446 0.0655 0.8933
vn -0.9646 -0.154 0.2141
vn -0.9613 -0.1607 0.2238
vn -0.1166 0.5649 0.8169
vn -0.214 0.7688 0.6026
vn 0.5659 0.82 0.086
vn 0.6619 0.7461 0.0717
vn -0.3539 0.5236 0.775
vn -0.3885 0.742 0.5463
vn 0.5522 0.7836 0.2846
vn 0.4646 0.8428 0.2717
vn -0.5688 0.4865 0.6632
vn -0.5379 0.719 0.4401
vn -0.7416 0.4568 0.4914
vn 0.5092 0.6877 0.5175
vn -0.6487 0.702 0.2938
vn 0.2957 0.8537 0.4287
vn -0.8717 0.4079 0.2714
vn 0.3392 0.6457 0.6841
vn -0.7391 0.6581 0.1434
vn 0.1459 0.8236 0.5481
vn -0.8138 0.581 0.013
vn 0.1216 0.6067 0.7856
vn -0.0303 0.797 0.6032
vn 0.2373 0.0006 -0.9714
vn 0.3564 0.0955 -0.9295
vn -0.9598 -0.1513 -0.2365
vn -0.9462 -0.1761 -0.2715
vn -0.8947 -0.1191 -0.4304
vn 0.5153 0.0457 -0.8558
vn 0.6155 0.1375 -0.7761
vn -0.8169 -0.1703 -0.5511
vn -0.7445 -0.0829 -0.6624
vn 0.7539 0.0793 -0.6522
vn 0.8221 0.1808 -0.5399
vn -0.6148 -0.1375 -0.7766
vn -0.5136 -0.0455 -0.8568
vn 0.9232 0.1055 -0.3695
vn 0.9594 0.2019 -0.1971
vn -0.3552 -0.0954 -0.9299
vn -0.2356 -0.0005 -0.9718
vn 0.9817 0.1462 -0.1221
vn -0.0621 -0.0479 -0.9969
vn 0.0635 0.048 -0.9968
vn -0.1272 0.6413 -0.7566
vn -0.8923 0.4512 -0.014
vn 0.0341 0.763 -0.6455
vn 0.0917 0.6844 -0.7234
vn -0.7272 0.6644 -0.1725
vn -0.8289 0.4957 -0.2594
vn 0.2235 0.7872 -0.5748
vn 0.3138 0.6971 -0.6446
vn -0.6502 0.6727 -0.3532
vn 0.3389 0.848 -0.4074
vn -0.7147 0.5236 -0.4637
vn 0.5826 0.6414 -0.4992
vn -0.5233 0.6886 -0.5019
vn 0.4379 0.8704 -0.2252
vn -0.5498 0.5576 -0.6219
vn 0.7268 0.6518 -0.2166
vn 0.4946 0.8656 -0.0786
vn -0.3568 0.7107 -0.6063
vn -0.3477 0.5977 -0.7224
vn -0.1653 0.7363 -0.6561
vn -0.1836 -0.0124 0.9829
vn -0.1188 -0.0326 0.9924
vn 0.9792 0.1891 0.073
vn -0.3362 -0.0324 0.9412
vn 0.9337 0.1324 0.3326
vn -0.4036 -0.0698 0.9123
vn 0.9399 0.1545 0.3046
vn -0.5128 -0.0567 0.8566
vn -0.6312 -0.0915 0.7702
vn 0.8249 0.1262 0.551
vn 0.7872 0.1491 0.5984
vn -0.6592 -0.12 0.7424
vn 0.6543 0.1149 0.7475
vn -0.833 -0.1163 0.5409
vn 0.6369 0.0972 0.7648
vn -0.8633 -0.1556 0.4802
vn 0.4034 0.0713 0.9122
vn -0.9525 -0.1434 0.2685
vn 0.3968 0.0657 0.9156
vn -0.9603 -0.1606 0.2279
vn -0.9911 -0.1274 0.0388
vn 0.1188 0.0326 0.9924
vn 0.1628 0.019 0.9865
vn 0.9766 0.1736 -0.1269
vn 0.9857 0.1503 -0.0758
vn -0.0921 0.0143 -0.9956
vn 0.0406 -0.0068 -0.9992
vn -0.9831 -0.1647 -0.0803
vn -0.9705 -0.1313 -0.2021
vn 0.1516 0.0518 -0.9871
vn -0.9274 -0.1711 -0.3326
vn 0.4129 0.0716 -0.908
vn 0.376 0.0438 -0.9256
vn -0.8351 -0.1141 -0.5381
vn -0.7922 -0.1352 -0.5951
vn 0.6494 0.0886 -0.7553
vn 0.6581 0.1003 -0.7462
vn -0.6986 -0.0794 -0.7111
vn 0.7472 0.1575 -0.6456
vn -0.5219 -0.0722 -0.8499
vn -0.5444 -0.0903 -0.834
vn 0.9249 0.1692 -0.3404
vn 0.9014 0.1202 -0.4161
vn -0.3176 -0.0296 -0.9477
vn -0.2655 -0.0435 -0.9631
vn 0.0574 0.3636 0.9298
vn -0.1005 0.812 0.5749
vn 0.415 0.9074 0.0661
vn -0.2229 0.5728 0.7888
vn 0.858 0.4006 0.3214
vn 0.3016 0.9277 0.2199
vn 0.7218 0.3924 0.5701
vn -0.5474 0.6856 0.48
vn 0.1624 0.908 0.3862
vn -0.6139 0.7336 0.2914
vn -0.7509 0.5056 0.4248
vn 0.3232 0.4057 0.8549
vn 0.0386 0.8658 0.4989
vn -0.9414 0.2173 0.2579
vn -0.0262 0.831 -0.5557
vn -0.6744 0.7262 -0.1336
vn 0.3494 0.3527 -0.868
vn 0.0782 0.9359 -0.3434
vn -0.7521 0.5216 -0.4029
vn 0.3529 0.8581 -0.3731
vn 0.495 0.8328 -0.2477
vn -0.9735 -0.1401 -0.1809
vn 0.2287 0.0066 -0.9735
vn 0.2563 0.0476 -0.9654
vn -0.9457 -0.1842 -0.2678
vn -0.9374 -0.1339 -0.3213
vn 0.508 0.0544 -0.8596
vn 0.5337 0.0305 -0.8451
vn -0.8813 -0.1399 -0.4514
vn -0.8469 -0.1789 -0.5008
vn 0.6851 0.1874 -0.7039
vn -0.7124 -0.0752 -0.6977
vn -0.6972 -0.0892 -0.7113
vn 0.7991 0.0812 -0.5957
vn -0.5287 -0.0474 -0.8475
vn 0.8853 0.176 -0.4305
vn -0.5252 -0.0506 -0.8495
vn 0.9082 0.1423 -0.3935
vn 0.9613 0.2116 -0.1767
vn -0.2847 0.005 -0.9586
vn -0.3165 -0.0369 -0.9479
vn 0.9773 0.1694 -0.1269
vn -0.0224 -0.003 -0.9997
vn -0.1017 0.0794 -0.9916
vn 0.1325 -0.2368 -0.9625
vn 0.9856 -0.1635 -0.043
vn 0.1278 -0.8599 -0.4942
vn 0.6482 -0.7562 -0.09
vn -0.1518 -0.2835 -0.9469
vn -0.0192 -0.8483 -0.5292
vn 0.936 -0.1783 -0.3036
vn 0.5826 -0.7836 -0.216
vn -0.3394 -0.6222 -0.7055
vn -0.3071 -0.6852 -0.6605
vn 0.8254 -0.1481 -0.5448
vn 0.5929 -0.6463 -0.4804
vn 0.4847 -0.7927 -0.3697
vn -0.2913 -0.8746 -0.3876
vn -0.76 -0.4815 -0.4365
vn 0.4574 -0.6209 -0.6366
vn -0.3694 -0.913 -0.1733
vn 0.2985 -0.7867 -0.5403
vn -0.9024 -0.3986 -0.1638
vn -0.1788 -0.1498 -0.9724
vn -0.9942 -0.106 -0.0174
vn 0.9967 0.0672 -0.0446
vn -0.0464 0.0977 -0.9941
vn 0.1081 -0.0685 -0.9918
vn -0.9437 -0.2867 -0.1648
vn 0.2495 0.1203 -0.9609
vn -0.9426 -0.045 -0.3308
vn 0.3556 -0.0234 -0.9344
vn -0.845 -0.2559 -0.4695
vn 0.4675 -0.0185 -0.8838
vn 0.521 0.1937 -0.8313
vn -0.7947 -0.1059 -0.5976
vn -0.7409 -0.1967 -0.6422
vn 0.6899 0.0255 -0.7235
vn 0.7744 0.2231 -0.5921
vn -0.5917 -0.023 -0.8058
vn 0.8111 0.1439 -0.567
vn -0.4996 -0.1798 -0.8474
vn -0.3361 0.0601 -0.9399
vn 0.9429 0.0886 -0.3209
vn 0.9304 0.2659 -0.2524
vn -0.1633 0.9866 0.0035
vn -0.1598 0.9871 -0.0001
vn -0.1644 0.9864 0.0011
vn -0.1628 0.9867 -0.0014
vn -0.162 0.9868 -0.0034
vn -0.1582 0.9874 -0.0043
vn -0.1644 0.9864 0.0009
vn -0.1557 0.9878 0.001
vn -0.1599 0.9871 0.0032
vn -0.163 0.9866 0.0035
vn -0.1571 0.9876 -0.0025
vn -0.1553 0.9879 -0.0003
vn -0.1597 0.9872 -0.0035
vn -0.1656 0.9862 -0.003
vn -0.1593 0.9872 0.0036
vn -0.1569 0.9876 0.0036
vn -0.1612 0.9869 -0.0043
vn -0.1556 0.9878 0.0006
vn 0.16 -0.9871 0.0002
vn 0.1684 -0.9857 0.0006
vn 0.1599 -0.9871 0
vn 0.16 -0.9871 0.0001
vn 0.1598 -0.9872 -0.0002
vn 0.1623 -0.9867 0.0112
vn 0.1598 -0.9872 -0.0001
vn 0.1595 -0.9872 -0.0076
vn 0.1597 -0.9872 -0.0002
vn 0.1602 -0.9871 0.0001
vn 0.1566 -0.9876 -0.0092
vn 0.1562 -0.9877 -0.0071
vn 0.1601 -0.9871 -0
vn 0.1599 -0.9871 0.0001
vn 0.1547 -0.988 0.0035
vn 0.1501 -0.9887 0.0011
vn 0.1627 -0.9867 -0.0022
vn 0.1623 -0.9867 -0.0112
vn 0.1502 -0.9887 0.001
vn 0.1598 -0.9872 0.0002
vn 0.1544 -0.988 0.0078
vn 0.1597 -0.9872 0.0002
vn 0.1542 -0.988 0.0078
vn 0.1549 -0.9879 0.0017
vn 0.1598 -0.9872 0.0001
vn 0.1597 -0.9872 0.0001
vn 0.1599 -0.9871 -0.0001
vn 0.1596 -0.9872 0.0001
vn 0.1599 -0.9871 -0.0002
vn 0.162 -0.9868 0.0035
vn 0.1689 -0.9856 0.001
vn 0.1622 -0.9867 0.0113
vn 0.1626 -0.9867 0.0021
vn -0.0437 -0.9965 0.0707
vn -0.0812 -0.9914 0.1023
vn -0.0739 -0.9842 0.1608
vn -0.0014 -0.9905 0.1377
vn -0.4933 -0.0803 0.8661
vn -0.4937 -0.0799 0.8659
vn -0.4944 -0.08 0.8656
vn -0.4938 -0.0799 0.8659
vn -0.5352 -0.0462 0.8435
vn 0.1956 -0.9578 0.2107
vn 0.1847 -0.9483 0.258
vn 0.4934 0.071 0.8669
vn 0.4992 0.0812 0.8627
vn 0.4942 0.081 0.8656
vn 0.4929 0.0789 0.8665
vn 0.4935 0.0789 0.8661
vn 0.4946 0.0805 0.8654
vn 0.9549 -0.1773 -0.2382
vn -0.172 -0.2229 -0.9596
vn -0.0479 -0.3336 -0.9415
vn -0.8956 -0.443 -0.0404
vn -0.9395 -0.3251 -0.108
vn 0.9934 -0.0403 -0.1077
vn 0.0987 -0.1782 -0.979
vn 0.2164 -0.2914 -0.9318
vn -0.8186 -0.4882 -0.3026
vn 0.3641 -0.1346 -0.9216
vn -0.8325 -0.2987 -0.4666
vn 0.4673 -0.2513 -0.8476
vn -0.714 -0.4394 -0.5451
vn 0.6034 -0.0952 -0.7917
vn -0.6453 -0.301 -0.7021
vn 0.685 -0.2167 -0.6956
vn -0.5324 -0.4107 -0.7402
vn 0.7978 -0.0633 -0.5996
vn -0.4267 -0.2648 -0.8648
vn 0.8519 -0.1901 -0.488
vn -0.3043 -0.3745 -0.8759
vn 0.9318 -0.041 -0.3605
vn 0.1598 -0.9871 0
vn -0.1175 0.9732 0.1977
vn -0.1323 0.9498 0.2834
vn -0.1955 0.9608 0.1968
vn -0.182 0.9494 0.2561
vn -0.9871 -0.1599 0.0002
vn -0.9871 -0.1599 0.001
vn -0.9883 -0.1525 -0.0018
vn -0.9871 -0.1599 0.0058
vn -0.9116 -0.147 -0.3838
vn -0.9085 -0.1515 -0.3894
vn -0.81 -0.1282 -0.5722
vn -0.8125 -0.1359 -0.5669
vn -0.1139 -0.0624 -0.9915
vn 0.0089 0.0565 -0.9984
vn 0.0791 0.0017 -0.9969
vn -0.494 -0.0789 -0.8659
vn -0.4945 -0.0791 -0.8655
vn -0.4926 -0.0808 -0.8665
vn -0.4878 -0.0793 -0.8693
vn -0.4966 -0.0715 -0.865
vn 0.491 0.0829 -0.8672
vn 0.4887 0.0791 -0.8689
vn 0.4927 0.0798 -0.8665
vn 0.4987 0.0808 -0.863
vn 0.4956 0.0748 -0.8653
vn 0.839 0.1681 -0.5175
vn 0.8688 0.1062 -0.4836
vn -0.0092 0.9913 -0.1314
vn 0.1377 0.9751 -0.1741
vn 0.0356 0.9971 -0.0679
vn 0.9829 0.1825 -0.0241
vn 0.987 0.1607 -0.0016
vn 0.987 0.1608 -0.0009
vn 0.9873 0.1589 0.0009
vn 0.9873 0.1589 0.0002
vn 0.9882 0.1533 0.0061
vn -0.1459 0.9284 -0.3418
vn -0.1186 0.9722 -0.2017
vn -0.8014 -0.169 0.5738
vn -0.8736 -0.0816 0.4797
vn -0.9048 -0.1657 0.3923
vn 0.0319 0.9974 0.0646
vn 0.0995 0.9874 0.1233
vn 0.0043 0.9901 0.14
vn 0.0472 0.9869 0.1543
vn 0.1199 0.0104 0.9927
vn 0.0739 0.0379 0.9965
vn -0.1227 -0.0136 0.9923
vn -0.0838 -0.0357 0.9958
vn 0.9931 0.107 -0.0471
vn -0.079 -0.0017 -0.9969
vn -0.0972 -0.0284 -0.9949
vn -0.9808 -0.1239 -0.1506
vn 0.2433 0.0686 -0.9675
vn 0.2041 0.0237 -0.9787
vn -0.9426 -0.2013 -0.2663
vn 0.4575 0.0321 -0.8886
vn -0.8802 -0.0997 -0.464
vn 0.5577 0.1415 -0.8179
vn -0.7746 -0.1799 -0.6063
vn -0.7179 -0.0799 -0.6916
vn 0.718 0.079 -0.6916
vn 0.786 0.1599 -0.5972
vn 0.888 0.0988 -0.4492
vn -0.4299 -0.056 -0.9011
vn -0.4549 -0.1029 -0.8846
vn 0.9256 0.2102 -0.3147
vn 0.1953 -0.9585 -0.2079
vn 0.1758 -0.9425 -0.2843
vn 0.1167 -0.9706 -0.2108
vn 0.1235 -0.9593 -0.2541
vn -0.3444 0.9366 -0.0643
vn -0.3873 0.9161 -0.1039
vn -0.3847 0.9087 -0.1623
vn -0.314 0.9394 -0.1378
vn 0.0072 -0.9911 -0.1331
vn -0.0785 -0.984 -0.1601
vn -0.0311 -0.9974 -0.0643
vn -0.0782 -0.9915 -0.1039
vn -0.1952 0.9612 -0.1951
vn 0.1423 -0.0137 0.9897
vn -0.9837 -0.1361 0.1172
vn 0.0425 0.0622 0.9972
vn -0.9826 -0.1824 0.0357
vn 0.9845 0.174 0.0232
vn 0.9446 0.1591 0.2871
vn -0.2654 -0.0983 0.9591
vn 0.9367 0.1157 0.3305
vn -0.3893 0.0014 0.9211
vn 0.8238 0.1691 0.5411
vn -0.5992 -0.1559 0.7853
vn 0.7511 0.0745 0.656
vn 0.663 0.1367 0.736
vn -0.7347 -0.0665 0.6751
vn -0.8161 -0.1701 0.5523
vn 0.4129 0.0895 0.9064
vn 0.4627 0.0523 0.885
vn -0.9104 -0.1095 0.3989
vn -0.9402 -0.1832 0.287
vn 0.3427 -0.9373 -0.0637
vn 0.4446 -0.88 -0.1672
vn 0.3042 -0.9435 -0.1314
vn -0.8726 -0.4241 0.2422
vn -0.9007 -0.3752 0.2192
vn 0.1466 -0.2691 0.9519
vn 0.9871 -0.1549 0.0402
vn 0.9921 -0.0656 0.1071
vn 0.1038 -0.2132 0.9715
vn -0.121 -0.3104 0.9429
vn 0.9396 -0.1482 0.3086
vn -0.1645 -0.2588 0.9518
vn 0.9309 -0.0717 0.3582
vn -0.3754 -0.3497 0.8583
vn -0.4168 -0.3016 0.8575
vn 0.8187 -0.1658 0.5497
vn 0.7976 -0.0952 0.5956
vn -0.5966 -0.3835 0.705
vn -0.6331 -0.3388 0.696
vn 0.6359 -0.1936 0.7471
vn 0.6046 -0.1283 0.7861
vn -0.7667 -0.4089 0.495
vn 0.4057 -0.229 0.8848
vn -0.7966 -0.3676 0.4799
vn 0.3671 -0.1687 0.9147
vn -0.9437 -0.1513 0.2943
vn 0.1741 0.072 0.9821
vn -0.9823 -0.1832 0.0384
vn 0.0623 -0.0518 0.9967
vn -0.1268 -0.0259 0.9916
vn 0.981 0.1517 0.1207
vn 0.9683 0.1972 0.1534
vn -0.1288 -0.027 0.9913
vn -0.295 0.0137 0.9554
vn -0.336 -0.0337 0.9412
vn 0.9004 0.1681 0.4013
vn 0.8908 0.1076 0.4415
vn 0.7563 0.0724 0.6503
vn -0.5112 -0.0672 0.8568
vn -0.5768 -0.0253 0.8165
vn 0.8006 0.1368 0.5834
vn -0.6736 -0.1667 0.7201
vn -0.7856 -0.1521 0.5998
vn 0.6178 0.1096 0.7786
vn 0.5897 0.0617 0.8053
vn -0.8346 -0.2065 0.5107
vn 0.4347 0.1106 0.8937
vn -0.9086 -0.0983 0.4059
vn 0.3365 0.0062 0.9417
vn -0.9858 -0.0928 0.14
vn -0.3121 0.9403 0.136
vn -0.441 0.8826 0.1631
vn -0.3479 0.9351 0.0676
vn -0.0472 -0.3671 0.929
vn -0.5977 -0.7974 0.0836
vn 0.2106 -0.8383 0.5029
vn 0.4226 -0.3526 0.8349
vn 0.3902 -0.7533 0.5294
vn -0.4174 -0.8717 0.2567
vn 0.5875 -0.558 0.5861
vn 0.5843 -0.7805 0.2224
vn -0.0962 -0.9451 0.3122
vn 0.9326 -0.3134 0.1791
vn -0.3706 -0.212 0.9043
vn 0.6409 -0.7653 0.0604
vn -0.0046 -0.8776 0.4794
vn 0.8893 0.1559 0.43
vn 0.8709 0.0861 0.4838
vn 0.7803 0.1704 0.6018
vn 0.1176 -0.9733 0.1973
vn 0.1312 -0.9512 0.2794
vn -0.0885 -0.108 0.9902
vn 0.9615 0.259 0.0918
vn -0.3325 0.0323 0.9425
vn 0.9763 0.0809 0.2009
vn -0.3839 -0.1501 0.9111
vn 0.8912 0.2327 0.3894
vn -0.5933 -0.0093 0.8049
vn 0.8808 0.0506 0.4707
vn -0.6311 -0.1783 0.7549
vn 0.752 0.1347 0.6453
vn 0.7495 0.1157 0.6518
vn -0.7925 -0.1208 0.5978
vn -0.7921 -0.1169 0.5991
vn 0.6673 -0.0185 0.7445
vn 0.5127 0.1884 0.8376
vn -0.8472 -0.2791 0.452
vn -0.9467 -0.0217 0.3213
vn 0.4059 -0.0385 0.9131
vn 0.2448 0.1449 0.9587
vn -0.9473 -0.3049 0.0982
vn 0.118 -0.0933 0.9886
vn -0.0341 0.0205 0.9992
vn 0.3042 -0.9435 0.1314
vn 0.4446 -0.88 0.1671
vn 0.3478 -0.9351 0.0676
vn -0.1099 0.3878 0.9152
vn -0.1659 0.347 0.9231
vn 0.8442 0.5265 0.1008
vn -0.1983 0.2866 0.9373
vn 0.8811 0.4332 0.1899
vn -0.2964 0.3619 0.8838
vn 0.8686 0.4646 0.1723
vn -0.3748 0.3548 0.8565
vn 0.7786 0.5474 0.307
vn -0.4907 0.284 0.8237
vn -0.4699 0.2512 0.8462
vn 0.7649 0.4675 0.4431
vn 0.768 0.4509 0.4548
vn 0.6585 0.5209 0.5432
vn -0.6043 0.3211 0.7292
vn 0.6003 0.4521 0.6598
vn -0.7099 0.2372 0.6632
vn -0.7017 0.2154 0.6791
vn 0.5948 0.4178 0.6868
vn 0.5267 0.4724 0.7068
vn -0.7584 0.2937 0.5819
vn 0.4177 0.4725 0.7761
vn -0.8409 0.2525 0.4787
vn -0.8745 0.1776 0.4513
vn 0.3605 0.3731 0.8549
vn 0.3239 0.4081 0.8535
vn -0.9013 0.2566 0.349
vn 0.1748 0.4511 0.8752
vn -0.9496 0.2256 0.2176
vn -0.9596 0.1972 0.2007
vn 0.0871 0.3315 0.9394
vn 0.0514 0.3665 0.929
vn -0.9677 0.2392 0.0803
vn -0.0308 0.3956 0.9179
vn -0.9858 0.1673 0.0138
vn 0.3965 -0.9084 0.1326
f 1//1 2//1 3//1
f 1//2 4//2 2//2
f 5//3 1//3 3//3
f 6//4 7//4 8//4
f 5//5 3//5 9//5
f 10//6 6//6 8//6
f 11//7 5//7 9//7
f 12//8 10//8 8//8
f 13//9 9//9 14//9
f 12//10 8//10 15//10
f 13//11 11//11 9//11
f 16//12 13//12 14//12
f 12//13 15//13 17//13
f 16//14 14//14 18//14
f 19//15 12//15 17//15
f 20//16 19//16 17//16
f 21//17 16//17 18//17
f 20//18 17//18 2//18
f 21//19 18//19 22//19
f 23//20 21//20 22//20
f 4//21 20//21 2//21
f 24//22 25//22 26//22
f 24//23 27//23 25//23
f 2//24 17//24 28//24
f 2//25 28//25 29//25
f 30//26 31//26 32//26
f 22//27 27//27 24//27
f 30//28 33//28 31//28
f 34//29 32//29 35//29
f 22//30 36//30 37//30
f 22//31 37//31 27//31
f 38//32 33//32 30//32
f 2//33 29//33 39//33
f 40//34 34//34 35//34
f 40//35 35//35 41//35
f 18//36 42//36 36//36
f 18//37 36//37 22//37
f 38//38 7//38 33//38
f 3//39 2//39 39//39
f 43//40 40//40 41//40
f 3//41 39//41 44//41
f 45//42 8//42 7//42
f 18//43 46//43 42//43
f 43//44 41//44 47//44
f 48//45 8//45 45//45
f 9//46 3//46 44//46
f 49//47 43//47 47//47
f 14//48 46//48 18//48
f 50//49 49//49 47//49
f 14//50 9//50 46//50
f 26//51 50//51 47//51
f 15//52 8//52 48//52
f 51//53 50//53 26//53
f 17//54 15//54 52//54
f 40//55 43//55 53//55
f 54//56 40//56 53//56
f 28//57 55//57 52//57
f 28//58 52//58 56//58
f 28//59 56//59 57//59
f 58//60 59//60 60//60
f 61//61 28//61 57//61
f 59//62 58//62 62//62
f 61//63 57//63 29//63
f 38//64 59//64 62//64
f 38//65 62//65 45//65
f 48//66 45//66 63//66
f 64//67 48//67 63//67
f 34//68 40//68 54//68
f 64//69 63//69 56//69
f 65//70 34//70 54//70
f 60//71 54//71 58//71
f 60//72 65//72 54//72
f 52//73 64//73 56//73
f 66//74 39//74 29//74
f 46//75 67//75 68//75
f 43//76 49//76 53//76
f 46//77 68//77 69//77
f 69//78 42//78 46//78
f 70//79 42//79 37//79
f 42//80 69//80 37//80
f 70//81 37//81 71//81
f 25//82 70//82 71//82
f 25//83 71//83 72//83
f 72//84 51//84 25//84
f 72//85 73//85 51//85
f 44//86 39//86 66//86
f 73//87 72//87 74//87
f 75//88 44//88 66//88
f 75//89 66//89 67//89
f 74//90 49//90 73//90
f 49//91 74//91 53//91
f 76//92 77//92 78//92
f 66//93 29//93 79//93
f 80//94 81//94 82//94
f 83//95 84//95 85//95
f 86//96 71//96 37//96
f 87//97 88//97 89//97
f 90//98 80//98 91//98
f 83//99 85//99 81//99
f 92//100 93//100 94//100
f 92//101 90//101 91//101
f 95//102 71//102 86//102
f 96//103 83//103 81//103
f 95//104 86//104 84//104
f 96//105 81//105 80//105
f 97//106 92//106 94//106
f 95//107 84//107 83//107
f 90//108 96//108 80//108
f 98//109 95//109 83//109
f 99//110 90//110 92//110
f 100//111 98//111 83//111
f 101//112 92//112 97//112
f 101//113 99//113 92//113
f 100//114 83//114 96//114
f 102//115 72//115 71//115
f 103//116 100//116 96//116
f 102//117 71//117 95//117
f 104//118 102//118 95//118
f 105//119 66//119 79//119
f 99//120 101//120 106//120
f 103//121 96//121 90//121
f 107//122 79//122 108//122
f 107//123 108//123 109//123
f 104//124 95//124 98//124
f 107//125 109//125 110//125
f 99//126 103//126 90//126
f 105//127 79//127 107//127
f 111//128 105//128 107//128
f 112//129 104//129 98//129
f 112//130 98//130 100//130
f 113//131 114//131 99//131
f 113//132 99//132 106//132
f 115//133 110//133 116//133
f 117//134 111//134 107//134
f 117//135 107//135 110//135
f 118//136 102//136 104//136
f 119//137 100//137 103//137
f 119//138 112//138 100//138
f 115//139 116//139 88//139
f 120//140 66//140 105//140
f 121//141 118//141 104//141
f 122//142 119//142 103//142
f 74//143 72//143 102//143
f 123//144 105//144 111//144
f 123//145 120//145 105//145
f 117//146 110//146 115//146
f 121//147 104//147 112//147
f 124//148 117//148 115//148
f 125//149 88//149 87//149
f 118//150 74//150 102//150
f 125//151 87//151 126//151
f 127//152 123//152 111//152
f 127//153 111//153 117//153
f 128//154 122//154 103//154
f 128//155 103//155 99//155
f 129//156 124//156 115//156
f 130//157 121//157 112//157
f 128//158 99//158 114//158
f 120//159 67//159 66//159
f 125//160 126//160 131//160
f 132//161 115//161 88//161
f 132//162 129//162 115//162
f 125//163 131//163 133//163
f 130//164 112//164 119//164
f 134//165 128//165 114//165
f 135//166 118//166 121//166
f 124//167 127//167 117//167
f 136//168 120//168 123//168
f 125//169 132//169 88//169
f 122//170 130//170 119//170
f 137//171 123//171 127//171
f 137//172 136//172 123//172
f 138//173 74//173 118//173
f 128//174 134//174 139//174
f 130//175 135//175 121//175
f 120//176 68//176 67//176
f 138//177 140//177 74//177
f 141//178 118//178 135//178
f 141//179 138//179 118//179
f 142//180 137//180 127//180
f 142//181 127//181 124//181
f 136//182 143//182 120//182
f 143//183 68//183 120//183
f 144//184 130//184 122//184
f 145//185 135//185 130//185
f 146//186 128//186 139//186
f 147//187 132//187 125//187
f 147//188 125//188 133//188
f 148//189 141//189 135//189
f 149//190 144//190 122//190
f 150//191 124//191 129//191
f 150//192 142//192 124//192
f 140//193 53//193 74//193
f 149//194 122//194 128//194
f 144//195 145//195 130//195
f 145//196 148//196 135//196
f 151//197 149//197 128//197
f 143//198 69//198 68//198
f 151//199 128//199 146//199
f 152//200 129//200 132//200
f 152//201 150//201 129//201
f 153//202 136//202 137//202
f 154//203 140//203 138//203
f 155//204 143//204 136//204
f 154//205 138//205 141//205
f 156//206 153//206 137//206
f 153//207 155//207 136//207
f 157//208 154//208 141//208
f 158//209 132//209 147//209
f 157//210 141//210 148//210
f 156//211 137//211 142//211
f 157//212 148//212 145//212
f 91//213 156//213 142//213
f 91//214 142//214 150//214
f 77//215 144//215 149//215
f 132//216 158//216 159//216
f 160//217 157//217 145//217
f 161//218 155//218 153//218
f 162//219 140//219 154//219
f 162//220 53//220 140//220
f 159//221 152//221 132//221
f 91//222 150//222 152//222
f 161//223 153//223 156//223
f 160//224 145//224 144//224
f 82//225 161//225 156//225
f 86//226 69//226 143//226
f 163//227 162//227 154//227
f 163//228 154//228 157//228
f 149//229 151//229 164//229
f 86//230 143//230 155//230
f 80//231 82//231 156//231
f 77//232 160//232 144//232
f 85//233 86//233 155//233
f 80//234 156//234 91//234
f 165//235 163//235 157//235
f 92//236 152//236 159//236
f 165//237 157//237 160//237
f 85//238 155//238 161//238
f 166//239 92//239 159//239
f 167//240 149//240 164//240
f 168//241 165//241 160//241
f 86//242 37//242 69//242
f 92//243 91//243 152//243
f 81//244 161//244 82//244
f 81//245 85//245 161//245
f 78//246 77//246 149//246
f 169//247 149//247 167//247
f 169//248 78//248 149//248
f 77//249 168//249 160//249
f 92//250 166//250 93//250
f 84//251 86//251 85//251
f 27//252 70//252 25//252
f 50//253 51//253 73//253
f 50//254 73//254 49//254
f 29//255 28//255 61//255
f 37//256 36//256 27//256
f 60//257 30//257 32//257
f 60//258 32//258 34//258
f 9//259 44//259 67//259
f 9//260 67//260 46//260
f 7//261 38//261 45//261
f 15//262 48//262 52//262
f 55//263 17//263 52//263
f 28//264 17//264 55//264
f 25//265 51//265 26//265
f 6//37 170//37 171//37
f 172//266 173//266 174//266
f 10//267 170//267 6//267
f 12//37 175//37 10//37
f 176//268 177//268 178//268
f 19//269 175//269 12//269
f 179//270 177//270 176//270
f 180//271 179//271 176//271
f 181//51 19//51 20//51
f 23//27 179//27 180//27
f 4//272 181//272 20//272
f 21//273 23//273 180//273
f 182//274 4//274 1//274
f 182//51 1//51 5//51
f 183//275 170//275 184//275
f 170//276 10//276 184//276
f 185//277 5//277 186//277
f 182//278 5//278 185//278
f 184//279 10//279 187//279
f 5//280 11//280 186//280
f 10//281 175//281 187//281
f 186//282 13//282 188//282
f 11//283 13//283 186//283
f 187//284 175//284 189//284
f 175//285 19//285 189//285
f 13//286 16//286 188//286
f 19//287 181//287 189//287
f 188//288 16//288 190//288
f 16//289 21//289 190//289
f 189//290 181//290 191//290
f 181//291 4//291 191//291
f 191//292 182//292 185//292
f 4//293 182//293 191//293
f 192//294 193//294 194//294
f 195//295 196//295 193//295
f 195//296 193//296 192//296
f 192//297 194//297 197//297
f 192//298 197//298 198//298
f 195//299 199//299 196//299
f 183//300 199//300 195//300
f 200//301 198//301 201//301
f 200//302 192//302 198//302
f 183//303 202//303 199//303
f 200//304 201//304 203//304
f 200//305 203//305 204//305
f 200//306 204//306 205//306
f 183//307 206//307 202//307
f 200//308 205//308 207//308
f 184//309 206//309 183//309
f 208//310 200//310 207//310
f 208//311 207//311 209//311
f 184//312 210//312 206//312
f 211//313 208//313 209//313
f 187//314 212//314 210//314
f 187//315 210//315 184//315
f 213//316 208//316 211//316
f 214//317 213//317 211//317
f 187//318 215//318 212//318
f 216//319 213//319 214//319
f 217//320 215//320 187//320
f 218//321 213//321 216//321
f 189//322 217//322 187//322
f 189//323 219//323 217//323
f 220//324 213//324 218//324
f 221//325 220//325 218//325
f 222//326 219//326 189//326
f 223//327 220//327 221//327
f 224//328 222//328 189//328
f 225//329 220//329 223//329
f 225//330 226//330 220//330
f 227//331 224//331 189//331
f 191//332 227//332 189//332
f 228//333 226//333 225//333
f 229//334 227//334 191//334
f 230//335 226//335 228//335
f 230//336 190//336 226//336
f 231//337 229//337 191//337
f 232//338 191//338 185//338
f 232//339 231//339 191//339
f 233//340 232//340 185//340
f 234//341 190//341 230//341
f 235//342 233//342 185//342
f 236//343 235//343 185//343
f 234//344 188//344 190//344
f 237//345 188//345 234//345
f 238//346 185//346 186//346
f 238//347 236//347 185//347
f 239//348 238//348 186//348
f 240//349 188//349 237//349
f 241//350 239//350 186//350
f 242//351 186//351 188//351
f 242//352 188//352 240//352
f 242//353 241//353 186//353
f 243//354 237//354 234//354
f 244//355 234//355 230//355
f 34//356 65//356 60//356
f 30//357 60//357 59//357
f 38//358 30//358 59//358
f 67//359 44//359 75//359
f 245//360 199//360 202//360
f 246//361 202//361 206//361
f 173//362 41//362 35//362
f 173//363 172//363 41//363
f 247//364 35//364 32//364
f 247//365 173//365 35//365
f 179//366 22//366 24//366
f 179//367 23//367 22//367
f 248//368 247//368 32//368
f 179//369 24//369 26//369
f 248//370 32//370 31//370
f 177//371 179//371 26//371
f 171//372 248//372 31//372
f 178//373 177//373 26//373
f 178//374 26//374 47//374
f 171//375 31//375 33//375
f 249//376 178//376 47//376
f 6//377 171//377 33//377
f 6//378 33//378 7//378
f 172//379 47//379 41//379
f 172//380 249//380 47//380
f 250//381 251//381 252//381
f 253//382 254//382 255//382
f 256//383 257//383 258//383
f 259//384 256//384 258//384
f 260//385 261//385 262//385
f 259//386 258//386 263//386
f 260//387 264//387 261//387
f 265//388 259//388 263//388
f 116//389 266//389 251//389
f 256//390 262//390 257//390
f 267//391 88//391 268//391
f 110//392 109//392 266//392
f 255//393 265//393 263//393
f 254//394 269//394 255//394
f 267//395 268//395 270//395
f 116//396 251//396 250//396
f 116//397 110//397 266//397
f 271//398 260//398 262//398
f 88//399 116//399 250//399
f 272//400 264//400 260//400
f 273//401 262//401 256//401
f 273//402 271//402 262//402
f 274//403 275//403 267//403
f 88//404 275//404 89//404
f 265//405 255//405 269//405
f 275//406 88//406 267//406
f 276//407 265//407 269//407
f 264//408 63//408 45//408
f 271//409 272//409 260//409
f 276//410 277//410 265//410
f 278//411 273//411 256//411
f 278//412 256//412 259//412
f 272//413 63//413 264//413
f 279//414 278//414 259//414
f 279//415 259//415 265//415
f 265//416 277//416 280//416
f 281//417 271//417 273//417
f 281//418 272//418 271//418
f 282//419 54//419 53//419
f 283//420 265//420 280//420
f 283//421 279//421 265//421
f 284//422 56//422 63//422
f 284//423 63//423 272//423
f 282//424 53//424 162//424
f 285//425 273//425 278//425
f 285//426 281//426 273//426
f 286//427 283//427 280//427
f 287//428 163//428 165//428
f 288//429 282//429 162//429
f 289//430 284//430 272//430
f 288//431 162//431 163//431
f 287//432 165//432 168//432
f 290//433 288//433 163//433
f 289//434 272//434 281//434
f 279//435 285//435 278//435
f 290//436 163//436 287//436
f 286//437 291//437 292//437
f 293//438 168//438 77//438
f 285//439 289//439 281//439
f 294//440 290//440 287//440
f 294//441 287//441 168//441
f 295//442 77//442 76//442
f 296//443 295//443 76//443
f 297//444 288//444 290//444
f 298//445 284//445 289//445
f 293//446 294//446 168//446
f 292//447 283//447 286//447
f 295//448 296//448 299//448
f 300//449 285//449 279//449
f 301//450 58//450 54//450
f 301//451 54//451 282//451
f 302//452 300//452 279//452
f 303//453 56//453 284//453
f 295//454 299//454 304//454
f 283//455 292//455 305//455
f 306//456 298//456 289//456
f 295//457 307//457 293//457
f 295//458 293//458 77//458
f 294//459 297//459 290//459
f 302//460 279//460 283//460
f 308//461 282//461 288//461
f 308//462 301//462 282//462
f 298//463 303//463 284//463
f 308//464 288//464 297//464
f 307//465 294//465 293//465
f 309//466 306//466 289//466
f 309//467 289//467 285//467
f 310//468 308//468 297//468
f 303//469 57//469 56//469
f 300//470 309//470 285//470
f 311//471 310//471 297//471
f 311//472 297//472 294//472
f 312//473 58//473 301//473
f 313//474 295//474 304//474
f 302//475 283//475 305//475
f 314//476 306//476 309//476
f 315//477 302//477 305//477
f 316//478 294//478 307//478
f 316//479 311//479 294//479
f 317//480 303//480 298//480
f 312//481 62//481 58//481
f 318//482 57//482 303//482
f 319//483 301//483 308//483
f 317//484 298//484 306//484
f 320//485 319//485 308//485
f 314//486 317//486 306//486
f 321//487 309//487 300//487
f 316//488 307//488 295//488
f 319//489 312//489 301//489
f 302//490 315//490 322//490
f 323//491 316//491 295//491
f 320//492 308//492 310//492
f 321//493 300//493 302//493
f 323//494 295//494 313//494
f 322//495 324//495 302//495
f 268//496 321//496 302//496
f 258//497 320//497 310//497
f 258//498 310//498 311//498
f 252//499 314//499 309//499
f 324//500 268//500 302//500
f 318//501 79//501 57//501
f 325//502 317//502 314//502
f 79//503 29//503 57//503
f 326//504 268//504 324//504
f 258//505 311//505 316//505
f 321//506 252//506 309//506
f 327//507 319//507 320//507
f 318//508 303//508 317//508
f 263//509 258//509 316//509
f 261//510 62//510 312//510
f 255//511 316//511 323//511
f 328//512 255//512 323//512
f 266//513 318//513 317//513
f 261//514 312//514 319//514
f 252//515 325//515 314//515
f 255//516 263//516 316//516
f 257//517 327//517 320//517
f 261//518 319//518 327//518
f 266//519 317//519 325//519
f 257//520 320//520 258//520
f 262//521 261//521 327//521
f 329//522 268//522 326//522
f 250//523 252//523 321//523
f 264//524 45//524 62//524
f 108//525 79//525 318//525
f 257//526 262//526 327//526
f 251//527 266//527 325//527
f 261//528 264//528 62//528
f 88//529 321//529 268//529
f 88//530 250//530 321//530
f 253//531 255//531 328//531
f 251//532 325//532 252//532
f 109//533 108//533 318//533
f 109//534 318//534 266//534
f 270//535 268//535 329//535
f 70//536 36//536 42//536
f 27//537 36//537 70//537
f 172//538 174//538 200//538
f 21//539 180//539 190//539
f 190//540 180//540 226//540
f 200//541 173//541 192//541
f 174//542 173//542 200//542
f 180//543 176//543 226//543
f 173//544 247//544 192//544
f 226//545 176//545 220//545
f 192//546 248//546 195//546
f 247//547 248//547 192//547
f 176//548 178//548 220//548
f 220//549 178//549 213//549
f 248//550 171//550 195//550
f 195//551 171//551 183//551
f 178//552 249//552 213//552
f 213//553 249//553 208//553
f 171//554 170//554 183//554
f 249//555 172//555 208//555
f 208//556 172//556 200//556
f 330//557 205//557 204//557
f 331//558 204//558 203//558
f 331//559 330//559 204//559
f 332//560 244//560 230//560
f 332//561 230//561 228//561
f 331//562 203//562 201//562
f 331//563 201//563 198//563
f 333//564 332//564 228//564
f 333//565 228//565 225//565
f 334//566 331//566 198//566
f 335//567 333//567 225//567
f 334//568 198//568 197//568
f 335//569 225//569 223//569
f 335//570 223//570 221//570
f 334//571 197//571 194//571
f 336//572 334//572 194//572
f 337//573 221//573 218//573
f 337//574 335//574 221//574
f 336//575 194//575 193//575
f 337//576 218//576 216//576
f 336//577 193//577 196//577
f 337//578 216//578 214//578
f 338//579 336//579 196//579
f 338//580 196//580 199//580
f 339//581 337//581 214//581
f 339//582 214//582 211//582
f 338//583 199//583 245//583
f 339//584 211//584 209//584
f 338//585 245//585 202//585
f 330//586 339//586 209//586
f 340//587 338//587 202//587
f 330//588 209//588 207//588
f 340//589 202//589 246//589
f 330//590 207//590 205//590
f 341//591 342//591 343//591
f 341//592 344//592 342//592
f 345//593 346//593 332//593
f 345//594 347//594 346//594
f 348//595 349//595 340//595
f 350//596 343//596 351//596
f 350//597 341//597 343//597
f 348//598 340//598 352//598
f 353//599 348//599 352//599
f 353//600 352//600 354//600
f 355//601 351//601 356//601
f 355//602 350//602 351//602
f 357//603 356//603 358//603
f 357//604 355//604 356//604
f 359//605 354//605 360//605
f 359//606 353//606 354//606
f 361//607 358//607 362//607
f 361//608 357//608 358//608
f 344//609 360//609 342//609
f 344//610 359//610 360//610
f 347//611 362//611 346//611
f 347//612 361//612 362//612
f 363//613 364//613 341//613
f 363//614 341//614 350//614
f 365//615 349//615 348//615
f 365//616 366//616 349//616
f 367//617 363//617 350//617
f 367//618 350//618 355//618
f 368//619 365//619 348//619
f 368//620 348//620 353//620
f 369//621 367//621 355//621
f 357//622 369//622 355//622
f 370//623 369//623 357//623
f 371//624 368//624 353//624
f 361//625 370//625 357//625
f 371//626 353//626 359//626
f 372//627 370//627 361//627
f 373//628 371//628 359//628
f 347//629 372//629 361//629
f 373//630 359//630 344//630
f 345//631 372//631 347//631
f 364//632 373//632 344//632
f 364//633 344//633 341//633
f 374//634 375//634 331//634
f 374//635 331//635 334//635
f 345//636 332//636 333//636
f 376//637 345//637 333//637
f 376//638 333//638 335//638
f 377//639 374//639 334//639
f 377//640 334//640 336//640
f 378//641 376//641 335//641
f 378//642 335//642 337//642
f 379//643 377//643 336//643
f 379//644 336//644 338//644
f 380//645 378//645 337//645
f 380//646 337//646 339//646
f 381//647 379//647 338//647
f 381//648 338//648 340//648
f 382//649 380//649 339//649
f 382//650 339//650 330//650
f 349//651 381//651 340//651
f 375//652 382//652 330//652
f 375//653 330//653 331//653
f 383//654 384//654 375//654
f 385//655 372//655 345//655
f 383//656 375//656 374//656
f 386//657 383//657 374//657
f 385//658 345//658 376//658
f 387//659 385//659 376//659
f 386//660 374//660 377//660
f 388//661 386//661 377//661
f 387//662 376//662 378//662
f 379//663 388//663 377//663
f 389//664 387//664 378//664
f 390//665 388//665 379//665
f 389//666 378//666 380//666
f 381//667 390//667 379//667
f 391//668 389//668 380//668
f 366//669 390//669 381//669
f 349//670 366//670 381//670
f 391//671 380//671 382//671
f 384//672 391//672 382//672
f 384//673 382//673 375//673
f 392//674 393//674 394//674
f 392//675 395//675 393//675
f 396//676 397//676 398//676
f 392//677 394//677 399//677
f 396//678 398//678 400//678
f 401//679 392//679 399//679
f 402//680 396//680 400//680
f 401//681 399//681 403//681
f 401//682 403//682 404//682
f 405//683 402//683 400//683
f 405//684 400//684 406//684
f 407//685 401//685 404//685
f 405//686 406//686 408//686
f 407//687 404//687 409//687
f 410//688 405//688 408//688
f 411//689 407//689 409//689
f 410//690 408//690 412//690
f 411//691 409//691 413//691
f 414//692 410//692 412//692
f 415//693 411//693 413//693
f 415//694 413//694 416//694
f 395//695 412//695 393//695
f 395//696 414//696 412//696
f 417//697 418//697 397//697
f 396//698 417//698 397//698
f 419//699 420//699 421//699
f 422//700 419//700 421//700
f 423//701 415//701 416//701
f 423//702 416//702 424//702
f 422//703 421//703 425//703
f 426//704 423//704 424//704
f 427//705 425//705 428//705
f 427//706 422//706 425//706
f 426//707 424//707 429//707
f 430//708 426//708 429//708
f 431//709 428//709 432//709
f 431//710 427//710 428//710
f 430//711 429//711 433//711
f 431//712 432//712 434//712
f 435//713 433//713 436//713
f 435//714 430//714 433//714
f 417//715 434//715 418//715
f 417//716 431//716 434//716
f 435//717 436//717 420//717
f 419//718 435//718 420//718
f 393//719 412//719 437//719
f 393//720 437//720 438//720
f 398//721 397//721 439//721
f 394//722 393//722 438//722
f 400//723 398//723 439//723
f 400//724 439//724 440//724
f 406//725 400//725 440//725
f 404//726 403//726 441//726
f 408//727 406//727 442//727
f 409//728 441//728 443//728
f 409//729 404//729 441//729
f 412//730 408//730 442//730
f 412//731 442//731 437//731
f 413//732 409//732 443//732
f 425//733 421//733 444//733
f 445//734 424//734 416//734
f 428//735 425//735 444//735
f 432//736 428//736 444//736
f 429//737 424//737 445//737
f 434//738 432//738 446//738
f 434//739 446//739 418//739
f 416//740 447//740 448//740
f 444//741 421//741 449//741
f 444//742 449//742 450//742
f 445//743 416//743 448//743
f 445//744 448//744 451//744
f 444//745 450//745 452//745
f 432//746 444//746 452//746
f 445//747 451//747 453//747
f 429//748 445//748 453//748
f 432//749 452//749 454//749
f 429//750 453//750 455//750
f 433//751 429//751 455//751
f 446//752 432//752 454//752
f 433//753 455//753 456//753
f 446//754 454//754 457//754
f 436//755 433//755 456//755
f 418//756 446//756 457//756
f 418//757 457//757 458//757
f 420//758 456//758 459//758
f 420//759 436//759 456//759
f 397//760 418//760 458//760
f 420//761 459//761 449//761
f 421//762 420//762 449//762
f 460//763 461//763 449//763
f 462//764 463//764 458//764
f 460//765 449//765 459//765
f 457//766 462//766 458//766
f 464//767 460//767 459//767
f 464//768 459//768 456//768
f 465//769 462//769 457//769
f 465//770 457//770 454//770
f 466//771 464//771 456//771
f 466//772 456//772 455//772
f 467//773 465//773 454//773
f 468//774 454//774 452//774
f 468//775 467//775 454//775
f 466//776 455//776 453//776
f 469//777 453//777 451//777
f 450//778 468//778 452//778
f 469//779 451//779 448//779
f 461//780 450//780 449//780
f 447//781 469//781 448//781
f 460//782 464//782 384//782
f 447//783 372//783 385//783
f 463//784 462//784 366//784
f 460//785 384//785 383//785
f 461//786 460//786 383//786
f 469//787 447//787 385//787
f 461//788 383//788 386//788
f 469//789 385//789 387//789
f 450//790 461//790 386//790
f 453//791 469//791 387//791
f 468//792 450//792 386//792
f 468//793 386//793 388//793
f 453//794 387//794 389//794
f 466//795 453//795 389//795
f 467//796 468//796 388//796
f 467//797 388//797 390//797
f 466//798 389//798 391//798
f 465//799 467//799 390//799
f 464//800 466//800 391//800
f 464//801 391//801 384//801
f 462//802 465//802 390//802
f 462//803 390//803 366//803
f 470//804 415//804 471//804
f 472//51 395//51 392//51
f 473//805 472//805 392//805
f 470//806 411//806 415//806
f 427//51 431//51 474//51
f 431//51 475//51 474//51
f 476//807 411//807 470//807
f 473//805 392//805 401//805
f 476//28 407//28 411//28
f 427//808 474//808 477//808
f 422//809 427//809 477//809
f 478//810 473//810 401//810
f 417//51 475//51 431//51
f 417//811 479//811 475//811
f 478//812 407//812 476//812
f 478//813 401//813 407//813
f 422//814 477//814 480//814
f 396//815 479//815 417//815
f 396//816 481//816 479//816
f 419//51 422//51 480//51
f 419//28 480//28 482//28
f 435//270 419//270 482//270
f 402//37 481//37 396//37
f 402//51 483//51 481//51
f 430//270 435//270 482//270
f 405//51 483//51 402//51
f 484//817 430//817 482//817
f 485//818 483//818 405//818
f 410//819 485//819 405//819
f 486//820 430//820 484//820
f 426//28 430//28 486//28
f 487//821 485//821 410//821
f 487//51 410//51 414//51
f 471//27 423//27 426//27
f 471//28 426//28 486//28
f 487//272 414//272 395//272
f 471//27 415//27 423//27
f 472//51 487//51 395//51
f 488//822 489//822 490//822
f 491//823 492//823 493//823
f 494//824 489//824 488//824
f 495//825 488//825 490//825
f 496//826 497//826 498//826
f 496//827 499//827 497//827
f 491//828 500//828 492//828
f 495//829 490//829 501//829
f 496//830 500//830 491//830
f 496//830 498//830 500//830
f 502//831 503//831 489//831
f 502//824 489//824 494//824
f 504//832 495//832 501//832
f 504//833 501//833 505//833
f 506//834 503//834 502//834
f 507//835 504//835 505//835
f 506//836 508//836 503//836
f 509//837 508//837 506//837
f 507//838 505//838 510//838
f 511//839 507//839 510//839
f 512//840 508//840 509//840
f 513//824 512//824 509//824
f 511//839 510//839 514//839
f 515//841 511//841 514//841
f 516//824 512//824 513//824
f 517//842 512//842 516//842
f 518//841 515//841 514//841
f 519//843 518//843 514//843
f 520//844 517//844 516//844
f 521//845 517//845 520//845
f 522//846 518//846 519//846
f 523//847 522//847 519//847
f 521//848 520//848 524//848
f 525//849 522//849 523//849
f 526//850 521//850 524//850
f 526//848 524//848 527//848
f 493//851 525//851 523//851
f 493//852 492//852 525//852
f 499//853 527//853 497//853
f 499//854 526//854 527//854
f 528//855 508//855 512//855
f 529//856 528//856 512//856
f 530//857 529//857 512//857
f 530//858 512//858 517//858
f 531//859 532//859 521//859
f 532//860 473//860 521//860
f 521//861 473//861 517//861
f 473//861 478//861 517//861
f 517//862 478//862 530//862
f 478//863 533//863 530//863
f 534//864 526//864 499//864
f 534//865 535//865 526//865
f 536//866 485//866 537//866
f 537//867 485//867 496//867
f 485//868 487//868 496//868
f 496//869 487//869 499//869
f 487//870 538//870 499//870
f 499//871 538//871 534//871
f 539//872 509//872 540//872
f 497//873 527//873 541//873
f 541//874 527//874 542//874
f 543//875 525//875 544//875
f 525//876 492//876 544//876
f 509//877 506//877 540//877
f 527//878 524//878 542//878
f 542//879 524//879 545//879
f 544//880 492//880 546//880
f 524//881 520//881 545//881
f 492//882 500//882 546//882
f 545//883 520//883 547//883
f 546//884 500//884 548//884
f 520//885 516//885 547//885
f 500//886 498//886 548//886
f 547//887 516//887 549//887
f 548//888 498//888 550//888
f 516//889 513//889 549//889
f 498//890 497//890 550//890
f 549//891 513//891 539//891
f 550//892 497//892 541//892
f 513//893 509//893 539//893
f 544//824 551//824 552//824
f 546//824 551//824 544//824
f 550//824 541//824 553//824
f 554//824 555//824 556//824
f 550//824 553//824 557//824
f 556//824 555//824 558//824
f 554//824 559//824 555//824
f 546//824 560//824 551//824
f 548//824 560//824 546//824
f 548//824 550//824 557//824
f 561//824 559//824 554//824
f 548//824 557//824 560//824
f 562//824 556//824 558//824
f 562//824 558//824 563//824
f 561//824 564//824 559//824
f 562//824 563//824 565//824
f 566//824 564//824 561//824
f 567//824 562//824 565//824
f 566//824 540//824 564//824
f 568//824 540//824 566//824
f 567//824 565//824 569//824
f 568//894 539//894 540//894
f 570//824 567//824 569//824
f 571//894 539//894 568//894
f 570//824 569//824 572//824
f 571//894 549//894 539//894
f 573//824 570//824 572//824
f 574//824 549//824 571//824
f 575//824 573//824 572//824
f 547//824 549//824 574//824
f 576//824 573//824 575//824
f 577//824 576//824 575//824
f 545//894 547//894 574//894
f 577//824 578//824 576//824
f 545//824 574//824 579//824
f 543//824 578//824 577//824
f 542//824 545//824 579//824
f 544//824 578//824 543//824
f 544//824 552//824 578//824
f 542//824 579//824 553//824
f 541//824 542//824 553//824
f 538//895 487//895 472//895
f 580//896 538//896 472//896
f 532//897 472//897 473//897
f 532//898 580//898 472//898
f 503//899 471//899 581//899
f 581//899 471//899 582//899
f 508//900 470//900 503//900
f 503//900 470//900 471//900
f 528//901 583//901 508//901
f 508//902 583//902 470//902
f 581//903 582//903 584//903
f 585//904 581//904 584//904
f 586//905 584//905 587//905
f 586//906 585//906 584//906
f 588//907 589//907 590//907
f 588//908 590//908 591//908
f 592//909 588//909 591//909
f 587//910 484//910 586//910
f 586//910 484//910 490//910
f 484//911 482//911 490//911
f 490//912 482//912 501//912
f 482//913 590//913 501//913
f 501//914 590//914 589//914
f 592//915 591//915 510//915
f 591//916 477//916 510//916
f 510//917 477//917 514//917
f 477//917 474//917 514//917
f 514//918 474//918 593//918
f 474//919 594//919 593//919
f 593//920 594//920 595//920
f 596//921 593//921 595//921
f 594//922 474//922 475//922
f 595//923 594//923 475//923
f 595//924 475//924 479//924
f 479//925 596//925 595//925
f 479//926 523//926 596//926
f 481//927 523//927 479//927
f 481//928 493//928 523//928
f 597//929 493//929 481//929
f 597//930 598//930 493//930
f 591//931 590//931 480//931
f 591//932 480//932 477//932
f 529//933 530//933 533//933
f 529//934 533//934 583//934
f 528//935 529//935 583//935
f 597//936 481//936 483//936
f 599//937 597//937 483//937
f 536//938 483//938 485//938
f 536//939 599//939 483//939
f 535//940 534//940 538//940
f 535//941 538//941 580//941
f 531//942 580//942 532//942
f 531//943 535//943 580//943
f 600//944 601//944 578//944
f 602//945 562//945 567//945
f 602//946 603//946 562//946
f 604//947 566//947 561//947
f 605//948 567//948 570//948
f 605//949 602//949 567//949
f 606//950 604//950 561//950
f 607//951 605//951 570//951
f 606//952 561//952 554//952
f 607//953 570//953 573//953
f 608//954 606//954 554//954
f 608//955 554//955 556//955
f 609//956 607//956 573//956
f 609//957 573//957 576//957
f 601//958 609//958 576//958
f 603//959 556//959 562//959
f 603//960 608//960 556//960
f 601//961 576//961 578//961
f 592//962 510//962 505//962
f 588//963 592//963 505//963
f 589//964 505//964 501//964
f 589//965 588//965 505//965
f 582//966 471//966 486//966
f 584//967 582//967 486//967
f 587//968 584//968 486//968
f 587//969 486//969 484//969
f 586//970 490//970 489//970
f 585//971 586//971 489//971
f 581//972 489//972 503//972
f 581//973 585//973 489//973
f 590//974 482//974 480//974
f 610//975 611//975 553//975
f 612//976 568//976 566//976
f 610//977 553//977 579//977
f 604//978 612//978 566//978
f 600//979 578//979 552//979
f 600//980 552//980 551//980
f 613//981 610//981 579//981
f 614//982 600//982 551//982
f 613//983 579//983 574//983
f 614//984 551//984 560//984
f 615//985 613//985 574//985
f 616//986 614//986 560//986
f 616//987 560//987 557//987
f 615//988 574//988 571//988
f 617//989 615//989 571//989
f 611//990 557//990 553//990
f 611//991 616//991 557//991
f 617//992 571//992 568//992
f 612//993 617//993 568//993
f 596//994 523//994 519//994
f 593//995 596//995 519//995
f 593//996 519//996 514//996
f 577//997 522//997 543//997
f 522//998 525//998 543//998
f 563//999 504//999 565//999
f 540//1000 506//1000 564//1000
f 506//1001 502//1001 564//1001
f 504//1002 507//1002 565//1002
f 565//1003 507//1003 569//1003
f 564//1004 502//1004 559//1004
f 507//1005 511//1005 569//1005
f 502//1006 494//1006 559//1006
f 569//1007 511//1007 572//1007
f 511//1008 515//1008 572//1008
f 559//1009 494//1009 555//1009
f 494//1010 488//1010 555//1010
f 572//1011 515//1011 575//1011
f 515//1012 518//1012 575//1012
f 555//1013 488//1013 558//1013
f 488//1014 495//1014 558//1014
f 575//1015 518//1015 577//1015
f 558//1016 495//1016 563//1016
f 518//1017 522//1017 577//1017
f 495//1018 504//1018 563//1018
f 413//1019 443//1019 618//1019
f 437//1020 619//1020 620//1020
f 416//1021 413//1021 447//1021
f 438//1022 437//1022 620//1022
f 438//1023 620//1023 621//1023
f 439//1024 458//1024 622//1024
f 439//1025 397//1025 458//1025
f 394//1026 438//1026 621//1026
f 394//1027 621//1027 623//1027
f 399//1028 394//1028 623//1028
f 439//1029 622//1029 624//1029
f 440//1030 439//1030 624//1030
f 440//1031 624//1031 625//1031
f 403//1032 399//1032 623//1032
f 403//1033 623//1033 626//1033
f 406//1034 440//1034 625//1034
f 441//1035 403//1035 626//1035
f 441//1036 626//1036 627//1036
f 406//1037 625//1037 628//1037
f 442//1038 406//1038 628//1038
f 443//1039 441//1039 627//1039
f 442//1040 628//1040 619//1040
f 443//1041 627//1041 618//1041
f 437//1042 442//1042 619//1042
f 413//1043 618//1043 447//1043
f 533//1044 478//1044 476//1044
f 583//1045 533//1045 476//1045
f 583//1046 476//1046 470//1046
f 620//1047 629//1047 621//1047
f 630//1048 447//1048 618//1048
f 619//1049 631//1049 620//1049
f 632//1050 631//1050 619//1050
f 628//1051 632//1051 619//1051
f 630//1052 618//1052 627//1052
f 625//1053 632//1053 628//1053
f 622//1054 633//1054 624//1054
f 634//1055 626//1055 623//1055
f 463//1056 633//1056 622//1056
f 629//1057 634//1057 623//1057
f 458//1058 463//1058 622//1058
f 621//1059 629//1059 623//1059
f 598//1060 597//1060 599//1060
f 537//1061 598//1061 599//1061
f 537//1062 599//1062 536//1062
f 531//1063 521//1063 526//1063
f 535//1064 531//1064 526//1064
f 629//1065 620//1065 363//1065
f 463//1066 366//1066 365//1066
f 629//1067 363//1067 367//1067
f 633//1068 463//1068 365//1068
f 634//1069 629//1069 367//1069
f 633//1070 365//1070 368//1070
f 634//1071 367//1071 369//1071
f 624//1072 633//1072 368//1072
f 626//1073 634//1073 369//1073
f 624//1074 368//1074 371//1074
f 625//1075 624//1075 371//1075
f 626//1076 369//1076 370//1076
f 627//1077 626//1077 370//1077
f 632//1078 625//1078 371//1078
f 632//1079 371//1079 373//1079
f 630//1080 627//1080 370//1080
f 630//1081 370//1081 372//1081
f 631//1082 632//1082 373//1082
f 631//1083 373//1083 364//1083
f 447//1084 630//1084 372//1084
f 620//1085 631//1085 364//1085
f 620//1086 364//1086 363//1086
f 537//1087 496//1087 491//1087
f 598//1088 537//1088 491//1088
f 598//1089 491//1089 493//1089
f 343//1090 232//1090 233//1090
f 343//1091 233//1091 235//1091
f 340//1092 246//1092 206//1092
f 351//1093 343//1093 235//1093
f 340//1094 206//1094 210//1094
f 351//1095 235//1095 236//1095
f 352//1096 340//1096 210//1096
f 351//1097 236//1097 238//1097
f 352//1098 210//1098 212//1098
f 356//1099 238//1099 239//1099
f 356//1100 351//1100 238//1100
f 352//1101 212//1101 215//1101
f 354//1102 352//1102 215//1102
f 354//1103 215//1103 217//1103
f 356//1104 239//1104 241//1104
f 354//1105 217//1105 219//1105
f 358//1106 241//1106 242//1106
f 358//1107 356//1107 241//1107
f 360//1108 354//1108 219//1108
f 360//1109 219//1109 222//1109
f 358//1110 242//1110 240//1110
f 360//1111 222//1111 224//1111
f 358//1112 240//1112 237//1112
f 362//1113 358//1113 237//1113
f 342//1114 360//1114 224//1114
f 342//1115 224//1115 227//1115
f 362//1116 237//1116 243//1116
f 342//1117 227//1117 229//1117
f 362//1118 243//1118 234//1118
f 346//1119 362//1119 234//1119
f 343//1120 342//1120 229//1120
f 343//1121 229//1121 231//1121
f 346//1122 234//1122 244//1122
f 343//1123 231//1123 232//1123
f 332//1124 346//1124 244//1124
f 52//1125 48//1125 64//1125