o obj1
v 0.029606 0.107696 -0.057771
v 0.028114 0.082824 -0.058554
v 0.038816 0.053403 -0.175505
v -0.030627 0.10712 -0.057687
v 0.029153 0.097074 -0.123627
v -0.039514 0.050434 -0.1769
v 0.025671 0.088514 -0.17523
v -0.009555 0.106683 -0.095345
v -0.018651 0.092581 -0.16588
v -0.026856 0.088085 -0.175136
v 0.02841 0.050383 -0.151883
v -0.038215 0.050463 -0.167851
v -0.033031 0.07202 -0.176123
v -0.028519 0.083366 -0.058497
v -0.025117 0.079918 -0.059207
v 0.017237 0.092764 -0.165978
v -0.004989 0.102164 -0.123603
v -0.013956 0.101873 -0.118898
v -0.01441 0.075431 -0.064291
v 0.017254 0.075706 -0.064336
v 0.028214 0.087294 -0.171112
v 0.027728 0.08885 -0.170469
v 0.025659 0.106544 -0.07646
v 0.012301 0.106583 -0.090584
v 0.003562 0.106724 -0.095328
v -0.038642 0.054804 -0.176806
v -0.028958 0.093908 -0.14263
v 0.024373 0.079432 -0.059088
v 0.021628 0.092909 -0.1613
v -0.022715 0.106727 -0.081194
v -0.026652 0.092292 -0.156493
v -0.028411 0.090538 -0.161464
v -0.033239 0.052765 -0.155973
v 0.028928 0.106503 -0.067219
v 0.003488 0.101747 -0.12357
v 0.025519 0.096899 -0.133035
v 0.021621 0.09718 -0.137776
v -0.029182 0.097825 -0.11903
v -0.022783 0.101743 -0.109443
v -0.027977 0.086163 -0.175228
v -0.029871 0.106778 -0.062281
f 1 2 3
f 4 2 1
f 5 1 3
f 6 7 3
f 8 4 1
f 9 7 10
f 11 3 2
f 11 6 3
f 11 12 6
f 13 10 7
f 14 6 12
f 14 4 6
f 14 12 15
f 14 2 4
f 16 9 17
f 16 7 9
f 18 8 17
f 18 17 9
f 19 15 12
f 19 11 20
f 21 22 5
f 21 5 3
f 21 3 7
f 21 7 22
f 23 24 1
f 25 8 1
f 25 1 24
f 25 17 8
f 25 24 16
f 26 13 7
f 26 7 6
f 26 6 4
f 26 4 27
f 28 14 15
f 28 2 14
f 28 19 20
f 28 15 19
f 28 20 11
f 28 11 2
f 29 22 7
f 29 7 16
f 30 4 8
f 30 8 18
f 31 9 10
f 31 27 30
f 32 26 27
f 32 13 26
f 32 31 10
f 32 27 31
f 33 19 12
f 33 12 11
f 33 11 19
f 34 23 1
f 34 1 5
f 34 5 23
f 35 25 16
f 35 16 17
f 35 17 25
f 36 5 22
f 36 22 29
f 36 23 5
f 37 29 16
f 37 16 24
f 37 24 23
f 37 36 29
f 37 23 36
f 38 30 27
f 38 27 4
f 39 30 18
f 39 18 9
f 39 31 30
f 39 9 31
f 40 32 10
f 40 10 13
f 40 13 32
f 41 38 4
f 41 4 30
f 41 30 38