o obj1
v -0.034897 -0.037202 0.09039
v -0.035165 -0.036906 0.090529
v -0.035461 -0.036627 0.09061
v -0.031774 -0.031213 0.090699
v -0.031201 -0.031755 0.090719
v -0.032048 -0.030915 0.09066
v -0.033631 -0.039302 0.086274
v -0.033633 -0.0393 0.085373
v -0.033201 -0.038962 0.085722
v -0.033217 -0.038943 0.085349
v -0.033693 -0.039244 0.084901
v -0.033279 -0.038889 0.084861
v -0.033771 -0.039166 0.084508
v -0.036436 -0.036503 0.089827
v -0.036091 -0.036846 0.089797
v -0.036062 -0.036062 0.089858
v -0.033353 -0.038818 0.084522
v -0.035192 -0.036933 0.089681
v -0.033868 -0.039062 0.084126
v -0.033448 -0.038722 0.084173
v -0.035649 -0.037288 0.089656
v -0.033574 -0.038609 0.083841
v -0.034065 -0.038885 0.08367
v -0.035388 -0.037546 0.089528
v -0.033656 -0.038502 0.083588
v -0.034303 -0.038642 0.083195
v -0.033812 -0.038348 0.08328
v -0.034546 -0.03839 0.082823
v -0.034127 -0.038038 0.082807
v -0.035138 -0.037799 0.089361
v -0.034602 -0.037559 0.082297
v -0.034872 -0.038067 0.082466
v -0.035183 -0.037747 0.082194
v -0.034773 -0.038168 0.089034
v -0.034598 -0.037527 0.08928
v -0.031644 -0.03457 0.089292
v -0.034843 -0.037318 0.082118
v -0.030002 -0.03293 0.089293
v -0.031296 -0.034925 0.088937
v -0.029654 -0.033278 0.088936
v -0.034252 -0.037911 0.088944
v -0.034038 -0.038125 0.088668
v -0.034314 -0.038625 0.088433
v -0.035047 -0.037118 0.081998
v -0.033872 -0.038291 0.088415
v -0.032332 -0.033887 0.081902
v -0.031296 -0.031637 0.081736
v -0.030688 -0.032244 0.081902
v -0.035624 -0.037317 0.081957
v -0.034019 -0.038918 0.087861
v -0.033592 -0.038582 0.087843
v -0.035909 -0.037024 0.081849
v -0.035305 -0.03686 0.081881
v -0.036201 -0.03674 0.081793
v -0.033782 -0.039155 0.087143
v -0.033425 -0.038753 0.087332
v -0.036502 -0.036436 0.081773
v -0.033301 -0.038877 0.086806
v -0.033229 -0.038947 0.086279
v -0.034694 -0.032728 0.090491
v -0.03457 -0.031644 0.089292
v -0.035143 -0.032288 0.090256
v -0.033633 -0.032588 0.089813
v -0.034015 -0.033413 0.090672
v -0.034323 -0.033116 0.090617
v -0.033563 -0.033856 0.090689
v -0.02748 -0.035452 0.087051
v -0.027421 -0.035512 0.084918
v -0.0264 -0.034411 0.086918
v -0.026377 -0.034434 0.084776
v -0.027863 -0.03507 0.08311
v -0.027023 -0.033789 0.08255
v -0.0299 -0.030911 0.091534
v -0.029716 -0.033216 0.091017
v -0.028758 -0.032053 0.091028
v -0.031297 -0.031636 0.091595
v -0.028773 -0.03416 0.081418
v -0.028127 -0.032684 0.090533
v -0.028738 -0.034195 0.09008
v -0.028349 -0.032462 0.080774
v -0.027259 -0.033552 0.08948
v -0.027984 -0.034949 0.088813
v -0.030103 -0.032829 0.080369
v -0.026809 -0.034003 0.088429
v -0.029701 -0.03111 0.080183
v -0.03113 -0.031803 0.080054
v -0.030743 -0.030068 0.080036
v -0.026419 -0.034392 0.086436
v -0.025867 -0.03353 0.087482
v -0.030361 -0.029036 0.080184
v -0.028829 -0.030568 0.080261
v -0.027114 -0.033698 0.089042
v -0.026555 -0.032841 0.089349
v -0.028393 -0.032419 0.080892
v -0.027605 -0.031792 0.08096
v -0.027543 -0.031853 0.090572
v -0.026385 -0.033012 0.082544
v -0.026984 -0.033828 0.082839
v -0.028599 -0.030798 0.091256
v -0.029743 -0.031068 0.091415
v -0.026489 -0.034322 0.084571
v -0.029698 -0.029698 0.091459
v -0.025689 -0.033708 0.085167
v -0.028942 -0.023983 0.087726
v -0.032171 -0.027226 0.087802
v -0.028456 -0.024503 0.088678
v -0.031405 -0.027992 0.089018
v -0.027796 -0.025164 0.089354
v -0.030249 -0.029148 0.089766
v -0.026922 -0.026031 0.089769
v -0.02629 -0.026032 0.089352
v -0.026785 -0.025543 0.089242
v -0.028569 -0.023754 0.086834
v -0.028346 -0.023978 0.087563
v -0.028054 -0.024273 0.088141
v -0.027782 -0.024543 0.088512
v -0.027479 -0.024848 0.088828
v -0.027144 -0.025181 0.089068
v -0.03291 -0.03006 0.090291
v -0.033443 -0.031564 0.090514
v -0.03261 -0.030355 0.09046
v -0.033943 -0.031088 0.090249
v -0.032288 -0.03068 0.090592
v -0.033115 -0.031918 0.090612
v -0.032656 -0.032356 0.090691
v -0.037216 -0.034871 0.090388
v -0.037479 -0.034622 0.090231
v -0.036984 -0.035102 0.090494
v -0.036701 -0.035387 0.090588
v -0.036269 -0.035819 0.090669
v -0.035747 -0.036334 0.09067
v -0.03313 -0.034286 0.09062
v -0.032729 -0.034703 0.090493
v -0.034618 -0.037474 0.090237
v -0.032285 -0.035141 0.090251
v -0.038959 -0.033129 0.088403
v -0.038814 -0.03328 0.088701
v -0.038671 -0.033415 0.088956
v -0.037876 -0.034225 0.08167
v -0.037594 -0.034471 0.081439
v -0.037379 -0.034714 0.081303
v -0.039338 -0.032748 0.087237
v -0.039244 -0.032843 0.087613
v -0.036814 -0.030605 0.08796
v -0.039113 -0.032975 0.088021
v -0.036505 -0.030929 0.088703
v -0.036823 -0.035267 0.081047
v -0.037109 -0.034982 0.081161
v -0.034489 -0.032933 0.081038
v -0.034912 -0.032518 0.081207
v -0.036177 -0.031237 0.08922
v -0.038508 -0.033586 0.089216
v -0.03558 -0.031846 0.08167
v -0.038135 -0.033949 0.081921
v -0.038358 -0.033733 0.08218
v -0.036195 -0.031232 0.082388
v -0.03858 -0.033507 0.082491
v -0.03878 -0.033304 0.082831
v -0.036661 -0.030765 0.08322
v -0.038936 -0.033153 0.083143
v -0.039092 -0.032996 0.08352
v -0.039215 -0.032872 0.083888
v -0.037027 -0.030393 0.084381
v -0.039327 -0.032761 0.08431
v -0.039405 -0.032683 0.084716
v -0.039458 -0.032629 0.085121
v -0.03717 -0.030265 0.085454
v -0.039488 -0.032597 0.085598
v -0.037153 -0.030272 0.086329
v -0.039489 -0.032597 0.086001
v -0.039467 -0.03262 0.086374
v -0.037039 -0.030383 0.087138
v -0.039416 -0.032672 0.086812
v -0.037908 -0.034217 0.088942
v -0.034936 -0.031293 0.088939
v -0.038842 -0.033283 0.084729
v -0.038919 -0.033206 0.086327
v -0.038614 -0.033511 0.087666
v -0.038336 -0.033789 0.083297
v -0.037478 -0.034646 0.082252
v -0.03684 -0.035285 0.081902
v -0.033909 -0.032323 0.081868
v -0.035645 -0.030567 0.087746
v -0.034893 -0.031328 0.082616
v -0.035514 -0.030706 0.083579
v -0.035922 -0.030295 0.084919
v -0.035972 -0.030247 0.086133
v -0.035784 -0.029241 0.08421
v -0.035535 -0.029476 0.083434
v -0.034279 -0.030744 0.081595
v -0.03372 -0.03129 0.081216
v -0.033285 -0.03173 0.081037
v -0.03529 -0.02973 0.088711
v -0.034979 -0.030044 0.089219
v -0.035607 -0.029411 0.087977
v -0.035835 -0.029193 0.087164
v -0.035966 -0.029051 0.085925
v -0.035926 -0.029094 0.086541
v -0.035926 -0.029082 0.085063
v -0.035193 -0.029825 0.082711
v -0.034769 -0.030243 0.082097
v -0.034633 -0.028389 0.087957
v -0.034371 -0.028595 0.088555
v -0.034154 -0.028824 0.088961
v -0.03398 -0.028989 0.08923
v -0.032258 -0.030703 0.080998
v -0.032584 -0.030389 0.081122
v -0.032789 -0.030176 0.081231
v -0.033015 -0.02995 0.081373
v -0.033329 -0.029638 0.081618
v -0.033646 -0.029351 0.081939
v -0.034095 -0.028949 0.082509
v -0.034299 -0.028666 0.082886
v -0.034528 -0.028437 0.083399
v -0.034666 -0.028298 0.083792
v -0.03477 -0.028195 0.084158
v -0.034858 -0.028107 0.084568
v -0.034921 -0.028044 0.084991
v -0.034955 -0.02801 0.085385
v -0.034968 -0.028002 0.085747
v -0.034932 -0.028043 0.086569
v -0.034865 -0.028117 0.086993
v -0.034791 -0.028198 0.087355
v -0.034201 -0.028732 0.08895
v -0.033885 -0.029063 0.082208
v -0.034943 -0.027993 0.08666
v -0.034674 -0.028276 0.087814
v -0.032244 -0.030689 0.081889
v -0.033278 -0.029654 0.088936
v -0.03293 -0.030002 0.089293
v -0.032213 -0.032814 0.090669
v -0.030908 -0.03209 0.090639
v -0.031911 -0.033113 0.090614
v -0.030377 -0.032592 0.090476
v -0.031511 -0.033497 0.090488
v -0.031085 -0.03394 0.090252
v -0.030059 -0.032908 0.090292
v -0.030588 -0.03236 0.09059
v -0.029589 -0.033387 0.081674
v -0.0304 -0.034618 0.081911
v -0.029794 -0.033195 0.081512
v -0.031032 -0.033975 0.081369
v -0.030154 -0.032813 0.081245
v -0.03039 -0.032586 0.081123
v -0.030035 -0.034977 0.08922
v -0.02963 -0.035377 0.088545
v -0.028984 -0.033979 0.089232
v -0.028646 -0.034334 0.088655
v -0.031738 -0.033299 0.081034
v -0.030704 -0.032259 0.081
v -0.028482 -0.034487 0.08831
v -0.029288 -0.035727 0.087596
v -0.028339 -0.034622 0.087956
v -0.02816 -0.034805 0.08729
v -0.029086 -0.035934 0.086563
v -0.028116 -0.034867 0.086986
v -0.028056 -0.034912 0.086684
v -0.028013 -0.034953 0.086247
v -0.029054 -0.035958 0.085446
v -0.028006 -0.03496 0.085451
v -0.028043 -0.034923 0.085
v -0.029196 -0.035822 0.084361
v -0.028098 -0.034867 0.08462
v -0.028296 -0.034669 0.083799
v -0.028427 -0.034537 0.083424
v -0.029487 -0.035519 0.083397
v -0.028591 -0.03438 0.083062
v -0.029819 -0.035208 0.082731
v -0.02894 -0.034026 0.082429
v -0.029106 -0.033866 0.082206
v -0.029334 -0.033653 0.081947
v -0.034387 -0.037704 0.081524
v -0.034686 -0.037401 0.081313
v -0.0325 -0.034931 0.081216
v -0.034963 -0.037106 0.081154
v -0.033586 -0.038507 0.089215
v -0.033361 -0.038708 0.088893
v -0.031233 -0.036197 0.089217
v -0.035271 -0.036826 0.08105
v -0.032928 -0.034483 0.08104
v -0.030761 -0.036662 0.088354
v -0.033185 -0.038886 0.088558
v -0.033034 -0.039054 0.088178
v -0.030489 -0.036931 0.087583
v -0.032885 -0.039201 0.08776
v -0.032717 -0.03935 0.087185
v -0.030316 -0.037096 0.086764
v -0.032636 -0.039446 0.086591
v -0.030253 -0.037167 0.085924
v -0.032588 -0.039481 0.086135
v -0.032594 -0.039492 0.085727
v -0.030294 -0.037138 0.085063
v -0.032604 -0.039473 0.085306
v -0.03266 -0.039428 0.084865
v -0.030437 -0.03698 0.08421
v -0.03272 -0.039354 0.084443
v -0.032814 -0.039263 0.084056
v -0.030682 -0.036741 0.083436
v -0.032956 -0.039137 0.083645
v -0.033092 -0.038978 0.083242
v -0.031028 -0.036396 0.082711
v -0.03327 -0.038807 0.082885
v -0.033461 -0.038619 0.082557
v -0.031452 -0.035978 0.082097
v -0.033712 -0.038376 0.08221
v -0.033942 -0.038128 0.081919
v -0.031948 -0.035483 0.081592
v -0.034149 -0.037934 0.081719
v -0.033172 -0.038953 0.086567
v -0.033463 -0.038663 0.087747
v -0.033955 -0.038189 0.083008
v -0.034382 -0.037777 0.082501
v -0.031892 -0.034327 0.082128
v -0.031341 -0.034878 0.082599
v -0.030895 -0.035326 0.088384
v -0.030492 -0.035732 0.087465
v -0.030225 -0.035987 0.085914
v -0.030347 -0.035877 0.084691
v -0.030714 -0.035512 0.083569
v -0.027995 -0.034968 0.085862
v -0.028182 -0.034781 0.0842
v -0.023978 -0.028346 0.087563
v -0.023994 -0.028948 0.08772
v -0.023821 -0.028505 0.087079
v -0.024386 -0.028574 0.088524
v -0.025961 -0.02699 0.089745
v -0.025908 -0.026416 0.089333
v -0.023713 -0.028611 0.086594
v -0.025541 -0.026785 0.089243
v -0.025181 -0.027144 0.089068
v -0.025164 -0.027796 0.089354
v -0.024848 -0.027479 0.088828
v -0.024543 -0.027782 0.088512
v -0.024273 -0.028054 0.088141
v -0.028978 -0.030418 0.089692
v -0.027992 -0.031405 0.089018
v -0.027226 -0.032171 0.087802
v -0.027226 -0.032171 0.083798
v -0.023997 -0.028943 0.083786
v -0.023724 -0.0286 0.084946
v -0.023875 -0.028451 0.084327
v -0.028944 -0.024023 0.083749
v -0.028609 -0.023715 0.084995
v -0.02845 -0.023877 0.084326
v -0.02414 -0.028186 0.083691
v -0.024492 -0.027835 0.083146
v -0.024824 -0.02814 0.082531
v -0.024915 -0.027411 0.082715
v -0.025904 -0.027027 0.081848
v -0.025392 -0.026935 0.082418
v -0.025775 -0.026551 0.082293
v -0.026163 -0.026163 0.082246
v -0.026551 -0.025775 0.082293
v -0.027188 -0.02577 0.081903
v -0.026935 -0.025392 0.082418
v -0.027411 -0.024915 0.082715
v -0.02814 -0.024824 0.082531
v -0.027835 -0.024492 0.083146
v -0.028186 -0.024141 0.083691
v -0.031405 -0.027992 0.082581
v -0.032171 -0.027226 0.083798
v -0.028206 -0.031191 0.082339
v -0.029424 -0.029973 0.081804
v -0.030418 -0.028978 0.081908
v -0.032266 -0.027131 0.090201
v -0.033282 -0.026115 0.088351
v -0.033702 -0.025695 0.08634
v -0.030798 -0.028599 0.091256
v -0.03359 -0.025807 0.084467
v -0.033012 -0.026385 0.082544
v -0.031792 -0.027605 0.08096
v -0.034392 -0.026419 0.086436
v -0.034322 -0.026489 0.084571
v -0.031275 -0.029536 0.091339
v -0.033937 -0.026874 0.083041
v -0.032356 -0.028455 0.090795
v -0.033633 -0.027179 0.082311
v -0.03306 -0.027751 0.09015
v -0.032419 -0.028393 0.080892
v -0.03403 -0.026781 0.088232
v -0.031183 -0.029628 0.080234
v -0.034029 -0.026782 0.088492
v -0.03129 -0.029521 0.091437
v -0.034463 -0.026349 0.086447
v -0.034391 -0.02642 0.084549
v -0.032462 -0.028349 0.080774
v -0.035452 -0.02748 0.087051
v -0.03252 -0.030412 0.080206
v -0.034949 -0.027984 0.088813
v -0.034195 -0.028738 0.09008
v -0.03416 -0.028773 0.081418
v -0.033064 -0.029869 0.09113
v -0.03507 -0.027863 0.08311
v -0.035512 -0.027421 0.084918
v -0.032467 -0.03375 0.089766
v -0.037527 -0.034598 0.08928
v -0.036433 -0.03567 0.090635
v -0.036933 -0.035192 0.089681
v -0.039212 -0.033726 0.086899
v -0.03906 -0.03387 0.087479
v -0.038877 -0.034071 0.08795
v -0.036847 -0.036089 0.081802
v -0.038642 -0.034304 0.088404
v -0.037288 -0.035649 0.081944
v -0.038389 -0.034547 0.088778
v -0.037547 -0.035388 0.082072
v -0.037799 -0.035138 0.08224
v -0.038168 -0.034776 0.082568
v -0.038627 -0.034312 0.083169
v -0.038067 -0.03487 0.089136
v -0.037763 -0.035169 0.089392
v -0.038921 -0.034016 0.083748
v -0.037139 -0.035804 0.089721
v -0.039158 -0.033779 0.084469
v -0.039263 -0.033674 0.085031
v -0.036739 -0.036201 0.089807
v -0.039312 -0.033622 0.085542
v -0.039299 -0.033633 0.086229
v -0.038278 -0.034695 0.083526
v -0.03791 -0.035063 0.083054
v -0.03857 -0.034403 0.084094
v -0.037484 -0.035489 0.082701
v -0.038772 -0.034202 0.084729
v -0.037025 -0.035949 0.082482
v -0.038878 -0.034095 0.085403
v -0.036589 -0.036384 0.0824
v -0.038884 -0.03409 0.086121
v -0.036128 -0.036845 0.082433
v -0.038789 -0.034185 0.086795
v -0.035767 -0.037206 0.082556
v -0.035431 -0.037542 0.08274
v -0.03865 -0.034323 0.087283
v -0.038466 -0.034507 0.087738
v -0.03502 -0.037953 0.083099
v -0.038239 -0.034734 0.088128
v -0.034734 -0.038239 0.083472
v -0.037953 -0.03502 0.088501
v -0.034507 -0.038466 0.083861
v -0.037542 -0.035431 0.088859
v -0.034323 -0.03865 0.084316
v -0.034185 -0.038789 0.084804
v -0.037206 -0.035767 0.089044
v -0.036845 -0.036128 0.089167
v -0.03409 -0.038884 0.085478
v -0.036384 -0.036589 0.0892
v -0.034095 -0.038878 0.086196
v -0.035949 -0.037024 0.089118
v -0.034202 -0.038772 0.086871
v -0.035489 -0.037484 0.088899
v -0.034403 -0.03857 0.087506
v -0.035063 -0.03791 0.088546
v -0.034695 -0.038278 0.088074
vn -0.537 -0.7049 0.4634
vn 0.4797 0.5326 0.6973
vn 0.6177 -0.7864 -0.0032
vn 0.647 -0.7597 -0.0652
vn 0.6356 -0.7534 -0.1682
vn 0.6336 -0.756 -0.1643
vn 0.612 -0.7429 -0.2711
vn 0.0096 -0.078 0.9969
vn 0.618 -0.7313 -0.2885
vn 0.12 -0.0815 0.9894
vn 0.6063 -0.715 -0.3482
vn 0.6106 -0.7057 -0.3595
vn 0.1061 -0.2042 0.9732
vn 0.5908 -0.6686 -0.4516
vn 0.5501 -0.6709 -0.4973
vn 0.1751 -0.2907 0.9407
vn 0.551 -0.6891 -0.4706
vn 0.4923 -0.6498 -0.5792
vn 0.4915 -0.6522 -0.577
vn 0.4589 -0.5668 -0.6842
vn 0.4562 -0.5751 -0.6791
vn 0.2851 -0.3169 0.9046
vn 0.3704 -0.4784 -0.7962
vn 0.3951 -0.4717 -0.7883
vn 0.2939 -0.4382 -0.8495
vn 0.3349 -0.4159 0.8455
vn 0.4198 -0.4228 0.8031
vn 0.28 -0.3771 -0.8828
vn 0.4308 -0.4315 0.7926
vn 0.4028 -0.4075 0.8196
vn 0.4162 -0.4143 0.8094
vn 0.3054 -0.3004 0.9036
vn 0.3986 -0.5484 0.7351
vn 0.3956 -0.5603 0.7277
vn 0.215 -0.332 -0.9185
vn 0.4597 -0.5727 0.6787
vn 0.1345 -0.1346 -0.9817
vn 0.1786 -0.3271 -0.928
vn 0.5035 -0.6358 0.5851
vn 0.5204 -0.6311 0.5752
vn 0.1318 -0.1334 -0.9823
vn 0.1175 -0.2425 -0.963
vn 0.0708 -0.0636 -0.9955
vn 0.0918 -0.0993 -0.9908
vn 0.5714 -0.7042 0.4213
vn 0.5694 -0.7051 0.4226
vn 0.0288 -0.0389 -0.9988
vn 0.2928 -0.3156 0.9026
vn 0.1606 -0.2704 -0.9492
vn 0.6303 -0.709 0.3163
vn 0.6033 -0.7626 0.2335
vn 0.6482 -0.7383 0.1863
vn 0.6599 -0.7495 0.0523
vn 0.3289 0.683 0.6522
vn 0.3263 0.6838 0.6527
vn 0.4128 0.558 0.7199
vn 0.376 0.5935 0.7116
vn 0.4796 0.5163 0.7096
vn 0.6959 -0.7171 0.0395
vn 0.6892 -0.6175 -0.379
vn 0.6569 -0.6796 -0.3265
vn 0.2264 -0.196 0.9541
vn 0.1491 -0.2051 0.9673
vn 0.5191 -0.6045 -0.6042
vn 0.371 -0.3144 0.8738
vn 0.3875 -0.4054 0.828
vn 0.5549 -0.4122 -0.7226
vn 0.4933 -0.4271 0.7578
vn 0.5096 -0.5711 0.6435
vn 0.285 -0.401 -0.8706
vn 0.6326 -0.5753 0.5185
vn 0.2542 -0.163 -0.9533
vn 0.6705 -0.6504 0.357
vn 0.6527 -0.6587 0.3744
vn 0.1574 -0.1429 -0.9771
vn 0.106 -0.0338 -0.9938
vn 0.7191 -0.6947 0.0153
vn 0.6326 -0.7275 0.2657
vn 0.0746 0.0245 -0.9969
vn 0.7446 -0.3708 0.5551
vn 0.6582 -0.5945 0.4619
vn 0.2461 -0.2602 -0.9337
vn 0.2792 -0.2502 -0.9271
vn 0.4661 -0.5516 0.6917
vn 0.3784 -0.3066 0.8734
vn 0.5246 -0.4035 0.7497
vn 0.4437 -0.4754 -0.7596
vn 0.5216 -0.4331 -0.7351
vn 0.7588 -0.6239 -0.1869
vn 0.1808 -0.198 0.9634
vn 0.3739 -0.2114 0.9031
vn 0.6783 -0.6324 -0.3742
vn 0.1462 -0.0365 0.9886
vn 0.7204 -0.5987 -0.3502
vn 0.6324 -0.7728 -0.0527
vn 0.7729 -0.6254 0.1076
vn -0.5605 0.5719 0.599
vn -0.5373 0.519 0.6648
vn -0.4067 0.4228 0.8099
vn -0.3058 0.2823 0.9093
vn -0.219 0.2328 0.9476
vn 0.4419 0.5979 0.6688
vn 0.0672 0.9592 0.2745
vn 0.1046 0.9064 0.4093
vn 0.0831 0.8916 0.4452
vn 0.1719 0.8519 0.4946
vn 0.1902 0.7888 0.5844
vn 0.1846 0.7897 0.585
vn 0.2902 0.7334 0.6147
vn 0.3221 0.6512 0.6871
vn 0.3201 0.6514 0.6879
vn -0.288 0.2394 0.9272
vn -0.2715 0.2345 0.9334
vn -0.2058 0.1842 0.9611
vn -0.1586 0.1221 0.9798
vn -0.1605 0.1235 0.9793
vn -0.0823 0.056 0.995
vn -0.1065 0.0662 0.9921
vn -0.0239 0.0109 0.9997
vn -0.248 0.2469 0.9368
vn -0.2857 0.2763 0.9176
vn -0.2201 0.2134 0.9518
vn -0.1651 0.1602 0.9732
vn -0.1638 0.1592 0.9736
vn -0.0921 0.0853 0.9921
vn -0.0976 0.0892 0.9912
vn -0.024 0.0138 0.9996
vn -0.0018 0.0006 1
vn 0.0804 -0.0781 0.9937
vn 0.15 -0.1535 0.9767
vn 0.1019 -0.1057 0.9892
vn 0.1387 -0.1373 0.9808
vn 0.2278 -0.2364 0.9446
vn 0.2525 -0.2581 0.9325
vn 0.2562 -0.2605 0.9309
vn 0.2948 0.9025 0.314
vn -0.764 -0.3905 -0.5136
vn -0.6638 0.669 0.3344
vn -0.6477 0.639 0.4149
vn -0.608 0.6031 0.5164
vn -0.1933 0.1892 -0.9627
vn -0.1962 0.193 -0.9614
vn -0.6125 0.6158 0.4956
vn -0.5769 0.563 0.5919
vn -0.5351 0.533 0.6554
vn -0.252 0.2423 -0.9369
vn -0.5263 0.5209 0.672
vn -0.3063 0.3142 -0.8986
vn -0.2764 0.2703 -0.9222
vn -0.3789 0.3656 -0.8501
vn -0.3984 0.3844 -0.8328
vn -0.4487 0.452 -0.771
vn -0.4504 0.4554 -0.7679
vn -0.4993 0.4911 -0.7138
vn -0.5523 0.5564 -0.6208
vn -0.5432 0.5403 -0.6426
vn -0.5852 0.5761 -0.5706
vn -0.6162 0.6036 -0.5059
vn -0.6415 0.6479 -0.4107
vn -0.6386 0.6381 -0.4302
vn -0.6672 0.6582 -0.3487
vn -0.6881 0.676 -0.2639
vn -0.6952 0.6953 -0.1821
vn -0.695 0.6972 -0.1757
vn -0.7092 0.6991 -0.0915
vn -0.7086 0.7054 0.0198
vn -0.7055 0.7088 -0.0009
vn -0.7089 0.7004 0.0828
vn -0.697 0.6907 0.1926
vn -0.6958 0.6993 0.1638
vn -0.6892 0.6802 0.2497
vn -0.6617 0.658 0.3594
vn 0.2068 -0.2093 0.9557
vn 0.2123 -0.2123 0.9539
vn -0.7281 -0.6855 -0.0009
vn -0.7289 -0.6846 -0.0021
vn -0.7294 -0.6841 -0.0012
vn -0.7303 -0.6831 0.002
vn -0.7302 -0.6832 0.0037
vn -0.7274 -0.6861 0.0098
vn -0.7272 -0.6863 0.0099
vn -0.7279 -0.6857 0.0096
vn -0.728 -0.6855 0.0122
vn -0.7269 -0.6864 -0.0202
vn -0.7267 -0.6868 0.0159
vn -0.7283 -0.685 -0.0192
vn -0.7321 -0.6811 0.0105
vn -0.7185 -0.6945 -0.0375
vn -0.7195 -0.6942 -0.0207
vn -0.7207 -0.693 0.0153
vn -0.7241 -0.6892 -0.0277
vn -0.7233 -0.6894 0.039
vn -0.7279 -0.6857 0.0001
vn -0.7242 -0.6896 -0.0008
vn -0.7257 -0.6878 -0.016
vn -0.7105 -0.7033 -0.0247
vn -0.7271 -0.6864 -0.0123
vn -0.7275 -0.686 -0.0119
vn -0.7253 -0.6883 -0.0131
vn -0.712 -0.7017 -0.025
vn -0.7288 -0.6847 -0.0087
vn -0.7115 -0.7021 -0.0282
vn -0.714 -0.6996 -0.0263
vn -0.7289 -0.6846 -0.0036
vn 0.7108 -0.7031 0.0203
vn 0.7072 -0.707 -0.0001
vn 0.0153 0.9663 0.257
vn 0.3384 0.6296 -0.6994
vn 0.1581 0.8135 -0.5597
vn 0.1463 0.8713 -0.4685
vn 0.039 0.9585 -0.2826
vn 0.0555 0.9557 -0.289
vn -0.0287 0.992 -0.1226
vn -0.0199 0.9998 0.0095
vn 0.0074 0.9992 -0.0387
vn 0.0489 0.9816 0.1846
vn 0.0013 0.9908 0.1353
vn 0.0405 0.9218 0.3856
vn 0.1418 0.8809 0.4515
vn 0.1244 0.8857 0.4474
vn 0.2805 0.7176 -0.6375
vn 0.2835 0.7396 -0.6104
vn 0.0938 0.8898 -0.4466
vn -0.9554 -0.0509 -0.291
vn -0.7441 -0.2796 -0.6067
vn -0.6263 -0.331 -0.7058
vn -0.8794 -0.1325 0.4573
vn -0.8859 -0.136 0.4435
vn -0.9242 -0.0456 0.3792
vn -0.9642 -0.0213 0.2642
vn -0.9807 -0.056 0.1875
vn -0.9977 0.0163 0.0659
vn -0.9989 0.0023 -0.0462
vn -0.9992 -0.0022 -0.0407
vn -0.9858 0.0167 -0.1671
vn -0.9598 -0.0589 -0.2744
vn -0.9133 -0.0633 -0.4023
vn -0.8713 -0.1442 -0.469
vn -0.857 -0.1397 -0.496
vn -0.7905 -0.1887 -0.5826
vn -0.7098 -0.2786 -0.647
vn -0.9897 -0.0113 0.143
vn -0.6286 0.6091 0.4836
vn -0.6265 0.5788 0.522
vn -0.5704 0.546 0.6135
vn -0.5493 0.5052 0.6656
vn -0.2148 0.1791 -0.9601
vn -0.2088 0.1624 -0.9644
vn -0.2609 0.231 -0.9373
vn -0.5512 0.5152 0.6563
vn -0.3046 0.2672 -0.9142
vn -0.3587 0.327 -0.8743
vn -0.3343 0.2811 -0.8996
vn -0.4466 0.4009 -0.7999
vn -0.487 0.4848 -0.7265
vn -0.4283 0.3957 -0.8124
vn -0.5338 0.5134 -0.6719
vn -0.5221 0.4933 -0.6957
vn -0.6286 0.5656 -0.5338
vn -0.65 0.6152 -0.4461
vn -0.6041 0.5669 -0.5601
vn -0.6906 0.6218 -0.3694
vn -0.6936 0.6587 -0.2916
vn -0.6664 0.6268 -0.4038
vn -0.7251 0.6573 -0.2054
vn -0.7057 0.6664 -0.2409
vn -0.7174 0.686 -0.1216
vn -0.7346 0.6773 -0.041
vn -0.7282 0.6829 -0.0587
vn -0.7172 0.6937 0.0664
vn -0.7243 0.6829 0.0946
vn -0.7103 0.6661 0.2273
vn -0.7093 0.6727 0.2107
vn -0.6872 0.6656 0.291
vn -0.6737 0.6347 0.3786
vn -0.671 0.6472 0.3618
vn -0.8766 -0.422 0.2311
vn -0.8611 -0.4055 0.3066
vn -0.836 -0.2245 -0.5006
vn -0.7163 0.3156 -0.6223
vn -0.9313 -0.3543 0.0843
vn -0.9717 -0.1717 0.162
vn -0.8427 0.2757 0.4625
vn -0.9249 0.2582 0.2789
vn -0.5249 0.3071 -0.7938
vn -0.9647 -0.2618 0.029
vn -0.9699 -0.053 0.2377
vn 0.7071 -0.7071 -0.0002
vn 0.7002 -0.7138 0.0164
vn 0.2057 -0.2049 0.9569
vn 0.206 -0.2067 0.9565
vn -0.7051 0.7069 0.0554
vn -0.7064 0.7058 0.0528
vn 0.1031 -0.1445 0.9841
vn -0.0002 -0.0465 0.9989
vn 0.144 -0.1645 0.9758
vn 0.0796 -0.1018 0.9916
vn 0.1456 -0.1696 0.9747
vn 0.2509 -0.2856 0.9249
vn 0.2302 -0.2761 0.9331
vn -0.1725 -0.3688 0.9133
vn -0.5278 -0.7102 0.466
vn 0.3271 -0.3819 -0.8644
vn 0.3419 -0.3861 -0.8568
vn 0.3099 -0.3288 -0.8921
vn 0.2257 -0.27 -0.936
vn 0.5227 -0.5581 0.6444
vn 0.5189 -0.5579 0.6476
vn 0.1993 -0.2594 -0.945
vn 0.1691 -0.1998 -0.9651
vn 0.5812 -0.6058 0.5433
vn 0.5789 -0.6554 0.485
vn 0.6015 -0.6546 0.458
vn 0.6469 -0.6728 0.359
vn 0.6699 -0.7033 0.2379
vn 0.652 -0.7088 0.2693
vn 0.6694 -0.7033 0.2393
vn 0.6896 -0.7113 0.136
vn 0.6901 -0.7237 0.0112
vn 0.6796 -0.7327 0.0361
vn 0.6859 -0.7186 -0.1147
vn 0.6695 -0.7149 -0.202
vn 0.6647 -0.7255 -0.1785
vn 0.6634 -0.6752 -0.3224
vn 0.5882 -0.6758 -0.4442
vn 0.6285 -0.6674 -0.3996
vn 0.5836 -0.6154 -0.5298
vn 0.5607 -0.6071 -0.563
vn 0.5469 -0.5647 -0.6181
vn 0.4583 -0.5242 -0.7178
vn 0.4681 -0.5263 -0.7098
vn 0.4434 -0.4609 -0.7687
vn 0.4146 -0.4278 -0.8032
vn 0.3138 -0.313 -0.8964
vn 0.2551 -0.2623 -0.9307
vn 0.5112 -0.5213 0.6833
vn 0.1919 -0.196 -0.9616
vn 0.5647 -0.5571 0.6089
vn 0.1748 -0.1704 -0.9698
vn 0.5685 -0.5646 0.5984
vn 0.6328 -0.634 0.4445
vn 0.6044 -0.6119 0.5102
vn 0.6323 -0.6325 0.4474
vn 0.6826 -0.6749 0.2803
vn 0.6548 -0.663 0.3629
vn 0.7029 -0.7025 0.1118
vn 0.6886 -0.6953 0.2059
vn 0.7039 -0.6986 0.1284
vn 0.7058 -0.706 -0.0579
vn 0.7042 -0.71 0.008
vn 0.7077 -0.7049 -0.0478
vn 0.6853 -0.6871 -0.2413
vn 0.6934 -0.7025 -0.16
vn 0.6926 -0.6875 -0.2182
vn 0.6669 -0.6728 -0.3202
vn 0.6469 -0.6463 -0.4048
vn 0.64 -0.644 -0.4191
vn 0.6235 -0.6319 -0.4603
vn 0.5877 -0.5848 -0.5592
vn 0.5821 -0.5821 -0.5678
vn 0.5436 -0.551 -0.6332
vn 0.508 -0.5077 -0.6958
vn 0.4967 -0.5014 -0.7085
vn 0.4562 -0.4655 -0.7584
vn 0.4143 -0.4127 -0.8112
vn 0.4064 -0.4075 -0.8178
vn 0.3051 -0.3076 -0.9013
vn 0.3552 -0.3638 -0.8611
vn -0.5285 -0.8465 0.0645
vn -0.4988 -0.8663 -0.0264
vn -0.492 -0.7231 -0.4848
vn -0.3772 -0.8297 -0.4115
vn -0.4606 -0.861 0.2158
vn -0.5257 -0.8353 0.1613
vn -0.3875 -0.9213 0.0305
vn -0.4541 -0.8706 -0.1893
vn -0.5214 -0.8501 -0.0737
vn -0.5626 -0.8245 -0.0606
vn -0.1841 -0.9642 0.1909
vn -0.2435 -0.9551 0.1689
vn -0.4101 -0.9098 0.0647
vn -0.451 -0.8801 0.1482
vn -0.1769 -0.9841 0.0167
vn 0.7457 -0.4915 -0.4499
vn -0.3631 -0.8903 0.2747
vn -0.4388 -0.8571 -0.2698
vn -0.6604 -0.746 -0.0853
vn -0.6813 -0.732 0.0112
vn -0.6856 -0.7253 -0.0616
vn -0.6775 -0.7354 0.0096
vn -0.6936 -0.7181 -0.0575
vn -0.6888 -0.7225 -0.0596
vn -0.6811 -0.7299 -0.0573
vn -0.6813 -0.7319 0.0145
vn -0.685 -0.7265 -0.0541
vn -0.6744 -0.7368 -0.0492
vn -0.6497 -0.7597 0.0267
vn -0.6775 -0.7336 -0.0537
vn -0.6845 -0.7287 0.0205
vn -0.6788 -0.7323 -0.0544
vn -0.6726 -0.7389 0.0406
vn -0.6794 -0.7316 -0.0573
vn -0.6769 -0.7346 0.0471
vn -0.6487 -0.7608 -0.0194
vn -0.6717 -0.7402 -0.0313
vn -0.6864 -0.7246 -0.0623
vn -0.6638 -0.7467 -0.043
vn -0.6695 -0.7421 -0.0322
vn -0.6655 -0.7449 -0.0475
vn -0.6688 -0.7423 -0.042
vn -0.6592 -0.7515 -0.0259
vn -0.6543 -0.7559 -0.022
vn -0.656 -0.7546 -0.0164
vn -0.6561 -0.7547 0.0002
vn -0.6606 -0.7507 -0.0091
vn -0.6578 -0.7532 -0.0059
vn -0.6576 -0.7527 0.0311
vn -0.6775 -0.7355 0.0065
vn -0.7071 0.7071 0
vn -0.7071 0.7071 -0.0001
vn -0.201 0.201 0.9587
vn -0.2044 0.2072 0.9567
vn 0.7597 0.2428 -0.6033
vn 0.8499 0.1531 0.5041
vn 0.8921 0.0799 0.4447
vn 0.9463 0.0335 0.3216
vn 0.9255 0.0849 0.3691
vn 0.9858 0.0435 0.1621
vn 0.979 0.0219 0.2026
vn 0.9968 -0.0229 0.0765
vn 0.9985 -0.024 -0.0485
vn 0.9861 -0.0075 -0.1657
vn 0.9951 0.0129 -0.0982
vn 0.9543 0.0566 -0.2934
vn 0.9563 0.0484 -0.2883
vn 0.9125 0.0675 -0.4034
vn 0.8714 0.1454 -0.4685
vn 0.8571 0.1404 -0.4957
vn 0.7867 0.1895 -0.5876
vn 0.7101 0.2675 -0.6513
vn 0.6638 0.3168 -0.6775
vn 0.6504 0.3568 -0.6706
vn -0.0457 -0.9569 -0.2869
vn -0.0111 -0.9961 -0.0878
vn -0.0172 -0.9811 0.1929
vn -0.3223 -0.6668 -0.672
vn -0.3201 -0.6675 -0.6723
vn -0.1475 -0.8689 -0.4726
vn -0.1396 -0.8481 -0.5112
vn -0.061 -0.9157 -0.3972
vn -0.0396 -0.9539 -0.2974
vn 0.0114 -0.992 -0.1259
vn 0.0333 -0.9992 0.0231
vn -0.0424 -0.987 0.1549
vn -0.0328 -0.9415 0.3353
vn -0.0849 -0.9246 0.3713
vn -0.1488 -0.849 0.5071
vn -0.0951 -0.8802 0.4649
vn -0.2364 -0.757 -0.6091
vn -0.2363 -0.7513 -0.6162
vn -0.709 0.7052 0.0001
vn -0.7071 0.7071 -0.0045
vn -0.6219 -0.7831 0.0013
vn -0.6493 -0.76 -0.0264
vn 0.8231 0.2829 -0.4925
vn 0.6549 -0.7171 0.2384
vn 0.7388 0.2657 -0.6193
vn -0.2061 0.2061 0.9566
vn 0.9549 0.0505 0.2926
vn 0.9102 0.0813 0.4062
vn 0.5093 0.4704 0.7207
vn 0.4866 0.4692 0.7369
vn 0.9724 -0.0505 0.2276
vn 0.599 0.4297 0.6757
vn 0.6559 0.3258 0.6809
vn 0.6568 0.3184 0.6836
vn 0.7334 0.2902 0.6147
vn 0.7897 0.1846 0.585
vn 0.7926 0.1653 0.5868
vn 0.8526 0.1759 0.4921
vn 0.9063 0.1035 0.4098
vn 0.0118 -0.0135 0.9998
vn 0.0229 -0.0356 0.9991
vn 0.2374 -0.2236 0.9453
vn 0.2977 -0.3171 0.9005
vn 0.4362 -0.4161 0.7979
vn 0.5156 -0.5406 0.6648
vn 0.5925 -0.58 0.559
vn 0.7064 -0.7065 0.0428
vn 0.7052 -0.7081 -0.036
vn 0.7102 -0.704 -0.0094
vn 0.714 -0.7002 0
vn 0.9722 0.0159 -0.2335
vn -0.0092 0.9714 -0.2374
vn 0.9334 0.1345 -0.3328
vn 0.8645 0.1013 -0.4923
vn 0.8569 0.089 -0.5077
vn 0.7995 0.2388 -0.5511
vn 0.692 0.2755 -0.6673
vn 0.6916 0.2567 -0.6752
vn 0.6371 0.4263 -0.6422
vn 0.5593 0.4793 -0.6764
vn 0.3852 0.4789 -0.7889
vn 0.4555 0.4973 -0.7384
vn 0.41 0.6272 -0.6622
vn 0.2893 0.6981 -0.6549
vn 0.2556 0.7003 -0.6665
vn 0.2388 0.7995 -0.5511
vn 0.087 0.8575 -0.507
vn 0.0965 0.8638 -0.4945
vn 0.1193 0.9336 -0.3378
vn -0.5314 0.525 -0.6649
vn 0.5144 -0.5276 -0.676
vn 0.5115 -0.5142 -0.6885
vn 0.2978 -0.2726 -0.9149
vn 0.1977 -0.2219 -0.9548
vn -0.0131 0.0306 -0.9994
vn -0.0529 0.0517 -0.9973
vn -0.2993 0.2999 -0.9058
vn -0.3098 0.3049 -0.9006
vn -0.5149 0.5197 -0.6818
vn -0.7053 0.6995 -0.1153
vn -0.7044 0.7097 0.0141
vn -0.7068 0.7067 0.0302
vn -0.6941 0.7199 0
vn 0.7071 0.7071 -0
vn -0.7266 0.685 -0.053
vn -0.6855 0.7232 -0.0845
vn -0.0794 -0.0294 0.9964
vn -0.0637 0.1193 0.9908
vn -0.5736 0.7486 -0.3326
vn -0.6563 0.6451 -0.3913
vn -0.2592 0.2145 0.9417
vn -0.2238 0.4115 0.8835
vn -0.5993 0.6186 -0.5081
vn -0.3666 0.4014 0.8393
vn -0.4134 0.5395 -0.7336
vn -0.4646 0.4361 -0.7707
vn -0.5907 0.5595 0.5814
vn -0.5105 0.604 0.6121
vn -0.2417 0.2567 -0.9358
vn -0.237 0.2693 -0.9335
vn -0.6782 0.6819 0.2741
vn -0.6623 0.6935 0.2835
vn -0.0495 -0.015 -0.9987
vn 0.7072 0.7071 -0
vn 0.707 0.7072 0
vn 0.7072 0.707 0
vn 0.7071 0.7071 0.0001
vn 0.7067 0.7075 -0.0003
vn -0.6403 0.7126 0.2867
vn -0.0977 0.0115 -0.9952
vn -0.6856 0.6246 0.3741
vn -0.143 0.2663 -0.9532
vn -0.5208 0.5688 0.6366
vn -0.5245 0.557 0.644
vn -0.3975 0.2539 -0.8818
vn -0.3888 0.3872 0.836
vn -0.3794 0.3888 0.8396
vn -0.4125 0.5453 -0.7297
vn -0.2234 0.3292 0.9175
vn -0.5838 0.6334 -0.5078
vn -0.5906 0.5342 -0.6049
vn -0.1842 0.0742 0.9801
vn -0.6186 0.6813 -0.3914
vn 0.0051 0.0749 0.9972
vn -0.6874 0.6488 -0.3265
vn -0.675 0.7359 -0.053
vn -0.7418 0.6694 0.0394
vn -0.7047 -0.7093 -0.0153
vn -0.724 -0.6895 -0.0185
vn -0.7207 -0.6932 -0.0038
vn -0.7236 -0.6901 -0.015
vn -0.7173 -0.6962 -0.0285
vn -0.7173 -0.6961 -0.0306
vn -0.7245 -0.6892 -0.0114
vn -0.7157 -0.6979 -0.0272
vn -0.7267 -0.6869 -0.0097
vn -0.725 -0.6886 -0.0107
vn -0.7291 -0.6836 -0.034
vn -0.726 -0.6877 -0.0082
vn -0.6986 -0.7149 -0.031
vn -0.7255 -0.6882 -0.0063
vn -0.7256 -0.6881 -0.0038
vn -0.7237 -0.69 -0.0085
vn -0.7308 -0.6826 0.0013
vn -0.6778 -0.7338 -0.0448
vn -0.7051 -0.7087 0.0226
vn -0.6986 -0.715 0.0263
vn -0.7071 -0.7071 0
vn -0.7028 -0.7109 -0.0266
vn -0.727 -0.6866 -0.004
vn -0.712 -0.7008 -0.0445
vn -0.7115 -0.7027 -0.0067
vn -0.7176 -0.6964 0.006
vn -0.7102 -0.7036 0.0239
vn -0.6863 -0.7268 -0.0264
vn -0.6961 -0.7175 -0.0271
vn -0.6944 -0.7181 -0.0459
vn -0.7268 -0.6869 0.0007
vn -0.7118 -0.6995 0.0639
vn -0.6911 -0.7224 -0.0226
vn -0.7075 -0.7067 0.0004
vn -0.7598 -0.6502 0.001
vn -0.6823 -0.7309 -0.0157
vn -0.6931 -0.7204 -0.0266
vn -0.6949 -0.7182 0.0375
vn -0.6955 -0.7183 -0.0195
vn -0.6865 -0.7268 -0.0216
vn -0.6874 -0.7263 -0.0029
vn -0.6904 -0.7233 -0.0134
vn -0.8143 -0.5802 -0.017
vn -0.7096 -0.704 0.0305
vn -0.6854 -0.7281 -0.0074
vn -0.6884 -0.7253 -0.009
vn -0.7156 -0.6982 0.0221
vn -0.6868 -0.7268 -0.0122
vn -0.6879 -0.7258 -0.0074
vn -0.7112 -0.7021 0.0344
vn -0.7001 -0.7139 0.0122
vn -0.6876 -0.726 -0.0031
vn -0.7048 -0.7092 0.0196
vn -0.6841 -0.7294 0.0041
vn -0.6812 -0.7321 -0.0034
vn -0.6867 -0.7269 0.0011
vn -0.6842 -0.7293 0.0003
vn -0.6874 -0.7263 0.0098
vn -0.6998 -0.714 0.0208
vn -0.7178 -0.6959 -0.0213
vn -0.6862 -0.7273 0.0159
vn -0.7044 -0.7097 0.0145
vn -0.7179 -0.6917 0.0785
vn -0.6895 -0.7242 0.0099
vn -0.6977 -0.7159 0.0258
vn -0.6824 -0.7309 0.0044
vn -0.6446 -0.7643 -0.0199
vn -0.7161 -0.6973 0.0302
vn -0.6804 -0.7329 0.0006
vn -0.7048 -0.709 0.0239
vn -0.6835 -0.7294 0.0273
vn 0.7069 -0.7051 0.0554
vn 0.7058 -0.7064 0.0528
vn -0.5411 -0.4381 0.7179
vn -0.3215 -0.6946 0.6436
vn -0.3264 -0.6695 0.6672
vn -0.3666 -0.6124 0.7004
vn -0.4988 -0.5278 0.6875
vn -0.4297 -0.5638 0.7053
vn -0.5011 -0.5168 0.6941
vn -0.6081 -0.3685 0.7031
vn -0.6899 -0.3298 0.6444
vn -0.6687 -0.3316 0.6655
vn 0.5518 0.4429 0.7067
vn 0.6072 0.3694 0.7035
vn 0.6814 0.3311 0.6527
vn 0.6875 0.3112 0.6561
vn 0.5279 0.502 0.685
vn -0.706 0.7063 0.0525
vn -0.7062 0.706 0.0537
vn -0.3648 -0.195 0.9104
vn 0.7059 -0.7062 0.054
vn 0.7063 -0.706 0.0525
vn -0.713 -0.7009 0.0179
vn -0.7005 -0.7124 0.0421
vn -0.7129 -0.7005 0.0318
vn -0.7146 -0.6989 0.0315
vn -0.7088 -0.7052 0.0176
vn -0.7279 -0.6846 0.038
vn -0.6761 -0.7352 0.0484
vn -0.7023 -0.711 0.0345
vn -0.7038 -0.7098 0.0294
vn -0.7108 -0.7022 0.0407
vn -0.7079 -0.7058 0.0269
vn -0.6985 -0.7152 0.0248
vn -0.6941 -0.7197 0.016
vn -0.672 0.6586 0.3385
vn -0.6609 0.5621 0.4973
vn -0.0781 0.0825 -0.9935
vn -0.0449 0.041 -0.9981
vn -0.5455 0.5681 0.6162
vn -0.5059 0.6322 0.5868
vn -0.0197 0.0328 -0.9993
vn -0.136 0.1232 -0.983
vn -0.1898 0.1226 -0.9741
vn -0.5572 0.4726 0.6827
vn -0.2181 0.2486 -0.9437
vn -0.412 0.4185 0.8094
vn -0.3497 0.2507 -0.9027
vn -0.4438 0.3107 -0.8405
vn -0.4381 0.4848 -0.757
vn -0.4991 0.4585 -0.7353
vn -0.336 0.3423 0.8775
vn -0.5112 0.3565 0.782
vn -0.4005 0.3959 0.8264
vn -0.4421 0.4414 0.7808
vn -0.4269 0.424 0.7987
vn -0.3958 0.3314 0.8565
vn -0.6411 0.5 -0.5822
vn -0.6003 0.6633 -0.4468
vn -0.3196 0.1683 0.9325
vn -0.6494 0.6335 -0.4206
vn -0.7498 0.6106 -0.2547
vn -0.1116 0.1018 0.9885
vn -0.0968 0.1048 0.9898
vn -0.7251 0.6749 -0.1371
vn -0.659 0.749 -0.0679
vn -0.0745 -0.0067 0.9972
vn -0.2765 0.2339 -0.9321
vn -0.3055 0.3031 0.9027
vn -0.7497 0.6613 0.0242
vn -0.7549 0.6289 0.1861
vn -0.6456 0.6996 0.3064
vn -0.7272 -0.6859 -0.0261
vn -0.7229 -0.6905 -0.0252
vn -0.7304 -0.6827 -0.0226
vn -0.7288 -0.6843 -0.0228
vn -0.7178 -0.6951 -0.0392
vn -0.719 -0.6944 -0.0296
vn -0.7327 -0.6803 -0.017
vn -0.733 -0.68 -0.0168
vn -0.7198 -0.6931 -0.0401
vn -0.7166 -0.6963 -0.0409
vn -0.7156 -0.6974 -0.0381
vn -0.7125 -0.7004 -0.0412
vn -0.7342 -0.6788 -0.0097
vn -0.7353 -0.6777 -0.0091
vn -0.7103 -0.7027 -0.0402
vn -0.7104 -0.7026 -0.0401
vn -0.7372 -0.6757 -0.0031
vn -0.7076 -0.7055 -0.0394
vn -0.7387 -0.674 0.0027
vn -0.7368 -0.6761 -0.0005
vn -0.7053 -0.708 -0.0366
vn -0.7387 -0.674 0.0029
vn -0.6931 -0.7198 -0.0399
vn -0.7076 -0.7049 -0.0499
vn -0.7336 -0.6796 0.0076
vn -0.7007 -0.7126 -0.035
vn -0.7316 -0.6813 0.0236
vn -0.6974 -0.7159 -0.0336
vn -0.6861 -0.7265 -0.0395
vn -0.7379 -0.6746 0.018
vn -0.7416 -0.6708 0.0015
vn -0.696 -0.7165 -0.0477
vn -0.7244 -0.6892 0.0143
vn -0.6925 -0.7207 -0.0324
vn -0.723 -0.6906 0.02
vn -0.6869 -0.7261 -0.0301
vn -0.7236 -0.6899 0.0196
vn -0.6894 -0.7233 -0.0387
vn -0.6907 -0.7227 -0.0245
vn -0.7222 -0.6913 0.0237
vn -0.7229 -0.6898 0.0395
vn -0.6894 -0.7241 -0.0203
vn -0.725 -0.6879 0.0331
vn -0.6923 -0.7213 -0.0219
vn -0.7216 -0.6915 0.0345
vn -0.6904 -0.7233 -0.0133
vn -0.7196 -0.6931 0.0417
vn -0.6705 -0.7419 0.0015
vn -0.6748 -0.7378 -0.0179
vn -0.6836 -0.7294 -0.0254
vn -0.7159 -0.6974 0.0336
vn -0.7221 -0.6906 0.0394
vn -0.7123 -0.7011 0.033
vn -0.6783 -0.7347 -0.0113
vn -0.6787 -0.7344 -0.0078
vn -0.6739 -0.7388 -0.0017
vn -0.7088 -0.7044 0.0368
vn -0.708 -0.7053 0.0366
vn -0.7056 -0.7076 0.0395
vn -0.6737 -0.739 -0.0003
vn -0.6745 -0.7383 0.0005
vn -0.7034 -0.7097 0.0399
vn -0.7028 -0.7103 0.0394
vn -0.6777 -0.7353 0.0091
vn -0.6751 -0.7377 0.0075
vn -0.6974 -0.7156 0.0381
vn -0.6999 -0.713 0.0407
vn -0.6932 -0.7196 0.04
vn -0.68 -0.733 0.0168
vn -0.6804 -0.7327 0.017
vn -0.6963 -0.7166 0.0408
vn -0.6935 -0.7198 0.0318
vn -0.6939 -0.7191 0.0372
vn -0.6847 -0.7285 0.0225
vn -0.6826 -0.7304 0.0222
vn -0.6893 -0.724 0.0271
vn -0.6871 -0.726 0.0275
f 1//1 2//1 3//1
f 4//2 5//2 6//2
f 7//3 8//3 9//3
f 9//4 8//4 10//4
f 8//5 11//5 10//5
f 11//6 12//6 10//6
f 11//7 13//7 12//7
f 14//8 15//8 16//8
f 13//9 17//9 12//9
f 15//10 18//10 16//10
f 13//11 19//11 17//11
f 19//12 20//12 17//12
f 15//13 21//13 18//13
f 19//14 22//14 20//14
f 19//15 23//15 22//15
f 21//16 24//16 18//16
f 23//17 25//17 22//17
f 23//18 26//18 25//18
f 26//19 27//19 25//19
f 26//20 28//20 27//20
f 28//21 29//21 27//21
f 24//22 30//22 18//22
f 28//23 31//23 29//23
f 28//24 32//24 31//24
f 32//25 33//25 31//25
f 30//26 34//26 35//26
f 35//27 34//27 36//27
f 33//28 37//28 31//28
f 36//29 34//29 38//29
f 34//30 39//30 38//30
f 38//31 39//31 40//31
f 34//32 41//32 39//32
f 34//33 42//33 41//33
f 34//34 43//34 42//34
f 33//35 44//35 37//35
f 43//36 45//36 42//36
f 46//37 47//37 48//37
f 33//38 49//38 44//38
f 43//39 50//39 45//39
f 45//40 50//40 51//40
f 46//41 52//41 47//41
f 49//42 52//42 53//42
f 53//43 52//43 46//43
f 52//44 54//44 47//44
f 50//45 55//45 51//45
f 51//46 55//46 56//46
f 54//47 57//47 47//47
f 35//48 18//48 30//48
f 53//49 44//49 49//49
f 56//50 55//50 58//50
f 55//51 7//51 58//51
f 58//52 7//52 59//52
f 59//53 7//53 9//53
f 60//54 61//54 62//54
f 60//55 63//55 61//55
f 64//56 63//56 65//56
f 65//57 63//57 60//57
f 66//58 63//58 64//58
f 67//59 68//59 69//59
f 70//60 71//60 72//60
f 68//61 71//61 70//61
f 73//62 74//62 75//62
f 76//63 74//63 73//63
f 71//64 77//64 72//64
f 75//65 74//65 78//65
f 74//66 79//66 78//66
f 72//67 77//67 80//67
f 78//68 79//68 81//68
f 79//69 82//69 81//69
f 77//70 83//70 80//70
f 81//71 82//71 84//71
f 80//72 83//72 85//72
f 84//73 67//73 69//73
f 82//74 67//74 84//74
f 83//75 86//75 85//75
f 85//76 86//76 87//76
f 69//77 68//77 70//77
f 88//78 89//78 84//78
f 90//79 91//79 85//79
f 84//80 89//80 92//80
f 89//81 93//81 92//81
f 85//82 91//82 94//82
f 91//83 95//83 94//83
f 92//84 93//84 78//84
f 78//85 96//85 75//85
f 93//86 96//86 78//86
f 94//87 95//87 72//87
f 95//88 97//88 72//88
f 72//89 97//89 98//89
f 75//90 99//90 100//90
f 96//91 99//91 75//91
f 98//92 97//92 101//92
f 99//93 102//93 100//93
f 97//94 103//94 101//94
f 101//95 103//95 88//95
f 103//96 89//96 88//96
f 104//97 105//97 106//97
f 105//98 107//98 106//98
f 106//99 107//99 108//99
f 107//100 109//100 108//100
f 108//101 109//101 110//101
f 110//102 111//102 112//102
f 113//103 104//103 114//103
f 114//104 104//104 115//104
f 104//105 106//105 115//105
f 106//106 116//106 115//106
f 106//107 108//107 116//107
f 116//108 108//108 117//108
f 108//109 118//109 117//109
f 118//110 110//110 112//110
f 108//111 110//111 118//111
f 119//112 120//112 121//112
f 122//113 120//113 119//113
f 121//114 120//114 123//114
f 123//115 124//115 6//115
f 120//116 124//116 123//116
f 6//117 125//117 4//117
f 124//118 125//118 6//118
f 4//119 125//119 5//119
f 62//120 126//120 60//120
f 127//121 126//121 62//121
f 126//122 128//122 60//122
f 60//123 129//123 65//123
f 128//124 129//124 60//124
f 65//125 130//125 64//125
f 129//126 130//126 65//126
f 64//127 131//127 66//127
f 130//128 131//128 64//128
f 66//129 131//129 132//129
f 132//130 3//130 133//130
f 131//131 3//131 132//131
f 3//132 2//132 133//132
f 2//133 1//133 133//133
f 133//134 134//134 135//134
f 1//135 134//135 133//135
f 136//136 137//136 138//136
f 139//137 140//137 141//137
f 142//138 143//138 144//138
f 143//139 145//139 144//139
f 144//140 145//140 146//140
f 147//141 148//141 149//141
f 149//142 148//142 150//142
f 145//143 136//143 146//143
f 136//144 138//144 146//144
f 146//145 138//145 151//145
f 148//146 141//146 150//146
f 138//147 152//147 151//147
f 150//148 140//148 153//148
f 141//149 140//149 150//149
f 140//150 139//150 153//150
f 139//151 154//151 153//151
f 153//152 155//152 156//152
f 154//153 155//153 153//153
f 155//154 157//154 156//154
f 156//155 158//155 159//155
f 157//156 158//156 156//156
f 158//157 160//157 159//157
f 160//158 161//158 159//158
f 159//159 162//159 163//159
f 161//160 162//160 159//160
f 162//161 164//161 163//161
f 164//162 165//162 163//162
f 165//163 166//163 163//163
f 163//164 166//164 167//164
f 166//165 168//165 167//165
f 167//166 168//166 169//166
f 168//167 170//167 169//167
f 170//168 171//168 169//168
f 169//169 171//169 172//169
f 171//170 173//170 172//170
f 173//171 142//171 172//171
f 172//172 142//172 144//172
f 174//173 175//173 151//173
f 152//174 174//174 151//174
f 166//175 176//175 168//175
f 176//176 177//176 168//176
f 168//177 177//177 170//177
f 170//178 177//178 171//178
f 171//179 177//179 173//179
f 173//180 177//180 142//180
f 177//181 143//181 142//181
f 177//182 178//182 143//182
f 178//183 145//183 143//183
f 155//184 179//184 157//184
f 178//185 136//185 145//185
f 157//186 179//186 158//186
f 178//187 137//187 136//187
f 154//188 180//188 155//188
f 155//189 180//189 179//189
f 178//190 174//190 137//190
f 158//191 179//191 160//191
f 174//192 138//192 137//192
f 139//193 180//193 154//193
f 138//194 174//194 152//194
f 160//195 179//195 161//195
f 141//196 180//196 139//196
f 161//197 176//197 162//197
f 162//198 176//198 164//198
f 179//199 176//199 161//199
f 148//200 180//200 141//200
f 164//201 176//201 165//201
f 147//202 181//202 148//202
f 148//203 181//203 180//203
f 165//204 176//204 166//204
f 182//205 181//205 149//205
f 181//206 147//206 149//206
f 144//207 183//207 172//207
f 149//208 150//208 182//208
f 156//209 184//209 153//209
f 184//210 156//210 185//210
f 185//211 159//211 186//211
f 159//212 163//212 186//212
f 167//213 186//213 163//213
f 169//214 187//214 167//214
f 167//215 187//215 186//215
f 187//216 172//216 183//216
f 169//217 172//217 187//217
f 146//218 183//218 144//218
f 183//219 151//219 175//219
f 146//220 151//220 183//220
f 153//221 182//221 150//221
f 182//222 153//222 184//222
f 159//223 185//223 156//223
f 185//224 188//224 189//224
f 190//225 182//225 184//225
f 191//226 192//226 182//226
f 193//227 175//227 194//227
f 193//228 183//228 175//228
f 195//229 183//229 193//229
f 196//230 183//230 195//230
f 183//231 196//231 187//231
f 197//232 187//232 198//232
f 199//233 186//233 197//233
f 197//234 186//234 187//234
f 188//235 186//235 199//235
f 188//236 185//236 186//236
f 200//237 185//237 189//237
f 185//238 200//238 184//238
f 201//239 184//239 200//239
f 201//240 190//240 184//240
f 191//241 182//241 190//241
f 187//242 196//242 198//242
f 202//243 195//243 203//243
f 195//244 193//244 203//244
f 203//245 193//245 204//245
f 204//246 193//246 205//246
f 192//247 191//247 206//247
f 206//248 191//248 207//248
f 207//249 191//249 208//249
f 193//250 194//250 205//250
f 208//251 191//251 209//251
f 209//252 190//252 210//252
f 191//253 190//253 209//253
f 210//254 190//254 211//254
f 211//255 201//255 212//255
f 190//256 201//256 211//256
f 212//257 200//257 213//257
f 201//258 200//258 212//258
f 213//259 200//259 214//259
f 214//260 189//260 215//260
f 200//261 189//261 214//261
f 215//262 189//262 216//262
f 216//263 188//263 217//263
f 189//264 188//264 216//264
f 217//265 188//265 218//265
f 188//266 199//266 218//266
f 218//267 199//267 219//267
f 219//268 199//268 220//268
f 199//269 197//269 220//269
f 220//270 197//270 221//270
f 197//271 198//271 221//271
f 221//272 198//272 222//272
f 198//273 196//273 222//273
f 222//274 196//274 223//274
f 223//275 196//275 202//275
f 196//276 195//276 202//276
f 204//277 224//277 203//277
f 204//278 205//278 224//278
f 225//279 211//279 212//279
f 212//280 213//280 225//280
f 222//281 226//281 221//281
f 222//282 223//282 226//282
f 203//283 227//283 202//283
f 223//284 227//284 226//284
f 211//285 225//285 210//285
f 221//286 226//286 220//286
f 227//287 223//287 202//287
f 228//288 192//288 206//288
f 228//289 182//289 192//289
f 194//290 229//290 205//290
f 175//291 229//291 194//291
f 230//292 122//292 119//292
f 230//293 61//293 122//293
f 5//294 231//294 232//294
f 125//295 231//295 5//295
f 232//296 233//296 234//296
f 231//297 233//297 232//297
f 233//298 235//298 234//298
f 234//299 236//299 237//299
f 235//300 236//300 234//300
f 232//301 238//301 5//301
f 234//302 238//302 232//302
f 239//303 240//303 241//303
f 240//304 242//304 241//304
f 241//305 242//305 243//305
f 243//306 242//306 244//306
f 245//307 246//307 247//307
f 247//308 246//308 248//308
f 242//309 249//309 244//309
f 244//310 249//310 250//310
f 248//311 246//311 251//311
f 251//312 252//312 253//312
f 246//313 252//313 251//313
f 253//314 252//314 254//314
f 254//315 255//315 256//315
f 252//316 255//316 254//316
f 256//317 255//317 257//317
f 257//318 255//318 258//318
f 258//319 259//319 260//319
f 255//320 259//320 258//320
f 260//321 259//321 261//321
f 261//322 262//322 263//322
f 259//323 262//323 261//323
f 263//324 262//324 264//324
f 264//325 262//325 265//325
f 262//326 266//326 265//326
f 265//327 266//327 267//327
f 266//328 268//328 267//328
f 267//329 268//329 269//329
f 269//330 268//330 270//330
f 268//331 240//331 270//331
f 270//332 240//332 271//332
f 271//333 240//333 239//333
f 272//334 273//334 274//334
f 273//335 275//335 274//335
f 276//336 277//336 278//336
f 274//337 279//337 280//337
f 278//338 277//338 281//338
f 275//339 279//339 274//339
f 277//340 282//340 281//340
f 281//341 283//341 284//341
f 282//342 283//342 281//342
f 283//343 285//343 284//343
f 284//344 286//344 287//344
f 285//345 286//345 284//345
f 287//346 288//346 289//346
f 286//347 288//347 287//347
f 288//348 290//348 289//348
f 289//349 291//349 292//349
f 290//350 291//350 289//350
f 291//351 293//351 292//351
f 292//352 294//352 295//352
f 293//353 294//353 292//353
f 294//354 296//354 295//354
f 296//355 297//355 295//355
f 295//356 297//356 298//356
f 297//357 299//357 298//357
f 299//358 300//358 298//358
f 298//359 300//359 301//359
f 300//360 302//360 301//360
f 302//361 303//361 301//361
f 301//362 303//362 304//362
f 303//363 305//363 304//363
f 305//364 306//364 304//364
f 304//365 306//365 307//365
f 306//366 308//366 307//366
f 307//367 272//367 274//367
f 308//368 272//368 307//368
f 288//369 286//369 285//369
f 294//370 293//370 291//370
f 279//371 275//371 273//371
f 308//372 306//372 305//372
f 276//373 282//373 277//373
f 283//374 282//374 276//374
f 291//375 290//375 288//375
f 299//376 302//376 300//376
f 294//377 297//377 296//377
f 299//378 297//378 294//378
f 56//379 309//379 310//379
f 58//380 309//380 56//380
f 59//381 309//381 58//381
f 56//382 310//382 51//382
f 9//383 309//383 59//383
f 22//384 25//384 20//384
f 51//385 310//385 45//385
f 311//386 27//386 29//386
f 312//387 29//387 31//387
f 309//388 285//388 310//388
f 273//389 44//389 279//389
f 288//390 285//390 309//390
f 279//391 44//391 53//391
f 272//392 37//392 273//392
f 273//393 37//393 44//393
f 285//394 283//394 310//394
f 272//395 31//395 37//395
f 272//396 308//396 31//396
f 310//397 276//397 45//397
f 308//398 312//398 31//398
f 283//399 276//399 310//399
f 308//400 305//400 312//400
f 45//401 276//401 42//401
f 305//402 29//402 312//402
f 42//403 276//403 41//403
f 305//404 311//404 29//404
f 305//405 303//405 311//405
f 303//406 27//406 311//406
f 303//407 302//407 27//407
f 27//408 299//408 25//408
f 302//409 299//409 27//409
f 25//410 299//410 20//410
f 20//411 299//411 17//411
f 299//412 294//412 17//412
f 17//413 294//413 12//413
f 12//414 294//414 10//414
f 10//415 294//415 9//415
f 294//416 291//416 9//416
f 9//417 291//417 309//417
f 291//418 288//418 309//418
f 280//419 53//419 46//419
f 279//420 53//420 280//420
f 41//421 278//421 39//421
f 41//422 276//422 278//422
f 313//423 314//423 307//423
f 39//424 278//424 315//424
f 281//425 315//425 278//425
f 284//426 316//426 281//426
f 281//427 316//427 315//427
f 316//428 287//428 317//428
f 284//429 287//429 316//429
f 289//430 317//430 287//430
f 292//431 317//431 289//431
f 295//432 318//432 292//432
f 292//433 318//433 317//433
f 318//434 298//434 319//434
f 295//435 298//435 318//435
f 301//436 319//436 298//436
f 319//437 301//437 314//437
f 304//438 314//438 301//438
f 307//439 314//439 304//439
f 274//440 313//440 307//440
f 46//441 313//441 280//441
f 280//442 313//442 274//442
f 266//443 262//443 319//443
f 318//444 259//444 317//444
f 252//445 316//445 255//445
f 46//446 249//446 313//446
f 242//447 313//447 249//447
f 314//448 268//448 319//448
f 240//449 268//449 314//449
f 266//450 319//450 268//450
f 319//451 262//451 318//451
f 262//452 259//452 318//452
f 255//453 317//453 259//453
f 317//454 255//454 316//454
f 246//455 316//455 252//455
f 316//456 246//456 315//456
f 39//457 315//457 245//457
f 245//458 315//458 246//458
f 314//459 313//459 240//459
f 242//460 240//460 313//460
f 250//461 249//461 48//461
f 249//462 46//462 48//462
f 320//463 258//463 260//463
f 321//464 263//464 264//464
f 271//465 239//465 270//465
f 257//466 254//466 256//466
f 243//467 239//467 241//467
f 245//468 247//468 40//468
f 39//468 245//468 40//468
f 322//469 323//469 324//469
f 325//470 323//470 322//470
f 111//471 326//471 327//471
f 110//472 326//472 111//472
f 323//473 328//473 324//473
f 327//474 326//474 329//474
f 326//475 330//475 329//475
f 331//476 330//476 326//476
f 330//477 331//477 332//477
f 331//478 333//478 332//478
f 325//479 333//479 331//479
f 333//480 325//480 334//480
f 334//481 325//481 322//481
f 110//482 109//482 326//482
f 109//483 335//483 326//483
f 326//484 335//484 331//484
f 335//485 336//485 331//485
f 331//486 336//486 325//486
f 336//487 337//487 325//487
f 325//488 337//488 323//488
f 338//489 339//489 340//489
f 337//490 328//490 323//490
f 337//491 340//491 328//491
f 337//492 338//492 340//492
f 339//493 341//493 340//493
f 342//494 343//494 344//494
f 339//495 345//495 341//495
f 345//496 339//496 346//496
f 339//497 347//497 346//497
f 347//498 348//498 346//498
f 348//499 349//499 350//499
f 347//500 349//500 348//500
f 349//501 351//501 350//501
f 351//502 349//502 352//502
f 349//503 353//503 352//503
f 354//504 353//504 349//504
f 353//505 354//505 355//505
f 355//506 354//506 356//506
f 357//507 356//507 354//507
f 356//508 357//508 358//508
f 357//509 342//509 358//509
f 358//510 342//510 359//510
f 359//511 342//511 344//511
f 360//512 361//512 342//512
f 339//513 362//513 347//513
f 338//514 362//514 339//514
f 347//515 362//515 349//515
f 362//516 363//516 349//516
f 349//517 363//517 354//517
f 363//518 364//518 354//518
f 354//519 364//519 357//519
f 364//520 360//520 357//520
f 357//521 360//521 342//521
f 105//522 104//522 113//522
f 361//523 343//523 342//523
f 361//524 113//524 343//524
f 361//525 105//525 113//525
f 107//526 105//526 365//526
f 365//526 105//526 366//526
f 366//526 105//526 367//526
f 368//526 107//526 365//526
f 368//526 109//526 107//526
f 102//526 109//526 368//526
f 102//526 335//526 109//526
f 99//526 335//526 102//526
f 99//526 336//526 335//526
f 96//526 336//526 99//526
f 105//526 361//526 367//526
f 369//526 361//526 370//526
f 367//526 361//526 369//526
f 96//526 93//526 336//526
f 361//526 360//526 370//526
f 93//526 337//526 336//526
f 360//526 371//526 370//526
f 93//526 89//526 337//526
f 364//526 371//526 360//526
f 364//526 90//526 371//526
f 89//526 103//526 337//526
f 363//526 90//526 364//526
f 337//526 103//526 338//526
f 363//526 91//526 90//526
f 362//526 91//526 363//526
f 362//526 95//526 91//526
f 103//526 97//526 338//526
f 362//526 97//526 95//526
f 338//526 97//526 362//526
f 372//527 367//527 373//527
f 367//528 369//528 373//528
f 100//529 102//529 374//529
f 102//530 368//530 374//530
f 373//531 370//531 375//531
f 369//532 370//532 373//532
f 374//533 368//533 376//533
f 368//534 365//534 376//534
f 375//535 370//535 377//535
f 376//536 365//536 378//536
f 370//537 371//537 377//537
f 377//538 371//538 379//538
f 378//539 366//539 380//539
f 365//540 366//540 378//540
f 379//541 90//541 381//541
f 371//542 90//542 379//542
f 380//543 367//543 372//543
f 366//544 367//544 380//544
f 381//545 90//545 85//545
f 378//526 380//526 382//526
f 383//526 374//526 376//526
f 380//546 384//546 382//546
f 380//547 372//547 384//547
f 383//548 100//548 374//548
f 73//526 100//526 383//526
f 384//526 373//526 385//526
f 372//526 373//526 384//526
f 75//549 100//549 73//549
f 373//546 375//546 385//546
f 81//526 92//526 78//526
f 377//526 379//526 386//526
f 81//526 84//526 92//526
f 379//526 381//526 386//526
f 69//526 88//526 84//526
f 381//550 87//550 386//550
f 69//526 70//526 88//526
f 85//526 87//526 381//526
f 70//526 101//526 88//526
f 85//526 94//526 80//526
f 70//526 72//526 101//526
f 101//526 72//526 98//526
f 72//526 80//526 94//526
f 384//551 387//551 382//551
f 86//552 388//552 87//552
f 387//553 389//553 382//553
f 87//554 388//554 386//554
f 382//555 389//555 378//555
f 389//556 390//556 378//556
f 388//557 391//557 386//557
f 390//558 392//558 378//558
f 378//559 392//559 376//559
f 386//560 391//560 377//560
f 376//561 392//561 383//561
f 377//562 393//562 375//562
f 391//563 393//563 377//563
f 392//564 76//564 383//564
f 375//565 393//565 385//565
f 383//566 76//566 73//566
f 393//567 394//567 385//567
f 385//568 394//568 384//568
f 394//569 387//569 384//569
f 225//570 213//570 391//570
f 391//571 213//571 393//571
f 391//572 210//572 225//572
f 213//573 214//573 393//573
f 388//574 209//574 391//574
f 391//575 209//575 210//575
f 214//576 215//576 393//576
f 388//577 208//577 209//577
f 393//578 216//578 394//578
f 215//579 216//579 393//579
f 388//580 207//580 208//580
f 216//581 217//581 394//581
f 388//582 206//582 207//582
f 217//583 218//583 394//583
f 218//584 219//584 394//584
f 219//585 220//585 394//585
f 394//586 220//586 387//586
f 388//587 47//587 206//587
f 206//588 47//588 228//588
f 220//589 226//589 387//589
f 86//590 47//590 388//590
f 83//591 250//591 86//591
f 250//592 47//592 86//592
f 83//593 244//593 250//593
f 226//594 227//594 387//594
f 227//595 389//595 387//595
f 250//596 48//596 47//596
f 83//597 243//597 244//597
f 83//598 77//598 243//598
f 77//599 239//599 243//599
f 227//600 203//600 389//600
f 203//601 224//601 389//601
f 77//602 270//602 239//602
f 224//603 390//603 389//603
f 224//604 205//604 390//604
f 270//605 77//605 269//605
f 229//606 230//606 205//606
f 230//607 390//607 205//607
f 77//608 267//608 269//608
f 77//609 71//609 267//609
f 230//590 392//590 390//590
f 71//610 265//610 267//610
f 71//611 264//611 265//611
f 230//612 119//612 392//612
f 119//613 121//613 392//613
f 71//614 321//614 264//614
f 71//615 68//615 321//615
f 121//616 123//616 392//616
f 321//617 68//617 263//617
f 263//618 68//618 261//618
f 123//619 76//619 392//619
f 6//620 76//620 123//620
f 261//621 68//621 260//621
f 5//622 76//622 6//622
f 260//623 68//623 320//623
f 320//624 67//624 258//624
f 68//625 67//625 320//625
f 258//626 67//626 257//626
f 257//627 67//627 254//627
f 238//628 76//628 5//628
f 40//629 247//629 38//629
f 254//630 67//630 253//630
f 238//631 74//631 76//631
f 234//632 74//632 238//632
f 67//633 82//633 253//633
f 237//634 74//634 234//634
f 253//635 82//635 251//635
f 38//636 74//636 237//636
f 247//637 79//637 38//637
f 38//590 79//590 74//590
f 251//638 82//638 248//638
f 248//639 79//639 247//639
f 82//640 79//640 248//640
f 237//641 236//641 38//641
f 236//642 36//642 38//642
f 125//643 124//643 63//643
f 36//644 236//644 395//644
f 235//645 395//645 236//645
f 235//646 233//646 395//646
f 395//647 231//647 63//647
f 233//648 231//648 395//648
f 125//649 63//649 231//649
f 120//650 63//650 124//650
f 63//651 122//651 61//651
f 120//652 122//652 63//652
f 132//653 395//653 66//653
f 133//654 395//654 132//654
f 135//655 36//655 133//655
f 133//656 36//656 395//656
f 63//657 66//657 395//657
f 61//658 396//658 62//658
f 396//659 127//659 62//659
f 129//660 397//660 130//660
f 134//661 35//661 135//661
f 135//662 35//662 36//662
f 398//663 127//663 396//663
f 398//664 126//664 127//664
f 398//665 128//665 126//665
f 398//666 129//666 128//666
f 16//667 397//667 398//667
f 398//668 397//668 129//668
f 16//669 130//669 397//669
f 16//670 131//670 130//670
f 18//671 3//671 16//671
f 16//672 3//672 131//672
f 18//673 1//673 3//673
f 35//674 134//674 18//674
f 18//675 134//675 1//675
f 399//676 400//676 178//676
f 400//677 401//677 178//677
f 47//678 402//678 228//678
f 57//679 402//679 47//679
f 401//680 174//680 178//680
f 401//681 403//681 174//681
f 228//682 402//682 182//682
f 402//683 181//683 182//683
f 402//684 404//684 181//684
f 403//685 405//685 174//685
f 404//686 406//686 180//686
f 175//687 230//687 229//687
f 406//688 407//688 180//688
f 407//689 408//689 180//689
f 408//690 179//690 180//690
f 408//691 409//691 179//691
f 174//692 410//692 175//692
f 405//693 410//693 174//693
f 175//694 410//694 230//694
f 230//695 410//695 61//695
f 410//696 396//696 61//696
f 410//697 411//697 396//697
f 409//698 412//698 179//698
f 412//699 176//699 179//699
f 411//700 413//700 398//700
f 412//701 414//701 176//701
f 414//702 415//702 176//702
f 413//703 416//703 398//703
f 398//704 416//704 16//704
f 415//705 417//705 176//705
f 417//706 177//706 176//706
f 416//707 14//707 16//707
f 180//708 181//708 404//708
f 398//709 396//709 411//709
f 417//710 418//710 177//710
f 418//711 399//711 177//711
f 399//712 178//712 177//712
f 408//713 419//713 409//713
f 408//714 420//714 419//714
f 409//715 421//715 412//715
f 419//716 421//716 409//716
f 407//717 422//717 408//717
f 408//718 422//718 420//718
f 412//719 423//719 414//719
f 421//720 423//720 412//720
f 404//721 422//721 406//721
f 406//722 422//722 407//722
f 404//723 424//723 422//723
f 402//724 424//724 404//724
f 414//725 425//725 415//725
f 423//726 425//726 414//726
f 402//727 426//727 424//727
f 57//728 426//728 402//728
f 415//729 425//729 417//729
f 54//730 426//730 57//730
f 417//731 427//731 418//731
f 425//732 427//732 417//732
f 54//733 428//733 426//733
f 418//734 427//734 399//734
f 52//735 428//735 54//735
f 52//736 49//736 428//736
f 427//737 429//737 399//737
f 49//738 430//738 428//738
f 429//739 400//739 399//739
f 49//740 431//740 430//740
f 49//741 33//741 431//741
f 429//742 432//742 400//742
f 432//743 401//743 400//743
f 33//744 32//744 431//744
f 432//745 433//745 401//745
f 32//746 434//746 431//746
f 433//747 403//747 401//747
f 28//748 434//748 32//748
f 433//749 435//749 403//749
f 28//750 26//750 434//750
f 26//751 436//751 434//751
f 435//752 437//752 403//752
f 437//753 405//753 403//753
f 26//754 438//754 436//754
f 437//755 410//755 405//755
f 26//756 23//756 438//756
f 437//757 439//757 410//757
f 23//758 440//758 438//758
f 439//759 411//759 410//759
f 23//760 19//760 440//760
f 19//761 441//761 440//761
f 19//762 13//762 441//762
f 442//763 413//763 439//763
f 439//764 413//764 411//764
f 442//765 443//765 413//765
f 13//766 11//766 441//766
f 441//767 11//767 444//767
f 11//768 8//768 444//768
f 443//769 416//769 413//769
f 445//770 416//770 443//770
f 445//771 14//771 416//771
f 8//772 7//772 444//772
f 444//773 7//773 446//773
f 445//774 15//774 14//774
f 447//775 15//775 445//775
f 446//776 55//776 448//776
f 7//777 55//777 446//777
f 449//778 21//778 447//778
f 447//779 21//779 15//779
f 449//780 24//780 21//780
f 448//781 50//781 450//781
f 55//782 50//782 448//782
f 449//783 30//783 24//783
f 451//784 34//784 449//784
f 449//785 34//785 30//785
f 450//786 43//786 452//786
f 50//787 43//787 450//787
f 452//788 34//788 451//788
f 452//789 43//789 34//789