o obj1
v -0.014283 0.105922 -0.093348
v -0.014279 0.105328 -0.096663
v -0.01487 0.105229 -0.096646
v -0.015456 0.105125 -0.096629
v -0.01546 0.105969 -0.09193
v -0.012634 0.106173 -0.09339
v -0.012047 0.105746 -0.096266
v -0.012631 0.105664 -0.096252
v -0.013876 0.106235 -0.091974
v -0.013467 0.106051 -0.09337
v -0.011456 0.106332 -0.093416
v -0.011453 0.105825 -0.096279
v -0.012287 0.106467 -0.092013
v -0.010395 0.106705 -0.092053
v -0.009978 0.10651 -0.093446
v -0.008498 0.106908 -0.092087
v -0.008497 0.106668 -0.093473
v -0.010743 0.105016 -0.101393
v -0.011567 0.104767 -0.102165
v -0.010954 0.105017 -0.101227
v -0.011703 0.104649 -0.102727
v -0.012771 0.104569 -0.102279
v -0.012689 0.1046 -0.102178
v -0.012654 0.104615 -0.102122
v -0.0137 0.104389 -0.102458
v -0.014317 0.104054 -0.10375
v -0.0138 0.10438 -0.10242
v -0.011801 0.104593 -0.102964
v -0.011477 0.104754 -0.102312
v -0.013844 0.10411 -0.103893
v -0.014066 0.104081 -0.103842
v -0.014226 0.1044 -0.101904
v -0.014191 0.104387 -0.102007
v -0.015396 0.104132 -0.102235
v -0.01128 0.105043 -0.100836
v -0.0112 0.10503 -0.100966
v -0.012516 0.104813 -0.101128
v -0.015434 0.104192 -0.101862
v -0.013749 0.105121 -0.098313
v -0.012513 0.105062 -0.099729
v -0.013405 0.104928 -0.099706
v -0.014281 0.104788 -0.099682
v -0.011625 0.104706 -0.102465
v -0.012625 0.104631 -0.102062
v -0.015459 0.104831 -0.098264
v -0.0126 0.104646 -0.101999
v -0.013596 0.104402 -0.102484
v -0.011331 0.105058 -0.100707
v -0.012513 0.10488 -0.100754
v -0.014256 0.104418 -0.101773
v -0.01428 0.104594 -0.100763
v -0.015458 0.104309 -0.101178
v -0.01038 0.105017 -0.101654
v -0.013506 0.104414 -0.102497
v -0.011057 0.104718 -0.102846
v -0.01122 0.104727 -0.102668
v -0.011381 0.104742 -0.102456
v -0.013504 0.10416 -0.103927
v -0.011369 0.105081 -0.100548
v -0.014267 0.10444 -0.101642
v -0.015452 0.104249 -0.10152
v -0.010011 0.10502 -0.101908
v -0.013416 0.104428 -0.102503
v -0.010103 0.104716 -0.10357
v -0.010351 0.104713 -0.103404
v -0.010676 0.104711 -0.103173
v -0.010879 0.104712 -0.103012
v -0.011395 0.105121 -0.100305
v -0.013249 0.104202 -0.10392
v -0.014272 0.104462 -0.101511
v -0.011403 0.105167 -0.100034
v -0.013243 0.104457 -0.102495
v -0.012775 0.104293 -0.103828
v -0.012997 0.104248 -0.103887
v -0.013124 0.104224 -0.103908
v -0.008494 0.105019 -0.102938
v -0.008493 0.10473 -0.104595
v -0.009852 0.104719 -0.103731
v -0.013091 0.104486 -0.102465
v -0.012376 0.104389 -0.103633
v -0.012579 0.104338 -0.103748
v -0.011402 0.105217 -0.099753
v -0.012034 0.105376 -0.098356
v -0.014279 0.104514 -0.101212
v -0.012581 0.10466 -0.101933
v -0.012978 0.104512 -0.102424
v -0.012197 0.10444 -0.103495
v -0.012552 0.104696 -0.101755
v -0.01253 0.104744 -0.101502
v -0.012053 0.104488 -0.103349
v -0.010268 0.105605 -0.098394
v -0.00995 0.1054 -0.099784
v -0.012868 0.10454 -0.10236
v -0.014036 0.10437 -0.102251
v -0.01505 0.104026 -0.103182
v -0.015166 0.104037 -0.103003
v -0.008497 0.105806 -0.098427
v -0.008496 0.105565 -0.099812
v -0.011915 0.10454 -0.103167
v -0.012818 0.104555 -0.102322
v -0.013961 0.10437 -0.102321
v -0.014731 0.104026 -0.103504
v -0.014909 0.104022 -0.103346
v -0.014096 0.104373 -0.102178
v -0.015265 0.104057 -0.102787
v -0.015337 0.104087 -0.102548
v -0.013884 0.104373 -0.102376
v -0.014535 0.104037 -0.103638
v -0.014147 0.104379 -0.102097
v -0.011087 0.105021 -0.101104
v -0.013834 0.103309 -0.108395
v -0.013924 0.103053 -0.109745
v -0.015457 0.102896 -0.109096
v -0.015459 0.103156 -0.107632
v -0.012551 0.103427 -0.108898
v -0.012387 0.103187 -0.110392
v -0.01125 0.10353 -0.109405
v -0.010442 0.103323 -0.111204
v -0.013598 0.103601 -0.106972
v -0.012551 0.103592 -0.107969
v -0.010076 0.103607 -0.109875
v -0.009289 0.103651 -0.110189
v -0.008494 0.103424 -0.112013
v -0.008494 0.103691 -0.110506
v -0.011733 0.10401 -0.106303
v -0.011251 0.103862 -0.107534
v -0.010078 0.104091 -0.107134
v -0.010117 0.104335 -0.105719
v -0.009294 0.104236 -0.106869
v -0.008497 0.104378 -0.106599
v -0.008498 0.104635 -0.10513
v -0.013912 0.101491 -0.118559
v -0.015455 0.101224 -0.118514
v -0.015457 0.101451 -0.117227
v -0.013911 0.101719 -0.117272
v -0.012364 0.101733 -0.1186
v -0.012361 0.101963 -0.117313
v -0.010808 0.102183 -0.11735
v -0.010431 0.102003 -0.118645
v -0.013038 0.102368 -0.114428
v -0.012361 0.102129 -0.116376
v -0.013912 0.102051 -0.1154
v -0.015459 0.101948 -0.114421
v -0.011525 0.10243 -0.115386
v -0.013544 0.102516 -0.113129
v -0.01546 0.102187 -0.113074
v -0.010011 0.102469 -0.116342
v -0.008494 0.102487 -0.117295
v -0.008493 0.102239 -0.118684
v -0.011622 0.102807 -0.113178
v -0.010518 0.102731 -0.114489
v -0.011779 0.102557 -0.11446
v -0.010061 0.103018 -0.113213
v -0.008497 0.102978 -0.11453
v -0.008498 0.103206 -0.113245
v -0.014111 0.100257 -0.125281
v -0.015455 0.0998 -0.126523
v -0.015457 0.100135 -0.124661
v -0.01392 0.100644 -0.123314
v -0.012746 0.100705 -0.124015
v -0.015459 0.100875 -0.12048
v -0.014601 0.100781 -0.12189
v -0.015458 0.10063 -0.121864
v -0.011763 0.10102 -0.123085
v -0.011566 0.100733 -0.124798
v -0.012367 0.101135 -0.121949
v -0.01013 0.101061 -0.124062
v -0.010385 0.100745 -0.125578
v -0.013589 0.101194 -0.120534
v -0.013743 0.100924 -0.121914
v -0.008495 0.101077 -0.125036
v -0.008493 0.100738 -0.126824
v -0.010599 0.10138 -0.121989
v -0.011713 0.101477 -0.120581
v -0.010107 0.101692 -0.120617
v -0.009563 0.10151 -0.122011
v -0.008497 0.101885 -0.120649
v -0.008496 0.101634 -0.122032
v -0.013833 0.0993 -0.130587
v -0.013371 0.099067 -0.132166
v -0.015456 0.098913 -0.131293
v -0.015459 0.099185 -0.129831
v -0.012582 0.09939 -0.131073
v -0.01125 0.099472 -0.131589
v -0.011283 0.099189 -0.133034
v -0.013143 0.099708 -0.129004
v -0.012531 0.099575 -0.130152
v -0.010075 0.099532 -0.132056
v -0.008493 0.099315 -0.134187
v -0.008493 0.099602 -0.132684
v -0.011251 0.099835 -0.129723
v -0.010077 0.100064 -0.129323
v -0.011055 0.100146 -0.128252
v -0.009777 0.100399 -0.12779
v -0.008497 0.100358 -0.128789
v -0.008498 0.100641 -0.127325
v -0.006139 0.107035 -0.092658
v -0.006138 0.10669 -0.094668
v -0.006777 0.106633 -0.094658
v -0.006778 0.107108 -0.091897
v -0.004664 0.10716 -0.092678
v -0.004663 0.10684 -0.094549
v -0.0053 0.106787 -0.09454
v -0.0053 0.107107 -0.092669
v -0.005128 0.10725 -0.09192
v -0.003635 0.107244 -0.092691
v -0.002997 0.106937 -0.094782
v -0.003633 0.106887 -0.094773
v -0.002998 0.107423 -0.091948
v -0.005972 0.10604 -0.098531
v -0.006776 0.105846 -0.099218
v -0.006777 0.106041 -0.098089
v -0.004955 0.106008 -0.099245
v -0.005539 0.106208 -0.097787
v -0.004531 0.106164 -0.098551
v -0.005974 0.106419 -0.09633
v -0.005521 0.106329 -0.097093
v -0.006777 0.106273 -0.096746
v -0.006778 0.106467 -0.095619
v -0.002996 0.106165 -0.09927
v -0.004199 0.10638 -0.097458
v -0.004556 0.106223 -0.098199
v -0.002997 0.106286 -0.098571
v -0.004526 0.106481 -0.096709
v -0.002997 0.106413 -0.097832
v -0.005013 0.106622 -0.095645
v -0.004556 0.10654 -0.09635
v -0.002998 0.106538 -0.097107
v -0.002998 0.106785 -0.095671
v -0.002998 0.106664 -0.09637
v -0.00495 0.105839 -0.100231
v -0.004944 0.10571 -0.100983
v -0.006778 0.105545 -0.100956
v -0.006779 0.105675 -0.100204
v -0.002999 0.105995 -0.100256
v -0.002998 0.105865 -0.101008
v -0.005305 0.105181 -0.103855
v -0.006776 0.104801 -0.105236
v -0.006777 0.104978 -0.104225
v -0.005949 0.105319 -0.102718
v -0.006778 0.105241 -0.102705
v -0.006778 0.105372 -0.101954
v -0.004772 0.105317 -0.103344
v -0.004151 0.10515 -0.104611
v -0.0051 0.105394 -0.102731
v -0.002997 0.105279 -0.104392
v -0.002996 0.10511 -0.105365
v -0.00414 0.105474 -0.102743
v -0.004889 0.105542 -0.101982
v -0.002998 0.105692 -0.102006
v -0.002998 0.105562 -0.102758
v -0.005896 0.104503 -0.107438
v -0.004911 0.104391 -0.108595
v -0.006777 0.104348 -0.107831
v -0.006778 0.104487 -0.107035
v -0.004493 0.104536 -0.107971
v -0.003855 0.104545 -0.108221
v -0.002997 0.10441 -0.109375
v -0.002997 0.104553 -0.108557
v -0.00494 0.104779 -0.106358
v -0.004494 0.104713 -0.106955
v -0.003856 0.104805 -0.106732
v -0.002999 0.105062 -0.105638
v -0.002998 0.104923 -0.106435
vn -0.1687 0.9702 -0.174
vn -0.1763 0.9691 -0.1724
vn -0.1715 0.9697 -0.1742
vn -0.1411 0.9746 -0.1737
vn -0.158 0.9719 -0.1746
vn -0.1681 0.9708 -0.1714
vn -0.1346 0.9757 -0.1728
vn -0.1352 0.9757 -0.1726
vn -0.1475 0.9742 -0.1708
vn -0.1465 0.9742 -0.1716
vn -0.1352 0.9754 -0.1741
vn -0.121 0.9775 -0.173
vn -0.1262 0.9775 -0.1689
vn -0.1077 0.9796 -0.1699
vn -0.1082 0.9796 -0.1694
vn -0.1314 0.9759 -0.1742
vn -0.1462 0.9733 -0.177
vn -0.145 0.9739 -0.1744
vn -0.1618 0.9713 -0.1744
vn -0.1438 0.9747 -0.1709
vn -0.1343 0.976 -0.1712
vn -0.164 0.9712 -0.1729
vn -0.1659 0.971 -0.1724
vn -0.1723 0.9693 -0.1756
vn -0.1391 0.9744 -0.1765
vn -0.1732 0.9696 -0.1728
vn -0.1507 0.9735 -0.172
vn -0.1607 0.9715 -0.1742
vn -0.1443 0.9739 -0.1754
vn -0.1696 0.9706 -0.1706
vn -0.1441 0.9739 -0.1751
vn -0.1602 0.9717 -0.1734
vn -0.1431 0.9747 -0.1715
vn -0.1401 0.9748 -0.1735
vn -0.1397 0.9747 -0.1745
vn -0.1732 0.9694 -0.1742
vn -0.1736 0.9694 -0.1734
vn -0.1293 0.976 -0.1752
vn -0.1593 0.9718 -0.1736
vn -0.1317 0.9765 -0.1708
vn -0.1323 0.9765 -0.1704
vn -0.1324 0.9765 -0.1701
vn -0.1605 0.9717 -0.1733
vn -0.1401 0.9748 -0.1737
vn -0.1731 0.9693 -0.1745
vn -0.1735 0.9695 -0.173
vn -0.1257 0.9766 -0.1743
vn -0.1573 0.9722 -0.1734
vn -0.1251 0.9772 -0.1718
vn -0.1276 0.9769 -0.1712
vn -0.1289 0.9769 -0.1705
vn -0.1297 0.9769 -0.1698
vn -0.14 0.9748 -0.1734
vn -0.1577 0.9722 -0.1733
vn -0.1735 0.9695 -0.1733
vn -0.1735 0.9695 -0.1731
vn -0.1403 0.9749 -0.1728
vn -0.1398 0.9749 -0.173
vn -0.1564 0.9724 -0.1732
vn -0.152 0.9731 -0.1728
vn -0.1547 0.9727 -0.1732
vn -0.1551 0.9726 -0.1733
vn -0.1169 0.9781 -0.1724
vn -0.1165 0.9784 -0.171
vn -0.1733 0.9694 -0.1736
vn -0.1197 0.9789 -0.1657
vn -0.1541 0.9727 -0.1735
vn -0.1484 0.9738 -0.1721
vn -0.1397 0.975 -0.1726
vn -0.1502 0.9735 -0.1727
vn -0.1489 0.9741 -0.1704
vn -0.1736 0.9694 -0.1735
vn -0.1397 0.9748 -0.1738
vn -0.1426 0.9748 -0.1717
vn -0.143 0.9741 -0.1749
vn -0.1464 0.9742 -0.1716
vn -0.1429 0.9743 -0.174
vn -0.1426 0.9745 -0.1733
vn -0.1528 0.9727 -0.1746
vn -0.1459 0.9744 -0.1712
vn -0.1268 0.9767 -0.1729
vn -0.1503 0.9729 -0.1756
vn -0.1305 0.9768 -0.1698
vn -0.1724 0.9701 -0.1708
vn -0.1138 0.9787 -0.1706
vn -0.149 0.973 -0.1762
vn -0.1141 0.9788 -0.1703
vn -0.1448 0.9746 -0.1711
vn -0.1736 0.9695 -0.1732
vn -0.1715 0.9703 -0.1709
vn -0.172 0.9702 -0.1704
vn -0.167 0.97 -0.1766
vn -0.1681 0.9697 -0.1771
vn -0.173 0.97 -0.1708
vn -0.1726 0.9699 -0.1717
vn -0.1645 0.9706 -0.1755
vn -0.1468 0.9735 -0.1754
vn -0.1698 0.9704 -0.1715
vn -0.1443 0.9746 -0.1711
vn -0.1708 0.9693 -0.177
vn -0.1325 0.9759 -0.1735
vn -0.1622 0.971 -0.1756
vn -0.1684 0.9706 -0.1717
vn -0.1408 0.9752 -0.1707
vn -0.1331 0.9758 -0.1732
vn -0.1716 0.9694 -0.1753
vn -0.1396 0.9749 -0.1735
vn -0.1731 0.9698 -0.1721
vn -0.1728 0.9698 -0.1721
vn -0.1724 0.9697 -0.1729
vn -0.1575 0.9721 -0.1736
vn -0.1416 0.9742 -0.1758
vn -0.1445 0.9743 -0.1725
vn -0.1568 0.9722 -0.1737
vn -0.1325 0.9761 -0.172
vn -0.1236 0.9767 -0.1754
vn -0.1247 0.9768 -0.1743
vn -0.1174 0.9779 -0.1729
vn -0.1437 0.9742 -0.1738
vn -0.1526 0.9737 -0.1693
vn -0.132 0.9761 -0.1729
vn -0.133 0.9764 -0.1699
vn -0.1327 0.976 -0.1725
vn -0.1229 0.9774 -0.172
vn -0.1341 0.9759 -0.1721
vn -0.1173 0.9788 -0.1682
vn -0.1191 0.978 -0.1714
vn -0.1729 0.9698 -0.1718
vn -0.1731 0.9698 -0.172
vn -0.157 0.9724 -0.1725
vn -0.1574 0.9723 -0.173
vn -0.1401 0.9744 -0.176
vn -0.1423 0.9745 -0.1734
vn -0.1588 0.9718 -0.1744
vn -0.169 0.9717 -0.1652
vn -0.1434 0.9741 -0.1749
vn -0.148 0.9741 -0.171
vn -0.1712 0.9701 -0.1722
vn -0.1687 0.9699 -0.1758
vn -0.1336 0.9761 -0.1716
vn -0.1224 0.977 -0.1747
vn -0.1244 0.9772 -0.1719
vn -0.1241 0.976 -0.179
vn -0.1382 0.9751 -0.1735
vn -0.1503 0.9736 -0.1717
vn -0.1521 0.9737 -0.1697
vn -0.1354 0.9759 -0.1711
vn -0.1233 0.9767 -0.1756
vn -0.1213 0.9774 -0.1732
vn -0.1687 0.9701 -0.1744
vn -0.1687 0.9701 -0.1743
vn -0.1554 0.9721 -0.176
vn -0.1754 0.9695 -0.1714
vn -0.1423 0.9735 -0.1792
vn -0.1545 0.9725 -0.1745
vn -0.1449 0.9736 -0.1765
vn -0.1299 0.9748 -0.1814
vn -0.1316 0.9751 -0.1782
vn -0.1543 0.9726 -0.1736
vn -0.1662 0.971 -0.172
vn -0.1706 0.9708 -0.1686
vn -0.118 0.9756 -0.1852
vn -0.1186 0.9758 -0.1836
vn -0.1387 0.975 -0.1733
vn -0.1512 0.9736 -0.171
vn -0.1387 0.9744 -0.1772
vn -0.1258 0.9761 -0.1772
vn -0.1345 0.9755 -0.1739
vn -0.1171 0.9771 -0.1777
vn -0.1203 0.9772 -0.1751
vn -0.1499 0.9708 -0.1871
vn -0.1529 0.9716 -0.1807
vn -0.1414 0.9725 -0.1849
vn -0.1345 0.973 -0.1875
vn -0.1336 0.9726 -0.1905
vn -0.1422 0.9718 -0.1882
vn -0.1538 0.971 -0.1829
vn -0.1227 0.974 -0.1904
vn -0.1248 0.9742 -0.1879
vn -0.1175 0.9754 -0.1866
vn -0.1354 0.9734 -0.1847
vn -0.1258 0.9738 -0.1894
vn -0.1254 0.9738 -0.1896
vn -0.1257 0.9738 -0.1897
vn -0.1366 0.9726 -0.188
vn -0.1244 0.9742 -0.1885
vn -0.117 0.9748 -0.1901
vn -0.1158 0.9752 -0.1885
vn -0.0906 0.9815 -0.1685
vn -0.0898 0.9816 -0.1688
vn -0.0844 0.9822 -0.1681
vn -0.0841 0.9822 -0.1682
vn -0.0863 0.9821 -0.1674
vn -0.0841 0.9822 -0.168
vn -0.087 0.9822 -0.1665
vn -0.0799 0.9825 -0.1682
vn -0.0819 0.9826 -0.1667
vn -0.0806 0.9824 -0.1684
vn -0.0821 0.9825 -0.1671
vn -0.0926 0.9812 -0.1695
vn -0.0902 0.9809 -0.1723
vn -0.0917 0.9816 -0.1678
vn -0.0867 0.9821 -0.1673
vn -0.091 0.9812 -0.1704
vn -0.0915 0.9813 -0.1695
vn -0.0808 0.982 -0.1709
vn -0.085 0.9822 -0.1676
vn -0.08 0.9823 -0.1692
vn -0.0848 0.9819 -0.1696
vn -0.0799 0.9822 -0.17
vn -0.0861 0.9817 -0.1697
vn -0.0886 0.9821 -0.1663
vn -0.0801 0.9826 -0.1676
vn -0.0796 0.9824 -0.1691
vn -0.0805 0.9823 -0.1688
vn -0.0814 0.9826 -0.1668
vn -0.0857 0.9822 -0.1674
vn -0.0864 0.9815 -0.1709
vn -0.0909 0.9814 -0.1692
vn -0.0906 0.9813 -0.1699
vn -0.0805 0.9822 -0.1696
vn -0.0806 0.9823 -0.1693
vn -0.0929 0.9809 -0.1708
vn -0.0946 0.9809 -0.1702
vn -0.0852 0.9816 -0.1712
vn -0.0861 0.9816 -0.1703
vn -0.0777 0.9823 -0.1707
vn -0.0838 0.982 -0.1691
vn -0.0894 0.9816 -0.1687
vn -0.091 0.9819 -0.1664
vn -0.0838 0.9818 -0.1703
vn -0.0781 0.9823 -0.17
vn -0.0802 0.9827 -0.1668
vn -0.0783 0.9827 -0.168
vn -0.0934 0.9812 -0.1688
vn -0.0942 0.98 -0.1756
vn -0.0961 0.9805 -0.1716
vn -0.0872 0.9816 -0.1697
vn -0.0811 0.9811 -0.1754
vn -0.082 0.9815 -0.1732
vn -0.0764 0.9821 -0.172
vn -0.0873 0.981 -0.1731
vn -0.0941 0.9814 -0.1672
vn -0.081 0.9818 -0.1716
vn -0.0813 0.9818 -0.1714
vn -0.0819 0.9822 -0.1691
vn -0.0767 0.9823 -0.1711
vn -0.0813 0.9825 -0.1675
f 1//1 2//1 3//1
f 1//2 3//2 4//2
f 5//3 1//3 4//3
f 6//4 7//4 8//4
f 9//5 10//5 1//5
f 9//6 1//6 5//6
f 11//7 12//7 7//7
f 11//8 7//8 6//8
f 13//9 6//9 10//9
f 13//10 10//10 9//10
f 13//11 11//11 6//11
f 14//12 15//12 11//12
f 14//13 11//13 13//13
f 16//14 17//14 15//14
f 16//15 15//15 14//15
f 18//16 19//16 20//16
f 21//17 22//17 23//17
f 21//18 23//18 24//18
f 25//19 26//19 27//19
f 21//20 28//20 22//20
f 18//21 29//21 19//21
f 25//22 30//22 31//22
f 25//23 31//23 26//23
f 32//24 33//24 34//24
f 35//25 36//25 37//25
f 32//26 34//26 38//26
f 39//27 40//27 41//27
f 39//28 41//28 42//28
f 43//29 24//29 44//29
f 39//30 42//30 45//30
f 43//31 44//31 46//31
f 47//32 30//32 25//32
f 43//33 21//33 24//33
f 48//34 37//34 49//34
f 48//35 35//35 37//35
f 50//36 32//36 38//36
f 42//37 51//37 52//37
f 53//38 29//38 18//38
f 54//39 30//39 47//39
f 53//40 55//40 56//40
f 53//41 56//41 57//41
f 53//42 57//42 29//42
f 54//43 58//43 30//43
f 59//44 48//44 49//44
f 60//45 50//45 38//45
f 60//46 38//46 61//46
f 62//47 55//47 53//47
f 63//48 58//48 54//48
f 62//49 64//49 65//49
f 62//50 65//50 66//50
f 62//51 66//51 67//51
f 62//52 67//52 55//52
f 68//53 49//53 40//53
f 63//54 69//54 58//54
f 70//55 60//55 61//55
f 70//56 61//56 52//56
f 68//57 59//57 49//57
f 71//58 68//58 40//58
f 72//59 69//59 63//59
f 72//60 73//60 74//60
f 72//61 74//61 75//61
f 72//62 75//62 69//62
f 76//63 64//63 62//63
f 76//64 77//64 78//64
f 45//65 42//65 52//65
f 76//66 78//66 64//66
f 79//67 73//67 72//67
f 79//68 80//68 81//68
f 82//69 71//69 40//69
f 79//70 81//70 73//70
f 83//71 40//71 39//71
f 84//72 70//72 52//72
f 83//73 82//73 40//73
f 19//74 43//74 46//74
f 19//75 46//75 85//75
f 86//76 87//76 80//76
f 19//77 85//77 88//77
f 19//78 88//78 89//78
f 86//79 80//79 79//79
f 90//80 87//80 86//80
f 91//81 92//81 82//81
f 93//82 90//82 86//82
f 91//83 82//83 83//83
f 94//84 95//84 96//84
f 97//85 98//85 92//85
f 99//86 93//86 100//86
f 97//87 92//87 91//87
f 99//88 90//88 93//88
f 51//89 84//89 52//89
f 101//90 102//90 103//90
f 101//91 103//91 95//91
f 101//92 95//92 94//92
f 104//93 94//93 96//93
f 104//94 96//94 105//94
f 104//95 105//95 106//95
f 107//96 102//96 101//96
f 28//97 100//97 22//97
f 107//98 108//98 102//98
f 28//99 99//99 100//99
f 109//100 104//100 106//100
f 20//101 19//101 110//101
f 27//102 108//102 107//102
f 27//103 26//103 108//103
f 36//104 19//104 89//104
f 36//105 110//105 19//105
f 33//106 109//106 106//106
f 36//107 89//107 37//107
f 33//108 106//108 34//108
f 111//109 112//109 113//109
f 111//110 113//110 114//110
f 115//111 116//111 112//111
f 115//111 112//111 111//111
f 117//112 118//112 116//112
f 117//113 116//113 115//113
f 119//90 111//90 114//90
f 120//114 111//114 119//114
f 121//115 118//115 117//115
f 122//116 123//116 118//116
f 122//117 118//117 121//117
f 124//118 123//118 122//118
f 125//119 126//119 120//119
f 125//120 120//120 119//120
f 127//121 117//121 126//121
f 127//122 126//122 125//122
f 127//123 121//123 117//123
f 128//124 129//124 127//124
f 128//125 127//125 125//125
f 130//126 129//126 128//126
f 131//127 130//127 128//127
f 132//128 133//128 134//128
f 135//129 132//129 134//129
f 136//130 132//130 135//130
f 137//131 136//131 135//131
f 138//132 139//132 136//132
f 138//133 136//133 137//133
f 140//134 141//134 142//134
f 140//135 142//135 143//135
f 144//136 138//136 141//136
f 144//137 141//137 140//137
f 145//138 143//138 146//138
f 145//139 140//139 143//139
f 147//140 138//140 144//140
f 148//141 149//141 139//141
f 148//142 139//142 138//142
f 148//143 138//143 147//143
f 150//144 151//144 152//144
f 150//145 152//145 140//145
f 150//146 140//146 145//146
f 153//147 151//147 150//147
f 154//148 151//148 153//148
f 155//149 154//149 153//149
f 156//150 157//150 158//150
f 159//151 156//151 158//151
f 160//152 156//152 159//152
f 161//153 162//153 163//153
f 164//154 165//154 160//154
f 166//155 160//155 159//155
f 166//156 164//156 160//156
f 167//157 168//157 165//157
f 167//158 165//158 164//158
f 169//159 166//159 170//159
f 169//160 170//160 162//160
f 169//161 162//161 161//161
f 171//162 172//162 168//162
f 171//163 168//163 167//163
f 173//164 164//164 166//164
f 174//165 166//165 169//165
f 174//166 173//166 166//166
f 175//167 176//167 173//167
f 175//168 173//168 174//168
f 177//169 178//169 176//169
f 177//170 176//170 175//170
f 179//171 180//171 181//171
f 179//172 181//172 182//172
f 183//173 180//173 179//173
f 184//174 185//174 180//174
f 184//175 180//175 183//175
f 186//176 187//176 179//176
f 186//177 179//177 182//177
f 188//178 189//178 185//178
f 188//179 185//179 184//179
f 190//180 189//180 188//180
f 191//181 187//181 186//181
f 192//182 184//182 191//182
f 192//183 188//183 184//183
f 193//184 192//184 191//184
f 193//185 191//185 186//185
f 194//186 192//186 193//186
f 195//187 192//187 194//187
f 196//188 195//188 194//188
f 197//189 198//189 199//189
f 200//190 197//190 199//190
f 201//191 202//191 203//191
f 201//192 203//192 204//192
f 205//193 204//193 197//193
f 205//194 201//194 204//194
f 205//195 197//195 200//195
f 206//196 207//196 208//196
f 206//197 201//197 205//197
f 209//198 207//198 206//198
f 209//199 206//199 205//199
f 210//200 211//200 212//200
f 213//201 211//201 210//201
f 214//202 210//202 212//202
f 215//203 213//203 210//203
f 216//204 217//204 218//204
f 216//205 218//205 219//205
f 220//206 213//206 215//206
f 221//207 222//207 214//207
f 223//208 220//208 215//208
f 224//209 221//209 217//209
f 225//210 222//210 221//210
f 226//211 227//211 216//211
f 226//212 216//212 219//212
f 228//213 221//213 224//213
f 228//214 225//214 221//214
f 229//215 230//215 227//215
f 229//216 227//216 226//216
f 216//217 224//217 217//217
f 222//218 210//218 214//218
f 231//219 232//219 233//219
f 231//220 233//220 234//220
f 235//221 236//221 232//221
f 235//222 232//222 231//222
f 237//223 238//223 239//223
f 240//224 241//224 242//224
f 243//225 244//225 237//225
f 245//226 243//226 237//226
f 246//227 247//227 244//227
f 248//228 243//228 245//228
f 249//229 245//229 240//229
f 249//230 240//230 242//230
f 249//231 248//231 245//231
f 250//232 251//232 248//232
f 250//233 248//233 249//233
f 243//234 246//234 244//234
f 239//235 245//235 237//235
f 252//236 253//236 254//236
f 252//237 254//237 255//237
f 256//238 253//238 252//238
f 257//239 258//239 253//239
f 257//240 253//240 256//240
f 259//241 258//241 257//241
f 260//242 261//242 252//242
f 260//243 252//243 255//243
f 262//244 256//244 261//244
f 262//245 257//245 256//245
f 262//246 261//246 260//246
f 263//247 264//247 262//247
f 263//248 262//248 260//248