o obj1
v -0.051997 -0.017852 -0.259
v -0.043494 0.033699 -0.259
v 0.046605 0.029219 -0.259
v 0.020922 0.050882 -0.259
v 0.050951 0.020726 -0.259
v 0.028893 0.093108 -0.147202
v 0.026339 0.085091 -0.183647
v 0.029064 0.095448 -0.133539
v -0.021766 0.050517 -0.259
v 0.029192 0.046614 -0.259
v 0.020095 0.083559 -0.197022
v 0.012548 0.082958 -0.202028
v 0.050294 0.012853 -0.210481
v 0.050365 0.017247 -0.214926
v 0.050274 0.021322 -0.223858
v 0.050396 -0.021964 -0.259
v -0.023077 0.053522 -0.146035
v -0.014053 -0.016454 -0.177589
v 0.023552 0.063747 -0.133252
v 0.028831 0.067306 -0.135376
v -0.052458 0.016511 -0.259
v 0.022625 0.097598 -0.133939
v 0.021637 0.093787 -0.156754
v -0.023109 0.089348 -0.17547
v 0.01262 0.08787 -0.188953
v 0.025225 0.087564 -0.179602
v -0.009635 0.083175 -0.202323
v -0.024273 0.085358 -0.188354
v 0.022706 0.084516 -0.192412
v 0.031835 0.074159 -0.139115
v 0.045492 0.01334 -0.187636
v 0.050391 -0.004898 -0.21056
v 0.03685 -0.028952 -0.199617
v 0.028642 -0.042568 -0.211526
v 0.045423 -0.030121 -0.229084
v 0.049877 -0.013344 -0.215408
v 0.011903 -0.042591 -0.199122
v 0.02071 -0.020754 -0.182013
v 0.028814 -0.007358 -0.177964
v 0.007988 -0.025363 -0.182107
v -0.017463 -0.033547 -0.190913
v -0.030187 -0.0205 -0.186548
v -0.013549 -0.047308 -0.207602
v -0.022334 -0.002848 -0.172981
v -0.03008 0.05325 -0.151432
v -0.038215 0.050463 -0.167851
v -0.046986 -0.009035 -0.196876
v 0.04579 -0.008347 -0.194043
v 0.041401 -0.012111 -0.190499
v 0.037323 -0.011896 -0.186316
v -0.03457 -0.042771 -0.259
v -0.038313 -0.038209 -0.224413
v -0.017736 -0.052051 -0.258999
v -0.026268 -0.04699 -0.224192
v 0.033556 -0.043549 -0.258999
v 0.045944 -0.030215 -0.258999
v 0.012319 -0.051746 -0.224351
v 0.049874 -0.022123 -0.233472
v -0.005067 -0.052042 -0.219576
v 0.016204 -0.046663 -0.207808
v -0.051942 -0.005029 -0.219727
v -0.051913 0.016682 -0.233346
v -0.029442 0.082404 -0.175897
v -0.042174 -0.025291 -0.202643
f 1 2 3
f 4 3 2
f 5 1 3
f 6 3 7
f 6 5 3
f 6 8 5
f 9 4 2
f 10 7 3
f 10 3 4
f 11 4 12
f 11 10 4
f 13 14 8
f 15 5 8
f 15 8 14
f 15 14 5
f 16 1 5
f 17 18 19
f 20 8 19
f 21 2 1
f 22 23 24
f 22 6 23
f 22 8 6
f 22 17 19
f 22 19 8
f 25 24 23
f 25 11 12
f 26 6 7
f 26 23 6
f 26 25 23
f 27 12 4
f 27 4 9
f 27 25 12
f 27 24 25
f 28 9 2
f 28 27 9
f 28 24 27
f 29 7 10
f 29 10 11
f 29 26 7
f 29 11 25
f 29 25 26
f 30 13 8
f 30 31 13
f 30 8 20
f 32 13 31
f 32 16 5
f 32 5 14
f 32 14 13
f 33 34 35
f 33 35 36
f 33 37 34
f 33 38 37
f 39 19 38
f 40 38 19
f 40 19 18
f 40 37 38
f 41 18 42
f 41 40 18
f 41 43 37
f 41 37 40
f 44 17 42
f 44 42 18
f 44 18 17
f 45 46 47
f 45 47 42
f 45 42 17
f 45 17 22
f 48 20 49
f 48 30 20
f 48 31 30
f 48 32 31
f 48 36 32
f 48 33 36
f 48 49 33
f 50 20 19
f 50 49 20
f 50 19 39
f 50 33 49
f 50 39 38
f 50 38 33
f 51 52 1
f 51 16 53
f 51 1 16
f 54 51 53
f 54 52 51
f 55 35 34
f 55 56 35
f 55 34 57
f 55 57 53
f 55 16 56
f 55 53 16
f 58 36 35
f 58 32 36
f 58 16 32
f 58 35 56
f 58 56 16
f 59 53 57
f 59 54 53
f 59 43 54
f 60 57 34
f 60 34 37
f 60 59 57
f 60 37 43
f 60 43 59
f 61 21 1
f 61 62 21
f 61 47 46
f 61 46 62
f 63 21 62
f 63 62 46
f 63 24 28
f 63 28 2
f 63 2 21
f 63 46 45
f 63 45 22
f 63 22 24
f 64 42 47
f 64 41 42
f 64 43 41
f 64 54 43
f 64 52 54
f 64 1 52
f 64 61 1
f 64 47 61