o obj1
v 0.00901 -0.004297 -0.012202
v 0.009001 0.0005 -0.012024
v 0.009 0.0005 -0.012654
v 0.009001 -0.001012 -0.012706
v 0.008998 -0.010976 -0.014148
v 0.00901 -0.015714 -0.01414
v 0.009007 -0.0096 -0.012811
v 0.00904 -0.016028 -0.015379
v 0.008998 -0.003994 -0.013295
v 0.009001 -0.0011 -0.013169
v 0.024521 0.000501 -0.002225
v 0.024692 -0.000981 -0.002421
v 0.025105 0.000499 -0.002827
v 0.023345 -0.005027 -0.002605
v 0.023665 -0.002083 -0.002246
v 0.023214 -0.00275 -0.002469
v 0.023388 -0.008991 -0.003196
v 0.023009 -0.008042 -0.003271
v 0.023074 -0.01102 -0.003868
v 0.024881 -0.008636 -0.003617
v 0.024774 -0.01036 -0.003816
v 0.025024 -0.014417 -0.005042
v 0.024512 -0.011476 -0.003825
v 0.025453 -0.018257 -0.006881
v 0.025265 -0.015742 -0.005887
v 0.025188 -0.018239 -0.006379
v 0.024796 -0.015715 -0.005167
v 0.024723 -0.018346 -0.006122
v 0.02441 -0.015888 -0.005021
v 0.024167 -0.018293 -0.005983
v 0.022963 -0.004267 -0.002792
v 0.023484 -0.016896 -0.005596
v 0.024059 -0.016863 -0.005375
v 0.02371 -0.018368 -0.006218
v 0.024083 -0.001355 -0.002195
v 0.024102 -0.00236 -0.002255
v 0.024007 -0.014634 -0.004559
v 0.023564 -0.014837 -0.00471
v 0.023146 -0.014517 -0.004898
v 0.025055 -0.011255 -0.004569
v 0.024002 -0.012068 -0.003814
v 0.023545 -0.012085 -0.003877
v 0.024313 -0.01031 -0.003468
v 0.023765 -0.00537 -0.002533
v 0.024185 -0.005193 -0.002559
v 0.024398 -0.007881 -0.003026
v 0.024577 -0.00318 -0.002525
v 0.024863 -0.004211 -0.00293
v 0.023737 -0.009111 -0.003133
v 0.025001 -0.00498 -0.003339
v 0.023941 0.000499 -0.002121
v 0.023252 0.000499 -0.002341
v 0.010332 -0.017806 -0.014429
v 0.013638 -0.016834 -0.013193
v 0.011968 -0.013853 -0.01287
v 0.018191 -0.015008 -0.010192
v 0.019898 -0.012501 -0.008078
v 0.018137 -0.012425 -0.009515
v 0.020115 -0.014936 -0.008614
v 0.022121 -0.015061 -0.006519
v 0.021861 -0.012491 -0.005971
v 0.009119 -0.005132 -0.012147
v 0.010681 -0.003163 -0.011642
v 0.009115 -0.002459 -0.011983
v 0.010516 -0.013282 -0.01311
v 0.016653 -0.008513 -0.009726
v 0.018264 -0.008434 -0.00862
v 0.017206 -0.004601 -0.008962
v 0.012168 -0.003447 -0.011237
v 0.01368 -0.003464 -0.010698
v 0.014487 0.0005 -0.0103
v 0.012249 0.0005 -0.011123
v 0.009219 -0.016213 -0.014127
v 0.009119 -0.012539 -0.013236
v 0.018979 -0.016975 -0.0103
v 0.020655 -0.016996 -0.008887
v 0.02156 -0.008547 -0.005387
v 0.020069 -0.008493 -0.007044
v 0.013182 -0.018287 -0.013855
v 0.010275 -0.008312 -0.012245
v 0.012012 -0.008702 -0.01183
v 0.011485 -0.018329 -0.014386
v 0.014344 -0.01241 -0.011695
v 0.015112 -0.008473 -0.01057
v 0.016511 -0.012477 -0.01059
v 0.019769 -0.018283 -0.010262
v 0.021494 -0.018248 -0.008653
v 0.00968 -0.017124 -0.014319
v 0.022194 -0.003286 -0.003905
v 0.021233 0.0005 -0.005234
v 0.020588 -0.001726 -0.00595
v 0.01921 0.0005 -0.007335
v 0.016063 -0.015969 -0.01181
v 0.013651 -0.008505 -0.011224
v 0.018508 -0.001521 -0.007884
v 0.015307 -0.003173 -0.009948
v 0.020891 -0.004618 -0.005708
v 0.009117 -0.008131 -0.012476
v 0.017172 -0.016953 -0.011514
v 0.017142 0.000497 -0.008844
v 0.014372 -0.01493 -0.012324
v 0.019265 -0.004565 -0.007368
v 0.017571 -0.018296 -0.011829
v 0.022633 -0.018293 -0.007449
v 0.015435 -0.018235 -0.012931
v 0.026548 -0.018225 -0.013025
v 0.027127 -0.018264 -0.015341
v 0.027077 -0.012786 -0.015372
v 0.026202 -0.014631 -0.011866
v 0.025804 -0.006392 -0.009907
v 0.026941 0.0005 -0.014546
v 0.025617 0.0005 -0.007918
v 0.030404 -0.018195 -0.024144
v 0.029519 -0.014079 -0.022117
v 0.029491 -0.018189 -0.022071
v 0.025567 -0.015077 -0.008364
v 0.025865 -0.018198 -0.009592
v 0.025308 -0.005346 -0.006638
v 0.02653 -0.007772 -0.01332
v 0.02864 -0.003739 -0.019865
v 0.028598 -0.0011 -0.019738
v 0.028425 -0.001091 -0.01927
v 0.028326 -0.000941 -0.019006
v 0.0278 -0.018214 -0.0175
v 0.028572 -0.018245 -0.019787
v 0.028881 -0.008272 -0.02052
v 0.028322 0.0005 -0.018987
v 0.021866 -0.018374 -0.008496
v 0.02031 -0.018387 -0.010015
v 0.025735 -0.018376 -0.009732
v 0.029273 -0.018363 -0.021875
v 0.028367 -0.018397 -0.022888
v 0.030251 -0.018368 -0.024117
v 0.025139 -0.018391 -0.006601
v 0.026522 -0.018383 -0.013612
v 0.023579 -0.018398 -0.020435
v 0.027373 -0.018379 -0.01668
v 0.017604 -0.018376 -0.011957
v 0.018039 -0.0184 -0.01825
v 0.014132 -0.018373 -0.013657
v 0.0115 -0.018374 -0.016523
v 0.010585 -0.018063 -0.014591
v 0.010251 -0.01786 -0.016131
v 0.009808 -0.017467 -0.014562
v 0.009462 -0.017006 -0.015726
v 0.00923 -0.016604 -0.014418
vn -1 -0.0019 0.0021
vn -1 -0.0013 0.0084
vn -0.9999 -0.0025 0.0098
vn -0.9997 -0.0026 -0.0239
vn -1 0.0012 -0.0002
vn -0.9999 -0.0009 0.0108
vn -0.9999 -0.0013 0.0107
vn -1 -0.0004 0.0076
vn 0.7183 -0.0093 0.6956
vn -0.3498 -0.0756 0.9338
vn -0.5877 -0.1712 0.7907
vn 0.8288 -0.1145 0.5477
vn 0.6942 -0.1687 0.6997
vn 0.9113 -0.0904 0.4017
vn 0.8749 -0.1261 0.4676
vn 0.5134 -0.3055 0.8019
vn 0.1901 -0.3812 0.9047
vn -0.5633 -0.0813 0.8223
vn 0.4561 -0.3149 0.8323
vn -0.3103 -0.3913 0.8664
vn 0.1286 -0.3795 0.9162
vn -0.3635 -0.4091 0.837
vn 0.3742 -0.0487 0.9261
vn 0.0066 -0.3439 0.939
vn -0.1587 -0.343 0.9259
vn -0.5743 -0.3048 0.7598
vn 0.9613 -0.0354 0.2733
vn 0.9257 -0.0688 0.372
vn 0.4373 -0.2447 0.8654
vn 0.2293 -0.2708 0.9349
vn 0.6608 -0.1859 0.7272
vn -0.1896 -0.2856 0.9394
vn 0.3152 -0.2551 0.9141
vn 0.587 -0.1442 0.7967
vn -0.1211 -0.2769 0.9533
vn -0.543 -0.2468 0.8027
vn -0.5477 -0.2467 0.7995
vn 0.1052 -0.1033 0.9891
vn -0.0366 -0.088 0.9954
vn -0.2395 -0.0916 0.9666
vn 0.6837 -0.1254 0.719
vn 0.5836 -0.1649 0.7952
vn 0.7225 -0.0702 0.6878
vn 0.1828 -0.1821 0.9661
vn 0.9435 -0.056 0.3267
vn 0.4067 -0.0644 0.9113
vn 0.9041 -0.062 0.4228
vn -0.3047 -0.0137 0.9524
vn 0.1355 -0.1577 0.9782
vn 0.1282 -0.1597 0.9788
vn 0.6985 -0.107 0.7076
vn -0.5037 -0.1327 0.8536
vn -0.2262 -0.1524 0.9621
vn -0.2797 -0.1445 0.9491
vn -0.6015 -0.1081 0.7915
vn 0.2915 -0.2345 0.9274
vn 0.1212 -0.2126 0.9696
vn 0.792 -0.0539 0.6081
vn -0.4055 -0.0313 0.9136
vn -0.1242 -0.2335 0.9644
vn -0.2464 -0.2204 0.9438
vn 0.4926 -0.1108 0.8632
vn 0.3724 -0.0884 0.9238
vn -0.4652 -0.2129 0.8592
vn -0.0189 -0.0601 0.998
vn 0.669 -0.104 0.736
vn -0.0482 -0.0433 0.9979
vn -0.7462 -0.0175 0.6655
vn 0.7436 -0.1921 0.6404
vn 0.3884 -0.0766 0.9183
vn 0.1761 -0.0254 0.984
vn -0.3155 -0.3649 0.876
vn 0.9093 -0.0556 0.4125
vn -0.2725 -0.2532 0.9282
vn -0.6235 -0.2104 0.753
vn -0.6132 -0.2216 0.7582
vn -0.7957 -0.2022 0.5709
vn -0.238 -0.0597 0.9694
vn -0.2564 -0.2608 0.9307
vn -0.5613 -0.0816 0.8235
vn -0.336 -0.0261 0.9415
vn -0.345 -0.0201 0.9384
vn -0.2105 -0.2359 0.9487
vn -0.6243 -0.261 0.7363
vn -0.7382 -0.1389 0.6602
vn -0.7224 -0.1548 0.6739
vn -0.2404 -0.3388 0.9096
vn -0.2526 -0.1011 0.9623
vn -0.2776 -0.0902 0.9564
vn -0.2672 -0.0222 0.9634
vn -0.2505 -0.4826 0.8392
vn -0.4777 -0.1539 0.8649
vn -0.4516 -0.1745 0.875
vn -0.1314 -0.2724 0.9532
vn -0.6468 -0.3028 0.6999
vn -0.1057 -0.2559 0.9609
vn -0.6018 -0.2824 0.747
vn -0.8199 -0.0073 0.5724
vn -0.8244 -0.0034 0.5661
vn -0.7778 0.023 0.6281
vn -0.1903 -0.0994 0.9767
vn -0.7667 -0.2789 0.5782
vn -0.7205 -0.0146 0.6933
vn -0.5336 -0.217 0.8174
vn -0.5228 -0.2263 0.8219
vn -0.6075 -0.346 0.715
vn -0.2666 -0.0224 0.9635
vn -0.3986 -0.1792 0.8995
vn -0.6785 0.0365 0.7337
vn -0.4799 -0.1025 0.8713
vn -0.5073 -0.0821 0.8579
vn -0.7983 -0.0333 0.6013
vn -0.21 -0.1064 0.9719
vn -0.5405 -0.2608 0.7999
vn -0.842 -0.0499 0.5372
vn -0.5891 -0.0146 0.8079
vn -0.2105 0.0053 0.9776
vn -0.4867 -0.3024 0.8196
vn -0.8128 -0.0833 0.5765
vn -0.4195 -0.2509 0.8724
vn -0.7145 -0.0163 0.6994
vn -0.4484 -0.2212 0.866
vn -0.3502 -0.1732 0.9205
vn -0.3212 -0.1848 0.9288
vn -0.6274 -0.1694 0.76
vn -0.6536 -0.1456 0.7427
vn -0.5506 -0.3099 0.7751
vn -0.7542 -0.2564 0.6045
vn -0.7783 -0.0817 0.6226
vn -0.6825 -0.0461 0.7294
vn -0.7119 -0.2146 0.6687
vn -0.5274 -0.3391 0.779
vn -0.7424 -0.072 0.6661
vn -0.8024 -0.134 0.5815
vn -0.712 -0.363 0.6011
vn -0.4809 -0.0233 0.8765
vn -0.2172 -0.1659 0.9619
vn -0.2663 -0.1778 0.9473
vn -0.6118 -0.0181 0.7908
vn -0.713 -0.0884 0.6956
vn -0.7147 -0.2106 0.6669
vn -0.4148 -0.2405 0.8776
vn -0.4031 -0.0927 0.9105
vn -0.405 -0.0919 0.9097
vn -0.1809 -0.1772 0.9674
vn -0.4726 -0.2819 0.8349
vn -0.4406 -0.3267 0.8361
vn -0.6001 -0.0261 0.7995
vn -0.2326 -0.1906 0.9537
vn -0.3137 -0.2333 0.9204
vn -0.6576 -0.0726 0.7499
vn -0.8093 -0.1459 0.5689
vn -0.7877 -0.1888 0.5864
vn -0.7033 -0.2712 0.6571
vn -0.6657 -0.3203 0.674
vn -0.379 -0.3237 0.8669
vn -0.4177 -0.0061 0.9086
vn -0.6698 -0.4114 0.6181
vn -0.5401 -0.1676 0.8248
vn -0.5535 -0.1583 0.8176
vn -0.3313 -0.283 0.9001
vn -0.4763 -0.0264 0.8789
vn -0.3353 -0.0958 0.9372
vn -0.3351 -0.0959 0.9373
vn -0.3573 -0.292 0.8872
vn -0.6081 -0.0977 0.7878
vn 0.9702 0.0102 0.2422
vn 0.9685 0.0131 0.2485
vn 0.9802 -0.0299 0.1957
vn 0.9151 -0.0019 0.4033
vn 0.9923 0.01 0.1238
vn 0.9832 0.0227 0.1812
vn 0.9945 -0.0306 0.1002
vn 0.9779 -0.0025 0.209
vn 0.9804 0.0315 0.1947
vn 0.9766 -0.0167 0.2145
vn 0.995 -0.0277 0.0956
vn 0.9383 -0.0018 0.3458
vn 0.9356 -0.0036 0.3531
vn 0.9475 0.0008 0.3199
vn 0.9271 -0.0012 0.3748
vn 0.9903 0.0426 0.1323
vn 0.9885 0.0146 0.1506
vn 0.9549 -0.0006 0.2968
vn 0.9876 -0.0181 0.1556
vn 0.9956 -0.0099 0.0937
vn 0.9368 -0.0025 0.3499
vn 0.9468 -0.0011 0.3219
vn 0.9696 0.0056 0.2448
vn 0.9326 -0.0024 0.361
vn 0.9541 -0.0088 0.2992
vn 0.9277 -0.0023 0.3732
vn 0.9838 0.0049 0.1791
vn 0.9887 -0.0004 0.1501
vn 0.9617 -0.0072 0.2739
vn 0.9914 0.0032 0.1305
vn 0.9546 0.0104 0.2978
vn 0.0016 -1 0.0069
vn 0.0234 -0.9996 0.0125
vn -0.0023 -1 -0.0052
vn 0.0018 -1 0.0022
vn 0.0118 -0.9997 0.0229
vn 0.0058 -1 -0.001
vn -0.0014 -1 -0.0035
vn 0.0047 -1 0.0001
vn -0.0001 -1 0.0038
vn -0.0129 -0.9998 0.0131
vn 0.0011 -1 0.0016
vn 0.0117 -0.9944 0.1046
vn -0.0026 -1 0.0036
vn -0.0031 -1 0.0032
vn -0.0223 -0.9995 0.0208
vn -0.5183 0.3354 -0.7867
vn -0.2875 -0.9576 0.0181
vn -0.3908 -0.9197 -0.0369
vn -0.7436 -0.6672 -0.0429
vn -0.6082 -0.7933 0.0269
vn -0.8283 -0.5597 0.0247
vn -0.9233 -0.3813 -0.0469
vn -0.9671 -0.2513 0.0398
vn -0.8353 -0.0624 0.5463
vn -0.8114 -0.0232 0.584
vn -0.5533 -0.2106 0.806
vn -0.7024 -0.0445 0.7104
vn -0.8845 -0.0994 0.4558
vn -0.5932 -0.137 0.7933
vn -0.8004 -0.0649 0.596
vn -0.838 -0.34 0.4267
vn -0.66 -0.4595 0.5944
vn -0.7285 -0.5557 0.4007
vn -0.5426 -0.611 0.5764
vn -0.5714 -0.7592 0.3116
vn -0.3497 -0.7211 0.598
vn -0.6046 -0.6271 0.4911
vn -0.3824 -0.4951 0.7802
vn -0.2109 -0.6542 0.7264
vn -0.1787 -0.8569 0.4835
vn -0.4363 -0.8145 0.3823
vn -0.2622 -0.8475 0.4614
vn -0.3899 -0.7464 0.5392
vn -0.3252 -0.8821 0.3407
vn -0.4603 -0.7273 0.5091
vn -0.3115 -0.84 0.4443
vn 0.6145 -0.7071 0.3499
vn 0.4272 -0.7866 0.4458
vn -0.0096 -0.9474 0.32
vn 0.642 -0.7469 0.173
vn 0.6715 -0.7174 0.1854
vn 0.6398 -0.7467 0.182
vn 0.7372 -0.6248 0.2573
vn 0.8511 -0.4237 0.31
vn 0.734 -0.5982 0.3215
vn 0.4535 -0.8875 0.0821
vn 0.763 -0.6383 0.1023
vn 0.727 -0.6704 0.1487
vn 0.7372 -0.6584 0.1517
vn 0.7415 -0.6081 0.2836
vn 0.7534 -0.5666 0.3335
vn -0.6281 0.0259 -0.7777
f 1//1 2//1 3//1
f 4//2 1//2 3//2
f 5//3 6//3 7//3
f 8//4 6//4 5//4
f 9//5 4//5 10//5
f 9//6 1//6 4//6
f 5//7 1//7 9//7
f 5//8 7//8 1//8
f 11//9 12//9 13//9
f 14//10 15//10 16//10
f 17//11 18//11 19//11
f 20//12 21//12 22//12
f 23//13 22//13 21//13
f 22//14 24//14 25//14
f 26//15 24//15 22//15
f 27//16 28//16 26//16
f 29//17 30//17 28//17
f 16//18 31//18 14//18
f 29//19 28//19 27//19
f 32//20 30//20 33//20
f 33//21 30//21 29//21
f 32//22 34//22 30//22
f 12//23 35//23 36//23
f 37//24 33//24 29//24
f 38//25 33//25 37//25
f 39//26 32//26 38//26
f 20//27 25//27 40//27
f 20//28 22//28 25//28
f 29//29 27//29 23//29
f 37//30 29//30 41//30
f 23//31 27//31 22//31
f 42//32 38//32 37//32
f 41//33 29//33 23//33
f 43//34 23//34 21//34
f 42//35 37//35 41//35
f 19//36 38//36 42//36
f 39//37 38//37 19//37
f 44//38 45//38 36//38
f 44//39 36//39 15//39
f 44//40 15//40 14//40
f 46//41 21//41 20//41
f 46//42 43//42 21//42
f 47//43 48//43 12//43
f 49//44 43//44 46//44
f 50//45 20//45 40//45
f 12//46 36//46 47//46
f 48//47 20//47 50//47
f 15//48 51//48 52//48
f 44//49 49//49 46//49
f 44//50 46//50 45//50
f 46//51 20//51 48//51
f 18//52 17//52 14//52
f 44//53 17//53 49//53
f 14//54 17//54 44//54
f 31//55 18//55 14//55
f 43//56 41//56 23//56
f 43//57 49//57 41//57
f 12//58 48//58 13//58
f 16//59 15//59 52//59
f 42//60 41//60 49//60
f 42//61 49//61 17//61
f 47//62 45//62 46//62
f 45//63 47//63 36//63
f 17//64 19//64 42//64
f 35//65 15//65 36//65
f 47//66 46//66 48//66
f 35//67 51//67 15//67
f 31//68 16//68 52//68
f 27//69 26//69 22//69
f 11//70 35//70 12//70
f 11//71 51//71 35//71
f 33//72 38//72 32//72
f 50//73 13//73 48//73
f 53//74 54//74 55//74
f 56//75 57//75 58//75
f 56//76 59//76 57//76
f 60//77 39//77 61//77
f 62//78 63//78 64//78
f 53//79 55//79 65//79
f 66//80 67//80 68//80
f 69//81 70//81 71//81
f 69//82 71//82 72//82
f 73//83 65//83 74//83
f 75//84 76//84 59//84
f 57//85 77//85 78//85
f 57//86 61//86 77//86
f 53//87 79//87 54//87
f 80//88 81//88 69//88
f 80//89 69//89 63//89
f 63//90 72//90 2//90
f 53//91 82//91 79//91
f 83//92 66//92 84//92
f 83//93 85//93 66//93
f 73//94 53//94 65//94
f 86//95 87//95 76//95
f 88//96 53//96 73//96
f 75//97 59//97 56//97
f 89//98 52//98 90//98
f 89//99 31//99 52//99
f 91//100 89//100 90//100
f 80//101 63//101 62//101
f 32//102 39//102 60//102
f 91//103 90//103 92//103
f 93//104 58//104 85//104
f 93//105 56//105 58//105
f 86//106 76//106 75//106
f 63//107 69//107 72//107
f 83//108 84//108 94//108
f 95//109 91//109 92//109
f 84//110 66//110 68//110
f 84//111 68//111 96//111
f 97//112 89//112 91//112
f 80//113 62//113 98//113
f 99//114 75//114 56//114
f 77//115 31//115 89//115
f 95//116 92//116 100//116
f 64//117 63//117 2//117
f 99//118 56//118 93//118
f 77//119 18//119 31//119
f 101//120 93//120 85//120
f 102//121 97//121 91//121
f 101//122 85//122 83//122
f 55//123 83//123 94//123
f 55//124 94//124 81//124
f 58//125 57//125 78//125
f 58//126 78//126 67//126
f 103//127 86//127 75//127
f 87//128 32//128 60//128
f 77//129 89//129 97//129
f 102//130 91//130 95//130
f 59//131 60//131 61//131
f 103//132 75//132 99//132
f 78//133 77//133 97//133
f 77//134 19//134 18//134
f 32//135 104//135 34//135
f 96//136 100//136 71//136
f 80//137 98//137 74//137
f 65//138 81//138 80//138
f 68//139 102//139 95//139
f 78//140 97//140 102//140
f 59//141 61//141 57//141
f 54//142 93//142 101//142
f 94//143 96//143 70//143
f 94//144 84//144 96//144
f 65//145 80//145 74//145
f 105//146 99//146 93//146
f 105//147 103//147 99//147
f 68//148 95//148 100//148
f 65//149 55//149 81//149
f 55//150 101//150 83//150
f 67//151 78//151 102//151
f 61//152 19//152 77//152
f 61//153 39//153 19//153
f 76//154 60//154 59//154
f 76//155 87//155 60//155
f 105//156 93//156 54//156
f 70//157 96//157 71//157
f 104//158 32//158 87//158
f 85//159 58//159 67//159
f 85//160 67//160 66//160
f 54//161 101//161 55//161
f 96//162 68//162 100//162
f 81//163 70//163 69//163
f 81//164 94//164 70//164
f 79//165 105//165 54//165
f 67//166 102//166 68//166
f 106//167 107//167 108//167
f 106//168 108//168 109//168
f 110//169 111//169 112//169
f 113//170 114//170 115//170
f 25//171 116//171 40//171
f 117//172 109//172 116//172
f 13//173 118//173 112//173
f 109//174 119//174 110//174
f 117//175 106//175 109//175
f 110//176 119//176 111//176
f 50//177 118//177 13//177
f 120//178 121//178 122//178
f 123//179 120//179 122//179
f 124//180 125//180 108//180
f 125//181 114//181 126//181
f 117//182 116//182 25//182
f 24//183 117//183 25//183
f 111//184 123//184 127//184
f 118//185 110//185 112//185
f 40//186 118//186 50//186
f 125//187 120//187 123//187
f 125//188 123//188 108//188
f 109//189 108//189 119//189
f 125//190 126//190 120//190
f 108//191 123//191 111//191
f 125//192 115//192 114//192
f 116//193 109//193 110//193
f 116//194 110//194 118//194
f 119//195 108//195 111//195
f 40//196 116//196 118//196
f 107//197 124//197 108//197
f 128//198 129//198 130//198
f 131//199 132//199 133//199
f 134//200 128//200 130//200
f 130//201 129//201 135//201
f 131//202 136//202 132//202
f 131//203 137//203 136//203
f 129//204 138//204 135//204
f 137//205 135//205 136//205
f 135//206 138//206 139//206
f 134//207 34//207 128//207
f 135//208 139//208 136//208
f 28//209 34//209 134//209
f 138//210 140//210 139//210
f 139//211 140//211 141//211
f 141//212 140//212 82//212
f 133//213 132//213 113//213
f 142//214 141//214 82//214
f 142//215 143//215 141//215
f 144//216 145//216 143//216
f 144//217 143//217 142//217
f 146//218 145//218 144//218
f 146//219 8//219 145//219
f 6//220 8//220 146//220
f 1//221 7//221 98//221
f 1//222 64//222 2//222
f 74//223 6//223 73//223
f 1//224 62//224 64//224
f 7//225 6//225 74//225
f 7//226 74//226 98//226
f 1//227 98//227 62//227
f 73//228 6//228 146//228
f 88//229 73//229 146//229
f 88//230 146//230 144//230
f 53//231 88//231 144//231
f 142//232 53//232 144//232
f 82//233 53//233 142//233
f 104//234 128//234 34//234
f 105//235 140//235 138//235
f 140//236 79//236 82//236
f 140//237 105//237 79//237
f 87//238 128//238 104//238
f 138//239 103//239 105//239
f 138//240 129//240 86//240
f 86//241 129//241 128//241
f 128//242 87//242 86//242
f 86//243 103//243 138//243
f 24//244 26//244 134//244
f 26//245 28//245 134//245
f 30//246 34//246 28//246
f 107//247 106//247 135//247
f 107//248 135//248 137//248
f 124//249 107//249 137//249
f 125//250 124//250 137//250
f 125//251 137//251 131//251
f 133//252 113//252 131//252
f 130//253 24//253 134//253
f 117//254 24//254 130//254
f 135//255 106//255 130//255
f 106//256 117//256 130//256
f 131//257 115//257 125//257
f 131//258 113//258 115//258
f 4//259 3//259 3//259