o obj1
v 0.088401 0.07785 -0.009257
v 0.088717 0.077699 -0.009312
v 0.088032 0.077902 -0.009247
v 0.089107 0.07708 -0.009464
v 0.089169 0.077402 -0.011949
v 0.088962 0.077413 -0.009198
v 0.088969 0.077814 -0.012075
v 0.088536 0.07815 -0.011947
v 0.088115 0.078235 -0.011881
v 0.088236 0.078119 -0.012386
v 0.087687 0.078106 -0.012267
v 0.087845 0.0782 -0.011814
v 0.087601 0.077763 -0.0126
v 0.08789 0.077747 -0.012776
v 0.087337 0.077771 -0.012321
v 0.089016 0.077478 -0.012353
v 0.087188 0.077754 -0.011971
v 0.088671 0.077586 -0.012678
v 0.088708 0.077922 -0.012387
v 0.088334 0.07767 -0.012807
v 0.087531 0.078076 -0.011792
v 0.087143 0.077589 -0.010686
v 0.087334 0.077618 -0.009162
v 0.087144 0.077411 -0.00927
v 0.087692 0.077828 -0.009126
v 0.088445 0.077716 -0.008957
v 0.087356 0.077323 -0.008859
v 0.087655 0.07725 -0.00858
v 0.088011 0.077614 -0.008737
v 0.088022 0.077174 -0.008484
v 0.08853 0.077358 -0.00868
v 0.088401 0.077105 -0.008539
v 0.088735 0.077067 -0.008727
v 0.08897 0.077057 -0.009004
vn 0.0303 0.3976 -0.9171
vn 0.9341 0.3504 0.0689
vn 0.8893 0.4527 0.0651
vn 0.6273 0.7737 0.0893
vn 0.7368 0.6694 0.0949
vn 0.218 0.9643 0.1501
vn 0.2928 0.9474 0.1291
vn 0.1674 0.969 -0.1818
vn -0.1629 0.976 -0.1447
vn -0.3445 0.6965 -0.6295
vn -0.1502 0.7781 -0.6099
vn -0.541 0.6515 -0.5318
vn 0.8951 0.3516 -0.2743
vn -0.651 0.7197 -0.2413
vn 0.687 0.4304 -0.5855
vn 0.7474 0.482 -0.4573
vn 0.4134 0.5693 -0.7106
vn -0.6308 0.7593 -0.1599
vn -0.0748 0.968 -0.2397
vn -0.3693 0.9272 -0.0629
vn 0.5653 0.8019 -0.1934
vn 0.2859 0.6873 -0.6678
vn 0.0693 0.6898 -0.7206
vn 0.3659 0.8772 -0.3108
vn -0.0981 0.9877 0.1218
vn -0.7018 0.7093 0.0664
vn -0.7558 0.6497 0.0822
vn -0.5092 0.8535 0.1105
vn -0.6929 0.7173 0.073
vn -0.1691 0.9775 0.1258
vn -0.3574 0.9277 0.1082
vn 0.5962 0.6807 0.4257
vn -0.7561 0.4396 0.4848
vn -0.4337 0.6335 0.6408
vn -0.374 0.6496 0.6619
vn 0.1504 0.4954 0.8555
vn 0.0281 0.8862 0.4625
vn 0.2296 0.6308 0.7412
vn 0.0056 0.8447 0.5351
vn 0.1378 0.9108 0.3892
vn -0.446 0.6241 0.6416
vn 0.4542 0.8354 0.3095
vn -0.1253 0.4923 0.8614
vn 0.2036 0.3923 0.897
vn 0.4971 0.2111 0.8416
vn 0.7206 0.3451 0.6014
vn 0.6895 0.3833 0.6145
vn 0.9408 0.1791 0.2877
vn 0.5969 0.5766 0.5578
f 1//1 2//1 3//1
f 4//2 5//2 6//2
f 7//3 6//3 5//3
f 8//4 2//4 7//4
f 7//5 2//5 6//5
f 9//6 2//6 8//6
f 3//7 2//7 9//7
f 10//8 9//8 8//8
f 11//9 12//9 9//9
f 13//10 11//10 14//10
f 14//11 11//11 10//11
f 15//12 11//12 13//12
f 16//13 7//13 5//13
f 17//14 11//14 15//14
f 18//15 19//15 16//15
f 16//16 19//16 7//16
f 18//17 20//17 19//17
f 17//18 21//18 11//18
f 11//19 9//19 10//19
f 21//20 12//20 11//20
f 19//21 8//21 7//21
f 20//22 10//22 19//22
f 14//23 10//23 20//23
f 19//24 10//24 8//24
f 9//25 12//25 3//25
f 22//26 21//26 17//26
f 23//27 22//27 24//27
f 25//28 21//28 23//28
f 23//29 21//29 22//29
f 3//30 12//30 25//30
f 25//31 12//31 21//31
f 6//32 2//32 26//32
f 27//33 23//33 24//33
f 23//34 28//34 25//34
f 25//35 28//35 29//35
f 30//36 31//36 29//36
f 25//37 29//37 26//37
f 31//38 26//38 29//38
f 26//39 3//39 25//39
f 1//40 3//40 26//40
f 27//41 28//41 23//41
f 1//42 26//42 2//42
f 30//43 29//43 28//43
f 32//44 31//44 30//44
f 33//45 31//45 32//45
f 34//46 6//46 33//46
f 33//47 6//47 31//47
f 4//48 6//48 34//48
f 6//49 26//49 31//49