o obj1
v 0.008513 -0.069769 0.083855
v 0.005045 -0.069219 0.084691
v 0.006985 -0.069521 0.084673
v 0.009975 -0.070006 0.082601
v 0.001998 -0.068716 0.081436
v 0.0115 -0.070253 0.080503
v 0.012698 -0.070448 0.077226
v 0.015147 -0.070844 0.05996
v 0.00962 -0.069984 0.01322
v 0.018836 -0.071441 0.030645
v 0.020778 -0.071827 0.013176
v 0.003977 -0.069035 0.084299
v 0.002641 -0.068828 0.083033
v 0.017077 -0.075134 0.015489
v 0.012203 -0.074393 0.010045
v 0.017587 -0.075256 0.0101
v 0.014745 -0.074785 0.034621
v 0.013723 -0.074603 0.043181
v 0.004485 -0.073147 0.081433
v 0.011855 -0.074297 0.058019
v 0.010927 -0.074127 0.065475
v 0.0099 -0.073966 0.072506
v 0.009108 -0.073888 0.076651
v 0.007148 -0.073566 0.080697
v 0.005377 -0.073292 0.081724
v 0.012824 -0.074461 0.050361
v 0.010376 -0.073708 0.07396
v 0.015902 -0.074474 0.033288
v 0.015357 -0.074537 0.03597
v 0.014444 -0.074624 0.040093
v 0.014292 -0.074424 0.043891
v 0.017776 -0.074928 0.015266
v 0.01817 -0.074757 0.014708
v 0.013053 -0.073775 0.057681
v 0.013277 -0.074045 0.054049
v 0.01413 -0.073988 0.049149
v 0.013552 -0.074282 0.04994
v 0.010609 -0.07326 0.075927
v 0.00994 -0.073492 0.077676
v 0.011607 -0.073913 0.065199
v 0.012177 -0.073697 0.06379
v 0.011389 -0.073588 0.069398
v 0.01059 -0.073883 0.070863
v 0.009244 -0.073157 0.079787
v 0.008589 -0.073641 0.079383
v 0.01511 -0.07417 0.041192
v 0.007869 -0.073028 0.08148
v 0.01267 -0.074344 0.053738
v 0.012351 -0.074144 0.058385
v 0.00532 -0.073132 0.082237
v 0.006082 -0.072731 0.082769
v 0.011606 -0.074181 0.061588
v 0.010709 -0.07403 0.068195
v 0.018439 -0.075002 0.010117
v 0.003936 -0.072476 0.082162
v 0.003367 -0.07233 0.081045
v 0.003915 -0.072875 0.081079
v 0.004734 -0.072436 0.082802
v 0.011116 -0.073111 0.010156
v 0.020393 -0.07253 0.011653
v 0.010199 -0.070988 0.011396
v 0.0196 -0.073664 0.010565
v 0.003961 -0.070828 0.083234
v 0.005742 -0.070997 0.083839
vn 0.1536 0.9881 -0.012
vn 0.1597 0.9872 -0.0004
vn 0.1597 0.9872 -0.0002
vn 0.1596 0.9872 -0.0003
vn 0.1597 0.9872 -0
vn 0.1568 0.9876 -0.0004
vn 0.1588 0.9873 -0.0006
vn 0.163 0.9866 -0.0037
vn 0.1617 0.9866 0.0223
vn 0.1573 0.9875 0.0061
vn 0.159 0.9873 -0.0062
vn -0.1583 -0.9874 0.0074
vn -0.15 -0.9887 -0.0002
vn -0.1645 -0.9864 0.0013
vn -0.137 -0.9906 0.0055
vn -0.148 -0.989 0.001
vn -0.1725 -0.9849 -0.0143
vn -0.1541 -0.988 0.004
vn -0.1575 -0.9875 -0.0086
vn -0.1514 -0.9885 0.0009
vn -0.1607 -0.987 0.0008
vn -0.151 -0.9885 0.0007
vn 0.2915 -0.9537 0.0737
vn 0.3004 -0.953 0.0388
vn 0.1266 -0.9913 0.0361
vn 0.2307 -0.9712 0.0603
vn 0.2976 -0.9531 0.055
vn 0.4821 -0.8731 0.0721
vn 0.3185 -0.9463 0.0561
vn 0.605 -0.7904 0.0962
vn 0.541 -0.8368 0.0845
vn 0.5801 -0.8064 0.115
vn 0.3314 -0.9388 0.0936
vn 0.5435 -0.8343 0.0927
vn 0.4735 -0.877 0.0821
vn 0.5943 -0.7965 0.111
vn 0.4513 -0.8462 0.2832
vn 0.29 -0.956 0.0441
vn 0.2806 -0.9497 0.139
vn 0.4627 -0.8826 0.0838
vn 0.0359 -0.9947 0.0966
vn 0.4859 -0.8716 0.0652
vn 0.5425 -0.8356 0.086
vn 0.2402 -0.9693 0.0521
vn 0.3879 -0.8402 0.3789
vn 0.2783 -0.8919 0.3565
vn 0.2669 -0.9623 0.0525
vn 0.4075 -0.9097 0.0797
vn 0.2631 -0.9637 0.0453
vn 0.413 -0.9082 0.0675
vn 0.5367 -0.8383 0.0955
vn 0.1591 -0.8847 0.4383
vn 0.1741 -0.8791 0.4437
vn 0.0274 -0.9531 0.3013
vn 0.5125 -0.8545 0.0842
vn 0.5305 -0.8433 0.0867
vn 0.2612 -0.964 0.0496
vn 0.5432 -0.8352 0.086
vn 0.4235 -0.9016 0.0881
vn 0.4878 -0.8706 0.0646
vn 0.1604 -0.9862 0.0414
vn 0.3223 -0.9448 0.0596
vn 0.4235 -0.9013 0.0916
vn 0.4543 -0.8882 0.0693
vn 0.1751 -0.9835 0.0442
vn 0.2914 -0.9538 0.0738
vn 0.2545 -0.9653 0.0591
vn 0.3259 -0.9428 0.07
vn 0.2717 -0.9602 0.0652
vn 0.1908 -0.9803 0.0503
vn 0.2837 -0.9565 0.0677
vn 0.3605 -0.9311 0.0552
vn 0.2433 -0.962 -0.1237
vn -0.6887 -0.676 0.2623
vn -0.3866 -0.7556 0.5288
vn -0.2386 -0.9339 0.2662
vn -0.5555 -0.7767 0.297
vn -0.1338 -0.6903 0.711
vn -0.4045 -0.804 0.4359
vn -0.7636 -0.6412 -0.0764
vn -0.7018 -0.7093 -0.0667
vn -0.4161 -0.9088 -0.0291
vn 0.1449 0.8841 -0.4442
vn 0.1446 0.8856 -0.4413
vn 0.0139 0.0231 -0.9996
vn 0.0219 0.1052 -0.9942
vn 0.0636 0.2663 -0.9618
vn 0.0751 0.5268 -0.8467
vn 0.1164 0.6439 -0.7562
vn 0.7282 -0.6149 0.3027
vn 0.772 -0.6261 0.1094
vn 0.7706 -0.6278 0.1097
vn 0.7576 -0.6449 0.1007
vn 0.7581 -0.644 0.1023
vn 0.7408 -0.6418 0.1982
vn 0.7684 -0.6322 0.0994
vn 0.7695 -0.6313 0.0967
vn 0.7682 -0.6326 0.0982
vn 0.7398 -0.6682 0.079
vn 0.7684 -0.6279 0.1234
vn 0.7685 -0.6278 0.1233
vn 0.7638 -0.6343 0.1197
vn 0.4059 -0.5892 0.6986
vn 0.4754 -0.5775 0.6637
vn 0.7626 -0.6362 0.1173
vn 0.6108 -0.6015 0.5149
vn 0.5926 -0.6087 0.5276
vn 0.7036 -0.6284 0.3318
vn 0.765 -0.6341 0.1124
vn -0.6848 -0.3901 0.6155
vn -0.5444 -0.4517 0.7068
vn -0.0617 -0.4509 0.8905
vn 0.0434 -0.5187 0.8539
vn -0.4375 -0.4235 0.7932
vn -0.6675 -0.3759 0.6428
vn -0.3743 -0.4712 0.7987
vn -0.097 -0.5366 0.8383
vn -0.1892 -0.4836 0.8546
vn -0.8406 -0.3885 0.3773
vn -0.872 -0.3656 0.3256
vn 0.3241 -0.5484 0.7708
vn -0.9341 -0.3434 -0.098
vn -0.9318 -0.3496 -0.098
vn -0.9342 -0.3397 -0.1092
f 1//1 2//1 3//1
f 4//2 5//2 1//2
f 6//3 5//3 4//3
f 7//4 5//4 6//4
f 8//5 5//5 7//5
f 9//6 8//6 10//6
f 9//7 5//7 8//7
f 11//8 9//8 10//8
f 1//9 12//9 2//9
f 1//10 5//10 13//10
f 1//11 13//11 12//11
f 14//12 15//12 16//12
f 17//13 15//13 14//13
f 18//14 15//14 17//14
f 19//15 20//15 21//15
f 19//16 21//16 22//16
f 19//17 22//17 23//17
f 24//18 19//18 23//18
f 24//19 25//19 19//19
f 19//20 15//20 20//20
f 20//21 15//21 26//21
f 26//22 15//22 18//22
f 23//23 22//23 27//23
f 28//24 29//24 17//24
f 17//25 30//25 18//25
f 18//26 30//26 31//26
f 32//27 28//27 14//27
f 33//28 28//28 32//28
f 28//29 17//29 14//29
f 34//30 35//30 36//30
f 36//31 35//31 37//31
f 38//32 39//32 27//32
f 39//33 23//33 27//33
f 40//34 41//34 42//34
f 42//35 27//35 43//35
f 38//36 27//36 42//36
f 44//37 45//37 39//37
f 17//38 29//38 30//38
f 39//39 45//39 23//39
f 29//40 46//40 30//40
f 45//41 24//41 23//41
f 30//42 46//42 31//42
f 37//43 31//43 36//43
f 18//44 31//44 37//44
f 44//45 47//45 45//45
f 47//46 24//46 45//46
f 37//47 26//47 18//47
f 35//48 48//48 37//48
f 37//49 48//49 26//49
f 48//50 35//50 49//50
f 34//51 49//51 35//51
f 50//52 24//52 51//52
f 51//53 24//53 47//53
f 25//54 24//54 50//54
f 46//55 29//55 28//55
f 41//56 49//56 34//56
f 52//57 20//57 49//57
f 36//58 31//58 46//58
f 52//59 49//59 41//59
f 52//60 41//60 40//60
f 26//61 48//61 20//61
f 40//62 53//62 21//62
f 42//63 53//63 40//63
f 53//64 42//64 43//64
f 20//65 52//65 21//65
f 43//66 27//66 22//66
f 48//67 49//67 20//67
f 40//68 21//68 52//68
f 43//69 22//69 53//69
f 21//70 53//70 22//70
f 33//71 16//71 54//71
f 33//72 14//72 16//72
f 32//73 14//73 33//73
f 55//74 56//74 57//74
f 58//75 55//75 50//75
f 50//76 19//76 25//76
f 55//77 57//77 19//77
f 51//78 58//78 50//78
f 55//79 19//79 50//79
f 56//80 59//80 15//80
f 57//81 56//81 15//81
f 19//82 57//82 15//82
f 11//83 60//83 61//83
f 11//84 61//84 9//84
f 54//85 16//85 15//85
f 54//86 15//86 59//86
f 62//87 54//87 59//87
f 62//88 59//88 61//88
f 60//89 62//89 61//89
f 6//90 39//90 7//90
f 46//91 8//91 36//91
f 8//92 46//92 10//92
f 10//93 46//93 28//93
f 33//94 10//94 28//94
f 39//95 38//95 7//95
f 10//96 33//96 11//96
f 11//97 62//97 60//97
f 33//98 62//98 11//98
f 54//99 62//99 33//99
f 7//100 42//100 8//100
f 38//101 42//101 7//101
f 42//102 41//102 8//102
f 51//103 47//103 1//103
f 1//104 47//104 4//104
f 41//105 34//105 8//105
f 4//106 44//106 6//106
f 47//107 44//107 4//107
f 44//108 39//108 6//108
f 34//109 36//109 8//109
f 63//110 13//110 55//110
f 63//111 55//111 58//111
f 64//112 3//112 2//112
f 51//113 3//113 64//113
f 2//114 63//114 58//114
f 63//115 12//115 13//115
f 2//116 12//116 63//116
f 64//117 58//117 51//117
f 64//118 2//118 58//118
f 13//119 56//119 55//119
f 13//120 5//120 56//120
f 51//121 1//121 3//121
f 9//122 56//122 5//122
f 59//123 56//123 9//123
f 61//124 59//124 9//124