o obj1
v 0.089142 0.076579 0.002738
v 0.087998 0.076816 0.003879
v 0.089736 0.076569 0.004698
v 0.08858 0.076645 0.001758
v 0.086986 0.076962 0.002843
v 0.088379 0.0767 0.002531
v 0.089918 0.076435 -0.002036
v 0.088296 0.076686 -0.001369
v 0.089366 0.076499 -0.000453
v 0.085697 0.077168 0.000137
v 0.085934 0.077128 0.001105
v 0.086749 0.076966 0.001178
v 0.087756 0.076852 -0.003749
v 0.087155 0.076922 -0.002577
v 0.089182 0.076582 -0.003156
v 0.083296 0.077708 -0.001294
v 0.084131 0.077505 -0.000556
v 0.083425 0.077685 -0.001711
v 0.085038 0.077339 -0.002474
v 0.085208 0.077273 -0.000729
v 0.085344 0.077241 6.5E-05
v 0.085774 0.07717 0.001719
v 0.087447 0.076854 -0.002058
v 0.091588 0.076173 0.000437
v 0.09061 0.076338 0.002288
v 0.092515 0.07608 0.002113
v 0.089531 0.076473 -0.000305
v 0.089087 0.076545 0.000602
v 0.090295 0.076353 -9.8E-05
v 0.088907 0.076718 0.004924
v 0.089327 0.076644 0.004829
v 0.083294 0.0777 0.001294
v 0.092086 0.076157 0.002868
v 0.092316 0.076117 0.0025
v 0.088136 0.076703 0.000425
v 0.083203 0.077724 -0.000868
v 0.085971 0.077233 -0.004532
v 0.087079 0.076912 -0.001602
v 0.08559 0.077303 -0.00433
v 0.085228 0.077367 -0.004096
v 0.088481 0.076793 0.004981
v 0.085184 0.077278 0.00068
v 0.086935 0.076942 -0.001758
v 0.083147 0.077734 -0.000436
v 0.085384 0.077278 0.002796
v 0.091217 0.076311 -0.003831
v 0.091824 0.076201 -0.003214
v 0.091534 0.076255 -0.003536
v 0.092316 0.076116 -0.0025
v 0.092086 0.076158 -0.002868
v 0.090876 0.076371 -0.004096
v 0.090514 0.076435 -0.00433
v 0.090133 0.076502 -0.004532
v 0.092515 0.076082 -0.002113
v 0.091651 0.076174 -0.001334
v 0.092679 0.076053 -0.00171
v 0.088043 0.07672 0.000525
v 0.089736 0.076572 -0.004699
v 0.091824 0.076204 0.003214
v 0.092808 0.07603 -0.001294
v 0.083128 0.077737 0
v 0.089327 0.076644 -0.00483
v 0.08457 0.077483 -0.003536
v 0.084887 0.077427 -0.003831
v 0.088052 0.076869 0.005
v 0.088907 0.076718 -0.004924
v 0.087623 0.076945 0.004981
v 0.085971 0.077233 0.004532
v 0.083147 0.077734 0.000436
v 0.092901 0.076014 -0.000868
v 0.08877 0.076614 0.00181
v 0.091534 0.076254 0.003536
v 0.092976 0.075998 1E-06
v 0.092957 0.076004 -0.000436
v 0.086547 0.076998 -0.000363
v 0.087197 0.077019 0.004924
v 0.086058 0.077103 -0.00123
v 0.088481 0.076793 -0.004981
v 0.083203 0.077724 0.000868
v 0.08428 0.077534 -0.003214
v 0.088052 0.076869 -0.005
v 0.086619 0.076985 0.000137
v 0.086778 0.077094 0.004829
v 0.084887 0.077427 0.00383
v 0.08457 0.077483 0.003536
v 0.090876 0.076368 0.004096
v 0.091217 0.076311 0.00383
v 0.086368 0.077166 0.004698
v 0.087623 0.076945 -0.004981
v 0.08428 0.077534 0.003214
v 0.084019 0.07758 0.002868
v 0.083425 0.077685 0.00171
v 0.083589 0.077656 0.002113
v 0.085228 0.077367 0.004096
v 0.08559 0.077303 0.00433
v 0.083788 0.077621 0.0025
v 0.084019 0.07758 -0.002868
v 0.087197 0.077019 -0.004924
v 0.092957 0.076004 0.000436
v 0.092901 0.076014 0.000868
v 0.083788 0.077621 -0.0025
v 0.090501 0.07633 -0.000871
v 0.092808 0.07603 0.001294
v 0.083589 0.077656 -0.002113
v 0.090133 0.076502 0.004532
v 0.090514 0.076435 0.00433
v 0.086778 0.077094 -0.00483
v 0.086368 0.077166 -0.004699
v 0.092679 0.076053 0.00171
vn 0.161 0.986 -0.0439
vn 0.1789 0.9836 -0.0244
vn 0.1596 0.9871 0.0156
vn 0.1957 0.9806 -0.0074
vn 0.1738 0.9843 0.0309
vn 0.2231 0.9747 0.0152
vn 0.2181 0.9758 0.0184
vn 0.1797 0.9834 -0.0231
vn 0.2111 0.9775 0.0027
vn 0.1964 0.9804 -0.0159
vn 0.1718 0.9847 0.0276
vn 0.1737 0.9843 0.0308
vn 0.1766 0.9837 -0.0347
vn 0.1327 0.991 -0.0185
vn 0.1552 0.9879 -0.0023
vn 0.1545 0.9845 -0.0833
vn 0.1638 0.9852 -0.0499
vn 0.1571 0.9876 -0.0013
vn 0.2152 0.9766 -0.0057
vn 0.1015 0.9939 -0.0436
vn 0.1678 0.9858 0.0059
vn 0.2256 0.9741 0.0122
vn 0.1928 0.9805 0.037
vn 0.1784 0.9838 0.0192
vn 0.2205 0.9723 0.0778
vn 0.1662 0.9847 -0.0522
vn 0.2172 0.9761 -0.0021
vn 0.182 0.9831 0.0221
vn 0.2272 0.9738 0.0073
vn 0.1946 0.9806 -0.0253
vn 0.1884 0.9816 -0.0307
vn 0.1435 0.9896 -0.0127
vn 0.132 0.9909 -0.0261
vn 0.1258 0.9907 0.0522
vn 0.0785 0.9948 0.0656
vn 0.1444 0.9888 0.0384
vn 0.1467 0.9883 0.0427
vn 0.1493 0.9877 0.0457
vn 0.195 0.9799 0.0421
vn 0.2122 0.9771 -0.0182
vn 0.1236 0.9921 0.0202
vn 0.1823 0.9832 0.0072
vn 0.1996 0.9791 0.0402
vn 0.154 0.9869 0.049
vn 0.1346 0.9904 -0.0329
vn 0.1223 0.9923 0.0168
vn 0.2266 0.974 0.0023
vn 0.1433 0.9891 0.035
vn 0.1576 0.9862 0.0503
vn 0.1252 0.9919 0.022
vn 0.2099 0.9769 0.0404
vn 0.2058 0.9777 0.0409
vn 0.1807 0.9835 0.007
vn 0.172 0.9836 -0.0547
vn 0.1617 0.9855 0.0506
vn 0.1759 0.9829 -0.0548
vn 0.1337 0.9907 0.0269
vn 0.1871 0.9813 -0.0453
vn 0.1945 0.9805 0.028
vn 0.2257 0.9742 -0.0007
vn 0.2243 0.9745 -0.0022
vn 0.166 0.9849 0.0499
vn 0.1225 0.9924 0.0118
vn 0.1517 0.9883 -0.0138
vn 0.1461 0.9891 -0.0184
vn 0.1349 0.9903 -0.0333
vn 0.1065 0.9943 0.0084
vn 0.1433 0.989 0.0359
vn 0.1906 0.9816 0.0139
vn 0.1791 0.9824 -0.0537
vn 0.1955 0.9804 0.0252
vn 0.167 0.9846 0.0509
vn 0.363 0.9314 -0.0259
vn 0.2135 0.9762 0.0387
vn 0.1717 0.9837 0.0537
vn 0.1886 0.982 0.0133
vn 0.1244 0.9922 0.0068
vn 0.1949 0.98 -0.0403
vn 0.163 0.9866 0.0017
vn 0.1866 0.9813 -0.0469
vn 0.1851 0.9815 -0.049
vn 0.2127 0.9769 -0.0214
vn 0.1381 0.99 0.0273
vn 0.2084 0.9772 -0.0407
vn 0.099 0.9915 -0.0846
vn 0.1394 0.9896 -0.0367
vn 0.1959 0.9779 -0.0733
vn 0.163 0.9866 -0.0112
vn 0.1759 0.9829 0.0547
vn 0.2143 0.9762 -0.0321
vn 0.3395 0.9379 -0.0716
vn 0.2008 0.9787 -0.0424
vn 0.2217 0.9718 -0.0803
vn 0.2138 0.9766 -0.023
vn 0.2383 0.9706 -0.0334
vn 0.2066 0.9775 -0.0416
vn 0.2132 0.9764 -0.0352
vn 0.2182 0.9753 0.0337
vn 0.2146 0.9763 -0.0275
vn 0.1262 0.992 0.005
vn 0.1543 0.9877 -0.0242
vn 0.1619 0.9867 -0.0106
vn 0.1793 0.9823 0.0543
vn 0.1094 0.994 -0.0084
vn 0.1669 0.9855 -0.0293
vn 0.2053 0.9785 0.0168
vn 0.1501 0.9879 -0.0382
vn 0.2194 0.9752 0.0306
vn 0.1844 0.9828 -0.0049
vn 0.1416 0.9898 0.0185
vn 0.1512 0.9885 -0.0048
vn 0.2196 0.9753 0.0236
vn 0.1944 0.9809 -0.003
vn 0.1291 0.9881 -0.0841
vn 0.1524 0.9875 -0.0413
vn 0.1219 0.9925 -0.0086
vn 0.1781 0.9839 -0.0178
vn 0.2131 0.9769 0.016
vn 0.1944 0.9809 -0.0062
vn 0.1673 0.9852 -0.0374
vn 0.187 0.9811 0.0505
vn 0.181 0.983 0.0306
vn 0.1958 0.9779 0.0733
vn 0.1362 0.9907 0.0054
vn 0.1366 0.9906 0.006
vn 0.1365 0.9881 -0.0713
vn 0.1625 0.9864 0.0229
vn 0.1263 0.9919 -0.0149
vn 0.1106 0.9936 -0.0207
vn 0.1523 0.9883 0.013
vn 0.2041 0.9789 0.0039
vn 0.2186 0.9756 0.0197
vn 0.15 0.9887 0.0068
vn 0.2069 0.9783 -0.0103
f 1//1 2//1 3//1
f 4//2 5//2 6//2
f 7//3 8//3 9//3
f 10//4 11//4 12//4
f 13//5 14//5 15//5
f 16//6 17//6 18//6
f 18//7 17//7 19//7
f 12//8 5//8 4//8
f 20//9 17//9 21//9
f 11//10 22//10 12//10
f 15//11 23//11 8//11
f 14//12 23//12 15//12
f 6//13 5//13 2//13
f 24//14 25//14 26//14
f 27//15 28//15 29//15
f 3//16 30//16 31//16
f 2//17 30//17 3//17
f 9//18 28//18 27//18
f 17//19 32//19 21//19
f 26//20 33//20 34//20
f 8//21 35//21 9//21
f 16//22 36//22 17//22
f 37//23 19//23 13//23
f 23//24 38//24 8//24
f 39//25 40//25 37//25
f 2//26 41//26 30//26
f 21//27 32//27 42//27
f 23//28 43//28 38//28
f 36//29 44//29 17//29
f 12//30 45//30 5//30
f 22//31 45//31 12//31
f 29//32 25//32 24//32
f 26//33 25//33 33//33
f 46//34 47//34 48//34
f 47//35 49//35 50//35
f 51//36 15//36 46//36
f 52//37 15//37 51//37
f 53//38 15//38 52//38
f 13//39 19//39 14//39
f 42//40 32//40 22//40
f 54//41 55//41 56//41
f 8//42 57//42 35//42
f 40//43 19//43 37//43
f 58//44 15//44 53//44
f 33//45 25//45 59//45
f 55//46 60//46 56//46
f 44//47 61//47 17//47
f 46//48 15//48 47//48
f 62//49 15//49 58//49
f 49//50 55//50 54//50
f 63//51 19//51 64//51
f 64//52 19//52 40//52
f 38//53 57//53 8//53
f 2//54 65//54 41//54
f 66//55 15//55 62//55
f 67//56 65//56 2//56
f 47//57 55//57 49//57
f 5//58 68//58 2//58
f 14//59 19//59 43//59
f 17//60 69//60 32//60
f 61//61 69//61 17//61
f 66//62 13//62 15//62
f 60//63 55//63 70//63
f 29//64 71//64 25//64
f 28//65 71//65 29//65
f 25//66 72//66 59//66
f 70//67 73//67 74//67
f 15//68 7//68 47//68
f 43//69 75//69 38//69
f 2//70 76//70 67//70
f 19//71 77//71 43//71
f 78//72 13//72 66//72
f 69//73 79//73 32//73
f 63//74 80//74 19//74
f 81//75 13//75 78//75
f 43//76 77//76 75//76
f 55//77 73//77 70//77
f 45//78 68//78 5//78
f 38//79 75//79 82//79
f 68//80 83//80 2//80
f 2//81 83//81 76//81
f 32//82 45//82 22//82
f 47//83 7//83 55//83
f 84//84 45//84 85//84
f 72//85 86//85 87//85
f 25//86 86//86 72//86
f 68//87 88//87 83//87
f 35//88 57//88 71//88
f 89//89 13//89 81//89
f 90//90 45//90 91//90
f 32//91 92//91 93//91
f 45//92 94//92 68//92
f 68//93 94//93 95//93
f 32//94 96//94 45//94
f 93//95 96//95 32//95
f 84//96 94//96 45//96
f 90//97 85//97 45//97
f 97//98 19//98 80//98
f 96//99 91//99 45//99
f 55//100 24//100 73//100
f 71//101 1//101 25//101
f 57//102 4//102 71//102
f 89//103 98//103 13//103
f 99//104 73//104 100//104
f 4//105 1//105 71//105
f 19//106 20//106 77//106
f 25//107 1//107 86//107
f 97//108 101//108 19//108
f 82//109 12//109 57//109
f 7//110 102//110 55//110
f 73//111 103//111 100//111
f 104//112 19//112 101//112
f 75//113 10//113 82//113
f 86//114 105//114 106//114
f 1//115 3//115 86//115
f 73//116 24//116 103//116
f 12//117 4//117 57//117
f 19//118 17//118 20//118
f 82//119 10//119 12//119
f 6//120 2//120 1//120
f 98//121 37//121 13//121
f 107//122 37//122 98//122
f 108//123 37//123 107//123
f 55//124 29//124 24//124
f 102//125 29//125 55//125
f 86//126 3//126 105//126
f 15//127 8//127 7//127
f 24//128 26//128 103//128
f 103//129 26//129 109//129
f 7//130 9//130 102//130
f 20//131 21//131 10//131
f 104//132 18//132 19//132
f 102//133 9//133 27//133
f 11//134 10//134 21//134